<?xml version="1.0" encoding="UTF-8" standalone="no"?>
<!-- Created with Inkscape (http://www.inkscape.org/) -->

<svg
   xmlns:dc="http://purl.org/dc/elements/1.1/"
   xmlns:cc="http://creativecommons.org/ns#"
   xmlns:rdf="http://www.w3.org/1999/02/22-rdf-syntax-ns#"
   xmlns:svg="http://www.w3.org/2000/svg"
   xmlns="http://www.w3.org/2000/svg"
   xmlns:xlink="http://www.w3.org/1999/xlink"
   xmlns:sodipodi="http://sodipodi.sourceforge.net/DTD/sodipodi-0.dtd"
   xmlns:inkscape="http://www.inkscape.org/namespaces/inkscape"
   version="1.1"
   width="48"
   height="48"
   viewBox="0 0 48 48"
   id="svg2"
   xml:space="preserve"
   inkscape:version="0.48.5 r10040"
   sodipodi:docname="application-vnd.ms-access.svg"><sodipodi:namedview
     pagecolor="#ffffff"
     bordercolor="#666666"
     borderopacity="1"
     objecttolerance="10"
     gridtolerance="10"
     guidetolerance="10"
     inkscape:pageopacity="0"
     inkscape:pageshadow="2"
     inkscape:window-width="1920"
     inkscape:window-height="1007"
     id="namedview29"
     showgrid="false"
     inkscape:zoom="4.9166666"
     inkscape:cx="-65.405193"
     inkscape:cy="23.935429"
     inkscape:window-x="0"
     inkscape:window-y="31"
     inkscape:window-maximized="1"
     inkscape:current-layer="g3788" /><defs
     id="defs14"><radialGradient
       cx="23.334524"
       cy="41.63604"
       r="22.627417"
       fx="23.334524"
       fy="41.63604"
       id="radialGradient4005"
       xlink:href="#linearGradient23419"
       gradientUnits="userSpaceOnUse"
       gradientTransform="matrix(0.9516533,0,0,0.3655503,1.7936239,24.507202)" /><linearGradient
       id="linearGradient23419"><stop
         id="stop23421"
         style="stop-color:#000000;stop-opacity:1"
         offset="0" /><stop
         id="stop23423"
         style="stop-color:#000000;stop-opacity:0"
         offset="1" /></linearGradient><radialGradient
       cx="23.334524"
       cy="41.63604"
       r="22.627417"
       fx="23.334524"
       fy="41.63604"
       id="radialGradient3055"
       xlink:href="#linearGradient23419"
       gradientUnits="userSpaceOnUse"
       gradientTransform="matrix(0.25333117,0,0,0.10804387,10.578534,18.213423)" /></defs><metadata
     id="metadata19"><rdf:RDF><cc:Work
         rdf:about=""><dc:format>image/svg+xml</dc:format><dc:type
           rdf:resource="http://purl.org/dc/dcmitype/StillImage" /><dc:title /><dc:creator><cc:Agent><dc:title>Jakub Stainer</dc:title></cc:Agent></dc:creator><cc:license
           rdf:resource="http://creativecommons.org/licenses/GPL/2.0/" /></cc:Work><cc:License
         rdf:about="http://creativecommons.org/licenses/GPL/2.0/"><cc:permits
           rdf:resource="http://web.resource.org/cc/Reproduction" /><cc:permits
           rdf:resource="http://web.resource.org/cc/Distribution" /><cc:requires
           rdf:resource="http://web.resource.org/cc/Notice" /><cc:permits
           rdf:resource="http://web.resource.org/cc/DerivativeWorks" /><cc:requires
           rdf:resource="http://web.resource.org/cc/ShareAlike" /><cc:requires
           rdf:resource="http://web.resource.org/cc/SourceCode" /></cc:License></rdf:RDF></metadata><rect
     width="48"
     height="48"
     x="0"
     y="0"
     id="rect3319"
     style="fill:none" /><path
     d="M 24.980446,26.962689 H 8.1720967 V 5.1898536 H 19.937941 l 5.042505,6.2208104 v 15.552025 z"
     id="path7"
     style="fill:none;stroke:#000000;stroke-width:2.36148596;stroke-linejoin:round"
     inkscape:connector-curvature="0" /><g
     transform="matrix(0.26620112,0,0,0.29556501,9.5805445,11.580122)"
     id="g3788"><path
       d="m 42.529451,32.295943 c 0,4.077669 -8.282739,7.387084 -18.488235,7.387084 -10.205513,0 -18.4882471,-3.309415 -18.4882471,-7.387084 0,-11.816215 -2.450779,0.336229 18.2972361,0.182447 21.223177,-0.158667 18.679246,-13.015545 18.679246,-0.182447 z"
       id="path2561"
       style="fill:#000000;fill-opacity:1;stroke:none"
       inkscape:connector-curvature="0"
       sodipodi:nodetypes="ssscs" /><path
       d="m 42.163244,5.2333002 c 0,4.142137 -8.282732,7.4999988 -18.499998,7.4999988 -10.217269,0 -18.4999993,-3.3578618 -18.4999993,-7.4999988 0,-4.1421359 8.2827303,-7.5000011 18.4999993,-7.5000011 10.217266,0 18.499998,3.3578652 18.499998,7.5000011 l 0,0 z"
       id="path3880"
       style="fill:#000000;fill-opacity:1;stroke:none"
       inkscape:connector-curvature="0" /><path
       d="m 42.091122,14.450324 c 0,4.077669 -8.282739,7.387084 -18.488235,7.387084 -10.205514,0 -18.4882474,-3.309415 -18.4882474,-7.387084 0,-11.8162149 -2.45078,0.336231 18.2972364,0.182447 21.223178,-0.158665 18.679246,-13.0155449 18.679246,-0.182447 z"
       id="path2561-3"
       style="fill:#000000;fill-opacity:1;stroke:none"
       inkscape:connector-curvature="0"
       sodipodi:nodetypes="ssscs" /><path
       d="m 42.282133,23.224098 c 0,4.077669 -8.282739,7.387084 -18.488235,7.387084 -10.205514,0 -18.4882468,-3.309415 -18.4882468,-7.387084 0,-11.816215 -2.45078,0.336231 18.2972358,0.182447 C 44.826065,23.24788 42.282133,10.391 42.282133,23.224098 z"
       id="path2561-6"
       style="fill:#000000;fill-opacity:1;stroke:none"
       inkscape:connector-curvature="0"
       sodipodi:nodetypes="ssscs" /></g><g
     id="g3019"
     style="fill:#000000;fill-opacity:1;stroke:none"
     transform="translate(0.3050846,1.1186436)"><g
       style="fill:#000000;fill-opacity:1;stroke:none"
       id="g3816"
       transform="matrix(0.06437394,0,0,0.06437394,1.2935337,20.096474)"><g
         style="fill:#000000;fill-opacity:1;stroke:none"
         transform="translate(142.85714,-451.42857)"
         id="g3818"><path
           id="path3820"
           d="m 391.46414,848.56952 c -13.70394,-2.48275 -32.28727,-9.85521 -44.88139,-17.80553 -7.28026,-4.59583 -7.76444,-0.92416 6.70776,-50.86705 7.223,-24.92626 14.49476,-50.04546 16.15945,-55.82046 1.66469,-5.775 3.48885,-11.0625 4.05368,-11.75 1.82172,-2.21735 4.70879,-1.35856 14.18839,4.22048 30.43622,17.91267 61.0812,20.29025 103.58761,8.0368 12.76787,-3.68063 16.4486,-3.84008 17.42706,-0.75496 0.81044,2.55537 -30.05234,109.32348 -32.2313,111.50244 -3.39882,3.39883 -30.37704,11.67551 -44.68968,13.7104 -9.69355,1.37818 -31.51916,1.12263 -40.32158,-0.47212 z"
           style="fill:#000000;fill-opacity:1;stroke:none"
           inkscape:connector-curvature="0" /><path
           id="path3822"
           d="m 432.87047,718.03902 c -8.52901,-1.34367 -19.79846,-4.58129 -27.8033,-7.98766 -9.16063,-3.8982 -25.37992,-13.48611 -26.13286,-15.44826 -0.32746,-0.85334 0.99944,-7.05843 2.94867,-13.78908 6.30608,-21.77481 18.12698,-62.77399 23.42244,-81.23754 3.09551,-10.79305 5.93997,-18.80077 7.1043,-20 2.21143,-2.27772 -0.26003,-3.26791 18.376,7.36233 9.84738,5.61708 23.13207,10.4071 33.92711,12.233 4.2994,0.72721 12.07582,0.96084 20.5,0.61589 15.28285,-0.62579 30.74127,-3.9529 47.18443,-10.15548 10.42903,-3.93397 13.0388,-4.28444 14.93054,-2.00504 1.38097,1.66397 0.42278,5.23658 -21.81995,81.35617 -8.24747,28.22465 -10.14649,33.6934 -12.24194,35.25398 -3.96761,2.95486 -21.04419,8.62846 -34.27612,11.38805 -13.63839,2.84436 -35.96762,4.01295 -46.11932,2.41364 z"
           style="fill:#000000;fill-opacity:1;stroke:none"
           inkscape:connector-curvature="0" /><path
           id="path3824"
           d="m 355.3074,678.52451 c -9.10437,-5.4194 -19.60914,-9.87245 -29.84625,-12.65203 -6.10648,-1.65803 -10.6394,-2.08731 -22.17543,-2.10006 -16.86034,-0.0186 -26.55218,1.79231 -47.451,8.86641 -12.09129,4.09281 -13.07136,4.27489 -14.76414,2.74295 -0.99722,-0.90247 -1.61344,-2.35286 -1.36937,-3.22308 14.71227,-52.45557 32.13536,-110.96091 33.41526,-112.20579 1.72638,-1.67914 11.57,-5.56194 21.16925,-8.35018 29.9716,-8.70568 55.23485,-8.84303 77.11027,-0.41922 8.23245,3.17016 27.40647,14.19124 28.17539,16.19499 0.68957,1.797 -31.25236,111.87819 -33.06394,113.94798 -2.10649,2.40672 -2.69845,2.25862 -11.20004,-2.80197 z"
           style="fill:#000000;fill-opacity:1;stroke:none"
           inkscape:connector-curvature="0" /><path
           inkscape:connector-curvature="0"
           style="fill:#000000;fill-opacity:1;stroke:none"
           d="m 313.87883,812.09594 c -9.10437,-5.4194 -19.60914,-9.87245 -29.84625,-12.65203 -6.10648,-1.65803 -10.6394,-2.08731 -22.17543,-2.10006 -16.86034,-0.0186 -26.55218,1.79231 -47.451,8.86641 -12.09129,4.09281 -13.07136,4.27489 -14.76414,2.74295 -0.99722,-0.90247 -1.61344,-2.35286 -1.36937,-3.22308 14.71227,-52.45557 32.13536,-110.96091 33.41526,-112.20579 1.72638,-1.67914 11.57,-5.56194 21.16925,-8.35018 29.9716,-8.70568 55.23485,-8.84303 77.11027,-0.41922 8.23245,3.17016 27.40647,14.19124 28.17539,16.19499 0.68957,1.797 -31.25236,111.87819 -33.06394,113.94798 -2.10649,2.40672 -2.69845,2.25862 -11.20004,-2.80197 z"
           id="path3826" /></g></g><g
       transform="matrix(0.06437394,0,0,0.06437394,1.2935337,20.096474)"
       id="g3010"
       style="fill:#000000;fill-opacity:1;stroke:none"><g
         id="g2996"
         transform="translate(142.85714,-451.42857)"
         style="fill:#000000;fill-opacity:1;stroke:none"><path
           inkscape:connector-curvature="0"
           style="fill:#000000;fill-opacity:1;stroke:none"
           d="m 391.46414,848.56952 c -13.70394,-2.48275 -32.28727,-9.85521 -44.88139,-17.80553 -7.28026,-4.59583 -7.76444,-0.92416 6.70776,-50.86705 7.223,-24.92626 14.49476,-50.04546 16.15945,-55.82046 1.66469,-5.775 3.48885,-11.0625 4.05368,-11.75 1.82172,-2.21735 4.70879,-1.35856 14.18839,4.22048 30.43622,17.91267 61.0812,20.29025 103.58761,8.0368 12.76787,-3.68063 16.4486,-3.84008 17.42706,-0.75496 0.81044,2.55537 -30.05234,109.32348 -32.2313,111.50244 -3.39882,3.39883 -30.37704,11.67551 -44.68968,13.7104 -9.69355,1.37818 -31.51916,1.12263 -40.32158,-0.47212 z"
           id="path3006" /><path
           inkscape:connector-curvature="0"
           style="fill:#000000;fill-opacity:1;stroke:none"
           d="m 432.87047,718.03902 c -8.52901,-1.34367 -19.79846,-4.58129 -27.8033,-7.98766 -9.16063,-3.8982 -25.37992,-13.48611 -26.13286,-15.44826 -0.32746,-0.85334 0.99944,-7.05843 2.94867,-13.78908 6.30608,-21.77481 18.12698,-62.77399 23.42244,-81.23754 3.09551,-10.79305 5.93997,-18.80077 7.1043,-20 2.21143,-2.27772 -0.26003,-3.26791 18.376,7.36233 9.84738,5.61708 23.13207,10.4071 33.92711,12.233 4.2994,0.72721 12.07582,0.96084 20.5,0.61589 15.28285,-0.62579 30.74127,-3.9529 47.18443,-10.15548 10.42903,-3.93397 13.0388,-4.28444 14.93054,-2.00504 1.38097,1.66397 0.42278,5.23658 -21.81995,81.35617 -8.24747,28.22465 -10.14649,33.6934 -12.24194,35.25398 -3.96761,2.95486 -21.04419,8.62846 -34.27612,11.38805 -13.63839,2.84436 -35.96762,4.01295 -46.11932,2.41364 z"
           id="path3004" /><path
           inkscape:connector-curvature="0"
           style="fill:#000000;fill-opacity:1;stroke:none"
           d="m 355.3074,678.52451 c -9.10437,-5.4194 -19.60914,-9.87245 -29.84625,-12.65203 -6.10648,-1.65803 -10.6394,-2.08731 -22.17543,-2.10006 -16.86034,-0.0186 -26.55218,1.79231 -47.451,8.86641 -12.09129,4.09281 -13.07136,4.27489 -14.76414,2.74295 -0.99722,-0.90247 -1.61344,-2.35286 -1.36937,-3.22308 14.71227,-52.45557 32.13536,-110.96091 33.41526,-112.20579 1.72638,-1.67914 11.57,-5.56194 21.16925,-8.35018 29.9716,-8.70568 55.23485,-8.84303 77.11027,-0.41922 8.23245,3.17016 27.40647,14.19124 28.17539,16.19499 0.68957,1.797 -31.25236,111.87819 -33.06394,113.94798 -2.10649,2.40672 -2.69845,2.25862 -11.20004,-2.80197 z"
           id="path2998" /><path
           id="path3008"
           d="m 313.87883,812.09594 c -9.10437,-5.4194 -19.60914,-9.87245 -29.84625,-12.65203 -6.10648,-1.65803 -10.6394,-2.08731 -22.17543,-2.10006 -16.86034,-0.0186 -26.55218,1.79231 -47.451,8.86641 -12.09129,4.09281 -13.07136,4.27489 -14.76414,2.74295 -0.99722,-0.90247 -1.61344,-2.35286 -1.36937,-3.22308 14.71227,-52.45557 32.13536,-110.96091 33.41526,-112.20579 1.72638,-1.67914 11.57,-5.56194 21.16925,-8.35018 29.9716,-8.70568 55.23485,-8.84303 77.11027,-0.41922 8.23245,3.17016 27.40647,14.19124 28.17539,16.19499 0.68957,1.797 -31.25236,111.87819 -33.06394,113.94798 -2.10649,2.40672 -2.69845,2.25862 -11.20004,-2.80197 z"
           style="fill:#000000;fill-opacity:1;stroke:none"
           inkscape:connector-curvature="0" /></g></g></g></svg>