<?xml version="1.0" encoding="UTF-8" standalone="no"?>
<!-- Created with Inkscape (http://www.inkscape.org/) -->

<svg
   xmlns:dc="http://purl.org/dc/elements/1.1/"
   xmlns:cc="http://creativecommons.org/ns#"
   xmlns:rdf="http://www.w3.org/1999/02/22-rdf-syntax-ns#"
   xmlns:svg="http://www.w3.org/2000/svg"
   xmlns="http://www.w3.org/2000/svg"
   xmlns:sodipodi="http://sodipodi.sourceforge.net/DTD/sodipodi-0.dtd"
   xmlns:inkscape="http://www.inkscape.org/namespaces/inkscape"
   version="1.1"
   width="48"
   height="48"
   id="svg249"
   inkscape:version="0.48.5 r10040"
   sodipodi:docname="application-pdf.svg">
  <sodipodi:namedview
     pagecolor="#ffffff"
     bordercolor="#666666"
     borderopacity="1"
     objecttolerance="10"
     gridtolerance="10"
     guidetolerance="10"
     inkscape:pageopacity="0"
     inkscape:pageshadow="2"
     inkscape:window-width="1920"
     inkscape:window-height="1007"
     id="namedview26"
     showgrid="false"
     inkscape:zoom="6.9532167"
     inkscape:cx="-45.69764"
     inkscape:cy="20.42571"
     inkscape:window-x="0"
     inkscape:window-y="31"
     inkscape:window-maximized="1"
     inkscape:current-layer="layer1" />
  <defs
     id="defs3">
    <linearGradient
       id="linearGradient15662">
      <stop
         id="stop15664"
         style="stop-color:#ffffff;stop-opacity:1"
         offset="0" />
      <stop
         id="stop15666"
         style="stop-color:#f8f8f8;stop-opacity:1"
         offset="1" />
    </linearGradient>
    <linearGradient
       id="linearGradient269">
      <stop
         id="stop270"
         style="stop-color:#a3a3a3;stop-opacity:1"
         offset="0" />
      <stop
         id="stop271"
         style="stop-color:#8a8a8a;stop-opacity:1"
         offset="1" />
    </linearGradient>
    <linearGradient
       id="linearGradient259">
      <stop
         id="stop260"
         style="stop-color:#fafafa;stop-opacity:1"
         offset="0" />
      <stop
         id="stop261"
         style="stop-color:#bbbbbb;stop-opacity:1"
         offset="1" />
    </linearGradient>
    <linearGradient
       id="linearGradient4928">
      <stop
         id="stop4930"
         style="stop-color:#fce94f;stop-opacity:1"
         offset="0" />
      <stop
         id="stop4932"
         style="stop-color:#fce94f;stop-opacity:0"
         offset="1" />
    </linearGradient>
    <linearGradient
       id="linearGradient3702">
      <stop
         id="stop3704"
         style="stop-color:#000000;stop-opacity:0"
         offset="0" />
      <stop
         id="stop3710"
         style="stop-color:#000000;stop-opacity:1"
         offset="0.5" />
      <stop
         id="stop3706"
         style="stop-color:#000000;stop-opacity:0"
         offset="1" />
    </linearGradient>
  </defs>
  <metadata
     id="metadata4">
    <rdf:RDF>
      <cc:Work
         rdf:about="">
        <dc:format>image/svg+xml</dc:format>
        <dc:type
           rdf:resource="http://purl.org/dc/dcmitype/StillImage" />
        <dc:title />
        <dc:subject>
          <rdf:Bag>
            <rdf:li>rich</rdf:li>
            <rdf:li>text</rdf:li>
            <rdf:li>document</rdf:li>
            <rdf:li>office</rdf:li>
            <rdf:li>word</rdf:li>
            <rdf:li>write</rdf:li>
          </rdf:Bag>
        </dc:subject>
        <cc:license
           rdf:resource="http://creativecommons.org/licenses/GPL/2.0/" />
        <dc:creator>
          <cc:Agent>
            <dc:title>Jakub Steiner</dc:title>
          </cc:Agent>
        </dc:creator>
        <dc:source>http://jimmac.musichall.cz</dc:source>
      </cc:Work>
      <cc:License
         rdf:about="http://creativecommons.org/licenses/GPL/2.0/">
        <cc:permits
           rdf:resource="http://web.resource.org/cc/Reproduction" />
        <cc:permits
           rdf:resource="http://web.resource.org/cc/Distribution" />
        <cc:requires
           rdf:resource="http://web.resource.org/cc/Notice" />
        <cc:permits
           rdf:resource="http://web.resource.org/cc/DerivativeWorks" />
        <cc:requires
           rdf:resource="http://web.resource.org/cc/ShareAlike" />
        <cc:requires
           rdf:resource="http://web.resource.org/cc/SourceCode" />
      </cc:License>
    </rdf:RDF>
  </metadata>
  <g
     id="layer6" />
  <g
     id="layer1"
     style="display:inline">
    <path
       d="m 17.197352,3.9664448 c -0.439245,-0.041956 -0.871778,-0.0056 -1.289557,0.1011286 -0.835563,0.2134518 -1.651678,0.7204263 -2.126934,1.4663573 -0.475256,0.7459309 -0.588122,1.6038049 -0.53592,2.3933642 0.104402,1.5791192 0.785125,3.1376941 1.775236,4.8878581 0.549752,0.971768 1.220397,2.002086 1.959458,3.050697 -0.409476,2.810129 -1.000128,5.826846 -1.875722,8.949836 -0.87697,3.127907 -1.952432,6.032754 -3.064793,8.646451 -1.168753,0.50311 -2.2799132,1.013769 -3.249015,1.55063 -1.7530938,0.971177 -3.1437164,1.944809 -4.0528961,3.2361 -0.4545904,0.645645 -0.8048658,1.440021 -0.7871334,2.325946 0.017733,0.885925 0.4536327,1.738132 1.0550928,2.359655 0.6014611,0.621524 1.4483885,1.071157 2.3279031,1.11241 0.8795158,0.04125 1.6578259,-0.267622 2.3111561,-0.707898 1.3066595,-0.880554 2.3217605,-2.273383 3.3327545,-4.011414 0.557478,-0.958378 1.095123,-2.043194 1.624507,-3.202389 2.625926,-1.050265 5.527687,-2.065513 8.65846,-2.865296 3.131989,-0.800094 6.170122,-1.314538 8.976662,-1.651759 1.015228,0.765271 2.002876,1.464333 2.947562,2.039417 1.712261,1.042351 3.25751,1.791522 4.82328,1.938289 0.782886,0.07338 1.624658,-0.03036 2.378147,-0.488786 0.753488,-0.458418 1.289921,-1.255005 1.524022,-2.089981 0.234102,-0.834975 0.186541,-1.808438 -0.217718,-2.595621 -0.404258,-0.787184 -1.069704,-1.302476 -1.775235,-1.651759 -1.411063,-0.698566 -3.106884,-0.881165 -5.107989,-0.893297 -1.109206,-0.0067 -2.314483,0.06598 -3.583966,0.185401 -2.21719,-1.76376 -4.52857,-3.788888 -6.782739,-6.118249 -2.252496,-2.327631 -4.202406,-4.718883 -5.895122,-6.994693 0.15108,-1.268324 0.245419,-2.495328 0.267959,-3.606902 C 20.855644,9.3184127 20.717766,7.6124656 20.061176,6.174408 19.73288,5.4553795 19.224636,4.7647555 18.453414,4.3372478 18.067804,4.1234942 17.636597,4.0083986 17.197352,3.9664448 z m -0.351698,3.3035176 c -0.02811,-0.015577 0.0733,0.023774 0.200971,0.3033848 0.192458,0.4215222 0.324897,1.3996068 0.385192,2.5619108 -0.496137,-1.0480347 -0.840321,-1.981866 -0.87087,-2.4439288 -0.0203,-0.3070397 0.03407,-0.3811303 0.01675,-0.3539479 -0.01732,0.027182 -0.07067,0.039709 0.150727,-0.016854 0.221408,-0.056563 0.145337,-0.034988 0.117232,-0.050562 z m 2.930814,12.1522256 c 1.340409,1.622698 2.737513,3.253055 4.270613,4.837294 1.534426,1.585608 3.12831,3.057264 4.70605,4.449635 -2.066005,0.356867 -4.184621,0.75389 -6.31381,1.29781 -2.130088,0.54415 -4.177338,1.209389 -6.163081,1.887725 0.726839,-1.981023 1.429243,-4.021901 2.026448,-6.151958 0.597352,-2.130587 1.06445,-4.24883 1.47378,-6.320506 z m 18.154295,11.88255 c 1.144366,0.09201 2.100579,0.251336 2.512126,0.455077 0.274364,0.135828 0.316187,0.230942 0.301454,0.202255 -0.01472,-0.02868 0.01179,-0.08641 -0.05024,0.134838 -0.06204,0.221253 -0.06096,0.151543 -0.0335,0.134837 0.02746,-0.0167 -0.04725,0.02854 -0.351698,0 -0.456666,-0.0428 -1.354773,-0.403445 -2.378145,-0.927007 z M 9.4600052,38.569106 c -0.6553994,0.959803 -1.2748378,1.713783 -1.658003,1.971997 -0.2540647,0.171213 -0.3502536,0.167043 -0.3182025,0.168547 0.032049,0.0016 0.058891,0.06357 -0.1004852,-0.101128 -0.1593759,-0.164692 -0.1011312,-0.133413 -0.1004852,-0.101128 6.46e-4,0.0323 -0.0093,-0.06916 0.1674753,-0.32024 0.2669676,-0.379168 1.0368983,-0.983095 2.0097006,-1.618048 z"
       id="path2237-4"
       style="color:#000000;fill:#000000;fill-opacity:1;fill-rule:nonzero;stroke:none;stroke-width:7.89886092999999967;stroke-miterlimit:4;stroke-opacity:1;stroke-dasharray:none;marker:none;visibility:visible;display:inline;overflow:visible;enable-background:accumulate"
       inkscape:connector-curvature="0" />
    <path
       d="m 17.195753,3.9650205 c -0.439243,-0.041953 -0.871776,-0.00559 -1.289556,0.1011281 -0.835563,0.213452 -1.651677,0.7204263 -2.126935,1.4663573 -0.475256,0.7459311 -0.58812,1.6038051 -0.53592,2.3933647 0.104403,1.5791192 0.785126,3.1376934 1.775237,4.8878574 0.549751,0.971768 1.220398,2.002087 1.959457,3.050698 -0.409475,2.810128 -1.000127,5.826846 -1.875721,8.949835 -0.87697,3.127907 -1.952431,6.032754 -3.064792,8.646452 -1.168755,0.503108 -2.2799139,1.013768 -3.2490163,1.55063 -1.7530937,0.971177 -3.1437161,1.944808 -4.052896,3.2361 -0.45459,0.645645 -0.8048654,1.44002 -0.7871327,2.325946 0.017733,0.885923 0.4536322,1.73813 1.0550928,2.359654 0.6014605,0.621524 1.4483878,1.071157 2.3279032,1.112409 0.879515,0.04125 1.6578255,-0.26762 2.3111555,-0.707896 1.3066595,-0.880554 2.3217595,-2.273383 3.3327535,-4.011415 0.557479,-0.958379 1.095124,-2.043193 1.624509,-3.202389 2.625925,-1.050265 5.527687,-2.065513 8.658459,-2.865295 3.131988,-0.800095 6.170122,-1.314538 8.976663,-1.651759 1.015227,0.76527 2.002874,1.464332 2.947561,2.039415 1.712262,1.042352 3.257509,1.791523 4.823281,1.93829 0.782884,0.07337 1.624657,-0.03036 2.378145,-0.488786 0.753488,-0.458418 1.289922,-1.255006 1.524022,-2.089982 0.234103,-0.834974 0.186543,-1.808437 -0.217716,-2.59562 -0.404259,-0.787183 -1.069704,-1.302475 -1.775236,-1.651759 -1.411063,-0.698564 -3.106883,-0.881163 -5.107989,-0.893298 -1.109206,-0.0068 -2.314483,0.06597 -3.583965,0.185402 -2.217192,-1.763759 -4.52857,-3.788888 -6.78274,-6.11825 -2.252496,-2.327631 -4.202405,-4.718881 -5.895122,-6.994692 0.151079,-1.268324 0.245419,-2.495326 0.26796,-3.606901 C 20.854046,9.316988 20.716168,7.6110413 20.059577,6.1729838 19.731282,5.4539549 19.223038,4.7633305 18.451816,4.3358235 18.066207,4.1220701 17.634999,4.0069738 17.195753,3.9650205 z M 16.844056,7.268538 c -0.02811,-0.01558 0.0733,0.023771 0.20097,0.3033842 0.192459,0.4215225 0.324897,1.3996073 0.385192,2.5619118 -0.496136,-1.0480351 -0.84032,-1.9818669 -0.870869,-2.443929 -0.0203,-0.3070404 0.03406,-0.3811309 0.01675,-0.3539482 -0.01732,0.027182 -0.07068,0.039706 0.150727,-0.016854 0.221409,-0.05656 0.145338,-0.034985 0.117232,-0.050564 z m 2.930815,12.152226 c 1.340408,1.622698 2.737513,3.253055 4.270613,4.837293 1.534424,1.585608 3.12831,3.057265 4.706048,4.449634 -2.066004,0.356868 -4.18462,0.753891 -6.313809,1.297813 -2.130088,0.544147 -4.177338,1.209387 -6.163081,1.887723 0.726839,-1.981023 1.429243,-4.021901 2.026447,-6.151958 0.597354,-2.130588 1.064452,-4.248829 1.473782,-6.320505 z m 18.154293,11.882549 c 1.144366,0.09201 2.100581,0.251336 2.512127,0.455077 0.274364,0.135827 0.316188,0.230942 0.301454,0.202256 -0.01473,-0.02868 0.01179,-0.08641 -0.05024,0.134837 -0.06203,0.221253 -0.06096,0.151544 -0.0335,0.134838 0.02745,-0.01671 -0.04725,0.02853 -0.351697,0 -0.456667,-0.0428 -1.354774,-0.403446 -2.378146,-0.927008 z M 9.4584069,38.56768 c -0.6553987,0.959804 -1.2748371,1.713785 -1.6580029,1.971998 -0.2540642,0.171213 -0.3502533,0.167044 -0.3182026,0.168548 0.032051,0.0016 0.058891,0.06357 -0.100485,-0.101129 -0.1593756,-0.164692 -0.1011313,-0.133413 -0.100485,-0.101127 6.463e-4,0.03229 -0.0093,-0.06916 0.167475,-0.32024 0.2669676,-0.379169 1.0368989,-0.983096 2.0097005,-1.61805 z"
       id="path2237"
       style="color:#000000;fill:#000000;fill-opacity:1;fill-rule:nonzero;stroke:none;stroke-width:6.21725416000000042;marker:none;visibility:visible;display:inline;overflow:visible;enable-background:accumulate"
       inkscape:connector-curvature="0" />
  </g>
  <g
     id="layer5"
     style="display:inline" />
</svg>
