<?xml version="1.0" encoding="UTF-8" standalone="no"?>
<!-- Generator: Adobe Illustrator 9.0, SVG Export Plug-In  -->

<svg
   xmlns:dc="http://purl.org/dc/elements/1.1/"
   xmlns:cc="http://creativecommons.org/ns#"
   xmlns:rdf="http://www.w3.org/1999/02/22-rdf-syntax-ns#"
   xmlns:svg="http://www.w3.org/2000/svg"
   xmlns="http://www.w3.org/2000/svg"
   xmlns:sodipodi="http://sodipodi.sourceforge.net/DTD/sodipodi-0.dtd"
   xmlns:inkscape="http://www.inkscape.org/namespaces/inkscape"
   id="svg2"
   sodipodi:docname="application-x-php.svg"
   xml:space="preserve"
   height="48px"
   sodipodi:version="0.32"
   width="48px"
   viewBox="0 0 48 48"
   version="1.1"
   inkscape:version="0.48.5 r10040"><defs
     id="defs19" /><metadata
     id="metadata19"><rdf:RDF><cc:Work
         rdf:about=""><dc:format>image/svg+xml</dc:format><dc:type
           rdf:resource="http://purl.org/dc/dcmitype/StillImage" /><dc:title /><dc:creator><cc:Agent><dc:title>Jakub Stainer</dc:title></cc:Agent></dc:creator><cc:license
           rdf:resource="http://creativecommons.org/licenses/GPL/2.0/" /></cc:Work><cc:License
         rdf:about="http://creativecommons.org/licenses/GPL/2.0/"><cc:permits
           rdf:resource="http://web.resource.org/cc/Reproduction" /><cc:permits
           rdf:resource="http://web.resource.org/cc/Distribution" /><cc:requires
           rdf:resource="http://web.resource.org/cc/Notice" /><cc:permits
           rdf:resource="http://web.resource.org/cc/DerivativeWorks" /><cc:requires
           rdf:resource="http://web.resource.org/cc/ShareAlike" /><cc:requires
           rdf:resource="http://web.resource.org/cc/SourceCode" /></cc:License></rdf:RDF></metadata><sodipodi:namedview
     id="base"
     bordercolor="#666666"
     guidetolerance="0.50000000px"
     pagecolor="#ffffff"
     gridtolerance="0.50000000px"
     borderopacity="1.0"
     showgrid="true"
     showguides="true"
     inkscape:zoom="4.9166667"
     inkscape:cx="-49.830508"
     inkscape:cy="24"
     inkscape:window-width="1920"
     inkscape:window-height="1007"
     inkscape:window-x="0"
     inkscape:window-y="31"
     inkscape:window-maximized="1"
     inkscape:current-layer="svg2"><sodipodi:guide
       id="guide3305"
       position="24.944882"
       orientation="vertical" /><sodipodi:guide
       id="guide3307"
       position="28.031496"
       orientation="horizontal" /></sodipodi:namedview><rect
     id="rect3319"
     style="fill:none"
     height="48"
     width="48"
     y="0"
     x="0" /><path
     id="path7"
     sodipodi:nodetypes="cccccc"
     style="stroke-linejoin:round;stroke:#000;stroke-width:4;fill:none"
     d="m39 41h-30v-35h21l9 10v25z" /><g
     transform="translate(0.20338983,2.6440678)"
     style="font-size:4px;font-style:normal;font-weight:normal;line-height:125%;letter-spacing:0px;word-spacing:0px;fill:#000000;fill-opacity:1;stroke:none;font-family:Sans"
     id="flowRoot2995"><path
       d="m 15.793,26.004677 c 1.136662,7e-6 2.009328,0.201674 2.618,0.605 0.60866,0.396006 0.912993,1.048672 0.913,1.958 -7e-6,0.916671 -0.308006,1.580337 -0.924,1.991 -0.616005,0.403336 -1.496004,0.605002 -2.64,0.605 l -0.539,0 0,2.552 -1.716,0 0,-7.513 c 0.373999,-0.07333 0.769998,-0.124659 1.188,-0.154 0.417998,-0.02933 0.784664,-0.04399 1.1,-0.044 m 0.11,1.463 c -0.12467,6e-6 -0.249336,0.0037 -0.374,0.011 -0.117336,0.0073 -0.220003,0.01467 -0.308,0.022 l 0,2.2 0.539,0 c 0.593996,4e-6 1.041329,-0.08066 1.342,-0.242 0.300662,-0.161329 0.450995,-0.461996 0.451,-0.902 -5e-6,-0.212662 -0.04034,-0.388661 -0.121,-0.528 -0.07334,-0.139328 -0.183338,-0.249328 -0.33,-0.33 -0.139338,-0.08799 -0.311671,-0.146661 -0.517,-0.176 -0.205337,-0.03666 -0.43267,-0.05499 -0.682,-0.055"
       style="font-size:11px;font-variant:normal;font-weight:bold;font-stretch:normal;font-family:Ubuntu;-inkscape-font-specification:Ubuntu Bold;fill:#000000;fill-opacity:1"
       id="path3023" /><path
       d="m 25.192844,26.092677 1.716,0 0,7.623 -1.716,0 0,-3.234 -2.882,0 0,3.234 -1.716,0 0,-7.623 1.716,0 0,2.915 2.882,0 0,-2.915"
       style="font-size:11px;font-variant:normal;font-weight:bold;font-stretch:normal;font-family:Ubuntu;-inkscape-font-specification:Ubuntu Bold;fill:#000000;fill-opacity:1"
       id="path3025" /><path
       d="m 30.960969,26.004677 c 1.136662,7e-6 2.009328,0.201674 2.618,0.605 0.60866,0.396006 0.912993,1.048672 0.913,1.958 -7e-6,0.916671 -0.308007,1.580337 -0.924,1.991 -0.616005,0.403336 -1.496005,0.605002 -2.64,0.605 l -0.539,0 0,2.552 -1.716,0 0,-7.513 c 0.373998,-0.07333 0.769998,-0.124659 1.188,-0.154 0.417997,-0.02933 0.784664,-0.04399 1.1,-0.044 m 0.11,1.463 c -0.12467,6e-6 -0.249337,0.0037 -0.374,0.011 -0.117336,0.0073 -0.220003,0.01467 -0.308,0.022 l 0,2.2 0.539,0 c 0.593996,4e-6 1.041329,-0.08066 1.342,-0.242 0.300662,-0.161329 0.450995,-0.461996 0.451,-0.902 -5e-6,-0.212662 -0.04034,-0.388661 -0.121,-0.528 -0.07334,-0.139328 -0.183338,-0.249328 -0.33,-0.33 -0.139338,-0.08799 -0.311671,-0.146661 -0.517,-0.176 -0.205337,-0.03666 -0.43267,-0.05499 -0.682,-0.055"
       style="font-size:11px;font-variant:normal;font-weight:bold;font-stretch:normal;font-family:Ubuntu;-inkscape-font-specification:Ubuntu Bold;fill:#000000;fill-opacity:1"
       id="path3027" /></g></svg>