<?xml version="1.0" encoding="UTF-8" standalone="no"?>
<svg
   xmlns:dc="http://purl.org/dc/elements/1.1/"
   xmlns:cc="http://creativecommons.org/ns#"
   xmlns:rdf="http://www.w3.org/1999/02/22-rdf-syntax-ns#"
   xmlns:svg="http://www.w3.org/2000/svg"
   xmlns="http://www.w3.org/2000/svg"
   xmlns:sodipodi="http://sodipodi.sourceforge.net/DTD/sodipodi-0.dtd"
   xmlns:inkscape="http://www.inkscape.org/namespaces/inkscape"
   height="48"
   width="48"
   version="1.1"
   viewBox="0 0 48 48"
   id="svg2"
   inkscape:version="0.48.5 r10040"
   sodipodi:docname="application-text-template.svg">
  <metadata
     id="metadata12">
    <rdf:RDF>
      <cc:Work
         rdf:about="">
        <dc:format>image/svg+xml</dc:format>
        <dc:type
           rdf:resource="http://purl.org/dc/dcmitype/StillImage" />
      </cc:Work>
    </rdf:RDF>
  </metadata>
  <defs
     id="defs10">
    <clipPath
       id="clipPath4157"
       clipPathUnits="userSpaceOnUse">
      <path
         style="fill:#f9f8f2;fill-opacity:1;stroke-width:1.00658333"
         inkscape:connector-curvature="0"
         id="path4159"
         d="m 27.642964,3.2951379 13.085584,13.0855841 -11.072418,0 c -0.977824,0 -2.013166,-1.035372 -2.013166,-2.013167 l 0,-11.0724171 z" />
    </clipPath>
    <filter
       inkscape:collect="always"
       style="color-interpolation-filters:sRGB"
       id="filter4201"
       x="-0.06"
       width="1.12"
       y="-0.06"
       height="1.12">
      <feGaussianBlur
         inkscape:collect="always"
         stdDeviation="0.2826087"
         id="feGaussianBlur4203" />
    </filter>
    <clipPath
       clipPathUnits="userSpaceOnUse"
       id="clipPath4157-8">
      <path
         d="m 27.642964,3.2951379 13.085584,13.0855841 -11.072418,0 c -0.977824,0 -2.013166,-1.035372 -2.013166,-2.013167 l 0,-11.0724171 z"
         id="path4159-0"
         inkscape:connector-curvature="0"
         style="fill:#f9f8f2;fill-opacity:1;stroke-width:1.00658333" />
    </clipPath>
  </defs>
  <sodipodi:namedview
     pagecolor="#ffffff"
     bordercolor="#666666"
     borderopacity="1"
     objecttolerance="10"
     gridtolerance="10"
     guidetolerance="10"
     inkscape:pageopacity="0"
     inkscape:pageshadow="2"
     inkscape:window-width="1920"
     inkscape:window-height="1007"
     id="namedview8"
     showgrid="false"
     inkscape:zoom="19.599291"
     inkscape:cx="14.271989"
     inkscape:cy="25.990109"
     inkscape:window-x="0"
     inkscape:window-y="31"
     inkscape:window-maximized="1"
     inkscape:current-layer="svg2" />
  <path
     style="fill:#000000;fill-opacity:1;stroke-width:1;stroke:#000000;stroke-opacity:1;stroke-miterlimit:4;stroke-dasharray:none"
     d="M 9.796875 4.203125 C 9.6686291 4.203125 9.5437793 4.2254246 9.4199219 4.2578125 C 8.8140894 4.5419357 8.3476562 5.1775946 8.3476562 5.8417969 L 8.3476562 42.363281 C 8.3476562 42.814537 8.6060931 43.275641 8.9726562 43.611328 C 9.2558714 43.786391 9.572293 43.898438 9.8847656 43.898438 L 29.400391 43.898438 L 29.400391 42.160156 L 25.683594 42.160156 L 25.683594 38.681641 L 29.400391 38.681641 L 29.400391 35.203125 L 25.683594 35.203125 L 25.683594 31.724609 L 29.400391 31.724609 L 29.400391 30.855469 L 29.400391 29.986328 L 29.400391 29.115234 L 29.400391 28.246094 L 25.683594 28.246094 L 25.683594 27.376953 L 25.683594 26.507812 L 25.683594 25.636719 L 25.683594 24.767578 L 29.400391 24.767578 L 29.400391 23.898438 L 29.400391 23.029297 L 29.400391 22.160156 L 29.400391 21.289062 L 25.683594 21.289062 L 25.683594 20.419922 L 25.683594 19.550781 L 25.683594 18.681641 L 25.683594 17.810547 L 29.400391 17.810547 L 29.400391 16.941406 L 29.400391 15.541016 L 29.400391 15.21875 L 29.400391 14.333984 L 28.523438 14.333984 L 25.683594 14.333984 L 25.683594 10.855469 L 28.347656 10.855469 L 29.400391 10.855469 L 29.400391 7.3769531 L 28.347656 7.3769531 L 25.683594 7.3769531 L 25.683594 4.203125 L 9.796875 4.203125 z M 29.400391 7.3769531 L 31.232422 7.3769531 L 29.400391 5.5449219 L 29.400391 7.3769531 z M 29.400391 10.855469 L 29.400391 14.333984 L 33.117188 14.333984 L 33.117188 10.855469 L 29.400391 10.855469 z M 33.117188 10.855469 L 34.710938 10.855469 L 33.117188 9.2617188 L 33.117188 10.855469 z M 29.400391 17.810547 L 29.400391 18.681641 L 29.400391 19.550781 L 29.400391 20.419922 L 29.400391 21.289062 L 33.117188 21.289062 L 33.117188 20.419922 L 33.117188 19.550781 L 33.117188 18.681641 L 33.117188 17.810547 L 29.400391 17.810547 z M 33.117188 21.289062 L 33.117188 22.160156 L 33.117188 23.029297 L 33.117188 23.898438 L 33.117188 24.767578 L 34.046875 24.767578 L 36.832031 24.767578 L 36.832031 21.289062 L 33.117188 21.289062 z M 33.117188 24.767578 L 29.400391 24.767578 L 29.400391 25.636719 L 29.400391 26.507812 L 29.400391 27.376953 L 29.400391 28.246094 L 33.117188 28.246094 L 33.117188 27.376953 L 33.117188 26.507812 L 33.117188 25.636719 L 33.117188 24.767578 z M 29.400391 31.724609 L 29.400391 35.203125 L 33.117188 35.203125 L 33.117188 31.724609 L 29.400391 31.724609 z M 33.117188 35.203125 L 33.117188 38.681641 L 36.832031 38.681641 L 36.832031 35.203125 L 33.117188 35.203125 z M 33.117188 38.681641 L 29.400391 38.681641 L 29.400391 42.160156 L 33.117188 42.160156 L 33.117188 38.681641 z M 33.117188 42.160156 L 33.117188 43.898438 L 36.832031 43.898438 L 36.832031 42.160156 L 33.117188 42.160156 z M 36.832031 14.333984 L 36.832031 15.40625 L 36.832031 15.677734 L 36.832031 17.810547 L 39.363281 17.810547 L 39.363281 15.507812 L 38.189453 14.333984 L 36.832031 14.333984 z M 36.832031 28.246094 L 36.832031 31.724609 L 39.363281 31.724609 L 39.363281 28.246094 L 36.832031 28.246094 z "
     id="path4" />
</svg>
