<?xml version="1.0" encoding="UTF-8" standalone="no"?>
<!-- Created with Inkscape (http://www.inkscape.org/) -->

<svg
   xmlns:dc="http://purl.org/dc/elements/1.1/"
   xmlns:cc="http://creativecommons.org/ns#"
   xmlns:rdf="http://www.w3.org/1999/02/22-rdf-syntax-ns#"
   xmlns:svg="http://www.w3.org/2000/svg"
   xmlns="http://www.w3.org/2000/svg"
   xmlns:sodipodi="http://sodipodi.sourceforge.net/DTD/sodipodi-0.dtd"
   xmlns:inkscape="http://www.inkscape.org/namespaces/inkscape"
   version="1.1"
   width="48"
   height="48"
   id="svg1872"
   inkscape:version="0.48.5 r10040"
   sodipodi:docname="application-default-icon.svg">
  <sodipodi:namedview
     pagecolor="#ffffff"
     bordercolor="#666666"
     borderopacity="1"
     objecttolerance="10"
     gridtolerance="10"
     guidetolerance="10"
     inkscape:pageopacity="0"
     inkscape:pageshadow="2"
     inkscape:window-width="1920"
     inkscape:window-height="1007"
     id="namedview18"
     showgrid="false"
     inkscape:zoom="4.9166667"
     inkscape:cx="-54.711864"
     inkscape:cy="24"
     inkscape:window-x="0"
     inkscape:window-y="31"
     inkscape:window-maximized="1"
     inkscape:current-layer="layer1" />
  <defs
     id="defs10">
    <linearGradient
       id="linearGradient3242">
      <stop
         id="stop3244"
         style="stop-color:#f8b17e;stop-opacity:1"
         offset="0" />
      <stop
         id="stop3246"
         style="stop-color:#e35d4f;stop-opacity:1"
         offset="0.26238" />
      <stop
         id="stop3248"
         style="stop-color:#c6262e;stop-opacity:1"
         offset="0.66093999" />
      <stop
         id="stop3250"
         style="stop-color:#690b54;stop-opacity:1"
         offset="1" />
    </linearGradient>
    <linearGradient
       id="linearGradient2490">
      <stop
         id="stop2492"
         style="stop-color:#911313;stop-opacity:1"
         offset="0" />
      <stop
         id="stop2494"
         style="stop-color:#bc301e;stop-opacity:1"
         offset="1" />
    </linearGradient>
  </defs>
  <metadata
     id="metadata1877">
    <rdf:RDF>
      <cc:Work
         rdf:about="">
        <dc:format>image/svg+xml</dc:format>
        <dc:type
           rdf:resource="http://purl.org/dc/dcmitype/StillImage" />
        <dc:title />
        <dc:creator>
          <cc:Agent>
            <dc:title>Luca Ferretti &lt;elle.uca@libero.it&gt;</dc:title>
          </cc:Agent>
        </dc:creator>
        <dc:subject>
          <rdf:Bag>
            <rdf:li>bookmark</rdf:li>
            <rdf:li>view</rdf:li>
            <rdf:li>edit</rdf:li>
            <rdf:li>web</rdf:li>
            <rdf:li>favorites</rdf:li>
          </rdf:Bag>
        </dc:subject>
        <dc:coverage>Manage bookmarks in web browser</dc:coverage>
        <dc:description>A book with a bookmark</dc:description>
        <cc:license
           rdf:resource="http://creativecommons.org/licenses/LGPL/2.1/" />
      </cc:Work>
      <cc:License
         rdf:about="http://creativecommons.org/licenses/LGPL/2.1/">
        <cc:permits
           rdf:resource="http://web.resource.org/cc/Reproduction" />
        <cc:permits
           rdf:resource="http://web.resource.org/cc/Distribution" />
        <cc:requires
           rdf:resource="http://web.resource.org/cc/Notice" />
        <cc:permits
           rdf:resource="http://web.resource.org/cc/DerivativeWorks" />
        <cc:requires
           rdf:resource="http://web.resource.org/cc/ShareAlike" />
        <cc:requires
           rdf:resource="http://web.resource.org/cc/SourceCode" />
      </cc:License>
    </rdf:RDF>
  </metadata>
  <g
     id="layer1"
     style="fill:none;stroke:#000000;stroke-opacity:1;stroke-width:1;stroke-miterlimit:4;stroke-dasharray:none">
    <rect
       width="32"
       height="36"
       rx="2.9600999"
       ry="2.9590001"
       x="9"
       y="6"
       id="rect2768"
       style="fill:none;fill-rule:evenodd;stroke:#000000;stroke-width:1;stroke-miterlimit:4;stroke-dasharray:none;stroke-opacity:1" />
    <rect
       width="32"
       height="36"
       rx="2.9600999"
       ry="2.9590001"
       x="9"
       y="6"
       id="rect1880"
       style="fill:none;fill-rule:evenodd;stroke:#000000;stroke-width:4;stroke-opacity:1;stroke-miterlimit:4;stroke-dasharray:none" />
    <g
       transform="matrix(1.7104769,0,0,1.6826814,-16.675307,-16.755443)"
       id="text3797"
       style="font-size:3.25557971000000013px;font-style:normal;font-weight:normal;line-height:125%;letter-spacing:0px;word-spacing:0px;fill:#000000;fill-opacity:1;fill-rule:nonzero;stroke:none;font-family:Sans;stroke-opacity:1;stroke-width:0.58944114000000003;stroke-miterlimit:4;stroke-dasharray:none">
      <path
         d="m 24.063811,20.393221 c -0.42974,10e-6 -0.835602,0.05373 -1.217587,0.161151 -0.38199,0.107444 -0.805758,0.280533 -1.271304,0.519265 l -0.752039,-2.023343 c 0.465547,-0.298416 1.014654,-0.525221 1.647323,-0.680416 0.632665,-0.167107 1.253395,-0.250667 1.862192,-0.250679 0.763971,1.2e-5 1.39067,0.101478 1.880097,0.304396 0.501353,0.202944 0.895278,0.459592 1.181775,0.769945 0.286484,0.310377 0.483447,0.650584 0.590888,1.020624 0.119364,0.370061 0.179049,0.722206 0.179057,1.056436 -8e-6,0.334248 -0.05373,0.644613 -0.161151,0.931095 -0.0955,0.274563 -0.220844,0.531211 -0.37602,0.769945 -0.155189,0.23875 -0.334246,0.465555 -0.53717,0.680416 -0.202938,0.214875 -0.3999,0.417806 -0.590888,0.608793 -0.143251,0.143252 -0.292465,0.298435 -0.447642,0.465548 -0.155188,0.155189 -0.298434,0.322308 -0.429737,0.50136 -0.119376,0.179062 -0.220841,0.370056 -0.304396,0.572982 -0.08356,0.190998 -0.125345,0.387961 -0.12534,0.590887 -5e-6,0.04775 -5e-6,0.119376 0,0.214869 -5e-6,0.0955 0.006,0.17906 0.01791,0.250679 l -2.363551,0 c -0.02388,-0.119367 -0.04178,-0.250675 -0.05372,-0.393925 -3e-6,-0.155178 -3e-6,-0.286486 0,-0.393925 -3e-6,-0.334235 0.04178,-0.632662 0.12534,-0.895284 0.08356,-0.274548 0.190991,-0.525228 0.322302,-0.752039 0.143243,-0.238736 0.304394,-0.459573 0.483454,-0.662511 0.179053,-0.202924 0.364078,-0.399886 0.555076,-0.590887 0.27455,-0.274546 0.525229,-0.543131 0.752039,-0.805756 0.2268,-0.274546 0.340203,-0.58491 0.340208,-0.931096 -5e-6,-0.286481 -0.113408,-0.531192 -0.340208,-0.734133 -0.214873,-0.202921 -0.537175,-0.304387 -0.966907,-0.304397 m 1.665229,9.006561 c -6e-6,0.525234 -0.173094,0.931096 -0.519265,1.217586 -0.334244,0.286491 -0.716232,0.429737 -1.145964,0.429737 -0.42974,0 -0.817696,-0.143246 -1.16387,-0.429737 -0.334242,-0.28649 -0.501361,-0.692352 -0.501359,-1.217586 -2e-6,-0.525232 0.167117,-0.931094 0.501359,-1.217587 0.346174,-0.286488 0.73413,-0.429733 1.16387,-0.429736 0.429732,3e-6 0.81172,0.143248 1.145964,0.429736 0.346171,0.286493 0.519259,0.692355 0.519265,1.217587"
         id="path2997"
         style="font-size:17.90568732999999924px;font-variant:normal;font-weight:bold;font-stretch:normal;font-family:Ubuntu;-inkscape-font-specification:Ubuntu Bold;fill:#000000;stroke:none;stroke-opacity:1;stroke-width:0.58944114000000003;stroke-miterlimit:4;stroke-dasharray:none;fill-opacity:1" />
    </g>
  </g>
</svg>
