<?xml version="1.0" encoding="UTF-8" standalone="no"?>
<!-- Created with Inkscape (http://www.inkscape.org/) -->

<svg
   xmlns:dc="http://purl.org/dc/elements/1.1/"
   xmlns:cc="http://creativecommons.org/ns#"
   xmlns:rdf="http://www.w3.org/1999/02/22-rdf-syntax-ns#"
   xmlns:svg="http://www.w3.org/2000/svg"
   xmlns="http://www.w3.org/2000/svg"
   xmlns:xlink="http://www.w3.org/1999/xlink"
   xmlns:sodipodi="http://sodipodi.sourceforge.net/DTD/sodipodi-0.dtd"
   xmlns:inkscape="http://www.inkscape.org/namespaces/inkscape"
   version="1.1"
   width="48"
   height="48"
   id="svg1872"
   inkscape:version="0.48.5 r10040"
   sodipodi:docname="authors.svg">
  <sodipodi:namedview
     pagecolor="#ffffff"
     bordercolor="#666666"
     borderopacity="1"
     objecttolerance="10"
     gridtolerance="10"
     guidetolerance="10"
     inkscape:pageopacity="0"
     inkscape:pageshadow="2"
     inkscape:window-width="1920"
     inkscape:window-height="1007"
     id="namedview34"
     showgrid="false"
     inkscape:zoom="4.9166667"
     inkscape:cx="-15.355932"
     inkscape:cy="24"
     inkscape:window-x="0"
     inkscape:window-y="31"
     inkscape:window-maximized="1"
     inkscape:current-layer="layer1" />
  <defs
     id="defs10">
    <linearGradient
       x1="25.261343"
       y1="22.105263"
       x2="25.261343"
       y2="25.862095"
       id="linearGradient3049"
       xlink:href="#linearGradient5727-8"
       gradientUnits="userSpaceOnUse"
       gradientTransform="translate(1.3100005,0.28399966)" />
    <linearGradient
       id="linearGradient5727-8">
      <stop
         id="stop5729-8"
         style="stop-color:#000000;stop-opacity:1"
         offset="0" />
      <stop
         id="stop5731-4"
         style="stop-color:#000000;stop-opacity:0"
         offset="1" />
    </linearGradient>
    <linearGradient
       x1="25"
       y1="12"
       x2="25"
       y2="35"
       id="linearGradient5736"
       xlink:href="#linearGradient5727"
       gradientUnits="userSpaceOnUse"
       gradientTransform="translate(1.3100005,0.28399966)" />
    <linearGradient
       id="linearGradient5727">
      <stop
         id="stop5729"
         style="stop-color:#000000;stop-opacity:1"
         offset="0" />
      <stop
         id="stop5731"
         style="stop-color:#000000;stop-opacity:0"
         offset="1" />
    </linearGradient>
    <radialGradient
       cx="28.897007"
       cy="10.416596"
       r="19.99999"
       fx="30.345285"
       fy="10.416596"
       id="radialGradient5300-8"
       xlink:href="#linearGradient3242"
       gradientUnits="userSpaceOnUse"
       gradientTransform="matrix(1.3047329,-3.2752053e-8,0,2.1461101,-12.89286,13.928839)" />
    <linearGradient
       id="linearGradient3242">
      <stop
         id="stop3244"
         style="stop-color:#f8b17e;stop-opacity:1"
         offset="0" />
      <stop
         id="stop3246"
         style="stop-color:#e35d4f;stop-opacity:1"
         offset="0.26238" />
      <stop
         id="stop3248"
         style="stop-color:#c6262e;stop-opacity:1"
         offset="0.66093999" />
      <stop
         id="stop3250"
         style="stop-color:#690b54;stop-opacity:1"
         offset="1" />
    </linearGradient>
    <linearGradient
       x1="21.587072"
       y1="11.492184"
       x2="21.587072"
       y2="36.646912"
       id="linearGradient5302-1"
       xlink:href="#linearGradient2490"
       gradientUnits="userSpaceOnUse"
       gradientTransform="translate(0.81001352,-0.16945435)" />
    <linearGradient
       id="linearGradient2490">
      <stop
         id="stop2492"
         style="stop-color:#911313;stop-opacity:1"
         offset="0" />
      <stop
         id="stop2494"
         style="stop-color:#bc301e;stop-opacity:1"
         offset="1" />
    </linearGradient>
    <filter
       x="0"
       y="0"
       width="1"
       height="1"
       color-interpolation-filters="sRGB"
       id="filter3017-6">
      <feColorMatrix
         result="fbSourceGraphic"
         values="1"
         type="saturate"
         id="feColorMatrix3019-0" />
      <feColorMatrix
         values="-1 0 0 0 1 0 -1 0 0 1 0 0 -1 0 1 0 0 0 1 0 "
         in="fbSourceGraphic"
         id="feColorMatrix3021-8" />
    </filter>
    <filter
       x="0"
       y="0"
       width="1"
       height="1"
       color-interpolation-filters="sRGB"
       id="filter3017">
      <feColorMatrix
         result="fbSourceGraphic"
         values="1"
         type="saturate"
         id="feColorMatrix3019" />
      <feColorMatrix
         values="-1 0 0 0 1 0 -1 0 0 1 0 0 -1 0 1 0 0 0 1 0 "
         in="fbSourceGraphic"
         id="feColorMatrix3021" />
    </filter>
  </defs>
  <metadata
     id="metadata1877">
    <rdf:RDF>
      <cc:Work
         rdf:about="">
        <dc:format>image/svg+xml</dc:format>
        <dc:type
           rdf:resource="http://purl.org/dc/dcmitype/StillImage" />
        <dc:title />
        <dc:creator>
          <cc:Agent>
            <dc:title>Luca Ferretti &lt;elle.uca@libero.it&gt;</dc:title>
          </cc:Agent>
        </dc:creator>
        <dc:subject>
          <rdf:Bag>
            <rdf:li>bookmark</rdf:li>
            <rdf:li>view</rdf:li>
            <rdf:li>edit</rdf:li>
            <rdf:li>web</rdf:li>
            <rdf:li>favorites</rdf:li>
          </rdf:Bag>
        </dc:subject>
        <dc:coverage>Manage bookmarks in web browser</dc:coverage>
        <dc:description>A book with a bookmark</dc:description>
        <cc:license
           rdf:resource="http://creativecommons.org/licenses/LGPL/2.1/" />
      </cc:Work>
      <cc:License
         rdf:about="http://creativecommons.org/licenses/LGPL/2.1/">
        <cc:permits
           rdf:resource="http://web.resource.org/cc/Reproduction" />
        <cc:permits
           rdf:resource="http://web.resource.org/cc/Distribution" />
        <cc:requires
           rdf:resource="http://web.resource.org/cc/Notice" />
        <cc:permits
           rdf:resource="http://web.resource.org/cc/DerivativeWorks" />
        <cc:requires
           rdf:resource="http://web.resource.org/cc/ShareAlike" />
        <cc:requires
           rdf:resource="http://web.resource.org/cc/SourceCode" />
      </cc:License>
    </rdf:RDF>
  </metadata>
  <g
     id="layer1">
    <rect
       width="32"
       height="36"
       rx="2.9600999"
       ry="2.9590001"
       x="9"
       y="6"
       id="rect1880"
       style="fill:none;fill-rule:evenodd;stroke:#000000;stroke-width:4" />
    <path
       d="m 28.125,20.5 c -2.622,0 -4.75,1.995 -4.75,4.453125 0,1.297813 0.594154,2.460731 1.540039,3.274902 0.0093,0.0093 0.01846,0.0186 0.02783,0.02783 0.0523,0.04426 0.103347,0.08781 0.157715,0.129883 0.07286,0.06548 0.136312,0.134072 0.213379,0.194824 l -1.614258,0 c -1.499442,0 -2.699707,1.382437 -2.699707,3.089356 l 0,3.080078 14.25,0 0,-3.080078 c 0,-1.706919 -1.200264,-3.089356 -2.699707,-3.089356 l -1.614258,0 c 0.07707,-0.06075 0.140519,-0.129343 0.213379,-0.194824 0.05437,-0.04207 0.105415,-0.08563 0.157715,-0.129883 0.0094,-0.0092 0.01854,-0.01852 0.02783,-0.02783 C 32.280846,27.413856 32.875,26.250938 32.875,24.953125 32.875,22.495 30.747,20.5 28.125,20.5 z"
       transform="matrix(1.1344363,0,0,1.1700359,-14.842228,-17.038663)"
       id="rect4337"
       style="fill:#ffffff;fill-opacity:1;fill-rule:evenodd;stroke:none;filter:url(#filter3017)"
       inkscape:connector-curvature="0" />
    <path
       d="m 33.958894,22.593778 c -2.622,0 -4.75,1.995 -4.75,4.453125 0,1.297813 0.594154,2.460731 1.540039,3.274902 0.0093,0.0093 0.01846,0.0186 0.02783,0.02783 0.0523,0.04426 0.103347,0.08781 0.157715,0.129883 0.07286,0.06548 0.136312,0.134072 0.213379,0.194824 l -1.614258,0 c -1.499442,0 -2.699707,1.382437 -2.699707,3.089356 l 0,3.080078 14.25,0 0,-3.080078 c 0,-1.706919 -1.200264,-3.089356 -2.699707,-3.089356 l -1.614258,0 c 0.07707,-0.06075 0.140519,-0.129343 0.213379,-0.194824 0.05437,-0.04207 0.105415,-0.08563 0.157715,-0.129883 0.0094,-0.0092 0.01854,-0.01852 0.02783,-0.02783 0.945889,-0.814171 1.540043,-1.977089 1.540043,-3.274902 0,-2.458125 -2.128,-4.453125 -4.75,-4.453125 z"
       transform="matrix(1.1344363,0,0,1.1700359,-6.1642618,-2.4284938)"
       id="rect4337-0"
       style="fill:#ffffff;fill-opacity:1;fill-rule:evenodd;stroke:none;filter:url(#filter3017-6)"
       inkscape:connector-curvature="0" />
  </g>
</svg>
