<?xml version="1.0" encoding="UTF-8" standalone="no"?>
<svg
   xmlns:dc="http://purl.org/dc/elements/1.1/"
   xmlns:cc="http://creativecommons.org/ns#"
   xmlns:rdf="http://www.w3.org/1999/02/22-rdf-syntax-ns#"
   xmlns:svg="http://www.w3.org/2000/svg"
   xmlns="http://www.w3.org/2000/svg"
   xmlns:sodipodi="http://sodipodi.sourceforge.net/DTD/sodipodi-0.dtd"
   xmlns:inkscape="http://www.inkscape.org/namespaces/inkscape"
   width="48"
   height="48"
   viewBox="0 0 48 48"
   version="1.1"
   id="svg2"
   inkscape:version="0.48.5 r10040"
   sodipodi:docname="gdscript.svg">
  <metadata
     id="metadata17">
    <rdf:RDF>
      <cc:Work
         rdf:about="">
        <dc:format>image/svg+xml</dc:format>
        <dc:type
           rdf:resource="http://purl.org/dc/dcmitype/StillImage" />
        <dc:title />
      </cc:Work>
    </rdf:RDF>
  </metadata>
  <defs
     id="defs15">
    <clipPath
       id="clipPath4157"
       clipPathUnits="userSpaceOnUse">
      <path
         style="fill:#f9f8f2;fill-opacity:1;stroke-width:1.00658333"
         inkscape:connector-curvature="0"
         id="path4159"
         d="M 27.642964,3.2951379 40.728548,16.380722 H 29.65613 c -0.977824,0 -2.013166,-1.035372 -2.013166,-2.013167 z" />
    </clipPath>
    <filter
       height="1.12"
       y="-0.059999999"
       width="1.12"
       x="-0.059999999"
       id="filter4201"
       style="color-interpolation-filters:sRGB"
       inkscape:collect="always">
      <feGaussianBlur
         id="feGaussianBlur4203"
         stdDeviation="0.2826087"
         inkscape:collect="always" />
    </filter>
  </defs>
  <sodipodi:namedview
     pagecolor="#ffffff"
     bordercolor="#666666"
     borderopacity="1"
     objecttolerance="10"
     gridtolerance="10"
     guidetolerance="10"
     inkscape:pageopacity="0"
     inkscape:pageshadow="2"
     inkscape:window-width="1920"
     inkscape:window-height="1007"
     id="namedview13"
     showgrid="true"
     inkscape:zoom="10.1875"
     inkscape:cx="5.006135"
     inkscape:cy="24"
     inkscape:window-x="0"
     inkscape:window-y="31"
     inkscape:window-maximized="1"
     inkscape:current-layer="svg2">
    <inkscape:grid
       type="xygrid"
       id="grid4151" />
  </sodipodi:namedview>
  <g
     id="g4174">
    <path
       style="fill:none;fill-opacity:1;stroke-width:2;stroke:#000000;stroke-opacity:1;stroke-miterlimit:4;stroke-dasharray:none"
       inkscape:connector-curvature="0"
       id="path4-8"
       d="m 9.797669,4.203584 c -0.8944343,0 -1.73913,0.8446957 -1.73913,1.7391304 V 42.464454 c 0,0.844721 0.8944348,1.73913 1.73913,1.73913 h 27.826087 c 0.844722,0 1.739131,-0.894435 1.739131,-1.73913 V 15.507932 L 28.058539,4.203584 Z" />
    <path
       style="fill:#000000;fill-opacity:1;stroke-width:0.86956518999999999"
       inkscape:connector-curvature="0"
       id="path8-0"
       d="m 28.058539,4.203584 11.304348,11.304348 h -9.565218 c -0.844721,0 -1.73913,-0.894435 -1.73913,-1.739131 z" />
  </g>
  <path
     style="opacity:1;fill:#000000;fill-opacity:1;fill-rule:nonzero;stroke:none;stroke-width:0.16145833000000001;stroke-linejoin:round;stroke-miterlimit:4;stroke-dasharray:none;stroke-opacity:1"
     d="m 24,16.25 a 10.333333,10.333333 0 0 0 -10.333333,10.333334 10.333333,10.333333 0 0 0 0.02397,0.645833 h 7.080199 v -2.583333 l 4.520831,4.520833 -4.520834,4.520833 V 31.104167 H 14.716146 A 10.333333,10.333333 0 0 0 24,36.916667 10.333333,10.333333 0 0 0 34.333333,26.583334 10.333333,10.333333 0 0 0 24,16.25 Z"
     id="path3349"
     inkscape:connector-curvature="0" />
</svg>
