<?xml version="1.0" encoding="UTF-8" standalone="no"?>
<!-- Created with Inkscape (http://www.inkscape.org/) -->

<svg
   xmlns:dc="http://purl.org/dc/elements/1.1/"
   xmlns:cc="http://creativecommons.org/ns#"
   xmlns:rdf="http://www.w3.org/1999/02/22-rdf-syntax-ns#"
   xmlns:svg="http://www.w3.org/2000/svg"
   xmlns="http://www.w3.org/2000/svg"
   xmlns:sodipodi="http://sodipodi.sourceforge.net/DTD/sodipodi-0.dtd"
   xmlns:inkscape="http://www.inkscape.org/namespaces/inkscape"
   version="1.1"
   width="48"
   height="48"
   id="svg1307"
   inkscape:version="0.48.5 r10040"
   sodipodi:docname="image-x-xcf.svg">
  <sodipodi:namedview
     pagecolor="#ffffff"
     bordercolor="#666666"
     borderopacity="1"
     objecttolerance="10"
     gridtolerance="10"
     guidetolerance="10"
     inkscape:pageopacity="0"
     inkscape:pageshadow="2"
     inkscape:window-width="1920"
     inkscape:window-height="1007"
     id="namedview15"
     showgrid="false"
     inkscape:zoom="13.906433"
     inkscape:cx="19.948318"
     inkscape:cy="19.74898"
     inkscape:window-x="0"
     inkscape:window-y="31"
     inkscape:window-maximized="1"
     inkscape:current-layer="layer1" />
  <defs
     id="defs12" />
  <metadata
     id="metadata1312">
    <rdf:RDF>
      <cc:Work
         rdf:about="">
        <dc:format>image/svg+xml</dc:format>
        <dc:type
           rdf:resource="http://purl.org/dc/dcmitype/StillImage" />
        <dc:title />
      </cc:Work>
    </rdf:RDF>
  </metadata>
  <g
     id="layer1">
    <rect
       width="40"
       height="34"
       rx="3.4419"
       ry="3.3178999"
       x="4"
       y="7"
       id="rect1315"
       style="fill-rule:evenodd;fill:none;stroke:#000000;stroke-opacity:1;stroke-width:4;stroke-miterlimit:4;stroke-dasharray:none" />
    <path
       d="m 18.213707,20.863313 c -1.353744,0 -2.461321,1.154637 -2.46132,2.565902 0,1.411265 1.107576,2.565901 2.46132,2.565901 1.353745,0 2.461321,-1.154636 2.461321,-2.565901 0,-1.411265 -1.107576,-2.565902 -2.461321,-2.565902 z m 0,1.016364 c 0.830729,0 1.502365,0.683511 1.502365,1.549538 0,0.866026 -0.671636,1.566199 -1.502365,1.566199 -0.830729,0 -1.502364,-0.700173 -1.502364,-1.566199 -1e-6,-0.866027 0.671635,-1.549538 1.502364,-1.549538 z"
       id="path881"
       style="font-size:12px;fill:#000000;fill-opacity:1;fill-rule:evenodd;stroke:none" />
    <path
       d="m 36.042979,14.112235 c -0.642073,-0.159077 -2.404691,3.874062 -3.96432,5.296725 -3.11926,2.632408 -8.760431,3.551728 -15.890176,-4.655196 0,0 1.034352,4.962664 1.628497,6.201445 0.07713,0.160811 0.111818,0.304047 0.131595,0.444136 0.08777,-0.01242 0.172172,-0.0329 0.263192,-0.0329 1.092237,-10e-7 1.973934,0.933986 1.973934,2.072631 0,1.138647 -0.881697,2.056183 -1.973934,2.056183 -0.334642,0 -0.644738,-0.09366 -0.92117,-0.246742 0.347646,0.626197 0.601933,1.331179 0.707327,2.072631 0.309779,2.179327 -0.708348,3.818841 -2.286475,3.766926 1.222735,0.869871 3.105832,1.50657 5.75731,1.858789 -2.372418,-0.323878 -4.079271,-0.896037 -5.296725,-1.644946 1.854111,0.07722 9.059785,0.381892 10.708597,-3.849173 0.660534,0.449997 0.01563,3.610369 -1.365305,5.411872 -0.476081,0.120722 -0.927228,0.312539 -1.447553,0.312539 -0.947311,-0.05064 -1.808208,-0.122333 -2.599014,-0.230292 0.799044,0.106144 1.653791,0.19621 2.599014,0.246742 3.71341,0 6.380428,-3.842714 6.97457,-5.576366 0.695518,-2.081027 4.40212,-5.271864 4.901939,-8.833359 0.459533,-3.353418 0.43502,-4.58832 0.0987,-4.671646 z m -13.241814,7.977987 c 1.162106,0 2.105531,0.976294 2.105531,2.187778 0,1.211483 -0.943425,2.204227 -2.105531,2.204227 -1.162106,0 -2.10553,-0.992744 -2.10553,-2.204227 0,-1.211484 0.943424,-2.187778 2.10553,-2.187778 z"
       id="path878"
       style="font-size:12px;fill:#000000;fill-opacity:1;fill-rule:evenodd;stroke:none" />
    <path
       d="m 28.353766,31.541992 a 1.3551432,1.1466596 0 1 1 -2.710286,0 1.3551432,1.1466596 0 1 1 2.710286,0 z"
       transform="matrix(0.56639046,0,0,0.67715437,7.4952447,3.0870376)"
       id="path3139"
       style="color:#000000;fill:#000000;fill-opacity:1;fill-rule:nonzero;stroke:none;stroke-width:2.99999976;marker:none;visibility:visible;display:inline;overflow:visible;enable-background:accumulate" />
    <path
       d="m 28.353766,31.541992 a 1.3551432,1.1466596 0 1 1 -2.710286,0 1.3551432,1.1466596 0 1 1 2.710286,0 z"
       transform="matrix(0.38843318,0,0,0.50518048,7.3791675,7.7878596)"
       id="path3141"
       style="color:#000000;fill:#000000;fill-opacity:1;fill-rule:nonzero;stroke:none;stroke-width:2.99999976;marker:none;visibility:visible;display:inline;overflow:visible;enable-background:accumulate" />
    <path
       d="m 18.826196,27.413539 c -0.184549,-1.298312 -0.738915,-2.527183 -1.538938,-3.505924 -0.800023,-0.978741 -1.890194,-1.722635 -3.030504,-1.85008 -1.14031,-0.127446 -2.07328,0.390333 -2.616396,1.218961 -0.543115,0.828627 -0.760385,1.971256 -0.575837,3.269568 0.184548,1.298312 0.738915,2.527182 1.538938,3.505924 0.800023,0.978741 1.912691,1.725149 3.053001,1.852595 1.14031,0.127445 2.050783,-0.392849 2.593898,-1.221476 0.543116,-0.828627 0.760386,-1.971256 0.575838,-3.269568 z m -1.664824,-0.186067 c 0.136886,0.963003 -0.03148,1.782379 -0.379627,2.313546 -0.348148,0.531166 -0.822673,0.752649 -1.36285,0.692277 -0.540176,-0.06037 -1.116501,-0.399302 -1.629332,-1.026695 -0.512831,-0.627393 -0.923333,-1.511466 -1.060219,-2.474469 -0.136886,-0.963003 0.03148,-1.782379 0.379628,-2.313546 0.348148,-0.531166 0.84196,-0.77272 1.382137,-0.712347 0.540176,0.06037 1.097214,0.419372 1.610045,1.046765 0.51283,0.627393 0.923333,1.511466 1.060218,2.474469 z"
       id="path879"
       style="font-size:12px;fill:#000000;fill-opacity:1;fill-rule:evenodd;stroke:none" />
    <path
       d="m 26.798383,26.630272 c -0.311709,0.02966 -0.579543,0.233728 -0.690877,0.526383 -0.674844,1.731737 -2.558978,2.6094 -4.671646,3.0267 -2.112668,0.4173 -4.302626,0.33475 -5.230927,0.29609 -0.36725,-0.0064 -0.694205,0.231545 -0.801151,0.582936 -0.106944,0.351391 0.03204,0.7311 0.340566,0.930414 1.799603,1.107013 4.405779,1.800032 8.274077,2.006834 0.01644,4.94e-4 0.0329,4.94e-4 0.04935,0 0.733164,0 1.261529,-0.248213 1.644946,-0.345438 0.176843,-0.04658 0.333121,-0.150767 0.444136,-0.296091 0.793729,-1.03546 1.336346,-2.348492 1.612046,-3.520184 0.137851,-0.585846 0.211025,-1.134354 0.197394,-1.628496 -0.01363,-0.494142 -0.03891,-1.031766 -0.62508,-1.431103 -0.157915,-0.111624 -0.35011,-0.164041 -0.542832,-0.148045 l 0,0 z m -0.789574,3.256993 c -0.231865,0.788816 -0.575088,1.609583 -1.019866,2.253575 -0.347966,0.101331 -0.678316,0.211031 -0.90472,0.213843 -0.0065,-3.53e-4 -0.01,3.57e-4 -0.01645,0 -1.346391,-0.07408 -2.347716,-0.256852 -3.355689,-0.444135 0.364239,-0.04752 0.681678,-0.04185 1.052765,-0.115146 1.509411,-0.298143 3.043217,-0.900277 4.24396,-1.908137 z"
       id="path886"
       style="font-size:12px;fill:#000000;fill-opacity:1;fill-rule:evenodd;stroke:none" />
  </g>
</svg>
