<?xml version="1.0" encoding="UTF-8" standalone="no"?>
<!-- Created with Inkscape (http://www.inkscape.org/) -->

<svg
   xmlns:dc="http://purl.org/dc/elements/1.1/"
   xmlns:cc="http://creativecommons.org/ns#"
   xmlns:rdf="http://www.w3.org/1999/02/22-rdf-syntax-ns#"
   xmlns:svg="http://www.w3.org/2000/svg"
   xmlns="http://www.w3.org/2000/svg"
   xmlns:sodipodi="http://sodipodi.sourceforge.net/DTD/sodipodi-0.dtd"
   xmlns:inkscape="http://www.inkscape.org/namespaces/inkscape"
   version="1.1"
   width="48"
   height="48"
   id="svg1872"
   inkscape:version="0.48.5 r10040"
   sodipodi:docname="image-x-compressed-xcf.svg">
  <sodipodi:namedview
     pagecolor="#ffffff"
     bordercolor="#666666"
     borderopacity="1"
     objecttolerance="10"
     gridtolerance="10"
     guidetolerance="10"
     inkscape:pageopacity="0"
     inkscape:pageshadow="2"
     inkscape:window-width="1920"
     inkscape:window-height="1007"
     id="namedview25"
     showgrid="false"
     inkscape:zoom="9.8333333"
     inkscape:cx="5.5487858"
     inkscape:cy="17.518167"
     inkscape:window-x="0"
     inkscape:window-y="31"
     inkscape:window-maximized="1"
     inkscape:current-layer="svg1872" />
  <defs
     id="defs12" />
  <metadata
     id="metadata1877">
    <rdf:RDF>
      <cc:Work
         rdf:about="">
        <dc:format>image/svg+xml</dc:format>
        <dc:type
           rdf:resource="http://purl.org/dc/dcmitype/StillImage" />
        <dc:title />
        <dc:creator>
          <cc:Agent>
            <dc:title>Luca Ferretti &lt;elle.uca@libero.it&gt;</dc:title>
          </cc:Agent>
        </dc:creator>
        <dc:subject>
          <rdf:Bag>
            <rdf:li>archive</rdf:li>
            <rdf:li>package</rdf:li>
            <rdf:li>zip</rdf:li>
            <rdf:li>tar</rdf:li>
            <rdf:li>compress</rdf:li>
          </rdf:Bag>
        </dc:subject>
        <dc:coverage />
        <dc:description>a box in prespective</dc:description>
        <cc:license
           rdf:resource="http://creativecommons.org/licenses/LGPL/2.1/" />
      </cc:Work>
      <cc:License
         rdf:about="http://creativecommons.org/licenses/LGPL/2.1/">
        <cc:permits
           rdf:resource="http://web.resource.org/cc/Reproduction" />
        <cc:permits
           rdf:resource="http://web.resource.org/cc/Distribution" />
        <cc:requires
           rdf:resource="http://web.resource.org/cc/Notice" />
        <cc:permits
           rdf:resource="http://web.resource.org/cc/DerivativeWorks" />
        <cc:requires
           rdf:resource="http://web.resource.org/cc/ShareAlike" />
        <cc:requires
           rdf:resource="http://web.resource.org/cc/SourceCode" />
      </cc:License>
    </rdf:RDF>
  </metadata>
  <g
     id="layer1">
    <path
       d="M 25.627119,2.3442265 12.523279,9.3752116 V 23.437183 l 13.10384,4.218591 13.103839,-7.030985 V 6.5628177 L 25.627119,2.3442265 z"
       id="path1882"
       style="fill:none;stroke:#000000;stroke-width:3.03534031;stroke-linecap:round;stroke-linejoin:round"
       inkscape:connector-curvature="0" />
    <path
       d="M 38.730958,6.5628177 25.627119,13.593803"
       id="path2770"
       style="fill:none;stroke:#000000;stroke-width:2.27650523;stroke-linecap:round;stroke-linejoin:round"
       inkscape:connector-curvature="0" />
    <path
       d="m 12.523279,9.3752116 13.10384,4.2185914"
       id="path3658"
       style="fill:none;stroke:#000000;stroke-width:2.27650523;stroke-linecap:round;stroke-linejoin:round"
       inkscape:connector-curvature="0" />
    <path
       d="M 25.627119,27.312662 V 13.593803"
       id="path3660"
       style="fill:none;stroke:#000000;stroke-width:2.27650523;stroke-linecap:round;stroke-linejoin:round"
       inkscape:connector-curvature="0" />
    <g
       transform="matrix(0.51051004,0,0,0.51051004,13.097321,24.500626)"
       id="g3036"
       style="fill:#000000;fill-opacity:1;stroke:none">
      <path
         d="m 13.659937,18.669169 c -2.571788,0 -4.675916,2.193531 -4.6759151,4.874594 0,2.681063 2.1041271,4.874594 4.6759151,4.874594 2.571788,0 4.675915,-2.193531 4.675915,-4.874594 0,-2.681063 -2.104127,-4.874594 -4.675915,-4.874594 z m 0,1.930846 c 1.578185,0 2.85413,1.298507 2.85413,2.943748 0,1.645242 -1.275945,2.975401 -2.85413,2.975401 -1.578185,0 -2.85413,-1.330159 -2.85413,-2.975401 -10e-7,-1.645241 1.275945,-2.943748 2.85413,-2.943748 z"
         id="path881"
         style="font-size:12px;fill:#000000;fill-opacity:1;fill-rule:evenodd;stroke:none"
         inkscape:connector-curvature="0" />
      <path
         d="M 47.53125,5.84375 C 46.311467,5.5415422 42.962919,13.203534 40,15.90625 34.074158,20.907189 23.357295,22.653675 9.8125,7.0625 c 0,0 1.965019,9.427865 3.09375,11.78125 0.146525,0.305502 0.212428,0.577616 0.25,0.84375 0.166738,-0.0236 0.327084,-0.0625 0.5,-0.0625 2.074987,-1e-6 3.75,1.774348 3.75,3.9375 -1e-6,2.163153 -1.675013,3.90625 -3.75,3.90625 -0.635738,0 -1.224846,-0.177924 -1.75,-0.46875 0.660443,1.189624 1.143528,2.528919 1.34375,3.9375 0.588507,4.140194 -1.345689,7.254876 -4.34375,7.15625 2.322901,1.652544 5.900331,2.862119 10.9375,3.53125 -4.507022,-0.615289 -7.749631,-1.702256 -10.0625,-3.125 3.522363,0.146691 17.211405,0.725502 20.34375,-7.3125 1.254855,0.854886 0.0297,6.85883 -2.59375,10.28125 -0.904438,0.229343 -1.761509,0.59375 -2.75,0.59375 -1.799663,-0.09621 -3.435159,-0.232404 -4.9375,-0.4375 1.51799,0.201648 3.141803,0.372751 4.9375,0.46875 7.054582,0 12.121272,-7.300229 13.25,-10.59375 1.321315,-3.953449 8.362965,-10.015268 9.3125,-16.78125 0.873003,-6.3706842 0.826434,-8.7167007 0.1875,-8.875 z M 22.375,21 c 2.20772,0 4,1.854724 4,4.15625 1e-6,2.301526 -1.792279,4.1875 -4,4.1875 -2.207721,0 -4,-1.885974 -4,-4.1875 0,-2.301526 1.792279,-4.15625 4,-4.15625 z"
         id="path878"
         style="font-size:12px;fill:#000000;fill-opacity:1;fill-rule:evenodd;stroke:none"
         inkscape:connector-curvature="0" />
      <path
         d="m 28.353766,31.541992 a 1.3551432,1.1466596 0 1 1 -2.710286,0 1.3551432,1.1466596 0 1 1 2.710286,0 z"
         transform="matrix(1.0760052,0,0,1.2864299,-6.7025561,-15.101465)"
         id="path3139"
         style="color:#000000;fill:#000000;fill-opacity:1;fill-rule:nonzero;stroke:none;stroke-width:2.99999976;marker:none;visibility:visible;display:inline;overflow:visible;enable-background:accumulate"
         inkscape:connector-curvature="0" />
      <path
         d="m 28.353766,31.541992 a 1.3551432,1.1466596 0 1 1 -2.710286,0 1.3551432,1.1466596 0 1 1 2.710286,0 z"
         transform="matrix(0.7379293,0,0,0.959721,-6.9230748,-6.171039)"
         id="path3141"
         style="color:#000000;fill:#000000;fill-opacity:1;fill-rule:nonzero;stroke:none;stroke-width:2.99999976;marker:none;visibility:visible;display:inline;overflow:visible;enable-background:accumulate"
         inkscape:connector-curvature="0" />
      <path
         d="m 14.823517,31.113018 c -0.350597,-2.46648 -1.403759,-4.801037 -2.92361,-6.660409 -1.519851,-1.859373 -3.590912,-3.272592 -5.7572262,-3.514707 -2.1663142,-0.242116 -3.9387326,0.74154 -4.9705205,2.315732 -1.03178781,1.574192 -1.44454907,3.744911 -1.09395178,6.211391 0.35059717,2.46648 1.40375958,4.801036 2.92361058,6.660409 1.519851,1.859373 3.6336516,3.277368 5.7999658,3.519484 2.1663141,0.242115 3.8959931,-0.746318 4.9277801,-2.320509 1.031788,-1.574192 1.444549,-3.744911 1.093952,-6.211391 z m -3.162762,-0.353483 c 0.26005,1.829474 -0.05981,3.386091 -0.721201,4.395179 -0.661397,1.009088 -1.5628796,1.429852 -2.5890849,1.31516 C 7.3242637,36.355181 6.2293853,35.711296 5.2551306,34.519401 4.2808759,33.327506 3.5010204,31.647981 3.2409704,29.818507 c -0.2600502,-1.829473 0.059805,-3.38609 0.7212014,-4.395178 0.6613965,-1.009088 1.5995206,-1.467982 2.625726,-1.353289 1.0262053,0.114692 2.0844426,0.796707 3.0586973,1.988602 0.9742549,1.191895 1.7541099,2.87142 2.0141599,4.700893 z"
         id="path879"
         style="font-size:12px;fill:#000000;fill-opacity:1;fill-rule:evenodd;stroke:none"
         inkscape:connector-curvature="0" />
      <path
         d="m 29.96875,29.625 c -0.592172,0.05635 -1.100992,0.444026 -1.3125,1 -1.282041,3.289883 -4.861441,4.957231 -8.875,5.75 -4.013559,0.792769 -8.173951,0.635944 -9.9375,0.5625 -0.6976856,-0.01207 -1.3188225,0.43988 -1.5219922,1.107437 -0.2031696,0.667558 0.060873,1.388914 0.6469922,1.767563 3.418812,2.103056 8.369918,3.419626 15.71875,3.8125 0.03124,9.38e-4 0.06251,9.38e-4 0.09375,0 1.392834,0 2.396599,-0.471546 3.125,-0.65625 0.335959,-0.08849 0.632849,-0.28642 0.84375,-0.5625 1.507894,-1.967125 2.538736,-4.461569 3.0625,-6.6875 0.261882,-1.112966 0.400895,-2.154999 0.375,-3.09375 C 32.161605,31.686249 32.113584,30.664894 31,29.90625 30.699999,29.694191 30.334874,29.594611 29.96875,29.625 l 0,0 z m -1.5,6.1875 c -0.440489,1.498561 -1.09253,3.05782 -1.9375,4.28125 -0.661051,0.192504 -1.288637,0.400907 -1.71875,0.40625 -0.01234,-6.72e-4 -0.01893,6.78e-4 -0.03125,0 -2.557818,-0.140728 -4.460095,-0.487958 -6.375,-0.84375 0.691966,-0.09028 1.295024,-0.0795 2,-0.21875 2.867516,-0.5664 5.781378,-1.710308 8.0625,-3.625 z"
         id="path886"
         style="font-size:12px;fill:#000000;fill-opacity:1;fill-rule:evenodd;stroke:none"
         inkscape:connector-curvature="0" />
    </g>
  </g>
</svg>
