<?xml version="1.0" encoding="UTF-8" standalone="no"?>
<!-- Created with Inkscape (http://www.inkscape.org/) -->

<svg
   xmlns:dc="http://purl.org/dc/elements/1.1/"
   xmlns:cc="http://creativecommons.org/ns#"
   xmlns:rdf="http://www.w3.org/1999/02/22-rdf-syntax-ns#"
   xmlns:svg="http://www.w3.org/2000/svg"
   xmlns="http://www.w3.org/2000/svg"
   xmlns:sodipodi="http://sodipodi.sourceforge.net/DTD/sodipodi-0.dtd"
   xmlns:inkscape="http://www.inkscape.org/namespaces/inkscape"
   version="1.2"
   width="48"
   height="48"
   id="svg1307"
   inkscape:version="0.48.5 r10040"
   sodipodi:docname="gnome-mime-image-bmp.svg">
  <sodipodi:namedview
     pagecolor="#ffffff"
     bordercolor="#666666"
     borderopacity="1"
     objecttolerance="10"
     gridtolerance="10"
     guidetolerance="10"
     inkscape:pageopacity="0"
     inkscape:pageshadow="2"
     inkscape:window-width="1920"
     inkscape:window-height="1007"
     id="namedview13"
     showgrid="false"
     inkscape:zoom="4.9166667"
     inkscape:cx="-15.355932"
     inkscape:cy="24"
     inkscape:window-x="0"
     inkscape:window-y="31"
     inkscape:window-maximized="1"
     inkscape:current-layer="layer1" />
  <defs
     id="defs12" />
  <metadata
     id="metadata1312">
    <rdf:RDF>
      <cc:Work
         rdf:about="">
        <dc:format>image/svg+xml</dc:format>
        <dc:type
           rdf:resource="http://purl.org/dc/dcmitype/StillImage" />
        <dc:title />
      </cc:Work>
    </rdf:RDF>
  </metadata>
  <g
     id="layer1">
    <rect
       width="40"
       height="34"
       rx="3.4419"
       ry="3.3178999"
       x="4"
       y="7"
       id="rect1315"
       style="fill-rule:evenodd;fill:none;stroke:#000000;stroke-opacity:1;stroke-width:4;stroke-miterlimit:4;stroke-dasharray:none" />
    <g
       transform="matrix(1.2,0,0,1.2,-2.943375,-1.8758967)"
       id="flowRoot3061"
       style="font-size:4px;font-style:normal;font-weight:normal;line-height:125%;letter-spacing:0px;word-spacing:0px;fill:#000000;fill-opacity:1;stroke:none;font-family:Sans">
      <path
         d="m 13.57725,24.470927 c -0.418003,0 -0.836003,-0.01467 -1.254,-0.044 -0.410668,-0.022 -0.839668,-0.08067 -1.287,-0.176 l 0,-7.392 c 0.351999,-0.06599 0.736998,-0.113659 1.155,-0.143 0.417998,-0.03666 0.806664,-0.05499 1.166,-0.055 0.483996,7e-6 0.927663,0.03667 1.331,0.11 0.410662,0.06601 0.762661,0.18334 1.056,0.352 0.293327,0.168673 0.520661,0.39234 0.682,0.671 0.16866,0.271339 0.252993,0.608672 0.253,1.012 -7e-6,0.608671 -0.29334,1.089004 -0.88,1.441 0.483994,0.183337 0.813994,0.43267 0.99,0.748 0.175993,0.315336 0.263993,0.671002 0.264,1.067 -7e-6,0.799335 -0.29334,1.400667 -0.88,1.804 -0.579339,0.403333 -1.444671,0.605 -2.596,0.605 m -0.869,-3.421 0,1.969 c 0.124664,0.01467 0.260331,0.02567 0.407,0.033 0.146664,0.0073 0.307997,0.011 0.484,0.011 0.513329,1e-6 0.927662,-0.07333 1.243,-0.22 0.315328,-0.146665 0.472995,-0.417998 0.473,-0.814 -5e-6,-0.351998 -0.132005,-0.601331 -0.396,-0.748 -0.264004,-0.153997 -0.641671,-0.230997 -1.133,-0.231 l -1.078,0 m 0,-1.309 0.836,0 c 0.527996,4e-6 0.905662,-0.066 1.133,-0.198 0.227329,-0.139329 0.340995,-0.359328 0.341,-0.66 -5e-6,-0.307995 -0.117338,-0.524328 -0.352,-0.649 -0.234671,-0.124661 -0.579337,-0.186994 -1.034,-0.187 -0.14667,6e-6 -0.304337,0.0037 -0.473,0.011 -0.16867,6e-6 -0.319003,0.0073 -0.451,0.022 l 0,1.661"
         id="path3096"
         style="font-size:11px;font-variant:normal;font-weight:bold;font-stretch:normal;font-family:Ubuntu;-inkscape-font-specification:Ubuntu Bold"
         inkscape:connector-curvature="0" />
      <path
         d="m 20.450875,16.748927 c 0.131997,0.242007 0.28233,0.542673 0.451,0.902 0.175996,0.352006 0.355663,0.737006 0.539,1.155 0.190663,0.410671 0.377662,0.832338 0.561,1.265 0.183329,0.43267 0.355662,0.83967 0.517,1.221 0.161328,-0.38133 0.333661,-0.78833 0.517,-1.221 0.183328,-0.432662 0.366661,-0.854329 0.55,-1.265 0.19066,-0.417994 0.370327,-0.802994 0.539,-1.155 0.175993,-0.359327 0.329993,-0.659993 0.462,-0.902 l 1.562,0 c 0.07333,0.506007 0.139325,1.07434 0.198,1.705 0.06599,0.623338 0.120991,1.276004 0.165,1.958 0.05132,0.67467 0.09532,1.353002 0.132,2.035 0.04399,0.682001 0.08066,1.323667 0.11,1.925 l -1.672,0 c -0.02201,-0.740666 -0.05134,-1.547332 -0.088,-2.42 -0.03667,-0.872664 -0.09167,-1.752663 -0.165,-2.64 -0.132007,0.308004 -0.278674,0.649004 -0.44,1.023 -0.16134,0.374003 -0.322673,0.748003 -0.484,1.122 -0.154006,0.374002 -0.304339,0.733335 -0.451,1.078 -0.146672,0.337335 -0.271339,0.627001 -0.374,0.869 l -1.199,0 c -0.102671,-0.241999 -0.227337,-0.531665 -0.374,-0.869 -0.14667,-0.344665 -0.30067,-0.703998 -0.462,-1.078 -0.154003,-0.373997 -0.31167,-0.747997 -0.473,-1.122 -0.161336,-0.373996 -0.308003,-0.714996 -0.44,-1.023 -0.07334,0.887337 -0.128336,1.767336 -0.165,2.64 -0.03667,0.872668 -0.066,1.679334 -0.088,2.42 l -1.672,0 c 0.02933,-0.601333 0.06233,-1.242999 0.099,-1.925 0.044,-0.681998 0.088,-1.36033 0.132,-2.035 0.05133,-0.681996 0.106332,-1.334662 0.165,-1.958 0.066,-0.63066 0.135665,-1.198993 0.209,-1.705 l 1.639,0"
         id="path3098"
         style="font-size:11px;font-variant:normal;font-weight:bold;font-stretch:normal;font-family:Ubuntu;-inkscape-font-specification:Ubuntu Bold"
         inkscape:connector-curvature="0" />
      <path
         d="m 30.576203,16.660927 c 1.136662,7e-6 2.009328,0.201674 2.618,0.605 0.60866,0.396006 0.912993,1.048672 0.913,1.958 -7e-6,0.916671 -0.308006,1.580337 -0.924,1.991 -0.616005,0.403336 -1.496004,0.605002 -2.64,0.605 l -0.539,0 0,2.552 -1.716,0 0,-7.513 c 0.373999,-0.07333 0.769998,-0.124659 1.188,-0.154 0.417998,-0.02933 0.784664,-0.04399 1.1,-0.044 m 0.11,1.463 c -0.12467,6e-6 -0.249336,0.0037 -0.374,0.011 -0.117336,0.0073 -0.220003,0.01467 -0.308,0.022 l 0,2.2 0.539,0 c 0.593996,4e-6 1.041329,-0.08066 1.342,-0.242 0.300662,-0.161329 0.450995,-0.461996 0.451,-0.902 -5e-6,-0.212662 -0.04034,-0.388661 -0.121,-0.528 -0.07334,-0.139328 -0.183338,-0.249328 -0.33,-0.33 -0.139338,-0.08799 -0.311671,-0.146661 -0.517,-0.176 -0.205337,-0.03666 -0.43267,-0.05499 -0.682,-0.055"
         id="path3100"
         style="font-size:11px;font-variant:normal;font-weight:bold;font-stretch:normal;font-family:Ubuntu;-inkscape-font-specification:Ubuntu Bold"
         inkscape:connector-curvature="0" />
    </g>
  </g>
</svg>
