<?xml version="1.0" encoding="UTF-8" standalone="no"?>
<!-- Created with Inkscape (http://www.inkscape.org/) -->

<svg
   xmlns:dc="http://purl.org/dc/elements/1.1/"
   xmlns:cc="http://creativecommons.org/ns#"
   xmlns:rdf="http://www.w3.org/1999/02/22-rdf-syntax-ns#"
   xmlns:svg="http://www.w3.org/2000/svg"
   xmlns="http://www.w3.org/2000/svg"
   xmlns:sodipodi="http://sodipodi.sourceforge.net/DTD/sodipodi-0.dtd"
   xmlns:inkscape="http://www.inkscape.org/namespaces/inkscape"
   version="1.2"
   width="48"
   height="48"
   id="svg1307"
   inkscape:version="0.48.5 r10040"
   sodipodi:docname="gnome-mime-image-gif.svg">
  <sodipodi:namedview
     pagecolor="#ffffff"
     bordercolor="#666666"
     borderopacity="1"
     objecttolerance="10"
     gridtolerance="10"
     guidetolerance="10"
     inkscape:pageopacity="0"
     inkscape:pageshadow="2"
     inkscape:window-width="1920"
     inkscape:window-height="1007"
     id="namedview13"
     showgrid="false"
     inkscape:zoom="13.906433"
     inkscape:cx="46.059394"
     inkscape:cy="26.789666"
     inkscape:window-x="0"
     inkscape:window-y="31"
     inkscape:window-maximized="1"
     inkscape:current-layer="layer1" />
  <defs
     id="defs12" />
  <metadata
     id="metadata1312">
    <rdf:RDF>
      <cc:Work
         rdf:about="">
        <dc:format>image/svg+xml</dc:format>
        <dc:type
           rdf:resource="http://purl.org/dc/dcmitype/StillImage" />
        <dc:title />
      </cc:Work>
    </rdf:RDF>
  </metadata>
  <g
     id="layer1">
    <rect
       width="40"
       height="34"
       rx="3.4419"
       ry="3.3178999"
       x="4"
       y="7"
       id="rect1315"
       style="fill-rule:evenodd;fill:none;stroke:#000000;stroke-opacity:1;stroke-width:4;stroke-miterlimit:4;stroke-dasharray:none" />
    <g
       transform="matrix(1.2,0,0,1.2,1.9526175,-0.91411962)"
       id="flowRoot3061"
       style="font-size:4px;font-style:normal;font-weight:normal;line-height:125%;letter-spacing:0px;word-spacing:0px;fill:#000000;fill-opacity:1;stroke:none;font-family:Sans">
      <path
         d="m 14.75425,18.068927 c -0.799337,6e-6 -1.37867,0.223672 -1.738,0.671 -0.352003,0.440005 -0.528002,1.045004 -0.528,1.815 -2e-6,0.374003 0.044,0.715003 0.132,1.023 0.088,0.300669 0.219997,0.561002 0.396,0.781 0.175997,0.220001 0.395997,0.392335 0.66,0.517 0.263996,0.117334 0.571996,0.176001 0.924,0.176 0.190662,1e-6 0.351995,-0.0037 0.484,-0.011 0.139328,-0.0073 0.260328,-0.022 0.363,-0.044 l 0,-2.651 1.716,0 0,3.773 c -0.20534,0.08067 -0.53534,0.165 -0.99,0.253 -0.454672,0.09533 -1.015672,0.143 -1.683,0.143 -0.572004,0 -1.09267,-0.088 -1.562,-0.264 -0.462002,-0.176 -0.858002,-0.432666 -1.188,-0.77 -0.330001,-0.337332 -0.586668,-0.751665 -0.77,-1.243 -0.176001,-0.491331 -0.264001,-1.05233 -0.264,-1.683 -1e-6,-0.637996 0.099,-1.202662 0.297,-1.694 0.197999,-0.491328 0.469332,-0.905661 0.814,-1.243 0.344665,-0.34466 0.747998,-0.604993 1.21,-0.781 0.46933,-0.175993 0.967996,-0.263993 1.496,-0.264 0.359329,7e-6 0.681995,0.02567 0.968,0.077 0.293328,0.04401 0.542661,0.09901 0.748,0.165 0.21266,0.05867 0.384994,0.121007 0.517,0.187 0.139327,0.06601 0.238326,0.11734 0.297,0.154 l -0.495,1.375 c -0.234673,-0.124661 -0.506006,-0.230994 -0.814,-0.319 -0.300672,-0.09533 -0.630672,-0.142994 -0.99,-0.143"
         id="path3141"
         style="font-size:11px;font-variant:normal;font-weight:bold;font-stretch:normal;font-family:Ubuntu;-inkscape-font-specification:Ubuntu Bold"
         inkscape:connector-curvature="0" />
      <path
         d="m 18.749141,16.748927 1.716,0 0,7.623 -1.716,0 0,-7.623"
         id="path3143"
         style="font-size:11px;font-variant:normal;font-weight:bold;font-stretch:normal;font-family:Ubuntu;-inkscape-font-specification:Ubuntu Bold"
         inkscape:connector-curvature="0" />
      <path
         d="m 22.229609,24.371927 0,-7.623 5.104,0 0,1.441 -3.388,0 0,1.595 3.014,0 0,1.441 -3.014,0 0,3.146 -1.716,0"
         id="path3145"
         style="font-size:11px;font-variant:normal;font-weight:bold;font-stretch:normal;font-family:Ubuntu;-inkscape-font-specification:Ubuntu Bold"
         inkscape:connector-curvature="0" />
    </g>
  </g>
</svg>
