<?xml version="1.0" encoding="UTF-8" standalone="no"?>
<!-- Created with Inkscape (http://www.inkscape.org/) -->

<svg
   xmlns:dc="http://purl.org/dc/elements/1.1/"
   xmlns:cc="http://creativecommons.org/ns#"
   xmlns:rdf="http://www.w3.org/1999/02/22-rdf-syntax-ns#"
   xmlns:svg="http://www.w3.org/2000/svg"
   xmlns="http://www.w3.org/2000/svg"
   xmlns:sodipodi="http://sodipodi.sourceforge.net/DTD/sodipodi-0.dtd"
   xmlns:inkscape="http://www.inkscape.org/namespaces/inkscape"
   version="1.1"
   width="48"
   height="48"
   viewBox="0 0 48 48"
   id="svg2"
   xml:space="preserve"
   inkscape:version="0.48.5 r10040"
   sodipodi:docname="libreoffice-extension.svg"><sodipodi:namedview
     pagecolor="#ffffff"
     bordercolor="#666666"
     borderopacity="1"
     objecttolerance="10"
     gridtolerance="10"
     guidetolerance="10"
     inkscape:pageopacity="0"
     inkscape:pageshadow="2"
     inkscape:window-width="1920"
     inkscape:window-height="1007"
     id="namedview12"
     showgrid="false"
     inkscape:zoom="13.906433"
     inkscape:cx="43.83649"
     inkscape:cy="27.101376"
     inkscape:window-x="0"
     inkscape:window-y="31"
     inkscape:window-maximized="1"
     inkscape:current-layer="svg2" /><defs
     id="defs14" /><metadata
     id="metadata19"><rdf:RDF><cc:Work
         rdf:about=""><dc:format>image/svg+xml</dc:format><dc:type
           rdf:resource="http://purl.org/dc/dcmitype/StillImage" /><dc:title /><dc:creator><cc:Agent><dc:title>Luca Ferretti &lt;elle.uca@libero.it&gt;</dc:title></cc:Agent></dc:creator><cc:license
           rdf:resource="" /><dc:date>December 2008</dc:date><dc:contributor><cc:Agent><dc:title>Based on text-x-generic</dc:title></cc:Agent></dc:contributor></cc:Work></rdf:RDF></metadata><rect
     width="48"
     height="48"
     x="0"
     y="0"
     id="rect3319"
     style="fill:none" /><path
     d="M 39,41 H 9 V 6 h 21 l 9,10 v 25 z"
     id="path7"
     style="stroke:#000000;stroke-width:4;stroke-linejoin:round;fill:none" /><g
     transform="matrix(0.39977032,-0.39977032,0.40111487,0.40111487,4.7186554,26.693371)"
     id="Layer_x0020_3"
     style="fill:#000000;fill-opacity:1;fill-rule:nonzero;stroke:none"><g
       id="g5"
       style="fill:#000000;fill-opacity:1;stroke:none"><path
         d="m 39.6,17.9 c -1.3,0 -2.5,1.2 -3.2,2.9 -1,0.5 -2.5,0.1 -2.9,-1 l 0,-7.2 -0.2,0 -18.6,0 -0.2,0 0,7.3 c -0.4,1.2 -1.8,1.6 -2.8,1.1 -0.6,-1.9 -1.9,-3.1 -3.3,-3.1 -2.1,0 -3.8,2.8 -3.8,6.2 0,3.4 1.7,6.2 3.8,6.2 1.3,0 2.5,-1.2 3.2,-2.9 1,-0.5 2.5,-0.1 2.9,1 l 0,7.2 0.2,0 18.7,0 0.2,0 0,-7.3 c 0.4,-1.2 1.8,-1.6 2.8,-1.1 0.6,1.9 1.9,3.1 3.3,3.1 2.1,0 3.8,-2.8 3.8,-6.2 0,-3.4 -1.7,-6.2 -3.8,-6.2 l -0.1,0 z"
         id="path9-9"
         style="fill:#000000;fill-opacity:1;stroke:none" /></g></g></svg>