<?xml version="1.0" encoding="UTF-8" standalone="no"?>
<!-- Created with Inkscape (http://www.inkscape.org/) -->

<svg
   xmlns:dc="http://purl.org/dc/elements/1.1/"
   xmlns:cc="http://creativecommons.org/ns#"
   xmlns:rdf="http://www.w3.org/1999/02/22-rdf-syntax-ns#"
   xmlns:svg="http://www.w3.org/2000/svg"
   xmlns="http://www.w3.org/2000/svg"
   xmlns:sodipodi="http://sodipodi.sourceforge.net/DTD/sodipodi-0.dtd"
   xmlns:inkscape="http://www.inkscape.org/namespaces/inkscape"
   version="1.1"
   width="48"
   height="48"
   viewBox="0 0 48 48"
   id="svg2"
   xml:space="preserve"
   inkscape:version="0.48.5 r10040"
   sodipodi:docname="office-contact.svg"><sodipodi:namedview
     pagecolor="#ffffff"
     bordercolor="#666666"
     borderopacity="1"
     objecttolerance="10"
     gridtolerance="10"
     guidetolerance="10"
     inkscape:pageopacity="0"
     inkscape:pageshadow="2"
     inkscape:window-width="1920"
     inkscape:window-height="1007"
     id="namedview14"
     showgrid="false"
     inkscape:zoom="13.906433"
     inkscape:cx="47.440566"
     inkscape:cy="29.58176"
     inkscape:window-x="0"
     inkscape:window-y="31"
     inkscape:window-maximized="1"
     inkscape:current-layer="svg2" /><defs
     id="defs11"><filter
       x="0"
       y="0"
       width="1"
       height="1"
       color-interpolation-filters="sRGB"
       id="filter3017-6"><feColorMatrix
         result="fbSourceGraphic"
         values="1"
         type="saturate"
         id="feColorMatrix3019-0" /><feColorMatrix
         values="-1 0 0 0 1 0 -1 0 0 1 0 0 -1 0 1 0 0 0 1 0 "
         in="fbSourceGraphic"
         id="feColorMatrix3021-8" /></filter></defs><metadata
     id="metadata19"><rdf:RDF><cc:Work
         rdf:about=""><dc:format>image/svg+xml</dc:format><dc:type
           rdf:resource="http://purl.org/dc/dcmitype/StillImage" /><dc:title /><dc:creator><cc:Agent><dc:title>Jakub Stainer</dc:title></cc:Agent></dc:creator><cc:license
           rdf:resource="http://creativecommons.org/licenses/GPL/2.0/" /></cc:Work><cc:License
         rdf:about="http://creativecommons.org/licenses/GPL/2.0/"><cc:permits
           rdf:resource="http://web.resource.org/cc/Reproduction" /><cc:permits
           rdf:resource="http://web.resource.org/cc/Distribution" /><cc:requires
           rdf:resource="http://web.resource.org/cc/Notice" /><cc:permits
           rdf:resource="http://web.resource.org/cc/DerivativeWorks" /><cc:requires
           rdf:resource="http://web.resource.org/cc/ShareAlike" /><cc:requires
           rdf:resource="http://web.resource.org/cc/SourceCode" /></cc:License></rdf:RDF></metadata><rect
     width="48"
     height="48"
     x="0"
     y="0"
     id="rect3319"
     style="fill:none" /><rect
     width="48"
     height="48"
     x="-8.8817842e-16"
     y="0"
     id="rect3319-9"
     style="fill:none" /><path
     d="M 38.928091,41.071909 H 8.9280908 V 6.0719095 H 29.928091 l 9,9.9999995 v 25 z"
     id="path7"
     style="fill:none;stroke:#000000;stroke-width:4;stroke-linejoin:round"
     inkscape:connector-curvature="0" /><path
     d="m 33.958894,22.593778 c -2.622,0 -4.75,1.995 -4.75,4.453125 0,1.297813 0.594154,2.460731 1.540039,3.274902 0.0093,0.0093 0.01846,0.0186 0.02783,0.02783 0.0523,0.04426 0.103347,0.08781 0.157715,0.129883 0.07286,0.06548 0.136312,0.134072 0.213379,0.194824 l -1.614258,0 c -1.499442,0 -2.699707,1.382437 -2.699707,3.089356 l 0,3.080078 14.25,0 0,-3.080078 c 0,-1.706919 -1.200264,-3.089356 -2.699707,-3.089356 l -1.614258,0 c 0.07707,-0.06075 0.140519,-0.129343 0.213379,-0.194824 0.05437,-0.04207 0.105415,-0.08563 0.157715,-0.129883 0.0094,-0.0092 0.01854,-0.01852 0.02783,-0.02783 0.945889,-0.814171 1.540043,-1.977089 1.540043,-3.274902 0,-2.458125 -2.128,-4.453125 -4.75,-4.453125 z"
     transform="matrix(1.1700359,0,0,1.1700359,-15.733123,-8.331358)"
     id="rect4337-0"
     style="fill:#ffffff;fill-opacity:1;stroke:none;stroke-width:0.85467464000000004;stroke-miterlimit:4;stroke-opacity:1;stroke-dasharray:none;filter:url(#filter3017-6)" /></svg>