<?xml version="1.0" encoding="UTF-8" standalone="no"?>
<!-- Created with Inkscape (http://www.inkscape.org/) -->

<svg
   xmlns:dc="http://purl.org/dc/elements/1.1/"
   xmlns:cc="http://creativecommons.org/ns#"
   xmlns:rdf="http://www.w3.org/1999/02/22-rdf-syntax-ns#"
   xmlns:svg="http://www.w3.org/2000/svg"
   xmlns="http://www.w3.org/2000/svg"
   xmlns:sodipodi="http://sodipodi.sourceforge.net/DTD/sodipodi-0.dtd"
   xmlns:inkscape="http://www.inkscape.org/namespaces/inkscape"
   version="1.1"
   width="48"
   height="48"
   viewBox="0 0 48 48"
   id="svg2"
   xml:space="preserve"
   inkscape:version="0.48.5 r10040"
   sodipodi:docname="gnome-mime-text-x-c++.svg"><sodipodi:namedview
     pagecolor="#ffffff"
     bordercolor="#666666"
     borderopacity="1"
     objecttolerance="10"
     gridtolerance="10"
     guidetolerance="10"
     inkscape:pageopacity="0"
     inkscape:pageshadow="2"
     inkscape:window-width="1920"
     inkscape:window-height="1007"
     id="namedview14"
     showgrid="false"
     inkscape:zoom="19.666667"
     inkscape:cx="25.162987"
     inkscape:cy="27.750968"
     inkscape:window-x="0"
     inkscape:window-y="31"
     inkscape:window-maximized="1"
     inkscape:current-layer="svg2" /><defs
     id="defs19" /><metadata
     id="metadata19"><rdf:RDF><cc:Work
         rdf:about=""><dc:format>image/svg+xml</dc:format><dc:type
           rdf:resource="http://purl.org/dc/dcmitype/StillImage" /><dc:title /><dc:creator><cc:Agent><dc:title>Jakub Stainer</dc:title></cc:Agent></dc:creator><cc:license
           rdf:resource="http://creativecommons.org/licenses/GPL/2.0/" /></cc:Work><cc:License
         rdf:about="http://creativecommons.org/licenses/GPL/2.0/"><cc:permits
           rdf:resource="http://web.resource.org/cc/Reproduction" /><cc:permits
           rdf:resource="http://web.resource.org/cc/Distribution" /><cc:requires
           rdf:resource="http://web.resource.org/cc/Notice" /><cc:permits
           rdf:resource="http://web.resource.org/cc/DerivativeWorks" /><cc:requires
           rdf:resource="http://web.resource.org/cc/ShareAlike" /><cc:requires
           rdf:resource="http://web.resource.org/cc/SourceCode" /></cc:License></rdf:RDF></metadata><rect
     width="48"
     height="48"
     x="0"
     y="0"
     id="rect3319"
     style="fill:none" /><path
     d="M 39,41 H 9 V 6 h 21 l 9,10 v 25 z"
     id="path7"
     style="stroke:#000000;stroke-width:4;stroke-linejoin:round;fill:none" /><g
     transform="translate(0.20338983,2.6440678)"
     id="flowRoot2995"
     style="font-size:4px;font-style:normal;font-weight:normal;line-height:125%;letter-spacing:0px;word-spacing:0px;fill:#000000;fill-opacity:1;stroke:none;font-family:Sans"><g
       id="text2991"
       style="line-height:125%;fill:#000000;font-family:Sans"><path
         d="m 18.599611,33.916714 c -1.239336,0 -2.185335,-0.344666 -2.838,-1.034 -0.645334,-0.689331 -0.968,-1.66833 -0.968,-2.937 0,-0.630662 0.099,-1.191661 0.297,-1.683 0.197999,-0.49866 0.469332,-0.91666 0.814,-1.254 0.344665,-0.344659 0.755331,-0.604992 1.232,-0.781 0.476664,-0.175992 0.993663,-0.263992 1.551,-0.264 0.322662,8e-6 0.615995,0.02567 0.88,0.077 0.263995,0.04401 0.494995,0.09901 0.693,0.165 0.197994,0.05868 0.362994,0.121008 0.495,0.187 0.131994,0.06601 0.227327,0.117341 0.286,0.154 l -0.495,1.386 c -0.234672,-0.12466 -0.509672,-0.230994 -0.825,-0.319 -0.308005,-0.08799 -0.660004,-0.131993 -1.056,-0.132 -0.264004,7e-6 -0.524337,0.04401 -0.781,0.132 -0.249336,0.08801 -0.473003,0.231006 -0.671,0.429 -0.190669,0.190673 -0.344669,0.440006 -0.462,0.748 -0.117335,0.308005 -0.176002,0.682005 -0.176,1.122 -2e-6,0.352004 0.03667,0.682004 0.11,0.99 0.08066,0.30067 0.205331,0.561003 0.374,0.781 0.175997,0.220002 0.40333,0.396002 0.682,0.528 0.278663,0.124668 0.615996,0.187002 1.012,0.187 0.249329,2e-6 0.472995,-0.01467 0.671,-0.044 0.197995,-0.02933 0.373995,-0.06233 0.528,-0.099 0.153994,-0.044 0.289661,-0.09166 0.407,-0.143 0.117327,-0.05133 0.223661,-0.099 0.319,-0.143 l 0.473,1.375 c -0.242006,0.146667 -0.583006,0.278667 -1.023,0.396 -0.440005,0.117334 -0.949671,0.176 -1.529,0.176"
         id="path3094"
         style="font-size:11px;font-variant:normal;font-weight:bold;font-stretch:normal;font-family:Ubuntu;-inkscape-font-specification:Ubuntu Bold" /><path
         d="m 21.915424,29.791714 1.837,0 0,-2.035 1.496,0 0,2.035 1.837,0 0,1.375 -1.837,0 0,2.035 -1.496,0 0,-2.035 -1.837,0 0,-1.375"
         id="path3096"
         style="font-size:11px;font-variant:normal;font-weight:bold;font-stretch:normal;font-family:Ubuntu;-inkscape-font-specification:Ubuntu Bold" /><path
         d="m 28.167377,29.791714 1.837,0 0,-2.035 1.496,0 0,2.035 1.837,0 0,1.375 -1.837,0 0,2.035 -1.496,0 0,-2.035 -1.837,0 0,-1.375"
         id="path3098"
         style="font-size:11px;font-variant:normal;font-weight:bold;font-stretch:normal;font-family:Ubuntu;-inkscape-font-specification:Ubuntu Bold" /></g></g></svg>