<?xml version="1.0" encoding="UTF-8" standalone="no"?>
<!-- Created with Inkscape (http://www.inkscape.org/) -->

<svg
   xmlns:dc="http://purl.org/dc/elements/1.1/"
   xmlns:cc="http://creativecommons.org/ns#"
   xmlns:rdf="http://www.w3.org/1999/02/22-rdf-syntax-ns#"
   xmlns:svg="http://www.w3.org/2000/svg"
   xmlns="http://www.w3.org/2000/svg"
   xmlns:sodipodi="http://sodipodi.sourceforge.net/DTD/sodipodi-0.dtd"
   xmlns:inkscape="http://www.inkscape.org/namespaces/inkscape"
   version="1.1"
   width="48"
   height="48"
   viewBox="0 0 48 48"
   id="svg2"
   xml:space="preserve"
   inkscape:version="0.48.5 r10040"
   sodipodi:docname="application-x-python-bytecode.svg"><sodipodi:namedview
     pagecolor="#ffffff"
     bordercolor="#666666"
     borderopacity="1"
     objecttolerance="10"
     gridtolerance="10"
     guidetolerance="10"
     inkscape:pageopacity="0"
     inkscape:pageshadow="2"
     inkscape:window-width="1920"
     inkscape:window-height="1007"
     id="namedview13"
     showgrid="false"
     inkscape:zoom="4.9166667"
     inkscape:cx="-15.355932"
     inkscape:cy="24"
     inkscape:window-x="0"
     inkscape:window-y="31"
     inkscape:window-maximized="1"
     inkscape:current-layer="svg2" /><defs
     id="defs19" /><metadata
     id="metadata19"><rdf:RDF><cc:Work
         rdf:about=""><dc:format>image/svg+xml</dc:format><dc:type
           rdf:resource="http://purl.org/dc/dcmitype/StillImage" /><dc:title /><dc:creator><cc:Agent><dc:title>Jakub Stainer</dc:title></cc:Agent></dc:creator><cc:license
           rdf:resource="http://creativecommons.org/licenses/GPL/2.0/" /></cc:Work><cc:License
         rdf:about="http://creativecommons.org/licenses/GPL/2.0/"><cc:permits
           rdf:resource="http://web.resource.org/cc/Reproduction" /><cc:permits
           rdf:resource="http://web.resource.org/cc/Distribution" /><cc:requires
           rdf:resource="http://web.resource.org/cc/Notice" /><cc:permits
           rdf:resource="http://web.resource.org/cc/DerivativeWorks" /><cc:requires
           rdf:resource="http://web.resource.org/cc/ShareAlike" /><cc:requires
           rdf:resource="http://web.resource.org/cc/SourceCode" /></cc:License></rdf:RDF></metadata><path
     d="M 39,41 H 9 V 6 h 21 l 9,10 v 25 z"
     id="path7"
     style="stroke:#000000;stroke-width:4;stroke-linejoin:round;fill:none" /><g
     transform="translate(0.20338983,2.6440678)"
     id="flowRoot2995"
     style="font-size:4px;font-style:normal;font-weight:normal;line-height:125%;letter-spacing:0px;word-spacing:0px;fill:#000000;fill-opacity:1;stroke:none;font-family:Sans"><g
       id="text2991"
       style="fill:#000000;font-family:Sans;fill-opacity:1"><path
         d="m 20.91161,26.051714 c 1.136663,8e-6 2.009329,0.201675 2.618,0.605 0.608661,0.396007 0.912994,1.048673 0.913,1.958 -6e-6,0.916671 -0.308006,1.580337 -0.924,1.991 -0.616005,0.403336 -1.496004,0.605003 -2.64,0.605 l -0.539,0 0,2.552 -1.716,0 0,-7.513 c 0.373999,-0.07333 0.769999,-0.124659 1.188,-0.154 0.417998,-0.02933 0.784664,-0.04399 1.1,-0.044 m 0.11,1.463 c -0.124669,7e-6 -0.249336,0.0037 -0.374,0.011 -0.117336,0.0073 -0.220002,0.01467 -0.308,0.022 l 0,2.2 0.539,0 c 0.593997,4e-6 1.04133,-0.08066 1.342,-0.242 0.300662,-0.161329 0.450995,-0.461995 0.451,-0.902 -5e-6,-0.212661 -0.04034,-0.388661 -0.121,-0.528 -0.07334,-0.139327 -0.183338,-0.249327 -0.33,-0.33 -0.139337,-0.08799 -0.31167,-0.14666 -0.517,-0.176 -0.205337,-0.03666 -0.43267,-0.05499 -0.682,-0.055"
         id="path3048"
         style="font-size:11px;font-variant:normal;font-weight:bold;font-stretch:normal;font-family:Ubuntu;-inkscape-font-specification:Ubuntu Bold;fill:#000000;fill-opacity:1" /><path
         d="m 30.955298,27.976714 c -0.330006,1.114672 -0.674672,2.159671 -1.034,3.135 -0.359338,0.975335 -0.751671,1.921334 -1.177,2.838 -0.154004,0.33 -0.308004,0.608666 -0.462,0.836 -0.154003,0.234666 -0.32267,0.425332 -0.506,0.572 -0.183336,0.153999 -0.392336,0.263999 -0.627,0.33 -0.227335,0.07333 -0.495002,0.109998 -0.803,0.11 -0.256668,-2e-6 -0.495001,-0.02567 -0.715,-0.077 -0.212667,-0.044 -0.388667,-0.09533 -0.528,-0.154 l 0.286,-1.309 c 0.168666,0.05867 0.318999,0.099 0.451,0.121 0.131999,0.022 0.271332,0.033 0.418,0.033 0.293332,0 0.516998,-0.08067 0.671,-0.242 0.161331,-0.154 0.296998,-0.370333 0.407,-0.649 -0.374002,-0.733332 -0.748002,-1.554664 -1.122,-2.464 -0.374001,-0.916663 -0.726001,-1.943328 -1.056,-3.08 l 1.738,0 c 0.07333,0.286006 0.157665,0.597672 0.253,0.935 0.102664,0.330005 0.208998,0.667338 0.319,1.012 0.109997,0.337337 0.219997,0.667337 0.33,0.99 0.11733,0.32267 0.22733,0.616003 0.33,0.88 0.09533,-0.263997 0.19433,-0.55733 0.297,-0.88 0.102663,-0.322663 0.201663,-0.652663 0.297,-0.99 0.102663,-0.344662 0.197996,-0.681995 0.286,-1.012 0.09533,-0.337328 0.179662,-0.648994 0.253,-0.935 l 1.694,0"
         id="path3050"
         style="font-size:11px;font-variant:normal;font-weight:bold;font-stretch:normal;font-family:Ubuntu;-inkscape-font-specification:Ubuntu Bold;fill:#000000;fill-opacity:1" /></g></g></svg>