<?xml version="1.0" encoding="UTF-8" standalone="no"?>
<!-- Created with Inkscape (http://www.inkscape.org/) -->

<svg
   xmlns:dc="http://purl.org/dc/elements/1.1/"
   xmlns:cc="http://creativecommons.org/ns#"
   xmlns:rdf="http://www.w3.org/1999/02/22-rdf-syntax-ns#"
   xmlns:svg="http://www.w3.org/2000/svg"
   xmlns="http://www.w3.org/2000/svg"
   xmlns:sodipodi="http://sodipodi.sourceforge.net/DTD/sodipodi-0.dtd"
   xmlns:inkscape="http://www.inkscape.org/namespaces/inkscape"
   version="1.1"
   width="48"
   height="48"
   viewBox="0 0 48 48"
   id="svg2"
   xml:space="preserve"
   inkscape:version="0.48.5 r10040"
   sodipodi:docname="application-x-perl.svg"><sodipodi:namedview
     pagecolor="#ffffff"
     bordercolor="#666666"
     borderopacity="1"
     objecttolerance="10"
     gridtolerance="10"
     guidetolerance="10"
     inkscape:pageopacity="0"
     inkscape:pageshadow="2"
     inkscape:window-width="1920"
     inkscape:window-height="1007"
     id="namedview15"
     showgrid="false"
     inkscape:zoom="4.9166667"
     inkscape:cx="-15.355932"
     inkscape:cy="24"
     inkscape:window-x="0"
     inkscape:window-y="31"
     inkscape:window-maximized="1"
     inkscape:current-layer="svg2" /><defs
     id="defs19" /><metadata
     id="metadata19"><rdf:RDF><cc:Work
         rdf:about=""><dc:format>image/svg+xml</dc:format><dc:type
           rdf:resource="http://purl.org/dc/dcmitype/StillImage" /><dc:title /><dc:creator><cc:Agent><dc:title>Jakub Stainer</dc:title></cc:Agent></dc:creator><cc:license
           rdf:resource="http://creativecommons.org/licenses/GPL/2.0/" /></cc:Work><cc:License
         rdf:about="http://creativecommons.org/licenses/GPL/2.0/"><cc:permits
           rdf:resource="http://web.resource.org/cc/Reproduction" /><cc:permits
           rdf:resource="http://web.resource.org/cc/Distribution" /><cc:requires
           rdf:resource="http://web.resource.org/cc/Notice" /><cc:permits
           rdf:resource="http://web.resource.org/cc/DerivativeWorks" /><cc:requires
           rdf:resource="http://web.resource.org/cc/ShareAlike" /><cc:requires
           rdf:resource="http://web.resource.org/cc/SourceCode" /></cc:License></rdf:RDF></metadata><path
     d="M 39,41 H 9 V 6 h 21 l 9,10 v 25 z"
     id="path7"
     style="stroke:#000000;stroke-width:4;stroke-linejoin:round;fill:none" /><g
     transform="translate(0.20338983,2.6440678)"
     id="flowRoot2995"
     style="font-size:4px;font-style:normal;font-weight:normal;line-height:125%;letter-spacing:0px;word-spacing:0px;fill:#000000;fill-opacity:1;stroke:none;font-family:Sans"><g
       transform="scale(0.92328269,1.0830919)"
       id="text2991"
       style="font-size:3.69313073000000003px;fill:#000000;font-family:Sans;fill-opacity:1"><path
         d="m 16.109929,24.053096 c 1.04946,7e-6 1.855178,0.186203 2.417154,0.558586 0.561965,0.365626 0.842951,0.968222 0.842957,1.807788 -6e-6,0.846346 -0.284377,1.459098 -0.853113,1.838256 -0.568747,0.372393 -1.381235,0.558588 -2.437467,0.558586 l -0.497649,0 0,2.356217 -1.584353,0 0,-6.936623 c 0.345306,-0.0677 0.710926,-0.115095 1.09686,-0.142185 0.385929,-0.02708 0.724466,-0.04062 1.015611,-0.04062 m 0.101561,1.350763 c -0.115106,6e-6 -0.230208,0.0034 -0.345308,0.01016 -0.108334,0.0068 -0.203125,0.01355 -0.284371,0.02031 l 0,2.031222 0.497649,0 c 0.548427,4e-6 0.961441,-0.07447 1.239046,-0.223434 0.277596,-0.148952 0.416396,-0.426553 0.4164,-0.832801 -4e-6,-0.196347 -0.03724,-0.358844 -0.111717,-0.487494 -0.06771,-0.128638 -0.169273,-0.230199 -0.304683,-0.304683 -0.128648,-0.08124 -0.287761,-0.135409 -0.477338,-0.162498 -0.189584,-0.03385 -0.399476,-0.05077 -0.629678,-0.05078"
         id="path3020"
         style="font-size:10.15610981000000024px;font-variant:normal;font-weight:bold;font-stretch:normal;font-family:Ubuntu;-inkscape-font-specification:Ubuntu Bold;fill:#000000;fill-opacity:1" /><path
         d="m 20.543388,31.172529 0,-7.038184 4.75306,0 0,1.330451 -3.168707,0 0,1.38123 2.813243,0 0,1.299982 -2.813243,0 0,1.696071 3.402297,0 0,1.33045 -4.98665,0"
         id="path3022"
         style="font-size:10.15610981000000024px;font-variant:normal;font-weight:bold;font-stretch:normal;font-family:Ubuntu;-inkscape-font-specification:Ubuntu Bold;fill:#000000;fill-opacity:1" /><path
         d="m 28.754285,24.053096 c 1.056232,7e-6 1.865334,0.189588 2.42731,0.568742 0.561966,0.372397 0.842951,0.95468 0.842957,1.746851 -6e-6,0.494269 -0.115108,0.897127 -0.345307,1.208577 -0.22344,0.304687 -0.548436,0.545048 -0.974987,0.721084 0.142181,0.176042 0.291137,0.379164 0.446869,0.609367 0.155722,0.223436 0.308063,0.460412 0.457025,0.710927 0.155721,0.243748 0.304677,0.501036 0.446869,0.771865 0.142179,0.264059 0.274208,0.524732 0.396088,0.78202 l -1.777319,0 c -0.128649,-0.230205 -0.260678,-0.463795 -0.396088,-0.700771 -0.128649,-0.236975 -0.264063,-0.46718 -0.406245,-0.690616 -0.135419,-0.223433 -0.270833,-0.433325 -0.406244,-0.629679 -0.135419,-0.20312 -0.270833,-0.385929 -0.406245,-0.54843 l -0.78202,0 0,2.569496 -1.584353,0 0,-6.936623 c 0.345306,-0.0677 0.70077,-0.115095 1.066391,-0.142185 0.372389,-0.02708 0.704155,-0.04062 0.995299,-0.04062 m 0.09141,1.350763 c -0.115105,6e-6 -0.220052,0.0034 -0.314839,0.01016 -0.08802,0.0068 -0.172657,0.01355 -0.253903,0.02031 l 0,1.909349 0.446869,0 c 0.595821,4e-6 1.022378,-0.07447 1.27967,-0.223435 0.257283,-0.148952 0.385927,-0.402854 0.385932,-0.761708 -5e-6,-0.345302 -0.132034,-0.589049 -0.396089,-0.73124 -0.257292,-0.14895 -0.639838,-0.223428 -1.14764,-0.223434"
         id="path3024"
         style="font-size:10.15610981000000024px;font-variant:normal;font-weight:bold;font-stretch:normal;font-family:Ubuntu;-inkscape-font-specification:Ubuntu Bold;fill:#000000;fill-opacity:1" /><path
         d="m 38.178838,29.811611 0,1.360918 -4.702279,0 0,-7.038184 1.584353,0 0,5.677266 3.117926,0"
         id="path3026"
         style="font-size:10.15610981000000024px;font-variant:normal;font-weight:bold;font-stretch:normal;font-family:Ubuntu;-inkscape-font-specification:Ubuntu Bold;fill:#000000;fill-opacity:1" /></g></g></svg>