<?xml version="1.0" encoding="UTF-8" standalone="no"?>
<!-- Created with Inkscape (http://www.inkscape.org/) -->

<svg
   xmlns:dc="http://purl.org/dc/elements/1.1/"
   xmlns:cc="http://creativecommons.org/ns#"
   xmlns:rdf="http://www.w3.org/1999/02/22-rdf-syntax-ns#"
   xmlns:svg="http://www.w3.org/2000/svg"
   xmlns="http://www.w3.org/2000/svg"
   xmlns:sodipodi="http://sodipodi.sourceforge.net/DTD/sodipodi-0.dtd"
   xmlns:inkscape="http://www.inkscape.org/namespaces/inkscape"
   version="1.1"
   width="48"
   height="48"
   viewBox="0 0 48 48"
   id="svg2"
   xml:space="preserve"
   inkscape:version="0.48.5 r10040"
   sodipodi:docname="unknown.svg"><sodipodi:namedview
     pagecolor="#ffffff"
     bordercolor="#666666"
     borderopacity="1"
     objecttolerance="10"
     gridtolerance="10"
     guidetolerance="10"
     inkscape:pageopacity="0"
     inkscape:pageshadow="2"
     inkscape:window-width="1920"
     inkscape:window-height="1007"
     id="namedview11"
     showgrid="false"
     inkscape:zoom="13.906433"
     inkscape:cx="58.610223"
     inkscape:cy="43.513325"
     inkscape:window-x="0"
     inkscape:window-y="31"
     inkscape:window-maximized="1"
     inkscape:current-layer="svg2" /><defs
     id="defs11" /><metadata
     id="metadata19"><rdf:RDF><cc:Work
         rdf:about=""><dc:format>image/svg+xml</dc:format><dc:type
           rdf:resource="http://purl.org/dc/dcmitype/StillImage" /><dc:title /><dc:creator><cc:Agent><dc:title>Jakub Stainer</dc:title></cc:Agent></dc:creator><cc:license
           rdf:resource="http://creativecommons.org/licenses/GPL/2.0/" /></cc:Work><cc:License
         rdf:about="http://creativecommons.org/licenses/GPL/2.0/"><cc:permits
           rdf:resource="http://web.resource.org/cc/Reproduction" /><cc:permits
           rdf:resource="http://web.resource.org/cc/Distribution" /><cc:requires
           rdf:resource="http://web.resource.org/cc/Notice" /><cc:permits
           rdf:resource="http://web.resource.org/cc/DerivativeWorks" /><cc:requires
           rdf:resource="http://web.resource.org/cc/ShareAlike" /><cc:requires
           rdf:resource="http://web.resource.org/cc/SourceCode" /></cc:License></rdf:RDF></metadata><path
     d="M 39,41 H 9 V 6 h 21 l 9,10 v 25 z"
     id="path7"
     style="stroke:#000000;stroke-width:4;stroke-linejoin:round;fill:none" /><g
     id="text2987"
     style="font-size:4px;font-style:normal;font-weight:normal;line-height:125%;letter-spacing:0px;word-spacing:0px;fill:#000000;fill-opacity:1;stroke:none;font-family:Sans"><path
       d="m 23.526304,19.29722 c -0.672005,1.6e-5 -1.306671,0.08402 -1.904,0.252 -0.597336,0.168016 -1.260002,0.438682 -1.988,0.812 l -1.176,-3.164 c 0.727999,-0.466648 1.586665,-0.821314 2.576,-1.064 0.989329,-0.261314 1.959995,-0.39198 2.912,-0.392 1.194659,2e-5 2.174658,0.158686 2.94,0.476 0.78399,0.317352 1.39999,0.718685 1.848,1.204 0.447989,0.485351 0.755988,1.01735 0.924,1.596 0.186655,0.578682 0.279988,1.129349 0.28,1.652 -1.2e-5,0.522681 -0.08401,1.008014 -0.252,1.456 -0.149345,0.429346 -0.345345,0.830679 -0.588,1.204 -0.242678,0.373345 -0.522677,0.728011 -0.84,1.064 -0.317343,0.336011 -0.625343,0.653344 -0.924,0.952 -0.224009,0.22401 -0.457342,0.466676 -0.7,0.728 -0.242675,0.242676 -0.466675,0.504009 -0.672,0.784 -0.186675,0.280008 -0.345341,0.578675 -0.476,0.896 -0.130674,0.298674 -0.196007,0.606674 -0.196,0.924 -7e-6,0.07467 -7e-6,0.186673 0,0.336 -7e-6,0.14934 0.0093,0.280006 0.028,0.392 l -3.696,0 c -0.03734,-0.186661 -0.06534,-0.391994 -0.084,-0.616 -4e-6,-0.24266 -4e-6,-0.447993 0,-0.616 -4e-6,-0.522659 0.06533,-0.989325 0.196,-1.4 0.130663,-0.429324 0.298663,-0.821324 0.504,-1.176 0.223995,-0.373323 0.475995,-0.718656 0.756,-1.036 0.279995,-0.317322 0.569328,-0.625322 0.868,-0.924 0.429327,-0.429321 0.821327,-0.849321 1.176,-1.26 0.354659,-0.42932 0.531992,-0.914653 0.532,-1.456 -8e-6,-0.447985 -0.177341,-0.830651 -0.532,-1.148 -0.336007,-0.317317 -0.840006,-0.475984 -1.512,-0.476 m 2.604,14.084 c -8e-6,0.821334 -0.270675,1.456001 -0.812,1.904 -0.522674,0.448 -1.120006,0.671999 -1.792,0.672 -0.672005,-10e-7 -1.278671,-0.224 -1.82,-0.672 -0.52267,-0.447999 -0.784003,-1.082666 -0.784,-1.904 -3e-6,-0.821331 0.26133,-1.455997 0.784,-1.904 0.541329,-0.447996 1.147995,-0.671995 1.82,-0.672 0.671994,5e-6 1.269326,0.224004 1.792,0.672 0.541325,0.448003 0.811992,1.082669 0.812,1.904"
       id="path2990"
       style="font-size:28px;font-variant:normal;font-weight:bold;font-stretch:normal;font-family:Ubuntu;-inkscape-font-specification:Ubuntu Bold" /></g></svg>