<?xml version="1.0" encoding="UTF-8" standalone="no"?>
<!-- Created with Inkscape (http://www.inkscape.org/) -->

<svg
   xmlns:dc="http://purl.org/dc/elements/1.1/"
   xmlns:cc="http://creativecommons.org/ns#"
   xmlns:rdf="http://www.w3.org/1999/02/22-rdf-syntax-ns#"
   xmlns:svg="http://www.w3.org/2000/svg"
   xmlns="http://www.w3.org/2000/svg"
   xmlns:sodipodi="http://sodipodi.sourceforge.net/DTD/sodipodi-0.dtd"
   xmlns:inkscape="http://www.inkscape.org/namespaces/inkscape"
   id="svg2"
   version="1.1"
   inkscape:version="0.48.5 r10040"
   width="650"
   height="650"
   sodipodi:docname="applications-development.svg">
  <metadata
     id="metadata8">
    <rdf:RDF>
      <cc:Work
         rdf:about="">
        <dc:format>image/svg+xml</dc:format>
        <dc:type
           rdf:resource="http://purl.org/dc/dcmitype/StillImage" />
        <dc:title />
      </cc:Work>
    </rdf:RDF>
  </metadata>
  <defs
     id="defs6" />
  <sodipodi:namedview
     pagecolor="#ffffff"
     bordercolor="#666666"
     borderopacity="1"
     objecttolerance="10"
     gridtolerance="10"
     guidetolerance="10"
     inkscape:pageopacity="0"
     inkscape:pageshadow="2"
     inkscape:window-width="1920"
     inkscape:window-height="1007"
     id="namedview4"
     showgrid="false"
     inkscape:zoom="0.36307692"
     inkscape:cx="-196.78549"
     inkscape:cy="602.21108"
     inkscape:window-x="0"
     inkscape:window-y="31"
     inkscape:window-maximized="1"
     inkscape:current-layer="svg2"
     showguides="true"
     inkscape:snap-global="true">
    <inkscape:grid
       type="xygrid"
       id="grid4485" />
  </sodipodi:namedview>
  <path
     sodipodi:type="arc"
     style="fill:none;fill-opacity:1;fill-rule:nonzero;stroke:#000000;stroke-width:48.77095795000000322;stroke-linecap:round;stroke-linejoin:miter;stroke-miterlimit:0;stroke-opacity:1;stroke-dasharray:none;opacity:1"
     id="path3005"
     sodipodi:cx="999.78815"
     sodipodi:cy="425.52966"
     sodipodi:rx="294.7034"
     sodipodi:ry="293.32626"
     d="m 1294.4915,425.52966 a 294.7034,293.32626 0 1 1 -589.40675,0 294.7034,293.32626 0 1 1 589.40675,0 z"
     transform="matrix(0.95343283,0,0,0.95343957,-627.95433,-80.928059)" />
  <path
     inkscape:connector-curvature="0"
     id="path2990"
     d="m 218.94891,456.35266 c 14.77,-9.78707 27.0609,-18.50321 27.313,-19.36919 0.2521,-0.86598 1.1486,-5.23834 1.9923,-9.71633 l 1.534,-8.14183 22.491,-22.63918 c 12.37,-12.45156 22.491,-23.23141 22.491,-23.95525 0,-1.75978 -15.417,-17.18317 -17.1761,-17.18317 -0.7605,0 -11.3426,9.96625 -23.5158,22.14721 l -22.1331,22.14722 -6.8083,1.45781 c -15.0124,3.21449 -11.607,-0.0373 -31.4448,30.02571 -9.7319,14.74821 -17.8949,27.5815 -18.1399,28.51844 -0.6341,2.42459 12.1904,15.35878 14.7328,14.85893 0.9951,-0.19563 13.8939,-8.36331 28.6639,-18.15037 z m 225.90813,16.69451 c 11.0602,-3.44233 20.6162,-11.86113 25.7799,-22.71155 2.6671,-5.60441 2.7984,-6.41277 2.7984,-17.2352 0,-11.35298 -8e-4,-11.3563 -3.5129,-18.54526 -3.4446,-7.05079 -4.9571,-8.63792 -77.9729,-81.82363 l -74.46033,-74.63335 0.036,-10.85576 c 0.022,-6.72763 -0.4941,-13.11638 -1.358,-16.80053 -6.4264,-27.40561 -26.6578,-47.42294 -54.4161,-53.84007 -12.7117,-2.9387 -40.0311,0.15247 -41.7869,4.72819 -0.3654,0.95202 6.099,8.03574 20.7985,22.79114 11.7307,11.77535 21.7608,22.55575 22.2893,23.95643 1.2244,3.24561 1.2282,7.94021 0.01,11.14726 -1.2856,3.3812 -19.4675,21.76726 -23.6634,23.92899 -3.7519,1.933 -8.8688,2.24458 -11.8557,0.72193 -1.0868,-0.55401 -11.3588,-10.32419 -22.8267,-21.71152 -11.468,-11.38734 -21.5535,-20.70425 -22.4122,-20.70425 -1.8972,0 -3.0693,2.86046 -4.7586,11.61382 -3.4579,17.91715 0.4132,36.39474 10.9391,52.21448 13.2313,19.88564 34.736,31.1596 59.4358,31.1596 l 8.4081,0 74.6303,74.66401 c 41.04653,41.06519 76.56873,75.91705 78.93793,77.44855 9.4948,6.13738 23.7714,7.96954 34.9615,4.48672 z m -18.915,-20.4784 c -14.2739,-6.43911 -16.2002,-25.84358 -3.421,-34.46159 5.221,-3.52091 10.6173,-4.42771 16.2538,-2.73131 6.1727,1.85775 9.366,4.52607 12.0971,10.10837 4.5626,9.3256 1.7747,19.71194 -6.8175,25.39794 -4.5685,3.02342 -13.3387,3.84008 -18.1124,1.68659 z m 2.9136,-181.12705 c 47.1746,-47.25982 45.4843,-44.99826 45.4843,-60.85651 0,-8.90463 -0.1889,-9.90153 -2.9323,-15.47397 -6.9081,-14.03291 -21.6699,-21.79197 -37.3734,-19.64434 -11.5261,1.57632 -12.3121,2.21537 -55.3557,45.00724 -21.7658,21.63849 -39.82173,40.12263 -40.12423,41.07588 -0.6947,2.18887 9.0406,12.37948 11.82643,12.37948 1.2216,0 15.2382,-13.40622 41.6414,-39.82783 40.7337,-40.76211 42.9498,-42.64549 43.725,-37.16098 0.2557,1.80852 -6.3034,8.78382 -39.5778,42.08975 -21.9361,21.9571 -39.8841,40.51175 -39.8841,41.23257 0,1.47448 11.6582,13.56872 13.0795,13.56872 0.5036,0 19.0474,-18.11555 41.2086,-40.25679 22.1612,-22.14123 40.7621,-40.25677 41.3357,-40.25677 1.3604,0 3.886,2.54329 3.886,3.91327 0,0.58853 -17.7335,18.77679 -39.4075,40.41832 -21.6741,21.64153 -39.8105,40.07368 -40.3035,40.96035 -0.7344,1.32108 0.1182,2.66851 4.7223,7.46336 3.0902,3.21815 6.0734,5.8512 6.6289,5.8512 0.5559,0 19.195,-18.21733 41.4204,-40.48295 z"
     style="fill:#000000;fill-opacity:1;stroke:none;stroke-opacity:1"
     sodipodi:nodetypes="ssscsssscssccscssssccsscsccssssssscscccsssscssscsscsscssssssscsss" />
</svg>
