<?xml version="1.0" encoding="UTF-8" standalone="no"?>
<svg
   xmlns:dc="http://purl.org/dc/elements/1.1/"
   xmlns:cc="http://creativecommons.org/ns#"
   xmlns:rdf="http://www.w3.org/1999/02/22-rdf-syntax-ns#"
   xmlns:svg="http://www.w3.org/2000/svg"
   xmlns="http://www.w3.org/2000/svg"
   xmlns:sodipodi="http://sodipodi.sourceforge.net/DTD/sodipodi-0.dtd"
   xmlns:inkscape="http://www.inkscape.org/namespaces/inkscape"
   width="388.32"
   height="388.33"
   id="svg2"
   version="1.1"
   inkscape:version="0.48.5 r10040"
   sodipodi:docname="system-help.svg">
  <metadata
     id="metadata22">
    <rdf:RDF>
      <cc:Work
         rdf:about="">
        <dc:format>image/svg+xml</dc:format>
        <dc:type
           rdf:resource="http://purl.org/dc/dcmitype/StillImage" />
      </cc:Work>
    </rdf:RDF>
  </metadata>
  <sodipodi:namedview
     pagecolor="#ffffff"
     bordercolor="#666666"
     borderopacity="1"
     objecttolerance="10"
     gridtolerance="10"
     guidetolerance="10"
     inkscape:pageopacity="0"
     inkscape:pageshadow="2"
     inkscape:window-width="1920"
     inkscape:window-height="1007"
     id="namedview20"
     showgrid="false"
     inkscape:zoom="1.2154611"
     inkscape:cx="62.083208"
     inkscape:cy="215.51796"
     inkscape:window-x="0"
     inkscape:window-y="31"
     inkscape:window-maximized="1"
     inkscape:current-layer="svg2" />
  <defs
     id="defs4">
    <radialGradient
       id="radialGradient4299"
       gradientUnits="userSpaceOnUse"
       cy="414.61"
       cx="373.5"
       gradientTransform="matrix(4.5672,0,0,4.5906,-1331.4773,-1487.3545)"
       r="46.669">
      <stop
         id="stop3802"
         stop-color="#fff"
         stop-opacity="0"
         offset="0" />
      <stop
         id="stop3804"
         stop-color="#f3caca"
         stop-opacity=".184"
         offset="1" />
    </radialGradient>
  </defs>
  <path
     id="path6932"
     d="m 359.89273,192.77547 c -0.22958,-93.813004 -73.906,-169.760004 -164.5,-169.520004 -90.593,0.23775 -163.939996,76.574 -163.709996,170.390004 0.22959,93.813 73.944996,169.76 164.539996,169.53 90.592,-0.23776 163.9,-76.574 163.67,-170.39 z m -85.298,0.2238 c 0.11023,45.038 -35.094,81.678 -78.585,81.792 -43.491,0.11414 -78.912,-36.34 -79.022,-81.379 -0.11021,-45.037 35.132,-81.677 78.623,-81.791 43.491,-0.11414 78.874,36.34 78.984,81.378 z"
     inkscape:connector-curvature="0"
     style="fill:none;stroke-linecap:round;stroke-dashoffset:50;stroke-opacity:1;fill-opacity:1;stroke:#000000;stroke-width:4;stroke-miterlimit:4;stroke-dasharray:none" />
  <g
     id="g3372"
     style="fill:#000000;fill-opacity:1">
    <path
       inkscape:connector-curvature="0"
       id="path3370"
       d="m 121.63532,227.76302 c 0.72223,-2.25269 0.69931,-4.75749 -0.0632,-6.9904 -0.68101,-2.00395 -1.27371,-4.04127 -1.7928,-6.08324 -0.5406,-2.12614 -0.99659,-4.30181 -1.37171,-6.5063 -0.37431,-2.19916 -0.64768,-4.38254 -0.84677,-6.62259 -0.1991,-2.23464 -0.32024,-4.5269 -0.33967,-6.79072 -0.0188,-2.26829 0.0429,-4.49304 0.20903,-6.77007 0.16829,-2.31014 0.44261,-4.62237 0.79292,-6.8569 0.35324,-2.25432 0.79931,-4.49808 1.35876,-6.78615 0.56303,-2.30329 1.2086,-4.59878 1.9479,-6.7853 1.61701,-4.78088 -0.25995,-10.25173 -4.19188,-12.21726 l -65.206646,-32.6066 c -3.931855,-1.9661 -8.430435,0.31614 -10.047677,5.09705 -1.247319,3.68629 -2.137086,7.19599 -3.025243,10.38011 -0.379425,1.35884 -1.014891,3.19485 -1.605024,5.56536 -0.8611,3.46569 -1.442161,6.67357 -2.011393,9.53761 -0.38703,1.94631 -0.9514,4.32121 -1.408802,7.13998 -0.546824,3.36535 -0.817446,6.40921 -1.132963,9.09144 -0.262647,2.2468 -0.654894,4.87463 -0.890261,7.862 -0.23396,2.93897 -0.275632,5.57022 -0.372482,7.86933 -0.114907,2.82039 -0.307958,5.95896 -0.294929,9.38346 0.0068,2.64723 0.206646,4.79856 0.263974,6.49992 -0.0034,0.0126 -0.0077,0.0242 -0.01173,0.0368 0.113589,3.25049 0.185747,6.78406 0.511111,10.58835 0.226539,2.67244 0.586753,4.82339 0.782474,6.50544 0.351662,2.99537 0.679026,6.34997 1.279462,9.95981 0.505696,3.0469 1.138723,5.69299 1.621544,8.02261 0.531933,2.56318 1.044044,5.49986 1.84903,8.68464 0.556964,2.20136 1.15702,3.8643 1.502742,5.09553 0.957226,3.40635 1.932594,7.06524 3.231576,10.85175 0.784759,2.29731 2.284397,4.13664 4.176993,5.0828 1.892598,0.94611 4.022478,0.92255 5.909646,-0.0397 l 64.976684,-32.96035 c 1.92611,-0.9821 3.44229,-2.87183 4.19966,-5.23836 z"
       style="fill:#000000;stroke-width:15;stroke-linecap:round;stroke-linejoin:round;stroke-dashoffset:50;fill-opacity:1" />
    <path
       inkscape:connector-curvature="0"
       id="path3368"
       d="m 349.25639,259.28636 c 15.0976,-44.33131 13.84177,-92.00408 -0.33337,-133.05094 -1.65067,-4.76016 -6.18026,-7.01019 -10.12648,-5.02879 l -65.03692,32.73308 c -1.90102,0.96136 -3.4019,2.79016 -4.17952,5.09411 -0.77832,2.30385 -0.76991,4.89375 0.0322,7.18572 0.0507,0.1449 0.0581,0.0983 0.1006,0.21818 0.18428,0.53409 0.22379,0.63873 0.26337,0.76398 0.017,0.0447 0.0718,0.28278 0.0755,0.28995 0.55461,1.70346 1.06117,3.46158 1.52395,5.26917 0.55783,2.17986 1.02439,4.31427 1.3937,6.47054 0.36867,2.14991 0.66557,4.39063 0.86987,6.67357 0.20049,2.23463 0.3053,4.47582 0.32415,6.73974 0.0196,2.26839 -0.0551,4.52889 -0.22231,6.80583 -0.17162,2.33525 -0.40634,4.6178 -0.7562,6.83617 -0.35276,2.23635 -0.81516,4.52499 -1.38067,6.82114 -0.56842,2.31128 -1.23413,4.54867 -1.97931,6.73509 -1.62751,4.78088 0.26181,10.25078 4.22103,12.21726 l 65.09238,32.32419 c 3.95951,1.96609 8.48902,-0.31614 10.11752,-5.09705 z"
       style="fill:#000000;stroke-width:15;stroke-linecap:round;stroke-linejoin:round;stroke-dashoffset:50;fill-opacity:1" />
    <path
       inkscape:connector-curvature="0"
       id="path3366"
       d="m 265.18589,347.46328 c 0.87479,-1.95785 0.85908,-4.14465 -0.0467,-6.09225 l -31.62434,-67.70986 c -1.92455,-4.10594 -7.20712,-6.04672 -11.80932,-4.33765 -1.9351,0.71427 -3.90253,1.33516 -5.87442,1.87962 -2.10417,0.58102 -4.16612,1.06694 -6.24747,1.4517 -2.07697,0.38398 -4.22611,0.66308 -6.43079,0.87583 -2.15799,0.20804 -4.33595,0.34817 -6.52294,0.36856 -2.18965,0.0197 -4.37255,-0.0581 -6.57229,-0.23154 -2.25508,-0.17875 -4.45919,-0.42406 -6.60063,-0.7884 -2.16046,-0.36746 -4.35591,-0.88001 -6.57314,-1.46827 -1.98103,-0.52621 -3.97527,-1.14889 -5.98102,-1.86977 -0.19481,-0.0775 -0.29964,-0.14376 -0.82164,-0.33877 -2.21971,-0.82457 -4.70423,-0.81977 -6.92441,0.004 -2.22104,0.82228 -3.99457,2.39522 -4.90821,4.38096 l -31.3723,68.14133 c -1.89858,4.12382 0.30528,8.84196 4.92208,10.53818 5.11018,1.87706 10.2565,3.46673 15.39805,4.85634 3.27835,0.88477 6.2739,1.46352 8.91751,2.0384 2.05777,0.44724 4.46709,1.04357 7.23669,1.53087 3.10357,0.54684 5.9271,0.84244 8.4221,1.16592 2.29254,0.29453 4.89156,0.6965 7.83081,0.94859 3.08636,0.26724 5.92653,0.31719 8.47962,0.42268 0.0112,0.005 0.0234,0.009 0.0346,0.013 2.32659,0.092 4.97686,0.2838 7.97764,0.27472 2.83561,-0.005 5.32061,-0.17504 7.49448,-0.26648 2.7601,-0.11902 5.81166,-0.22096 9.07718,-0.5211 2.58761,-0.23607 4.83688,-0.59262 6.73784,-0.83564 2.92109,-0.3766 6.12413,-0.74461 9.54806,-1.36722 2.56887,-0.46542 4.64281,-1.0124 6.33846,-1.38158 2.92813,-0.64005 6.15979,-1.29004 9.57849,-2.22936 2.12661,-0.58414 3.73165,-1.21268 4.92056,-1.57539 3.28938,-1.00468 6.82267,-2.02767 10.479,-3.39013 2.24956,-0.8417 4.02291,-2.46016 4.91752,-4.48676 z"
       style="fill:#000000;stroke-width:15;stroke-linecap:round;stroke-linejoin:round;stroke-dashoffset:50;fill-opacity:1" />
    <path
       inkscape:connector-curvature="0"
       id="path3421"
       d="m 264.44494,44.719881 c 1.89858,-4.151723 -0.30532,-8.901091 -4.92208,-10.608647 -42.8127,-15.832053 -88.85278,-14.569551 -128.50561,0.305279 -2.21847,0.828677 -3.99458,2.412047 -4.9083,4.410335 -0.91364,1.998204 -0.89087,4.24676 0.0375,6.239433 l 31.82972,68.604469 c 0.92836,1.99334 2.69439,3.56704 4.91923,4.38242 2.22483,0.81611 4.72582,0.80731 6.93905,-0.0337 0.0389,-0.0149 0.10454,-0.0391 0.19698,-0.0735 1.94974,-0.73231 4.00019,-1.36844 6.10596,-1.95329 2.10418,-0.5857 4.16622,-1.07408 6.24747,-1.46142 2.14534,-0.39992 4.31512,-0.7058 6.44449,-0.91282 2.08363,-0.20227 4.27984,-0.30603 6.54385,-0.32673 2.26744,-0.0207 4.43133,0.0195 6.55138,0.1888 2.17634,0.17312 4.40051,0.45733 6.62154,0.83718 2.16047,0.36989 4.32131,0.87353 6.53854,1.46571 2.03988,0.54514 4.14405,1.21379 6.22435,1.9727 4.61152,1.68468 9.87042,-0.30013 11.76368,-4.43907 l 31.37234,-68.597056 z"
       style="fill:#000000;stroke-width:15;stroke-linecap:round;stroke-linejoin:round;stroke-dashoffset:50;fill-opacity:1" />
  </g>
</svg>
