<?xml version="1.0" encoding="UTF-8" standalone="no"?>
<svg
   xmlns:osb="http://www.openswatchbook.org/uri/2009/osb"
   xmlns:dc="http://purl.org/dc/elements/1.1/"
   xmlns:cc="http://creativecommons.org/ns#"
   xmlns:rdf="http://www.w3.org/1999/02/22-rdf-syntax-ns#"
   xmlns:svg="http://www.w3.org/2000/svg"
   xmlns="http://www.w3.org/2000/svg"
   xmlns:sodipodi="http://sodipodi.sourceforge.net/DTD/sodipodi-0.dtd"
   xmlns:inkscape="http://www.inkscape.org/namespaces/inkscape"
   height="16"
   version="1.1"
   width="16"
   enable-background="new"
   id="svg2"
   inkscape:version="0.48.5 r10040"
   sodipodi:docname="format-text-strikethrough-symbolic.svg">
  <sodipodi:namedview
     pagecolor="#ffffff"
     bordercolor="#666666"
     borderopacity="1"
     objecttolerance="10"
     gridtolerance="10"
     guidetolerance="10"
     inkscape:pageopacity="0"
     inkscape:pageshadow="2"
     inkscape:window-width="640"
     inkscape:window-height="480"
     id="namedview13"
     showgrid="false"
     inkscape:zoom="14.75"
     inkscape:cx="8"
     inkscape:cy="8"
     inkscape:window-x="0"
     inkscape:window-y="31"
     inkscape:window-maximized="0"
     inkscape:current-layer="layer12" />
  <metadata
     id="metadata90">
    <rdf:RDF>
      <cc:Work
         rdf:about="">
        <dc:format>image/svg+xml</dc:format>
        <dc:type
           rdf:resource="http://purl.org/dc/dcmitype/StillImage" />
      </cc:Work>
    </rdf:RDF>
  </metadata>
  <defs
     id="defs7386">
    <linearGradient
       id="linearGradient5606"
       osb:paint="solid">
      <stop
         id="stop5608" />
    </linearGradient>
  </defs>
  <g
     inkscape:groupmode="layer"
     id="layer12"
     inkscape:label="actions"
     transform="translate(-421.00061,-109.00002)">
    <path
       inkscape:connector-curvature="0"
       d="m 425.0002,112 0,2 6,0 c 0.42816,0 1,0.61414 1,1 l 2,0 c 0,-1.63434 -1.3198,-3 -3,-3 l -6,0 z m -1,7 c 0.006,0.72062 0.26893,1.45271 0.78125,2.03125 0.51232,0.57854 1.31047,0.96875 2.21875,0.96875 l 5,0 1,0 1,0 0,-0.84375 c 0.0156,-0.0937 0,-0.15625 0,-0.15625 l 0,-1 0,-1 -2,0 0,1 -5,0 c -0.39787,0 -0.56691,-0.10979 -0.71875,-0.28125 -0.15184,-0.17146 -0.27877,-0.43937 -0.28125,-0.71875 l -2,0 z"
       id="path11643-3-2-6"
       fill="#555555"
       style="fill:#000000;fill-opacity:1" />
    <path
       inkscape:connector-curvature="0"
       d="m 422.00041,116.00002 0,2 14,0 0,-2 -14,0 z"
       id="path5100-8"
       color="#000000"
       stroke-width="2"
       fill="#555555"
       style="fill:#000000;fill-opacity:1" />
  </g>
</svg>
