<?xml version="1.0" encoding="UTF-8" standalone="no"?>
<!-- Created with Inkscape (http://www.inkscape.org/) -->

<svg
   xmlns:dc="http://purl.org/dc/elements/1.1/"
   xmlns:cc="http://creativecommons.org/ns#"
   xmlns:rdf="http://www.w3.org/1999/02/22-rdf-syntax-ns#"
   xmlns:svg="http://www.w3.org/2000/svg"
   xmlns="http://www.w3.org/2000/svg"
   xmlns:sodipodi="http://sodipodi.sourceforge.net/DTD/sodipodi-0.dtd"
   xmlns:inkscape="http://www.inkscape.org/namespaces/inkscape"
   width="512"
   height="512"
   id="svg4490"
   version="1.1"
   inkscape:version="0.48.5 r10040"
   viewBox="0 0 512 512"
   sodipodi:docname="4kvideodownloader.svg">
  <defs
     id="defs4492" />
  <sodipodi:namedview
     id="base"
     pagecolor="#ffffff"
     bordercolor="#666666"
     borderopacity="1.0"
     inkscape:pageopacity="0.0"
     inkscape:pageshadow="2"
     inkscape:zoom="0.70000001"
     inkscape:cx="-100.31646"
     inkscape:cy="287.0281"
     inkscape:document-units="px"
     inkscape:current-layer="layer1"
     showgrid="false"
     inkscape:showpageshadow="false"
     borderlayer="true"
     fit-margin-top="0"
     fit-margin-left="0"
     fit-margin-right="0"
     fit-margin-bottom="0"
     inkscape:window-width="1920"
     inkscape:window-height="1007"
     inkscape:window-x="0"
     inkscape:window-y="31"
     inkscape:window-maximized="1"
     inkscape:snap-nodes="false">
    <inkscape:grid
       type="xygrid"
       id="grid3001"
       empspacing="5"
       visible="true"
       enabled="true"
       snapvisiblegridlinesonly="true" />
  </sodipodi:namedview>
  <metadata
     id="metadata4495">
    <rdf:RDF>
      <cc:Work
         rdf:about="">
        <dc:format>image/svg+xml</dc:format>
        <dc:type
           rdf:resource="http://purl.org/dc/dcmitype/StillImage" />
        <dc:title />
      </cc:Work>
    </rdf:RDF>
  </metadata>
  <g
     inkscape:label="Capa 1"
     inkscape:groupmode="layer"
     id="layer1"
     transform="translate(-213.14285,-32.93362)">
    <path
       style="fill:#000000;fill-opacity:1;stroke:none;stroke-width:3.89233898999999983;stroke-opacity:1"
       d="m 505.3142,132.2669 c -47.62464,0 -90.10745,28.05329 -109.17555,71.71179 -32.70316,4.18524 -60.43639,25.0625 -73.34626,55.64827 -49.1423,2.03666 -88.64954,43.33808 -88.64954,92.99801 0,51.26693 41.20333,92.97521 92.23781,92.97521 l 285.52431,0 c 51.03829,0 92.2378,-41.70828 92.2378,-92.97521 0,-46.81308 -33.80593,-85.7137 -79.53446,-92.0173 0.20708,-2.82113 0.32696,-5.69274 0.32696,-8.49931 C 624.93508,185.93575 571.16654,132.2669 505.3142,132.2669 Z m -54.92608,125.90806 30.36328,0 30.36328,0 0.36471,38.77131 0.36471,38.77895 17.90325,0.19773 c 9.84613,0.10782 18.1929,0.48732 18.54944,0.84386 0.37678,0.37678 -13.37898,16.23319 -32.84161,37.85148 -18.4203,20.46054 -34.00791,37.27541 -34.64333,37.36493 -1.17813,0.1662 -67.73585,-73.30138 -67.73585,-74.7679 0,-0.49074 6.42197,-0.88807 18.29096,-1.12512 l 18.29096,-0.36471 0.36471,-38.77894 0.36471,-38.77136 z"
       id="path510"
       inkscape:connector-curvature="0" />
  </g>
</svg>
