<?xml version="1.0" encoding="UTF-8" standalone="no"?>
<svg
   xmlns:osb="http://www.openswatchbook.org/uri/2009/osb"
   xmlns:dc="http://purl.org/dc/elements/1.1/"
   xmlns:cc="http://creativecommons.org/ns#"
   xmlns:rdf="http://www.w3.org/1999/02/22-rdf-syntax-ns#"
   xmlns:svg="http://www.w3.org/2000/svg"
   xmlns="http://www.w3.org/2000/svg"
   xmlns:xlink="http://www.w3.org/1999/xlink"
   xmlns:sodipodi="http://sodipodi.sourceforge.net/DTD/sodipodi-0.dtd"
   xmlns:inkscape="http://www.inkscape.org/namespaces/inkscape"
   viewBox="0 0 48 48"
   id="svg2"
   version="1.1"
   inkscape:version="0.48.5 r10040"
   sodipodi:docname="5C12_World_of_Warcraft_Launcher.0.svg"
   width="100%"
   height="100%">
  <metadata
     id="metadata61">
    <rdf:RDF>
      <cc:Work
         rdf:about="">
        <dc:format>image/svg+xml</dc:format>
        <dc:type
           rdf:resource="http://purl.org/dc/dcmitype/StillImage" />
        <dc:title />
      </cc:Work>
    </rdf:RDF>
  </metadata>
  <sodipodi:namedview
     pagecolor="#ffffff"
     bordercolor="#666666"
     borderopacity="1"
     objecttolerance="10"
     gridtolerance="10"
     guidetolerance="10"
     inkscape:pageopacity="0"
     inkscape:pageshadow="2"
     inkscape:window-width="1920"
     inkscape:window-height="1007"
     id="namedview59"
     showgrid="false"
     inkscape:zoom="9.8333333"
     inkscape:cx="14.804475"
     inkscape:cy="22.151743"
     inkscape:window-x="0"
     inkscape:window-y="31"
     inkscape:window-maximized="1"
     inkscape:current-layer="g4265" />
<g
     id="g33" />
  <g
     transform="translate(-384.57143,-499.798)"
     id="layer1"
     inkscape:label="Capa 1"
     style="fill:none;stroke:#000000;stroke-opacity:1">
    <g
       transform="matrix(1.6428571,0,0,1.6428571,-249.51019,-349.87012)"
       id="g4200"
       style="fill:none;stroke:#000000;stroke-opacity:1">
      <g
         id="layer1-89"
         inkscape:label="Capa 1"
         transform="matrix(0.89482599,0,0,0.89482599,42.070197,55.890613)"
         style="fill:none;stroke:#000000;stroke-opacity:1">
        <g
           transform="matrix(1.0753113,0,0,1.0753113,-30.117002,-39.985805)"
           id="g4265"
           style="fill:none;stroke:#000000;stroke-opacity:1">
          <g
             transform="matrix(1.039268,0,0,1.039268,-15.714789,-20.900341)"
             id="g4277"
             style="fill:none;stroke:#000000;stroke-opacity:1;stroke-width:0.60869517;stroke-miterlimit:4;stroke-dasharray:none">
            <circle
               style="opacity:1;fill:none;fill-opacity:0;stroke:#000000;stroke-width:0.60869517;stroke-miterlimit:4;stroke-dasharray:none;stroke-dashoffset:0;stroke-opacity:1"
               id="circle4174"
               cx="400.57144"
               cy="531.79797"
               r="13.999958"
               d="m 414.5714,531.79797 c 0,7.73197 -6.268,13.99996 -13.99996,13.99996 -7.73196,0 -13.99996,-6.26799 -13.99996,-13.99996 0,-7.73196 6.268,-13.99995 13.99996,-13.99995 7.73196,0 13.99996,6.26799 13.99996,13.99995 z" />
          </g>
        </g>
      </g>
    </g>
  </g>
  <g
     id="g5028"
     transform="matrix(3.5433071,0,0,3.5433071,-100.97457,-24.296603)"
     style="fill:#000000;fill-opacity:1">
    <g
       inkscape:label="Symbol"
       id="layer3"
       transform="translate(0.11480226,0.11480226)"
       style="fill:#000000;fill-opacity:1">
      <g
         id="g5042"
         style="fill:#000000;fill-opacity:1">
        <path
           style="fill:#000000;fill-opacity:1;stroke:none"
           d="m 35.155799,9.2822384 c -0.760174,0 -1.46474,0.2048275 -2.081389,0.555625 l -1.5875,0 0,1.5698606 c -0.357393,0.620891 -0.564445,1.34001 -0.564445,2.107848 0,0.767837 0.207052,1.486957 0.564445,2.107846 l 0,1.552224 1.552222,0 c 0.624342,0.362856 1.342525,0.573264 2.116667,0.573264 0.774142,0 1.501143,-0.210408 2.125486,-0.573264 l 1.543402,0 0,-1.543404 c 0.360783,-0.623039 0.564445,-1.344912 0.564445,-2.116666 0,-0.771755 -0.203662,-1.493628 -0.564445,-2.116667 l 0,-1.5610416 -1.57868,0 C 36.629358,9.4870659 35.915973,9.2822384 35.155799,9.2822384 Z m 0.01764,0.7143748 c 1.940047,0 3.510138,1.5700918 3.510138,3.5101388 0,1.940047 -1.570091,3.518959 -3.510138,3.518959 -1.940047,0 -3.510139,-1.578912 -3.510139,-3.518959 0,-1.940047 1.570092,-3.5101388 3.510139,-3.5101388 z"
           id="rect3033-1"
           inkscape:connector-curvature="0" />
        <path
           style="fill:#000000;fill-opacity:1;stroke:none"
           d="m 35.977939,11.878303 0.15685,0.216604 -0.351047,2.322885 c -0.258311,-1.045855 -0.596279,-2.43185 -0.597526,-2.434921 l -0.56765,2.427451 -0.440676,-2.11375 0.08963,-0.410799 -1.277213,-0.01494 c 0.102179,0.07806 0.180056,0.209456 0.261418,0.313701 l 0.806661,3.278927 c -0.06637,0.123131 -0.166079,0.239273 -0.24648,0.343577 0.430744,0.0023 0.870786,0.0052 1.239868,0.0075 l -0.08963,-0.388376 0.246479,-1.12783 0.209135,1.224928 -0.03735,0.291295 1.217461,-0.0075 -0.0075,-0.0075 -0.164319,-0.313702 0.492959,-3.077262 0.373454,-0.545242 c -0.438186,0.0048 -0.876372,0.0099 -1.314558,0.01494 z"
           id="rect3904"
           inkscape:connector-curvature="0"
           sodipodi:nodetypes="cccccccccccccccccccccc" />
      </g>
    </g>
  </g>
</svg>
