<?xml version="1.0" encoding="UTF-8" standalone="no"?>
<!-- Created with Inkscape (http://www.inkscape.org/) -->

<svg
   xmlns:dc="http://purl.org/dc/elements/1.1/"
   xmlns:cc="http://creativecommons.org/ns#"
   xmlns:rdf="http://www.w3.org/1999/02/22-rdf-syntax-ns#"
   xmlns:svg="http://www.w3.org/2000/svg"
   xmlns="http://www.w3.org/2000/svg"
   xmlns:sodipodi="http://sodipodi.sourceforge.net/DTD/sodipodi-0.dtd"
   xmlns:inkscape="http://www.inkscape.org/namespaces/inkscape"
   id="svg2"
   version="1.1"
   inkscape:version="0.48.5 r10040"
   width="512"
   height="512"
   sodipodi:docname="about.svg">
  <metadata
     id="metadata8">
    <rdf:RDF>
      <cc:Work
         rdf:about="">
        <dc:format>image/svg+xml</dc:format>
        <dc:type
           rdf:resource="http://purl.org/dc/dcmitype/StillImage" />
        <dc:title />
      </cc:Work>
    </rdf:RDF>
  </metadata>
  <defs
     id="defs6" />
  <sodipodi:namedview
     pagecolor="#ffffff"
     bordercolor="#666666"
     borderopacity="1"
     objecttolerance="10"
     gridtolerance="10"
     guidetolerance="10"
     inkscape:pageopacity="0"
     inkscape:pageshadow="2"
     inkscape:window-width="1916"
     inkscape:window-height="1005"
     id="namedview4"
     showgrid="false"
     inkscape:zoom="1.5661311"
     inkscape:cx="74.284821"
     inkscape:cy="256.93509"
     inkscape:window-x="0"
     inkscape:window-y="31"
     inkscape:window-maximized="0"
     inkscape:current-layer="svg2"
     showguides="false" />
  <ellipse
     style="fill:none;fill-opacity:1;fill-rule:nonzero;stroke:#000000;stroke-width:16;stroke-linecap:round;stroke-linejoin:miter;stroke-miterlimit:4;stroke-dasharray:none;stroke-opacity:1"
     id="path2985"
     cx="256"
     cy="256"
     rx="225"
     ry="224.99983" />
  <g
     id="g4139"
     transform="matrix(0.88352504,0,0,0.88352504,-2.0331566,37.31851)"
     style="opacity:1;fill:#000000;fill-opacity:1">
    <g
       style="font-style:normal;font-weight:normal;font-size:454.22463988999993489px;line-height:125%;font-family:sans-serif;letter-spacing:0px;word-spacing:0px;fill:#000000;fill-opacity:1;stroke:none;stroke-width:1px;stroke-linecap:butt;stroke-linejoin:miter;stroke-opacity:1"
       id="text4136">
      <path
         d="m 252.78317,357.73566 45.02324,0 0,56.3345 -45.02324,0 0,-56.3345 z m 43.6925,-32.60304 -42.36177,0 0,-34.15556 q 0,-22.40073 6.21011,-36.81704 6.2101,-14.41631 26.17114,-33.4902 l 19.96105,-19.73925 q 12.64199,-11.75484 18.18673,-22.17894 5.76652,-10.4241 5.76652,-21.29178 0,-19.73925 -14.6381,-31.93767 -14.41631,-12.19841 -38.36956,-12.19841 -17.52136,0 -37.48241,7.76263 -19.73925,7.76262 -41.25282,22.62251 l 0,-41.6964 q 20.8482,-12.641995 42.13998,-18.852098 21.51357,-6.210102 44.35788,-6.210102 40.80924,0 65.42786,21.513569 24.84041,21.513571 24.84041,56.778081 0,16.85599 -7.98442,32.15946 -7.98441,15.08168 -27.94546,34.15556 l -19.51746,19.07389 q -10.4241,10.4241 -14.85989,16.41241 -4.214,5.76653 -5.98831,11.31126 -1.33074,4.65758 -1.99611,11.31126 -0.66537,6.65368 -0.66537,18.18673 l 0,27.28009 z"
         style="font-style:normal;font-variant:normal;font-weight:normal;font-stretch:normal;font-family:ubuntu;-inkscape-font-specification:ubuntu;fill:#000000;fill-opacity:1"
         id="path4149"
         inkscape:connector-curvature="0" />
    </g>
  </g>
</svg>
