<?xml version="1.0" encoding="UTF-8" standalone="no"?>
<!-- Created with Inkscape (http://www.inkscape.org/) -->

<svg
   xmlns:dc="http://purl.org/dc/elements/1.1/"
   xmlns:cc="http://creativecommons.org/ns#"
   xmlns:rdf="http://www.w3.org/1999/02/22-rdf-syntax-ns#"
   xmlns:svg="http://www.w3.org/2000/svg"
   xmlns="http://www.w3.org/2000/svg"
   xmlns:sodipodi="http://sodipodi.sourceforge.net/DTD/sodipodi-0.dtd"
   xmlns:inkscape="http://www.inkscape.org/namespaces/inkscape"
   id="svg2"
   version="1.1"
   inkscape:version="0.48.5 r10040"
   width="1024"
   height="1024"
   sodipodi:docname="aisleriot.svg"
   viewBox="0 0 1024 1024">
  <metadata
     id="metadata8">
    <rdf:RDF>
      <cc:Work
         rdf:about="">
        <dc:format>image/svg+xml</dc:format>
        <dc:type
           rdf:resource="http://purl.org/dc/dcmitype/StillImage" />
        <dc:title />
      </cc:Work>
    </rdf:RDF>
  </metadata>
  <defs
     id="defs6">
    <clipPath
       clipPathUnits="userSpaceOnUse"
       id="clipPath3341">
      <circle
         style="opacity:1;fill:none;fill-opacity:1;stroke:#000000;stroke-width:11.24822521;stroke-miterlimit:4;stroke-dasharray:none;stroke-dashoffset:0;stroke-opacity:1"
         id="circle3343"
         cx="515.44489"
         cy="510.69141"
         r="435.84955" />
    </clipPath>
  </defs>
  <sodipodi:namedview
     pagecolor="#ffffff"
     bordercolor="#666666"
     borderopacity="1"
     objecttolerance="10"
     gridtolerance="10"
     guidetolerance="10"
     inkscape:pageopacity="0"
     inkscape:pageshadow="2"
     inkscape:window-width="1920"
     inkscape:window-height="1007"
     id="namedview4"
     showgrid="false"
     inkscape:zoom="0.32593203"
     inkscape:cx="-65.816503"
     inkscape:cy="553.57823"
     inkscape:window-x="0"
     inkscape:window-y="31"
     inkscape:window-maximized="1"
     inkscape:current-layer="svg2"
     inkscape:document-units="px" />
  <path
     style="fill:none;fill-opacity:1;stroke:#000000;stroke-opacity:1;stroke-width:20;stroke-miterlimit:4;stroke-dasharray:none"
     d="m 398.80403,719.53543 c 40.344,-7.42043 88.8111,-16.32323 107.7047,-19.78399 l 34.352,-6.29229 57.1794,15.92092 c 31.4486,8.7565 63.4615,17.65527 71.14,19.77503 14.9573,4.12925 18.9191,4.26202 24.5734,0.82348 1.6363,-0.99515 4.17,-3.37586 5.6304,-5.29047 2.8333,-3.71475 1.9843,-0.55774 46.7205,-173.7178 11.0766,-42.87389 27.7008,-107.14699 36.9426,-142.82913 9.3362,-36.04616 16.8243,-66.92558 16.8503,-69.48736 0.058,-5.71568 -3.885,-12.9159 -8.7042,-15.89428 -4.4602,-2.75657 -226.6049,-64.48835 -232.0643,-64.48835 -5.2177,0 -9.7434,2.09596 -13.9931,6.48042 -3.8894,4.01294 -4.6745,6.63853 -18.153,60.71433 -5.144,20.63739 -9.6853,37.1583 -10.0918,36.71312 -0.6107,-0.66863 -10.3969,-57.1422 -12.6028,-72.72686 -1.4816,-10.4675 -9.8348,-18.37189 -19.342,-18.3027 -4.2423,0.0309 -38.1328,6.08923 -187.1942,33.46328 -24.0052,4.40838 -45.1707,8.7389 -47.0347,9.62339 -6.1046,2.89684 -11.4122,11.01943 -11.4122,17.46498 0,3.58361 63.8343,380.93189 65.3536,386.32993 2.3015,8.17687 10.3086,14.99606 17.6084,14.99606 1.7514,0 36.193,-6.07126 76.537,-13.49171 z"
     id="path3015"
     inkscape:connector-curvature="0" />
  <rect
     style="fill:none;fill-opacity:1;fill-rule:evenodd;stroke:none"
     id="rect3027"
     width="272.43445"
     height="428.07959"
     x="181.13454"
     y="356.30261"
     ry="13.520902"
     transform="matrix(0.98187116,-0.18954952,0.16427005,0.9864154,0,0)" />
  <path
     style="fill:none;fill-opacity:1;stroke:#000000;stroke-opacity:0.94117647000000004;stroke-width:20;stroke-miterlimit:4;stroke-dasharray:none"
     d="m 597.38843,570.62298 c -5.4667,-12.55759 -35.1345,-90.96082 -34.8602,-92.12517 0.4355,-1.84893 77.8282,-64.78969 79.1318,-64.35517 1.2906,0.43019 37.8141,94.70622 37.4518,96.67212 -0.3241,1.75845 -76.7287,64.05057 -78.567,64.05504 -0.7184,0.002 -2.1388,-1.90932 -3.1564,-4.24682 z"
     id="path3021"
     inkscape:connector-curvature="0" />
  <path
     style="fill:none;stroke:#000000;stroke-opacity:0.94117647000000004;stroke-width:20;stroke-miterlimit:4;stroke-dasharray:none"
     d="m 411.93023,565.90101 c -38.0339,-23.09964 -50.8926,-34.34385 -60.4608,-52.86947 -12.1809,-23.58449 -13.814,-45.25459 -4.0562,-53.82205 6.4069,-5.62532 15.7918,-7.21067 29.8101,-5.03566 7.3936,1.14715 12.6292,3.90296 17.6312,9.28034 1.3334,1.43343 3.0144,2.60623 3.7356,2.60623 0.7212,0 2.6311,-2.61449 4.2442,-5.80999 5.0129,-9.93048 15.9065,-17.54382 29.0309,-20.28907 17.4028,-3.64018 28.0097,10.505 28.0502,37.40751 0.035,23.33235 -4.2733,36.37067 -19.7248,59.69155 -7.171,10.82312 -22.8588,31.013 -24.0743,30.98315 -0.3774,-0.009 -2.2611,-0.97341 -4.1861,-2.14254 z"
     id="path2988"
     inkscape:connector-curvature="0" />
  <rect
     style="fill:none;stroke:#000000;stroke-width:40;stroke-miterlimit:4;stroke-opacity:0.94117647;stroke-dasharray:none"
     id="rect3758"
     width="806.91669"
     height="849.87042"
     x="110.45248"
     y="88.222069"
     ry="13.520902" />
</svg>
