<?xml version="1.0" encoding="UTF-8" standalone="no"?>
<!-- Created with Inkscape (http://www.inkscape.org/) -->

<svg
   xmlns:dc="http://purl.org/dc/elements/1.1/"
   xmlns:cc="http://creativecommons.org/ns#"
   xmlns:rdf="http://www.w3.org/1999/02/22-rdf-syntax-ns#"
   xmlns:svg="http://www.w3.org/2000/svg"
   xmlns="http://www.w3.org/2000/svg"
   xmlns:sodipodi="http://sodipodi.sourceforge.net/DTD/sodipodi-0.dtd"
   xmlns:inkscape="http://www.inkscape.org/namespaces/inkscape"
   width="48"
   height="48"
   id="svg5453"
   version="1.1"
   inkscape:version="0.48.5 r10040"
   sodipodi:docname="app-launcher.svg">
  <defs
     id="defs5455">
    <linearGradient
       id="linearGradient4304">
      <stop
         offset="0"
         style="stop-color:#dbdada;stop-opacity:1"
         id="stop4306" />
      <stop
         offset="1"
         style="stop-color:#ffffff;stop-opacity:1"
         id="stop4308" />
    </linearGradient>
    <linearGradient
       id="linearGradient4232">
      <stop
         id="stop4234-0"
         offset="0"
         style="stop-color:#3889e9;stop-opacity:1" />
      <stop
         id="stop4236"
         offset="1"
         style="stop-color:#5ea5fb;stop-opacity:1" />
    </linearGradient>
  </defs>
  <sodipodi:namedview
     id="base"
     pagecolor="#5a5a5a"
     bordercolor="#ffffff"
     borderopacity="1"
     inkscape:pageopacity="0"
     inkscape:pageshadow="2"
     inkscape:zoom="4.02"
     inkscape:cx="-93.436679"
     inkscape:cy="28.518648"
     inkscape:document-units="px"
     inkscape:current-layer="g4364"
     showgrid="false"
     fit-margin-top="0"
     fit-margin-left="0"
     fit-margin-right="0"
     fit-margin-bottom="0"
     inkscape:window-width="1920"
     inkscape:window-height="1007"
     inkscape:window-x="0"
     inkscape:window-y="31"
     inkscape:window-maximized="1"
     inkscape:showpageshadow="false"
     borderlayer="true"
     showguides="false"
     inkscape:snap-bbox="true"
     inkscape:bbox-paths="false"
     inkscape:bbox-nodes="true"
     inkscape:object-nodes="true"
     inkscape:snap-center="true"
     inkscape:guide-bbox="true"
     showborder="false">
    <inkscape:grid
       type="xygrid"
       id="grid4063" />
    <sodipodi:guide
       position="1.1650391e-05,47.999996"
       orientation="4,0"
       id="guide4146" />
    <sodipodi:guide
       position="2,38"
       orientation="0,48"
       id="guide4148" />
    <sodipodi:guide
       position="48.000012,43.999996"
       orientation="-4,0"
       id="guide4150" />
    <sodipodi:guide
       position="48.000012,47.999996"
       orientation="0,-48"
       id="guide4152" />
    <sodipodi:guide
       position="1.1650391e-05,4.0000264"
       orientation="4,0"
       id="guide4154" />
    <sodipodi:guide
       position="1.1650391e-05,2.6367188e-05"
       orientation="0,48"
       id="guide4156" />
    <sodipodi:guide
       position="48.000012,2.6367188e-05"
       orientation="-4,0"
       id="guide4158" />
    <sodipodi:guide
       position="48.000012,4.0000264"
       orientation="0,-48"
       id="guide4160" />
    <sodipodi:guide
       position="48.000012,48.000026"
       orientation="0,-4"
       id="guide4162" />
    <sodipodi:guide
       position="44.000012,48.000026"
       orientation="48,0"
       id="guide4164" />
    <sodipodi:guide
       position="44.000012,2.6367188e-05"
       orientation="0,4"
       id="guide4166" />
    <sodipodi:guide
       position="48.000012,2.6367188e-05"
       orientation="-48,0"
       id="guide4168" />
    <sodipodi:guide
       position="4.0000422,48.000026"
       orientation="0,-4"
       id="guide4170" />
    <sodipodi:guide
       position="4.2167969e-05,48.000026"
       orientation="48,0"
       id="guide4172" />
    <sodipodi:guide
       position="4.2167969e-05,2.6367188e-05"
       orientation="0,4"
       id="guide4174" />
    <sodipodi:guide
       position="4.0000422,43.999996"
       orientation="39.999969,0"
       id="guide4175" />
    <sodipodi:guide
       position="4.0000422,4.0000264"
       orientation="0,20"
       id="guide4177" />
    <sodipodi:guide
       position="24.000042,4.0000264"
       orientation="-39.999969,0"
       id="guide4179" />
    <sodipodi:guide
       position="24.000042,43.999996"
       orientation="0,-20"
       id="guide4181" />
    <sodipodi:guide
       position="4.0000422,23.999843"
       orientation="20,0"
       id="guide4185" />
    <sodipodi:guide
       position="44.000012,3.9998433"
       orientation="-20,0"
       id="guide4189" />
    <sodipodi:guide
       position="44.000012,23.999843"
       orientation="0,-39.999969"
       id="guide4191" />
    <sodipodi:guide
       position="-5.3201604,51.964357"
       orientation="0,1"
       id="guide4537" />
  </sodipodi:namedview>
  <metadata
     id="metadata5458">
    <rdf:RDF>
      <cc:Work
         rdf:about="">
        <dc:format>image/svg+xml</dc:format>
        <dc:type
           rdf:resource="http://purl.org/dc/dcmitype/StillImage" />
        <dc:title />
      </cc:Work>
    </rdf:RDF>
  </metadata>
  <g
     inkscape:label="Capa 1"
     inkscape:groupmode="layer"
     id="layer1"
     transform="translate(-384.57143,-499.798)">
    <g
       id="g4471"
       transform="matrix(1.0931221,0,0,1.0931221,33.310366,-50.486049)">
      <g
         inkscape:label="Capa 1"
         id="layer1-39"
         transform="matrix(1.5444819,0,0,1.5444819,-275.38426,-295.80854)" />
      <g
         inkscape:label="Layer 1"
         id="layer1-8"
         transform="matrix(0.91481089,0,0,0.91481089,316.76339,370.75826)" />
      <g
         id="g4364"
         transform="matrix(1.0320907,0,0,1.0320907,-11.164043,-16.814579)"
         style="fill:none;stroke:#000000;stroke-opacity:1;stroke-width:0.88636676;stroke-miterlimit:4;stroke-dasharray:none">
        <g
           style="stroke:#000000;fill:none;stroke-opacity:1;stroke-width:1.80189017;stroke-miterlimit:4;stroke-dasharray:none"
           transform="matrix(0.98381885,0,0,0.98381885,5.5651187,8.3948576)"
           id="g4320">
          <g
             id="layer1-3"
             inkscape:label="Capa 1"
             transform="matrix(1.5444819,0,0,1.5444819,-275.17538,-295.73877)"
             style="stroke:#000000;stroke-width:1.16666319;stroke-miterlimit:4;stroke-dasharray:none;stroke-opacity:1;fill:none">
            <circle
               r="13.999958"
               cy="531.79791"
               cx="400.57138"
               id="path3377"
               style="opacity:1;fill:none;fill-opacity:1;stroke:#000000;stroke-width:1.16666319;stroke-miterlimit:4;stroke-dasharray:none;stroke-dashoffset:0;stroke-opacity:1"
               d="m 414.57134,531.79791 c 0,7.73197 -6.268,13.99996 -13.99996,13.99996 -7.73196,0 -13.99996,-6.26799 -13.99996,-13.99996 0,-7.73196 6.268,-13.99996 13.99996,-13.99996 7.73196,0 13.99996,6.268 13.99996,13.99996 z" />
            <circle
               style="opacity:1;fill:none;fill-opacity:1;stroke:#000000;stroke-width:1.16666319;stroke-miterlimit:4;stroke-dasharray:none;stroke-dashoffset:0;stroke-opacity:1"
               id="ellipse4233"
               cx="400.57138"
               cy="531.79791"
               r="0" />
          </g>
        </g>
        <g
           transform="matrix(1.2351519,0,0,1.2351519,-46.666729,-87.228666)"
           id="g4807"
           style="fill:#000000;stroke:#000000;stroke-opacity:1;stroke-width:0.71761761000000002;stroke-miterlimit:4;stroke-dasharray:none;fill-opacity:1">
          <g
             id="g4356"
             style="fill:#000000;fill-opacity:1;stroke:#000000;stroke-opacity:1;stroke-width:0.71761761000000002;stroke-miterlimit:4;stroke-dasharray:none">
            <ellipse
               ry="2.2868319"
               rx="2.2870271"
               cy="490.23276"
               cx="309.90231"
               id="path4333"
               style="opacity:1;fill:#000000;fill-opacity:1;stroke:#000000;stroke-width:0.71761761000000002;stroke-linecap:round;stroke-linejoin:round;stroke-miterlimit:4;stroke-dasharray:none;stroke-opacity:1"
               d="m 312.18934,490.23276 c 0,1.26298 -1.02394,2.28683 -2.28703,2.28683 -1.26309,0 -2.28702,-1.02385 -2.28702,-2.28683 0,-1.26298 1.02393,-2.28683 2.28702,-2.28683 1.26309,0 2.28703,1.02385 2.28703,2.28683 z" />
            <ellipse
               ry="2.2868319"
               rx="2.2870271"
               cy="490.23276"
               cx="316.03156"
               id="path4333-9"
               style="opacity:1;fill:#000000;fill-opacity:1;stroke:#000000;stroke-width:0.71761761000000002;stroke-linecap:round;stroke-linejoin:round;stroke-miterlimit:4;stroke-dasharray:none;stroke-opacity:1"
               d="m 318.31858,490.23276 c 0,1.26298 -1.02393,2.28683 -2.28702,2.28683 -1.2631,0 -2.28703,-1.02385 -2.28703,-2.28683 0,-1.26298 1.02393,-2.28683 2.28703,-2.28683 1.26309,0 2.28702,1.02385 2.28702,2.28683 z" />
            <ellipse
               ry="2.2868319"
               rx="2.2870271"
               cy="490.23276"
               cx="321.97781"
               id="path4333-8"
               style="opacity:1;fill:#000000;fill-opacity:1;stroke:#000000;stroke-width:0.71761761000000002;stroke-linecap:round;stroke-linejoin:round;stroke-miterlimit:4;stroke-dasharray:none;stroke-opacity:1"
               d="m 324.26484,490.23276 c 0,1.26298 -1.02394,2.28683 -2.28703,2.28683 -1.26309,0 -2.28702,-1.02385 -2.28702,-2.28683 0,-1.26298 1.02393,-2.28683 2.28702,-2.28683 1.26309,0 2.28703,1.02385 2.28703,2.28683 z" />
          </g>
          <ellipse
             style="opacity:1;fill:#000000;fill-opacity:1;stroke:#000000;stroke-width:0.71761761000000002;stroke-linecap:round;stroke-linejoin:round;stroke-miterlimit:4;stroke-dasharray:none;stroke-opacity:1"
             id="path4333-4"
             cx="309.90231"
             cy="496.54495"
             rx="2.2870271"
             ry="2.2868319"
             d="m 312.18934,496.54495 c 0,1.26298 -1.02394,2.28683 -2.28703,2.28683 -1.26309,0 -2.28702,-1.02385 -2.28702,-2.28683 0,-1.26298 1.02393,-2.28683 2.28702,-2.28683 1.26309,0 2.28703,1.02385 2.28703,2.28683 z" />
          <ellipse
             style="opacity:1;fill:#000000;fill-opacity:1;stroke:#000000;stroke-width:0.71761761000000002;stroke-linecap:round;stroke-linejoin:round;stroke-miterlimit:4;stroke-dasharray:none;stroke-opacity:1"
             id="path4333-9-7"
             cx="309.90231"
             cy="502.5827"
             rx="2.2870271"
             ry="2.2868319"
             d="m 312.18934,502.5827 c 0,1.26298 -1.02394,2.28683 -2.28703,2.28683 -1.26309,0 -2.28702,-1.02385 -2.28702,-2.28683 0,-1.26298 1.02393,-2.28683 2.28702,-2.28683 1.26309,0 2.28703,1.02385 2.28703,2.28683 z" />
          <ellipse
             style="opacity:1;fill:#000000;fill-opacity:1;stroke:#000000;stroke-width:0.71761761000000002;stroke-linecap:round;stroke-linejoin:round;stroke-miterlimit:4;stroke-dasharray:none;stroke-opacity:1"
             id="path4333-4-5"
             cx="321.97781"
             cy="496.362"
             rx="2.2870271"
             ry="2.2868319"
             d="m 324.26484,496.362 c 0,1.26298 -1.02394,2.28683 -2.28703,2.28683 -1.26309,0 -2.28702,-1.02385 -2.28702,-2.28683 0,-1.26298 1.02393,-2.28683 2.28702,-2.28683 1.26309,0 2.28703,1.02385 2.28703,2.28683 z" />
          <ellipse
             style="opacity:1;fill:#000000;fill-opacity:1;stroke:#000000;stroke-width:0.71761761000000002;stroke-linecap:round;stroke-linejoin:round;stroke-miterlimit:4;stroke-dasharray:none;stroke-opacity:1"
             id="path4333-9-7-0"
             cx="321.97781"
             cy="502.39975"
             rx="2.2870271"
             ry="2.2868319"
             d="m 324.26484,502.39975 c 0,1.26298 -1.02394,2.28683 -2.28703,2.28683 -1.26309,0 -2.28702,-1.02385 -2.28702,-2.28683 0,-1.26298 1.02393,-2.28683 2.28702,-2.28683 1.26309,0 2.28703,1.02385 2.28703,2.28683 z" />
          <g
             transform="translate(6.3121826,12.25867)"
             id="g4356-5-7"
             style="fill:#000000;fill-opacity:1;stroke:#000000;stroke-opacity:1;stroke-width:0.71761761000000002;stroke-miterlimit:4;stroke-dasharray:none">
            <ellipse
               ry="2.2868319"
               rx="2.2870271"
               cy="490.32404"
               cx="309.71936"
               id="path4333-4-4"
               style="opacity:1;fill:#000000;fill-opacity:1;stroke:#000000;stroke-width:0.71761761000000002;stroke-linecap:round;stroke-linejoin:round;stroke-miterlimit:4;stroke-dasharray:none;stroke-opacity:1"
               d="m 312.00639,490.32404 c 0,1.26298 -1.02394,2.28683 -2.28703,2.28683 -1.26309,0 -2.28703,-1.02385 -2.28703,-2.28683 0,-1.26299 1.02394,-2.28684 2.28703,-2.28684 1.26309,0 2.28703,1.02385 2.28703,2.28684 z" />
          </g>
          <g
             transform="translate(6.3121826,6.129437)"
             id="g4356-5-7-5"
             style="fill:#000000;fill-opacity:1;stroke:#000000;stroke-opacity:1;stroke-width:0.71761761000000002;stroke-miterlimit:4;stroke-dasharray:none">
            <ellipse
               ry="2.2868319"
               rx="2.2870271"
               cy="490.32404"
               cx="309.71936"
               id="path4333-4-4-6"
               style="opacity:1;fill:#000000;fill-opacity:1;stroke:#000000;stroke-width:0.71761761000000002;stroke-linecap:round;stroke-linejoin:round;stroke-miterlimit:4;stroke-dasharray:none;stroke-opacity:1"
               d="m 312.00639,490.32404 c 0,1.26298 -1.02394,2.28683 -2.28703,2.28683 -1.26309,0 -2.28703,-1.02385 -2.28703,-2.28683 0,-1.26299 1.02394,-2.28684 2.28703,-2.28684 1.26309,0 2.28703,1.02385 2.28703,2.28684 z" />
          </g>
        </g>
      </g>
    </g>
  </g>
</svg>
