<?xml version="1.0" encoding="UTF-8" standalone="no"?>
<!-- Created with Inkscape (http://www.inkscape.org/) -->

<svg
   xmlns:dc="http://purl.org/dc/elements/1.1/"
   xmlns:cc="http://creativecommons.org/ns#"
   xmlns:rdf="http://www.w3.org/1999/02/22-rdf-syntax-ns#"
   xmlns:svg="http://www.w3.org/2000/svg"
   xmlns="http://www.w3.org/2000/svg"
   xmlns:sodipodi="http://sodipodi.sourceforge.net/DTD/sodipodi-0.dtd"
   xmlns:inkscape="http://www.inkscape.org/namespaces/inkscape"
   id="svg2"
   version="1.1"
   inkscape:version="0.48.5 r10040"
   width="512"
   height="512"
   sodipodi:docname="aplication-x-executable.svg"
   viewBox="0 0 512 512">
  <metadata
     id="metadata8">
    <rdf:RDF>
      <cc:Work
         rdf:about="">
        <dc:format>image/svg+xml</dc:format>
        <dc:type
           rdf:resource="http://purl.org/dc/dcmitype/StillImage" />
        <dc:title />
      </cc:Work>
    </rdf:RDF>
  </metadata>
  <defs
     id="defs6" />
  <sodipodi:namedview
     pagecolor="#ffffff"
     bordercolor="#666666"
     borderopacity="1"
     objecttolerance="10"
     gridtolerance="10"
     guidetolerance="10"
     inkscape:pageopacity="0"
     inkscape:pageshadow="2"
     inkscape:window-width="1920"
     inkscape:window-height="1007"
     id="namedview4"
     showgrid="false"
     inkscape:zoom="0.4609375"
     inkscape:cx="-163.79661"
     inkscape:cy="256"
     inkscape:window-x="0"
     inkscape:window-y="31"
     inkscape:window-maximized="1"
     inkscape:current-layer="svg2"
     inkscape:document-units="px" />
  <path
     sodipodi:nodetypes="ssssssssssssssssssssscsssssssssssssssssssscssssssssssssssssssscsscsscsssssscssssssssssssssssscsssssssssssssssss"
     inkscape:connector-curvature="0"
     id="path2986"
     d="m 140.06597,446.66938 c -2.96849,-3.18647 -5.08996,-9.01948 -5.0626,-13.91979 0.0141,-2.5256 2.6172,-11.15309 7.44021,-24.65928 4.08018,-11.42603 7.47271,-21.80069 7.53895,-23.05483 0.0879,-1.66351 -1.89387,-4.10817 -7.32714,-9.03875 -4.09618,-3.71721 -10.04939,-9.82285 -13.22934,-13.56809 -3.17997,-3.74524 -6.66222,-7.18285 -7.73837,-7.63906 -1.20695,-0.51167 -10.08481,2.05814 -23.172024,6.70744 -11.66846,4.14528 -22.86882,7.65758 -24.88967,7.80518 -4.15972,0.30387 -11.96819,-2.67003 -15.31133,-5.83129 -2.65821,-2.51357 -22.09981,-49.57507 -22.52597,-54.52765 -0.42266,-4.91211 2.98595,-12.32057 7.29587,-15.85709 1.96192,-1.60987 12.5805,-7.00329 23.59686,-11.98536 11.85867,-5.36305 20.35556,-9.82692 20.82843,-10.94229 0.43925,-1.03621 0.53794,-5.89535 0.21926,-10.79815 -0.31868,-4.90283 -0.28681,-13.40878 0.071,-18.90209 0.35762,-5.49335 0.11676,-10.63206 -0.53514,-11.41938 -0.65195,-0.78731 -10.09616,-5.8025 -20.9871,-11.14481 -12.6662,-6.21311 -21.00849,-10.82583 -23.1505,-12.80059 -4.08205,-3.76333 -7.12494,-12.01473 -6.11399,-16.57927 0.41003,-1.85133 5.67159,-14.62451 11.69236,-28.38477 l 10.94685,-25.01866 4.42521,-2.39694 c 7.82028,-4.23587 10.49334,-3.86118 35.52085,4.97902 14.165574,5.00352 22.939174,7.66222 23.935014,7.2531 0.86468,-0.35512 4.94474,-4.22254 9.06683,-8.59401 4.12209,-4.37142 10.13691,-10.19481 13.36622,-12.94077 3.22934,-2.74599 6.19654,-5.75938 6.59377,-6.69641 0.39724,-0.937 -2.36701,-10.48564 -6.14275,-21.219114 -3.77577,-10.73351 -7.29396,-21.22073 -7.81822,-23.305 -1.47455,-5.86202 -0.27916,-11.84021 3.33175,-16.66248 2.72649,-3.64113 5.49758,-5.06687 27.42758,-14.11109 13.41708,-5.53337 26.31298,-10.20433 28.65765,-10.37985 5.44092,-0.40734 12.55512,2.57106 16.03077,6.71137 1.46351,1.74339 6.73109,12.11194 11.70576,23.04127 4.97466,10.92927 9.4638,20.41873 9.9759,21.08767 0.53967,0.705 5.58011,1.02359 11.99035,0.75791 6.08261,-0.25226 14.98471,-0.15996 19.78244,0.20493 6.50527,0.49467 9.23346,0.20531 10.73025,-1.13863 1.10392,-0.99109 6.39491,-10.70563 11.75775,-21.58789 10.31374,-20.92845 12.48508,-24.00735 18.86474,-26.74959 7.09646,-3.05033 10.10418,-2.2723 37.46905,9.69253 l 24.92468,10.89791 2.81801,4.25539 c 4.84837,7.32137 4.4878,10.44254 -4.04082,34.9779 -4.12832,11.876374 -7.67759,22.582044 -7.88727,23.790294 -0.29509,1.70043 1.28763,3.71129 7.00484,8.89953 4.06235,3.68647 10.32565,10.16162 13.91843,14.3893 3.59277,4.22766 6.8981,7.84168 7.34511,8.03121 0.44701,0.18968 10.48544,-3.09487 22.30761,-7.2985 11.82218,-4.20371 23.41823,-7.79861 25.76907,-7.98869 5.55703,-0.44936 12.31873,2.44273 16.27263,6.96011 1.87738,2.14484 6.80582,12.84992 12.56908,27.3011 9.89291,24.80621 10.40883,27.38311 7.06775,35.30158 -2.36303,5.60054 -6.4109,8.21561 -28.1964,18.2159 -11.84548,5.43747 -21.6966,10.26223 -21.8914,10.72169 -0.19477,0.45948 -0.10876,6.12998 0.19162,12.6012 0.29999,6.47116 0.18422,15.30659 -0.25772,19.63424 -0.54897,5.37625 -0.31367,8.37546 0.74303,9.46919 0.85059,0.8804 10.87092,6.25939 22.26745,11.9533 22.61657,11.29972 25.95348,13.84201 27.52607,20.97171 1.48665,6.74 0.26947,10.80301 -10.77657,35.97141 l -10.56639,24.07558 -4.55548,2.83646 c -8.13451,5.06498 -9.57299,4.89131 -36.0592,-4.35308 -12.94177,-4.51702 -23.845,-8.08552 -24.22946,-7.92999 -0.38445,0.15565 -3.65423,3.51777 -7.26615,7.47165 -3.61192,3.95391 -10.04181,10.14204 -14.28864,13.7515 -4.24684,3.60942 -7.83155,7.18327 -7.96607,7.94187 -0.13449,0.75864 3.06487,10.69656 7.10968,22.08425 4.04483,11.38771 7.51077,22.9928 7.70208,25.78903 0.40643,5.93957 -1.55814,11.21349 -5.67688,15.23976 -3.63477,3.55315 -47.45503,21.6984 -53.52442,22.16356 -5.07487,0.38914 -12.75434,-2.59373 -16.30802,-6.33393 -1.36151,-1.43298 -6.76158,-11.98056 -12.0002,-23.43909 -5.23859,-11.45853 -10.20454,-21.12421 -11.03545,-21.47924 -0.83083,-0.3551 -6.47113,-0.46601 -12.53384,-0.24638 -6.06269,0.21941 -14.84999,0.0818 -19.52734,-0.30584 -6.46487,-0.53591 -8.81386,-0.28003 -9.79526,1.06632 -0.71004,0.97421 -5.92613,10.95527 -11.5913,22.18015 -12.46034,24.68867 -14.5989,27.03106 -25.34469,27.7604 -3.11591,0.2116 -7.4558,-1.36436 -28.92377,-10.50239 -18.99998,-8.08753 -25.82611,-11.36132 -27.55159,-13.21349 z m 85.07105,-97.0092 c 23.81168,7.27584 46.7146,6.25841 69.81401,-3.10138 17.60564,-7.13376 31.46684,-17.63667 43.68944,-33.10429 7.66245,-9.69681 17.91681,-33.93455 19.59871,-46.32474 5.10422,-37.6006 -8.50382,-72.64674 -37.59675,-96.82652 -6.77892,-5.63413 -8.79491,-6.75053 -23.87689,-13.22221 -14.44584,-6.1986 -17.57335,-7.21733 -25.41643,-8.27841 -39.16109,-5.29797 -77.96135,11.52441 -100.13425,43.41458 -19.92107,28.65146 -23.89171,64.83245 -10.71499,97.63635 6.89922,17.17589 18.7382,32.65139 33.78944,44.16845 4.29192,3.28416 10.72386,7.13974 20.12505,12.06381 0.75106,0.39343 5.57623,2.00184 10.72266,3.57436 z m -6.62488,-49.45116 c -21.28183,-16.71584 -29.43498,-44.31533 -20.52483,-69.47941 6.22986,-17.59445 17.90218,-29.76689 35.22627,-36.73557 31.54982,-12.69106 67.05909,2.11832 79.70318,33.24079 10.41438,25.63415 3.89799,53.05039 -16.81809,70.75825 -17.64472,15.08254 -39.99827,18.92101 -61.90471,10.63008 -7.45784,-2.82257 -10.94504,-4.69364 -15.68182,-8.41414 z m 36.98427,-12.3756 c 7.69519,0.33048 21.2192,-3.67432 27.42761,-9.04711 4.38098,-3.79131 5.34053,-5.26489 8.90801,-13.67945 3.79502,-8.95138 1.48209,-9.80286 0.813,-16.76152 -1.35058,-14.04679 -8.08536,-23.72961 -20.7872,-29.88653 -10.20351,-4.9459 -17.3805,-5.38306 -27.82371,-1.69484 -13.24067,4.67621 -22.17812,15.19164 -24.18512,28.45516 -1.73712,11.48026 0.90257,20.8945 8.32581,29.69335 6.92522,8.20852 15.84709,12.42784 27.3216,12.92094 z"
     style="fill:#000000;fill-opacity:1;stroke-width:0.92463869000000021" />
</svg>
