<?xml version="1.0" encoding="UTF-8" standalone="no"?>
<!-- Created with Inkscape (http://www.inkscape.org/) -->

<svg
   xmlns:dc="http://purl.org/dc/elements/1.1/"
   xmlns:cc="http://creativecommons.org/ns#"
   xmlns:rdf="http://www.w3.org/1999/02/22-rdf-syntax-ns#"
   xmlns:svg="http://www.w3.org/2000/svg"
   xmlns="http://www.w3.org/2000/svg"
   xmlns:sodipodi="http://sodipodi.sourceforge.net/DTD/sodipodi-0.dtd"
   xmlns:inkscape="http://www.inkscape.org/namespaces/inkscape"
   id="svg2"
   version="1.1"
   inkscape:version="0.48.5 r10040"
   width="128"
   height="128"
   sodipodi:docname="aptana.svg">
  <metadata
     id="metadata8">
    <rdf:RDF>
      <cc:Work
         rdf:about="">
        <dc:format>image/svg+xml</dc:format>
        <dc:type
           rdf:resource="http://purl.org/dc/dcmitype/StillImage" />
        <dc:title />
      </cc:Work>
    </rdf:RDF>
  </metadata>
  <defs
     id="defs6" />
  <sodipodi:namedview
     pagecolor="#ffffff"
     bordercolor="#666666"
     borderopacity="1"
     objecttolerance="10"
     gridtolerance="10"
     guidetolerance="10"
     inkscape:pageopacity="0"
     inkscape:pageshadow="2"
     inkscape:window-width="1920"
     inkscape:window-height="1007"
     id="namedview4"
     showgrid="false"
     inkscape:zoom="3.5488722"
     inkscape:cx="-26.254911"
     inkscape:cy="72.515772"
     inkscape:window-x="0"
     inkscape:window-y="31"
     inkscape:window-maximized="1"
     inkscape:current-layer="svg2" />
  <rect
     style="fill:none;fill-opacity:1;fill-rule:evenodd;stroke:none"
     id="rect2991"
     width="118.34746"
     height="118.62923"
     x="5.0720344"
     y="4.8347464"
     ry="15" />
  <path
     style="fill:#000000;fill-opacity:1;fill-rule:evenodd;stroke:#ff6600;stroke-width:0;stroke-linecap:round;stroke-linejoin:miter;stroke-miterlimit:4;stroke-opacity:1;stroke-dasharray:none"
     d="m 60.107839,111.64126 c -1.713622,-0.7784 -2.267323,-2.0791 -2.619432,-6.1533 -0.260992,-3.01983 -0.429798,-3.63086 -1.176735,-4.25937 -0.521247,-0.4386 -8.536481,-3.232694 -9.273434,-3.232694 -0.155637,0 -1.80172,1.478914 -3.65796,3.286474 -3.963849,3.85991 -4.845941,4.42041 -6.693105,4.25291 -1.944102,-0.17628 -3.488271,-1.57053 -4.023142,-3.63253 -0.484483,-1.86775 0.1187,-2.96849 3.850238,-7.02623 l 2.323676,-2.526802 -1.047287,-1.214846 c -0.57601,-0.668162 -1.692996,-2.046752 -2.482195,-3.063535 -2.050226,-2.641453 -2.524039,-3.113585 -3.12466,-3.113585 -0.283156,0 -1.918779,0.395082 -3.634719,0.877961 -4.722385,1.328916 -6.869171,1.468413 -8.427899,0.547636 -1.660651,-0.980978 -2.458331,-3.929823 -1.546519,-5.717142 0.695277,-1.362871 2.018094,-2.129563 6.364378,-3.688738 1.309232,-0.46967 2.606051,-1.033861 2.881821,-1.253753 l 0.501399,-0.399807 -0.213479,-2.139999 c -0.261611,-2.622487 -0.914844,-7.121286 -1.173505,-8.081892 -0.238133,-0.884367 -0.437514,-0.976477 -3.942701,-1.821493 -3.542168,-0.853934 -4.284417,-1.158771 -5.07749,-2.085305 -2.112797,-2.468354 -0.942276,-6.321558 2.20421,-7.255971 0.890894,-0.264572 1.268418,-0.266459 3.375284,-0.01688 3.363108,0.39839 5.2465,0.381048 5.629198,-0.05184 0.165587,-0.187302 0.842006,-1.424061 1.503153,-2.748353 0.661147,-1.324294 1.778857,-3.338395 2.4838,-4.475781 1.814493,-2.927592 2.388605,-3.910796 2.388605,-4.090645 0,-0.08627 -1.270361,-1.505414 -2.823024,-3.153673 -3.910395,-4.15115 -4.410526,-5.316257 -3.29461,-7.675135 0.822271,-1.738155 2.240399,-2.619167 4.215962,-2.619167 1.301771,0 2.497145,0.745477 5.616715,3.502785 3.299579,2.916415 3.635255,3.155105 4.23488,3.011308 0.251861,-0.0604 1.959451,-0.772995 3.794646,-1.583546 1.835195,-0.81055 4.334689,-1.811995 5.554436,-2.225433 1.219747,-0.413439 2.431129,-0.89154 2.691964,-1.062449 0.726081,-0.475753 0.964391,-1.331871 1.086409,-3.902939 0.128557,-2.708787 0.592733,-4.383337 1.550111,-5.592143 1.5736,-1.986848 4.807949,-2.081237 6.600423,-0.192623 0.902357,0.95076 1.162895,1.896828 1.35808,4.931454 0.09982,1.551927 0.242411,3.124985 0.316877,3.495681 0.160459,0.798792 0.278841,0.849442 4.124637,1.764792 3.109241,0.740041 5.11861,1.45114 9.003131,3.186136 1.580328,0.705842 2.944298,1.283349 3.03105,1.283349 0.08674,0 1.28946,-1.05846 2.672699,-2.352134 2.693547,-2.519148 4.276347,-3.81796 5.284632,-4.336461 0.788016,-0.405229 2.148914,-0.599586 3.034727,-0.433405 0.894877,0.167882 2.542477,1.499666 3.160989,2.555084 0.438294,0.747903 0.479725,0.977284 0.362955,2.009441 -0.184832,1.633688 -0.833684,2.640982 -3.527684,5.476462 -2.679068,2.81977 -3.173584,3.427423 -3.173584,3.899659 0,0.189414 0.62636,1.294116 1.391907,2.454896 0.765548,1.16078 2.04344,3.292699 2.839763,4.737598 1.885441,3.421085 2.191471,3.861115 2.773832,3.988423 0.26757,0.05849 1.668668,-0.026 3.113548,-0.18777 4.88923,-0.547388 6.01107,-0.35947 7.46226,1.249999 1.41526,1.569626 1.66378,3.083674 0.793,4.83113 -0.90026,1.806599 -1.41551,2.059175 -6.77913,3.323133 -1.38221,0.325728 -2.62945,0.708572 -2.77166,0.850774 -0.35632,0.356332 -0.59754,1.820468 -0.93845,5.696125 -0.420427,4.779606 -0.404234,5.237922 0.20195,5.71475 0.27376,0.215335 0.90863,0.540859 1.41083,0.723383 3.26672,1.187265 5.8673,2.292407 6.41587,2.726477 2.53193,2.003451 1.69353,6.393626 -1.45028,7.594271 -1.17927,0.450371 -2.69867,0.283376 -5.99846,-0.659294 -4.284517,-1.223978 -4.496095,-1.262962 -5.111032,-0.941745 -0.292758,0.152927 -0.759575,0.526682 -1.037376,0.830567 -0.634105,0.693653 -4.261632,5.424587 -4.720734,6.156662 l -0.341508,0.544565 0.934993,1.143886 c 0.514244,0.629134 1.656161,1.995736 2.537588,3.036881 0.881428,1.041157 1.790657,2.281486 2.020508,2.756306 1.171691,2.42041 0.240004,5.09136 -2.131108,6.10942 -2.574742,1.10549 -5.098262,-0.24748 -9.455573,-5.06956 -1.169113,-1.29381 -2.22481,-2.352389 -2.345998,-2.352389 -0.121188,0 -0.959805,0.297599 -1.863589,0.661329 -0.903783,0.36373 -2.694068,0.98382 -3.978407,1.37799 -1.284342,0.39416 -3.046657,0.93529 -3.916257,1.2025 -1.286326,0.39527 -1.625826,0.58279 -1.82106,1.00586 -0.131985,0.286 -0.36823,1.78977 -0.524983,3.3417 -0.156753,1.55192 -0.366944,3.14027 -0.46709,3.52965 -0.226311,0.87993 -1.502842,2.22147 -2.578575,2.7099 -1.062539,0.48244 -2.883672,0.48755 -3.9327,0.011 l 0,0 z M 68.20956,95.270449 c 5.536239,-1.121145 10.761968,-3.677731 14.811666,-7.246309 3.501765,-3.08574 6.287361,-7.312025 8.207742,-12.452715 1.228058,-3.287406 1.354135,-4.165088 1.363199,-9.489796 0.0088,-5.162058 -0.09469,-6.031267 -1.088768,-9.14616 C 88.087297,46.231321 78.921124,38.317267 67.728341,36.408137 65.70044,36.062242 60.837509,36.016192 58.790984,36.32351 c -4.623265,0.694243 -9.248171,2.52558 -13.001901,5.148392 -2.427375,1.696063 -5.888299,5.235835 -7.446686,7.616344 -5.247546,8.015868 -6.651386,17.286056 -3.894789,25.719049 1.539463,4.709536 3.863339,8.499154 7.367852,12.014998 4.93407,4.950019 11.270988,8.087742 17.865522,8.846099 2.196443,0.252585 6.25032,0.06344 8.528578,-0.397938 l 0,0 z"
     id="path3965"
     inkscape:connector-curvature="0" />
  <path
     style="fill:#000000;fill-opacity:1;fill-rule:evenodd;stroke:none"
     d="m 43.948949,81.692438 c -0.35252,-0.237202 -0.35746,-0.48139 -0.0352,-1.738956 0.57805,-2.255406 10.135672,-28.197226 12.274697,-33.316633 0.279477,-0.668885 0.728019,-1.170859 1.210855,-1.355101 0.461679,-0.176168 2.75389,-0.256303 5.759032,-0.201334 3.986028,0.07291 5.072336,0.176496 5.390234,0.513984 0.969413,1.029151 13.146269,33.760125 13.146269,35.336725 0,0.514479 -0.194802,0.699588 -0.880561,0.836739 -1.605102,0.32102 -7.953487,0.189172 -8.679769,-0.180266 -0.418448,-0.212854 -0.894193,-0.895392 -1.224648,-1.756969 -1.308688,-3.412065 -1.368711,-3.50594 -2.43028,-3.800822 -1.128491,-0.313474 -8.577462,-0.38415 -11.233096,-0.10658 l -1.706871,0.178403 -0.886005,2.476885 c -0.487302,1.362287 -1.088685,2.645114 -1.336407,2.850728 -0.554717,0.460426 -8.73366,0.690208 -9.36829,0.263197 l 0,0 z M 66.333126,67.858941 c 0.460564,-0.382235 0.163292,-1.994504 -1.274058,-6.909919 -2.234496,-7.641477 -2.695384,-7.748419 -4.657408,-1.080673 -1.323707,4.498486 -1.907704,7.440806 -1.548216,7.800294 0.719211,0.719211 6.660253,0.870363 7.479682,0.190298 l 0,0 z"
     id="path2987"
     inkscape:connector-curvature="0" />
</svg>
