<?xml version="1.0" encoding="UTF-8" standalone="no"?>
<!-- Created with Inkscape (http://www.inkscape.org/) -->

<svg
   xmlns:osb="http://www.openswatchbook.org/uri/2009/osb"
   xmlns:dc="http://purl.org/dc/elements/1.1/"
   xmlns:cc="http://creativecommons.org/ns#"
   xmlns:rdf="http://www.w3.org/1999/02/22-rdf-syntax-ns#"
   xmlns:svg="http://www.w3.org/2000/svg"
   xmlns="http://www.w3.org/2000/svg"
   xmlns:xlink="http://www.w3.org/1999/xlink"
   xmlns:sodipodi="http://sodipodi.sourceforge.net/DTD/sodipodi-0.dtd"
   xmlns:inkscape="http://www.inkscape.org/namespaces/inkscape"
   width="48"
   height="48"
   id="svg5453"
   version="1.1"
   inkscape:version="0.48.5 r10040"
   sodipodi:docname="atomic-engine.svg">
  <sodipodi:namedview
     id="base"
     pagecolor="#5a5a5a"
     bordercolor="#666666"
     borderopacity="1.0"
     inkscape:pageopacity="0"
     inkscape:pageshadow="2"
     inkscape:zoom="16.583368"
     inkscape:cx="12.331633"
     inkscape:cy="24.000026"
     inkscape:document-units="px"
     inkscape:current-layer="layer1"
     showgrid="false"
     fit-margin-top="0"
     fit-margin-left="0"
     fit-margin-right="0"
     fit-margin-bottom="0"
     inkscape:window-width="1920"
     inkscape:window-height="1007"
     inkscape:window-x="0"
     inkscape:window-y="31"
     inkscape:window-maximized="1"
     inkscape:showpageshadow="false"
     borderlayer="true"
     showguides="false"
     showborder="false">
    <inkscape:grid
       type="xygrid"
       id="grid4063" />
    <sodipodi:guide
       position="1.1650391e-05,47.999996"
       orientation="4,0"
       id="guide4146" />
    <sodipodi:guide
       position="1.1650391e-05,43.999996"
       orientation="0,48"
       id="guide4148" />
    <sodipodi:guide
       position="48.000012,43.999996"
       orientation="-4,0"
       id="guide4150" />
    <sodipodi:guide
       position="48.000012,47.999996"
       orientation="0,-48"
       id="guide4152" />
    <sodipodi:guide
       position="1.1650391e-05,4.0000264"
       orientation="4,0"
       id="guide4154" />
    <sodipodi:guide
       position="1.1650391e-05,2.6367188e-05"
       orientation="0,48"
       id="guide4156" />
    <sodipodi:guide
       position="48.000012,2.6367188e-05"
       orientation="-4,0"
       id="guide4158" />
    <sodipodi:guide
       position="48.000012,4.0000264"
       orientation="0,-48"
       id="guide4160" />
    <sodipodi:guide
       position="48.000012,48.000026"
       orientation="0,-4"
       id="guide4162" />
    <sodipodi:guide
       position="44.000012,48.000026"
       orientation="48,0"
       id="guide4164" />
    <sodipodi:guide
       position="44.000012,2.6367188e-05"
       orientation="0,4"
       id="guide4166" />
    <sodipodi:guide
       position="48.000012,2.6367188e-05"
       orientation="-48,0"
       id="guide4168" />
    <sodipodi:guide
       position="4.0000422,48.000026"
       orientation="0,-4"
       id="guide4170" />
    <sodipodi:guide
       position="4.2167969e-05,48.000026"
       orientation="48,0"
       id="guide4172" />
    <sodipodi:guide
       position="4.2167969e-05,2.6367188e-05"
       orientation="0,4"
       id="guide4174" />
    <sodipodi:guide
       position="4.0000422,2.6367188e-05"
       orientation="-48,0"
       id="guide4176" />
    <sodipodi:guide
       position="8,4.00003"
       orientation="0,14"
       id="guide4163" />
    <sodipodi:guide
       position="18,44"
       orientation="0,-13.99996"
       id="guide4169" />
    <sodipodi:guide
       position="4.00004,44"
       orientation="24,0"
       id="guide4171" />
    <sodipodi:guide
       position="33,44"
       orientation="0,-11"
       id="guide4216" />
  </sodipodi:namedview>
  <defs
     id="defs5455">
    <linearGradient
       inkscape:collect="always"
       id="linearGradient4708">
      <stop
         style="stop-color:#cccccc;stop-opacity:1"
         offset="0"
         id="stop4710" />
      <stop
         style="stop-color:#ffffff;stop-opacity:1"
         offset="1"
         id="stop4712" />
    </linearGradient>
    <clipPath
       id="clipPath-440877745">
      <g
         transform="translate(0 -1004.4)"
         id="g17">
        <path
           fill="#1890d0"
           transform="matrix(15.333 0 0 11.5 415 878.86)"
           d="m-24 13c0 1.105-0.672 2-1.5 2s-1.5-0.895-1.5-2 0.672-2 1.5-2 1.5 0.895 1.5 2z"
           id="path19" />
      </g>
    </clipPath>
    <linearGradient
       osb:paint="gradient"
       id="linearGradient4207">
      <stop
         id="stop3371"
         offset="0"
         style="stop-color:#3498db;stop-opacity:1;" />
      <stop
         id="stop3373"
         offset="1"
         style="stop-color:#3498db;stop-opacity:0;" />
    </linearGradient>
    <linearGradient
       id="linearGradient4288-0"
       inkscape:collect="always">
      <stop
         id="stop4290-7"
         offset="0"
         style="stop-color:#00a199;stop-opacity:1" />
      <stop
         id="stop4292-0"
         offset="1"
         style="stop-color:#00f89a;stop-opacity:0.98823529" />
    </linearGradient>
    <linearGradient
       inkscape:collect="always"
       xlink:href="#linearGradient4288-0"
       id="linearGradient4646"
       gradientUnits="userSpaceOnUse"
       x1="401.17508"
       y1="546.802"
       x2="401.17508"
       y2="516.92767"
       gradientTransform="matrix(1.6335015,0,0,1.6335015,-245.76255,-344.89471)" />
    <linearGradient
       inkscape:collect="always"
       xlink:href="#linearGradient4288-0"
       id="linearGradient4648"
       gradientUnits="userSpaceOnUse"
       x1="401.17508"
       y1="546.802"
       x2="401.17508"
       y2="516.92767"
       gradientTransform="matrix(1.6335015,0,0,1.6335015,-245.76255,-344.89471)" />
    <clipPath
       clipPathUnits="userSpaceOnUse"
       id="clipPath19758">
      <circle
         style="opacity:1;fill:none;fill-opacity:1;stroke:url(#linearGradient19762);stroke-width:2.26199532;stroke-miterlimit:4;stroke-dasharray:none;stroke-dashoffset:0;stroke-opacity:1"
         id="circle19760"
         cx="433.30255"
         cy="423.79526"
         r="22.868952" />
    </clipPath>
    <linearGradient
       inkscape:collect="always"
       xlink:href="#linearGradient4708"
       id="linearGradient19762"
       gradientUnits="userSpaceOnUse"
       gradientTransform="matrix(1.6335015,0,0,1.6335015,-221.03147,-444.89748)"
       x1="401.17508"
       y1="546.802"
       x2="401.17508"
       y2="516.92767" />
    <linearGradient
       inkscape:collect="always"
       xlink:href="#linearGradient4708"
       id="linearGradient19827"
       gradientUnits="userSpaceOnUse"
       x1="10.9905"
       y1="24.146774"
       x2="36.982544"
       y2="24.7253"
       gradientTransform="matrix(1.3189818,0,0,1.3189818,376.89309,493.31534)" />
    <linearGradient
       inkscape:collect="always"
       xlink:href="#linearGradient4708"
       id="linearGradient19829"
       gradientUnits="userSpaceOnUse"
       x1="10.9905"
       y1="24.146774"
       x2="36.982544"
       y2="24.146774"
       gradientTransform="matrix(1.3189818,0,0,1.3189818,376.92207,492.36676)" />
    <linearGradient
       inkscape:collect="always"
       xlink:href="#linearGradient4708"
       id="linearGradient19831"
       gradientUnits="userSpaceOnUse"
       x1="10.9905"
       y1="24.146774"
       x2="36.982544"
       y2="24.146774"
       gradientTransform="matrix(1.3189818,0,0,1.3189818,377.82806,492.23584)" />
  </defs>
  <metadata
     id="metadata5458">
    <rdf:RDF>
      <cc:Work
         rdf:about="">
        <dc:format>image/svg+xml</dc:format>
        <dc:type
           rdf:resource="http://purl.org/dc/dcmitype/StillImage" />
        <dc:title />
      </cc:Work>
    </rdf:RDF>
  </metadata>
  <g
     inkscape:label="Capa 1"
     inkscape:groupmode="layer"
     id="layer1"
     transform="translate(-384.57143,-499.798)">
    <text
       x="-282.63968"
       y="457.58408"
       xml:space="preserve"
       font-size="12.666px"
       id="text4087-2-6-5-55-6"
       style="font-size:12.66600037px;font-family:'Bitstream Vera Sans';opacity:0.8;fill:#000000"><tspan
         x="-282.63968"
         y="457.58408"
         id="tspan4089-7-2-9-32-1" /></text>
    <circle
       style="opacity:1;fill:none;fill-opacity:1;stroke:#1a1a1a;stroke-width:1;stroke-miterlimit:4;stroke-dasharray:none;stroke-dashoffset:0;stroke-opacity:1"
       id="circle4632"
       cx="408.57138"
       cy="523.79797"
       r="22.868952"
       d="m 431.44033,523.79797 c 0,12.63018 -10.23878,22.86896 -22.86895,22.86896 -12.63017,0 -22.86895,-10.23878 -22.86895,-22.86896 0,-12.63017 10.23878,-22.86895 22.86895,-22.86895 12.63017,0 22.86895,10.23878 22.86895,22.86895 z" />
    <g
       id="g19880"
       style="fill:#000000;fill-opacity:1"
       transform="translate(45.376924,-8.1393586)">
      <path
         style="fill:#000000;fill-opacity:1"
         inkscape:connector-curvature="0"
         id="path55-8"
         d="m 365.29044,531.7992 c 0,1.09212 -0.88636,1.97847 -1.97847,1.97847 -1.09212,0 -1.97847,-0.88635 -1.97847,-1.97847 0,-1.09211 0.88635,-1.98374 1.97847,-1.98374 1.09211,0 1.97847,0.89163 1.97847,1.98374" />
      <path
         sodipodi:nodetypes="csccccccccccccccsscsccscccccc"
         d="m 368.52256,547.8884 c -1.30118,-0.21367 -2.79657,-1.06639 -4.35247,-2.43846 -1.55591,-1.37207 -3.17231,-3.26349 -4.71552,-5.55456 -1.29261,-1.92176 -2.61686,-4.29725 -3.6133,-6.61845 -1.25868,-2.5971 -2.22239,-5.60078 -2.6479,-8.09089 -0.2142,-1.42341 -0.23057,-1.47991 -0.26492,-2.8134 0.0256,-1.76513 0.0151,-1.71371 0.23856,-2.81338 0.41679,-1.47858 1.16993,-2.36493 2.3702,-2.77645 0.48935,-0.16488 1.47331,-0.13851 2.14335,0.062 0.68059,0.20048 1.51419,0.61332 2.25677,1.11322 0.88636,0.59222 1.14884,0.84019 1.18445,1.12772 0.0831,0.65949 -0.59222,1.01562 -1.14883,0.59751 -1.74106,-1.29261 -2.98353,-1.7925 -3.98333,-1.58147 -0.72676,0.15432 -1.27809,0.89691 -1.5564,2.09191 -0.11342,0.47352 -0.12926,0.70039 -0.12926,1.88086 0.22727,5.33021 2.94435,11.06023 4.80485,14.39532 0.88698,1.58904 2.03211,3.21812 3.09601,4.75925 1.06389,1.54112 2.22643,2.92234 3.50793,3.87179 1.28149,0.94944 2.32586,1.64516 3.86563,1.45918 0.43526,-0.21369 1.12441,-0.77556 1.35737,-1.33662 0.23297,-0.56106 0.36586,-1.29937 0.40081,-2.22199 0.11343,-3.09697 -0.99979,-7.37838 -3.07587,-11.80356 -0.21631,-0.45902 -0.34556,-0.80854 -0.34556,-0.9378 0,-0.37064 0.30864,-0.66477 0.68982,-0.65949 0.34029,0 0.48934,0.13453 0.75182,0.68587 1.68434,3.52432 2.80811,7.06315 3.23019,10.14957 0.13849,1.0354 0.13849,3.15368 0,3.91077 -0.22687,1.21083 -0.62915,2.08136 -1.2372,2.69996 -0.74656,0.74655 -1.71073,1.03013 -2.85428,0.84547"
         id="path53-5-9"
         inkscape:connector-curvature="0"
         style="fill:#000000;fill-opacity:1" />
      <path
         sodipodi:nodetypes="scccccccccccccccccscccccccccccsscccccccccscccccccccccccccccccccccccccscc"
         inkscape:connector-curvature="0"
         id="path53-4-4-8"
         transform="translate(384.57143,499.798)"
         d="m -14.482422,16.460938 c -0.459049,-0.01016 -0.957871,0.05643 -1.496094,0.199218 -1.225253,0.499631 -2.327689,1.119054 -3.488281,1.902344 -0.289569,0.208052 -0.580453,0.418915 -0.878906,0.658203 -1.56564,1.25699 -3.626958,3.390694 -5.048828,5.214844 l -0.138672,0.164062 -1.138672,1.47461 c 0,0.02639 -0.235177,0.391588 -0.529297,0.824219 -0.29414,0.427349 -0.711424,1.054026 -0.927734,1.410156 l 0,0.002 c -0.21104,0.34557 -0.418185,0.658878 -0.458985,0.705078 l -0.927734,1.699219 -0.449219,0.865234 c -1.79248,3.46233 -2.941578,6.992969 -3.080078,9.574219 -0.11343,1.98903 0.247237,3.409936 1.123047,4.291015 0.170292,0.170527 0.357627,0.308803 0.552734,0.431641 0.195276,0.129529 0.401344,0.244316 0.63086,0.330078 1.16473,0.43216 2.607733,0.171321 4.371093,-0.755859 2.292,-1.19532 5.028721,-3.703831 7.4375,-6.769531 l 0.601563,-0.765625 1.162109,-1.548828 c 0.0251,-0.0563 0.226025,-0.375698 0.453125,-0.710938 0.23454,-0.3444 0.633281,-0.982984 0.900391,-1.427734 0.27193,-0.44691 0.50723,-0.813289 0.53125,-0.824219 l 0.869141,-1.646485 0.0918,-0.193359 c 1.07128,-2.04978 2.158786,-4.810169 2.654296,-6.755859 0.09392,-0.369808 0.167033,-0.721421 0.236328,-1.070313 0.298465,-1.230915 0.4738,-2.697624 0.285154,-3.964843 -0.225413,-1.330886 -0.767977,-2.263815 -1.615235,-2.783204 -0.487532,-0.334253 -1.061189,-0.514651 -1.722656,-0.529296 z m -0.09766,1.457031 c 0.252554,0 0.404314,0.0035 0.529297,0.01953 0.0285,0.0081 0.05577,0.01039 0.08398,0.01953 0.06126,0.01225 0.118846,0.03397 0.173828,0.05664 0.05952,0.0247 0.119292,0.04942 0.173828,0.07813 0.03636,0.02015 0.07268,0.04337 0.109375,0.06836 0.02842,0.01794 0.05632,0.03576 0.08203,0.05469 0.0476,0.0367 0.09253,0.08038 0.138672,0.123047 0.04754,0.04379 0.09538,0.08922 0.134765,0.144531 0.01806,0.01987 0.02951,0.04206 0.04687,0.0625 0.0667,0.107243 0.135087,0.243586 0.240234,0.474609 0.23931,0.52581 0.267413,0.63714 0.320313,1.22461 0.17958,1.83697 -0.295904,4.249787 -1.396484,7.117187 -0.2115,0.55419 -0.56086,1.381279 -0.78125,1.855469 l -0.384766,0.871094 -0.814453,1.580078 -0.316406,0.574219 c -0.86627,1.48468 -1.793774,2.924775 -2.783204,4.328124 l -1.179687,1.478516 c -0.0558,0.13845 -1.234627,1.506678 -1.960937,2.273438 -1.039796,1.09912 -2.086351,2.030846 -3.152344,2.822265 -1.167157,0.933503 -2.475232,1.557227 -3.791016,1.796875 -0.468237,0.08024 -0.872394,0.05185 -1.216797,-0.08008 -0.01823,-0.0074 -0.0349,-0.01743 -0.05273,-0.02539 -0.08247,-0.03496 -0.16118,-0.07548 -0.236328,-0.123047 -0.06847,-0.04476 -0.132023,-0.09558 -0.19336,-0.150391 -0.02236,-0.01926 -0.04678,-0.03604 -0.06836,-0.05664 -0.259733,-0.258357 -0.450284,-0.614335 -0.570312,-1.070312 -0.286517,-1.613126 -0.249196,-2.756092 0.06441,-4.195313 0.278745,-1.297625 0.694227,-2.635939 1.263671,-4.037109 0.397011,-0.97869 1.154913,-2.618422 1.257813,-2.726563 l 0.855469,-1.685546 c 0.86742,-1.48187 1.794649,-2.922702 2.787109,-4.326172 l 0.392578,-0.525391 1.09961,-1.396484 0.632812,-0.710938 c 0.3403,-0.39702 0.948445,-1.056445 1.365235,-1.478515 2.153899,-2.18951 4.152097,-3.623204 5.898437,-4.220704 0.55661,-0.195209 0.670337,-0.214843 1.248047,-0.214843 z"
         style="fill:#000000;fill-opacity:1" />
      <path
         sodipodi:nodetypes="ccccccccccccccccccccccccccccccccccccccccc"
         inkscape:connector-curvature="0"
         id="path53-4-1"
         transform="translate(384.57143,499.798)"
         d="m -22.279297,24.427734 c 0,0 -1.173263,-8.09e-4 -3.189453,0.08789 -0.70566,0.04088 -1.85268,0.154863 -3.1875,0.314453 -0.97059,0.15323 -0.97246,0.172706 -2.3125,0.447266 -2.7725,0.63311 -4.797572,1.576074 -6.013672,2.802734 -0.54607,0.54605 -0.84996,1.026126 -1.02539,1.628906 -0.01669,0.05629 -0.02491,0.133984 -0.03711,0.203125 -0.10838,0.432799 -0.151064,1.055994 -0.07813,1.414063 0.12217,0.61579 0.382546,1.119327 0.878906,1.710937 1.10445,1.32807 3.037431,2.443847 5.744141,3.316407 1.31098,0.39042 1.312105,0.411127 2.265625,0.648437 1.31581,0.27543 2.449037,0.489517 3.148437,0.591797 2.00077,0.26425 3.169922,0.365234 3.169922,0.365234 5.716579,0.363464 10.831542,-0.222164 14.384766,-1.578125 0.00485,0.0016 0.00877,0.0044 0.013672,0.0059 1.6651076,-0.388251 4.2060473,-2.015618 4.6386719,-3.689456 0.073971,-0.317692 0.068104,-0.845185 0.013672,-1.22461 -0.00305,-0.04414 0.00545,-0.108196 0,-0.146484 C -4.8371867,29.03622 -6.3248896,28.051346 -8.1054735,27.244177 -11.526532,25.588771 -16.563321,24.564142 -22.279302,24.42777 Z m -1.638672,1.38086 1.029297,0 c 6.26121,0 12.459194,1.416207 15.7460939,3.585937 0.67004,0.44317 1.4782931,1.253053 1.7207031,1.726563 0.087195,0.163865 0.1341651,0.267925 0.1601562,0.384765 0.00802,0.107314 0.0054,0.22459 -0.011719,0.419922 -0.0382,0.43624 -0.062035,0.522758 -0.265625,0.835938 -0.28279,0.45056 -1.1590744,1.187292 -1.8652344,1.570312 -3.4636498,1.87472 -9.7607068,2.745429 -15.9980468,2.199219 l -1.027344,-0.08984 -1.832031,-0.232422 c -1.11004,-0.15302 -1.103385,-0.14449 -2.666015,-0.52539 -0.98519,-0.30438 -2.142932,-0.659143 -2.457032,-0.757813 -0.745204,-0.253003 -1.389382,-0.525388 -1.984375,-0.808593 -1.401355,-0.779904 -3.557931,-2.318895 -3.304687,-3.888672 0.284555,-0.871411 0.522759,-1.709098 2.660634,-2.626306 1.876953,-0.790544 2.154928,-0.720828 3.032725,-0.891272 0.32151,-0.07089 1.507645,-0.323746 2.515625,-0.541016 1.58991,-0.24313 1.580059,-0.235416 2.699219,-0.291016 z"
         style="fill:#000000;fill-opacity:1" />
    </g>
  </g>
</svg>
