<?xml version="1.0" encoding="UTF-8" standalone="no"?>
<svg
   xmlns:dc="http://purl.org/dc/elements/1.1/"
   xmlns:cc="http://creativecommons.org/ns#"
   xmlns:rdf="http://www.w3.org/1999/02/22-rdf-syntax-ns#"
   xmlns:svg="http://www.w3.org/2000/svg"
   xmlns="http://www.w3.org/2000/svg"
   xmlns:sodipodi="http://sodipodi.sourceforge.net/DTD/sodipodi-0.dtd"
   xmlns:inkscape="http://www.inkscape.org/namespaces/inkscape"
   height="512"
   id="Layer_1"
   version="1.1"
   viewBox="0 0 512 512"
   width="512"
   xml:space="preserve"
   inkscape:version="0.48.5 r10040"
   sodipodi:docname="audacity.svg"><metadata
     id="metadata52"><rdf:RDF><cc:Work
         rdf:about=""><dc:format>image/svg+xml</dc:format><dc:type
           rdf:resource="http://purl.org/dc/dcmitype/StillImage" /><dc:title /></cc:Work></rdf:RDF></metadata><defs
     id="defs50" /><sodipodi:namedview
     pagecolor="#ffffff"
     bordercolor="#666666"
     borderopacity="1"
     objecttolerance="10"
     gridtolerance="10"
     guidetolerance="10"
     inkscape:pageopacity="0"
     inkscape:pageshadow="2"
     inkscape:window-width="1920"
     inkscape:window-height="1007"
     id="namedview48"
     showgrid="false"
     inkscape:zoom="0.62769538"
     inkscape:cx="-27.108228"
     inkscape:cy="307.69093"
     inkscape:window-x="0"
     inkscape:window-y="31"
     inkscape:window-maximized="1"
     inkscape:current-layer="Layer_1" /><g
     id="g4208"
     style="fill:#000000;fill-opacity:1"><path
       sodipodi:nodetypes="ccccccccccccccsccccccccccccccccccccsccccccccccccscccccccccccccccccccccccccccccccccc"
       id="path55"
       d="m 275.13434,229.27861 c -2.40026,-0.32591 -4.58717,0.87582 -6.05397,1.75167 -1.36016,0.95732 -1.7602,1.75169 -2.40027,2.70899 -1.14679,1.91462 -1.68018,4.37919 -2.29358,7.16965 -1.46683,5.64202 -2.90697,13.13756 -3.6537,22.4459 -1.46683,18.61664 -2.72031,43.36415 -3.54706,68.11166 -0.82677,24.82899 -1.68019,49.65797 -3.65372,68.11167 -0.93342,9.22686 -1.97354,17.35381 -3.54706,22.4459 -0.21334,0.63142 -1.0401,0.46847 -1.25346,0.87584 -1.36014,-3.82925 -2.80029,-9.7157 -3.54704,-17.02792 -1.76018,-14.64483 -1.76018,-34.05583 -2.40025,-53.79274 -0.72006,-19.81838 -1.86687,-39.61639 -3.94709,-54.66859 -0.5334,-7.55665 -1.76018,-14.01341 -3.65371,-18.86105 -0.82676,-2.46458 -2.08024,-4.46067 -3.54705,-6.29382 -1.76019,-1.75168 -3.94708,-3.58482 -7.28076,-3.58482 -2.90698,0 -6.5607,1.34431 -8.42757,2.62751 -1.76019,1.3443 -2.50694,2.79046 -3.54704,4.46066 -1.97356,3.50336 -2.72031,7.55665 -3.65373,12.56726 -1.7602,9.93973 -2.90697,22.99582 -3.54705,35.8075 -0.61338,12.81168 -0.82675,25.62335 -2.40025,34.93168 -0.82675,4.6236 -2.80031,8.59543 -3.94708,10.81558 -0.53341,1.03879 -1.0401,1.58874 -1.25347,1.75167 -0.32003,0 -0.82675,-0.54995 -1.25348,-0.87582 -0.72006,-0.54995 -1.76017,-2.30163 -2.40025,-4.46067 -1.76018,-4.21625 -1.86687,-10.51007 -2.29356,-17.02792 -0.61339,-6.43639 -0.61339,-13.28015 -2.80031,-18.86107 -1.04012,-2.79046 -2.18691,-5.0106 -4.80051,-7.16965 -2.80029,-2.13867 -7.70747,-3.74777 -11.97461,-3.58483 l -2.00021,10.36748 2.61362,-1.75167 2.80031,0.87582 c 0.53338,0.40738 1.68015,1.50726 2.6136,3.58485 1.76019,3.97182 1.76019,10.65261 2.40025,17.0279 0.61339,6.4364 0.61339,13.28015 2.80031,19.10548 0.53337,2.79048 2.72027,4.68473 5.09386,7.16966 2.72029,2.22015 6.45403,3.58483 10.61446,3.58483 2.80031,0 5.20056,-0.3259 7.28078,-1.75169 1.68017,-1.28319 2.72029,-3.66629 3.86708,-5.41796 1.76017,-3.42188 2.80029,-7.55665 3.54704,-12.48578 1.76018,-10.0212 3.01366,-22.99584 3.76039,-35.80751 0.5334,-12.81169 0.6134,-25.78632 2.61363,-35.01315 0.61339,-4.68471 2.50691,-7.7196 3.76039,-9.7768 0.61339,0.54995 0.72008,0.95731 1.76018,1.75168 1.36013,3.89034 2.80029,9.77679 3.54706,17.02791 1.76018,14.86889 1.76018,34.05584 2.40025,53.93533 0.72006,19.73691 1.86687,39.47382 3.94707,54.5871 0.5334,7.55665 1.68017,14.07452 3.86708,18.86108 0.6134,2.46456 1.76019,4.68471 3.9471,6.43638 1.76018,1.75167 4.8005,3.58481 8.42757,3.58481 2.0802,0 3.54704,-0.9573 5.01385,-1.83314 1.36014,-0.79436 2.8003,-1.58873 3.76039,-2.62751 1.7602,-2.13866 2.80031,-4.21625 3.94708,-7.23076 1.7602,-5.49943 2.72031,-13.85047 3.94709,-23.32172 1.68019,-19.10549 2.72031,-44.15853 3.76042,-68.98752 0.53337,-24.99193 1.97353,-49.80053 3.86706,-68.27462 0.61341,-6.76228 0.61341,-11.46736 1.76018,-16.07059 1.46685,5.56055 2.72031,12.01729 3.9471,20.77568 1.68018,19.89984 3.86706,46.94897 5.01387,73.36669 1.0401,26.80472 1.76018,53.46685 3.94709,73.5093 0.53338,9.93973 2.18688,18.14816 3.86708,24.11607 0.61339,3.09599 1.25346,5.09209 2.40025,7.23078 0.61339,0.95729 1.14679,2.54602 2.29356,3.5848 1.7602,0.95733 3.9471,1.83316 6.13399,1.75169 3.86708,-0.24441 6.05399,-1.91462 7.20076,-3.58484 1.7602,-1.58871 2.80031,-3.25891 3.9471,-5.41796 1.68018,-4.13477 2.61362,-9.63421 3.54704,-16.07062 1.76018,-12.81167 2.8003,-29.83959 3.94709,-46.62307 0.61339,-16.70204 2.66589,-33.34295 4.85276,-45.66578 l 3.9471,-14.23747 -0.57286,-11.71179 c -3.86708,0 -8.307,1.99611 -9.45378,3.58484 -1.7602,1.67018 -1.7602,3.3404 -2.8003,5.41798 -1.68021,4.13476 -2.72029,9.71568 -3.86708,16.15208 -1.7602,12.81166 -3.9471,29.83959 -5.09389,46.5416 -1.0401,16.7835 -1.76018,33.42442 -3.94707,45.6658 -0.5334,4.6236 -1.68019,7.71958 -2.72029,10.81556 -1.76019,-5.41798 -2.72029,-12.97461 -3.9471,-22.44589 -1.68018,-19.65542 -2.72029,-45.99168 -3.86706,-72.63344 -0.93343,-26.58066 -1.7602,-53.05948 -3.94709,-73.42781 -0.5334,-10.18415 -1.68019,-18.86106 -3.86708,-25.05305 -0.6134,-3.17745 -1.14679,-5.88643 -2.80031,-8.04546 -0.53338,-1.20175 -1.46681,-1.75169 -2.50693,-2.79048 -0.93342,-0.95731 -3.54704,-2.30162 -6.05398,-2.6275"
       style="fill:#000000;fill-opacity:1;fill-rule:nonzero;stroke:none;stroke-width:1.33069301000000006;stroke-linecap:round;stroke-linejoin:round;stroke-miterlimit:4;stroke-dasharray:none;stroke-opacity:0.99607842999999996"
       inkscape:connector-curvature="0" /><path
       style="fill:#000000;fill-opacity:1;stroke-width:3.64207314999999987"
       clip-path="none"
       d="m 255.64282,32.346767 c -21.67784,-0.06847 -43.26929,3.482478 -64.98114,10.648798 -65.16709,21.50925 -112.888112,74.052965 -130.822992,144.053945 -6.63014,25.87988 -6.78657,28.31675 -6.66528,103.33672 0.10161,62.8836 0.25203,68.28949 2.10555,77.40116 6.59452,32.41685 27.8324,57.84308 57.995752,70.37316 3.26643,1.35689 6.62522,2.71287 10.09397,3.75588 1.32014,0.39699 2.86008,0.63402 4.1898,1.1737 2.91381,1.18254 5.41799,2.83386 6.62971,3.88394 8.6859,7.52726 23.39971,-5.86625 26.36589,-14.13842 0.0907,-0.25312 0.18392,-3.28471 0.27024,-6.76486 -0.91263,-5.0317 -1.44918,-10.21168 -1.42267,-15.51435 l 0.65467,-130.93061 c 0.0328,-6.26698 0.69166,-12.36767 1.95619,-18.24591 l -1.99178,-1.87082 c -4.12716,-3.87681 -0.0182,-12.15375 -8.83866,-12.19465 -7.29315,-0.0328 -9.06491,0.34891 -14.74611,3.16548 -3.55076,1.76021 -9.75492,4.14959 -13.78582,5.31371 -11.00333,3.17771 -24.150842,10.2257 -34.073312,18.26015 -4.87753,3.94943 -9.11971,7.17747 -9.42528,7.17747 -0.30484,0 -0.43457,-10.63019 -0.28445,-23.63083 l 0.27024,-23.63789 3.0517,-0.33434 c 1.67772,-0.18283 2.99732,-0.87563 3.36462,-1.25196 0.36726,-0.37634 1.77005,-5.7122 2.68177,-12.1426 12.181162,-85.9137 62.699962,-139.676755 142.915832,-152.099245 15.0803,-2.33541 43.19164,-2.33526 56.43079,0 50.64529,8.93335 95.11675,42.795635 118.96492,90.589435 10.32516,20.69255 15.40109,38.22632 18.08945,62.527 0.89376,8.07899 1.5615,10.18568 2.56791,11.07562 0.39571,0.35 0.6551,0.76498 1.33733,0.85359 4.73699,0.61515 4.95494,2.24847 4.93673,24.61248 -0.007,11.4958 -0.43108,21.54512 -0.93187,22.33614 -0.71785,1.13389 -2.20338,0.26806 -7.02807,-4.09733 -8.95728,-8.10489 -21.81059,-15.37163 -33.95235,-19.19202 -5.74064,-1.80632 -12.85879,-4.43619 -15.81317,-5.84724 -10.42489,-4.97911 -18.64764,-7.33662 -25.00098,-1.40245 l -3.14416,2.93784 0.007,0.4766 c 1.07063,5.43103 1.6432,11.04761 1.6432,16.80191 l 0,151.87962 c 0,4.79596 -0.40981,9.49296 -1.15949,14.07035 0.17591,4.98334 0.46935,7.59532 0.93896,8.50766 0.7196,1.39787 3.52403,3.63738 6.23137,4.97937 3.99419,1.97991 -1.37073,3.09129 5.36084,3.08036 9.00739,-0.0146 11.91815,-2.01767 16.63828,-5.8259 0.73031,-0.68259 4.91977,-2.36592 7.42642,-3.49271 2.2922,-1.03038 5.14037,-1.48906 7.88169,-2.41855 15.19892,-5.15357 25.26131,-11.52287 37.35969,-23.65924 12.012,-12.04965 18.45807,-22.17094 23.80153,-37.36683 7.88054,-27.05762 3.77017,-57.03607 3.94091,-85.11212 0.32269,-81.91944 0.24001,-83.54839 -5.833,-108.4157 C 442.77643,148.8989 424.6475,116.84068 397.76893,90.392305 375.94782,68.920205 349.84734,52.917345 321.13629,43.408145 299.08164,36.103525 277.3208,32.415238 255.643,32.346767 Z"
       id="path2992-7"
       inkscape:connector-curvature="0"
       sodipodi:nodetypes="cscsssccsccssccsssssccccssssssccsssscccssccsccsssccssssc" /><path
       id="path2991"
       d="m 431.95898,234.63477 -0.30273,20.4375 -0.32422,20.19531 5.44141,5.58984 c 6.14578,6.31215 12.80411,15.25088 15.58203,21.62305 1.02852,2.3593 1.29066,3.9282 2.39453,4.43164 0.0109,0.004 0.0221,0.008 0.0293,0.008 0.002,0 0.003,-3.5e-4 0.004,-0.002 0.26551,-0.66518 0.34994,-16.37419 0.1875,-36.14063 l 0.002,0 -0.29688,-36.14257 -11.35742,0 -11.35938,0 z m -374.974605,0.42968 -0.195313,11.9375 -0.08984,24.23243 c -0.156368,19.89311 0.0922,35.93159 0.185547,36.16796 0.833987,2.11123 1.307786,-1.99841 2.332031,-4.4414 2.673431,-6.37694 8.959525,-15.44748 14.996094,-21.63867 l 5.21875,-5.35352 -0.292969,-20.45117 -0.291016,-20.45313 -10.93164,0 -10.931641,0 z m 296.888675,10.79493 c -8.3684,0.20807 -16.73,2.73352 -19.04493,7.05664 -0.88441,1.65044 -0.8756,17.68587 0.0332,63.86718 0.66738,33.9144 1.29954,76.50545 1.40429,94.64844 l 0.19141,32.98828 2.71289,2.02539 c 1.74384,1.30095 4.28676,2.42325 6.20899,2.91016 l 0.28711,0.0547 c 0.47993,0.12164 0.85967,0.17141 1.64843,0.26172 2.37052,0.27131 5.86826,0.38772 8.89453,0.26171 8.85576,-0.36865 14.79341,-2.91913 16.00196,-6.84961 0.0229,-0.075 0.0462,-0.15086 0.0645,-0.22656 0.003,-0.007 0.005,-0.0166 0.008,-0.0312 0.012,-0.0652 0.0262,-0.17232 0.0371,-0.31836 0.38284,-4.49425 0.73794,-46.73991 0.80274,-96.52148 l 0.12304,-94.05664 -2.67578,-2.10352 c -3.67484,-2.88907 -10.18851,-4.12863 -16.69726,-3.96679 z m -195.96875,1.1875 c -9.55361,-0.12167 -19.9117,2.38053 -21.01172,6.1875 -1.01078,3.49893 -1.13416,71.76569 -0.23242,129.2246 1.0594,67.50568 0.53152,63.19214 7.98242,65.27344 1.72589,0.48211 6.95825,0.91645 11.62695,0.96485 9.26967,0.0961 16.64054,-1.93768 18.44922,-5.08789 0.62354,-1.08592 1.06612,-15.16567 1.07813,-33.91211 0.007,-17.63088 0.51463,-59.41277 1.12695,-92.84766 1.25773,-68.66699 1.75775,-64.09602 -7.43555,-67.88672 -3.06409,-1.2634 -7.24144,-1.86071 -11.58398,-1.91601 z"
       style="fill:#000000;fill-opacity:1;stroke:#000000;stroke-width:7.36515903000000005;stroke-miterlimit:4;stroke-dasharray:none;stroke-opacity:0.94117647000000004"
       inkscape:connector-curvature="0" /></g></svg>