<?xml version="1.0" encoding="UTF-8" standalone="no"?>
<!-- Created with Inkscape (http://www.inkscape.org/) -->

<svg
   xmlns:dc="http://purl.org/dc/elements/1.1/"
   xmlns:cc="http://creativecommons.org/ns#"
   xmlns:rdf="http://www.w3.org/1999/02/22-rdf-syntax-ns#"
   xmlns:svg="http://www.w3.org/2000/svg"
   xmlns="http://www.w3.org/2000/svg"
   xmlns:xlink="http://www.w3.org/1999/xlink"
   xmlns:sodipodi="http://sodipodi.sourceforge.net/DTD/sodipodi-0.dtd"
   xmlns:inkscape="http://www.inkscape.org/namespaces/inkscape"
   width="128"
   height="128"
   id="svg5453"
   version="1.1"
   inkscape:version="0.48.5 r10040"
   sodipodi:docname="baloo.svg">
  <defs
     id="defs5455">
    <linearGradient
       id="linearGradient4074"
       inkscape:collect="always">
      <stop
         id="stop4076"
         offset="0"
         style="stop-color:#007dba;stop-opacity:1" />
      <stop
         id="stop4078"
         offset="1"
         style="stop-color:#00afda;stop-opacity:1" />
    </linearGradient>
    <linearGradient
       gradientUnits="userSpaceOnUse"
       y2="-499.78632"
       x2="425.90933"
       y1="-547.82617"
       x1="425.90933"
       id="linearGradient4156"
       xlink:href="#linearGradient4074"
       inkscape:collect="always"
       gradientTransform="translate(-5.8251953e-6,-1.8183594e-5)" />
  </defs>
  <sodipodi:namedview
     id="base"
     pagecolor="#ffffff"
     bordercolor="#666666"
     borderopacity="1.0"
     inkscape:pageopacity="0"
     inkscape:pageshadow="2"
     inkscape:zoom="4.3176446"
     inkscape:cx="70.046958"
     inkscape:cy="63.140724"
     inkscape:document-units="px"
     inkscape:current-layer="layer1"
     showgrid="true"
     fit-margin-top="0"
     fit-margin-left="0"
     fit-margin-right="0"
     fit-margin-bottom="0"
     inkscape:window-width="1920"
     inkscape:window-height="1007"
     inkscape:window-x="0"
     inkscape:window-y="31"
     inkscape:window-maximized="1"
     inkscape:showpageshadow="false"
     borderlayer="true">
    <inkscape:grid
       type="xygrid"
       id="grid3000"
       empspacing="5"
       visible="true"
       enabled="true"
       snapvisiblegridlinesonly="true" />
  </sodipodi:namedview>
  <metadata
     id="metadata5458">
    <rdf:RDF>
      <cc:Work
         rdf:about="">
        <dc:format>image/svg+xml</dc:format>
        <dc:type
           rdf:resource="http://purl.org/dc/dcmitype/StillImage" />
        <dc:title />
      </cc:Work>
    </rdf:RDF>
  </metadata>
  <g
     inkscape:label="Capa 1"
     inkscape:groupmode="layer"
     id="layer1"
     transform="translate(-384.57143,-419.798)">
    <path
       style="fill:#000000;fill-opacity:1;fill-rule:evenodd;stroke:none"
       d="m 432.05496,426.84723 a 22.480773,13.752943 86.752217 0 0 -12.45726,23.22378 22.480773,13.752943 86.752217 0 0 15.00443,21.66534 22.480773,13.752943 86.752217 0 0 12.45729,-23.22384 22.480773,13.752943 86.752217 0 0 -15.00446,-21.66528 z m 41.59367,3.82437 a 13.752943,22.480773 24.091227 0 0 -17.61122,15.65109 13.752943,22.480773 24.091227 0 0 3.37875,26.13634 13.752943,22.480773 24.091227 0 0 21.73144,-14.90854 13.752943,22.480773 24.091227 0 0 -3.37876,-26.1367 13.752943,22.480773 24.091227 0 0 -4.12021,-0.74219 z m -74.77498,16.05884 a 22.480773,13.752943 71.752218 0 0 -2.73518,0.42998 22.480773,13.752943 71.752218 0 0 -6.02189,25.65672 22.480773,13.752943 71.752218 0 0 20.1007,17.04369 22.480773,13.752943 71.752218 0 0 6.02189,-25.65671 22.480773,13.752943 71.752218 0 0 -17.36552,-17.47368 z m 101.20787,12.53714 a 13.752943,22.480773 30.810573 0 0 -19.32144,13.48341 13.752943,22.480773 30.810573 0 0 0.29747,26.35191 13.752943,22.480773 30.810573 0 0 23.32663,-12.26353 13.752943,22.480773 30.810573 0 0 -0.29747,-26.35227 13.752943,22.480773 30.810573 0 0 -4.00516,-1.21952 z m -54.44648,14.28981 c -5.31783,-0.003 -10.85347,3.33824 -14.59856,10.55749 -6.45987,7.64424 -8.67559,10.4555 -22.48088,17.01505 -6.84136,4.85834 -10.1679,11.57152 -8.55149,20.89373 4.41025,14.80459 18.40539,15.28496 23.80319,15.33995 7.52301,0.82285 14.15578,-0.43105 22.5688,2.46847 8.04549,0.61995 15.68003,3.29498 24.15589,1.76297 19.82748,-6.2693 16.01045,-27.11833 4.69427,-34.70961 l -15.27354,-21.18378 c -2.54374,-7.8346 -8.29075,-12.13914 -14.31768,-12.14427 z"
       id="path4126"
       inkscape:connector-curvature="0" />
  </g>
</svg>
