<?xml version="1.0" encoding="UTF-8" standalone="no"?>
<!-- Created with Inkscape (http://www.inkscape.org/) -->

<svg
   xmlns:dc="http://purl.org/dc/elements/1.1/"
   xmlns:cc="http://creativecommons.org/ns#"
   xmlns:rdf="http://www.w3.org/1999/02/22-rdf-syntax-ns#"
   xmlns:svg="http://www.w3.org/2000/svg"
   xmlns="http://www.w3.org/2000/svg"
   xmlns:xlink="http://www.w3.org/1999/xlink"
   xmlns:sodipodi="http://sodipodi.sourceforge.net/DTD/sodipodi-0.dtd"
   xmlns:inkscape="http://www.inkscape.org/namespaces/inkscape"
   id="svg2987"
   version="1.1"
   inkscape:version="0.48.5 r10040"
   width="512"
   height="512"
   sodipodi:docname="beatbox.svg"
   viewBox="0 0 512 512">
  <metadata
     id="metadata2993">
    <rdf:RDF>
      <cc:Work
         rdf:about="">
        <dc:format>image/svg+xml</dc:format>
        <dc:type
           rdf:resource="http://purl.org/dc/dcmitype/StillImage" />
        <dc:title />
      </cc:Work>
    </rdf:RDF>
  </metadata>
  <defs
     id="defs2991">
    <inkscape:perspective
       id="perspective3810"
       inkscape:persp3d-origin="12 : 8 : 1"
       inkscape:vp_z="24 : 12 : 1"
       inkscape:vp_y="0 : 1000 : 0"
       inkscape:vp_x="0 : 12 : 1"
       sodipodi:type="inkscape:persp3d" />
    <radialGradient
       r="2"
       fy="21.5"
       fx="3"
       cy="21.5"
       cx="3"
       gradientTransform="matrix(1,0,0,1.25,0,-5.375)"
       gradientUnits="userSpaceOnUse"
       id="radialGradient3084"
       xlink:href="#linearGradient4082"
       inkscape:collect="always" />
    <linearGradient
       id="linearGradient4082">
      <stop
         id="stop4084"
         offset="0"
         style="stop-color:#4d4d4d;stop-opacity:1;" />
      <stop
         id="stop4086"
         offset="1"
         style="stop-color:#333333;stop-opacity:1;" />
    </linearGradient>
    <radialGradient
       r="10"
       fy="30"
       fx="-14"
       cy="30"
       cx="-14"
       gradientUnits="userSpaceOnUse"
       id="radialGradient3095"
       xlink:href="#linearGradient3982"
       inkscape:collect="always" />
    <linearGradient
       id="linearGradient3982">
      <stop
         id="stop3984"
         offset="0"
         style="stop-color:#000000;stop-opacity:0.80000001;" />
      <stop
         id="stop3986"
         offset="1"
         style="stop-color:#ffffff;stop-opacity:0.1;" />
    </linearGradient>
    <radialGradient
       r="10"
       fy="30"
       fx="-14"
       cy="30"
       cx="-14"
       gradientUnits="userSpaceOnUse"
       id="radialGradient3079"
       xlink:href="#linearGradient3982"
       inkscape:collect="always" />
    <radialGradient
       r="2"
       fy="21.5"
       fx="3"
       cy="21.5"
       cx="3"
       gradientTransform="matrix(1,0,0,1.25,0,-5.375)"
       gradientUnits="userSpaceOnUse"
       id="radialGradient3081"
       xlink:href="#linearGradient4082"
       inkscape:collect="always" />
    <radialGradient
       r="2"
       fy="21.5"
       fx="3"
       cy="21.5"
       cx="3"
       gradientTransform="matrix(1,0,0,1.25,0,-5.375)"
       gradientUnits="userSpaceOnUse"
       id="radialGradient3084-0"
       xlink:href="#linearGradient4082"
       inkscape:collect="always" />
    <linearGradient
       y2="-211.97903"
       x2="347.93805"
       y1="-244.04208"
       x1="315.875"
       gradientTransform="translate(-307.99999,1255.6545)"
       gradientUnits="userSpaceOnUse"
       id="linearGradient3012"
       xlink:href="#linearGradient3914"
       inkscape:collect="always" />
    <linearGradient
       id="linearGradient3914">
      <stop
         id="stop3916"
         offset="0"
         style="stop-color:#ffffff;stop-opacity:0.14901961;" />
      <stop
         id="stop3918"
         offset="1"
         style="stop-color:#177ed5;stop-opacity:0;" />
    </linearGradient>
  </defs>
  <sodipodi:namedview
     pagecolor="#ffffff"
     bordercolor="#666666"
     borderopacity="1"
     objecttolerance="10"
     gridtolerance="10"
     guidetolerance="10"
     inkscape:pageopacity="0"
     inkscape:pageshadow="2"
     inkscape:window-width="1920"
     inkscape:window-height="1007"
     id="namedview2989"
     showgrid="false"
     inkscape:zoom="0.78125"
     inkscape:cx="-258.32633"
     inkscape:cy="429.15205"
     inkscape:window-x="0"
     inkscape:window-y="31"
     inkscape:window-maximized="1"
     inkscape:current-layer="svg2987"
     inkscape:document-units="px" />
  <g
     transform="matrix(0.74491184,0,0,0.74491184,854.10249,-209.93644)"
     id="layer1"
     inkscape:label="Layer 1">
    <circle
       id="path3888-0"
       style="fill:none;fill-opacity:1;stroke:#000000;stroke-width:21.4790518;stroke-opacity:1;stroke-miterlimit:4;stroke-dasharray:none"
       cx="-689.94348"
       cy="625.49207"
       r="84.374962"
       d="m -605.56852,625.49207 c 0,46.599 -37.77596,84.37496 -84.37496,84.37496 -46.59901,0 -84.37496,-37.77596 -84.37496,-84.37496 0,-46.59901 37.77595,-84.37497 84.37496,-84.37497 46.599,0 84.37496,37.77596 84.37496,84.37497 z" />
    <circle
       id="path3926"
       style="fill:#000000;fill-opacity:1;stroke:none;stroke-width:0.99999994000000003"
       cx="-689.94348"
       cy="625.49207"
       r="5.6249976"
       d="m -684.31848,625.49207 c 0,3.1066 -2.5184,5.62499 -5.625,5.62499 -3.1066,0 -5.625,-2.51839 -5.625,-5.62499 0,-3.1066 2.5184,-5.625 5.625,-5.625 3.1066,0 5.625,2.5184 5.625,5.625 z" />
    <circle
       id="path3888-5-6-8-6-5-3-7-0-7-0-1-0-2-8-8-9"
       style="fill:none;stroke:#000000;stroke-width:21.47905180000000058;stroke-miterlimit:4;stroke-dasharray:none;stroke-opacity:1"
       cx="-689.94348"
       cy="625.49207"
       r="123.05298"
       d="m -566.8905,625.49207 c 0,67.96028 -55.0927,123.05297 -123.05298,123.05297 -67.96028,0 -123.05298,-55.09269 -123.05298,-123.05297 0,-67.96029 55.0927,-123.05298 123.05298,-123.05298 67.96028,0 123.05298,55.09269 123.05298,123.05298 z" />
    <circle
       r="199.68741"
       cy="625.49207"
       cx="-689.94348"
       id="path3888-5"
       style="fill:none;stroke:#000000;stroke-width:21.47905180000000058;stroke-miterlimit:4;stroke-dasharray:none;stroke-opacity:1"
       d="m -490.25607,625.49207 c 0,110.28431 -89.4031,199.6874 -199.68741,199.6874 -110.28431,0 -199.68741,-89.40309 -199.68741,-199.6874 0,-110.28431 89.4031,-199.68741 199.68741,-199.68741 110.28431,0 199.68741,89.4031 199.68741,199.68741 z" />
  </g>
  <rect
     style="fill:none;fill-opacity:1;fill-rule:evenodd;stroke:#000000;stroke-width:16;stroke-linecap:butt;stroke-linejoin:miter;stroke-miterlimit:4;stroke-dasharray:none;stroke-opacity:1"
     id="rect3009"
     width="391.07852"
     height="391.07852"
     x="21.000008"
     y="60.460732"
     ry="49.829594" />
  <path
     style="fill:#000000;fill-opacity:1;fill-rule:evenodd;stroke:#ffffff;stroke-width:0;stroke-linecap:round;stroke-linejoin:miter;stroke-miterlimit:4;stroke-dasharray:none;stroke-opacity:1"
     d="m 217.27999,166.76879 -0.53355,61.20853 -0.53356,61.20672 -4.5062,-1.46455 c -1.70546,-0.55416 -4.78931,-1.23903 -7.87453,-1.79305 a 30.659797,30.112301 0 0 0 -7.36817,-0.92011 30.659797,30.112301 0 0 0 -30.65962,30.11336 30.659797,30.112301 0 0 0 30.65962,30.11154 30.659797,30.112301 0 0 0 2.33569,-0.0943 c 7.72669,-0.34972 19.47894,-4.83814 23.28053,-13.51317 a 30.659797,30.112301 0 0 0 5.0434,-16.50399 30.659797,30.112301 0 0 0 -0.0636,-1.77491 l 1.30668,-44.9568 c 0,-30.32624 0.80502,-54.50585 1.83659,-55.1434 2.40596,-1.48696 17.58097,15.80204 22.90669,26.09716 2.93228,5.66835 4.55014,13.75097 5.44449,27.21328 1.18606,17.85369 1.44461,18.74103 3.8329,13.10302 4.56087,-10.76674 6.00051,-23.63606 4.01802,-35.94621 -2.37759,-14.76353 -6.93714,-23.87091 -18.94494,-37.84632 -10.5123,-12.23486 -14.64899,-19.31052 -18.14278,-31.03166 -1.93371,-6.48726 -3.34567,-8.06507 -7.22119,-8.06507 l -4.81654,0 z"
     id="path3007"
     inkscape:connector-curvature="0" />
</svg>
