<?xml version="1.0" encoding="UTF-8" standalone="no"?>
<!-- Created with Inkscape (http://www.inkscape.org/) -->

<svg
   xmlns:dc="http://purl.org/dc/elements/1.1/"
   xmlns:cc="http://creativecommons.org/ns#"
   xmlns:rdf="http://www.w3.org/1999/02/22-rdf-syntax-ns#"
   xmlns:svg="http://www.w3.org/2000/svg"
   xmlns="http://www.w3.org/2000/svg"
   xmlns:sodipodi="http://sodipodi.sourceforge.net/DTD/sodipodi-0.dtd"
   xmlns:inkscape="http://www.inkscape.org/namespaces/inkscape"
   version="1.1"
   width="420"
   height="420"
   id="svg2"
   inkscape:version="0.48.5 r10040"
   sodipodi:docname="bitcoin.svg">
  <sodipodi:namedview
     pagecolor="#ffffff"
     bordercolor="#666666"
     borderopacity="1"
     objecttolerance="10"
     gridtolerance="10"
     guidetolerance="10"
     inkscape:pageopacity="0"
     inkscape:pageshadow="2"
     inkscape:window-width="1920"
     inkscape:window-height="1007"
     id="namedview6"
     showgrid="false"
     inkscape:zoom="0.79465333"
     inkscape:cx="-151.74802"
     inkscape:cy="257.23036"
     inkscape:window-x="0"
     inkscape:window-y="31"
     inkscape:window-maximized="1"
     inkscape:current-layer="svg2" />
  <metadata
     id="metadata8">
    <rdf:RDF>
      <cc:Work
         rdf:about="">
        <dc:format>image/svg+xml</dc:format>
        <dc:type
           rdf:resource="http://purl.org/dc/dcmitype/StillImage" />
        <dc:title />
      </cc:Work>
    </rdf:RDF>
  </metadata>
  <defs
     id="defs6" />
  <path
     style="fill:none;fill-opacity:1;stroke:#000000;stroke-opacity:1;stroke-width:32;stroke-miterlimit:4;stroke-dasharray:none"
     d="m 63.104627,392.85815 c -11.81863,-3.17821 -23.72308,-12.51164 -29.32588,-22.99234 -6.0655,-11.34624 -5.77875,-3.36094 -5.77875,-160.92514 0,-157.564193 -0.28675,-149.57889 5.77875,-160.925128 3.47577,-6.501836 12.29428,-15.320346 18.79612,-18.796113 11.34098,-6.062688 3.50767,-5.778751 159.425133,-5.778751 155.91747,0 148.08416,-0.283937 159.42514,5.778751 6.50183,3.475767 15.32034,12.294277 18.79611,18.796113 C 396.28675,59.36178 396,51.376477 396,208.94067 c 0,157.5642 0.28675,149.5789 -5.77875,160.92514 -3.47577,6.50183 -12.29428,15.32034 -18.79611,18.79611 -11.3512,6.06815 -3.42479,5.78492 -159.88524,5.71294 -121.700933,-0.056 -143.844793,-0.28226 -148.435273,-1.51671 z"
     id="path2988" />
  <path
     style="fill:#000000;fill-opacity:1"
     d="m 203,326.94067 0.5,-18 8.5,0 8.5,0 0.5,18 0.5,18 8.5,0 8.5,0 0.5,-18 0.5,-18 17.5,-0.61367 c 9.625,-0.33753 18.85414,-1.06254 20.50921,-1.61114 11.09209,-3.67669 24.58435,-14.91162 29.19088,-24.30709 7.13897,-14.56062 6.95124,-32.57724 -0.483,-46.35329 -3.39291,-6.28725 -12.20873,-15.33268 -18.47616,-18.95739 -2.6175,-1.5138 -7.92401,-3.55611 -11.79227,-4.53846 -3.86825,-0.98236 -7.0487,-2.12415 -7.06765,-2.53731 -0.019,-0.41317 2.7825,-3.30042 6.22544,-6.4161 7.53089,-6.81507 12.97181,-14.94236 16.05042,-23.97511 3.4488,-10.11891 3.25071,-25.07734 -0.46648,-35.22492 C 283.13074,123.76909 265.48712,110.64975 242,108.2013 l -2.5,-0.26062 -0.5,-18.000002 -0.5,-18 -8.5,0 -8.5,0 -0.5,18 -0.5,18.000002 -8.5,0 -8.5,0 -0.5,-18.000002 -0.5,-18 -8.5,0 -8.5,0 -0.5,18 -0.5,18.000002 -36,0.5 -36,0.5 0,8 0,8 17.5,0.5 17.5,0.5 0,82.49999 0,82.5 -17.5,0.5 -17.5,0.5 0,8 0,8 36,0.5 36,0.5 0.25838,17 c 0.1421,9.35 0.47251,17.58081 0.73423,18.2907 0.34851,0.94528 2.6879,1.2129 8.74162,1 l 8.26577,-0.2907 0.5,-18 z"
     id="path2986" />
</svg>
