<?xml version="1.0" encoding="UTF-8" standalone="no"?>
<!-- Created with Inkscape (http://www.inkscape.org/) -->

<svg
   xmlns:dc="http://purl.org/dc/elements/1.1/"
   xmlns:cc="http://creativecommons.org/ns#"
   xmlns:rdf="http://www.w3.org/1999/02/22-rdf-syntax-ns#"
   xmlns:svg="http://www.w3.org/2000/svg"
   xmlns="http://www.w3.org/2000/svg"
   xmlns:sodipodi="http://sodipodi.sourceforge.net/DTD/sodipodi-0.dtd"
   xmlns:inkscape="http://www.inkscape.org/namespaces/inkscape"
   id="svg2"
   version="1.1"
   inkscape:version="0.48.5 r10040"
   width="512"
   height="512"
   sodipodi:docname="accessories-system-cleaner.svg">
  <metadata
     id="metadata8">
    <rdf:RDF>
      <cc:Work
         rdf:about="">
        <dc:format>image/svg+xml</dc:format>
        <dc:type
           rdf:resource="http://purl.org/dc/dcmitype/StillImage" />
        <dc:title />
      </cc:Work>
    </rdf:RDF>
  </metadata>
  <defs
     id="defs6">
    <clipPath
       clipPathUnits="userSpaceOnUse"
       id="clipPath4136">
      <rect
         style="opacity:1;fill:none;fill-opacity:1;stroke:#000000;stroke-width:5.53685284;stroke-miterlimit:4;stroke-dasharray:none;stroke-dashoffset:0;stroke-opacity:1"
         id="rect4138"
         width="436.23096"
         height="430.96243"
         x="42.223511"
         y="37.72929"
         ry="55.854221" />
    </clipPath>
    <clipPath
       clipPathUnits="userSpaceOnUse"
       id="clipPath4140">
      <rect
         style="opacity:1;fill:none;fill-opacity:1;stroke:#000000;stroke-width:5.53685284;stroke-miterlimit:4;stroke-dasharray:none;stroke-dashoffset:0;stroke-opacity:1"
         id="rect4142"
         width="436.23096"
         height="430.96243"
         x="42.223511"
         y="37.72929"
         ry="55.854221" />
    </clipPath>
  </defs>
  <sodipodi:namedview
     pagecolor="#ffffff"
     bordercolor="#666666"
     borderopacity="1"
     objecttolerance="10"
     gridtolerance="10"
     guidetolerance="10"
     inkscape:pageopacity="0"
     inkscape:pageshadow="2"
     inkscape:window-width="943"
     inkscape:window-height="603"
     id="namedview4"
     showgrid="false"
     inkscape:zoom="0.65186406"
     inkscape:cx="354.09283"
     inkscape:cy="267.44995"
     inkscape:window-x="15"
     inkscape:window-y="39"
     inkscape:window-maximized="0"
     inkscape:current-layer="svg2" />
  <path
     inkscape:connector-curvature="0"
     id="path2996"
     d="m 78.87305,474.98838 c -18.163853,-4.77977 -34.708707,-20.1891 -40.02332,-37.27641 -1.937864,-6.23053 -1.9762,-9.82409 -1.952234,-183 C 36.913861,136.46056 37.264543,76.579747 37.95834,73.567308 41.064285,60.081415 53.973385,44.157626 66.925938,37.834847 80.487925,31.214573 68.663063,31.59687 259.87305,31.59687 c 151.72145,0 174.30927,0.190747 179.94711,1.519595 18.77387,4.42503 34.15534,18.264486 40.95455,36.848801 l 2.59834,7.102042 0,177.000002 0,177 -2.59834,7.10204 c -6.79921,18.58432 -22.18068,32.42377 -40.95455,36.8488 -9.48483,2.23559 -352.445878,2.2073 -360.94711,-0.0298 z m 189.94781,-59.67107 c 9.92397,-21.45051 10.42062,-21.93671 14.36647,-14.06385 1.32698,2.64762 2.94713,6.46535 3.60035,8.48386 2.28796,7.07 3.41192,6.63993 8.19418,-3.13543 2.41516,-4.93678 4.96223,-9.20331 5.66017,-9.48117 0.72159,-0.28728 2.81125,1.64153 4.84432,4.47141 1.96644,2.73714 3.96717,4.73447 4.44605,4.4385 0.47889,-0.29597 2.19841,-4.6838 3.82115,-9.75072 8.21239,-25.64272 12.34349,-51.72516 12.38783,-78.2126 0.046,-27.50795 -3.60564,-45.66963 -12.85469,-63.933 -6.55255,-12.9388 -12.50857,-20.71753 -23.59099,-30.81054 l -8.14074,-7.41396 5.14203,-6.70883 c 8.53699,-11.13823 10.31937,-22.73926 5.25327,-34.19203 -3.24733,-7.34112 -6.67048,-11.21887 -14.20804,-16.09489 l -6.86917,-4.44365 0,-33.497 0,-33.497011 -2.45455,-2.454546 c -1.99968,-1.999684 -3.43586,-2.448651 -7.75,-2.422742 -9.76117,0.05862 -9.22231,-2.014848 -9.79545,37.691179 l -0.5,34.63879 -5,2.90559 c -7.03671,4.08915 -11.79636,8.98851 -15.12403,15.56791 -2.52217,4.98681 -2.86484,6.7418 -2.86334,14.66473 0.002,10.15038 1.53129,14.1856 8.59553,22.67941 2.14051,2.57367 3.89184,5.11483 3.89184,5.64701 0,0.53219 -3.10473,3.72016 -6.8994,7.08439 -12.72971,11.28574 -24.55941,29.66047 -31.46383,48.87183 -1.43952,4.00545 -3.60648,12.78045 -4.81546,19.5 -3.9657,22.04156 -2.44123,55.90512 3.6686,81.49177 2.0638,8.64275 9.41743,31.05029 10.38654,31.64923 0.43573,0.2693 2.76048,-1.51585 5.16611,-3.967 2.40562,-2.45115 5.18016,-4.45664 6.16565,-4.45664 0.98548,0 1.79922,0.1125 1.80831,0.25 0.009,0.1375 1.50415,4.72335 3.32235,10.19078 3.31841,9.9786 4.83456,12.18201 6.09066,8.85148 1.87091,-4.96067 11.19118,-19.29074 12.53943,-19.27957 1.35976,0.0113 12.73365,17.85099 16.12109,25.28561 0.67704,1.48593 1.53413,2.7017 1.90464,2.7017 0.37051,0 2.59941,-4.1625 4.95312,-9.25 z"
     style="fill:#000000;fill-opacity:1"
     clip-path="url(#clipPath4140)"
     transform="matrix(1.0249173,0,0,1.0249173,-9.6542838,-4.4741755)" />
</svg>
