<?xml version="1.0" encoding="UTF-8" standalone="no"?>
<!-- Created using Karbon, part of Calligra: http://www.calligra.org/karbon -->

<svg
   xmlns:dc="http://purl.org/dc/elements/1.1/"
   xmlns:cc="http://creativecommons.org/ns#"
   xmlns:rdf="http://www.w3.org/1999/02/22-rdf-syntax-ns#"
   xmlns:svg="http://www.w3.org/2000/svg"
   xmlns="http://www.w3.org/2000/svg"
   xmlns:sodipodi="http://sodipodi.sourceforge.net/DTD/sodipodi-0.dtd"
   xmlns:inkscape="http://www.inkscape.org/namespaces/inkscape"
   width="512"
   height="512"
   id="svg2"
   version="1.1"
   inkscape:version="0.48.5 r10040"
   sodipodi:docname="blender.svg"
   viewBox="0 0 512 512">
  <metadata
     id="metadata16">
    <rdf:RDF>
      <cc:Work
         rdf:about="">
        <dc:format>image/svg+xml</dc:format>
        <dc:type
           rdf:resource="http://purl.org/dc/dcmitype/StillImage" />
        <dc:title />
      </cc:Work>
    </rdf:RDF>
  </metadata>
  <sodipodi:namedview
     pagecolor="#ffffff"
     bordercolor="#666666"
     borderopacity="1"
     objecttolerance="10"
     gridtolerance="10"
     guidetolerance="10"
     inkscape:pageopacity="0"
     inkscape:pageshadow="2"
     inkscape:window-width="1920"
     inkscape:window-height="1007"
     id="namedview14"
     showgrid="false"
     inkscape:showpageshadow="false"
     borderlayer="true"
     inkscape:zoom="1.625"
     inkscape:cx="37.846157"
     inkscape:cy="256"
     inkscape:window-x="0"
     inkscape:window-y="31"
     inkscape:window-maximized="1"
     inkscape:current-layer="svg2"
     inkscape:snap-global="false"
     inkscape:document-units="px" />
  <defs
     id="defs4" />
  <rect
     style="opacity:1;fill:none;fill-opacity:1;stroke:#000000;stroke-width:8;stroke-linecap:butt;stroke-linejoin:miter;stroke-miterlimit:4;stroke-dasharray:none;stroke-dashoffset:0;stroke-opacity:1"
     id="rect4193"
     width="449.99997"
     height="449.99997"
     x="31.000015"
     y="31"
     rx="41.928791"
     ry="41.928791" />
  <path
     style="opacity:1;fill:#000000;fill-opacity:1;stroke:none;stroke-width:2.80507516999999984;stroke-linecap:butt;stroke-linejoin:miter;stroke-miterlimit:4;stroke-dasharray:5.61015002999999979, 5.61015002999999979;stroke-dashoffset:0;stroke-opacity:1"
     d="m 208.21291,113.764 c -7.67626,-0.11689 -14.15707,2.82551 -16.85178,8.42973 l -1.48217,3.08161 c -4.31154,8.96678 2.75052,21.25088 15.83484,27.54227 l 48.35229,23.24956 -137.7902,19.05679 c -14.38139,1.98902 -24.860622,11.52529 -23.49753,21.38095 l 0.467144,3.38728 c 1.363091,9.85568 14.039416,16.18981 28.420816,14.20079 L 207.121,222.27405 c -0.26273,0.27825 -0.53492,0.5397 -0.79203,0.82856 L 105.59889,336.27257 c -9.65274,10.84462 -11.440126,24.89888 -4.00824,31.51396 l 2.55488,2.2742 c 7.43189,6.61507 21.18648,3.21076 30.83919,-7.63386 l 55.84583,-62.74148 a 114.85548,114.07385 0 0 0 113.6544,98.55393 114.85548,114.07385 0 0 0 114.85592,-114.0735 114.85548,114.07385 0 0 0 -49.74026,-93.81713 c -2.74359,-2.83636 -6.22837,-5.37314 -10.29833,-7.33011 L 222.76167,117.36466 c -4.90663,-2.35929 -9.94299,-3.53054 -14.54876,-3.60066 z m 96.27204,96.83722 a 73.565549,73.565549 0 0 1 73.56654,73.5646 73.565549,73.565549 0 0 1 -73.56654,73.56655 73.565549,73.565549 0 0 1 -73.56462,-73.56655 73.565549,73.565549 0 0 1 73.56462,-73.5646 z m 0,26.22158 a 47.342454,47.342454 0 0 0 -47.34303,47.34302 47.342454,47.342454 0 0 0 47.34303,47.34302 47.342454,47.342454 0 0 0 47.34304,-47.34302 47.342454,47.342454 0 0 0 -47.34304,-47.34302 z"
     id="path4198"
     inkscape:connector-curvature="0" />
</svg>
