<?xml version="1.0" encoding="UTF-8" standalone="no"?>
<!-- Created with Inkscape (http://www.inkscape.org/) -->

<svg
   xmlns:dc="http://purl.org/dc/elements/1.1/"
   xmlns:cc="http://creativecommons.org/ns#"
   xmlns:rdf="http://www.w3.org/1999/02/22-rdf-syntax-ns#"
   xmlns:svg="http://www.w3.org/2000/svg"
   xmlns="http://www.w3.org/2000/svg"
   xmlns:sodipodi="http://sodipodi.sourceforge.net/DTD/sodipodi-0.dtd"
   xmlns:inkscape="http://www.inkscape.org/namespaces/inkscape"
   id="svg2"
   version="1.1"
   inkscape:version="0.48.5 r10040"
   width="256"
   height="256"
   sodipodi:docname="blogger.svg">
  <metadata
     id="metadata8">
    <rdf:RDF>
      <cc:Work
         rdf:about="">
        <dc:format>image/svg+xml</dc:format>
        <dc:type
           rdf:resource="http://purl.org/dc/dcmitype/StillImage" />
        <dc:title />
      </cc:Work>
    </rdf:RDF>
  </metadata>
  <defs
     id="defs6">
    <clipPath
       clipPathUnits="userSpaceOnUse"
       id="clipPath3341">
      <rect
         style="opacity:1;fill:none;fill-opacity:1;stroke:#000000;stroke-width:5.69999981;stroke-miterlimit:4;stroke-dasharray:none;stroke-dashoffset:0;stroke-opacity:1"
         id="rect3343"
         width="223.20605"
         height="224.74011"
         x="18.594854"
         y="14.83452"
         ry="41.354" />
    </clipPath>
  </defs>
  <sodipodi:namedview
     pagecolor="#ffffff"
     bordercolor="#666666"
     borderopacity="1"
     objecttolerance="10"
     gridtolerance="10"
     guidetolerance="10"
     inkscape:pageopacity="0"
     inkscape:pageshadow="2"
     inkscape:window-width="1920"
     inkscape:window-height="1007"
     id="namedview4"
     showgrid="false"
     inkscape:zoom="1.3037281"
     inkscape:cx="-17.197618"
     inkscape:cy="126.3635"
     inkscape:window-x="0"
     inkscape:window-y="31"
     inkscape:window-maximized="1"
     inkscape:current-layer="svg2" />
  <g
     id="g2982"
     transform="matrix(1.0206186,0,0,1.0206186,-4.4046631,-2.786813)"
     clip-path="url(#clipPath3341)"
     style="fill:none;fill-opacity:1;stroke:#000000;stroke-opacity:1;stroke-width:17.63636289000000090;stroke-miterlimit:4;stroke-dasharray:none">
    <path
       style="fill:none;fill-opacity:1;stroke:#000000;stroke-opacity:1;stroke-width:17.63636289000000090;stroke-miterlimit:4;stroke-dasharray:none"
       d="m 26.204302,238.4647 c -2.720861,-1.57703 -5.338905,-4.44958 -6.793031,-7.45341 -2.320066,-4.79261 -2.35988,-6.82075 -2.051759,-104.51596 0.310785,-98.540264 0.340746,-99.664031 2.742935,-102.88108 1.335794,-1.788918 3.892568,-4.3455 5.681719,-5.681294 3.226406,-2.40886 4.079892,-2.428718 104.385324,-2.428718 100.76885,0 101.14429,0.0088 104.45812,2.464244 1.82918,1.355334 4.52711,4.229478 5.99539,6.386988 l 2.66961,3.922746 -0.31368,100.807934 -0.31367,100.80792 -2.62723,3.68316 c -5.62187,7.88142 -0.16348,7.51039 -110.04656,7.48046 l -99.360113,-0.0271 -4.427055,-2.56594 z M 174.93221,201.84125 c 13.23189,-5.11716 24.62139,-16.65822 29.09689,-29.48411 1.7958,-5.14639 2.11921,-10.08879 2.11921,-32.3855 0,-31.12359 0.49709,-29.99656 -13.75132,-31.17781 -10.94885,-0.90769 -13.29312,-3.16453 -14.53393,-13.991866 -0.46907,-4.092986 -1.89542,-10.243067 -3.16968,-13.666848 -3.2899,-8.839484 -13.26533,-19.239966 -23.10235,-24.086717 -7.55316,-3.721482 -8.41952,-3.87001 -26.10217,-4.474865 C 101.23197,51.7438 89.554395,52.795173 81.360216,56.546592 72.255174,60.715018 63.767577,69.071766 59.186764,78.37821 l -3.818118,7.75694 0,42.43031 0,42.43031 4.025554,7.42428 c 6.731736,12.41527 19.530516,22.36275 32.057597,24.91582 2.830114,0.57679 21.578293,0.93771 41.662613,0.80205 31.48947,-0.21272 37.24675,-0.52891 41.8178,-2.29667 z M 98.240122,164.38252 c -2.96808,-1.08927 -5.765543,-5.30573 -5.765543,-8.69005 0,-0.90521 1.278589,-3.13313 2.841308,-4.95093 l 2.841306,-3.30509 29.258277,-0.37195 c 32.89436,-0.41818 37.78011,0.31499 39.76574,5.96728 1.50826,4.29341 -0.29053,9.24701 -4.04823,11.14828 -3.55311,1.79776 -60.06559,1.97408 -64.892858,0.20246 z M 97.597813,107.4455 c -7.517595,-3.27082 -5.699779,-14.293459 2.658057,-16.117567 7.12642,-1.555351 34.55597,-1.083508 38.74428,0.666478 6.70642,2.802124 7.05694,12.362879 0.57351,15.643269 -4.20217,2.12616 -36.99245,1.97603 -41.975847,-0.19218 z"
       id="path2986"
       inkscape:connector-curvature="0" />
    <path
       style="fill:none;fill-opacity:1;stroke:#000000;stroke-opacity:1;stroke-width:17.63636289000000090;stroke-miterlimit:4;stroke-dasharray:none"
       d="m 101.90303,163.68056 c -5.656825,-0.73361 -7.072519,-2.23731 -7.072519,-7.51216 0,-3.48566 0.609305,-4.85427 2.650424,-5.9533 3.218395,-1.73294 42.338105,-2.88684 55.633185,-1.64099 12.68829,1.18898 16.82041,5.77756 11.32228,12.57294 -2.24447,2.77403 -2.31962,2.78127 -30.33263,2.92426 -15.44542,0.0788 -29.93575,-0.097 -32.20074,-0.39075 z"
       id="path2992"
       inkscape:connector-curvature="0" />
    <path
       style="fill:none;fill-opacity:1;stroke:#000000;stroke-opacity:1;stroke-width:17.63636289000000090;stroke-miterlimit:4;stroke-dasharray:none"
       d="m 101.30932,107.14607 c -5.095983,-0.80454 -6.478809,-2.4096 -6.478809,-7.520043 0,-6.919264 2.001703,-7.528991 24.586819,-7.489258 18.72915,0.03295 19.34983,0.11279 21.49788,2.765521 2.80988,3.470052 2.79942,6.19504 -0.0372,9.70239 -2.16223,2.67346 -2.90191,2.78707 -19.14195,2.94011 -9.29104,0.0875 -18.48305,-0.0919 -20.42669,-0.39872 z"
       id="path2984"
       inkscape:connector-curvature="0" />
  </g>
</svg>
