<?xml version="1.0" encoding="UTF-8" standalone="no"?>
<svg
   xmlns:dc="http://purl.org/dc/elements/1.1/"
   xmlns:cc="http://creativecommons.org/ns#"
   xmlns:rdf="http://www.w3.org/1999/02/22-rdf-syntax-ns#"
   xmlns:svg="http://www.w3.org/2000/svg"
   xmlns="http://www.w3.org/2000/svg"
   xmlns:sodipodi="http://sodipodi.sourceforge.net/DTD/sodipodi-0.dtd"
   xmlns:inkscape="http://www.inkscape.org/namespaces/inkscape"
   height="512"
   width="512"
   viewBox="0 0 512 512"
   id="svg2"
   version="1.1"
   inkscape:version="0.48.5 r10040"
   sodipodi:docname="date.svg">
  <metadata
     id="metadata16">
    <rdf:RDF>
      <cc:Work
         rdf:about="">
        <dc:format>image/svg+xml</dc:format>
        <dc:type
           rdf:resource="http://purl.org/dc/dcmitype/StillImage" />
        <dc:title />
        <dc:title />
      </cc:Work>
    </rdf:RDF>
  </metadata>
  <defs
     id="defs14">
    <filter
       inkscape:collect="always"
       style="color-interpolation-filters:sRGB"
       id="filter4236"
       x="-0.03986107"
       width="1.0797221"
       y="-0.12126799"
       height="1.242536">
      <feGaussianBlur
         inkscape:collect="always"
         stdDeviation="8.4704771"
         id="feGaussianBlur4238" />
    </filter>
  </defs>
  <sodipodi:namedview
     pagecolor="#ffffff"
     bordercolor="#666666"
     borderopacity="1"
     objecttolerance="10"
     gridtolerance="10"
     guidetolerance="10"
     inkscape:pageopacity="0"
     inkscape:pageshadow="2"
     inkscape:window-width="1920"
     inkscape:window-height="1007"
     id="namedview12"
     showgrid="false"
     inkscape:zoom="1.5585938"
     inkscape:cx="285.09906"
     inkscape:cy="234.78353"
     inkscape:window-x="0"
     inkscape:window-y="31"
     inkscape:window-maximized="1"
     inkscape:current-layer="svg2" />
  <path
     style="fill:none;stroke:#000000;stroke-width:7.9179883;stroke-linecap:butt;stroke-linejoin:miter;stroke-miterlimit:4;stroke-opacity:1;stroke-dasharray:none;stroke-dashoffset:0"
     d="m 40.110463,129.35716 0,292.66198 c 0,27.29115 25.237999,46.12074 48.483017,46.81606 l 66.70585,0 201.06054,0 66.70583,0 c 23.25505,0 48.48302,-19.52491 48.48302,-46.81606 l -0.002,-292.66198 z"
     id="rect4178"
     inkscape:connector-curvature="0"
     sodipodi:nodetypes="ccsccsccc" />
  <path
     style="opacity:1;fill:#000000;fill-opacity:1;stroke:none;stroke-width:45.27312469000000306;stroke-linecap:butt;stroke-linejoin:miter;stroke-miterlimit:4;stroke-dasharray:90.54624508999999932, 90.54624508999999932;stroke-dashoffset:0;stroke-opacity:1"
     d="m 86.077752,42.564204 c -48.415001,0 -49.92589,-0.20829 -49.92589,86.833906 l 439.696548,-0.0443 c -0.043,-85.778776 0.7897,-86.789586 -47.61035,-86.789586 l -342.160307,0 z M 110.4182,72.193431 c 7.64816,-9.8e-5 13.84937,6.157949 13.84868,13.755944 1e-4,7.597483 -6.20104,13.75797 -13.84868,13.75788 -7.64765,9e-5 -13.846876,-6.160397 -13.846782,-13.75788 -8.31e-4,-7.597995 6.198602,-13.756042 13.846782,-13.755944 z m 293.31071,0.121377 c 7.29233,0.0041 13.20281,5.875651 13.20679,13.120162 0.004,7.250216 -5.90875,13.13154 -13.20679,13.135578 -7.3038,0.004 -13.22629,-5.879676 -13.22229,-13.135578 0.004,-7.250208 5.92422,-13.12401 13.22229,-13.120162 z"
     id="rect4178-4"
     inkscape:connector-curvature="0" />
  <g
     transform="matrix(0.97909804,0,0,0.97267678,9.6797927,8.2633634)"
     style="font-style:normal;font-variant:normal;font-weight:normal;font-stretch:normal;font-size:236.46804810000000430px;line-height:125%;font-family:Sawasdee;-inkscape-font-specification:'Sawasdee, Normal';text-align:start;letter-spacing:0px;word-spacing:0px;writing-mode:lr-tb;text-anchor:start;fill:#000000;fill-opacity:1;stroke:none;stroke-width:5.91152763000000014px;stroke-linecap:butt;stroke-linejoin:miter;stroke-opacity:1"
     id="text4186">
    <path
       d="m 157.55624,333.91348 c 0,29.55851 23.6699,53.22841 53.22841,53.22841 29.09665,0 52.99747,-23.6699 52.99747,-53.22841 0,-21.01425 -12.70092,-39.71924 -31.05952,-47.91711 11.66175,-6.81231 19.74416,-18.70499 19.74416,-33.71517 0,-22.74619 -18.70499,-40.75841 -41.45119,-40.75841 -22.74619,0 -41.33572,18.01222 -41.33572,40.75841 l 10.2762,0 c 0,-16.74212 13.74008,-30.48221 31.05952,-30.48221 17.31944,0 31.05953,13.74009 31.05953,30.48221 0,17.31944 -14.31741,28.75027 -31.05953,28.75027 l 0,10.39166 c 23.43897,0 42.60582,19.28231 42.60582,42.49035 0,23.55444 -19.16685,42.95221 -42.60582,42.95221 -23.55443,0 -42.60581,-19.39777 -42.60581,-42.95221 l -10.85352,0 z"
       style="font-style:normal;font-variant:normal;font-weight:normal;font-stretch:normal;font-size:236.46804810000000430px;line-height:125%;font-family:Sawasdee;-inkscape-font-specification:'Sawasdee, Normal';text-align:start;writing-mode:lr-tb;text-anchor:start;fill:#000000;fill-opacity:1;stroke-width:5.91152763000000014px"
       id="path5836"
       inkscape:connector-curvature="0" />
    <path
       d="m 335.20953,385.40994 10.39166,0 0,-172.38613 -34.75434,20.66786 5.19583,9.12157 18.70499,-11.1999 z"
       style="font-style:normal;font-variant:normal;font-weight:normal;font-stretch:normal;font-size:236.46804810000000430px;line-height:125%;font-family:Sawasdee;-inkscape-font-specification:'Sawasdee, Normal';text-align:start;writing-mode:lr-tb;text-anchor:start;fill:#000000;fill-opacity:1;stroke-width:5.91152763000000014px"
       id="path5838"
       inkscape:connector-curvature="0"
       sodipodi:nodetypes="ccccccc" />
  </g>
</svg>
