<?xml version="1.0" encoding="UTF-8" standalone="no"?>
<!-- Created with Inkscape (http://www.inkscape.org/) -->

<svg
   xmlns:dc="http://purl.org/dc/elements/1.1/"
   xmlns:cc="http://creativecommons.org/ns#"
   xmlns:rdf="http://www.w3.org/1999/02/22-rdf-syntax-ns#"
   xmlns:svg="http://www.w3.org/2000/svg"
   xmlns="http://www.w3.org/2000/svg"
   xmlns:sodipodi="http://sodipodi.sourceforge.net/DTD/sodipodi-0.dtd"
   xmlns:inkscape="http://www.inkscape.org/namespaces/inkscape"
   id="svg2"
   version="1.1"
   inkscape:version="0.48.5 r10040"
   width="512"
   height="512"
   sodipodi:docname="ccsm.svg"
   viewBox="0 0 512 512">
  <metadata
     id="metadata8">
    <rdf:RDF>
      <cc:Work
         rdf:about="">
        <dc:format>image/svg+xml</dc:format>
        <dc:type
           rdf:resource="http://purl.org/dc/dcmitype/StillImage" />
        <dc:title />
      </cc:Work>
    </rdf:RDF>
  </metadata>
  <defs
     id="defs6" />
  <sodipodi:namedview
     pagecolor="#ffffff"
     bordercolor="#666666"
     borderopacity="1"
     objecttolerance="10"
     gridtolerance="10"
     guidetolerance="10"
     inkscape:pageopacity="0"
     inkscape:pageshadow="2"
     inkscape:window-width="1920"
     inkscape:window-height="1007"
     id="namedview4"
     showgrid="false"
     inkscape:zoom="1.2553908"
     inkscape:cx="-43.49668"
     inkscape:cy="296.26105"
     inkscape:window-x="0"
     inkscape:window-y="31"
     inkscape:window-maximized="1"
     inkscape:current-layer="svg2"
     inkscape:document-units="px" />
  <path
     style="fill:#000000;fill-opacity:1;fill-rule:evenodd;stroke:#000000;stroke-width:0;stroke-linecap:butt;stroke-linejoin:miter;stroke-miterlimit:4;stroke-dasharray:none;stroke-opacity:1"
     d="m 262.63451,31.000045 c -10.05857,-0.0033 -20.8525,0.238275 -31.78321,0.460938 -6.10127,0.124292 -12.87398,6.930692 -12.85742,13.033203 0.0438,16.182057 0.81055,51.24414 0.81055,51.24414 0,0 -18.13362,4.899834 -26.8086,8.435544 -7.75858,3.16221 -22.41797,11.36524 -22.41797,11.36523 0,0 -20.02998,-19.712247 -37.3457,-36.775383 -3.73086,-3.676435 -13.99793,-2.702045 -17.73242,0.970703 -30.56325,30.05795 -23.004154,21.67195 -35.716797,35.58789 -4.141889,4.53394 -3.40789,14.1289 1.011719,18.39257 12.55467,12.11169 36.093748,35.73829 36.093748,35.73828 0,0 -9.3086,15.30498 -12.75195,23.53711 -3.381954,8.08534 -7.664064,25.1504 -7.664064,25.15039 0,0 -33.626173,-0.66512 -50.451172,-0.39648 -6.368604,0.10168 -14.407837,5.39345 -14.43164,11.51563 -0.03786,9.72161 -0.172225,33.0231 -0.296875,46.58398 -0.124649,13.56088 7.551104,18.40433 14.59375,18.36914 20.614531,-0.10304 50.376953,0.23242 50.376953,0.23242 0,0 4.740018,17.18504 8.111328,25.41407 3.30971,8.07868 11.83008,23.36914 11.83008,23.36914 0,0 -23.291324,22.38984 -34.394533,34.88671 -4.432687,4.98906 -5.509029,15.0279 -1.050781,19.99415 11.896284,13.25182 23.862474,24.75784 35.126954,34.60351 5.39754,4.71771 16.10861,2.24898 21.3418,-2.65039 9.17509,-8.58983 33.0039,-33.84766 33.0039,-33.84766 0,0 15.2586,8.11896 23.2207,11.44336 4.17587,1.74353 10.59039,3.96385 15.96094,5.74805 5.37056,1.7842 9.69532,3.13281 9.69532,3.13281 0,0 -0.007,8.06787 -0.002,18.2168 0.005,10.14893 0.0194,22.37758 0.0625,30.69531 0.0172,3.32832 1.51283,7.18267 3.83399,10.21094 2.32118,3.02828 5.47058,5.23043 8.79882,5.25781 15.84569,0.12696 33.62932,0.0865 51.19336,-0.008 2.97248,-0.011 6.08006,-2.23869 8.44141,-5.20703 2.36135,-2.96833 3.97505,-6.67598 3.96094,-9.64844 -0.0389,-8.1842 0.0145,-21.181 0.0781,-32.12891 0.0635,-10.94789 0.13672,-19.84961 0.13672,-19.84961 0,0 4.26143,-0.94676 9.51758,-2.32812 5.25613,-1.38137 11.5065,-3.19659 15.48633,-4.92578 3.76568,-1.63614 9.05705,-4.78777 13.40625,-7.53125 4.34918,-2.74349 7.75781,-5.07813 7.75781,-5.07813 0,0 6.87745,6.944 15.11914,15.17969 8.2417,8.23568 17.84743,17.76237 23.30273,22.92578 2.40878,2.27988 5.95821,3.47878 9.73438,3.30078 3.77617,-0.17799 7.77728,-1.73392 11.09375,-4.96093 6.95829,-6.7706 12.86,-12.47672 18.13672,-17.63868 5.27674,-5.16194 9.92978,-9.77746 14.38867,-14.35937 2.19077,-2.25121 3.44052,-5.83858 3.59375,-9.42383 0.15322,-3.58525 -0.7897,-7.16855 -2.98633,-9.41406 -6.16563,-6.30282 -15.89928,-16.02231 -24.09179,-24.16602 -8.19251,-8.14371 -14.84375,-14.71289 -14.84375,-14.71289 0,0 2.35518,-3.57281 5.10546,-8.13281 2.75028,-4.55999 5.89451,-10.10788 7.47852,-14.05273 1.59711,-3.97749 3.17489,-10.20854 4.35156,-15.44727 1.17685,-5.23837 1.95313,-9.48438 1.95313,-9.48438 0,0 36.91932,0.85108 53.7539,0.25586 6.25821,-0.22126 14.10606,-5.89787 14.32227,-12.15625 0.63628,-18.41754 0.66659,-33.18939 0.18555,-49.80664 -0.291,-10.05202 -7.1186,-14.17505 -17.61914,-14.08398 -13.6374,0.11826 -49.80079,0.61133 -49.80079,0.61133 0,0 -3.89523,-16.52633 -7.04101,-24.37696 -3.22672,-8.05264 -12.04297,-23.07226 -12.04297,-23.07226 0,0 24.50533,-24.46963 36.42969,-37.02149 8.12922,-8.557 3.09591,-18.96236 0.33203,-21.46679 -11.48695,-10.40867 -23.27536,-23.469724 -33.03711,-32.728513 -4.77351,-4.527577 -14.85966,-5.022543 -19.72852,-0.597656 -9.95863,9.050546 -23.94506,24.325289 -36.87109,37.169919 0,0 -15.38959,-8.9398 -23.62305,-12.23242 -7.77207,-3.10809 -24.11133,-7.015624 -24.11133,-7.015624 0,0 0.61613,-35.564894 0.004,-53.470703 -0.20908,-6.109717 -8.34711,-12.206043 -14.45315,-12.507623 -5.37673,-0.236907 -11.14454,-0.326138 -17.17969,-0.328125 l -0.002,0 z m -6.63477,141.753905 a 83.245399,83.245399 0 0 1 83.24609,83.24609 83.245399,83.245399 0 0 1 -83.24609,83.24609 83.245399,83.245399 0 0 1 -83.24609,-83.24609 83.245399,83.245399 0 0 1 83.24609,-83.24609 z"
     id="path4148"
     inkscape:connector-curvature="0" />
</svg>
