<?xml version="1.0" encoding="UTF-8" standalone="no"?>
<!-- Created with Inkscape (http://www.inkscape.org/) -->

<svg
   xmlns:dc="http://purl.org/dc/elements/1.1/"
   xmlns:cc="http://creativecommons.org/ns#"
   xmlns:rdf="http://www.w3.org/1999/02/22-rdf-syntax-ns#"
   xmlns:svg="http://www.w3.org/2000/svg"
   xmlns="http://www.w3.org/2000/svg"
   xmlns:xlink="http://www.w3.org/1999/xlink"
   xmlns:sodipodi="http://sodipodi.sourceforge.net/DTD/sodipodi-0.dtd"
   xmlns:inkscape="http://www.inkscape.org/namespaces/inkscape"
   width="512"
   height="512"
   viewBox="0 0 135.46666 135.46667"
   id="svg2"
   version="1.1"
   inkscape:version="0.48.5 r10040"
   sodipodi:docname="cheese.svg">
  <defs
     id="defs4">
    <linearGradient
       id="linearGradient4156-7"
       y2="-24"
       xlink:href="#linearGradient4144"
       gradientUnits="userSpaceOnUse"
       x2="-24"
       gradientTransform="matrix(-3.2268233,-3.1807068,3.1807069,-3.2268235,254.7017,89.841795)"
       y1="-24"
       x1="-44" />
    <linearGradient
       id="linearGradient4144">
      <stop
         id="stop4148"
         stop-opacity="0"
         offset="0" />
      <stop
         id="stop4146"
         offset="1" />
    </linearGradient>
    <linearGradient
       id="linearGradient4150-5"
       y2="-24"
       xlink:href="#linearGradient4144"
       gradientUnits="userSpaceOnUse"
       x2="-24"
       y1="-24"
       x1="-44"
       gradientTransform="matrix(3.1807069,-3.2268235,-3.2268233,-3.1807068,254.7017,89.841795)" />
  </defs>
  <sodipodi:namedview
     id="base"
     pagecolor="#ffffff"
     bordercolor="#666666"
     borderopacity="1.0"
     inkscape:pageopacity="0.0"
     inkscape:pageshadow="2"
     inkscape:zoom="1.1035156"
     inkscape:cx="66.528173"
     inkscape:cy="304.39314"
     inkscape:document-units="mm"
     inkscape:current-layer="layer1"
     showgrid="false"
     units="px"
     inkscape:window-width="1920"
     inkscape:window-height="1007"
     inkscape:window-x="0"
     inkscape:window-y="31"
     inkscape:window-maximized="1" />
  <metadata
     id="metadata7">
    <rdf:RDF>
      <cc:Work
         rdf:about="">
        <dc:format>image/svg+xml</dc:format>
        <dc:type
           rdf:resource="http://purl.org/dc/dcmitype/StillImage" />
        <dc:title />
      </cc:Work>
    </rdf:RDF>
  </metadata>
  <g
     inkscape:label="Capa 1"
     inkscape:groupmode="layer"
     id="layer1"
     transform="translate(0,-161.53332)">
    <circle
       r="57.060966"
       cy="226.76894"
       cx="67.733337"
       id="circle4714"
       style="opacity:1;fill:none;fill-opacity:1;stroke:#000000;stroke-width:7.50000018;stroke-miterlimit:4;stroke-dasharray:none;stroke-opacity:1"
       d="m 124.7943,226.76894 c 0,31.5139 -25.547061,57.06096 -57.060963,57.06096 -31.513901,0 -57.060966,-25.54706 -57.060966,-57.06096 0,-31.51391 25.547065,-57.06097 57.060966,-57.06097 31.513902,0 57.060963,25.54706 57.060963,57.06097 z" />
    <circle
       style="opacity:1;fill:none;fill-opacity:1;stroke:#000000;stroke-width:7.50000017999999979;stroke-miterlimit:4;stroke-dasharray:none;stroke-opacity:1"
       id="circle4726"
       cx="67.733337"
       cy="226.76894"
       r="46.099796"
       d="m 113.83313,226.76894 c 0,25.46021 -20.639578,46.09979 -46.099793,46.09979 -25.460214,0 -46.099796,-20.63958 -46.099796,-46.09979 0,-25.46022 20.639582,-46.0998 46.099796,-46.0998 25.460215,0 46.099793,20.63958 46.099793,46.0998 z" />
    <path
       style="opacity:1;fill:#000000;fill-opacity:1"
       d="M 203.80664 192.36328 A 76.787585 76.78758 0 0 0 179.21289 248.5957 A 76.787585 76.78758 0 0 0 256 325.38281 A 76.787585 76.78758 0 0 0 312.96484 299.96094 L 203.80664 192.36328 z "
       id="rect4141"
       transform="matrix(0.26458334,0,0,0.26458336,-8.0744428e-6,161.53332)" />
    <path
       style="opacity:1;fill:#000000;fill-opacity:1"
       d="M 307.20312 191.48242 L 199.62305 300.62305 A 76.787585 76.78758 0 0 0 256 325.38281 A 76.787585 76.78758 0 0 0 332.78711 248.5957 A 76.787585 76.78758 0 0 0 307.20312 191.48242 z "
       id="path4154"
       transform="matrix(0.26458334,0,0,0.26458336,-8.0744428e-6,161.53332)" />
  </g>
</svg>
