<?xml version="1.0" encoding="UTF-8" standalone="no"?>
<!-- Created with Inkscape (http://www.inkscape.org/) -->

<svg
   xmlns:dc="http://purl.org/dc/elements/1.1/"
   xmlns:cc="http://creativecommons.org/ns#"
   xmlns:rdf="http://www.w3.org/1999/02/22-rdf-syntax-ns#"
   xmlns:svg="http://www.w3.org/2000/svg"
   xmlns="http://www.w3.org/2000/svg"
   xmlns:sodipodi="http://sodipodi.sourceforge.net/DTD/sodipodi-0.dtd"
   xmlns:inkscape="http://www.inkscape.org/namespaces/inkscape"
   id="svg2"
   version="1.1"
   inkscape:version="0.48.5 r10040"
   width="512"
   height="512"
   sodipodi:docname="chess.svg"
   viewBox="0 0 512 512">
  <metadata
     id="metadata8">
    <rdf:RDF>
      <cc:Work
         rdf:about="">
        <dc:format>image/svg+xml</dc:format>
        <dc:type
           rdf:resource="http://purl.org/dc/dcmitype/StillImage" />
        <dc:title />
      </cc:Work>
    </rdf:RDF>
  </metadata>
  <defs
     id="defs6">
    <filter
       inkscape:collect="always"
       style="color-interpolation-filters:sRGB"
       id="filter4249"
       x="-0.036949083"
       width="1.0738982"
       y="-0.017771755"
       height="1.0355435">
      <feGaussianBlur
         inkscape:collect="always"
         stdDeviation="3.3322041"
         id="feGaussianBlur4251" />
    </filter>
  </defs>
  <sodipodi:namedview
     pagecolor="#ffffff"
     bordercolor="#666666"
     borderopacity="1"
     objecttolerance="10"
     gridtolerance="10"
     guidetolerance="10"
     inkscape:pageopacity="0"
     inkscape:pageshadow="2"
     inkscape:window-width="1920"
     inkscape:window-height="1007"
     id="namedview4"
     showgrid="false"
     inkscape:zoom="1.1020922"
     inkscape:cx="-110.02968"
     inkscape:cy="282.12744"
     inkscape:window-x="0"
     inkscape:window-y="31"
     inkscape:window-maximized="1"
     inkscape:current-layer="svg2"
     inkscape:document-units="px" />
  <path
     style="opacity:1;fill:#000000;fill-opacity:1;stroke:none;stroke-width:0.62243300999999995;stroke-miterlimit:4;stroke-dasharray:none;stroke-opacity:1"
     d="m 221.97068,31.000003 -0.30635,15.862317 c -0.18158,9.407333 -0.79442,16.452273 -1.50746,17.311418 -0.73621,0.887079 -3.61762,1.449101 -7.43272,1.449101 l -6.23163,0 -29.35646,39.444251 c -16.14629,21.69443 -29.35647,40.03228 -29.35647,40.74992 0,2.26046 22.29,27.52078 24.28461,27.52078 2.00946,0 31.41716,-10.13559 35.05319,-12.08152 1.66625,-0.89176 2.00296,-1.88435 1.49773,-4.41051 -0.45181,-2.25907 -0.1751,-3.44135 0.89962,-3.85375 0.85267,-0.32722 8.34214,-1.49328 16.64521,-2.59185 11.0684,-1.46447 15.53287,-1.67596 16.72789,-0.79506 2.82328,2.08118 4.45236,28.76616 2.87875,47.13958 -4.33725,50.64116 -23.77099,87.35694 -59.48612,112.38319 l -8.65085,6.06143 2.14691,7.38896 c 4.48419,15.43215 13.06624,49.7997 13.06624,52.32084 0,2.48402 -0.43158,2.65582 -7.69046,3.06598 -8.74959,0.49438 -11.3594,2.20396 -11.3594,7.44001 0,1.83456 0.87106,4.30156 1.93781,5.48033 2.56593,2.8353 1.36124,4.4786 -3.28479,4.4786 -4.64873,0 -8.17916,3.22997 -8.17916,7.48379 0,4.51709 2.18412,6.78873 7.72449,8.03327 6.64208,1.49203 9.86167,4.68063 9.86167,9.76442 0,5.36374 -3.43909,8.45978 -10.98497,9.89084 -7.10199,1.34686 -10.38423,3.33471 -13.24615,8.02842 -5.80329,9.51763 -0.2755,21.89846 11.1503,24.97512 3.60159,0.9698 4.38279,1.74433 5.33445,5.27853 1.29076,4.7935 6.02877,9.76779 10.6081,11.13814 4.51269,1.35038 145.14854,1.4097 149.84345,0.0632 5.06194,-1.45175 9.76333,-6.17344 11.10411,-11.15273 0.97388,-3.61671 1.73531,-4.30334 6.54528,-5.90096 8.92494,-2.96436 13.37203,-10.47826 11.64629,-19.67715 -1.36917,-7.29833 -6.99039,-11.92464 -15.86474,-13.05893 -6.38254,-0.8158 -10.05861,-4.31903 -10.05861,-9.5845 0,-5.08378 3.21959,-8.27238 9.86167,-9.76442 5.54038,-1.24454 7.72449,-3.51617 7.72449,-8.03327 0,-4.25382 -3.53042,-7.48378 -8.17915,-7.48378 -4.64604,0 -5.85315,-1.6433 -3.28723,-4.47861 2.44246,-2.69889 2.50601,-8.24797 0.12162,-10.63241 -1.21143,-1.21143 -4.29897,-1.9736 -9.25139,-2.28307 -4.0881,-0.25546 -7.72297,-0.92374 -8.07948,-1.48314 -0.35652,-0.5594 1.20928,-8.41731 3.48174,-17.46217 9.62051,-38.29166 14.13838,-71.13484 14.97,-108.83095 0.68632,-31.1106 -0.34354,-46.00682 -4.69256,-67.80629 C 329.56081,127.0529 303.6154,91.566695 258.36356,69.914223 l -11.1114,-5.314995 -12.64074,-16.800827 z m -7.47648,60.356546 c 0.93616,-0.07619 1.85338,0.290888 3.15349,1.14275 3.33496,2.185138 3.43268,5.440612 0.23099,7.683161 -2.84085,1.98983 -2.98365,2.00486 -5.52409,0.52517 -2.74846,-1.600819 -2.52587,-7.207795 0.34767,-8.745665 0.66276,-0.354687 1.23023,-0.559667 1.79194,-0.605416 z"
     id="rect4198"
     inkscape:connector-curvature="0"
     sodipodi:nodetypes="ccsscssssscssscccssssssssssssssssssssssssssssscccccssssc" />
</svg>
