<?xml version="1.0" encoding="UTF-8" standalone="no"?>
<!-- Created with Inkscape (http://www.inkscape.org/) -->

<svg
   xmlns:dc="http://purl.org/dc/elements/1.1/"
   xmlns:cc="http://creativecommons.org/ns#"
   xmlns:rdf="http://www.w3.org/1999/02/22-rdf-syntax-ns#"
   xmlns:svg="http://www.w3.org/2000/svg"
   xmlns="http://www.w3.org/2000/svg"
   xmlns:sodipodi="http://sodipodi.sourceforge.net/DTD/sodipodi-0.dtd"
   xmlns:inkscape="http://www.inkscape.org/namespaces/inkscape"
   width="256"
   height="256"
   id="svg2"
   version="1.1"
   inkscape:version="0.48.5 r10040"
   sodipodi:docname="New document 1">
  <defs
     id="defs4" />
  <sodipodi:namedview
     id="base"
     pagecolor="#ffffff"
     bordercolor="#666666"
     borderopacity="1.0"
     inkscape:pageopacity="0.0"
     inkscape:pageshadow="2"
     inkscape:zoom="2.7313727"
     inkscape:cx="8.023542"
     inkscape:cy="118.19086"
     inkscape:document-units="px"
     inkscape:current-layer="layer1"
     showgrid="false"
     inkscape:window-width="1920"
     inkscape:window-height="1007"
     inkscape:window-x="0"
     inkscape:window-y="31"
     inkscape:window-maximized="1" />
  <metadata
     id="metadata7">
    <rdf:RDF>
      <cc:Work
         rdf:about="">
        <dc:format>image/svg+xml</dc:format>
        <dc:type
           rdf:resource="http://purl.org/dc/dcmitype/StillImage" />
        <dc:title></dc:title>
      </cc:Work>
    </rdf:RDF>
  </metadata>
  <g
     inkscape:label="Layer 1"
     inkscape:groupmode="layer"
     id="layer1">
    <path
       style="fill:#000000;fill-opacity:1;stroke:none"
       d="m 11.349605,237.69419 52.720744,-4.75952 -8.786791,-32.95046 19.770279,-9.15291 33.682693,-22.33309 20.1364,-16.84135 18.30581,-19.77028 8.78679,-11.71572 5.12563,-14.27853 2.56282,-11.715725 -0.36612,-2.562814 0,-1.464465 4.75951,3.661162 9.15291,2.562814 13.91242,-3.295046 11.3496,-12.81407 1.46446,-13.912418 -8.42067,-12.81407 -13.91241,-7.322326 -16.10912,3.295047 -10.25126,9.519023 -3.29504,15.742999 2.92893,5.491745 1.09834,1.830581 -8.42067,-0.366116 -14.27853,3.295047 -10.98349,6.956209 -13.54631,10.251253 -17.939693,18.67193 -12.81407,12.44795 -13.912418,15.01077 -1.464465,2.56282 34.048814,-4.75951 -15.010767,14.64465 -19.038047,20.50251 -54.5513259,55.64967 z"
       id="path2996"
       inkscape:connector-curvature="0"
       sodipodi:nodetypes="ccccccccccccccccccccccccccccccccccccc" />
    <path
       sodipodi:type="arc"
       style="fill:none;stroke:#000000;stroke-width:4;stroke-linecap:square;stroke-linejoin:miter;stroke-miterlimit:4;stroke-opacity:1;stroke-dasharray:none;stroke-dashoffset:0"
       id="path2998"
       sodipodi:cx="137.11055"
       sodipodi:cy="109.55349"
       sodipodi:rx="74.13855"
       sodipodi:ry="62.972"
       d="m 211.2491,109.55349 a 74.13855,62.972 0 1 1 -148.2771,0 74.13855,62.972 0 1 1 148.2771,0 z"
       transform="matrix(1.3703476,0,0,1.5522988,-49.497156,-60.323202)" />
  </g>
</svg>
