<?xml version="1.0" encoding="UTF-8" standalone="no"?>
<!-- Generator: flash2svg, http://dissentgraphics.com/tools/flash2svg -->

<svg
   xmlns:dc="http://purl.org/dc/elements/1.1/"
   xmlns:cc="http://creativecommons.org/ns#"
   xmlns:rdf="http://www.w3.org/1999/02/22-rdf-syntax-ns#"
   xmlns:svg="http://www.w3.org/2000/svg"
   xmlns="http://www.w3.org/2000/svg"
   xmlns:sodipodi="http://sodipodi.sourceforge.net/DTD/sodipodi-0.dtd"
   xmlns:inkscape="http://www.inkscape.org/namespaces/inkscape"
   id="ClamXav"
   image-rendering="optimizeSpeed"
   version="1.1"
   style="background-color:#ffffff"
   x="0px"
   y="0px"
   width="1024px"
   height="1024px"
   viewBox="0 0 1024 1024"
   enable-background="new 0 0 1024 1024"
   inkscape:version="0.48.5 r10040"
   sodipodi:docname="clamtk.svg">
  <metadata
     id="metadata41">
    <rdf:RDF>
      <cc:Work
         rdf:about="">
        <dc:format>image/svg+xml</dc:format>
        <dc:type
           rdf:resource="http://purl.org/dc/dcmitype/StillImage" />
      </cc:Work>
    </rdf:RDF>
  </metadata>
  <sodipodi:namedview
     pagecolor="#ffffff"
     bordercolor="#666666"
     borderopacity="1"
     objecttolerance="10"
     gridtolerance="10"
     guidetolerance="10"
     inkscape:pageopacity="0"
     inkscape:pageshadow="2"
     inkscape:window-width="1920"
     inkscape:window-height="1007"
     id="namedview39"
     showgrid="false"
     inkscape:zoom="0.78271743"
     inkscape:cx="264.36518"
     inkscape:cy="511.48251"
     inkscape:window-x="0"
     inkscape:window-y="31"
     inkscape:window-maximized="1"
     inkscape:current-layer="ClamXav" />
  <defs
     transform="matrix(1 0 0 1 0 0) "
     id="defs3" />
  <g
     id="ico-shadow"
     transform="matrix(1.0412412,0,0,1.0412412,-21.59066,-20.643364)"
     style="fill:none;stroke:#000000;stroke-opacity:1;stroke-width:7.68313816;stroke-miterlimit:4;stroke-dasharray:none">
    <g
       id="shape2"
       style="fill:none;stroke:#000000;stroke-opacity:1;stroke-width:7.68313816;stroke-miterlimit:4;stroke-dasharray:none">
      <path
         id="path1"
         d="M 727.2,91.75 C 718.5,87.4 709.35,83.1 699.95,79.05 691.35,75.3 682.8,71.85 674.05,68.65 631.95,52.9 589.8,43.3 547.6,40 478.2,34.4 408.65,45.4 338.7,73 c -23.45,9.3 -45.65,19.9 -66.6,31.9 -41.3,23.7 -77.6,52.65 -108.5,86.7 Q 112,248.2 79.05,324.15 C 58.8,370.8 46.2,417.6 41.2,463.8 c -0.45,4.45 -0.85,8.6 -1.2,12.75 -3.7,45.6 -0.2,90.75 10.25,136 5.7,24.55 13.25,48.75 22.75,72.85 27.7,69.95 67.25,128.4 118.55,175.1 31.45,28.65 67.2,52.85 107.3,72.8 0.15,0.05 0.25,0.1 0.35,0.15 3.1,1.55 6.1,3 8.65,4.15 4.9,2.35 9.25,4.35 13.6,6.25 1.1,0.45 1.9,0.85 2.75,1.2 9.45,4.1 18.9,7.85 27.9,11.2 2.35,0.85 4.5,1.65 6.6,2.4 19.05,6.7 38.2,12.15 56.9,16.3 7.9,1.7 15.8,3.25 23.5,4.55 0.95,0.2 1.95,0.3 2.7,0.45 11.65,1.85 23.2,3.25 34.75,4.2 69.8,5.45 139.2,-5.55 208.85,-33.05 24.35,-9.6 47.3,-20.65 68.8,-33.15 35.1,-20.35 66.45,-44.5 94.1,-72.5 4.15,-4.2 8.2,-8.5 12.25,-12.9 8.4,-9.25 16.5,-18.95 24.25,-29.1 20.05,-26.15 37.55,-55.1 52.6,-86.7 2.6,-5.5 5.15,-11.1 7.65,-16.85 0.25,-0.6 0.55,-1.25 0.8,-1.85 0.15,-0.3 0.25,-0.6 0.4,-0.9 2.8,-6.6 5.45,-13.25 8.1,-20 C 966,646.5 974.5,615.5 979.7,584.1 c 0.7,-4.4 1.4,-9.15 2.1,-13.9 0.9,-7.35 1.75,-14.85 2.35,-22.6 0.1,-1.45 0.25,-3.15 0.4,-4.95 1.3,-19.3 1.3,-38.7 0.1,-58.4 -0.45,-6.4 -1,-12.9 -1.7,-19.6 -0.2,-1.85 -0.45,-3.85 -0.7,-5.85 -2,-16.4 -4.95,-32.85 -8.95,-49.7 -5.45,-23.15 -12.85,-46.75 -22.2,-70.4 -27.55,-69.75 -67,-128.05 -118.6,-175.1 -18.75,-17.1 -39.35,-32.8 -61.55,-46.95 -13.85,-8.9 -28.3,-17.1 -43.75,-24.9 z"
         inkscape:connector-curvature="0"
         style="fill:none;fill-opacity:1;stroke:#000000;stroke-opacity:1;stroke-width:7.68313816;stroke-miterlimit:4;stroke-dasharray:none" />
    </g>
  </g>
  <g
     id="Calque.__209"
     style="fill:#000000;fill-opacity:1">
    <g
       id="shape6"
       style="fill:#000000;fill-opacity:1">
      <path
         id="path3"
         fill="#C26B50"
         fill-opacity="1"
         d="M801.65,201.4 Q801.65,198.05 798.35,198.05 L654.45,230.3 C652.2,230.3 651.1,231.4 651.1,233.65 L651.1,345.25 C651.1,347.5 652.2,348.6 654.45,348.6 L766.1,348.6 C768.25,348.6 769.35,347.5 769.35,345.25 L801.65,201.4z"
         style="fill:#000000;fill-opacity:1" />
      <path
         id="path4"
         fill="#87402D"
         fill-opacity="1"
         d="M769.35,654.65 C769.35,652.35 768.25,651.25 766.1,651.25 L654.45,651.25 C652.2,651.25 651.1,652.35 651.1,654.65 L651.1,766.2 C651.1,768.45 652.2,769.55 654.45,769.55 L798.35,801.85 C800.55,801.85 801.65,800.75 801.65,798.5 L769.35,654.65z"
         style="fill:#000000;fill-opacity:1" />
      <path
         id="path5"
         fill="#E9805F"
         fill-opacity="1"
         d="M380.25,233.65 C380.25,231.4 379.15,230.3 376.9,230.3 L232.95,198.05 C230.8,198.05 229.7,199.15 229.7,201.4 L261.95,345.25 C261.95,347.5 263.05,348.6 265.25,348.6 L376.9,348.6 C379.15,348.6 380.25,347.5 380.25,345.25 L380.25,233.65z"
         style="fill:#000000;fill-opacity:1" />
      <path
         id="path6"
         fill="#A95139"
         fill-opacity="1"
         d="M265.25,651.25 C263.05,651.25 261.95,652.35 261.95,654.65 L229.7,798.5 C229.7,800.75 230.8,801.85 232.95,801.85 L376.9,769.55 C379.15,769.55 380.25,768.45 380.25,766.2 L380.25,654.65 C380.25,652.35 379.15,651.25 376.9,651.25 L265.25,651.25z"
         style="fill:#000000;fill-opacity:1" />
    </g>
  </g>
  <g
     id="Calque.__210"
     style="fill:none;stroke:#000000;stroke-opacity:1;stroke-width:8;stroke-miterlimit:4;stroke-dasharray:none">
    <g
       id="shape11"
       style="fill:none;stroke:#000000;stroke-opacity:1;stroke-width:8;stroke-miterlimit:4;stroke-dasharray:none">
      <path
         id="path7"
         d="M 725.65212,711.75 Q 815.2,624 815.2,499.95 C 815.2,417.2 785.35071,346.6 725.65212,288.1 687.74097,250.9 644.72737,225.55 596.71338,212 c -49.54472,14.25 -93.47676,45.55 -131.89816,93.8 -54.54511,68.6 -81.84319,151.4 -81.84319,248.35 0,93.9 25.61427,174.5 76.79177,241.75 16.0727,2.4 32.65564,3.6 49.74883,3.6 0.051,0 0.051,0 0.10204,0 84.39442,-0.05 156.38989,-29.3 216.03745,-87.75 z"
         style="fill:none;fill-opacity:1;stroke:#000000;stroke-opacity:1;stroke-width:8;stroke-miterlimit:4;stroke-dasharray:none"
         inkscape:connector-curvature="0" />
      <path
         id="path8"
         d="M515.75,200.35 C515.7,200.35 515.7,200.35 515.65,200.35 432.9,200.35 362.3,229.6 303.8,288.1 245.3,346.6 216.05,417.2 216.05,499.95 216.05,582.65 245.3,653.25 303.8,711.75 350.45,758.4 404.85,786.45 466.9,795.9 416.75,728.65 391.65,648.05 391.65,554.15 391.65,457.2 418.4,374.4 471.85,305.8 509.5,257.55 552.55,226.25 601.1,212 574.25,204.25 545.8,200.35 515.75,200.35z"
         fill-opacity="1"
         fill="#CC6447"
         style="fill:none;fill-opacity:1;stroke:#000000;stroke-opacity:1;stroke-width:8;stroke-miterlimit:4;stroke-dasharray:none" />
    </g>
  </g>
  <g
     id="Calque.__212"
     style="fill:#000000;stroke:#000000;stroke-opacity:1;fill-opacity:1">
    <g
       id="shape19"
       style="fill:#000000;stroke:#000000;stroke-opacity:1;fill-opacity:1">
      <path
         id="path12"
         fill="#FFFFFF"
         fill-opacity="1"
         d="M746.9,499.95 Q746.9,470.8 733.75,447.1 L527.9,513.45 C530.65,538.05 541.15,559.45 559.3,577.6 580.75,599.05 606.65,609.8 637,609.8 667.35,609.8 693.25,599.05 714.7,577.6 736.15,556.15 746.9,530.3 746.9,499.95z M285.8,499.95 C285.8,530.3 296.5,556.15 317.95,577.6 339.4,599.05 365.3,609.8 395.65,609.8 426,609.8 451.9,599.05 473.35,577.6 492,558.95 502.6,536.95 505.05,511.5 L298.95,447.1 C290.2,462.9 285.8,480.5 285.8,499.95z"
         style="fill:#000000;stroke:#000000;stroke-opacity:1;fill-opacity:1" />
    </g>
  </g>
  <mask
     id="Calque.__214">
    <g
       id="g">
      <g
         id="shape28">
        <path
           id="path19"
           fill="#FFFFFF"
           fill-opacity="1"
           d="M746.9,499.95 Q746.9,470.8 733.75,447.1 L527.9,513.45 C530.65,538.05 541.15,559.45 559.3,577.6 580.75,599.05 606.65,609.8 637,609.8 667.35,609.8 693.25,599.05 714.7,577.6 736.15,556.15 746.9,530.3 746.9,499.95z M285.8,499.95 C285.8,530.3 296.5,556.15 317.95,577.6 339.4,599.05 365.3,609.8 395.65,609.8 426,609.8 451.9,599.05 473.35,577.6 492,558.95 502.6,536.95 505.05,511.5 L298.95,447.1 C290.2,462.9 285.8,480.5 285.8,499.95z" />
      </g>
    </g>
  </mask>
</svg>
