<?xml version="1.0" encoding="UTF-8" standalone="no"?>
<!-- Created with Inkscape (http://www.inkscape.org/) -->

<svg
   xmlns:dc="http://purl.org/dc/elements/1.1/"
   xmlns:cc="http://creativecommons.org/ns#"
   xmlns:rdf="http://www.w3.org/1999/02/22-rdf-syntax-ns#"
   xmlns:svg="http://www.w3.org/2000/svg"
   xmlns="http://www.w3.org/2000/svg"
   xmlns:xlink="http://www.w3.org/1999/xlink"
   xmlns:sodipodi="http://sodipodi.sourceforge.net/DTD/sodipodi-0.dtd"
   xmlns:inkscape="http://www.inkscape.org/namespaces/inkscape"
   width="48"
   height="48"
   viewBox="0 0 48 48.000001"
   id="svg4242"
   version="1.1"
   inkscape:version="0.48.5 r10040"
   sodipodi:docname="clementine.svg">
  <defs
     id="defs4244">
    <linearGradient
       id="linearGradient3819">
      <stop
         style="stop-color:#fffce4;stop-opacity:1"
         offset="0"
         id="stop3821" />
      <stop
         style="stop-color:#fafacd;stop-opacity:1"
         offset="1"
         id="stop3823" />
    </linearGradient>
    <linearGradient
       id="linearGradient8311-06">
      <stop
         offset="0"
         style="stop-color:#a9a3d4;stop-opacity:1"
         id="stop8313-6" />
      <stop
         id="stop4462"
         style="stop-color:#87baff;stop-opacity:1"
         offset="0.47001833" />
      <stop
         offset="1"
         style="stop-color:#89ec85;stop-opacity:1"
         id="stop8315-2" />
    </linearGradient>
    <linearGradient
       inkscape:collect="always"
       xlink:href="#linearGradient8311-06"
       id="linearGradient4460"
       x1="0"
       y1="23.5"
       x2="47"
       y2="23.5"
       gradientUnits="userSpaceOnUse" />
  </defs>
  <sodipodi:namedview
     id="base"
     pagecolor="#5a5a5a"
     bordercolor="#666666"
     borderopacity="1.0"
     inkscape:pageopacity="0"
     inkscape:pageshadow="2"
     inkscape:zoom="16.583333"
     inkscape:cx="12.422659"
     inkscape:cy="23.900002"
     inkscape:document-units="px"
     inkscape:current-layer="layer1"
     showgrid="false"
     units="px"
     inkscape:window-width="1920"
     inkscape:window-height="1007"
     inkscape:window-x="0"
     inkscape:window-y="31"
     inkscape:window-maximized="1"
     showborder="false" />
  <metadata
     id="metadata4247">
    <rdf:RDF>
      <cc:Work
         rdf:about="">
        <dc:format>image/svg+xml</dc:format>
        <dc:type
           rdf:resource="http://purl.org/dc/dcmitype/StillImage" />
        <dc:title />
      </cc:Work>
    </rdf:RDF>
  </metadata>
  <g
     inkscape:label="Layer 1"
     inkscape:groupmode="layer"
     id="layer1"
     transform="translate(0,-1004.3622)">
    <g
       id="g4248"
       transform="matrix(1.0239813,0,0,1.0239813,-0.71922348,-24.829691)"
       style="fill:none;stroke:#000000;stroke-opacity:1">
      <circle
         style="opacity:1;fill:none;fill-opacity:1;stroke:#000000;stroke-width:0.50000000000000000;stroke-linecap:butt;stroke-linejoin:round;stroke-miterlimit:4;stroke-dasharray:none;stroke-opacity:1"
         id="path4173"
         cx="24.229177"
         cy="1028.6241"
         r="23.437929"
         d="m 47.667107,1028.6241 c 0,12.9445 -10.493519,23.438 -23.43793,23.438 -12.94441,0 -23.43792868,-10.4935 -23.43792868,-23.438 0,-12.9444 10.49351868,-23.4379 23.43792868,-23.4379 12.944411,0 23.43793,10.4935 23.43793,23.4379 z" />
      <circle
         style="opacity:1;fill:none;fill-opacity:1;stroke:#000000;stroke-width:2;stroke-linecap:round;stroke-linejoin:round;stroke-miterlimit:4;stroke-dasharray:none;stroke-opacity:1"
         id="path4297-8"
         cx="24.19313"
         cy="1028.624"
         r="21.09413"
         d="m 45.28726,1028.624 c 0,11.65 -9.444163,21.0942 -21.09413,21.0942 -11.649966,0 -21.0941291,-9.4442 -21.0941291,-21.0942 0,-11.6499 9.4441631,-21.0941 21.0941291,-21.0941 11.649967,0 21.09413,9.4442 21.09413,21.0941 z" />
      <g
         transform="matrix(1.1718961,0,0,1.1718961,-3.7980864,-176.44407)"
         id="g4413"
         style="fill:none;stroke:#000000;stroke-opacity:1">
        <path
           inkscape:connector-curvature="0"
           id="path4206"
           d="m 23.99999,1012.3622 c -3,0 -5,2 -5,2 0,0 1.19323,4.0523 2,6 0.85571,2.0659 3,6 3,6 0,0 2.14429,-3.9341 3,-6 0.80677,-1.9477 2,-6 2,-6 0,0 -2,-2 -5,-2 z m -6.363281,2.5645 c 0,0 -2.829852,-3e-4 -4.951172,2.121 -2.12132,2.1214 -2.121094,4.9512 -2.121094,4.9512 0,0 3.710492,2.0214 5.658203,2.8281 2.065862,0.8557 6.363282,2.1211 6.363282,2.1211 0,0 -1.265389,-4.2974 -2.121094,-6.3632 -0.806767,-1.9478 -2.828125,-5.6582 -2.828125,-5.6582 z m 12.726562,0 c 0,0 -2.021358,3.7104 -2.828125,5.6582 -0.855705,2.0658 -2.121094,6.3632 -2.121094,6.3632 0,0 4.29742,-1.2654 6.363282,-2.1211 1.947711,-0.8067 5.658203,-2.8281 5.658203,-2.8281 0,0 2.26e-4,-2.8298 -2.121094,-4.9512 -2.12132,-2.1213 -4.951172,-2.121 -4.951172,-2.121 z m -20.363281,8.4355 c 0,0 -2,2 -2,5 0,3 2,5 2,5 0,0 4.05229,-1.1932 6,-2 2.06586,-0.8557 6,-3 6,-3 0,0 -3.93414,-2.1443 -6,-3 -1.94771,-0.8068 -6,-2 -6,-2 z m 28,0 c 0,0 -4.05229,1.1932 -6,2 -2.06586,0.8557 -6,3 -6,3 0,0 3.93414,2.1443 6,3 1.94771,0.8068 6,2 6,2 0,0 2,-2 2,-5 0,-3 -2,-5 -2,-5 z m -15.414062,6.4141 c 0,0 -4.29742,1.2654 -6.363282,2.1211 -1.947711,0.8067 -5.658203,2.8281 -5.658203,2.8281 0,0 -2.26e-4,2.8298 2.121094,4.9512 2.12132,2.1213 4.951172,2.121 4.951172,2.121 0,0 2.021358,-3.7104 2.828125,-5.6582 0.855705,-2.0658 2.121094,-6.3632 2.121094,-6.3632 z m 2.828124,0 c 0,0 1.265389,4.2974 2.121094,6.3632 0.806767,1.9478 2.828125,5.6582 2.828125,5.6582 0,0 2.829852,3e-4 4.951172,-2.121 2.12132,-2.1214 2.121094,-4.9512 2.121094,-4.9512 0,0 -3.710492,-2.0214 -5.658203,-2.8281 -2.065862,-0.8557 -6.363282,-2.1211 -6.363282,-2.1211 z m -1.414062,0.5859 c 0,0 -2.14429,3.9341 -3,6 -0.80677,1.9477 -2,6 -2,6 0,0 2,2 5,2 3,0 5,-2 5,-2 0,0 -1.19323,-4.0523 -2,-6 -0.85571,-2.0659 -3,-6 -3,-6 z"
           style="opacity:1;fill:none;fill-opacity:1;stroke:#000000;stroke-width:2;stroke-linecap:round;stroke-linejoin:round;stroke-miterlimit:4;stroke-dasharray:none;stroke-opacity:1" />
      </g>
    </g>
  </g>
</svg>
