<?xml version="1.0" encoding="UTF-8" standalone="no"?>
<!-- Created with Inkscape (http://www.inkscape.org/) -->

<svg
   xmlns:dc="http://purl.org/dc/elements/1.1/"
   xmlns:cc="http://creativecommons.org/ns#"
   xmlns:rdf="http://www.w3.org/1999/02/22-rdf-syntax-ns#"
   xmlns:svg="http://www.w3.org/2000/svg"
   xmlns="http://www.w3.org/2000/svg"
   xmlns:xlink="http://www.w3.org/1999/xlink"
   xmlns:sodipodi="http://sodipodi.sourceforge.net/DTD/sodipodi-0.dtd"
   xmlns:inkscape="http://www.inkscape.org/namespaces/inkscape"
   width="48px"
   height="48px"
   id="svg2985"
   version="1.1"
   inkscape:version="0.48.5 r10040"
   sodipodi:docname="clion.svg"
   inkscape:export-filename="/home/spooky/Downloads/icon-requests/intellij/clion.svg.png"
   inkscape:export-xdpi="90"
   inkscape:export-ydpi="90">
  <defs
     id="defs2987">
    <linearGradient
       inkscape:collect="always"
       id="linearGradient4303">
      <stop
         style="stop-color:#989a9b;stop-opacity:1"
         offset="0"
         id="stop4305" />
      <stop
         style="stop-color:#f6f6f7;stop-opacity:1"
         offset="1"
         id="stop4307" />
    </linearGradient>
    <clipPath
       id="clipPath4458-7">
      <path
         style="fill:url(#linearGradient3441);fill-opacity:1"
         inkscape:connector-curvature="0"
         id="use4460-2"
         d="m 69.626,12.145 -0.052,0 c -22.727,-0.292 -46.472,4.077 -46.709,4.122 -2.424,0.451 -4.946,2.974 -5.397,5.397 -0.044,0.237 -4.414,23.983 -4.122,46.71 -0.292,22.777 4.078,46.523 4.122,46.761 0.451,2.423 2.974,4.945 5.398,5.398 0.237,0.044 23.982,4.413 46.709,4.121 22.779,0.292 46.524,-4.077 46.761,-4.121 2.423,-0.452 4.946,-2.976 5.398,-5.399 0.044,-0.236 4.413,-23.981 4.121,-46.709 0.292,-22.777 -4.077,-46.523 -4.121,-46.761 -0.453,-2.423 -2.976,-4.946 -5.398,-5.397 -0.238,-0.045 -23.984,-4.414 -46.71,-4.122 z" />
    </clipPath>
    <linearGradient
       inkscape:collect="always"
       xlink:href="#linearGradient4303"
       id="linearGradient3441"
       gradientUnits="userSpaceOnUse"
       x1="2.3531249"
       y1="1044.3799"
       x2="13.377196"
       y2="1044.3799" />
    <filter
       inkscape:label="Blend Opposites"
       inkscape:menu="Color"
       inkscape:menu-tooltip="Blend an image with its hue opposite"
       style="color-interpolation-filters:sRGB;"
       id="filter3653">
      <feColorMatrix
         type="hueRotate"
         values="180"
         result="fbSourceGraphic"
         in="SourceGraphic"
         id="feColorMatrix3655" />
      <feColorMatrix
         values="1 0 0 0 0 0 1 0 0 0 0 0 1 0 0 -0.2125 -0.7154 -0.0721 1 0 "
         in="SourceGraphic"
         result="result1"
         id="feColorMatrix3657" />
      <feColorMatrix
         type="hueRotate"
         values="0"
         id="feColorMatrix3659" />
      <feColorMatrix
         values="1 0 0 0 0 0 1 0 0 0 0 0 1 0 0 0 0 0 1 0 "
         result="result3"
         id="feColorMatrix3661" />
      <feComposite
         in2="result3"
         result="result6"
         operator="atop"
         id="feComposite3663" />
      <feComposite
         in2="result6"
         operator="arithmetic"
         k2="0.5"
         k1="0.5"
         k3="0.5"
         in="result6"
         result="result4"
         id="feComposite3665" />
      <feBlend
         in2="fbSourceGraphic"
         mode="normal"
         result="result2"
         in="result4"
         id="feBlend3667" />
      <feComposite
         in2="result2"
         operator="arithmetic"
         k2="1"
         result="result5"
         id="feComposite3669" />
      <feComposite
         in2="SourceGraphic"
         operator="in"
         result="result5"
         id="feComposite3671" />
    </filter>
    <filter
       style="color-interpolation-filters:sRGB;"
       inkscape:label="Greyscale"
       id="filter3673">
      <feColorMatrix
         values="0.21 0.72 0.072 0 0 0.21 0.72 0.072 0 0 0.21 0.72 0.072 0 0 0 0 0 1 0 "
         id="feColorMatrix3675" />
    </filter>
  </defs>
  <sodipodi:namedview
     id="base"
     pagecolor="#5a5a5a"
     bordercolor="#e3e3e3"
     borderopacity="1"
     inkscape:pageopacity="0"
     inkscape:pageshadow="2"
     inkscape:zoom="20.677901"
     inkscape:cx="15.068716"
     inkscape:cy="24.44164"
     inkscape:current-layer="g5481"
     showgrid="false"
     inkscape:grid-bbox="true"
     inkscape:document-units="px"
     inkscape:snap-global="true"
     inkscape:window-width="1920"
     inkscape:window-height="1007"
     inkscape:window-x="0"
     inkscape:window-y="31"
     inkscape:window-maximized="1"
     inkscape:snap-bbox="true"
     inkscape:bbox-nodes="true"
     showguides="true"
     inkscape:showpageshadow="false"
     showborder="true">
    <inkscape:grid
       type="xygrid"
       id="grid2993" />
  </sodipodi:namedview>
  <metadata
     id="metadata2990">
    <rdf:RDF>
      <cc:Work
         rdf:about="">
        <dc:format>image/svg+xml</dc:format>
        <dc:type
           rdf:resource="http://purl.org/dc/dcmitype/StillImage" />
        <dc:title />
      </cc:Work>
    </rdf:RDF>
  </metadata>
  <g
     id="layer1"
     inkscape:label="Layer 1"
     inkscape:groupmode="layer">
    <g
       id="g5481"
       transform="matrix(0.77761806,-0.01071721,0.01071721,0.77761806,30.946456,-1.6787268)">
      <g
         transform="matrix(0.9857059,-0.16847515,0.16847515,0.9857059,-48.699083,-8.9827573)"
         id="g5405">
        <g
           id="g5366"
           transform="matrix(1.0962056,0,0,1.0962056,0.51279347,-1.9879883)" />
      </g>
      <rect
         transform="matrix(0.98818625,-0.15325775,0.15325775,0.98818625,0,0)"
         ry="1.5437782"
         y="13.684669"
         x="-42.623764"
         height="37.355072"
         width="49.639862"
         id="rect4851-2"
         style="opacity:1;fill:none;fill-opacity:1;stroke:#000000;stroke-width:1.50000000000000000;stroke-linecap:round;stroke-linejoin:round;stroke-miterlimit:4;stroke-dasharray:none;stroke-opacity:1" />
      <circle
         transform="matrix(0.78017865,0,0,0.78017865,2.5819378,10.521665)"
         r="12.348694"
         cy="45.12323"
         cx="11.184063"
         id="path5451"
         style="opacity:1;fill:none;fill-opacity:1;stroke:#000000;stroke-width:3.29631232;stroke-linecap:round;stroke-linejoin:round;stroke-miterlimit:4;stroke-dasharray:none;stroke-opacity:1;filter:url(#filter3673)"
         d="m 23.532757,45.12323 c 0,6.819995 -5.528699,12.348694 -12.348694,12.348694 -6.8199953,0 -12.3486939,-5.528699 -12.3486939,-12.348694 0,-6.819995 5.5286986,-12.348694 12.3486939,-12.348694 6.819995,0 12.348694,5.528699 12.348694,12.348694 z" />
      <path
         transform="matrix(-0.0138427,0.90747861,-0.90747861,-0.0138427,51.546127,37.320471)"
         inkscape:transform-center-y="0.020206899"
         inkscape:transform-center-x="-1.4810216"
         d="M 14.428456,47.271288 5.5057777,47.467572 9.7971304,39.642164 z"
         inkscape:randomized="0"
         inkscape:rounded="0"
         inkscape:flatsided="true"
         sodipodi:arg2="1.5488016"
         sodipodi:arg1="0.50160405"
         sodipodi:r2="2.5763786"
         sodipodi:r1="5.1527572"
         sodipodi:cy="44.793674"
         sodipodi:cx="9.9104548"
         sodipodi:sides="3"
         id="path5467"
         style="opacity:1;fill:#000000;fill-opacity:1;stroke:none;stroke-width:0.30000000999999998;stroke-linecap:round;stroke-linejoin:round;stroke-miterlimit:4;stroke-dasharray:none;stroke-opacity:1;filter:url(#filter3673)"
         sodipodi:type="star" />
      <path
         inkscape:connector-curvature="0"
         id="path4286"
         d="m -20.144089,43.437071 -0.148674,-0.802948 -5.018427,0.929159 -5.018425,0.929157 0.07932,0.65979 c 0.04359,0.362891 0.12685,0.73752 0.185016,0.83251 0.08817,0.143937 0.935586,0.01303 5.087821,-0.786008 l 4.982046,-0.958714 z m -3.523316,-7.763806 c 0.876465,-0.622028 1.722094,-1.590892 1.663723,-1.906174 -0.02361,-0.126352 -0.432399,-0.49427 -0.908873,-0.817506 l -0.866323,-0.5877 -0.520995,0.542785 c -0.743587,0.774684 -1.280816,1.088856 -2.131137,1.246291 -1.726389,0.319639 -3.163328,-0.618164 -3.660024,-2.388668 -0.828764,-2.954227 1.716724,-5.214812 4.500436,-3.996724 0.363384,0.15901 0.756807,0.272448 0.874277,0.252084 0.117481,-0.02034 0.457658,-0.4644 0.755977,-0.986749 0.638022,-1.117187 0.597279,-1.214895 -0.719324,-1.72511 -1.804945,-0.699457 -4.3101,-0.393499 -5.861548,0.715878 -0.884448,0.632436 -1.722334,1.658531 -2.076514,2.542969 -1.008067,2.517255 -0.08985,5.661566 2.091244,7.161181 1.4582,1.002585 2.635604,1.19681 4.668045,0.770048 1.274807,-0.267676 1.559983,-0.374744 2.191036,-0.822605 z m 10.920538,-1.970628 c 0.04983,-0.156476 0.03897,-0.563414 -0.02415,-0.904307 -0.213622,-1.153584 -0.17458,-1.144182 -2.757987,-0.665867 l -2.270313,0.420345 -0.788166,-4.256809 c -0.597691,-3.228011 -0.839598,-4.305335 -1.000954,-4.457601 -0.178527,-0.168448 -0.394432,-0.1606 -1.340501,0.04866 l -1.127695,0.249511 0.968455,5.426206 c 0.532659,2.984412 1.011319,5.496208 1.063725,5.581765 0.07294,0.11912 0.925899,0.0018 3.641113,-0.500951 3.368713,-0.623713 3.550372,-0.670722 3.636452,-0.941012 z"
         style="fill:#000000;fill-opacity:1"
         sodipodi:nodetypes="ccccccsccscscsssscsssssssccscscscscscc" />
    </g>
  </g>
</svg>
