<?xml version="1.0" encoding="UTF-8" standalone="no"?>
<svg
   xmlns:dc="http://purl.org/dc/elements/1.1/"
   xmlns:cc="http://creativecommons.org/ns#"
   xmlns:rdf="http://www.w3.org/1999/02/22-rdf-syntax-ns#"
   xmlns:svg="http://www.w3.org/2000/svg"
   xmlns="http://www.w3.org/2000/svg"
   xmlns:sodipodi="http://sodipodi.sourceforge.net/DTD/sodipodi-0.dtd"
   xmlns:inkscape="http://www.inkscape.org/namespaces/inkscape"
   viewBox="0 0 128 128"
   id="svg2"
   version="1.1"
   inkscape:version="0.48.5 r10040"
   sodipodi:docname="clipit.svg"
   width="128"
   height="128">
  <metadata
     id="metadata97">
    <rdf:RDF>
      <cc:Work
         rdf:about="">
        <dc:format>image/svg+xml</dc:format>
        <dc:type
           rdf:resource="http://purl.org/dc/dcmitype/StillImage" />
        <dc:title />
      </cc:Work>
    </rdf:RDF>
  </metadata>
  <sodipodi:namedview
     pagecolor="#ffffff"
     bordercolor="#666666"
     borderopacity="1"
     objecttolerance="10"
     gridtolerance="10"
     guidetolerance="10"
     inkscape:pageopacity="0"
     inkscape:pageshadow="2"
     inkscape:window-width="1920"
     inkscape:window-height="1007"
     id="namedview95"
     showgrid="false"
     inkscape:zoom="3.4766083"
     inkscape:cx="34.01653"
     inkscape:cy="52.189201"
     inkscape:window-x="0"
     inkscape:window-y="31"
     inkscape:window-maximized="1"
     inkscape:current-layer="svg2" />
  <defs
     id="defs4">
    <linearGradient
       id="linearGradient3764"
       x1="1"
       x2="47"
       gradientUnits="userSpaceOnUse"
       gradientTransform="matrix(0,-1,1,0,-1.5e-6,47.999998)">
      <stop
         stop-color="#32a8ce"
         stop-opacity="1"
         id="stop7" />
      <stop
         offset="1"
         stop-color="#41afd2"
         stop-opacity="1"
         id="stop9" />
    </linearGradient>
    <clipPath
       id="clipPath-452468807">
      <g
         transform="translate(0,-1004.3622)"
         id="g12">
        <path
           d="m -24,13 c 0,1.105 -0.672,2 -1.5,2 -0.828,0 -1.5,-0.895 -1.5,-2 0,-1.105 0.672,-2 1.5,-2 0.828,0 1.5,0.895 1.5,2 z"
           transform="matrix(15.333333,0,0,11.5,414.99999,878.8622)"
           id="path14"
           inkscape:connector-curvature="0"
           style="fill:#1890d0" />
      </g>
    </clipPath>
    <clipPath
       id="clipPath-461194074">
      <g
         transform="translate(0,-1004.3622)"
         id="g17">
        <path
           d="m -24,13 c 0,1.105 -0.672,2 -1.5,2 -0.828,0 -1.5,-0.895 -1.5,-2 0,-1.105 0.672,-2 1.5,-2 0.828,0 1.5,0.895 1.5,2 z"
           transform="matrix(15.333333,0,0,11.5,414.99999,878.8622)"
           id="path19"
           inkscape:connector-curvature="0"
           style="fill:#1890d0" />
      </g>
    </clipPath>
  </defs>
  <g
     id="g33"
     transform="translate(0,80)" />
  <rect
     style="fill:none;stroke:#000000;stroke-width:5.6171279;stroke-miterlimit:4;stroke-opacity:1;stroke-dasharray:none;stroke-dashoffset:0"
     id="rect3437"
     width="62.439301"
     height="89.754807"
     x="11.728104"
     y="8.5693111"
     ry="8.0444307" />
  <g
     id="g67"
     clip-path="url(#clipPath-461194074)"
     transform="matrix(1.6104925,0,0,2.1514625,60.846191,44.996727)"
     style="fill:none;stroke:#000000;stroke-width:1.30720139;stroke-miterlimit:4;stroke-opacity:1;stroke-dasharray:none">
    <!-- color: #41afd2 -->
    <g
       id="g69"
       style="fill:none;stroke:#000000;stroke-width:1.30720139;stroke-miterlimit:4;stroke-opacity:1;stroke-dasharray:none">
      <path
         style="fill:none;stroke:#000000;stroke-width:1.30720139;stroke-miterlimit:4;stroke-opacity:1;stroke-dasharray:none"
         inkscape:connector-curvature="0"
         id="path71"
         d="m 14,12 20,0 c 1.105,0 2,0.895 2,2 l 0,20 c 0,1.105 -0.895,2 -2,2 l -20,0 c -1.105,0 -2,-0.895 -2,-2 l 0,-20 c 0,-1.105 0.895,-2 2,-2 m 0,0" />
      <path
         style="fill:none;stroke:#000000;stroke-width:1.30720139;stroke-miterlimit:4;stroke-opacity:1;stroke-dasharray:none"
         inkscape:connector-curvature="0"
         id="path73"
         d="m 14,12 c -1.109,0 -2,0.891 -2,2 l 0,20 c 0,1.109 0.891,2 2,2 l 10,0 0,-24 m -10,0" />
      <path
         style="fill:none;stroke:#000000;stroke-width:1.30720139;stroke-miterlimit:4;stroke-opacity:1;stroke-dasharray:none"
         inkscape:connector-curvature="0"
         id="path75"
         d="m 14,12 c -1.109,0 -2,0.891 -2,2 l 0,20 c 0,1.109 0.891,2 2,2 l 1,0 c -1.109,0 -2,-0.891 -2,-2 l 0,-20 c 0,-1.109 0.891,-2 2,-2 m -1,0" />
      <path
         style="fill:none;stroke:#000000;stroke-width:1.30720139;stroke-miterlimit:4;stroke-opacity:1;stroke-dasharray:none"
         inkscape:connector-curvature="0"
         id="path77"
         d="m 33,12 c 1.109,0 2,0.891 2,2 l 0,20 c 0,1.109 -0.891,2 -2,2 l 1,0 c 1.109,0 2,-0.891 2,-2 l 0,-20 c 0,-1.109 -0.891,-2 -2,-2 m -1,0" />
      <path
         style="fill:none;stroke:#000000;stroke-width:1.30720139;stroke-miterlimit:4;stroke-opacity:1;stroke-dasharray:none"
         inkscape:connector-curvature="0"
         id="path79"
         d="m 15,14 7,0 0,2 -7,0 m 0,-2" />
      <path
         style="fill:none;stroke:#000000;stroke-width:1.30720139;stroke-miterlimit:4;stroke-opacity:1;stroke-dasharray:none"
         inkscape:connector-curvature="0"
         id="path81"
         d="m 26,32 7,0 0,2 -7,0 m 0,-2" />
      <path
         style="fill:none;stroke:#000000;stroke-width:1.30720139;stroke-miterlimit:4;stroke-opacity:1;stroke-dasharray:none"
         inkscape:connector-curvature="0"
         id="path83"
         d="m 15,19 18,0 0,1 -18,0 m 0,-1" />
      <path
         style="fill:none;stroke:#000000;stroke-width:1.30720139;stroke-miterlimit:4;stroke-opacity:1;stroke-dasharray:none"
         inkscape:connector-curvature="0"
         id="path85"
         d="m 15,22 18,0 0,1 -18,0 m 0,-1" />
      <path
         style="fill:none;stroke:#000000;stroke-width:1.30720139;stroke-miterlimit:4;stroke-opacity:1;stroke-dasharray:none"
         inkscape:connector-curvature="0"
         id="path87"
         d="m 15,25 18,0 0,1 -18,0 m 0,-1" />
      <path
         style="fill:none;stroke:#000000;stroke-width:1.30720139;stroke-miterlimit:4;stroke-opacity:1;stroke-dasharray:none"
         inkscape:connector-curvature="0"
         id="path89"
         d="m 15,28 18,0 0,1 -18,0 m 0,-1" />
    </g>
  </g>
  <rect
     style="fill:#00000c;fill-opacity:1;stroke:none"
     id="rect4239-7"
     width="14.993366"
     height="9.6509018"
     x="35.838264"
     y="1.4298816" />
</svg>
