<?xml version="1.0" encoding="UTF-8" standalone="no"?>
<!-- Created with Inkscape (http://www.inkscape.org/) -->

<svg
   xmlns:dc="http://purl.org/dc/elements/1.1/"
   xmlns:cc="http://creativecommons.org/ns#"
   xmlns:rdf="http://www.w3.org/1999/02/22-rdf-syntax-ns#"
   xmlns:svg="http://www.w3.org/2000/svg"
   xmlns="http://www.w3.org/2000/svg"
   xmlns:sodipodi="http://sodipodi.sourceforge.net/DTD/sodipodi-0.dtd"
   xmlns:inkscape="http://www.inkscape.org/namespaces/inkscape"
   width="48"
   height="48"
   id="svg2"
   version="1.1"
   inkscape:version="0.48.5 r10040"
   sodipodi:docname="cycle.svg">
  <defs
     id="defs4" />
  <sodipodi:namedview
     id="base"
     pagecolor="#ffffff"
     bordercolor="#666666"
     borderopacity="1.0"
     inkscape:pageopacity="0.0"
     inkscape:pageshadow="2"
     inkscape:zoom="8.0000004"
     inkscape:cx="-4.9703678"
     inkscape:cy="25.575913"
     inkscape:document-units="px"
     inkscape:current-layer="g4083"
     showgrid="false"
     fit-margin-top="0"
     fit-margin-left="0"
     fit-margin-right="0"
     fit-margin-bottom="0"
     inkscape:window-width="1920"
     inkscape:window-height="1007"
     inkscape:window-x="0"
     inkscape:window-y="31"
     inkscape:window-maximized="1">
    <sodipodi:guide
       position="9.6249995,-11.374999"
       orientation="30,0"
       id="guide3281" />
    <sodipodi:guide
       position="38.999993,9"
       orientation="-30,0"
       id="guide3285" />
    <sodipodi:guide
       position="38.999993,39"
       orientation="0,-30"
       id="guide3287" />
    <sodipodi:guide
       position="7,44"
       orientation="40,0"
       id="guide3308" />
    <sodipodi:guide
       position="45.499998,8.4999996"
       orientation="0,30"
       id="guide3312" />
    <sodipodi:guide
       position="39,4"
       orientation="0,2"
       id="guide3314" />
    <sodipodi:guide
       position="41,4"
       orientation="-40,0"
       id="guide3316" />
    <sodipodi:guide
       position="41,44"
       orientation="0,-2"
       id="guide3318" />
    <sodipodi:guide
       position="39,44"
       orientation="0,-30"
       id="guide3320" />
    <sodipodi:guide
       position="9,44"
       orientation="0,-2"
       id="guide3322" />
    <sodipodi:guide
       position="7,44"
       orientation="0,0"
       id="guide3324" />
    <sodipodi:guide
       position="29.999993,15"
       orientation="11,0"
       id="guide3330" />
    <sodipodi:guide
       position="29.999993,4"
       orientation="0,11"
       id="guide3332" />
    <sodipodi:guide
       position="40.999993,4"
       orientation="-11,0"
       id="guide3334" />
    <sodipodi:guide
       position="-13.624999,4"
       orientation="0,-11"
       id="guide3336" />
  </sodipodi:namedview>
  <metadata
     id="metadata7">
    <rdf:RDF>
      <cc:Work
         rdf:about="">
        <dc:format>image/svg+xml</dc:format>
        <dc:type
           rdf:resource="http://purl.org/dc/dcmitype/StillImage" />
        <dc:title />
      </cc:Work>
    </rdf:RDF>
  </metadata>
  <g
     inkscape:label="Capa 1"
     inkscape:groupmode="layer"
     id="layer1"
     transform="translate(-180.23661,-689.8125)">
    <path
       inkscape:connector-curvature="0"
       style="fill:none;fill-opacity:1;fill-rule:evenodd;stroke:#000000;stroke-opacity:1;stroke-width:4;stroke-miterlimit:4;stroke-dasharray:none"
       d="m 186.30398,692.14746 0,42.2966 2.11483,0 22.20572,0 11.63156,-11.63156 0,-30.66504 -2.11482,0 -31.72246,0 -2.11483,0 z"
       id="rect3303" />
    <path
       style="fill:#000000;fill-opacity:1;stroke:none"
       d="m 210.62452,722.8125 0,11.63156 11.63157,-11.63157 z"
       id="path3338"
       inkscape:connector-curvature="0" />
    <g
       transform="matrix(0.26435381,0,0,0.26435381,36.081847,575.88054)"
       id="layer1-7"
       inkscape:label="Capa 1"
       style="fill:none;stroke:#000000;stroke-opacity:1">
      <g
         id="g4083"
         style="fill:none;stroke:#000000;stroke-opacity:1"
         transform="matrix(5.0304544,0,0,4.9224394,-1493.5713,-1976.0886)">
        <rect
           ry="0"
           y="495.91605"
           x="413.57938"
           height="7.4554825"
           width="8.7095156"
           id="rect4077"
           style="fill:none;stroke:#000000;stroke-width:0.76018733;stroke-miterlimit:4;stroke-opacity:1;stroke-dasharray:none" />
        <path
           inkscape:connector-curvature="0"
           style="fill:#000000;fill-opacity:1;stroke:none"
           d="m 417.49737,496.848 c -0.85512,4e-5 -1.70459,0.30152 -2.30879,0.81908 -0.60422,0.51757 -0.95601,1.24484 -0.95601,1.97672 0,0.73189 0.35179,1.45916 0.95601,1.97673 0.6042,0.51756 1.45367,0.81904 2.30879,0.81908 0.85511,4e-5 1.70507,-0.30115 2.31006,-0.81872 0.60498,-0.51757 0.95728,-1.24512 0.95728,-1.97709 l -0.87096,0 c 0,0.53678 -0.25846,1.07041 -0.70212,1.44996 -0.44365,0.37956 -1.06718,0.60033 -1.69426,0.6003 -0.62708,-3e-5 -1.24992,-0.22111 -1.69301,-0.60066 -0.44308,-0.37955 -0.70084,-0.91288 -0.70084,-1.4496 0,-0.53671 0.25776,-1.07005 0.70084,-1.44959 0.44309,-0.37955 1.06593,-0.60063 1.69301,-0.60066 4.3e-4,0 8.6e-4,0 0.001,0 l 0,-0.74555 c -4.5e-4,0 -8.8e-4,0 -0.001,0 z"
           id="path3304" />
        <path
           inkscape:connector-curvature="0"
           id="path4149"
           d="m 421.01987,496.848 -3.08575,2.64145 -0.79951,-0.68439 -0.61578,0.52713 0.7995,0.68439 0.54434,0.46597 0.0715,0.0611 3.70154,-3.16858 -0.61579,-0.52712 z"
           style="fill:#000000;fill-opacity:1;stroke:none" />
        <rect
           ry="0"
           y="503.52344"
           x="413.57938"
           height="7.4554825"
           width="8.7095156"
           id="rect4077-7"
           style="fill:none;stroke:#000000;stroke-width:0.76018733;stroke-miterlimit:4;stroke-opacity:1;stroke-dasharray:none" />
        <path
           inkscape:connector-curvature="0"
           style="fill:#000000;fill-opacity:1;stroke:none"
           d="m 417.49735,504.45541 c -0.85512,4e-5 -1.70459,0.30152 -2.30879,0.81908 -0.60422,0.51757 -0.95601,1.24484 -0.95601,1.97672 0,0.73189 0.35179,1.45916 0.95601,1.97673 0.6042,0.51756 1.45367,0.81904 2.30879,0.81908 0.85511,4e-5 1.70507,-0.30115 2.31006,-0.81872 0.60498,-0.51757 0.95728,-1.24512 0.95728,-1.97709 l -0.87096,0 c 0,0.53678 -0.25846,1.07041 -0.70212,1.44996 -0.44365,0.37956 -1.06718,0.60033 -1.69426,0.6003 -0.62708,-3e-5 -1.24992,-0.22111 -1.69301,-0.60066 -0.44308,-0.37955 -0.70084,-0.91288 -0.70084,-1.4496 0,-0.53671 0.25776,-1.07005 0.70084,-1.44959 0.44309,-0.37955 1.06593,-0.60063 1.69301,-0.60066 4.3e-4,0 8.6e-4,0 0.001,0 l 0,-0.74555 c -4.5e-4,0 -8.8e-4,0 -0.001,0 z"
           id="path3304-5" />
        <path
           inkscape:connector-curvature="0"
           id="path4149-3"
           d="m 421.01985,504.45541 -3.08575,2.64145 -0.79951,-0.68439 -0.61578,0.52713 0.7995,0.68439 0.54434,0.46597 0.0715,0.0611 3.70154,-3.16858 -0.61579,-0.52712 z"
           style="fill:#000000;fill-opacity:1;stroke:none" />
      </g>
    </g>
  </g>
</svg>
