<?xml version="1.0" encoding="UTF-8" standalone="no"?>
<!-- Generator: flash2svg, http://dissentgraphics.com/tools/flash2svg -->

<svg
   xmlns:dc="http://purl.org/dc/elements/1.1/"
   xmlns:cc="http://creativecommons.org/ns#"
   xmlns:rdf="http://www.w3.org/1999/02/22-rdf-syntax-ns#"
   xmlns:svg="http://www.w3.org/2000/svg"
   xmlns="http://www.w3.org/2000/svg"
   xmlns:sodipodi="http://sodipodi.sourceforge.net/DTD/sodipodi-0.dtd"
   xmlns:inkscape="http://www.inkscape.org/namespaces/inkscape"
   id="Android-Studio"
   image-rendering="optimizeSpeed"
   version="1.1"
   style="background-color:#ffffff"
   x="0px"
   y="0px"
   width="1024px"
   height="1024px"
   viewBox="0 0 1024 1024"
   enable-background="new 0 0 1024 1024"
   inkscape:version="0.48.5 r10040"
   sodipodi:docname="dalvik.svg">
  <metadata
     id="metadata78">
    <rdf:RDF>
      <cc:Work
         rdf:about="">
        <dc:format>image/svg+xml</dc:format>
        <dc:type
           rdf:resource="http://purl.org/dc/dcmitype/StillImage" />
      </cc:Work>
    </rdf:RDF>
  </metadata>
  <sodipodi:namedview
     pagecolor="#ffffff"
     bordercolor="#666666"
     borderopacity="1"
     objecttolerance="10"
     gridtolerance="10"
     guidetolerance="10"
     inkscape:pageopacity="0"
     inkscape:pageshadow="2"
     inkscape:window-width="1920"
     inkscape:window-height="1007"
     id="namedview76"
     showgrid="false"
     inkscape:zoom="0.921875"
     inkscape:cx="441.49124"
     inkscape:cy="442.59986"
     inkscape:window-x="0"
     inkscape:window-y="31"
     inkscape:window-maximized="1"
     inkscape:current-layer="Calque.__2017" />
  <defs
     transform="matrix(1 0 0 1 0 0) "
     id="defs3" />
  <g
     id="bg"
     transform="matrix(1.0310232,0,0,1.0310232,-21.242479,-13.954344)"
     style="stroke:#000000;stroke-opacity:1;stroke-width:3.87964112000000005;stroke-miterlimit:4;stroke-dasharray:none;fill:none">
    <g
       id="shape2"
       style="stroke:#000000;stroke-opacity:1;stroke-width:3.87964112000000005;stroke-miterlimit:4;stroke-dasharray:none;fill:none">
      <path
         id="path1"
         d="m 929.85,289.65 c -2.35,-4.35 -4.95,-9 -7.65,-13.6 -20.3,-34.5 -45.8,-67.2 -76.35,-97.75 C 773.25,105.7 688.7,61.65 592.2,46.25 c -16.25,-2.6 -32.8,-4.4 -50.05,-5.35 -9.7,-0.55 -19.85,-0.85 -30.1,-0.85 -9.35,0 -18.6,0.25 -27.9,0.75 -118.35,6.1 -220.3,51.95 -305.85,137.5 -20.5,20.5 -38.75,41.95 -54.7,64.4 -15.35,21.55 -28.55,44 -39.6,67.2 l -0.025,-0.025 Q 40.05,401.873 40.05,512.05 c 0,130.35 46.1,241.65 138.25,333.8 56.7,56.65 120.55,95.9 191.1,117.55 36.75,11.25 74.8,17.85 114.75,19.95 0.15,0 0.25,0 0.4,0 8.5,0.45 16.6,0.7 24.5,0.7 1.2,0 2.1,0 3,0 10.3,0 20.5,-0.3 30.1,-0.8 2.5,-0.15 4.75,-0.3 6.95,-0.45 20.2,-1.45 39.9,-4.05 58.7,-7.7 7.95,-1.55 15.8,-3.3 23.4,-5.15 80.8,-20.3 152.15,-61.6 214.65,-124.1 48.6,-48.6 84.4,-102.5 107.35,-161.8 18.45,-47.65 28.65,-98.8 30.55,-153.5 0.2,-6.05 0.3,-12.25 0.3,-18.5 0,-0.65 0,-1.35 0,-2 0,-0.35 0,-0.65 0,-1 -0.2,-40.65 -4.95,-79.5 -14.3,-117 -1.1,-4.35 -2.35,-9 -3.65,-13.6 -1,-3.4 -2,-6.85 -3.15,-10.5 -1.6,-5.15 -3.4,-10.5 -5.3,-15.85 -5.05,-14.25 -10.85,-28.25 -17.45,-42.15 -1.85,-3.8 -3.75,-7.65 -5.7,-11.5 -1.45,-2.85 -2.95,-5.7 -4.65,-8.8 z"
         inkscape:connector-curvature="0"
         style="fill:none;fill-opacity:1;stroke:#000000;stroke-opacity:1;stroke-width:3.87964112000000005;stroke-miterlimit:4;stroke-dasharray:none" />
    </g>
  </g>
  <g
     id="Calque.__2015"
     transform="matrix(1.0310232,0,0,1.0310232,-21.242479,-13.954344)"
     style="fill:#000000;fill-opacity:1">
    <g
       id="Symbole.__2038_1"
       overflow="visible"
       style="overflow:visible;fill:#000000;fill-opacity:1">
      <g
         id="Calque.__2030"
         style="fill:#000000;fill-opacity:1">
        <g
           id="shape83"
           style="fill:#000000;fill-opacity:1">
          <path
             id="path70"
             d="m 738.55,197.55 q -16.1,0 -27.45,11.4 l -86.1,86.1 c -7.6,7.55 -11.4,16.7 -11.4,27.45 0,10.75 3.8,19.9 11.4,27.5 0.3,0.3 0.6,0.6 0.85,0.85 L 766.9,209.8 c -0.25,-0.25 -0.55,-0.55 -0.85,-0.85 -7.6,-7.6 -16.75,-11.4 -27.5,-11.4 z m -491.9,38.85 c 0,10.75 3.8,19.9 11.4,27.5 l 86.1,86.1 c 7.55,7.55 16.7,11.35 27.45,11.35 10.75,0 19.9,-3.8 27.5,-11.35 7.55,-7.6 11.35,-16.75 11.35,-27.5 0,-10.75 -3.8,-19.9 -11.35,-27.45 L 313,208.95 c -7.6,-7.6 -16.75,-11.4 -27.5,-11.4 -10.75,0 -19.9,3.8 -27.45,11.4 -7.6,7.55 -11.4,16.7 -11.4,27.45 z"
             inkscape:connector-curvature="0"
             style="fill:#000000;fill-opacity:1" />
          <path
             id="path71"
             d="m 766.05,263.9 c 7.55,-7.6 11.35,-16.75 11.35,-27.5 0,-10.35 -3.5,-19.2 -10.5,-26.6 L 625.85,350.85 c 7.4,7 16.25,10.5 26.6,10.5 10.75,0 19.9,-3.8 27.5,-11.35 l 86.1,-86.1 z"
             inkscape:connector-curvature="0"
             style="fill:#000000;fill-opacity:1" />
        </g>
      </g>
    </g>
  </g>
  <mask
     id="bg2">
    <g
       id="g">
      <g
         id="shape16">
        <path
           id="path10"
           fill="#FFFFFF"
           fill-opacity="1"
           d="M929.85,289.65 C927.5,285.3 924.9,280.65 922.2,276.05 901.9,241.55 876.4,208.85 845.85,178.3 773.25,105.7 688.7,61.65 592.2,46.25 575.95,43.65 559.4,41.85 542.15,40.9 532.45,40.35 522.3,40.05 512.05,40.05 502.7,40.05 493.45,40.3 484.15,40.8 365.8,46.9 263.85,92.75 178.3,178.3 157.8,198.8 139.55,220.25 123.6,242.7 108.25,264.25 95.05,286.7 84,309.9 L83.975,309.875 Q40.05,401.873 40.05,512.05 C40.05,642.4 86.15,753.7 178.3,845.85 235,902.5 298.85,941.75 369.4,963.4 406.15,974.65 444.2,981.25 484.15,983.35 484.3,983.35 484.4,983.35 484.55,983.35 493.05,983.8 501.15,984.05 509.05,984.05 510.25,984.05 511.15,984.05 512.05,984.05 522.35,984.05 532.55,983.75 542.15,983.25 544.65,983.1 546.9,982.95 549.1,982.8 569.3,981.35 589,978.75 607.8,975.1 615.75,973.55 623.6,971.8 631.2,969.95 712,949.65 783.35,908.35 845.85,845.85 894.45,797.25 930.25,743.35 953.2,684.05 971.65,636.4 981.85,585.25 983.75,530.55 983.95,524.5 984.05,518.3 984.05,512.05 984.05,511.4 984.05,510.7 984.05,510.05 984.05,509.7 984.05,509.4 984.05,509.05 983.85,468.4 979.1,429.55 969.75,392.05 968.65,387.7 967.4,383.05 966.1,378.45 965.1,375.05 964.1,371.6 962.95,367.95 961.35,362.8 959.55,357.45 957.65,352.1 952.6,337.85 946.8,323.85 940.2,309.95 938.35,306.15 936.45,302.3 934.5,298.45 933.05,295.6 931.55,292.75 929.85,289.65z" />
      </g>
    </g>
  </mask>
  <g
     id="masked"
     mask="url(#bg2)"
     transform="matrix(1.0310232,0,0,1.0310232,-21.242479,-13.954344)">
    <g
       id="Calque.__2016">
      <g
         id="shape6">
        <path
           id="path3"
           d="m 814.05,584.05 0,-6 C 813.6,495.5 784.1,425 725.6,366.5 694.8,335.7 660.65,312.95 623.2,298.25 c -3.7,-0.15 -7.4,-0.2 -11.15,-0.2 -83.4,0 -154.6,29.5 -213.55,88.45 -55.15,55.15 -84.5,121 -88.05,197.55 l 503.6,0 z"
           inkscape:connector-curvature="0"
           style="fill:#000000;fill-opacity:1" />
        <path
           id="path5"
           d="m 612.05,298.05 c 3.75,0 7.45,0.05 11.15,0.2 -34.25,-13.45 -71.3,-20.2 -111.15,-20.2 -83.4,0 -154.6,29.5 -213.55,88.45 -57.55,57.55 -87,126.7 -88.4,207.55 l 0,4.5 c -0.05,0.5 -0.05,1 -0.05,1.5 0,0.5 0,1 0.05,1.5 l 0,2.5 100.35,0 C 314,507.5 343.35,466.86767 398.5,411.71767 457.45,352.76767 528.65,298.05 612.05,298.05 z"
           inkscape:connector-curvature="0"
           style="fill:#000000;fill-opacity:1"
           sodipodi:nodetypes="scssccscccss" />
        <path
           id="path7"
           d="m 310.1,628.05 -100,0 0,426 100,0 0,-426 z"
           inkscape:connector-curvature="0"
           style="fill:none;fill-opacity:1;stroke:#000000;stroke-opacity:1;stroke-width:3.87964112;stroke-miterlimit:4;stroke-dasharray:none" />
        <path
           id="path8"
           d="m 310.1,628.05 0,426 503.95,0 0,-426 -503.95,0 z"
           inkscape:connector-curvature="0"
           style="fill:none;fill-opacity:1;stroke:#000000;stroke-opacity:1;stroke-width:3.87964112;stroke-miterlimit:4;stroke-dasharray:none" />
      </g>
    </g>
    <g
       id="Calque.__2017">
      <g
         id="shape14">
        <path
           id="path9"
           d="m 688.4,730.7 q -14.65,-14.65 -35.35,-14.65 l -282,0 c -13.8,0 -25.6,4.9 -35.35,14.65 -9.75,9.75 -14.65,21.55 -14.65,35.35 l 0,302 c 0,13.8 4.9,25.6 14.65,35.35 9.75,9.75 21.55,14.65 35.35,14.65 l 282,0 c 13.8,0 25.6,-4.9 35.35,-14.65 9.75,-9.75 14.65,-21.55 14.65,-35.35 l 0,-302 c 0,-13.8 -4.9,-25.6 -14.65,-35.35 z"
           inkscape:connector-curvature="0"
           style="fill:#161616;fill-opacity:1" />
      </g>
    </g>
  </g>
  <g
     id="Calque.__2019"
     transform="matrix(1.0310232,0,0,1.0310232,-21.242479,-13.954344)">
    <g
       id="shape22" />
  </g>
  <g
     id="Calque.__2021"
     transform="matrix(1.0310232,0,0,1.0310232,-21.242479,-13.954344)"
     style="fill:#000000;fill-opacity:1">
    <g
       id="shape36"
       style="fill:#000000;fill-opacity:1">
      <path
         id="path26"
         d="m 769.05,646.55 q -7.05,0 -12.05,4.95 c -3.3,3.35 -4.95,7.35 -4.95,12.05 0,4.7 1.65,8.7 4.95,12 3.35,3.35 7.35,5 12.05,5 4.7,0 8.7,-1.65 12,-5 3.35,-3.3 5,-7.3 5,-12 0,-4.7 -1.65,-8.7 -5,-12.05 -3.3,-3.3 -7.3,-4.95 -12,-4.95 z m -113.75,17 c 0,-4.7 -1.65,-8.7 -5,-12.05 -3.3,-3.3 -7.3,-4.95 -12,-4.95 -4.7,0 -8.7,1.65 -12.05,4.95 -3.3,3.35 -4.95,7.35 -4.95,12.05 0,4.7 1.65,8.7 4.95,12 3.35,3.35 7.35,5 12.05,5 4.7,0 8.7,-1.65 12,-5 3.35,-3.3 5,-7.3 5,-12 z m -409.25,17 c 4.7,0 8.7,-1.65 12,-5 3.35,-3.3 5,-7.3 5,-12 0,-4.7 -1.65,-8.7 -5,-12.05 -3.3,-3.3 -7.3,-4.95 -12,-4.95 -4.7,0 -8.7,1.65 -12.05,4.95 -3.3,3.35 -4.95,7.35 -4.95,12.05 0,4.7 1.65,8.7 4.95,12 3.35,3.35 7.35,5 12.05,5 z m 130.75,-34 c -4.7,0 -8.7,1.65 -12.05,4.95 -3.3,3.35 -4.95,7.35 -4.95,12.05 0,4.7 1.65,8.7 4.95,12 3.35,3.35 7.35,5 12.05,5 4.7,0 8.7,-1.65 12,-5 3.35,-3.3 5,-7.3 5,-12 0,-4.7 -1.65,-8.7 -5,-12.05 -3.3,-3.3 -7.3,-4.95 -12,-4.95 z m 147.75,17 c 0,-4.7 -1.65,-8.7 -5,-12.05 -3.3,-3.3 -7.3,-4.95 -12,-4.95 -4.7,0 -8.7,1.65 -12.05,4.95 -3.3,3.35 -4.95,7.35 -4.95,12.05 0,4.7 1.65,8.7 4.95,12 3.35,3.35 7.35,5 12.05,5 4.7,0 8.7,-1.65 12,-5 3.35,-3.3 5,-7.3 5,-12 z"
         inkscape:connector-curvature="0"
         style="fill:#000000;fill-opacity:1" />
    </g>
  </g>
  <mask
     id="bg3">
    <g
       id="g1">
      <g
         id="shape46">
        <path
           id="path35"
           fill="#FFFFFF"
           fill-opacity="1"
           d="M929.85,289.65 C927.5,285.3 924.9,280.65 922.2,276.05 901.9,241.55 876.4,208.85 845.85,178.3 773.25,105.7 688.7,61.65 592.2,46.25 575.95,43.65 559.4,41.85 542.15,40.9 532.45,40.35 522.3,40.05 512.05,40.05 502.7,40.05 493.45,40.3 484.15,40.8 365.8,46.9 263.85,92.75 178.3,178.3 157.8,198.8 139.55,220.25 123.6,242.7 108.25,264.25 95.05,286.7 84,309.9 L83.975,309.875 Q40.05,401.873 40.05,512.05 C40.05,642.4 86.15,753.7 178.3,845.85 235,902.5 298.85,941.75 369.4,963.4 406.15,974.65 444.2,981.25 484.15,983.35 484.3,983.35 484.4,983.35 484.55,983.35 493.05,983.8 501.15,984.05 509.05,984.05 510.25,984.05 511.15,984.05 512.05,984.05 522.35,984.05 532.55,983.75 542.15,983.25 544.65,983.1 546.9,982.95 549.1,982.8 569.3,981.35 589,978.75 607.8,975.1 615.75,973.55 623.6,971.8 631.2,969.95 712,949.65 783.35,908.35 845.85,845.85 894.45,797.25 930.25,743.35 953.2,684.05 971.65,636.4 981.85,585.25 983.75,530.55 983.95,524.5 984.05,518.3 984.05,512.05 984.05,511.4 984.05,510.7 984.05,510.05 984.05,509.7 984.05,509.4 984.05,509.05 983.85,468.4 979.1,429.55 969.75,392.05 968.65,387.7 967.4,383.05 966.1,378.45 965.1,375.05 964.1,371.6 962.95,367.95 961.35,362.8 959.55,357.45 957.65,352.1 952.6,337.85 946.8,323.85 940.2,309.95 938.35,306.15 936.45,302.3 934.5,298.45 933.05,295.6 931.55,292.75 929.85,289.65z" />
      </g>
    </g>
  </mask>
</svg>
