<?xml version="1.0" encoding="UTF-8" standalone="no"?>
<!-- Created with Inkscape (http://www.inkscape.org/) -->

<svg
   xmlns:dc="http://purl.org/dc/elements/1.1/"
   xmlns:cc="http://creativecommons.org/ns#"
   xmlns:rdf="http://www.w3.org/1999/02/22-rdf-syntax-ns#"
   xmlns:svg="http://www.w3.org/2000/svg"
   xmlns="http://www.w3.org/2000/svg"
   xmlns:sodipodi="http://sodipodi.sourceforge.net/DTD/sodipodi-0.dtd"
   xmlns:inkscape="http://www.inkscape.org/namespaces/inkscape"
   width="512"
   height="512"
   id="svg2"
   version="1.1"
   inkscape:version="0.48.5 r10040"
   sodipodi:docname="dconf-editor.svg"
   inkscape:export-filename="/home/afel/Pictures/evos-mockups/personal-app-icons/dconf-editor.png"
   inkscape:export-xdpi="360"
   inkscape:export-ydpi="360"
   viewBox="0 0 512 512">
  <defs
     id="defs223" />
  <sodipodi:namedview
     id="base"
     pagecolor="#ffffff"
     bordercolor="#666666"
     borderopacity="1.0"
     inkscape:pageopacity="0.0"
     inkscape:pageshadow="2"
     inkscape:zoom="0.70710678"
     inkscape:cx="-196.97112"
     inkscape:cy="73.530423"
     inkscape:document-units="px"
     inkscape:current-layer="layer1"
     showgrid="false"
     inkscape:snap-grids="true"
     inkscape:object-paths="true"
     inkscape:snap-intersection-paths="true"
     inkscape:snap-smooth-nodes="true"
     inkscape:object-nodes="true"
     inkscape:snap-midpoints="true"
     inkscape:window-width="1920"
     inkscape:window-height="1038"
     inkscape:window-x="1920"
     inkscape:window-y="0"
     inkscape:window-maximized="1"
     inkscape:showpageshadow="false"
     borderlayer="true"
     inkscape:snap-bbox="true"
     inkscape:snap-nodes="false"
     inkscape:bbox-paths="true"
     inkscape:bbox-nodes="true"
     inkscape:snap-bbox-edge-midpoints="false"
     inkscape:snap-bbox-midpoints="false"
     inkscape:snap-global="true"
     inkscape:snap-center="false">
    <inkscape:grid
       type="xygrid"
       id="grid3808"
       empspacing="4"
       visible="true"
       enabled="true"
       snapvisiblegridlinesonly="true" />
  </sodipodi:namedview>
  <metadata
     id="metadata7">
    <rdf:RDF>
      <cc:Work
         rdf:about="">
        <dc:format>image/svg+xml</dc:format>
        <dc:type
           rdf:resource="http://purl.org/dc/dcmitype/StillImage" />
        <dc:title />
      </cc:Work>
    </rdf:RDF>
  </metadata>
  <g
     inkscape:label="Layer 1"
     inkscape:groupmode="layer"
     id="layer1"
     transform="translate(0,-540.3622)">    
    <path
       style="fill:#000000;fill-opacity:1;fill-rule:evenodd;stroke:#000000;stroke-width:2;stroke-linecap:butt;stroke-linejoin:miter;stroke-miterlimit:0;stroke-dasharray:none;stroke-opacity:1"
       d="m 396.90411,641.71405 20.63928,21.52126 -121.63356,120.88077 -64.64187,-72.30013 21.43275,-20.20122 44.53442,49.76894 z"
       id="path4424"
       inkscape:connector-curvature="0"
       inkscape:transform-center-x="72.498434"
       inkscape:transform-center-y="71.201013" />
    <path
       style="color:#000000;font-style:normal;font-variant:normal;font-weight:normal;font-stretch:normal;font-size:medium;line-height:normal;font-family:sans-serif;text-indent:0;text-align:start;text-decoration:none;text-decoration-line:none;text-decoration-style:solid;text-decoration-color:#000000;letter-spacing:normal;word-spacing:normal;text-transform:none;direction:ltr;block-progression:tb;writing-mode:lr-tb;baseline-shift:baseline;text-anchor:start;white-space:normal;clip-rule:nonzero;display:inline;overflow:visible;visibility:visible;opacity:1;isolation:auto;mix-blend-mode:normal;color-interpolation:sRGB;color-interpolation-filters:linearRGB;solid-color:#000000;solid-opacity:1;fill:none;fill-opacity:1;fill-rule:nonzero;stroke:#000000;stroke-width:8;stroke-linecap:round;stroke-linejoin:round;stroke-miterlimit:4;stroke-dasharray:none;stroke-dashoffset:0;stroke-opacity:1;color-rendering:auto;image-rendering:auto;shape-rendering:auto;text-rendering:auto;enable-background:accumulate"
       d="m 427.16059,611.4575 c -53.47212,-53.47246 -140.58364,-53.47246 -194.05563,0 -50.19413,50.19432 -53.25042,130.03183 -9.20983,183.86105 l -41.97582,41.97497 c -9.13382,-2.42739 -19.24598,-0.16466 -26.42304,7.08044 L 39.062979,960.8075 c -10.750676,10.75102 -10.750658,28.0611 1.78e-4,38.8121 5.360821,5.3611 12.352483,8.0492 19.348552,8.0629 7.034162,0 14.072783,-2.673 19.462718,-8.0629 L 194.30772,883.18606 c 7.19019,-7.19022 9.45861,-17.30181 7.03045,-26.43641 l 41.97582,-41.97634 c 53.82837,44.04147 133.66577,40.98425 183.86026,-9.20869 53.47199,-53.47246 53.47196,-140.58389 -1.7e-4,-194.05635 z m -19.40555,19.40536 c 42.98449,42.98489 42.98443,112.26073 -1e-5,155.24425 -42.98522,42.98626 -112.25987,42.98489 -155.24435,0 -42.98449,-42.98352 -42.98522,-112.25799 0,-155.24425 42.98408,-42.98489 112.25988,-42.98352 155.24436,0 z"
       id="path4962"
       inkscape:connector-curvature="0"
       sodipodi:nodetypes="csccccsscsccccccccsc" />
    <path
       style="fill:#000000;fill-opacity:1;fill-rule:evenodd;stroke:none;stroke-width:13.72179316999999976px;stroke-linecap:butt;stroke-linejoin:miter;stroke-opacity:1"
       d="m 181.91931,837.29352 19.4375,19.43692 41.95718,-41.95713 -19.41886,-19.45476 z"
       id="path5066"
       inkscape:connector-curvature="0" />
    <path
       style="opacity:1;fill:#000000;fill-opacity:1;stroke:none;stroke-width:13.72179316999999976;stroke-linecap:round;stroke-linejoin:round;stroke-miterlimit:4;stroke-dasharray:none;stroke-opacity:0.20000000000000001"
       d="m 191.63811,847.01129 c 3.51756,3.51827 6.79117,6.58646 9.76925,9.56409 2.49982,9.17577 0.1331,19.37792 -7.09992,26.61068 L 77.874166,999.6196 c -10.750669,10.751 -28.060421,10.751 -38.811095,0 -10.750673,-10.7497 -10.750673,-28.0597 0,-38.81073 L 155.49635,844.37534 c 7.20722,-7.20669 17.36214,-9.58193 26.51254,-7.12573 3.15166,3.15052 6.08471,6.22009 9.62815,9.76305 z"
       id="rect5108"
       inkscape:connector-curvature="0"
       sodipodi:nodetypes="ccssssscc" />
  </g>
</svg>
