<?xml version="1.0" encoding="UTF-8" standalone="no"?>
<!-- Generator: flash2svg, http://dissentgraphics.com/tools/flash2svg -->

<svg
   xmlns:dc="http://purl.org/dc/elements/1.1/"
   xmlns:cc="http://creativecommons.org/ns#"
   xmlns:rdf="http://www.w3.org/1999/02/22-rdf-syntax-ns#"
   xmlns:svg="http://www.w3.org/2000/svg"
   xmlns="http://www.w3.org/2000/svg"
   xmlns:sodipodi="http://sodipodi.sourceforge.net/DTD/sodipodi-0.dtd"
   xmlns:inkscape="http://www.inkscape.org/namespaces/inkscape"
   id="Drive-Removable"
   image-rendering="optimizeSpeed"
   version="1.1"
   style="background-color:#ffffff"
   x="0px"
   y="0px"
   width="1024px"
   height="1024px"
   viewBox="0 0 1024 1024"
   enable-background="new 0 0 1024 1024"
   inkscape:version="0.48.5 r10040"
   sodipodi:docname="ddrescue-gui.svg">
  <metadata
     id="metadata26">
    <rdf:RDF>
      <cc:Work
         rdf:about="">
        <dc:format>image/svg+xml</dc:format>
        <dc:type
           rdf:resource="http://purl.org/dc/dcmitype/StillImage" />
        <dc:title />
      </cc:Work>
    </rdf:RDF>
  </metadata>
  <sodipodi:namedview
     pagecolor="#ffffff"
     bordercolor="#666666"
     borderopacity="1"
     objecttolerance="10"
     gridtolerance="10"
     guidetolerance="10"
     inkscape:pageopacity="0"
     inkscape:pageshadow="2"
     inkscape:window-width="1920"
     inkscape:window-height="1007"
     id="namedview24"
     showgrid="false"
     inkscape:zoom="0.4609375"
     inkscape:cx="396.03348"
     inkscape:cy="487.72408"
     inkscape:window-x="0"
     inkscape:window-y="31"
     inkscape:window-maximized="1"
     inkscape:current-layer="Drive-Removable" />
  <defs
     transform="matrix(1 0 0 1 0 0) "
     id="defs3" />
  <g
     id="Calque.__202"
     transform="matrix(0.98038434,0,0,1,2.8432893,0)"
     style="fill:none;stroke:#000000;stroke-opacity:1;stroke-width:8.07963616;stroke-miterlimit:4;stroke-dasharray:none">
    <g
       id="shape"
       style="fill:none;stroke:#000000;stroke-opacity:1;stroke-width:8.07963616;stroke-miterlimit:4;stroke-dasharray:none">
      <path
         id="path"
         d="M 919.15,109.8 Q 918.7,89.9 904.5,75.7 C 894.75,65.95 882.95,61.05 869.15,61.05 l -674.2,0 c -13.8,0 -25.6,4.9 -35.35,14.65 -9.45,9.45 -14.35,20.85 -14.65,34.1 l 0,843.25 c 0,13.8 4.9,25.6 14.65,35.35 9.75,9.75 21.55,14.65 35.35,14.65 l 674.2,0 c 13.8,0 25.6,-4.9 35.35,-14.65 9.75,-9.75 14.65,-21.55 14.65,-35.35 l 0,-843.25 z"
         inkscape:connector-curvature="0"
         style="fill:none;fill-opacity:0.09803922000000000;stroke:#000000;stroke-opacity:1;stroke-width:8.07963616;stroke-miterlimit:4;stroke-dasharray:none" />
    </g>
  </g>
  <g
     id="Calque.__203"
     transform="translate(13.01695,17.355932)"
     style="fill:none;stroke:#000000;stroke-opacity:1;stroke-width:8;stroke-miterlimit:4;stroke-dasharray:none">
    <g
       id="shape2"
       style="fill:none;stroke:#000000;stroke-opacity:1;stroke-width:8;stroke-miterlimit:4;stroke-dasharray:none">
      <path
         id="path1"
         d="M 884.5,55.7 C 874.75,45.95 862.95,41.05 849.15,41.05 l -674.2,0 c -13.8,0 -25.6,4.9 -35.35,14.65 -9.45,9.45 -14.35,20.85 -14.65,34.1 l 0,-0.025 0,724.575 q 0.458,19.858 14.65,34.05 c 9.75,9.75 21.55,14.65 35.35,14.65 l 674.2,0 c 13.8,0 25.6,-4.9 35.35,-14.65 9.45,-9.45 14.35,-20.8 14.65,-34.05 l 0,-724.575 0,0.025 c -0.3,-13.25 -5.2,-24.65 -14.65,-34.1 z"
         inkscape:connector-curvature="0"
         style="fill:none;fill-opacity:1;stroke:#000000;stroke-opacity:1;stroke-width:8;stroke-miterlimit:4;stroke-dasharray:none" />
      <path
         id="path2"
         d="m 139.6,848.4 q -14.192,-14.192 -14.65,-34.05 l 0,118.7 c 0,13.8 4.9,25.6 14.65,35.35 9.75,9.75 21.55,14.65 35.35,14.65 l 674.2,0 c 13.8,0 25.6,-4.9 35.35,-14.65 9.75,-9.75 14.65,-21.55 14.65,-35.35 l 0,-118.7 c -0.3,13.25 -5.2,24.6 -14.65,34.05 -9.75,9.75 -21.55,14.65 -35.35,14.65 l -674.2,0 c -13.8,0 -25.6,-4.9 -35.35,-14.65 z"
         inkscape:connector-curvature="0"
         style="fill:none;fill-opacity:0.98823529000000021;stroke:#000000;stroke-opacity:1;stroke-width:8;stroke-miterlimit:4;stroke-dasharray:none" />
    </g>
  </g>
  <g
     id="Calque.__204"
     style="fill:#000000;fill-opacity:1">
    <g
       id="Symbole.__2026_1"
       overflow="visible"
       style="fill:#000000;fill-opacity:1">
      <g
         id="Calque.__208"
         style="fill:#000000;fill-opacity:1">
        <g
           id="shape17"
           style="fill:#000000;fill-opacity:1">
          <path
             id="path11"
             fill="#3B3A36"
             fill-opacity="1"
             d="M518,918 Q518,909.7 512.15,903.85 C508.25,899.95 503.55,898 498,898 L196,898 C190.45,898 185.75,899.95 181.85,903.85 177.95,907.75 176,912.45 176,918 L176,926.2 C176,931.75 177.95,936.45 181.85,940.35 185.75,944.25 190.45,946.2 196,946.2 L498,946.2 C503.55,946.2 508.25,944.25 512.15,940.35 516.05,936.45 518,931.75 518,926.2 L518,918z"
             style="fill:#000000;fill-opacity:1" />
        </g>
      </g>
    </g>
  </g>
  <g
     id="Calque.__205"
     style="fill:#000000;fill-opacity:1">
    <g
       id="shape6"
       style="fill:#000000;fill-opacity:1">
      <path
         id="path3"
         fill="#000000"
         fill-opacity="0.2"
         d="M849.65,912.15 Q843.1,905.6 833.8,905.6 C827.6,905.6 822.3,907.8 817.9,912.15 813.55,916.55 811.35,921.85 811.35,928.05 811.35,934.25 813.55,939.55 817.9,943.9 822.3,948.3 827.6,950.5 833.8,950.5 840,950.5 845.3,948.3 849.65,943.9 854.05,939.55 856.25,934.25 856.25,928.05 856.25,921.85 854.05,916.55 849.65,912.15z M784.8,928.05 C784.8,921.85 782.6,916.55 778.2,912.15 773.85,907.8 768.55,905.6 762.35,905.6 756.15,905.6 750.85,907.8 746.45,912.15 742.1,916.55 739.9,921.85 739.9,928.05 739.9,934.25 742.1,939.55 746.45,943.9 750.85,948.3 756.15,950.5 762.35,950.5 768.55,950.5 773.85,948.3 778.2,943.9 782.6,939.55 784.8,934.25 784.8,928.05z"
         style="fill:#000000;fill-opacity:1" />
    </g>
  </g>
  <g
     transform="matrix(10.039548,0,0,10.039548,-5251.7386,-5638.8774)"
     id="layer1"
     inkscape:label="Capa 1"
     style="fill:#000000;stroke:#000000;stroke-width:5.10899496000000042;stroke-miterlimit:4;stroke-opacity:1;stroke-dasharray:none;fill-opacity:1">
    <path
       id="rect3280"
       transform="translate(550.28572,582.6479)"
       d="m 22,9 0,13 -13,0 0,4 13,0 0,13 4,0 0,-13 13,0 0,-4 -13,0 0,-13 -4,0 z"
       style="fill:#000000;fill-opacity:1;fill-rule:evenodd;stroke:#000000;stroke-width:5.10899496000000042;stroke-miterlimit:4;stroke-opacity:1;stroke-dasharray:none"
       inkscape:connector-curvature="0" />
  </g>
</svg>
