<?xml version="1.0" encoding="UTF-8" standalone="no"?>
<!-- Created with Inkscape (http://www.inkscape.org/) -->

<svg
   xmlns:dc="http://purl.org/dc/elements/1.1/"
   xmlns:cc="http://creativecommons.org/ns#"
   xmlns:rdf="http://www.w3.org/1999/02/22-rdf-syntax-ns#"
   xmlns:svg="http://www.w3.org/2000/svg"
   xmlns="http://www.w3.org/2000/svg"
   xmlns:sodipodi="http://sodipodi.sourceforge.net/DTD/sodipodi-0.dtd"
   xmlns:inkscape="http://www.inkscape.org/namespaces/inkscape"
   id="svg2"
   version="1.1"
   inkscape:version="0.48.5 r10040"
   width="512"
   height="512"
   sodipodi:docname="earth_engine.svg"
   viewBox="0 0 512 512">
  <metadata
     id="metadata8">
    <rdf:RDF>
      <cc:Work
         rdf:about="">
        <dc:format>image/svg+xml</dc:format>
        <dc:type
           rdf:resource="http://purl.org/dc/dcmitype/StillImage" />
        <dc:title />
      </cc:Work>
    </rdf:RDF>
  </metadata>
  <defs
     id="defs6" />
  <sodipodi:namedview
     pagecolor="#ffffff"
     bordercolor="#666666"
     borderopacity="1"
     objecttolerance="10"
     gridtolerance="10"
     guidetolerance="10"
     inkscape:pageopacity="0"
     inkscape:pageshadow="2"
     inkscape:window-width="1920"
     inkscape:window-height="1007"
     id="namedview4"
     showgrid="false"
     inkscape:zoom="0.79549513"
     inkscape:cx="435.86725"
     inkscape:cy="305.24265"
     inkscape:window-x="0"
     inkscape:window-y="31"
     inkscape:window-maximized="1"
     inkscape:current-layer="svg2"
     inkscape:document-units="px" />
  <g
     id="g4148"
     style="fill:#000000;fill-opacity:1"
     transform="translate(-578.66667,61.333333)">
    <path
       style="fill:#000000;fill-opacity:1;stroke:#000000;stroke-width:0.92500001;stroke-miterlimit:4;stroke-opacity:1;stroke-dasharray:none"
       d="m 716.06597,389.78049 c -2.96849,-3.18647 -5.08996,-9.01948 -5.0626,-13.91979 0.0141,-2.5256 2.6172,-11.15309 7.44021,-24.65928 4.08018,-11.42603 7.47271,-21.80069 7.53895,-23.05483 0.0879,-1.66351 -1.89387,-4.10817 -7.32714,-9.03875 -4.09618,-3.71721 -10.04939,-9.82285 -13.22934,-13.56809 -3.17997,-3.74524 -6.66222,-7.18285 -7.73837,-7.63906 -1.20695,-0.51167 -10.08481,2.05814 -23.17202,6.70744 -11.66846,4.14528 -22.86882,7.65758 -24.88967,7.80518 -4.15972,0.30387 -11.96819,-2.67003 -15.31133,-5.83129 -2.65821,-2.51357 -22.09981,-49.57507 -22.52597,-54.52765 -0.42266,-4.91211 2.98595,-12.32057 7.29587,-15.85709 1.96192,-1.60987 12.5805,-7.00329 23.59686,-11.98536 11.85867,-5.36305 20.35556,-9.82692 20.82843,-10.94229 0.43925,-1.03621 0.53794,-5.89535 0.21926,-10.79815 -0.31868,-4.90283 -0.28681,-13.40878 0.071,-18.90209 0.35762,-5.49335 0.11676,-10.63206 -0.53514,-11.41938 -0.65195,-0.78731 -10.09616,-5.8025 -20.9871,-11.14481 -12.6662,-6.21311 -21.00849,-10.82583 -23.1505,-12.80059 -4.08205,-3.76333 -7.12494,-12.01473 -6.11399,-16.57927 0.41003,-1.85133 5.67159,-14.62451 11.69236,-28.38477 l 10.94685,-25.018659 4.42521,-2.39694 c 7.82028,-4.23587 10.49334,-3.86118 35.52085,4.97902 14.16557,5.00352 22.93917,7.66222 23.93501,7.2531 0.86468,-0.35512 4.94474,-4.22254 9.06683,-8.59401 4.12209,-4.37142 10.13691,-10.19481 13.36622,-12.94077 3.22934,-2.74599 6.19654,-5.75938 6.59377,-6.69641 0.39724,-0.937 -2.36701,-10.48564 -6.14275,-21.219114 -3.77577,-10.73351 -7.29396,-21.22073 -7.81822,-23.305 -1.47455,-5.8620199 -0.27916,-11.8402099 3.33175,-16.6624799 2.72649,-3.64113 5.49758,-5.06687 27.42758,-14.1110901 13.41708,-5.53337 26.31298,-10.20433 28.65765,-10.37985 5.44092,-0.40734 12.55512,2.57106 16.03077,6.71137 1.46351,1.74339 6.73109,12.1119401 11.70576,23.0412701 4.97466,10.9292699 9.4638,20.4187299 9.9759,21.0876699 0.53967,0.705 5.58011,1.02359 11.99035,0.75791 6.08261,-0.25226 14.98471,-0.15996 19.78244,0.20493 6.50527,0.49467 9.23346,0.20531 10.73025,-1.13863 1.10392,-0.99109 6.39491,-10.70563 11.75775,-21.5878899 10.31374,-20.9284501 12.48508,-24.0073501 18.86474,-26.7495901 7.09646,-3.05033 10.10418,-2.2723 37.46905,9.69253 l 24.92468,10.8979101 2.81801,4.25539 c 4.84837,7.32137 4.4878,10.4425399 -4.04082,34.9778999 -4.12832,11.876374 -7.67759,22.582044 -7.88727,23.790294 -0.29509,1.70043 1.28763,3.71129 7.00484,8.89953 4.06235,3.68647 10.32565,10.16162 13.91843,14.3893 3.59277,4.22766 6.8981,7.84168 7.34511,8.03121 0.44701,0.18968 10.48544,-3.09487 22.30761,-7.2985 11.82221,-4.20371 23.41821,-7.79861 25.76911,-7.98869 5.557,-0.44936 12.3187,2.44273 16.2726,6.96011 1.8774,2.14484 6.8058,12.84992 12.5691,27.301099 9.8929,24.80621 10.4088,27.38311 7.0677,35.30158 -2.363,5.60054 -6.4109,8.21561 -28.1964,18.2159 -11.8455,5.43747 -21.6966,10.26223 -21.8914,10.72169 -0.1948,0.45948 -0.1087,6.12998 0.1916,12.6012 0.3,6.47116 0.1843,15.30659 -0.2577,19.63424 -0.54895,5.37625 -0.31365,8.37546 0.743,9.46919 0.8506,0.8804 10.871,6.25939 22.2675,11.9533 22.6166,11.29972 25.9535,13.84201 27.5261,20.97171 1.4866,6.74 0.2694,10.80301 -10.7766,35.97141 l -10.5664,24.07558 -4.5555,2.83646 c -8.1345,5.06498 -9.573,4.89131 -36.05917,-4.35308 -12.94177,-4.51702 -23.845,-8.08552 -24.22946,-7.92999 -0.38445,0.15565 -3.65423,3.51777 -7.26615,7.47165 -3.61192,3.95391 -10.04181,10.14204 -14.28864,13.7515 -4.24684,3.60942 -7.83155,7.18327 -7.96607,7.94187 -0.13449,0.75864 3.06487,10.69656 7.10968,22.08425 4.04483,11.38771 7.51077,22.9928 7.70208,25.78903 0.40643,5.93957 -1.55814,11.21349 -5.67688,15.23976 -3.63477,3.55315 -47.45503,21.6984 -53.52442,22.16356 -5.07487,0.38914 -12.75434,-2.59373 -16.30802,-6.33393 -1.36151,-1.43298 -6.76158,-11.98056 -12.0002,-23.43909 -5.23859,-11.45853 -10.20454,-21.12421 -11.03545,-21.47924 -0.83083,-0.3551 -6.47113,-0.46601 -12.53384,-0.24638 -6.06269,0.21941 -14.84999,0.0818 -19.52734,-0.30584 -6.46487,-0.53591 -8.81386,-0.28003 -9.79526,1.06632 -0.71004,0.97421 -5.92613,10.95527 -11.5913,22.18015 -12.46034,24.68867 -14.5989,27.03106 -25.34469,27.7604 -3.11591,0.2116 -7.4558,-1.36436 -28.92377,-10.50239 -18.99998,-8.08753 -25.82611,-11.36132 -27.55159,-13.21349 z m 116.18216,-29.0092 c 23.81168,7.27584 78.7146,-23.96382 101.81401,-33.32361 17.60564,-7.13376 45.46684,-48.74778 54.13388,-66.43762 5.43759,-11.09837 11.02793,-57.93455 12.70978,-70.32474 5.1043,-37.6006 -33.61489,-105.535621 -62.70782,-129.715404 -6.77892,-5.63413 -47.01713,-23.417198 -62.09911,-29.888878 -14.44584,-6.198599 -64.46224,-3.883995 -72.30532,-4.945075 -39.16109,-5.29797 -97.5169,52.413298 -119.6898,84.303467 -19.92107,28.65146 -26.11393,106.61023 -12.93721,139.41413 6.89922,17.17589 45.40487,61.98472 60.45611,73.50178 4.29192,3.28416 36.37878,20.79152 45.45838,26.28603 23.41773,14.17121 50.02067,9.5574 55.1671,11.12992 z"
       id="path2986-1"
       inkscape:connector-curvature="0"
       sodipodi:nodetypes="ssssssssssssssssssssscsssssssssssssssssssscssssssssssssssssssscsscsscsssssscssssssssssssssssscss" />
  </g>
  <ellipse
     style="fill:none;fill-opacity:1;fill-rule:nonzero;stroke:#4169e1;stroke-width:0;stroke-linecap:round;stroke-linejoin:miter;stroke-miterlimit:4;stroke-dasharray:none;stroke-opacity:1"
     id="path3012"
     transform="matrix(1.1612903,0,0,1.1612903,-67.184257,-59.106617)"
     cx="278.77966"
     cy="273.35593"
     rx="137.76271"
     ry="134.50847" />
  <g
     id="g2989"
     transform="matrix(1.3968977,0,0,1.3968977,76.963862,73.874712)"
     style="fill:none;stroke:#000000;stroke-width:2.8634882;stroke-miterlimit:4;stroke-opacity:1;stroke-dasharray:none">
    <circle
       transform="matrix(0.9221557,0,0,0.9221557,1.1000238,-77.427391)"
       id="path3010"
       style="fill:none;stroke:#000000;stroke-width:3.10521102;stroke-miterlimit:4;stroke-opacity:1;stroke-dasharray:none"
       cx="137.29857"
       cy="222.25063"
       r="128.09419"
       d="m 265.39276,222.25063 c 0,70.74446 -57.34972,128.09419 -128.09419,128.09419 -70.74447,0 -128.0941938,-57.34973 -128.0941938,-128.09419 0,-70.74447 57.3497238,-128.094197 128.0941938,-128.094197 70.74447,0 128.09419,57.349727 128.09419,128.094197 z"
       sodipodi:cx="137.29857"
       sodipodi:cy="222.25063"
       sodipodi:rx="128.09419"
       sodipodi:ry="128.09419" />
    <path
       sodipodi:nodetypes="ssssssssssssssssscssssssssssssssssssssssssssssssssscs"
       style="fill:none;stroke:#000000;stroke-width:5.72697639;stroke-miterlimit:4;stroke-opacity:1;stroke-dasharray:none"
       d="M 111.3068,247.30006 C 85.589925,243.92853 61.736859,231.9581 42.528228,212.78419 25.690168,195.97658 14.851656,176.19408 9.2440612,152.03381 7.9961023,146.65699 5.8123728,138.02463 5.8456461,124.10192 5.884955,107.64959 7.6664138,103.61525 10.148744,95.722182 21.201605,60.577405 41.507579,36.066223 73.006768,19.991613 101.18202,5.6132746 135.8494,3.1291591 166.19082,13.314441 c 29.09021,9.765252 55.53616,32.84945 69.36313,60.54581 23.05992,46.190599 13.78516,101.943289 -23.11853,138.970679 -26.53453,26.62348 -63.88002,39.35249 -101.12862,34.46913 z M 77.357781,230.01141 c -0.170787,-0.74526 -0.552536,-3.39854 -0.848353,-5.8962 -0.488931,-4.12824 -0.270771,-4.80826 2.399058,-7.47809 3.821832,-3.82183 7.223471,-3.82647 23.360084,-0.0319 6.79448,1.59774 16.79756,3.60468 22.2291,4.45984 12.28611,1.93441 42.243,2.1815 53.125,0.43819 8.84093,-1.41633 23.6272,-5.37596 27.44225,-7.34879 4.167,-2.15484 18.24005,-19.00541 16.95006,-20.2954 -0.30755,-0.30756 -5.01546,0.5548 -10.46201,1.91634 -18.75536,4.68852 -27.59113,0.24939 -45.94405,-0.30403 -31.76149,-0.95775 -57.8601,-7.63553 -100.617787,-25.7448 -25.594879,-10.84027 -31.925891,-6.28381 -38.376368,0.16667 -4.855475,4.85548 -4.98655,7.1513 -0.840011,14.71376 9.449761,17.2345 25.357218,33.53557 42.555805,43.60882 6.409879,3.75428 9.622508,4.3933 9.027222,1.79559 z M 238.67478,161.56058 c 0.51819,-1.18936 1.57016,-5.18993 2.33772,-8.89017 1.27143,-6.12936 1.25494,-6.83454 -0.18538,-7.92907 -0.86951,-0.66075 -2.17148,-1.20137 -2.89328,-1.20137 -2.67717,0 -17.92841,-6.92922 -26.11843,-11.86661 C 196.08316,122.18911 176.26123,106.10799 148.30913,80.152032 120.81395,54.620365 112.58076,48.042581 101.99973,43.153842 89.470144,37.364832 72.745051,36.355178 56.043555,40.37959 49.871845,41.866738 48.20799,42.740396 44.472792,46.455181 35.950319,54.931098 27.937026,66.140998 22.82143,76.74355 c -8.252712,17.104506 -7.897269,29.31512 2.511564,20.479367 7.911666,-6.715991 15.798302,-7.496852 23.74698,-8.855809 5.188121,-0.886979 12.903284,0.295731 19.063,1.667864 12.71276,2.831889 21.777791,12.073788 54.697026,35.438848 37.26573,26.45008 43.88593,26.42804 69.28071,36.5406 10.96644,4.36699 39.23696,1.57526 43.42881,1.66296 1.37161,0.0287 2.5333,-0.75814 3.12526,-2.1168 z m -3.31831,-60.49746 c 3.09481,-2.717294 3.44425,-3.476624 3.02802,-6.579922 -0.74201,-5.532079 -6.88795,-19.649007 -12.43676,-28.566617 -6.54689,-10.521656 -22.65784,-27.031049 -32.94747,-33.762273 -15.1892,-9.936414 -29.66251,-15.747972 -46.9342,-18.845807 -15.38564,-2.759547 -47.189664,-0.669809 -48.474635,3.185103 -0.266484,0.799443 1.385531,1.142325 5.503815,1.142325 25.69663,0 47.63866,7.152464 64.27063,20.950374 9.87118,8.189135 16.78584,15.965747 28.09519,31.597435 19.0212,26.290928 26.47984,33.667382 34.26781,33.890222 1.17098,0.0336 3.70339,-1.32137 5.6276,-3.01084 z"
       id="path2997"
       inkscape:connector-curvature="0" />
  </g>
</svg>
