<?xml version="1.0" encoding="UTF-8" standalone="no"?>
<!-- Generator: flash2svg, http://dissentgraphics.com/tools/flash2svg -->

<svg
   xmlns:dc="http://purl.org/dc/elements/1.1/"
   xmlns:cc="http://creativecommons.org/ns#"
   xmlns:rdf="http://www.w3.org/1999/02/22-rdf-syntax-ns#"
   xmlns:svg="http://www.w3.org/2000/svg"
   xmlns="http://www.w3.org/2000/svg"
   xmlns:sodipodi="http://sodipodi.sourceforge.net/DTD/sodipodi-0.dtd"
   xmlns:inkscape="http://www.inkscape.org/namespaces/inkscape"
   id="Messages"
   version="1.1"
   style="image-rendering:optimizeSpeed"
   x="0px"
   y="0px"
   width="512"
   height="512"
   viewBox="0 0 512 512"
   enable-background="new 0 0 1024 1024"
   inkscape:version="0.48.5 r10040"
   sodipodi:docname="empathy.svg">
  <metadata
     id="metadata25">
    <rdf:RDF>
      <cc:Work
         rdf:about="">
        <dc:format>image/svg+xml</dc:format>
        <dc:type
           rdf:resource="http://purl.org/dc/dcmitype/StillImage" />
        <dc:title />
      </cc:Work>
    </rdf:RDF>
  </metadata>
  <sodipodi:namedview
     pagecolor="#ffffff"
     bordercolor="#666666"
     borderopacity="1"
     objecttolerance="10"
     gridtolerance="10"
     guidetolerance="10"
     inkscape:pageopacity="0"
     inkscape:pageshadow="2"
     inkscape:window-width="1920"
     inkscape:window-height="1007"
     id="namedview23"
     showgrid="false"
     inkscape:zoom="1.5585938"
     inkscape:cx="140.12632"
     inkscape:cy="256"
     inkscape:window-x="0"
     inkscape:window-y="31"
     inkscape:window-maximized="1"
     inkscape:current-layer="Messages" />
  <defs
     transform="matrix(1 0 0 1 0 0) "
     id="defs3" />
  <path
     id="path18"
     d="m 372.98594,53.198469 c 0,-6.104579 -2.18285,-11.358217 -6.51155,-15.686919 -4.32871,-4.328702 -9.58234,-6.511551 -15.68692,-6.511551 l -305.33997,0 c -6.104579,0 -11.358218,2.182849 -15.686919,6.511551 -4.328702,4.328702 -6.511552,9.58234 -6.511552,15.686919 l 0,264.901751 c 0,6.10458 2.18285,11.35822 6.511552,15.68692 4.328701,4.3287 9.58234,6.51155 15.686919,6.51155 l 24.085341,0 0,62.15572 c 0,4.92066 1.73888,9.13837 5.216641,12.61613 3.47776,3.47776 7.69547,5.21664 12.616131,5.21664 4.920661,0 9.13837,-1.73888 12.616131,-5.21664 l 74.771846,-74.77185 23.45639,0 0,-167.19148 c 0,-6.10458 2.18285,-11.35822 6.51155,-15.68692 4.3287,-4.3287 9.58234,-6.51155 15.68692,-6.51155 l 152.57749,0 0,-97.710271 z"
     inkscape:connector-curvature="0"
     style="fill:#000000;fill-opacity:1;stroke-width:0.73994905000000000" />
  <path
     style="fill:#000000;fill-opacity:1;stroke-width:0.73994905000000000"
     d="m 271.24219,246.88086 c -7.06652,0 -13.06003,2.47801 -18.05469,7.47266 -4.99466,4.99466 -7.47266,11.02516 -7.47266,18.05468 0,7.06651 2.478,13.06003 7.47266,18.05469 4.99466,4.99465 10.98817,7.50977 18.05469,7.50977 7.06651,0 13.06003,-2.51512 18.05469,-7.50977 4.99466,-4.99466 7.4746,-10.98818 7.4746,-18.05469 0,-7.02952 -2.47994,-13.06002 -7.4746,-18.05468 -4.99465,-4.99465 -10.98818,-7.47266 -18.05469,-7.47266 z m 72.51562,0 c -7.06651,0 -13.09714,2.47801 -18.09179,7.47266 -4.99466,4.99466 -7.47266,11.02516 -7.47266,18.05468 0,7.06651 2.478,13.06003 7.47266,18.05469 4.99465,4.99465 11.02528,7.50977 18.09179,7.50977 7.02952,0 13.02292,-2.51512 18.01758,-7.50977 4.99466,-4.99466 7.51172,-10.98818 7.51172,-18.05469 0,-7.02952 -2.51706,-13.06002 -7.51172,-18.05468 -4.99466,-4.99465 -10.98806,-7.47266 -18.01758,-7.47266 z m 72.47852,0 c -7.02952,0 -13.06003,2.47801 -18.05469,7.47266 -4.99465,4.99466 -7.47461,11.02516 -7.47461,18.05468 0,7.06651 2.47996,13.06003 7.47461,18.05469 4.99466,4.99465 11.02517,7.50977 18.05469,7.50977 7.06651,0 13.06003,-2.51512 18.05469,-7.50977 4.99465,-4.99466 7.50976,-10.98818 7.50976,-18.05469 0,-7.02952 -2.51511,-13.06002 -7.50976,-18.05468 -4.99466,-4.99465 -10.98818,-7.47266 -18.05469,-7.47266 z"
     id="path15"
     inkscape:connector-curvature="0" />
</svg>
