<?xml version="1.0" encoding="UTF-8" standalone="no"?>
<!-- Created with Inkscape (http://www.inkscape.org/) -->

<svg
   xmlns:osb="http://www.openswatchbook.org/uri/2009/osb"
   xmlns:dc="http://purl.org/dc/elements/1.1/"
   xmlns:cc="http://creativecommons.org/ns#"
   xmlns:rdf="http://www.w3.org/1999/02/22-rdf-syntax-ns#"
   xmlns:svg="http://www.w3.org/2000/svg"
   xmlns="http://www.w3.org/2000/svg"
   xmlns:sodipodi="http://sodipodi.sourceforge.net/DTD/sodipodi-0.dtd"
   xmlns:inkscape="http://www.inkscape.org/namespaces/inkscape"
   id="svg2"
   version="1.1"
   inkscape:version="0.48.5 r10040"
   width="512"
   height="512"
   viewBox="0 0 511.99999 511.99999"
   sodipodi:docname="firefox.svg">
  <metadata
     id="metadata8">
    <rdf:RDF>
      <cc:Work
         rdf:about="">
        <dc:format>image/svg+xml</dc:format>
        <dc:type
           rdf:resource="http://purl.org/dc/dcmitype/StillImage" />
        <dc:title />
      </cc:Work>
    </rdf:RDF>
  </metadata>
  <defs
     id="defs6">
    <linearGradient
       id="linearGradient6575"
       osb:paint="solid">
      <stop
         style="stop-color:#ec8840;stop-opacity:1;"
         offset="0"
         id="stop6577" />
    </linearGradient>
    <linearGradient
       id="linearGradient6569"
       osb:paint="solid">
      <stop
         style="stop-color:#ec8840;stop-opacity:1;"
         offset="0"
         id="stop6571" />
    </linearGradient>
    <linearGradient
       id="linearGradient5117"
       osb:paint="solid">
      <stop
         style="stop-color:#655041;stop-opacity:1;"
         offset="0"
         id="stop5119" />
    </linearGradient>
    <linearGradient
       id="linearGradient5109"
       osb:paint="solid">
      <stop
         style="stop-color:#b02222;stop-opacity:1;"
         offset="0"
         id="stop5111" />
    </linearGradient>
    <clipPath
       clipPathUnits="userSpaceOnUse"
       id="clipPath6662">
      <circle
         style="opacity:1;fill:#333333;fill-opacity:0.6707355;stroke:none;stroke-width:4.18520069;stroke-linecap:butt;stroke-linejoin:miter;stroke-miterlimit:4;stroke-dasharray:8.37040105, 8.37040105;stroke-dashoffset:0;stroke-opacity:1"
         id="circle6664"
         cx="104.66113"
         cy="103.60957"
         r="86.010262" />
    </clipPath>
    <clipPath
       clipPathUnits="userSpaceOnUse"
       id="clipPath6658">
      <circle
         style="opacity:1;fill:#333333;fill-opacity:0.6707355;stroke:none;stroke-width:4.18520069;stroke-linecap:butt;stroke-linejoin:miter;stroke-miterlimit:4;stroke-dasharray:8.37040105, 8.37040105;stroke-dashoffset:0;stroke-opacity:1"
         id="circle6660"
         cx="104.66113"
         cy="103.60957"
         r="86.010262" />
    </clipPath>
    <filter
       inkscape:collect="always"
       style="color-interpolation-filters:sRGB"
       id="filter6581-4"
       x="-0.057162613"
       width="1.1143252"
       y="-0.063133776"
       height="1.1262676">
      <feGaussianBlur
         inkscape:collect="always"
         stdDeviation="4.3638243"
         id="feGaussianBlur6583-1" />
    </filter>
  </defs>
  <sodipodi:namedview
     pagecolor="#ffffff"
     bordercolor="#666666"
     borderopacity="1"
     objecttolerance="10"
     gridtolerance="10"
     guidetolerance="10"
     inkscape:pageopacity="0"
     inkscape:pageshadow="2"
     inkscape:window-width="1920"
     inkscape:window-height="1007"
     id="namedview4"
     inkscape:document-units="px"
     showgrid="false"
     inkscape:zoom="0.51790047"
     inkscape:cx="-1.7201627"
     inkscape:cy="26.58103"
     inkscape:window-x="0"
     inkscape:window-y="31"
     inkscape:window-maximized="1"
     inkscape:current-layer="svg2" />
  <path
     inkscape:connector-curvature="0"
     style="fill:none;stroke:#000000;stroke-width:8;stroke-miterlimit:4;stroke-opacity:1;stroke-dasharray:none"
     clip-path="none"
     d="M 252.04859,42.723491 A 211.81077,211.81077 0 0 0 96.081727,111.60556 c 2.69917,3.20293 5.854613,6.12557 9.584433,8.69549 23.47891,-8.8403 39.36571,-8.49735 52.9074,-3.53507 19.08998,-19.21168 38.47767,-26.00194 57.96233,-28.78719 -22.64585,12.41193 -27.17093,30.76891 -32.99084,48.13684 l 22.14456,21.18782 c 2.07116,1.78215 4.13829,2.76986 6.20945,3.45785 9.00183,2.21013 15.79503,2.73144 24.74733,2.10749 2.0662,0.37429 5.695,1.84363 4.9778,6.61812 -2.4462,3.98191 -4.3193,8.20012 -8.3885,11.50923 l -28.25234,21.2349 c -1.03221,1.32112 -3.23482,1.4222 -0.65917,6.49383 8.36551,15.14626 5.54758,22.83788 5.65197,32.47668 l -30.63476,-5.20937 c -10.49941,-0.91459 -16.6216,12.69593 -11.68815,19.44006 11.50574,16.30734 20.63073,24.47344 34.69341,31.82316 18.7588,8.19298 37.36274,-3.25736 48.01254,-9.30192 7.4421,-2.78077 18.714,-3.22177 26.1561,-0.88518 12.2847,4.82942 17.1093,9.25612 22.0241,16.48695 2.0054,2.95039 0.8283,10.0146 -5.6708,9.75393 -3.2119,-0.1288 -7.8045,-1.47876 -11.2512,-0.42752 -8.1897,1.65545 -25.602,32.12715 -86.40304,31.17717 83.83674,74.06053 137.64874,19.09312 171.70614,-26.45935 l -3.6895,34.65951 c 27.4446,-28.22266 25.7442,-67.78784 25.0581,-106.95989 l 13.0065,25.37265 c 3.372,-17.26608 12.4193,-14.52411 -1.309,-92.0606 l 17.2723,14.0348 c 0.7551,-44.71729 -43.2274,-67.4708 -86.6779,-89.5011 9.2373,-1.87714 18.4058,-2.0344 27.5027,-0.48026 -11.659,-19.04454 -28.6185,-24.71771 -46.2271,-28.75893 8.294,0.484631 21.9921,0.376731 38.1739,3.02468 a 211.81077,211.81077 0 0 0 -97.9819,-24.206849 z"
     id="path5076-8" />
  <path
     style="fill:#000000;fill-opacity:1;fill-rule:evenodd;stroke:none"
     d="m 312.13818,61.491807 c 17.60855,4.041212 34.56804,9.713321 46.22707,28.757863 -9.09694,-1.554138 -18.26513,-1.396161 -27.50246,0.48097 43.45051,22.03031 87.43263,44.78362 86.6776,89.50094 l -17.27202,-14.03503 c 13.72828,77.5365 4.68034,74.79366 1.30824,92.05974 l -13.00574,-25.37174 c 0.68609,39.17205 2.38554,78.73787 -25.05906,106.96053 l 3.68905,-34.65946 c -34.05735,45.55247 -87.86862,100.51926 -171.70534,26.45873 60.80098,0.94998 78.21376,-29.52172 86.40338,-31.17717 3.44673,-1.05124 8.03835,0.29928 11.25017,0.42808 6.49916,0.26066 7.67616,-6.80391 5.67075,-9.7543 -4.91475,-7.23083 -9.73943,-11.6586 -22.02411,-16.48802 -7.44215,-2.33658 -18.71359,-1.89577 -26.15573,0.88499 -10.64976,6.04456 -29.25271,17.49514 -48.01151,9.30216 -14.06268,-7.34972 -23.18742,-15.51435 -34.69315,-31.82168 -4.93345,-6.74414 1.18842,-20.35583 11.68783,-19.44124 l 30.63367,5.20901 c -0.10439,-9.6388 2.71398,-17.32957 -5.65153,-32.47583 -2.57565,-5.07162 -0.37326,-5.17209 0.65895,-6.49322 l 28.25282,-21.23531 c 4.06919,-3.3091 5.94213,-7.52797 8.38829,-11.50988 0.71727,-4.77451 -2.91198,-6.244 -4.97814,-6.6183 -8.95234,0.62396 -15.74464,0.10343 -24.74647,-2.1067 -2.07116,-0.68801 -4.1383,-1.67611 -6.20946,-3.45826 l -22.14436,-21.1872 c 5.81991,-17.36794 10.34463,-35.72465 32.99048,-48.13658 -19.48466,2.78525 -38.87303,9.57504 -57.96301,28.78673 -13.54169,-4.96229 -29.42898,-5.30511 -52.9079,3.53519 C 89.31592,106.42802 84.046624,87.99169 80.18516,68.687294 56.250399,95.29543 56.479444,132.03194 57.992701,153.57561 c -8.790176,20.55686 -27.56853,26.94382 -25.501603,61.2385 l 12.919141,-10.38439 c -4.225847,15.04719 -8.455859,30.0929 -8.508548,45.14006 -1.382875,-1.27207 -2.701607,-2.46184 -4.285545,-4.00657 0,0.77844 0.02121,1.55148 0.02883,2.32795 -0.13662,4.11994 0.0217,8.18536 0.437697,12.19769 7.330909,117.96642 103.373077,209.92407 223.348277,209.92407 124.85902,0 226.07547,-101.22125 226.07547,-226.08023 -0.80045,0.82107 -1.52501,1.62312 -2.30386,2.43856 4.16483,-18.01304 4.57176,-36.22172 0.34628,-54.043 l -5.81983,23.1496 c -0.59573,-13.97271 -1.69945,-29.2244 -11.5003,-66.29359 l -1.37083,7.88328 C 420.14722,58.514916 338.61599,63.038949 312.13818,61.491807 z"
     id="path5062-8"
     inkscape:connector-curvature="0"
     sodipodi:nodetypes="cccccccccccsscccccccccccccccccccccccccsccccccc" />
</svg>
