<?xml version="1.0" encoding="UTF-8" standalone="no"?>
<!-- Created with Inkscape (http://www.inkscape.org/) -->

<svg
   xmlns:dc="http://purl.org/dc/elements/1.1/"
   xmlns:cc="http://creativecommons.org/ns#"
   xmlns:rdf="http://www.w3.org/1999/02/22-rdf-syntax-ns#"
   xmlns:svg="http://www.w3.org/2000/svg"
   xmlns="http://www.w3.org/2000/svg"
   xmlns:sodipodi="http://sodipodi.sourceforge.net/DTD/sodipodi-0.dtd"
   xmlns:inkscape="http://www.inkscape.org/namespaces/inkscape"
   id="svg2817"
   height="512"
   width="512"
   version="1.0"
   inkscape:version="0.48.5 r10040"
   sodipodi:docname="four-in-a-row.svg">
  <defs
     id="defs236" />
  <sodipodi:namedview
     pagecolor="#ffffff"
     bordercolor="#666666"
     borderopacity="1"
     objecttolerance="10"
     gridtolerance="10"
     guidetolerance="10"
     inkscape:pageopacity="0"
     inkscape:pageshadow="2"
     inkscape:window-width="1916"
     inkscape:window-height="1005"
     id="namedview234"
     showgrid="false"
     inkscape:zoom="0.88769535"
     inkscape:cx="-233.76474"
     inkscape:cy="326.52231"
     inkscape:window-x="0"
     inkscape:window-y="31"
     inkscape:window-maximized="0"
     inkscape:current-layer="svg2817" />
  <metadata
     id="metadata57">
    <rdf:RDF>
      <cc:Work
         rdf:about="">
        <dc:format>image/svg+xml</dc:format>
        <dc:type
           rdf:resource="http://purl.org/dc/dcmitype/StillImage" />
        <dc:title />
      </cc:Work>
    </rdf:RDF>
  </metadata>
  <g
     id="g4695"
     transform="translate(-18.245514,9.2401352)">
    <circle
       id="circle4370"
       cx="135.3425"
       transform="scale(1,-1)"
       cy="-194.48441"
       r="36.842495"
       style="fill:none;fill-opacity:1;stroke:#000000;stroke-opacity:1;stroke-width:2;stroke-miterlimit:4;stroke-dasharray:none"
       d="m 172.18499,-194.48441 c 0,20.34755 -16.49494,36.8425 -36.84249,36.8425 -20.34755,0 -36.842496,-16.49495 -36.842496,-36.8425 0,-20.34754 16.494946,-36.84249 36.842496,-36.84249 20.34755,0 36.84249,16.49495 36.84249,36.84249 z" />
    <circle
       id="circle4372"
       transform="scale(1,-1)"
       cy="-194.48441"
       cx="227.44873"
       r="36.842495"
       style="fill:none;fill-opacity:1;stroke:#000000;stroke-opacity:1;stroke-width:2;stroke-miterlimit:4;stroke-dasharray:none"
       d="m 264.29123,-194.48441 c 0,20.34755 -16.49495,36.8425 -36.8425,36.8425 -20.34755,0 -36.84249,-16.49495 -36.84249,-36.8425 0,-20.34754 16.49494,-36.84249 36.84249,-36.84249 20.34755,0 36.8425,16.49495 36.8425,36.84249 z" />
    <circle
       id="circle4374"
       cx="319.55496"
       transform="scale(1,-1)"
       cy="-194.48441"
       r="36.842495"
       style="fill:#00000f;fill-opacity:1"
       d="m 356.39746,-194.48441 c 0,20.34755 -16.49495,36.8425 -36.8425,36.8425 -20.34755,0 -36.84249,-16.49495 -36.84249,-36.8425 0,-20.34754 16.49494,-36.84249 36.84249,-36.84249 20.34755,0 36.8425,16.49495 36.8425,36.84249 z" />
    <circle
       id="circle4386"
       transform="scale(1,-1)"
       cy="-286.59064"
       cx="135.3425"
       r="36.842495"
       style="fill:none;fill-opacity:1;stroke:#000000;stroke-opacity:1;stroke-width:2;stroke-miterlimit:4;stroke-dasharray:none"
       d="m 172.18499,-286.59064 c 0,20.34755 -16.49494,36.8425 -36.84249,36.8425 -20.34755,0 -36.842496,-16.49495 -36.842496,-36.8425 0,-20.34755 16.494946,-36.84249 36.842496,-36.84249 20.34755,0 36.84249,16.49494 36.84249,36.84249 z" />
    <circle
       id="circle4388"
       cx="227.44873"
       transform="scale(1,-1)"
       cy="-286.59064"
       r="36.842495"
       style="fill:#00000f;fill-opacity:1"
       d="m 264.29123,-286.59064 c 0,20.34755 -16.49495,36.8425 -36.8425,36.8425 -20.34755,0 -36.84249,-16.49495 -36.84249,-36.8425 0,-20.34755 16.49494,-36.84249 36.84249,-36.84249 20.34755,0 36.8425,16.49494 36.8425,36.84249 z" />
    <circle
       id="circle4390"
       transform="scale(1,-1)"
       cy="-286.59064"
       cx="319.55496"
       r="36.842495"
       style="fill:none;fill-opacity:1;stroke:#000000;stroke-opacity:1;stroke-width:2;stroke-miterlimit:4;stroke-dasharray:none"
       d="m 356.39746,-286.59064 c 0,20.34755 -16.49495,36.8425 -36.8425,36.8425 -20.34755,0 -36.84249,-16.49495 -36.84249,-36.8425 0,-20.34755 16.49494,-36.84249 36.84249,-36.84249 20.34755,0 36.8425,16.49494 36.8425,36.84249 z" />
    <circle
       id="circle4396"
       cx="135.3425"
       transform="scale(1,-1)"
       cy="-378.69687"
       r="36.842495"
       style="fill:#00000f;fill-opacity:1"
       d="m 172.18499,-378.69687 c 0,20.34755 -16.49494,36.8425 -36.84249,36.8425 -20.34755,0 -36.842496,-16.49495 -36.842496,-36.8425 0,-20.34755 16.494946,-36.84249 36.842496,-36.84249 20.34755,0 36.84249,16.49494 36.84249,36.84249 z" />
    <circle
       id="circle4398"
       transform="scale(1,-1)"
       cy="-378.69687"
       cx="227.44873"
       r="36.842495"
       style="fill:none;fill-opacity:1;stroke:#000000;stroke-opacity:1;stroke-width:2;stroke-miterlimit:4;stroke-dasharray:none"
       d="m 264.29123,-378.69687 c 0,20.34755 -16.49495,36.8425 -36.8425,36.8425 -20.34755,0 -36.84249,-16.49495 -36.84249,-36.8425 0,-20.34755 16.49494,-36.84249 36.84249,-36.84249 20.34755,0 36.8425,16.49494 36.8425,36.84249 z" />
    <circle
       id="circle4400"
       cx="319.55496"
       transform="scale(1,-1)"
       cy="-378.69687"
       r="36.842495"
       style="fill:none;fill-opacity:1;stroke:#000000;stroke-opacity:1;stroke-width:2;stroke-miterlimit:4;stroke-dasharray:none"
       d="m 356.39746,-378.69687 c 0,20.34755 -16.49495,36.8425 -36.8425,36.8425 -20.34755,0 -36.84249,-16.49495 -36.84249,-36.8425 0,-20.34755 16.49494,-36.84249 36.84249,-36.84249 20.34755,0 36.8425,16.49494 36.8425,36.84249 z" />
    <circle
       style="fill:none;stroke:#000000;stroke-width:2;stroke-miterlimit:4;stroke-opacity:1;stroke-dasharray:none"
       r="36.842495"
       cx="319.08469"
       cy="-113.42097"
       transform="matrix(1,0,0,-1,0,-8)"
       id="circle5087-6"
       sodipodi:cx="319.08469"
       sodipodi:cy="-113.42097"
       sodipodi:rx="36.842495"
       sodipodi:ry="36.842495"
       d="m 355.92718,-113.42097 c 0,20.347551 -16.49495,36.842498 -36.84249,36.842498 -20.34755,0 -36.8425,-16.494947 -36.8425,-36.842498 0,-20.34755 16.49495,-36.84249 36.8425,-36.84249 20.34754,0 36.84249,16.49494 36.84249,36.84249 z" />
    <circle
       id="circle4370-5"
       cx="226.97849"
       transform="scale(1,-1)"
       cy="-104.21034"
       r="36.842495"
       style="fill:none;fill-opacity:1;stroke:#000000;stroke-opacity:1;stroke-width:2;stroke-miterlimit:4;stroke-dasharray:none"
       d="m 263.82098,-104.21034 c 0,20.347546 -16.49495,36.842493 -36.84249,36.842493 -20.34755,0 -36.8425,-16.494947 -36.8425,-36.842493 0,-20.34755 16.49495,-36.8425 36.8425,-36.8425 20.34754,0 36.84249,16.49495 36.84249,36.8425 z" />
    <circle
       id="circle4374-2"
       cx="411.19095"
       transform="scale(1,-1)"
       cy="-104.21034"
       r="36.842495"
       style="fill:#00000f;fill-opacity:1"
       d="m 448.03344,-104.21034 c 0,20.347546 -16.49494,36.842493 -36.84249,36.842493 -20.34755,0 -36.8425,-16.494947 -36.8425,-36.842493 0,-20.34755 16.49495,-36.8425 36.8425,-36.8425 20.34755,0 36.84249,16.49495 36.84249,36.8425 z" />
    <circle
       id="circle4390-9"
       transform="scale(1,-1)"
       cy="-196.31659"
       cx="411.19095"
       r="36.842495"
       style="fill:none;fill-opacity:1;stroke:#000000;stroke-opacity:1;stroke-width:2;stroke-miterlimit:4;stroke-dasharray:none"
       d="m 448.03344,-196.31659 c 0,20.34755 -16.49494,36.8425 -36.84249,36.8425 -20.34755,0 -36.8425,-16.49495 -36.8425,-36.8425 0,-20.34755 16.49495,-36.84249 36.8425,-36.84249 20.34755,0 36.84249,16.49494 36.84249,36.84249 z" />
    <circle
       id="circle4400-1"
       cx="411.19095"
       transform="scale(1,-1)"
       cy="-288.42282"
       r="36.842495"
       style="fill:none;fill-opacity:1;stroke:#000000;stroke-opacity:1;stroke-width:2;stroke-miterlimit:4;stroke-dasharray:none"
       d="m 448.03344,-288.42282 c 0,20.34755 -16.49494,36.84249 -36.84249,36.84249 -20.34755,0 -36.8425,-16.49494 -36.8425,-36.84249 0,-20.34755 16.49495,-36.8425 36.8425,-36.8425 20.34755,0 36.84249,16.49495 36.84249,36.8425 z" />
    <circle
       id="circle4400-1-7"
       cx="413.14853"
       transform="scale(1,-1)"
       cy="-380.09875"
       r="36.842495"
       style="fill:none;fill-opacity:1;stroke:#000000;stroke-opacity:1;stroke-width:2;stroke-miterlimit:4;stroke-dasharray:none"
       d="m 449.99102,-380.09875 c 0,20.34754 -16.49494,36.84249 -36.84249,36.84249 -20.34755,0 -36.8425,-16.49495 -36.8425,-36.84249 0,-20.34755 16.49495,-36.8425 36.8425,-36.8425 20.34755,0 36.84249,16.49495 36.84249,36.8425 z" />
    <circle
       id="circle4400-1-9"
       cx="136.0264"
       transform="scale(1,-1)"
       cy="-104.38478"
       r="36.842495"
       style="fill:none;fill-opacity:1;stroke:#000000;stroke-opacity:1;stroke-width:2;stroke-miterlimit:4;stroke-dasharray:none"
       d="m 172.86889,-104.38478 c 0,20.347547 -16.49494,36.842494 -36.84249,36.842494 -20.34755,0 -36.842497,-16.494947 -36.842497,-36.842494 0,-20.34755 16.494947,-36.8425 36.842497,-36.8425 20.34755,0 36.84249,16.49495 36.84249,36.8425 z" />
  </g>
</svg>
