<?xml version="1.0" encoding="UTF-8" standalone="no"?>
<!-- Created with Inkscape (http://www.inkscape.org/) -->

<svg
   xmlns:dc="http://purl.org/dc/elements/1.1/"
   xmlns:cc="http://creativecommons.org/ns#"
   xmlns:rdf="http://www.w3.org/1999/02/22-rdf-syntax-ns#"
   xmlns:svg="http://www.w3.org/2000/svg"
   xmlns="http://www.w3.org/2000/svg"
   xmlns:sodipodi="http://sodipodi.sourceforge.net/DTD/sodipodi-0.dtd"
   xmlns:inkscape="http://www.inkscape.org/namespaces/inkscape"
   width="512"
   height="512"
   viewBox="0 0 512 512"
   id="svg2"
   version="1.1"
   inkscape:version="0.48.5 r10040"
   sodipodi:docname="geany.svg"
   inkscape:export-filename="/home/peter/Documenten/shades1.png"
   inkscape:export-xdpi="360"
   inkscape:export-ydpi="360">
  <defs
     id="defs4">
    <filter
       style="color-interpolation-filters:sRGB"
       inkscape:label="Drop Shadow"
       id="filter4630">
      <feFlood
         flood-opacity="1"
         flood-color="rgb(0,0,0)"
         result="flood"
         id="feFlood4632" />
      <feComposite
         in="flood"
         in2="SourceGraphic"
         operator="in"
         result="composite1"
         id="feComposite4634" />
      <feGaussianBlur
         in="composite1"
         stdDeviation="0.5"
         result="blur"
         id="feGaussianBlur4636" />
      <feOffset
         dx="0"
         dy="0.5"
         result="offset"
         id="feOffset4638" />
      <feComposite
         in="SourceGraphic"
         in2="offset"
         operator="over"
         result="composite2"
         id="feComposite4640" />
    </filter>
    <pattern
       patternUnits="userSpaceOnUse"
       width="8.9999798"
       height="12.99992"
       patternTransform="translate(8.5000101,1020.8622)"
       id="pattern8126">
      <path
         inkscape:connector-curvature="0"
         id="path4173"
         d="M 4.4999899,0.49995987 0.49998991,6.4999599 4.4999899,12.49996 l 4,-6.0000001 -4,-6.00000003 z"
         style="fill:#b71c1c;fill-opacity:1;fill-rule:evenodd;stroke:#b71c1c;stroke-width:1;stroke-linecap:butt;stroke-linejoin:round;stroke-miterlimit:4;stroke-dasharray:none;stroke-opacity:1" />
    </pattern>
  </defs>
  <sodipodi:namedview
     id="base"
     pagecolor="#ffffff"
     bordercolor="#000000"
     borderopacity="1"
     inkscape:pageopacity="0"
     inkscape:pageshadow="2"
     inkscape:zoom="0.89453125"
     inkscape:cx="141.91965"
     inkscape:cy="250.89471"
     inkscape:document-units="px"
     inkscape:current-layer="layer1"
     showgrid="false"
     units="px"
     inkscape:window-width="1920"
     inkscape:window-height="1007"
     inkscape:window-x="0"
     inkscape:window-y="31"
     inkscape:window-maximized="1"
     inkscape:showpageshadow="false"
     showguides="false"
     inkscape:object-paths="true"
     inkscape:snap-intersection-paths="true"
     inkscape:object-nodes="true"
     inkscape:snap-smooth-nodes="true"
     inkscape:snap-midpoints="true"
     inkscape:snap-grids="true"
     inkscape:snap-global="true">
    <inkscape:grid
       type="xygrid"
       id="grid4140" />
  </sodipodi:namedview>
  <metadata
     id="metadata7">
    <rdf:RDF>
      <cc:Work
         rdf:about="">
        <dc:format>image/svg+xml</dc:format>
        <dc:type
           rdf:resource="http://purl.org/dc/dcmitype/StillImage" />
        <dc:title />
      </cc:Work>
    </rdf:RDF>
  </metadata>
  <g
     inkscape:label="Laag 1"
     inkscape:groupmode="layer"
     id="layer1"
     transform="translate(0,-540.3622)">
    <rect
       style="opacity:1;fill:none;fill-opacity:1;stroke:#000000;stroke-width:16;stroke-linecap:butt;stroke-linejoin:miter;stroke-miterlimit:0;stroke-dasharray:none;stroke-opacity:1"
       id="rect4153"
       width="450"
       height="449.99948"
       x="31"
       y="571.36212"
       rx="33.75"
       ry="33.75" />
    <rect
       style="fill:none;stroke:none;stroke-width:11.25"
       width="101.24977"
       height="146.2491"
       x="81.625114"
       y="689.48712"
       id="rect8129" />
    <path
       style="opacity:1;fill:#000000;fill-opacity:1;stroke:none;stroke-width:16.87500000000000000;stroke-linecap:round;stroke-linejoin:round;stroke-miterlimit:4;stroke-dasharray:none;stroke-opacity:0.20000000000000001"
       d="m 126.625,683.8623 c -12.44349,0 -47.712461,56.14988 -50.464636,76.73738 -0.109237,0.61875 -0.174465,1.27012 -0.15777,2.02275 -0.01586,0.75375 0.04905,1.395 0.15777,2.0025 2.734275,20.57175 38.017576,76.73737 50.464636,76.73737 12.44705,0 47.73034,-56.16562 50.46463,-76.73737 0.10913,-0.6075 0.17348,-1.25325 0.15773,-2.0025 0.0169,-0.75375 -0.0484,-1.41075 -0.15773,-2.02275 -2.75219,-20.5875 -38.02115,-76.73738 -50.46463,-76.73738 z"
       id="path8884"
       inkscape:connector-curvature="0" />
    <rect
       id="rect8907"
       y="734.48712"
       x="211.00284"
       height="146.2491"
       width="101.24977"
       style="fill:none;stroke:none;stroke-width:11.25" />
    <path
       inkscape:connector-curvature="0"
       id="path8911"
       d="m 256.00272,728.8623 c -12.44349,0 -47.71246,56.14988 -50.46464,76.73738 -0.10912,0.61875 -0.17449,1.27012 -0.15772,2.02275 -0.0157,0.75375 0.0495,1.395 0.15772,2.0025 2.73428,20.57175 38.01759,76.73737 50.46464,76.73737 12.44705,0 47.73034,-56.16562 50.46463,-76.73737 0.10913,-0.6075 0.17348,-1.25325 0.15773,-2.0025 0.0169,-0.75375 -0.0484,-1.41075 -0.15773,-2.02275 -2.75218,-20.5875 -38.02115,-76.73738 -50.46463,-76.73738 z"
       style="opacity:1;fill:#000000;fill-opacity:1;stroke:none;stroke-width:16.87500000000000000;stroke-linecap:round;stroke-linejoin:round;stroke-miterlimit:4;stroke-dasharray:none;stroke-opacity:0.20000000000000001" />
    <rect
       style="fill:none;stroke:none;stroke-width:11.25"
       width="101.24977"
       height="146.2491"
       x="340.37784"
       y="689.48712"
       id="rect8919" />
    <path
       style="opacity:1;fill:#000000;fill-opacity:1;stroke:none;stroke-width:16.87500000000000000;stroke-linecap:round;stroke-linejoin:round;stroke-miterlimit:4;stroke-dasharray:none;stroke-opacity:0.20000000000000001"
       d="m 385.37772,683.8623 c -12.44349,0 -47.71246,56.14988 -50.46464,76.73738 -0.10912,0.61875 -0.17449,1.27012 -0.15772,2.02275 -0.0157,0.75375 0.0495,1.395 0.15772,2.0025 2.73428,20.57175 38.01759,76.73737 50.46464,76.73737 12.44705,0 47.73034,-56.16562 50.46463,-76.73737 0.10913,-0.6075 0.17348,-1.25325 0.15773,-2.0025 0.0169,-0.75375 -0.0484,-1.41075 -0.15773,-2.02275 -2.75218,-20.5875 -38.02115,-76.73738 -50.46463,-76.73738 z"
       id="path8923"
       inkscape:connector-curvature="0" />
  </g>
</svg>
