<?xml version="1.0" encoding="UTF-8" standalone="no"?>
<!-- Created with Inkscape (http://www.inkscape.org/) -->

<svg
   xmlns:dc="http://purl.org/dc/elements/1.1/"
   xmlns:cc="http://creativecommons.org/ns#"
   xmlns:rdf="http://www.w3.org/1999/02/22-rdf-syntax-ns#"
   xmlns:svg="http://www.w3.org/2000/svg"
   xmlns="http://www.w3.org/2000/svg"
   xmlns:sodipodi="http://sodipodi.sourceforge.net/DTD/sodipodi-0.dtd"
   xmlns:inkscape="http://www.inkscape.org/namespaces/inkscape"
   id="svg2"
   version="1.1"
   inkscape:version="0.48.5 r10040"
   width="512"
   height="512"
   sodipodi:docname="geogebra.svg">
  <metadata
     id="metadata8">
    <rdf:RDF>
      <cc:Work
         rdf:about="">
        <dc:format>image/svg+xml</dc:format>
        <dc:type
           rdf:resource="http://purl.org/dc/dcmitype/StillImage" />
        <dc:title />
      </cc:Work>
    </rdf:RDF>
  </metadata>
  <defs
     id="defs6">
    <clipPath
       id="clipPath-151811596">
      <g
         transform="translate(0,-1004.3622)"
         id="g12">
        <path
           style="fill:#1890d0"
           inkscape:connector-curvature="0"
           d="m -24,13 c 0,1.105 -0.672,2 -1.5,2 -0.828,0 -1.5,-0.895 -1.5,-2 0,-1.105 0.672,-2 1.5,-2 0.828,0 1.5,0.895 1.5,2 z"
           transform="matrix(15.333333,0,0,11.5,414.99999,878.8622)"
           id="path14" />
      </g>
    </clipPath>
    <clipPath
       id="clipPath-157313340">
      <g
         transform="translate(0,-1004.3622)"
         id="g17">
        <path
           style="fill:#1890d0"
           inkscape:connector-curvature="0"
           d="m -24,13 c 0,1.105 -0.672,2 -1.5,2 -0.828,0 -1.5,-0.895 -1.5,-2 0,-1.105 0.672,-2 1.5,-2 0.828,0 1.5,0.895 1.5,2 z"
           transform="matrix(15.333333,0,0,11.5,414.99999,878.8622)"
           id="path19" />
      </g>
    </clipPath>
  </defs>
  <sodipodi:namedview
     pagecolor="#ffffff"
     bordercolor="#666666"
     borderopacity="1"
     objecttolerance="10"
     gridtolerance="10"
     guidetolerance="10"
     inkscape:pageopacity="0"
     inkscape:pageshadow="2"
     inkscape:window-width="1920"
     inkscape:window-height="1007"
     id="namedview4"
     showgrid="false"
     inkscape:zoom="1.3037281"
     inkscape:cx="130.11821"
     inkscape:cy="285.07799"
     inkscape:window-x="0"
     inkscape:window-y="31"
     inkscape:window-maximized="1"
     inkscape:current-layer="svg2" />
  <rect
     style="fill:none;fill-rule:evenodd;stroke:none"
     id="rect2998"
     width="445.28812"
     height="462.10172"
     x="32"
     y="23.864408"
     ry="50" />
  <g
     id="g57"
     transform="matrix(14.740113,0,0,14.740113,-95.40713,-97.423727)"
     style="fill:#000000;fill-opacity:1">
    <g
       clip-path="url(#clipPath-157313340)"
       id="g59"
       style="fill:#000000;fill-opacity:1">
      <!-- color: #eeeeee -->
      <g
         id="g61"
         style="fill:#000000;fill-opacity:1">
        <path
           d="m 20.801,14.281 c -6.465,2.352 -10.02,8.637 -7.918,14.01 2.105,5.375 9.08,7.832 15.543,5.48 6.461,-2.352 10.02,-8.641 7.914,-14.02 -2.105,-5.375 -9.08,-7.828 -15.543,-5.477 m 0.727,1.848 c 5.266,-1.918 10.891,0.063 12.602,4.434 1.711,4.367 -1.152,9.441 -6.422,11.359 -5.27,1.918 -10.898,-0.066 -12.605,-4.438 -1.711,-4.367 1.156,-9.438 6.426,-11.355 m 0,0"
           id="path63"
           inkscape:connector-curvature="0"
           style="fill:#000000;fill-opacity:1;fill-rule:nonzero;stroke:none" />
        <path
           d="M 26,14.5 C 26,15.879 24.879,17 23.5,17 22.121,17 21,15.879 21,14.5 21,13.121 22.121,12 23.5,12 c 1.379,0 2.5,1.121 2.5,2.5 m 0,0"
           id="path65"
           inkscape:connector-curvature="0"
           style="fill:#000000;fill-opacity:1;fill-rule:nonzero;stroke:none" />
        <path
           d="M 37,18.5 C 37,19.879 35.879,21 34.5,21 33.121,21 32,19.879 32,18.5 32,17.121 33.121,16 34.5,16 c 1.379,0 2.5,1.121 2.5,2.5 m 0,0"
           id="path67"
           inkscape:connector-curvature="0"
           style="fill:#000000;fill-opacity:1;fill-rule:nonzero;stroke:none" />
        <path
           d="M 35,29.5 C 35,30.879 33.879,32 32.5,32 31.121,32 30,30.879 30,29.5 30,28.121 31.121,27 32.5,27 c 1.379,0 2.5,1.121 2.5,2.5 m 0,0"
           id="path69"
           inkscape:connector-curvature="0"
           style="fill:#000000;fill-opacity:1;fill-rule:nonzero;stroke:none" />
        <path
           d="M 22,33.5 C 22,34.879 20.879,36 19.5,36 18.121,36 17,34.879 17,33.5 17,32.121 18.121,31 19.5,31 c 1.379,0 2.5,1.121 2.5,2.5 m 0,0"
           id="path71"
           inkscape:connector-curvature="0"
           style="fill:#000000;fill-opacity:1;fill-rule:nonzero;stroke:none" />
        <path
           d="M 16,23.5 C 16,24.879 14.879,26 13.5,26 12.121,26 11,24.879 11,23.5 11,22.121 12.121,21 13.5,21 c 1.379,0 2.5,1.121 2.5,2.5 m 0,0"
           id="path73"
           inkscape:connector-curvature="0"
           style="fill:#000000;fill-opacity:1;fill-rule:nonzero;stroke:none" />
      </g>
    </g>
  </g>
</svg>
