<?xml version="1.0" encoding="UTF-8" standalone="no"?>
<svg
   xmlns:dc="http://purl.org/dc/elements/1.1/"
   xmlns:cc="http://creativecommons.org/ns#"
   xmlns:rdf="http://www.w3.org/1999/02/22-rdf-syntax-ns#"
   xmlns:svg="http://www.w3.org/2000/svg"
   xmlns="http://www.w3.org/2000/svg"
   xmlns:sodipodi="http://sodipodi.sourceforge.net/DTD/sodipodi-0.dtd"
   xmlns:inkscape="http://www.inkscape.org/namespaces/inkscape"
   version="1.1"
   x="0px"
   y="0px"
   width="512px"
   height="512px"
   viewBox="0 0 512 512"
   enable-background="new 0 0 512 512"
   xml:space="preserve"
   id="svg2"
   inkscape:version="0.48.5 r10040"
   sodipodi:docname="giggle.svg"><metadata
     id="metadata12"><rdf:RDF><cc:Work
         rdf:about=""><dc:format>image/svg+xml</dc:format><dc:type
           rdf:resource="http://purl.org/dc/dcmitype/StillImage" /></cc:Work></rdf:RDF></metadata><defs
     id="defs10" /><sodipodi:namedview
     pagecolor="#ffffff"
     bordercolor="#666666"
     borderopacity="1"
     objecttolerance="10"
     gridtolerance="10"
     guidetolerance="10"
     inkscape:pageopacity="0"
     inkscape:pageshadow="2"
     inkscape:window-width="1920"
     inkscape:window-height="1007"
     id="namedview8"
     showgrid="false"
     inkscape:zoom="1.3037281"
     inkscape:cx="123.98897"
     inkscape:cy="291.78589"
     inkscape:window-x="0"
     inkscape:window-y="31"
     inkscape:window-maximized="1"
     inkscape:current-layer="svg2" /><rect
     style="opacity:1;fill:none;fill-opacity:1;stroke:#000000;stroke-width:8;stroke-linecap:round;stroke-linejoin:round;stroke-miterlimit:4;stroke-dasharray:none;stroke-opacity:1"
     id="rect4149"
     width="336.11765"
     height="336.11765"
     x="-168.05894"
     y="193.97963"
     rx="30.65799"
     ry="30.65799"
     transform="rotate(-45.000053)" /><path
     inkscape:connector-curvature="0"
     style="opacity:1;fill:#000000;fill-opacity:1;stroke:none;stroke-width:1.02272511000000010;stroke-linecap:round;stroke-linejoin:round;stroke-miterlimit:4;stroke-dasharray:none;stroke-opacity:1"
     d="m 179.29493,143.50047 a 35.795378,35.795378 0 0 0 -35.79537,35.79538 35.795378,35.795378 0 0 0 20.4545,32.2997 l 0,88.80936 a 35.795378,35.795378 0 0 0 -20.4545,32.2997 35.795378,35.795378 0 0 0 20.43455,32.29971 l 0,36.59443 30.7017,30.7017 0,-67.29613 a 35.795378,35.795378 0 0 0 20.4545,-32.29971 35.795378,35.795378 0 0 0 -2.11734,-11.98511 L 320.71869,212.97388 a 35.795378,35.795378 0 0 0 11.98501,2.11734 35.795378,35.795378 0 0 0 35.79538,-35.79537 35.795378,35.795378 0 0 0 -35.79538,-35.79538 35.795378,35.795378 0 0 0 -35.79538,35.79538 35.795378,35.795378 0 0 0 2.09741,11.985 l -104.36992,104.38996 0,-84.07526 a 35.795378,35.795378 0 0 0 20.4545,-32.2997 35.795378,35.795378 0 0 0 -35.79538,-35.79538 z"
     id="path4151" /></svg>