<?xml version="1.0" encoding="UTF-8" standalone="no"?>
<svg
   xmlns:dc="http://purl.org/dc/elements/1.1/"
   xmlns:cc="http://creativecommons.org/ns#"
   xmlns:rdf="http://www.w3.org/1999/02/22-rdf-syntax-ns#"
   xmlns:svg="http://www.w3.org/2000/svg"
   xmlns="http://www.w3.org/2000/svg"
   xmlns:sodipodi="http://sodipodi.sourceforge.net/DTD/sodipodi-0.dtd"
   xmlns:inkscape="http://www.inkscape.org/namespaces/inkscape"
   viewBox="0 0 512 512"
   id="svg2"
   version="1.1"
   inkscape:version="0.48.5 r10040"
   sodipodi:docname="gnome-tetravex.svg"
   width="512"
   height="512">
  <metadata
     id="metadata45">
    <rdf:RDF>
      <cc:Work
         rdf:about="">
        <dc:format>image/svg+xml</dc:format>
        <dc:type
           rdf:resource="http://purl.org/dc/dcmitype/StillImage" />
        <dc:title />
      </cc:Work>
    </rdf:RDF>
  </metadata>
  <sodipodi:namedview
     pagecolor="#ffffff"
     bordercolor="#666666"
     borderopacity="1"
     objecttolerance="10"
     gridtolerance="10"
     guidetolerance="10"
     inkscape:pageopacity="0"
     inkscape:pageshadow="2"
     inkscape:window-width="1920"
     inkscape:window-height="1007"
     id="namedview43"
     showgrid="false"
     inkscape:zoom="1.2553907"
     inkscape:cx="143.91418"
     inkscape:cy="208.33478"
     inkscape:window-x="0"
     inkscape:window-y="31"
     inkscape:window-maximized="1"
     inkscape:current-layer="g4173" />
  <defs
     id="defs4">
    <linearGradient
       id="linearGradient3764"
       x1="1"
       x2="47"
       gradientUnits="userSpaceOnUse"
       gradientTransform="matrix(0,-1,1,0,-1.5e-6,47.999998)">
      <stop
         style="stop-color:#3d3d3d;stop-opacity:1"
         id="stop7" />
      <stop
         offset="1"
         style="stop-color:#474747;stop-opacity:1"
         id="stop9" />
    </linearGradient>
  </defs>
  <g
     id="g4173"
     transform="translate(34.777864,-26.212766)">
    <g
       transform="matrix(9.5748755,0,0,9.5744681,-8.5748755,52.425532)"
       id="g11" />
    <g
       transform="matrix(9.5748755,0,0,9.5744681,-8.5748755,52.425532)"
       style="fill:none;fill-opacity:1;stroke:#000000;stroke-opacity:1"
       id="g19">
      <path
         inkscape:connector-curvature="0"
         id="path21"
         style="fill:none;fill-opacity:1;stroke:#000000;stroke-opacity:1"
         d="M 24,1 C 36.703,1 47,11.297 47,24 47,36.703 36.703,47 24,47 11.297,47 1,36.703 1,24 1,11.297 11.297,1 24,1 Z" />
    </g>
    <g
       transform="matrix(9.5748755,0,0,9.5744681,-8.5748755,52.425532)"
       id="g25">
      <g
         id="g27">
        <!-- color: #474747 -->
        <g
           id="g29">
          <path
             inkscape:connector-curvature="0"
             id="path31"
             style="fill:#000000;fill-opacity:1;fill-rule:nonzero;stroke:none"
             d="m 14,11.164444 -1,1 11,11 10.996,-11 -1,-1 m -19.996,0" />
          <path
             inkscape:connector-curvature="0"
             id="path33"
             style="fill:#000000;fill-opacity:1;fill-rule:nonzero;stroke:none"
             d="m 33.996,36.835556 1,-1 -10.996,-10.996 -11,10.996 1,1 m 19.996,0" />
          <path
             inkscape:connector-curvature="0"
             id="path35"
             style="fill:#000000;fill-opacity:1;fill-rule:nonzero;stroke:none"
             d="m 11.16448,33.996 1,1 11,-10.996 -11,-11 -1,1 m 0,19.996" />
          <path
             inkscape:connector-curvature="0"
             id="path37"
             style="fill:#000000;fill-opacity:1;fill-rule:nonzero;stroke:none"
             d="m 36.83552,14 -1,-1 -10.996,11 10.996,10.996 1,-1 m 0,-19.996" />
        </g>
      </g>
    </g>
    <g
       transform="matrix(9.5748755,0,0,9.5744681,-8.5748755,52.425532)"
       id="g39" />
  </g>
</svg>
