<?xml version="1.0" encoding="UTF-8" standalone="no"?>
<svg
   xmlns:dc="http://purl.org/dc/elements/1.1/"
   xmlns:cc="http://creativecommons.org/ns#"
   xmlns:rdf="http://www.w3.org/1999/02/22-rdf-syntax-ns#"
   xmlns:svg="http://www.w3.org/2000/svg"
   xmlns="http://www.w3.org/2000/svg"
   xmlns:sodipodi="http://sodipodi.sourceforge.net/DTD/sodipodi-0.dtd"
   xmlns:inkscape="http://www.inkscape.org/namespaces/inkscape"
   viewBox="0 0 512 512"
   id="svg2"
   version="1.1"
   inkscape:version="0.48.5 r10040"
   sodipodi:docname="five-or-more.svg"
   width="512"
   height="512">
  <metadata
     id="metadata61">
    <rdf:RDF>
      <cc:Work
         rdf:about="">
        <dc:format>image/svg+xml</dc:format>
        <dc:type
           rdf:resource="http://purl.org/dc/dcmitype/StillImage" />
        <dc:title />
      </cc:Work>
    </rdf:RDF>
  </metadata>
  <sodipodi:namedview
     pagecolor="#ffffff"
     bordercolor="#666666"
     borderopacity="1"
     objecttolerance="10"
     gridtolerance="10"
     guidetolerance="10"
     inkscape:pageopacity="0"
     inkscape:pageshadow="2"
     inkscape:window-width="1916"
     inkscape:window-height="1005"
     id="namedview59"
     showgrid="false"
     inkscape:zoom="1.1035156"
     inkscape:cx="516.10833"
     inkscape:cy="283.68463"
     inkscape:window-x="0"
     inkscape:window-y="31"
     inkscape:window-maximized="0"
     inkscape:current-layer="svg2" />
  <defs
     id="defs4">
    <linearGradient
       id="linearGradient4302"
       gradientUnits="userSpaceOnUse"
       gradientTransform="matrix(0,-1,1,0,-1.5e-6,47.999998)"
       x1="1"
       x2="47">
      <stop
         style="stop-color:#1a3f50;stop-opacity:1"
         id="stop7" />
      <stop
         offset="1"
         style="stop-color:#1f4a5e;stop-opacity:1"
         id="stop9" />
    </linearGradient>
  </defs>
  <g
     id="g23"
     transform="matrix(18.715377,0,0,18.715342,-211.46894,-202.29944)">
    <g
       id="g25">
      <g
         transform="translate(1,1)"
         id="g27">
        <g
           style="opacity:0.1"
           id="g29">
          <!-- color: #474747 -->
          <g
             id="g31" />
        </g>
      </g>
    </g>
  </g>
  <g
     id="g4189"
     transform="matrix(1.9546339,0,0,1.9547135,-235.46279,-234.63308)"
     style="fill:#000000;fill-opacity:1">
    <path
       inkscape:connector-curvature="0"
       id="path35"
       style="fill:#000000;fill-opacity:1;fill-rule:nonzero;stroke:none"
       d="m 165.04826,308.65957 c -15.856,0 -28.72463,12.86809 -28.72463,28.72341 0,15.85532 12.86863,28.7234 28.72463,28.7234 15.85599,0 28.72462,-12.86808 28.72462,-28.7234 0,-15.85532 -12.86863,-28.72341 -28.72462,-28.72341 z" />
    <path
       inkscape:connector-curvature="0"
       id="path37"
       style="fill:#000000;fill-opacity:1;fill-rule:nonzero;stroke:none"
       d="m 279.94676,308.65957 c -15.85599,0 -28.72462,12.86809 -28.72462,28.72341 0,15.85532 12.86863,28.7234 28.72462,28.7234 15.856,0 28.72463,-12.86808 28.72463,-28.7234 0,-15.85532 -12.86863,-28.72341 -28.72463,-28.72341 z" />
    <path
       inkscape:connector-curvature="0"
       id="path39"
       style="fill:#000000;fill-opacity:1;fill-rule:nonzero;stroke:none"
       d="m 337.39602,308.65957 c -15.856,0 -28.72463,12.86809 -28.72463,28.72341 0,15.85532 12.86863,28.7234 28.72463,28.7234 15.85599,0 28.72462,-12.86808 28.72462,-28.7234 0,-15.85532 -12.86863,-28.72341 -28.72462,-28.72341 z" />
    <path
       inkscape:connector-curvature="0"
       id="path41"
       style="fill:#000000;fill-opacity:1;fill-rule:nonzero;stroke:none"
       d="m 222.49751,251.21277 c -15.85599,0 -28.72463,12.86808 -28.72463,28.7234 0,15.85532 12.86864,28.7234 28.72463,28.7234 15.85599,0 28.72463,-12.86808 28.72463,-28.7234 0,-15.85532 -12.86864,-28.7234 -28.72463,-28.7234 z" />
    <path
       inkscape:connector-curvature="0"
       id="path43"
       style="fill:#000000;fill-opacity:1;fill-rule:nonzero;stroke:none"
       d="m 337.39602,251.21277 c -15.856,0 -28.72463,12.86808 -28.72463,28.7234 0,15.85532 12.86863,28.7234 28.72463,28.7234 15.85599,0 28.72462,-12.86808 28.72462,-28.7234 0,-15.85532 -12.86863,-28.7234 -28.72462,-28.7234 z" />
    <path
       inkscape:connector-curvature="0"
       id="path45"
       style="fill:#000000;fill-opacity:1;fill-rule:nonzero;stroke:none"
       d="m 222.49751,193.76596 c -15.85599,0 -28.72463,12.86808 -28.72463,28.7234 0,15.85532 12.86864,28.72341 28.72463,28.72341 15.85599,0 28.72463,-12.86809 28.72463,-28.72341 0,-15.85532 -12.86864,-28.7234 -28.72463,-28.7234 z" />
    <path
       inkscape:connector-curvature="0"
       id="path47"
       style="fill:#000000;fill-opacity:1;fill-rule:nonzero;stroke:none"
       d="m 279.94676,193.76596 c -15.85599,0 -28.72462,12.86808 -28.72462,28.7234 0,15.85532 12.86863,28.72341 28.72462,28.72341 15.856,0 28.72463,-12.86809 28.72463,-28.72341 0,-15.85532 -12.86863,-28.7234 -28.72463,-28.7234 z" />
    <path
       inkscape:connector-curvature="0"
       id="path49"
       style="fill:#000000;fill-opacity:1;fill-rule:nonzero;stroke:none"
       d="m 165.04826,136.31915 c -15.856,0 -28.72463,12.86809 -28.72463,28.7234 0,15.85532 12.86863,28.72341 28.72463,28.72341 15.85599,0 28.72462,-12.86809 28.72462,-28.72341 0,-15.85531 -12.86863,-28.7234 -28.72462,-28.7234 z" />
    <path
       inkscape:connector-curvature="0"
       id="path51"
       style="fill:#000000;fill-opacity:1;fill-rule:nonzero;stroke:none"
       d="m 222.49751,136.31915 c -15.85599,0 -28.72463,12.86809 -28.72463,28.7234 0,15.85532 12.86864,28.72341 28.72463,28.72341 15.85599,0 28.72463,-12.86809 28.72463,-28.72341 0,-15.85531 -12.86864,-28.7234 -28.72463,-28.7234 z" />
    <path
       inkscape:connector-curvature="0"
       id="path53"
       style="fill:#000000;fill-opacity:1;fill-rule:nonzero;stroke:none"
       d="m 337.39602,136.31915 c -15.856,0 -28.72463,12.86809 -28.72463,28.7234 0,15.85532 12.86863,28.72341 28.72463,28.72341 15.85599,0 28.72462,-12.86809 28.72462,-28.72341 0,-15.85531 -12.86863,-28.7234 -28.72462,-28.7234 z" />
  </g>
</svg>
