<?xml version="1.0" encoding="UTF-8" standalone="no"?>
<!-- Created with Inkscape (http://www.inkscape.org/) -->

<svg
   xmlns:dc="http://purl.org/dc/elements/1.1/"
   xmlns:cc="http://creativecommons.org/ns#"
   xmlns:rdf="http://www.w3.org/1999/02/22-rdf-syntax-ns#"
   xmlns:svg="http://www.w3.org/2000/svg"
   xmlns="http://www.w3.org/2000/svg"
   xmlns:sodipodi="http://sodipodi.sourceforge.net/DTD/sodipodi-0.dtd"
   xmlns:inkscape="http://www.inkscape.org/namespaces/inkscape"
   width="512"
   height="512"
   viewBox="0 0 135.46666 135.46666"
   id="svg2"
   version="1.1"
   inkscape:version="0.48.5 r10040"
   sodipodi:docname="gnome-documents.svg"
   style="shape-rendering:crispEdges">
  <defs
     id="defs4" />
  <sodipodi:namedview
     id="base"
     pagecolor="#ffffff"
     bordercolor="#666666"
     borderopacity="1.0"
     inkscape:pageopacity="0.0"
     inkscape:pageshadow="2"
     inkscape:zoom="0.73242188"
     inkscape:cx="9.6223818"
     inkscape:cy="255.57793"
     inkscape:document-units="mm"
     inkscape:current-layer="layer1"
     showgrid="false"
     units="px"
     inkscape:snap-text-baseline="true"
     inkscape:window-width="1920"
     inkscape:window-height="1007"
     inkscape:window-x="0"
     inkscape:window-y="31"
     inkscape:window-maximized="1" />
  <metadata
     id="metadata7">
    <rdf:RDF>
      <cc:Work
         rdf:about="">
        <dc:format>image/svg+xml</dc:format>
        <dc:type
           rdf:resource="http://purl.org/dc/dcmitype/StillImage" />
        <dc:title />
      </cc:Work>
    </rdf:RDF>
  </metadata>
  <g
     inkscape:label="Capa 1"
     inkscape:groupmode="layer"
     id="layer1"
     transform="translate(0,-161.53334)">
    <path
       style="fill:none;stroke:#000000;stroke-width:3.74999976;stroke-miterlimit:4;stroke-opacity:1;stroke-dasharray:none"
       d="m 16.555974,183.15712 c -2e-6,-2.11004 2.603194,-4.22576 4.713279,-4.22576 l 63.64553,0 27.388447,27.22834 c 0,0 0.0308,52.63391 0.0308,78.08727 0,1.86094 -3.23375,4.94328 -5.0947,4.94328 -27.614362,0 -85.739828,0 -85.739828,0 -2.143785,0 -4.943296,-1.97035 -4.943296,-4.11415 z"
       id="rect4141-4"
       inkscape:connector-curvature="0"
       sodipodi:nodetypes="ssccsssss" />
    <path
       style="font-style:normal;font-variant:normal;font-weight:normal;font-stretch:normal;font-size:2.30072521999999990px;line-height:125%;font-family:Abyssinica SIL;-inkscape-font-specification:'Abyssinica SIL, Normal';text-align:start;letter-spacing:0px;word-spacing:0px;writing-mode:lr-tb;text-anchor:start;fill:#000000;fill-opacity:1;stroke:#000000;stroke-width:0.25437808000000001;stroke-linecap:butt;stroke-linejoin:miter;stroke-miterlimit:4;stroke-dasharray:none;stroke-opacity:1"
       d="m 31.204458,262.73663 c -1.176207,0 -1.176274,-3.52893 0,-3.52893 l 37.817926,0 c 1.176206,0 1.176274,3.52893 0,3.52893 z m 0.01558,-14.10821 c -1.176193,0 -1.17626,-3.52883 0,-3.52883 l 68.333937,0 c 1.176185,0 1.176255,3.52883 0,3.52883 z m 0,-14.1081 c -1.176308,0 -1.176308,-3.52893 0,-3.52893 l 68.333937,0 c 1.176315,0 1.176315,3.52893 0,3.52893 z m 0,-14.11551 c -1.17384,0 -1.17384,-3.52152 0,-3.52152 l 68.333937,0 c 1.173845,0 1.173845,3.52152 0,3.52152 z"
       id="text4195"
       inkscape:connector-curvature="0"
       sodipodi:nodetypes="ssssssssssssssssssss" />
    <path
       sodipodi:nodetypes="csccsssc"
       inkscape:connector-curvature="0"
       id="rect3361"
       d="m 16.517989,182.85802 c 0,-1.9891 2.465648,-3.9706 4.454821,-3.9706 9.060354,0 2.721608,0.0288 2.721608,0.0288 l 0,110.2539 c 0,0 5.626567,0 -2.450151,0 -2.048853,0 -4.705395,-1.90585 -4.705395,-3.95465 0,-31.11511 -0.02086,-68.21156 -0.02086,-102.36056 z"
       style="opacity:1;fill:#000000;fill-opacity:1;stroke:#000000;stroke-width:0;stroke-linecap:butt;stroke-linejoin:miter;stroke-miterlimit:4;stroke-dasharray:none;stroke-dashoffset:0;stroke-opacity:1" />
    <path
       style="opacity:1;fill:#000000;fill-opacity:1;stroke:#000000;stroke-width:0;stroke-miterlimit:4;stroke-dasharray:none;stroke-opacity:1"
       d="m 84.800648,178.9364 27.587222,27.33256 c 0,0 -15.655366,0.10158 -23.804772,0 -1.906383,-0.0339 -3.718445,-2.38494 -3.78245,-4.29039 -0.271224,-8.07403 0,-23.04217 0,-23.04217 z"
       id="rect4147-6"
       inkscape:connector-curvature="0"
       sodipodi:nodetypes="ccssc" />
  </g>
</svg>
