<?xml version="1.0" encoding="UTF-8" standalone="no"?>
<!-- Created with Inkscape (http://www.inkscape.org/) -->

<svg
   xmlns:dc="http://purl.org/dc/elements/1.1/"
   xmlns:cc="http://creativecommons.org/ns#"
   xmlns:rdf="http://www.w3.org/1999/02/22-rdf-syntax-ns#"
   xmlns:svg="http://www.w3.org/2000/svg"
   xmlns="http://www.w3.org/2000/svg"
   xmlns:sodipodi="http://sodipodi.sourceforge.net/DTD/sodipodi-0.dtd"
   xmlns:inkscape="http://www.inkscape.org/namespaces/inkscape"
   width="512"
   height="512"
   viewBox="0 0 135.46666 135.46666"
   id="svg2"
   version="1.1"
   inkscape:version="0.48.5 r10040"
   sodipodi:docname="gnome-books.svg">
  <defs
     id="defs4">
    <filter
       inkscape:collect="always"
       style="color-interpolation-filters:sRGB"
       id="filter4246"
       x="-0.075970948"
       width="1.1519419"
       y="-0.049577583"
       height="1.0991552">
      <feGaussianBlur
         inkscape:collect="always"
         stdDeviation="5.6646385"
         id="feGaussianBlur4248" />
    </filter>
  </defs>
  <sodipodi:namedview
     id="base"
     pagecolor="#ffffff"
     bordercolor="#666666"
     borderopacity="1.0"
     inkscape:pageopacity="0.0"
     inkscape:pageshadow="2"
     inkscape:zoom="1.5585938"
     inkscape:cx="131.84963"
     inkscape:cy="256"
     inkscape:document-units="mm"
     inkscape:current-layer="layer1"
     showgrid="false"
     inkscape:window-width="1920"
     inkscape:window-height="1007"
     inkscape:window-x="0"
     inkscape:window-y="31"
     inkscape:window-maximized="1"
     units="px" />
  <metadata
     id="metadata7">
    <rdf:RDF>
      <cc:Work
         rdf:about="">
        <dc:format>image/svg+xml</dc:format>
        <dc:type
           rdf:resource="http://purl.org/dc/dcmitype/StillImage" />
        <dc:title />
      </cc:Work>
    </rdf:RDF>
  </metadata>
  <g
     inkscape:label="Capa 1"
     inkscape:groupmode="layer"
     id="layer1"
     transform="translate(0,-161.53336)">
    <path
       style="opacity:1;fill:none;fill-opacity:1;stroke:#000000;stroke-width:1.87499991;stroke-miterlimit:4;stroke-dasharray:none;stroke-opacity:1"
       d="m 10.271933,184.32958 57.461399,3.70417 57.461398,-3.70417 c 2.60707,-0.16806 4.71568,2.10319 4.71568,4.71568 l 0,84.71826 c 0,2.61248 -2.1086,4.54761 -4.71568,4.71567 l -57.461398,3.70417 -57.461399,-3.70417 C 7.6648571,278.31113 5.5562549,276.376 5.5562549,273.76352 l 0,-84.71826 c 0,-2.61249 2.1086036,-4.88374 4.7156781,-4.71568 z"
       id="rect4145"
       inkscape:connector-curvature="0"
       sodipodi:nodetypes="scsssscssss" />
    <rect
       style="opacity:1;fill:#000000;fill-opacity:1;stroke:none;stroke-width:0.01252920000000000;stroke-miterlimit:4;stroke-dasharray:none;stroke-opacity:1"
       id="rect4145-4"
       width="11.573659"
       height="94.149612"
       x="61.946507"
       y="188.03375"
       rx="0"
       ry="0" />
    <path
       inkscape:connector-curvature="0"
       style="fill:#000000;fill-opacity:1;fill-rule:evenodd;stroke:none"
       d="m 30.677596,182.87095 c -0.760238,0 -1.372526,0.61229 -1.372526,1.37253 l 0,48.58049 c 0,0.0252 0.0024,0.05 0.0036,0.0749 l 5.392436,-4.87308 5.413624,5.47626 c 0.0013,-0.0252 0.0036,-0.0504 0.0036,-0.076 l 0,-48.58049 c 0,-0.76024 -0.613877,-1.31595 -1.372008,-1.37253 l -8.06876,-0.60214 z"
       id="rect5499"
       sodipodi:nodetypes="csscccssscc" />
  </g>
</svg>
