<?xml version="1.0" encoding="UTF-8" standalone="no"?>
<!-- Created with Inkscape (http://www.inkscape.org/) -->

<svg
   xmlns:dc="http://purl.org/dc/elements/1.1/"
   xmlns:cc="http://creativecommons.org/ns#"
   xmlns:rdf="http://www.w3.org/1999/02/22-rdf-syntax-ns#"
   xmlns:svg="http://www.w3.org/2000/svg"
   xmlns="http://www.w3.org/2000/svg"
   xmlns:sodipodi="http://sodipodi.sourceforge.net/DTD/sodipodi-0.dtd"
   xmlns:inkscape="http://www.inkscape.org/namespaces/inkscape"
   id="svg2"
   version="1.1"
   inkscape:version="0.48.5 r10040"
   width="1024"
   height="1024"
   sodipodi:docname="gnutella.svg">
  <metadata
     id="metadata8">
    <rdf:RDF>
      <cc:Work
         rdf:about="">
        <dc:format>image/svg+xml</dc:format>
        <dc:type
           rdf:resource="http://purl.org/dc/dcmitype/StillImage" />
        <dc:title />
      </cc:Work>
    </rdf:RDF>
  </metadata>
  <defs
     id="defs6" />
  <sodipodi:namedview
     pagecolor="#ffffff"
     bordercolor="#666666"
     borderopacity="1"
     objecttolerance="10"
     gridtolerance="10"
     guidetolerance="10"
     inkscape:pageopacity="0"
     inkscape:pageshadow="2"
     inkscape:window-width="1920"
     inkscape:window-height="1007"
     id="namedview4"
     showgrid="false"
     inkscape:zoom="0.65186406"
     inkscape:cx="310.93386"
     inkscape:cy="626.44744"
     inkscape:window-x="0"
     inkscape:window-y="31"
     inkscape:window-maximized="1"
     inkscape:current-layer="g2982" />
  <path
     sodipodi:type="arc"
     style="fill:none;fill-opacity:1;fill-rule:nonzero;stroke:#ffffff;stroke-width:0;stroke-linecap:round;stroke-linejoin:miter;stroke-miterlimit:4;stroke-opacity:1;stroke-dasharray:none"
     id="path2988"
     sodipodi:cx="1080.4067"
     sodipodi:cy="590.10168"
     sodipodi:rx="464.27118"
     sodipodi:ry="429.55933"
     d="m 1544.6779,590.10168 a 464.27118,429.55933 0 1 1 -928.54234,0 464.27118,429.55933 0 1 1 928.54234,0 z"
     transform="matrix(1.0069546,0,0,1.0883246,-570.52228,-131.28153)" />
  <g
     id="g2982"
     transform="matrix(1.0007882,0,0,1.000583,4.3055857,-0.57240206)"
     style="fill:#000000;fill-opacity:1">
    <path
       style="fill:#000000;fill-opacity:1;stroke:#000000;stroke-width:1.00031424;stroke-miterlimit:4;stroke-opacity:1;stroke-dasharray:none"
       d="m 487.65883,978.45087 c -76.4433,-4.7836 -149.3991,-27.4166 -214.506,-66.5461 -67.1796,-40.3751 -125.66711,-100.20936 -165.13531,-168.93794 -8.1944,-14.26944 -22.4249,-43.76357 -28.4666,-59 -36.448,-91.91721 -43.0016,-194.10043 -18.582,-289.7302 27.1296,-106.24209 91.6968,-200.54972 181.38951,-264.93955 59.7873,-42.920913 131.1677,-71.812443 203.3405,-82.302943 26.7087,-3.88218 40.9976,-4.88934 69.3668,-4.88934 28.3691,0 42.6581,1.00716 69.3668,4.88934 126.4622,18.3816 241.6548,90.030673 315.7044,196.366143 19.1115,27.4441 38.6266,63.8009 50.7816,94.60655 47.9908,121.628 43.1586,257.88626 -13.299,375 -72.2144,149.79924 -216.1827,249.57794 -381.5538,264.43984 -16.7483,1.5052 -52.3549,2.0487 -68.4069,1.0442 z m 70.5982,-34.5553 c 33.4594,-3.3021 57.1283,-10.9335 72.4447,-23.3577 13.9316,-11.3009 20.5523,-28.7292 17.4163,-45.8469 -2.1118,-11.5274 -23.499,-88.55052 -37.9554,-136.69125 -3.2978,-10.98191 -5.8078,-20.15536 -5.5777,-20.38544 0.2301,-0.23009 1.1358,0.88011 2.0126,2.46711 0.8769,1.58699 9.0455,16.61044 18.1526,33.38544 9.1071,16.775 26.0319,47.15 37.6106,67.5 19.0894,33.55014 21.7121,37.65984 28.1286,44.07664 8.201,8.2013 14.8187,11.786 25.9476,14.0555 6.9343,1.4141 8.6487,1.4244 16.4353,0.098 26.6232,-4.5335 57.049,-24.6523 95.6636,-63.2567 54.8142,-54.79956 69.6566,-83.652 56.5733,-109.97384 -5.9515,-11.97365 -19.1487,-23.9908 -43.0434,-39.1945 -28.3089,-18.01236 -85.4851,-51.34725 -125.7513,-73.3155 -8.3882,-4.57641 -15.0633,-8.50875 -14.8335,-8.73855 0.2298,-0.22979 10.0179,2.5305 21.7513,6.13397 52.1397,16.01273 152.0682,43.54677 165.7438,45.66861 24.6185,3.81969 46.1675,-11.94601 57.025,-41.72058 3.8811,-10.64303 7.6397,-28.07715 9.5578,-44.33345 3.4495,-29.2336 2.9578,-80.5329 -1.0288,-107.33686 -5.1809,-34.83427 -17.6789,-53.08444 -39.568,-57.77881 -9.8994,-2.12303 -31.3241,-0.61468 -49.8963,3.51282 -41.4378,9.20913 -109.5156,27.1912 -155.9074,41.18137 -18.1877,5.48479 -17.5632,5.0262 19.6541,-14.43154 38.4687,-20.11207 99.2653,-53.75031 132.6085,-73.3712 22.257,-13.09717 30.5515,-25.38595 30.6203,-45.36582 0.072,-20.94997 -12.1323,-45.61539 -38.0555,-76.90996 -10.4847,-12.65723 -45.2818,-47.42623 -58.42,-58.37289 -28.6742,-23.8911 -50.5107,-33.12638 -68.0767,-28.79153 -3.7851,0.93407 -9.2846,3.15318 -12.221,4.93136 -6.5718,3.97961 -18.4692,15.32133 -23.9611,22.84193 -14.1689,19.4032 -53.4059,85.55094 -84.3146,142.14209 -6.8343,12.51303 -12.569,22.32184 -12.7438,21.79735 -0.1749,-0.52448 3.5736,-13.61482 8.3299,-29.08964 17.9824,-58.50673 43.8685,-151.99378 45.3993,-163.95867 3.8648,-30.2071 -19.0112,-53.001883 -62.2292,-62.008243 -22.7946,-4.75024 -32.195,-5.4449 -73.6828,-5.4449 -31.9375,0 -41.8111,0.3281 -51.5709,1.71368 -25.2384,3.58301 -41.292,9.31524 -51.308,18.32046 -10.0503,9.03614 -15.161,25.468233 -13.6594,43.919003 1.7418,21.40396 20.899,99.46466 41.1069,167.5 3.6756,12.375 -95.78872,-361.425251 -95.50802,-360.325251 1.1483,4.50076 100.58302,383.876211 88.91542,361.825251 -19.4328,-36.72648 -42.7752,-78.88416 -67.2737,-121.5 -14.7514,-25.66051 -21.6641,-34.54278 -31.0723,-39.92563 -12.6273,-7.22457 -29.5675,-7.99628 -46.13,-2.10145 -24.7061,8.79323 -50.1656,27.69608 -85.6992,63.62899 -21.6181,21.86092 -31.678,33.52499 -41.31091,47.89809 -15.7298,23.47037 -19.2845,41.31844 -11.4134,57.30691 4.653,9.45174 18.43801,23.34104 32.77291,33.02111 27.6193,18.65068 115.2646,69.24267 173.5933,100.2042 6.5685,3.48663 11.4969,6.48792 10.952,6.66954 -0.5449,0.18162 -13.5691,-3.53356 -28.9427,-8.25595 -69.5225,-21.35561 -156.0322,-44.2882 -184.46471,-48.89918 -10.8031,-1.75197 -22.8015,-1.97492 -31.3081,-0.58175 -18.808,3.0803 -32.5661,18.42312 -38.5901,43.03512 -4.3164,17.63547 -5.2722,28.15888 -5.8068,63.93305 -0.8681,58.0865 3.1789,87.155 15.6829,112.64625 5.7109,11.64241 14.5233,21.94779 23.2499,27.1887 6.931,4.16257 18.1253,6.62279 26.2849,5.77677 12.4575,-1.29165 118.42091,-30.82632 179.41831,-50.00843 6.2801,-1.97493 11.86,-3.44357 12.3998,-3.26365 0.5397,0.17991 -9.5486,6.12645 -22.4184,13.21453 -47.12,25.95137 -101.1119,57.67713 -126.3997,74.27271 -16.3573,10.73476 -30.52381,24.4642 -35.33001,34.24007 -12.9262,26.29161 1.2654,54.83455 53.44891,107.5 35.6962,36.02574 64.0722,56.26314 89.8811,64.10184 9.0663,2.7536 27.1445,2.5493 34.5,-0.3899 7.1968,-2.8757 14.3658,-8.4051 19.9746,-15.4063 7.1726,-8.9531 55.0713,-94.01157 86.4994,-153.60523 6.4681,-12.26478 11.9675,-22.09222 12.221,-21.83876 0.2534,0.25346 -3.3835,13.66328 -8.0822,29.79959 -23.8889,82.04031 -39.39,144.6977 -41.1511,166.3388 -0.9047,11.117 0.9184,23.5585 4.5538,31.0757 5.9223,12.2462 19.3474,21.7202 37.3534,26.3602 25.2199,6.4989 79.8949,8.5319 120.8224,4.4928 z m -84.1913,-20.4365 c -30.3626,-3.0358 -48.1506,-8.7306 -53.7657,-17.2131 -2.5331,-3.8267 -2.7596,-5.019 -3.0785,-16.2049 -0.3061,-10.739 0.053,-14.0232 3.2518,-29.6989 8.5699,-42.00296 28.0629,-114.69021 48.0081,-179.01716 13.1795,-42.50625 46.1828,-139.79 48.0605,-141.66767 0.2881,-0.28811 0.7272,-0.32046 0.9758,-0.0719 0.882,0.88205 17.4527,43.74035 26.0523,67.38137 11.1332,30.60638 33.8734,98.81966 45.0047,135 17.7946,57.83773 38.3414,130.65006 39.191,138.88266 2.252,21.8194 -17.2825,34.8094 -61.9567,41.2 -12.9596,1.8539 -77.3981,2.844 -91.7433,1.4096 z m -176.2837,-66.4866 c -22.1883,-6.102 -56.0897,-31.92905 -91.5738,-69.76341 -21.0583,-22.45298 -32.0253,-36.88458 -38.4951,-50.65617 -5.89451,-12.54686 -3.8618,-20.73962 8.1705,-32.93115 13.4162,-13.59372 87.0699,-57.73502 173.6821,-104.08914 40.966,-21.92468 141.5313,-71.57545 143.5429,-70.86958 0.9205,0.323 -9.1338,24.00509 -23.4796,55.30381 -12.3125,26.86286 -49.8662,102.11337 -66.6229,133.5 -32.1071,60.13883 -69.7156,126.63472 -74.8315,132.31024 -7.1513,7.9334 -18.1986,10.5488 -30.3926,7.1954 z m 416.3136,0.3818 c -7.9102,-3.157 -11.1566,-7.6322 -30.7481,-42.38744 -53.0196,-94.0567 -101.6027,-189.59958 -133.9208,-263.36697 -8.7048,-19.86922 -9.9725,-23.13303 -8.985,-23.13303 1.2897,0 69.2111,33.18767 101.0566,49.37817 55.9483,28.44455 100.9704,53.26909 151.3031,83.42642 50.0131,29.96578 68.1541,43.34646 73.942,54.53912 3.8533,7.45144 -0.4278,21.4846 -11.6094,38.05505 -16.3728,24.26344 -56.8788,64.97561 -83.889,84.31596 -10.9383,7.83228 -27.8161,16.64472 -35.8236,18.70462 -6.8144,1.753 -17.5176,1.9879 -21.3258,0.4681 z m 152.4701,-247.32915 c -96.3231,-26.54785 -195.041,-57.98613 -266.5,-84.87118 -39.6921,-14.93337 -49.2334,-18.85369 -48.2587,-19.82839 1.7373,-1.73729 64.7166,-23.64386 110.7268,-38.5149 69.7646,-22.54878 158.0138,-46.98368 207.5319,-57.46248 12.9858,-2.74801 17.6898,-3.28826 29,-3.33069 11.5652,-0.0434 14.0733,0.23599 17.5,1.94935 13.6704,6.8352 19.885,36.23487 19.87,94 -0.011,40.90485 -3.003,65.32661 -10.565,86.22514 -6.9907,19.31991 -16.9843,28.3657 -31.1807,28.22355 -3.0657,-0.0307 -14.3641,-2.59792 -28.1243,-6.3904 z m -741.00731,3.0904 c -13.2388,-6.16502 -21.9985,-26.07115 -27.1285,-61.64869 -2.1112,-14.64158 -2.9729,-66.40302 -1.4248,-85.5866 2.5543,-31.65206 8.0088,-50.50792 16.5553,-57.23055 6.6608,-5.23941 22.2961,-5.29802 47.5053,-0.17809 63.89821,12.97759 179.06921,46.28666 275.00691,79.53587 20.0712,6.9561 38.5181,13.33995 40.9931,14.18633 2.475,0.84638 4.8714,1.87295 5.3253,2.28128 0.9102,0.81873 -6.3289,3.97356 -30.0654,13.1027 -77.5366,29.82082 -187.2287,64.96634 -288.3756,92.39598 -23.61031,6.40279 -30.22621,6.9442 -38.39161,3.14177 z M 541.06573,480.40028 c 0,-2.94043 43.6514,-91.06138 66.5927,-134.43345 34.771,-65.73715 80.3437,-144.13332 99.1136,-170.5 11.7523,-16.50877 21.8756,-23.7358 31.8115,-22.71032 13.6126,1.40495 37.1593,17.96828 67.7875,47.68349 31.1324,30.20435 52.4127,57.81433 61.2949,79.52683 2.4143,5.90172 2.8658,8.41207 2.8779,16 0.025,15.82448 -2.3903,18.24923 -38.6072,38.75684 -102.1387,57.83529 -208.2538,111.78207 -277.8709,141.26393 -3.575,1.51396 -7.9625,3.37218 -9.75,4.12937 -2.179,0.92301 -3.25,1.01638 -3.25,0.28331 z m -89,-18.80768 c -95.3086,-46.44357 -201.0608,-104.66541 -255.5,-140.66546 -24.0476,-15.90241 -32.5299,-25.34956 -32.4763,-36.17047 0.074,-14.88785 19.4412,-42.05319 55.2599,-77.50948 37.3517,-36.97368 68.1232,-56.79319 88.1479,-56.77478 15.179,0.0139 18.5652,3.23518 36.2604,34.49442 59.0402,104.29683 108.862,201.90923 140.7331,275.72878 7.4263,17.2007 8.3361,19.82871 6.825,19.71457 -0.4125,-0.0312 -18.075,-8.49907 -39.25,-18.81758 z m 58.0132,-8.37577 c -9.2609,-25.69059 -36.9025,-108.95742 -44.8982,-135.25 -19.0481,-62.63668 -37.6561,-132.9388 -45.0763,-170.30057 -2.2529,-11.344 -3.0387,-18.09339 -3.0387,-26.10077 0,-12.34771 1.0047,-16.25805 5.3664,-20.88593 9.9962,-10.606333 41.3117,-16.204173 90.6837,-16.210303 55.0859,-0.007 92.5912,8.26245 107.623,23.729103 8.9791,9.23878 8.6441,15.69088 -2.999,57.76847 -30.9013,111.67554 -62.0978,207.8148 -93.2104,287.25 -3.716,9.4875 -7.0885,17.25 -7.4943,17.25 -0.4059,0 -3.5362,-7.7625 -6.9562,-17.25 z"
       id="path2984"
       inkscape:connector-curvature="0"
       sodipodi:nodetypes="sssssssssssssscsssccsssscsssscssssssssssssssssscsssssssscssssssssssssssssssscsssssssscssssccssscsccsscsssssssssssscssssssssscsssssssssssssssssscssssssssscsssssscsssscssssssssssss" />
  </g>
</svg>
