<?xml version="1.0" encoding="UTF-8" standalone="no"?>
<svg
   xmlns:dc="http://purl.org/dc/elements/1.1/"
   xmlns:cc="http://creativecommons.org/ns#"
   xmlns:rdf="http://www.w3.org/1999/02/22-rdf-syntax-ns#"
   xmlns:svg="http://www.w3.org/2000/svg"
   xmlns="http://www.w3.org/2000/svg"
   xmlns:sodipodi="http://sodipodi.sourceforge.net/DTD/sodipodi-0.dtd"
   xmlns:inkscape="http://www.inkscape.org/namespaces/inkscape"
   viewBox="0 0 512 512"
   id="svg2"
   version="1.1"
   inkscape:version="0.48.5 r10040"
   sodipodi:docname="grsync.svg"
   width="512"
   height="512">
  <metadata
     id="metadata39">
    <rdf:RDF>
      <cc:Work
         rdf:about="">
        <dc:format>image/svg+xml</dc:format>
        <dc:type
           rdf:resource="http://purl.org/dc/dcmitype/StillImage" />
        <dc:title />
      </cc:Work>
    </rdf:RDF>
  </metadata>
  <sodipodi:namedview
     pagecolor="#ffffff"
     bordercolor="#666666"
     borderopacity="1"
     objecttolerance="10"
     gridtolerance="10"
     guidetolerance="10"
     inkscape:pageopacity="0"
     inkscape:pageshadow="2"
     inkscape:window-width="1920"
     inkscape:window-height="1007"
     id="namedview37"
     showgrid="false"
     showguides="false"
     inkscape:zoom="1.7753906"
     inkscape:cx="-31.296963"
     inkscape:cy="253.99682"
     inkscape:window-x="0"
     inkscape:window-y="31"
     inkscape:window-maximized="1"
     inkscape:current-layer="svg2" />
  <defs
     id="defs4">
    <linearGradient
       id="linearGradient3764"
       x1="1"
       x2="47"
       gradientUnits="userSpaceOnUse"
       gradientTransform="matrix(0,-1,1,0,-1.5e-6,47.999998)">
      <stop
         style="stop-color:#5d873f;stop-opacity:1"
         id="stop7" />
      <stop
         offset="1"
         style="stop-color:#679445;stop-opacity:1"
         id="stop9" />
    </linearGradient>
  </defs>
  <g
     id="g19"
     style="fill:#0fa15f;fill-opacity:1"
     transform="translate(0,464)" />
  <path
     d="m 256,31.000046 c 124.26848,0 225,100.731524 225,225.000004 0,124.26847 -100.73152,225 -225,225 -124.26848,0 -225,-100.73153 -225,-225 C 31,131.73157 131.73152,31.000046 256,31.000046 Z"
     style="fill:none;fill-opacity:1;stroke:#000000;stroke-opacity:1;stroke-width:16;stroke-miterlimit:4;stroke-dasharray:none"
     id="path21"
     inkscape:connector-curvature="0" />
  <g
     id="g4208">
    <path
       d="M 256,109.26092 A 146.73913,146.73913 0 0 0 109.26087,256.00005 l 19.56522,0 A 127.17391,127.17391 0 0 1 256,128.82613 127.17391,127.17391 0 0 1 383.17391,256.00005 127.17391,127.17391 0 0 1 256,383.17396 l 0,19.56522 A 146.73913,146.73913 0 0 0 402.73913,256.00005 146.73913,146.73913 0 0 0 256,109.26092 Z"
       style="opacity:1;fill:#000000;fill-opacity:1;stroke:none"
       id="path33"
       inkscape:connector-curvature="0" />
    <path
       d="m 114.72935,216.86961 a 146.73913,146.73913 0 0 0 -5.46848,39.13044 146.73913,146.73913 0 0 0 8.96087,50.18478 l 59.51739,-89.31522 -63.00978,0"
       style="opacity:1;fill:#000000;fill-opacity:1;stroke:none"
       id="path35"
       inkscape:connector-curvature="0" />
  </g>
</svg>
