<?xml version="1.0" encoding="UTF-8" standalone="no"?>
<svg
   xmlns:dc="http://purl.org/dc/elements/1.1/"
   xmlns:cc="http://creativecommons.org/ns#"
   xmlns:rdf="http://www.w3.org/1999/02/22-rdf-syntax-ns#"
   xmlns:svg="http://www.w3.org/2000/svg"
   xmlns="http://www.w3.org/2000/svg"
   xmlns:sodipodi="http://sodipodi.sourceforge.net/DTD/sodipodi-0.dtd"
   xmlns:inkscape="http://www.inkscape.org/namespaces/inkscape"
   viewBox="0 0 512 512"
   id="svg2"
   version="1.1"
   inkscape:version="0.48.5 r10040"
   width="512"
   height="512"
   sodipodi:docname="grub-customizer.svg">
  <metadata
     id="metadata126">
    <rdf:RDF>
      <cc:Work
         rdf:about="">
        <dc:format>image/svg+xml</dc:format>
        <dc:type
           rdf:resource="http://purl.org/dc/dcmitype/StillImage" />
        <dc:title />
      </cc:Work>
    </rdf:RDF>
  </metadata>
  <sodipodi:namedview
     pagecolor="#ffffff"
     bordercolor="#666666"
     borderopacity="1"
     objecttolerance="10"
     gridtolerance="10"
     guidetolerance="10"
     inkscape:pageopacity="0"
     inkscape:pageshadow="2"
     inkscape:window-width="1920"
     inkscape:window-height="1007"
     id="namedview124"
     showgrid="false"
     inkscape:zoom="1.1020922"
     inkscape:cx="32.840707"
     inkscape:cy="287.08933"
     inkscape:window-x="0"
     inkscape:window-y="31"
     inkscape:window-maximized="1"
     inkscape:current-layer="svg2"
     showguides="false">
    <inkscape:grid
       type="xygrid"
       id="grid3103"
       empspacing="5"
       visible="true"
       enabled="true"
       snapvisiblegridlinesonly="true" />
  </sodipodi:namedview>
  <defs
     id="defs4">
    <linearGradient
       id="linearGradient3764"
       x1="1"
       x2="47"
       gradientUnits="userSpaceOnUse"
       gradientTransform="rotate(-90,23.999998,24)">
      <stop
         stop-color="#e4e4e4"
         stop-opacity="1"
         id="stop7" />
      <stop
         offset="1"
         stop-color="#eee"
         stop-opacity="1"
         id="stop9" />
    </linearGradient>
    <clipPath
       id="clipPath-417599645">
      <g
         transform="translate(0,-1004.3622)"
         id="g17">
        <path
           d="m -24,13 c 0,1.105 -0.672,2 -1.5,2 -0.828,0 -1.5,-0.895 -1.5,-2 0,-1.105 0.672,-2 1.5,-2 0.828,0 1.5,0.895 1.5,2 z"
           transform="matrix(15.333333,0,0,11.5,414.99999,878.8622)"
           id="path19"
           inkscape:connector-curvature="0"
           style="fill:#1890d0" />
      </g>
    </clipPath>
  </defs>
  <g
     id="g33"
     transform="matrix(6.2966574,0,0,6.2966574,-140.88419,370.00408)" />
  <path
     style="fill:none;fill-opacity:1;fill-rule:nonzero;stroke:#000000;stroke-width:8;stroke-opacity:1;stroke-miterlimit:4;stroke-dasharray:none"
     inkscape:connector-curvature="0"
     id="SVGCleanerId_0"
     d="m 407.48645,326.97417 c -5.71982,22.06474 -34.57229,68.0948 -49.99409,88.38567 -15.3494,20.36328 -13.50312,38.6812 -41.8669,31.53141 -28.29137,-7.07738 -36.20141,-5.79222 -65.54261,-4.23556 -28.99732,1.62907 -22.77065,-0.77831 -40.94377,6.93257 -18.1007,7.63846 -78.97332,-93.39957 -83.9329,-112.27859 -4.81476,-18.80662 -7.14978,-16.54404 5.52072,-36.83491 12.50759,-20.36328 14.42623,-40.50935 31.04268,-65.12629 16.61644,-24.74364 35.91179,-37.34172 34.49993,-56.20264 -5.52071,-70.06778 -9.75628,-105.146918 23.40416,-121.328937 31.53141,-15.421786 57.97655,-6.226638 68.36633,-0.995539 4.52518,2.262591 13.72033,6.715354 20.50808,14.426253 6.78776,7.566082 12.94197,18.951421 16.39923,33.377663 7.07739,28.92491 -2.96852,19.36775 5.08628,52.52821 7.9281,33.08806 24.03771,49.36059 43.69508,75.51608 19.72973,26.1555 40.23783,69.36186 33.72159,94.32271 m 0,0" />
  <path
     style="fill:none;fill-opacity:1;fill-rule:nonzero;stroke:#000000;stroke-width:4;stroke-opacity:1;stroke-miterlimit:4;stroke-dasharray:none"
     inkscape:connector-curvature="0"
     id="path88"
     d="m 220.23481,155.36152 c 5.15869,-1.90057 4.30798,-2.19019 7.78328,-9.26755 2.75131,-5.44831 5.1587,-7.7833 5.08629,-16.05533 0,-8.05479 -2.67891,-10.8242 -6.71536,-16.1277 -3.89164,-5.0139 -10.04584,-5.30351 -13.99179,-4.66999 -2.26263,0.36206 -5.15869,3.04092 -7.1498,7.00498 -1.33944,2.67889 -2.33497,6.08182 -2.47978,9.61145 -0.21698,9.61147 0.56109,13.21351 2.96852,19.72976 2.75131,7.6385 9.46666,11.60255 14.49864,9.75627 m 0,0" />
  <path
     style="fill:#000000;fill-opacity:1;fill-rule:nonzero;stroke:none;stroke-width:18.10069084"
     inkscape:connector-curvature="0"
     id="SVGCleanerId_1"
     d="m 215.43815,122.25536 c 2.5522,0 5.79219,1.55666 7.42125,3.74683 1.70149,2.19018 2.82372,5.3035 2.82372,8.83314 0,5.1587 -0.56116,10.89662 -3.89164,12.65239 -1.06794,0.41633 -3.33055,1.06793 -4.5976,1.06793 -2.89612,0 -3.18568,-1.84626 -5.937,-4.52517 -0.99557,-0.92314 -3.81928,-5.66551 -3.81928,-9.53907 0,-2.40739 -0.56109,-5.86462 1.70148,-8.97794 1.55666,-2.26259 3.52966,-3.33052 6.29907,-3.33052 m 0,0.0724" />
  <path
     style="fill:none;fill-opacity:1;fill-rule:nonzero;stroke:#000000;stroke-width:4;stroke-opacity:1;stroke-miterlimit:4;stroke-dasharray:none"
     inkscape:connector-curvature="0"
     id="path91"
     d="m 273.75857,156.01313 c 13.01439,-1.26704 17.53957,-6.00942 19.87454,-14.20903 2.04536,-7.27648 2.11777,-15.34939 -3.60201,-24.88845 -5.44831,-9.05035 -8.56165,-10.4622 -16.39924,-11.09573 -12.09125,-0.92314 -17.81108,7.00497 -20.50808,12.65239 -2.82371,6.15423 -2.26263,5.3035 -2.04541,13.0868 0.21699,8.19961 5.08633,10.46219 8.05481,15.62089 3.04093,4.94149 13.15923,8.97794 14.57109,8.90554 m 0.0726,-0.0725" />
  <path
     style="fill:#000000;fill-opacity:1;fill-rule:nonzero;stroke:none;stroke-width:18.10069084"
     inkscape:connector-curvature="0"
     id="SVGCleanerId_2"
     d="m 272.70869,121.89333 c 6.4982,0 10.24502,5.44831 11.53017,12.38088 0.48856,3.18572 -0.21698,6.78776 -2.26257,9.33996 -2.33503,2.9685 -6.49819,4.66997 -9.82869,4.66997 -3.25814,0 -6.78775,0.48876 -8.76076,-1.90058 -1.90053,-2.55218 -2.26256,-8.0548 -2.26256,-12.09124 0,-4.45278 1.41186,-7.6385 3.74683,-10.1183 1.84629,-1.84627 5.08628,-2.26258 7.85569,-2.26258 m 0,0" />
  <path
     style="fill:none;fill-opacity:1;fill-rule:nonzero;stroke:#000000;stroke-width:8;stroke-opacity:1;stroke-miterlimit:4;stroke-dasharray:none"
     inkscape:connector-curvature="0"
     id="path100"
     d="m 234.09995,193.69878 c -11.24055,0.41633 -28.99733,-29.12401 -29.48606,-16.83364 -0.28953,10.3898 0.28952,10.19068 0.28952,20.21847 0,6.71536 -3.25809,7.27647 -10.31738,17.39476 -3.67442,5.30351 -6.49813,11.09573 -8.68835,16.97845 -1.41185,3.45723 -2.6789,7.07736 -3.74683,10.67941 -0.41652,1.77387 -1.19463,3.67443 -1.70148,5.44831 -3.45721,12.23606 -16.12771,27.36824 -19.02382,39.60431 -2.96853,12.16367 -6.42574,19.94696 -5.937,36.20138 0.41652,16.32682 0.5611,11.60254 5.79219,15.6933 5.23113,4.03646 10.53463,7.8557 18.73425,14.64345 8.6883,7.20408 26.58989,19.36774 28.99728,23.25938 2.55218,3.89164 2.55218,12.57999 0.99557,15.42181 -1.55667,2.7513 -15.05978,4.30797 -15.05978,4.30797 0,0 11.80163,15.47606 14.20902,17.61197 2.26256,2.11776 11.94645,12.38088 51.26115,5.44831 22.20955,-4.03646 39.31469,-15.62091 51.74987,-26.78901 16.05531,-14.77021 7.92809,-18.95142 9.9735,-26.30033 3.04093,-10.67941 12.86957,-14.64346 15.05978,-26.66231 0.28953,-1.70147 0.85072,-2.96851 2.5522,-5.66553 2.47977,-3.40291 1.90059,-10.60699 1.90059,-16.97844 0,-16.97844 -2.0454,-34.01119 -6.22667,-46.66359 -3.81924,-11.87404 -9.82869,-20.14606 -14.98738,-30.82547 -10.31737,-21.28641 -9.82868,-30.89787 -19.09623,-44.4734 -10.46218,-15.69329 -5.3035,-26.1555 -19.29535,-25.52197 -17.39476,0.92313 -31.45896,23.3318 -47.93059,23.96532 m 0,0" />
  <path
     style="fill:#000000;fill-opacity:1;fill-rule:nonzero;stroke:none;stroke-width:18.10069083999999862"
     d="m 240.03899,137.95012 c -4.45273,0.48874 -7.21539,0.0699 -11.52338,2.11528 -4.59759,2.19019 -11.40311,7.35102 -15.07754,10.39195 -7.05928,5.81032 -12.08345,8.19833 -11.79393,15.34809 0.19904,6.78776 6.0815,12.09148 12.50723,17.03296 6.35338,4.9596 11.8008,11.1172 15.69245,12.38425 4.03645,1.42996 11.04751,1.14372 16.06139,1.14372 11.16813,1e-5 25.65584,-13.22218 33.78304,-15.55717 10.11831,-3.04091 13.65969,-8.12093 14.43805,-19.57867 0.7059,-9.55716 -14.21665,-11.26367 -25.4572,-14.7209 -3.3848,-0.97744 -6.00418,-2.37936 -9.67865,-4.93155 -3.96405,-2.75131 -12.65239,-4.17402 -18.95146,-3.46808 z M 138.32092,329.51854 c -7.07733,-0.14483 -11.03065,3.41389 -15.48339,7.64946 -4.45278,4.23556 -9.82767,14.98707 -17.61095,20.21817 l -0.0245,0 c -7.710923,5.23111 -27.440959,4.80923 -32.454837,10.94536 -4.88722,6.15421 0.218304,15.06228 0.07379,31.60627 0,7.07738 -1.264563,12.38063 -2.11528,16.6886 -1.267045,5.44831 -2.043605,9.26739 0.418162,13.15903 4.452781,6.86017 11.450332,8.64333 51.959725,16.55332 21.63034,4.23557 42.13653,15.12364 55.78446,16.24588 13.72032,0.92316 16.69462,-3.4037 25.03904,-10.31816 8.27202,-7.00498 10.95862,-4.8855 10.68711,-20.14439 -0.28952,-15.277 -10.6794,-19.80483 -22.48104,-37.3987 -11.80168,-17.61197 -13.73338,-20.85365 -21.57097,-32.52863 -7.85574,-11.53014 -23.38801,-32.45899 -32.22118,-32.67621 z m 194.55687,8.21517 c -5.52071,0 -6.57051,0.13872 -11.24051,2.89006 -2.53431,1.48426 -2.7548,11.09572 -2.7548,22.48104 0,8.97792 0.0636,19.09005 -0.78708,27.28962 -1.97299,19.09623 -6.1314,30.19396 -6.49342,42.50243 -0.43453,12.29038 4.01746,20.5634 7.9815,23.82154 3.89164,3.3124 9.76996,5.86623 22.56712,5.86623 12.86961,0 20.84188,-2.69241 29.33111,-10.67482 5.44831,-5.10437 11.24027,-9.90909 27.92912,-20.6609 13.304,-8.47108 33.29933,-17.81179 37.26342,-21.55867 1.97296,-1.82815 5.51522,-3.59188 5.80473,-10.37964 0.21699,-5.86465 -4.82077,-7.79313 -8.35045,-9.83853 -4.94147,-2.67891 -17.75239,-12.37625 -24.17817,-21.91533 -3.89185,-5.79221 1.62496,-15.35213 -3.75094,-22.62861 l 0,0.0984 c -3.18574,-4.38038 -8.9126,-2.48423 -9.69096,-2.48423 -0.92311,0 -5.87327,8.04466 -7.84623,10.37965 -2.13584,2.47978 -7.70689,6.64267 -11.67094,8.97766 -3.946,2.40738 -7.06793,3.68485 -15.55717,3.12372 -8.41688,-0.63353 -10.82448,-3.3303 -13.50339,-5.44808 -2.62459,-2.19019 -5.2971,-3.89552 -4.80857,-9.19903 0.57891,-5.3035 1.28346,-9.05664 -0.41816,-10.6133 -1.84627,-1.75578 -4.3055,-2.02923 -9.82621,-2.02923 z"
     id="path102"
     inkscape:connector-curvature="0"
     sodipodi:nodetypes="ccccccscccccccscccccccccccccscscccsccccccccsccccccs" />
</svg>
