<?xml version="1.0" encoding="UTF-8" standalone="no"?>
<!-- Created with Inkscape (http://www.inkscape.org/) -->

<svg
   xmlns:dc="http://purl.org/dc/elements/1.1/"
   xmlns:cc="http://creativecommons.org/ns#"
   xmlns:rdf="http://www.w3.org/1999/02/22-rdf-syntax-ns#"
   xmlns:svg="http://www.w3.org/2000/svg"
   xmlns="http://www.w3.org/2000/svg"
   xmlns:sodipodi="http://sodipodi.sourceforge.net/DTD/sodipodi-0.dtd"
   xmlns:inkscape="http://www.inkscape.org/namespaces/inkscape"
   id="svg2"
   version="1.1"
   inkscape:version="0.48.5 r10040"
   width="1024"
   height="1024"
   sodipodi:docname="gtk-gnutella.svg">
  <metadata
     id="metadata8">
    <rdf:RDF>
      <cc:Work
         rdf:about="">
        <dc:format>image/svg+xml</dc:format>
        <dc:type
           rdf:resource="http://purl.org/dc/dcmitype/StillImage" />
        <dc:title />
      </cc:Work>
    </rdf:RDF>
  </metadata>
  <defs
     id="defs6" />
  <sodipodi:namedview
     pagecolor="#ffffff"
     bordercolor="#666666"
     borderopacity="1"
     objecttolerance="10"
     gridtolerance="10"
     guidetolerance="10"
     inkscape:pageopacity="0"
     inkscape:pageshadow="2"
     inkscape:window-width="1920"
     inkscape:window-height="1007"
     id="namedview4"
     showgrid="false"
     inkscape:zoom="0.65186406"
     inkscape:cx="519.67256"
     inkscape:cy="511.8707"
     inkscape:window-x="0"
     inkscape:window-y="31"
     inkscape:window-maximized="1"
     inkscape:current-layer="g2982" />
  <path
     sodipodi:type="arc"
     style="fill:none;fill-opacity:1;fill-rule:nonzero;stroke:#ffffff;stroke-width:0;stroke-linecap:round;stroke-linejoin:miter;stroke-miterlimit:4;stroke-opacity:1;stroke-dasharray:none"
     id="path2988"
     sodipodi:cx="1080.4067"
     sodipodi:cy="590.10168"
     sodipodi:rx="464.27118"
     sodipodi:ry="429.55933"
     d="m 1544.6779,590.10168 a 464.27118,429.55933 0 1 1 -928.54234,0 464.27118,429.55933 0 1 1 928.54234,0 z"
     transform="matrix(1.0069546,0,0,1.0883246,-570.52228,-131.28153)" />
  <g
     id="g2982"
     transform="matrix(1.0007882,0,0,1.000583,4.3055857,-0.57240206)"
     style="fill:#40e0d0;stroke:none">
    <path
       style="fill:#000000;fill-opacity:1;stroke:none"
       d="M 484.5931,975.64761 C 408.14978,970.864 335.19404,948.23099 270.08706,909.10152 202.90747,868.7264 144.42004,808.89213 104.95181,740.16355 c -8.194398,-14.26944 -22.424858,-43.76357 -28.466578,-59 -36.44807,-91.91721 -43.00165,-194.10043 -18.582,-289.7302 C 85.032802,285.19126 149.60003,190.88363 239.29271,126.4938 299.07999,83.572879 370.46037,54.681355 442.63319,44.19085 469.34193,40.308666 483.63085,39.301507 512,39.301507 c 28.36915,0 42.65807,1.007159 69.36681,4.889343 126.46217,18.381601 241.65478,90.03068 315.70441,196.36615 19.1115,27.4441 38.6265,63.8009 50.7815,94.60655 47.9909,121.628 43.1586,257.88626 -13.2989,375 C 862.33936,859.96282 718.37115,959.74149 553,974.60341 c -16.74831,1.50517 -52.35492,2.04869 -68.4069,1.0442 z m 70.59822,-34.55531 c 33.45941,-3.30214 57.12828,-10.93349 72.44464,-23.35768 13.93164,-11.30096 20.55232,-28.72927 17.41637,-45.84698 -2.11179,-11.52734 -23.49902,-88.55047 -37.95542,-136.6912 -3.29781,-10.98191 -5.80777,-20.15536 -5.57769,-20.38544 0.23008,-0.23009 1.13575,0.88011 2.0126,2.46711 0.87684,1.58699 9.04551,16.61044 18.1526,33.38544 9.10708,16.775 26.03186,47.15 37.61061,67.5 19.0894,33.55018 21.71206,37.65981 28.12862,44.07662 8.20097,8.20129 14.81865,11.78602 25.94754,14.05552 6.9343,1.41411 8.64867,1.42437 16.43533,0.0984 26.62322,-4.53355 57.04894,-24.65229 95.66361,-63.2567 54.81414,-54.79956 69.65655,-83.652 56.57327,-109.97384 -5.9515,-11.97365 -19.14874,-23.9908 -43.0434,-39.1945 -28.30887,-18.01236 -85.48511,-51.34725 -125.7513,-73.3155 -8.38821,-4.57641 -15.06328,-8.50875 -14.83349,-8.73855 0.2298,-0.22979 10.01788,2.5305 21.7513,6.13397 52.13968,16.01273 152.06816,43.54677 165.7438,45.66861 24.61841,3.81969 46.16751,-11.94601 57.02501,-41.72058 3.881,-10.64303 7.6397,-28.07715 9.5578,-44.33345 3.4495,-29.2336 2.9577,-80.5329 -1.0288,-107.33686 -5.1809,-34.83427 -17.679,-53.08444 -39.5681,-57.77881 -9.8993,-2.12303 -31.32397,-0.61468 -49.89622,3.51282 -41.43776,9.20913 -109.51556,27.1912 -155.90737,41.18137 -18.18773,5.48479 -17.56318,5.0262 19.65403,-14.43154 38.46877,-20.11207 99.26536,-53.75031 132.60855,-73.3712 22.25696,-13.09717 30.55145,-25.38595 30.62034,-45.36582 0.0722,-20.94997 -12.13237,-45.61539 -38.05553,-76.90996 C 840.43528,204.50632 805.6382,169.73732 792.5,158.79066 c -28.67415,-23.8911 -50.51068,-33.12638 -68.07671,-28.79153 -3.7851,0.93407 -9.28455,3.15318 -12.22099,4.93136 -6.57183,3.97961 -18.46923,15.32133 -23.96106,22.84193 -14.16896,19.4032 -53.40589,85.55094 -84.31459,142.14209 -6.8343,12.51303 -12.56905,22.32184 -12.74388,21.79735 -0.17483,-0.52448 3.57364,-13.61482 8.32993,-29.08964 17.98243,-58.50673 43.86853,-151.99378 45.39935,-163.95867 C 648.77681,98.456449 625.90076,75.661664 582.68276,66.655303 559.88821,61.905063 550.48781,61.210406 509,61.210406 c -31.93747,0 -41.81106,0.328094 -51.57094,1.713674 -25.23839,3.583015 -41.29195,9.315244 -51.30792,18.320459 -10.05037,9.03615 -15.16099,25.468241 -13.65946,43.919011 1.74187,21.40396 20.89907,99.46466 41.10688,167.5 3.67561,12.375 6.91256,23.4 7.19323,24.5 1.14836,4.50076 -2.11815,-0.94904 -13.78579,-23 -19.43277,-36.72648 -42.77518,-78.88416 -67.27368,-121.5 -14.75142,-25.66051 -21.66409,-34.54278 -31.07233,-39.92563 -12.62724,-7.22457 -29.56745,-7.99628 -46.12999,-2.10145 -24.70609,8.79323 -50.16555,27.69608 -85.69924,63.62899 -21.61804,21.86092 -31.67799,33.52499 -41.31085,47.89809 -15.72985,23.47037 -19.28453,41.31844 -11.41343,57.30691 4.65307,9.45174 18.43799,23.34104 32.77296,33.02111 27.61928,18.65068 115.2646,69.24267 173.59325,100.2042 6.56848,3.48663 11.49689,6.48792 10.95203,6.66954 -0.54487,0.18162 -13.56908,-3.53356 -28.94269,-8.25595 -69.5225,-21.35561 -156.03221,-44.2882 -184.46469,-48.89918 -10.80314,-1.75197 -22.8015,-1.97492 -31.30811,-0.58175 -18.808028,3.0803 -32.566118,18.42312 -38.590098,43.03512 -4.31643,17.63547 -5.27224,28.15888 -5.80684,63.93305 -0.86805,58.0865 3.17896,87.155 15.68294,112.64625 5.71084,11.64241 14.523278,21.94779 23.249848,27.1887 6.93106,4.16257 18.12532,6.62279 26.28492,5.77677 12.4575,-1.29165 118.42089,-30.82632 179.41835,-50.00843 6.28009,-1.97493 11.85996,-3.44357 12.39971,-3.26365 0.53975,0.17991 -9.54851,6.12645 -22.41835,13.21453 -47.11999,25.95137 -101.11192,57.67713 -126.39971,74.27271 -16.35727,10.73476 -30.52375,24.4642 -35.33001,34.24007 -12.92615,26.29161 1.26539,54.83455 53.44896,107.5 35.69611,36.02574 64.07219,56.26312 89.88105,64.10179 9.0663,2.75362 27.1445,2.54935 34.5,-0.38981 7.19684,-2.87577 14.3658,-8.40516 19.97459,-15.40632 7.17257,-8.95316 55.07133,-94.01159 86.49937,-153.60525 6.4681,-12.26478 11.96756,-22.09222 12.22102,-21.83876 0.25346,0.25346 -3.38352,13.66328 -8.08217,29.79959 -23.88893,82.04031 -39.38997,144.69774 -41.15113,166.33876 -0.90471,11.11708 0.91844,23.55857 4.55378,31.07571 5.92235,12.24621 19.34741,21.72022 37.35345,26.36018 25.21988,6.4989 79.89493,8.53203 120.82241,4.49286 z M 471,920.65583 c -30.36261,-3.03585 -48.15058,-8.73069 -53.76567,-17.21314 -2.53315,-3.82672 -2.75965,-5.019 -3.07851,-16.20489 -0.30612,-10.73905 0.0535,-14.02323 3.25181,-29.69895 8.56992,-42.00292 28.06289,-114.69017 48.00808,-179.01712 13.17948,-42.50625 46.18278,-139.79 48.06045,-141.66767 0.28811,-0.28811 0.72722,-0.32046 0.97581,-0.0719 0.88204,0.88205 17.45276,43.74035 26.0523,67.38137 11.13323,30.60638 33.8734,98.81966 45.00478,135 17.79456,57.83773 38.34132,130.65008 39.191,138.88268 2.25195,21.81935 -17.28253,34.80938 -61.95678,41.2 -12.95954,1.85385 -77.39805,2.84393 -91.74327,1.4096 z M 294.71627,854.16914 c -22.18824,-6.102 -56.08965,-31.929 -91.57379,-69.76336 -21.05824,-22.45298 -32.02524,-36.88458 -38.49511,-50.65617 -5.8945,-12.54686 -3.86181,-20.73962 8.1705,-32.93115 13.41619,-13.59372 87.06993,-57.73502 173.68213,-104.08914 40.96605,-21.92468 141.53132,-71.57545 143.54295,-70.86958 0.9205,0.323 -9.13389,24.00509 -23.47962,55.30381 -12.31255,26.86286 -49.8662,102.11337 -66.62296,133.5 -32.10704,60.13883 -69.71553,126.63472 -74.8315,132.31025 -7.15123,7.9334 -18.1986,10.54882 -30.3926,7.19534 z m 416.31361,0.38182 c -7.91017,-3.15693 -11.15657,-7.63221 -30.74804,-42.38741 -53.01967,-94.0567 -101.60275,-189.59958 -133.92081,-263.36697 -8.70486,-19.86922 -9.97254,-23.13303 -8.985,-23.13303 1.28971,0 69.21108,33.18767 101.05659,49.37817 55.94828,28.44455 100.97036,53.26909 151.30312,83.42642 50.01305,29.96578 68.15405,43.34646 73.942,54.53912 3.85329,7.45144 -0.4278,21.4846 -11.60942,38.05505 -16.37281,24.26344 -56.87882,64.97561 -83.88901,84.31596 -10.93835,7.83228 -27.81611,16.64468 -35.82365,18.70464 -6.81438,1.75301 -17.51751,1.98792 -21.32578,0.46805 z M 863.5,607.22184 C 767.17687,580.67399 668.459,549.23571 597,522.35066 c -39.69209,-14.93337 -49.23342,-18.85369 -48.25872,-19.82839 1.73729,-1.73729 64.71666,-23.64386 110.72678,-38.5149 C 729.23267,441.45859 817.48192,417.02369 867,406.54489 c 12.9858,-2.74801 17.68978,-3.28826 29.00002,-3.33069 11.5651,-0.0434 14.0733,0.23599 17.5,1.94935 13.6704,6.8352 19.885,36.23487 19.87,94 -0.011,40.90485 -3.003,65.32661 -10.565,86.22514 -6.9907,19.31991 -16.9843,28.3657 -31.18075,28.22355 -3.06569,-0.0307 -14.3641,-2.59792 -28.12427,-6.3904 z m -741.00728,3.0904 c -13.23886,-6.16502 -21.99855,-26.07115 -27.128518,-61.64869 -2.11119,-14.64158 -2.97286,-66.40302 -1.42476,-85.5866 2.55431,-31.65206 8.008788,-50.50792 16.555228,-57.23055 6.66084,-5.23941 22.29609,-5.29802 47.50533,-0.17809 63.89822,12.97759 179.06923,46.28666 275.00689,79.53587 20.07121,6.9561 38.51811,13.33995 40.99311,14.18633 2.475,0.84638 4.8714,1.87295 5.32532,2.28128 0.91018,0.81873 -6.32888,3.97356 -30.06541,13.1027 -77.53663,29.82082 -187.22875,64.96634 -288.37559,92.39598 -23.61029,6.40279 -30.2262,6.9442 -38.3916,3.14177 z M 538,477.597 c 0,-2.94043 43.65141,-91.06138 66.59268,-134.43345 34.77107,-65.73715 80.34369,-144.13332 99.11366,-170.5 11.7523,-16.50877 21.87555,-23.7358 31.81144,-22.71032 13.61264,1.40495 37.15932,17.96828 67.78756,47.68349 31.13241,30.20435 52.41264,57.81433 61.29487,79.52683 2.41429,5.90172 2.86582,8.41207 2.87788,16 0.0252,15.82448 -2.39025,18.24923 -38.60723,38.75684 C 726.73219,389.75568 620.61706,443.70246 551,473.18432 c -3.575,1.51396 -7.9625,3.37218 -9.75,4.12937 -2.17898,0.92301 -3.25,1.01638 -3.25,0.28331 z M 449,458.78932 C 353.69142,412.34575 247.93924,354.12391 193.5,318.12386 169.45239,302.22145 160.97011,292.7743 161.02374,281.95339 c 0.0738,-14.88785 19.44112,-42.05319 55.25988,-77.50948 37.35165,-36.97368 68.12319,-56.79319 88.14788,-56.77478 15.17904,0.0139 18.56518,3.23518 36.26037,34.49442 59.0402,104.29683 108.86199,201.90923 140.73314,275.72878 7.4263,17.2007 8.33609,19.82871 6.82499,19.71457 -0.4125,-0.0312 -18.075,-8.49907 -39.25,-18.81758 z m 58.01321,-8.37577 c -9.26088,-25.69059 -36.90252,-108.95742 -44.8982,-135.25 C 443.06694,252.52687 424.45891,182.22475 417.03874,144.86298 414.78579,133.51898 414,126.76959 414,118.76221 c 0,-12.34771 1.00472,-16.25805 5.3664,-20.885931 9.99624,-10.60633 41.31169,-16.20418 90.68371,-16.21031 55.08592,-0.007 92.59115,8.26245 107.62302,23.729111 8.97907,9.23878 8.64411,15.69088 -2.99903,57.76847 -30.90133,111.67554 -62.09778,207.8148 -93.21043,287.25 -3.716,9.4875 -7.08843,17.25 -7.49429,17.25 -0.40586,0 -3.53613,-7.7625 -6.95617,-17.25 z"
       id="path2984"
       inkscape:connector-curvature="0" />
  </g>
</svg>
