<?xml version="1.0" encoding="UTF-8" standalone="no"?>
<!-- Created with Inkscape (http://www.inkscape.org/) -->

<svg
   xmlns:dc="http://purl.org/dc/elements/1.1/"
   xmlns:cc="http://creativecommons.org/ns#"
   xmlns:rdf="http://www.w3.org/1999/02/22-rdf-syntax-ns#"
   xmlns:svg="http://www.w3.org/2000/svg"
   xmlns="http://www.w3.org/2000/svg"
   xmlns:sodipodi="http://sodipodi.sourceforge.net/DTD/sodipodi-0.dtd"
   xmlns:inkscape="http://www.inkscape.org/namespaces/inkscape"
   id="svg2"
   version="1.1"
   inkscape:version="0.48.5 r10040"
   width="512"
   height="512"
   sodipodi:docname="gwenview.svg">
  <sodipodi:namedview
     pagecolor="#ffffff"
     bordercolor="#666666"
     borderopacity="1"
     objecttolerance="10"
     gridtolerance="10"
     guidetolerance="10"
     inkscape:pageopacity="0"
     inkscape:pageshadow="2"
     inkscape:window-width="1920"
     inkscape:window-height="1007"
     id="namedview4"
     showgrid="false"
     inkscape:zoom="1"
     inkscape:cx="200.34228"
     inkscape:cy="221.93909"
     inkscape:window-x="0"
     inkscape:window-y="31"
     inkscape:window-maximized="1"
     inkscape:current-layer="g4418" />
  <metadata
     id="metadata8">
    <rdf:RDF>
      <cc:Work
         rdf:about="">
        <dc:format>image/svg+xml</dc:format>
        <dc:type
           rdf:resource="http://purl.org/dc/dcmitype/StillImage" />
        <dc:title />
      </cc:Work>
    </rdf:RDF>
  </metadata>
  <defs
     id="defs6">
    <clipPath
       id="clipPath3919"
       clipPathUnits="userSpaceOnUse">
      <g
         clip-path="none"
         transform="translate(-892.82097,-182.60403)"
         id="g3921">
        <path
           sodipodi:type="arc"
           style="fill:none;stroke:#6d6555;stroke-width:45.84608078;stroke-miterlimit:4;stroke-opacity:1;stroke-dasharray:none"
           id="path3923"
           sodipodi:cx="322.71185"
           sodipodi:cy="171.93221"
           sodipodi:rx="138.30508"
           sodipodi:ry="138.30508"
           d="m 461.01694,171.93221 c 0,76.38378 -61.9213,138.30508 -138.30509,138.30508 -76.38379,0 -138.30508,-61.9213 -138.30508,-138.30508 0,-76.383794 61.92129,-138.305089 138.30508,-138.305089 76.38379,0 138.30509,61.921295 138.30509,138.305089 z"
           transform="matrix(0.89019607,0,0,0.89019607,32.689264,13.794084)" />
        <rect
           style="fill:#6d6555;fill-opacity:1;fill-rule:evenodd;stroke:none"
           id="rect3925"
           width="45.559322"
           height="208.27118"
           x="154.5797"
           y="411.63419"
           ry="20.9"
           transform="matrix(0.85401398,-0.52025005,0.52025005,0.85401398,0,0)" />
      </g>
    </clipPath>
  </defs>
  <g
     id="g3860"
     transform="matrix(1.0298641,-0.18180538,0.19472696,0.96152493,325.92166,-12.068832)"
     style="fill:none;stroke:#000000;stroke-opacity:1;stroke-width:7.89936171;stroke-miterlimit:4;stroke-dasharray:none" />
  <rect
     y="88.272339"
     x="22.137455"
     height="406.21884"
     width="285.26672"
     id="rect2982-0"
     style="fill:none;stroke:#000000;stroke-width:38.60557208000000173;stroke-miterlimit:4;stroke-opacity:1;stroke-dasharray:none;fill-opacity:1"
     transform="matrix(0.98468682,-0.17433266,0.19793962,0.98021421,0,0)" />
  <path
     transform="matrix(0.97854599,-0.00557893,0.00557893,0.97854599,684.9053,96.482383)"
     d="m -489.3658,175.27336 a 34.516399,34.516399 0 1 1 -69.0328,0 34.516399,34.516399 0 1 1 69.0328,0 z"
     sodipodi:ry="34.516399"
     sodipodi:rx="34.516399"
     sodipodi:cy="175.27336"
     sodipodi:cx="-523.8822"
     id="path3927"
     style="fill:#000000;fill-opacity:1;fill-rule:nonzero;stroke:none;stroke-width:12.56946564000000066;stroke-miterlimit:4;stroke-opacity:1;stroke-dasharray:none"
     sodipodi:type="arc" />
  <path
     d="m -489.3658,175.27336 a 34.516399,34.516399 0 1 1 -69.0328,0 34.516399,34.516399 0 1 1 69.0328,0 z"
     sodipodi:ry="34.516399"
     sodipodi:rx="34.516399"
     sodipodi:cy="175.27336"
     sodipodi:cx="-523.8822"
     id="path3927-1"
     style="fill:#000000;fill-opacity:1;fill-rule:nonzero;stroke:none;stroke-width:16.34353828000000064;stroke-miterlimit:4;stroke-opacity:1;stroke-dasharray:none"
     sodipodi:type="arc"
     transform="matrix(0.7394883,-0.13982264,0.13982264,0.7394883,659.83867,39.772832)" />
  <g
     id="g4335"
     transform="matrix(0.93055674,-0.30273348,0.30273348,0.93055674,267.39588,-22.802541)">
    <g
       id="g4067"
       transform="matrix(0.93297575,0.35993923,-0.35993923,0.93297575,-30.991093,476.84053)"
       style="fill:#591312;fill-opacity:1">
      <path
         id="path4065"
         d="m -199.15179,-20.368646 c -6.11434,-1.72399 -14.5,-5.26696 -14.5,-6.1263 0,-0.34695 4.275,-5.73154 9.5,-11.96577 5.225,-6.23423 9.5,-11.81636 9.5,-12.40473 0,-0.58837 0.85528,-1.06977 1.90063,-1.06977 3.41176,0 25.52264,4.02211 26.22642,4.77075 1.20621,1.28309 2.81318,25.64069 1.7626,26.71648 -1.60136,1.63977 -28.6342,1.70213 -34.38965,0.0793 z"
         style="fill:#000000;fill-opacity:1"
         inkscape:connector-curvature="0" />
      <path
         sodipodi:nodetypes="sssssss"
         id="path4063"
         d="m -164.75493,-20.455106 c 0,-0.58976 9.12203,-8.633837 13.19278,-13.302667 4.07075,-4.66883 8.69998,-7.629405 8.92525,-8.305235 0.63233,-1.89697 20.48511,2.101882 20.48511,4.127792 0,1.90316 -16.60483,10.30427 -25.87756,13.09258 -3.78266,1.13745 -7.49516,2.30508 -8.25,2.59474 -0.75484,0.28966 -8.47558,2.38253 -8.47558,1.79279 z"
         style="fill:#000000;fill-opacity:1"
         inkscape:connector-curvature="0" />
      <path
         sodipodi:nodetypes="sssscscs"
         id="path4061"
         d="m -226.42648,-36.497416 c -6.8679,-7.09216 -14.22531,-18.36887 -14.22531,-21.80314 0,-1.74634 0.53809,-1.85514 6.25,-1.26372 3.4375,0.35592 8.44265,1.20556 11.12255,1.88809 l 4.87256,1.24097 3.25177,13.754891 c 1.64131,6.942713 1.8054,16.041882 1.54608,16.301192 -0.45322,-0.134797 -9.11873,-6.298583 -12.81765,-10.118283 z"
         style="fill:#000000;fill-opacity:1"
         inkscape:connector-curvature="0" />
    </g>
    <path
       sodipodi:nodetypes="cccc"
       inkscape:connector-curvature="0"
       d="m -214.60633,345.47709 -6.1933,29.81525 28.22038,-16.43316 z"
       style="fill:#000000;fill-opacity:1;stroke:none"
       inkscape:label="Triangle"
       id="path4103" />
    <path
       sodipodi:nodetypes="cccc"
       inkscape:connector-curvature="0"
       d="m -170.18972,371.77048 -7.09203,27.0505 28.9469,-12.73045 z"
       style="fill:#000000;fill-opacity:1;stroke:none"
       inkscape:label="Triangle"
       id="path4103-6" />
  </g>
  <g
     id="g4410"
     transform="matrix(0.97569443,0.07485841,-0.07485841,0.97569443,16.08161,-10.83739)"
     style="stroke:#000000;stroke-opacity:1">
    <g
       id="g4418"
       transform="translate(159.53114,-12.239743)"
       style="stroke:#000000;stroke-opacity:1">
      <path
         transform="matrix(0.8499122,0.26476085,-0.26476085,0.8499122,-39.610933,-61.230576)"
         d="m 461.01694,171.93221 c 0,76.38378 -61.9213,138.30508 -138.30509,138.30508 -76.38379,0 -138.30508,-61.9213 -138.30508,-138.30508 0,-76.383794 61.92129,-138.305089 138.30508,-138.305089 76.38379,0 138.30509,61.921295 138.30509,138.305089 z"
         sodipodi:ry="138.30508"
         sodipodi:rx="138.30508"
         sodipodi:cy="171.93221"
         sodipodi:cx="322.71185"
         id="path3806-4"
         style="fill:none;fill-opacity:0.72727271999999998;stroke:#000000;stroke-width:46.85046387000000578;stroke-miterlimit:4;stroke-opacity:1;stroke-dasharray:none"
         sodipodi:type="arc" />
      <rect
         transform="matrix(0.84454686,-0.53548165,0.53548165,0.84454686,0,0)"
         ry="20.9"
         y="347.82391"
         x="36.655346"
         height="208.27118"
         width="45.559322"
         id="rect3808-0"
         style="fill:#000000;fill-opacity:1;fill-rule:evenodd;stroke:#000000;stroke-opacity:1" />
    </g>
  </g>
</svg>
