<?xml version="1.0" encoding="UTF-8" standalone="no"?>
<!-- Created with Inkscape (http://www.inkscape.org/) -->

<svg
   xmlns:dc="http://purl.org/dc/elements/1.1/"
   xmlns:cc="http://creativecommons.org/ns#"
   xmlns:rdf="http://www.w3.org/1999/02/22-rdf-syntax-ns#"
   xmlns:svg="http://www.w3.org/2000/svg"
   xmlns="http://www.w3.org/2000/svg"
   xmlns:sodipodi="http://sodipodi.sourceforge.net/DTD/sodipodi-0.dtd"
   xmlns:inkscape="http://www.inkscape.org/namespaces/inkscape"
   width="800"
   height="800"
   id="svg2902"
   version="1.1"
   inkscape:version="0.48.5 r10040"
   sodipodi:docname="hedgewars.svg">
  <title
     id="title3631">Hedgehog</title>
  <defs
     id="defs2904">
    <inkscape:perspective
       sodipodi:type="inkscape:persp3d"
       inkscape:vp_x="0 : 526.18109 : 1"
       inkscape:vp_y="0 : 1000 : 0"
       inkscape:vp_z="744.09448 : 526.18109 : 1"
       inkscape:persp3d-origin="372.04724 : 350.78739 : 1"
       id="perspective2910" />
    <inkscape:perspective
       id="perspective2941"
       inkscape:persp3d-origin="0.5 : 0.33333333 : 1"
       inkscape:vp_z="1 : 0.5 : 1"
       inkscape:vp_y="0 : 1000 : 0"
       inkscape:vp_x="0 : 0.5 : 1"
       sodipodi:type="inkscape:persp3d" />
    <inkscape:perspective
       id="perspective3619"
       inkscape:persp3d-origin="0.5 : 0.33333333 : 1"
       inkscape:vp_z="1 : 0.5 : 1"
       inkscape:vp_y="0 : 1000 : 0"
       inkscape:vp_x="0 : 0.5 : 1"
       sodipodi:type="inkscape:persp3d" />
    <inkscape:perspective
       id="perspective3619-5"
       inkscape:persp3d-origin="0.5 : 0.33333333 : 1"
       inkscape:vp_z="1 : 0.5 : 1"
       inkscape:vp_y="0 : 1000 : 0"
       inkscape:vp_x="0 : 0.5 : 1"
       sodipodi:type="inkscape:persp3d" />
    <inkscape:perspective
       id="perspective3619-1"
       inkscape:persp3d-origin="0.5 : 0.33333333 : 1"
       inkscape:vp_z="1 : 0.5 : 1"
       inkscape:vp_y="0 : 1000 : 0"
       inkscape:vp_x="0 : 0.5 : 1"
       sodipodi:type="inkscape:persp3d" />
    <inkscape:perspective
       id="perspective3800"
       inkscape:persp3d-origin="0.5 : 0.33333333 : 1"
       inkscape:vp_z="1 : 0.5 : 1"
       inkscape:vp_y="0 : 1000 : 0"
       inkscape:vp_x="0 : 0.5 : 1"
       sodipodi:type="inkscape:persp3d" />
    <inkscape:perspective
       id="perspective3874"
       inkscape:persp3d-origin="0.5 : 0.33333333 : 1"
       inkscape:vp_z="1 : 0.5 : 1"
       inkscape:vp_y="0 : 1000 : 0"
       inkscape:vp_x="0 : 0.5 : 1"
       sodipodi:type="inkscape:persp3d" />
  </defs>
  <sodipodi:namedview
     id="base"
     pagecolor="#9f086e"
     bordercolor="#666666"
     borderopacity="1.0"
     inkscape:pageopacity="0"
     inkscape:pageshadow="2"
     inkscape:zoom="0.9899495"
     inkscape:cx="219.59731"
     inkscape:cy="420.10016"
     inkscape:document-units="px"
     inkscape:current-layer="layer3"
     showgrid="false"
     inkscape:window-width="1920"
     inkscape:window-height="1007"
     inkscape:window-x="0"
     inkscape:window-y="31"
     inkscape:window-maximized="1" />
  <metadata
     id="metadata2907">
    <rdf:RDF>
      <cc:Work
         rdf:about="">
        <dc:format>image/svg+xml</dc:format>
        <dc:type
           rdf:resource="http://purl.org/dc/dcmitype/StillImage" />
        <dc:title>Hedgehog</dc:title>
        <cc:license
           rdf:resource="http://www.gnu.org/licenses/gpl-2.0.html" />
      </cc:Work>
    </rdf:RDF>
  </metadata>
  <g
     inkscape:groupmode="layer"
     id="layer3"
     inkscape:label="Hedgehog"
     style="display:inline">
    <g
       id="g3843"
       style="fill:#000000;fill-opacity:1;stroke:#000000;stroke-opacity:1">
      <path
         sodipodi:nodetypes="cccc"
         id="path3790"
         d="M 539.75014,184.97991 289.94272,20.934533 c -10.12171,-6.646795 -18.53237,-1.405552 -18.77514,8.934515 l -6.50762,277.176512"
         style="color:#000000;fill:#000000;stroke:#000000;stroke-width:22;stroke-linecap:round;stroke-linejoin:round;stroke-miterlimit:4;stroke-opacity:1;stroke-dasharray:none;stroke-dashoffset:0;marker:none;visibility:visible;display:inline;overflow:visible;enable-background:accumulate;fill-opacity:1" />
    </g>
    <g
       id="g3839"
       style="fill:#000000;fill-opacity:1;stroke:none">
      <path
         style="color:#000000;fill:#000000;stroke:none;stroke-width:22;stroke-linecap:round;stroke-linejoin:round;stroke-miterlimit:4;stroke-opacity:1;stroke-dasharray:none;stroke-dashoffset:0;marker:none;visibility:visible;display:inline;overflow:visible;enable-background:accumulate;fill-opacity:1"
         d="M 394.49409,176.74515 96.356601,156.04088 C 84.276653,155.202 79.509956,163.89039 84.36166,173.02478 l 130.05508,244.85679"
         id="path3813"
         sodipodi:nodetypes="cccc" />
    </g>
    <g
       id="g3835"
       style="fill:#000000;fill-opacity:1;stroke:none">
      <path
         sodipodi:nodetypes="cccc"
         id="path3815"
         d="M 305.99695,247.38296 28.159159,357.4774 c -11.257429,4.46082 -11.804016,14.3558 -3.482965,20.49879 L 247.73076,542.64501"
         style="color:#000000;fill:#000000;stroke:none;stroke-width:22;stroke-linecap:round;stroke-linejoin:round;stroke-miterlimit:4;stroke-opacity:1;stroke-dasharray:none;stroke-dashoffset:0;marker:none;visibility:visible;display:inline;overflow:visible;enable-background:accumulate;fill-opacity:1" />
    </g>
    <g
       id="g3831"
       style="fill:#000000;fill-opacity:1;stroke:none">
      <path
         style="color:#000000;fill:#000000;stroke:none;stroke-width:22;stroke-linecap:round;stroke-linejoin:round;stroke-miterlimit:4;stroke-opacity:1;stroke-dasharray:none;stroke-dashoffset:0;marker:none;visibility:visible;display:inline;overflow:visible;enable-background:accumulate;fill-opacity:1"
         d="M 228.84636,338.65556 53.568239,580.71384 c -7.101908,9.80772 -2.250103,18.44887 8.068116,19.16343 l 276.590465,19.15401"
         id="path3817"
         sodipodi:nodetypes="cccc" />
    </g>
    <g
       id="g3775"
       transform="matrix(0.30501813,0,0,0.28422559,412.4589,556.56285)"
       style="display:inline;fill:#000000;fill-opacity:1;stroke:none">
      <path
         transform="matrix(1.1172821,0,0,1.1172821,-112.39265,21.533965)"
         d="m 738.42152,441.39584 c 0,131.10459 -106.28126,237.38585 -237.38584,237.38585 -131.10459,0 -237.38585,-106.28126 -237.38585,-237.38585 0,-131.10458 106.28126,-237.38585 237.38585,-237.38585 131.10458,0 237.38584,106.28127 237.38584,237.38585 z"
         sodipodi:ry="237.38585"
         sodipodi:rx="237.38585"
         sodipodi:cy="441.39584"
         sodipodi:cx="501.03568"
         id="path3777"
         style="color:#000000;fill:#000000;fill-opacity:1;stroke:none;stroke-width:19.69064140000000052;marker:none;visibility:visible;display:inline;overflow:visible;enable-background:accumulate"
         sodipodi:type="arc" />
      <path
         sodipodi:type="arc"
         style="color:#000000;fill:#000000;stroke:none;stroke-width:66.87525940000000446;stroke-linecap:round;stroke-linejoin:round;stroke-miterlimit:4;stroke-opacity:1;stroke-dasharray:none;stroke-dashoffset:0;marker:none;visibility:visible;display:inline;overflow:visible;enable-background:accumulate;fill-opacity:1"
         id="path3781"
         sodipodi:cx="501.03568"
         sodipodi:cy="441.39584"
         sodipodi:rx="237.38585"
         sodipodi:ry="237.38585"
         d="m 738.42152,441.39584 c 0,131.10459 -106.28126,237.38585 -237.38584,237.38585 -131.10459,0 -237.38585,-106.28126 -237.38585,-237.38585 0,-131.10458 106.28126,-237.38585 237.38585,-237.38585 131.10458,0 237.38584,106.28127 237.38584,237.38585 z"
         transform="matrix(1.1172821,0,0,1.1172821,-112.39265,21.533965)" />
    </g>
    <g
       style="display:inline;fill:#000000;fill-opacity:1;stroke:none"
       transform="matrix(0.30501813,0,0,0.30913162,272.816,537.3152)"
       id="g3754">
      <path
         sodipodi:type="arc"
         style="color:#000000;fill:#000000;fill-opacity:1;stroke:none;stroke-width:19.69064140000000052;marker:none;visibility:visible;display:inline;overflow:visible;enable-background:accumulate"
         id="path3756"
         sodipodi:cx="501.03568"
         sodipodi:cy="441.39584"
         sodipodi:rx="237.38585"
         sodipodi:ry="237.38585"
         d="m 738.42152,441.39584 c 0,131.10459 -106.28126,237.38585 -237.38584,237.38585 -131.10459,0 -237.38585,-106.28126 -237.38585,-237.38585 0,-131.10458 106.28126,-237.38585 237.38585,-237.38585 131.10458,0 237.38584,106.28127 237.38584,237.38585 z"
         transform="matrix(1.1172821,0,0,1.1172821,-112.39265,21.533965)" />
      <path
         transform="matrix(1.1172821,0,0,1.1172821,-112.39265,21.533965)"
         d="m 738.42152,441.39584 c 0,131.10459 -106.28126,237.38585 -237.38584,237.38585 -131.10459,0 -237.38585,-106.28126 -237.38585,-237.38585 0,-131.10458 106.28126,-237.38585 237.38585,-237.38585 131.10458,0 237.38584,106.28127 237.38584,237.38585 z"
         sodipodi:ry="237.38585"
         sodipodi:rx="237.38585"
         sodipodi:cy="441.39584"
         sodipodi:cx="501.03568"
         id="path3760"
         style="color:#000000;fill:#000000;stroke:none;stroke-width:64.12469482000000198;stroke-linecap:round;stroke-linejoin:round;stroke-miterlimit:4;stroke-opacity:1;stroke-dasharray:none;stroke-dashoffset:0;marker:none;visibility:visible;display:inline;overflow:visible;enable-background:accumulate;fill-opacity:1"
         sodipodi:type="arc" />
    </g>
    <g
       transform="translate(5.64789,-85.928699)"
       id="g3598"
       style="fill:none;stroke:#000000;stroke-opacity:1">
      <path
         sodipodi:type="arc"
         style="color:#000000;fill:none;fill-opacity:1;stroke:#000000;stroke-width:19.69064140000000052;marker:none;visibility:visible;display:inline;overflow:visible;enable-background:accumulate;stroke-opacity:1"
         id="path3596"
         sodipodi:cx="501.03568"
         sodipodi:cy="441.39584"
         sodipodi:rx="237.38585"
         sodipodi:ry="237.38585"
         d="m 738.42152,441.39584 c 0,131.10459 -106.28126,237.38585 -237.38584,237.38585 -131.10459,0 -237.38585,-106.28126 -237.38585,-237.38585 0,-131.10458 106.28126,-237.38585 237.38585,-237.38585 131.10458,0 237.38584,106.28127 237.38584,237.38585 z"
         transform="matrix(1.1172821,0,0,1.1172821,-112.39265,21.533965)" />
      <path
         transform="matrix(1.1172821,0,0,1.1172821,-112.39265,21.533965)"
         d="m 738.42152,441.39584 c 0,131.10459 -106.28126,237.38585 -237.38584,237.38585 -131.10459,0 -237.38585,-106.28126 -237.38585,-237.38585 0,-131.10458 106.28126,-237.38585 237.38585,-237.38585 131.10458,0 237.38584,106.28127 237.38584,237.38585 z"
         sodipodi:ry="237.38585"
         sodipodi:rx="237.38585"
         sodipodi:cy="441.39584"
         sodipodi:cx="501.03568"
         id="path2822"
         style="color:#000000;fill:none;stroke:#000000;stroke-width:19.69064140000000052;stroke-linecap:round;stroke-linejoin:round;stroke-miterlimit:4;stroke-opacity:1;stroke-dasharray:none;stroke-dashoffset:0;marker:none;visibility:visible;display:inline;overflow:visible;enable-background:accumulate"
         sodipodi:type="arc" />
      <path
         sodipodi:type="arc"
         style="color:#000000;fill:none;stroke:#000000;stroke-width:22;stroke-opacity:1;marker:none;visibility:visible;display:inline;overflow:visible;enable-background:accumulate"
         id="path3712"
         sodipodi:cx="533.92859"
         sodipodi:cy="356.07144"
         sodipodi:rx="63.676994"
         sodipodi:ry="82.367821"
         d="m 597.60558,356.07144 a 63.676994,82.367821 0 1 1 -127.35399,0 63.676994,82.367821 0 1 1 127.35399,0 z"
         transform="matrix(1.2137522,-0.32948394,0.32948394,1.2137522,-278.40431,213.93177)" />
      <path
         transform="matrix(1.0305506,-0.24075443,0.24075443,1.0305506,-13.067694,205.73896)"
         d="m 589.43368,356.07144 c 0,45.49049 -24.85047,82.36782 -55.50509,82.36782 -30.65462,0 -55.50509,-36.87733 -55.50509,-82.36782 0,-45.49049 24.85047,-82.36782 55.50509,-82.36782 30.65462,0 55.50509,36.87733 55.50509,82.36782 z"
         sodipodi:ry="82.367821"
         sodipodi:rx="55.505093"
         sodipodi:cy="356.07144"
         sodipodi:cx="533.92859"
         id="path3714"
         style="color:#000000;fill:none;fill-opacity:1;fill-rule:nonzero;stroke:#000000;stroke-width:22;marker:none;visibility:visible;display:inline;overflow:visible;enable-background:accumulate;stroke-opacity:1"
         sodipodi:type="arc" />
      <path
         transform="matrix(0.46703901,-0.01512391,0.01512391,0.46703901,256.31323,309.72481)"
         d="m 597.60558,356.07144 a 63.676994,82.367821 0 1 1 -127.35399,0 63.676994,82.367821 0 1 1 127.35399,0 z"
         sodipodi:ry="82.367821"
         sodipodi:rx="63.676994"
         sodipodi:cy="356.07144"
         sodipodi:cx="533.92859"
         id="path3716"
         style="color:#000000;fill:#000000;fill-opacity:1;fill-rule:nonzero;stroke:#000000;stroke-width:22;marker:none;visibility:visible;display:inline;overflow:visible;enable-background:accumulate;stroke-opacity:1"
         sodipodi:type="arc" />
      <path
         sodipodi:type="arc"
         style="color:#000000;fill:#000000;fill-opacity:1;fill-rule:nonzero;stroke:#000000;stroke-width:22;marker:none;visibility:visible;display:inline;overflow:visible;enable-background:accumulate;stroke-opacity:1"
         id="path3718"
         sodipodi:cx="533.92859"
         sodipodi:cy="356.07144"
         sodipodi:rx="63.676994"
         sodipodi:ry="82.367821"
         d="m 597.60558,356.07144 c 0,45.49049 -28.50916,82.36782 -63.67699,82.36782 -35.16783,0 -63.677,-36.87733 -63.677,-82.36782 0,-45.49049 28.50917,-82.36782 63.677,-82.36782 35.16783,0 63.67699,36.87733 63.67699,82.36782 z"
         transform="matrix(0.43341707,-0.01403515,0.01403515,0.43341707,401.4873,306.23785)" />
    </g>
    <g
       id="g3720"
       transform="matrix(0.33724075,0,0,0.29575944,129.84878,456.31455)"
       style="fill:#000000;fill-opacity:1;stroke:none">
      <path
         transform="matrix(1.1172821,0,0,1.1172821,-112.39265,21.533965)"
         d="m 738.42152,441.39584 c 0,131.10459 -106.28126,237.38585 -237.38584,237.38585 -131.10459,0 -237.38585,-106.28126 -237.38585,-237.38585 0,-131.10458 106.28126,-237.38585 237.38585,-237.38585 131.10458,0 237.38584,106.28127 237.38584,237.38585 z"
         sodipodi:ry="237.38585"
         sodipodi:rx="237.38585"
         sodipodi:cy="441.39584"
         sodipodi:cx="501.03568"
         id="path3722"
         style="color:#000000;fill:#000000;fill-opacity:1;stroke:none;stroke-width:19.69064140000000052;marker:none;visibility:visible;display:inline;overflow:visible;enable-background:accumulate"
         sodipodi:type="arc" />
      <path
         sodipodi:type="arc"
         style="color:#000000;fill:#000000;stroke:none;stroke-width:62.34770965999999959;stroke-linecap:round;stroke-linejoin:round;stroke-miterlimit:4;stroke-opacity:1;stroke-dasharray:none;stroke-dashoffset:0;marker:none;visibility:visible;display:inline;overflow:visible;enable-background:accumulate;fill-opacity:1"
         id="path3726"
         sodipodi:cx="501.03568"
         sodipodi:cy="441.39584"
         sodipodi:rx="237.38585"
         sodipodi:ry="237.38585"
         d="m 738.42152,441.39584 c 0,131.10459 -106.28126,237.38585 -237.38584,237.38585 -131.10459,0 -237.38585,-106.28126 -237.38585,-237.38585 0,-131.10458 106.28126,-237.38585 237.38585,-237.38585 131.10458,0 237.38584,106.28127 237.38584,237.38585 z"
         transform="matrix(1.1172821,0,0,1.1172821,-112.39265,21.533965)" />
    </g>
    <path
       style="fill:#000000;fill-opacity:1;stroke:none;display:inline"
       d="m 561.23109,498.93811 c -8.0798,4.38775 -2.8235,17.08495 9.0914,18.56155 31.062,3.84947 81.3892,-18.32936 94.3319,-49.03093 3.2596,-7.73202 -2.8605,-10.93033 -5.4385,-7.79015 -5.4066,6.58563 -15.6937,16.18387 -30.9805,25.24132 -24.5934,14.57155 -58.397,8.344 -67.0043,13.01821 z"
       id="path3864"
       sodipodi:nodetypes="csssss" />
  </g>
</svg>
