<?xml version="1.0" encoding="UTF-8" standalone="no"?>
<!-- Generator: Adobe Illustrator 9.0, SVG Export Plug-In  -->

<svg
   xmlns:dc="http://purl.org/dc/elements/1.1/"
   xmlns:cc="http://creativecommons.org/ns#"
   xmlns:rdf="http://www.w3.org/1999/02/22-rdf-syntax-ns#"
   xmlns:svg="http://www.w3.org/2000/svg"
   xmlns="http://www.w3.org/2000/svg"
   xmlns:sodipodi="http://sodipodi.sourceforge.net/DTD/sodipodi-0.dtd"
   xmlns:inkscape="http://www.inkscape.org/namespaces/inkscape"
   width="48"
   height="48"
   viewBox="0 0 48 48"
   xml:space="preserve"
   id="svg2"
   sodipodi:version="0.32"
   inkscape:version="0.48.5 r10040"
   sodipodi:docname="browser-help.svg"
   inkscape:output_extension="org.inkscape.output.svg.inkscape"
   version="1.0"><metadata
     id="metadata35"><rdf:RDF><cc:Work
         rdf:about=""><dc:format>image/svg+xml</dc:format><dc:type
           rdf:resource="http://purl.org/dc/dcmitype/StillImage" /></cc:Work></rdf:RDF></metadata><defs
     id="defs33" /><sodipodi:namedview
     inkscape:window-height="1007"
     inkscape:window-width="1920"
     inkscape:pageshadow="2"
     inkscape:pageopacity="0.0"
     guidetolerance="10.0"
     gridtolerance="10.0"
     objecttolerance="10.0"
     borderopacity="1.0"
     bordercolor="#666666"
     pagecolor="#ffffff"
     id="base"
     width="48px"
     height="48px"
     inkscape:zoom="6.7833333"
     inkscape:cx="-38.552212"
     inkscape:cy="24.103194"
     inkscape:window-x="0"
     inkscape:window-y="31"
     inkscape:current-layer="g2993"
     showgrid="false"
     inkscape:window-maximized="1" /><g
     id="Layer_x0020_4"
     style="fill-rule:nonzero;stroke:#000000;stroke-width:0.81389493;stroke-miterlimit:4;fill:#000000;fill-opacity:1"
     transform="matrix(1.2287002,0,0,1.2286195,-5.5002387,-5.4868675)"><g
       style="stroke:none;fill:#000000;fill-opacity:1"
       id="g5"><g
         id="g2993"
         transform="matrix(0.93967926,0,0,0.90101347,1.4457379,2.3673629)"><path
           style="fill:#000000;fill-opacity:1;stroke:none"
           id="path21"
           d="m 9.3345927,31.217319 9.4431943,-5.24574 c 0.994021,1.781573 1.789237,2.573383 3.37967,3.365193 l -4.572496,9.60069 C 14.503498,37.749747 10.527416,33.889676 9.3345927,31.217319 z"
           inkscape:connector-curvature="0" /><path
           style="fill:#000000;fill-opacity:1;stroke:none"
           id="path23"
           d="m 31.501249,38.937462 -5.467113,-9.501715 c 1.88864,-0.989762 2.683857,-1.781571 3.479072,-3.464168 l 10.039607,4.651883 c -1.292227,3.06826 -5.268308,7.225262 -7.952164,8.412976 l -0.09941,-0.09898 z"
           inkscape:connector-curvature="0" /><path
           style="fill:#000000;fill-opacity:1;stroke:none"
           id="path25"
           d="M 38.857,16.964744 29.513208,22.30946 C 28.61859,20.428913 27.723972,19.736079 26.133538,18.94427 L 30.706033,9.1456256 C 33.688094,10.33334 37.664176,14.292389 38.857,16.964744 l 0,0 z"
           inkscape:connector-curvature="0" /><path
           style="fill:#000000;fill-opacity:1;stroke:none"
           id="path27"
           d="m 16.690344,9.2446018 5.467113,9.3037622 c -1.888639,0.989763 -2.683856,1.781573 -3.479072,3.365191 l -9.9402047,-4.45393 c 1.2922257,-3.06826 5.2683077,-7.027309 7.9521637,-8.2150232 z"
           inkscape:connector-curvature="0" /><path
           transform="matrix(0.62695754,0,0,0.68307397,8.5265799,6.0994304)"
           d="m 33.316954,26.771498 c 0,4.559402 -3.861132,8.255528 -8.624079,8.255528 -4.762947,0 -8.624079,-3.696126 -8.624079,-8.255528 0,-4.559403 3.861132,-8.255529 8.624079,-8.255529 4.762947,0 8.624079,3.696126 8.624079,8.255529 z"
           sodipodi:ry="8.2555285"
           sodipodi:rx="8.6240788"
           sodipodi:cy="26.771498"
           sodipodi:cx="24.692875"
           id="path2988"
           style="fill:none;stroke:#000000;stroke-width:4;stroke-miterlimit:4;stroke-opacity:1;stroke-dasharray:none"
           sodipodi:type="arc" /><path
           transform="matrix(1.8089669,0,0,1.9708803,-20.654794,-28.755514)"
           d="m 33.316954,26.771498 c 0,4.559402 -3.861132,8.255528 -8.624079,8.255528 -4.762947,0 -8.624079,-3.696126 -8.624079,-8.255528 0,-4.559403 3.861132,-8.255529 8.624079,-8.255529 4.762947,0 8.624079,3.696126 8.624079,8.255529 z"
           sodipodi:ry="8.2555285"
           sodipodi:rx="8.6240788"
           sodipodi:cy="26.771498"
           sodipodi:cx="24.692875"
           id="path2988-8"
           style="fill:none;stroke:#000000;stroke-width:1.71019626;stroke-miterlimit:4;stroke-opacity:1;stroke-dasharray:none"
           sodipodi:type="arc" /><path
           inkscape:connector-curvature="0"
           id="path2995"
           d="m 36.750908,17.991221 c -2.175268,1.239949 -4.349313,2.482022 -6.522204,3.726094 -0.213151,0.502141 0.288085,1.048806 0.223617,1.584704 0.119064,1.05998 0.07742,2.158532 -0.152805,3.180543 2.206767,1.031896 4.404453,2.135444 6.678736,3.006113 0.489951,-0.329731 0.448845,-1.108519 0.655947,-1.625529 0.824278,-3.239008 0.554534,-6.813561 -0.745395,-9.88306 l -0.118872,0.0096 -0.01902,0.0015 z"
           style="fill:none;fill-opacity:1;stroke:none" /></g></g></g></svg>