<?xml version="1.0" encoding="UTF-8" standalone="no"?>
<!-- Created with Inkscape (http://www.inkscape.org/) -->

<svg
   xmlns:dc="http://purl.org/dc/elements/1.1/"
   xmlns:cc="http://creativecommons.org/ns#"
   xmlns:rdf="http://www.w3.org/1999/02/22-rdf-syntax-ns#"
   xmlns:svg="http://www.w3.org/2000/svg"
   xmlns="http://www.w3.org/2000/svg"
   xmlns:sodipodi="http://sodipodi.sourceforge.net/DTD/sodipodi-0.dtd"
   xmlns:inkscape="http://www.inkscape.org/namespaces/inkscape"
   width="512"
   height="512"
   viewBox="0 0 511.99999 511.99999"
   id="svg4359"
   version="1.1"
   inkscape:version="0.48.5 r10040"
   sodipodi:docname="hexchat.svg">
  <defs
     id="defs4361" />
  <sodipodi:namedview
     id="base"
     pagecolor="#ffffff"
     bordercolor="#666666"
     borderopacity="1.0"
     inkscape:pageopacity="0.0"
     inkscape:pageshadow="2"
     inkscape:zoom="1.1808131"
     inkscape:cx="278.3274"
     inkscape:cy="254.47705"
     inkscape:document-units="px"
     inkscape:current-layer="layer1"
     showgrid="false"
     units="px"
     inkscape:window-width="1920"
     inkscape:window-height="1007"
     inkscape:window-x="0"
     inkscape:window-y="31"
     inkscape:window-maximized="1" />
  <metadata
     id="metadata4364">
    <rdf:RDF>
      <cc:Work
         rdf:about="">
        <dc:format>image/svg+xml</dc:format>
        <dc:type
           rdf:resource="http://purl.org/dc/dcmitype/StillImage" />
        <dc:title />
      </cc:Work>
    </rdf:RDF>
  </metadata>
  <g
     inkscape:label="Capa 1"
     inkscape:groupmode="layer"
     id="layer1"
     transform="translate(0,-540.36219)">    
    <path
       inkscape:connector-curvature="0"
       style="fill:none;stroke:#000000;stroke-width:8;stroke-miterlimit:4;stroke-opacity:1;stroke-dasharray:none"
       id="path3284"
       d="m 91.290547,639.78176 48.572083,48.57207 0,218.57434 c 0,13.45447 10.83157,24.28604 24.28603,24.28604 l 242.86038,0 c 13.45446,0 24.28604,-10.83157 24.28604,-24.28604 l 0,-242.86037 c 0,-13.45447 -10.83158,-24.28604 -24.28604,-24.28604 l -315.718493,0 z" />
    <path
       inkscape:connector-curvature="0"
       d="m 236.56581,684.55947 a 14.419789,14.419789 0 0 0 -12.47311,7.18106 l -49.99341,86.51873 a 14.419789,14.419789 0 0 0 0,14.47745 l 49.99341,86.51873 a 14.419789,14.419789 0 0 0 12.47311,7.18106 l 99.9003,0 a 14.419789,14.419789 0 0 0 12.44427,-7.18106 l 50.02225,-86.51873 a 14.419789,14.419789 0 0 0 0,-14.47745 l -50.02225,-86.51873 a 14.419789,14.419789 0 0 0 -12.44427,-7.18106 l -99.9003,0 z m 8.27696,28.83958 83.31753,0 5.50836,9.63242 -47.16713,47.16712 -47.19595,-47.19597 5.53719,-9.60357 z m -16.75579,28.98376 43.11517,43.11517 -43.08633,43.08633 -24.88855,-43.144 24.85971,-43.0575 z m 116.8147,0 24.77319,43.11517 -24.77319,43.08633 -43.11516,-43.08633 43.11516,-43.11517 z m -58.40015,58.40014 47.19598,47.21039 -5.53721,9.60356 -83.31753,0 -5.53719,-9.60356 47.19595,-47.21039 z"
       mix-blend-mode="normal"
       isolation="auto"
       white-space="normal"
       style="color:#000000;fill:#000000;fill-opacity:1;fill-rule:nonzero;stroke:none;visibility:visible;display:inline"
       id="path4611" />
  </g>
</svg>
