<?xml version="1.0" encoding="UTF-8" standalone="no"?>
<!-- Created with Inkscape (http://www.inkscape.org/) -->

<svg
   xmlns:dc="http://purl.org/dc/elements/1.1/"
   xmlns:cc="http://creativecommons.org/ns#"
   xmlns:rdf="http://www.w3.org/1999/02/22-rdf-syntax-ns#"
   xmlns:svg="http://www.w3.org/2000/svg"
   xmlns="http://www.w3.org/2000/svg"
   xmlns:sodipodi="http://sodipodi.sourceforge.net/DTD/sodipodi-0.dtd"
   xmlns:inkscape="http://www.inkscape.org/namespaces/inkscape"
   version="1.1"
   width="100%"
   height="100%"
   viewBox="0 0 512 512"
   id="svg2"
   inkscape:version="0.48.5 r10040"
   sodipodi:docname="hplip.svg">
  <sodipodi:namedview
     pagecolor="#ffffff"
     bordercolor="#666666"
     borderopacity="1"
     objecttolerance="10"
     gridtolerance="10"
     guidetolerance="10"
     inkscape:pageopacity="0"
     inkscape:pageshadow="2"
     inkscape:window-width="1920"
     inkscape:window-height="1007"
     id="namedview37"
     showgrid="false"
     inkscape:zoom="0.921875"
     inkscape:cx="130.65809"
     inkscape:cy="291.13534"
     inkscape:window-x="0"
     inkscape:window-y="31"
     inkscape:window-maximized="1"
     inkscape:current-layer="svg2" />
  <metadata
     id="metadata72">
    <rdf:RDF>
      <cc:Work
         rdf:about="">
        <dc:format>image/svg+xml</dc:format>
        <dc:type
           rdf:resource="http://purl.org/dc/dcmitype/StillImage" />
        <dc:title />
      </cc:Work>
    </rdf:RDF>
  </metadata>
  <defs
     id="defs70" />
  <path
     d="M 481,255.99229 C 481,380.25711 380.2588,480.98458 256,480.98458 131.73093,480.98458 31,380.24683 31,255.99229 31,131.72748 131.7412,31 256,31 380.26907,31 481,131.73776 481,255.99229"
     inkscape:connector-curvature="0"
     id="path4"
     style="fill:none;fill-opacity:1;fill-rule:evenodd;stroke:#000000;stroke-opacity:1;stroke-width:8;stroke-miterlimit:4;stroke-dasharray:none" />
  <text
     x="705.73956"
     y="231.20934"
     id="text20"
     style="font-size:123.07099152px;line-height:125%;font-family:'Gentium Book Basic';letter-spacing:0;word-spacing:0"
     sodipodi:linespacing="125%"
     transform="scale(1.0000172,0.99998281)">
    <tspan
       x="705.73956"
       y="231.20934"
       id="tspan22" />
  </text>
  <text
     x="363.55927"
     y="595.2832"
     transform="scale(4.0128894,0.249197)"
     id="text24"
     style="font-size:44.71597672px;font-family:Arial;text-anchor:middle" />
  <text
     x="1259.3066"
     y="155.02209"
     id="text26"
     style="font-size:123.07099152px;line-height:125%;font-family:'Gentium Book Basic';letter-spacing:0;word-spacing:0"
     sodipodi:linespacing="125%"
     transform="scale(1.0000172,0.99998281)">
    <tspan
       x="1259.3066"
       y="155.02209"
       id="tspan28" />
  </text>
  <text
     x="501.50513"
     y="289.55478"
     transform="scale(4.0128894,0.249197)"
     id="text30"
     style="font-size:44.71597672px;font-family:Arial;text-anchor:middle" />
  <text
     x="238.79732"
     y="-17.600142"
     id="text32"
     style="font-size:123.07099152px;line-height:125%;font-family:'Gentium Book Basic';letter-spacing:0;word-spacing:0"
     sodipodi:linespacing="125%"
     transform="scale(1.0000172,0.99998281)">
    <tspan
       x="238.79732"
       y="-17.600142"
       id="tspan34" />
  </text>
  <text
     x="247.19337"
     y="-403.13623"
     transform="scale(4.0128894,0.249197)"
     id="text36"
     style="font-size:44.71597672px;font-family:Arial;text-anchor:middle" />
  <text
     x="1284.515"
     y="-223.75238"
     id="text38"
     style="font-size:123.07099152px;line-height:125%;font-family:'Gentium Book Basic';letter-spacing:0;word-spacing:0"
     sodipodi:linespacing="125%"
     transform="scale(1.0000172,0.99998281)">
    <tspan
       x="1284.515"
       y="-223.75238"
       id="tspan40" />
  </text>
  <text
     x="507.7905"
     y="-1230.4019"
     transform="scale(4.0128894,0.249197)"
     id="text42"
     style="font-size:44.71597672px;font-family:Arial;text-anchor:middle" />
  <text
     x="1838.0822"
     y="-299.94916"
     id="text44"
     style="font-size:123.07099152px;line-height:125%;font-family:'Gentium Book Basic';letter-spacing:0;word-spacing:0"
     sodipodi:linespacing="125%"
     transform="scale(1.0000172,0.99998281)">
    <tspan
       x="1838.0822"
       y="-299.94916"
       id="tspan46" />
  </text>
  <text
     x="645.73639"
     y="-1536.1396"
     transform="scale(4.0128894,0.249197)"
     id="text48"
     style="font-size:44.71597672px;font-family:Arial;text-anchor:middle" />
  <text
     x="1467.5073"
     y="-749.83496"
     id="text50"
     style="font-size:123.07099152px;line-height:125%;font-family:'Gentium Book Basic';letter-spacing:0;word-spacing:0"
     sodipodi:linespacing="125%"
     transform="scale(1.0000172,0.99998281)">
    <tspan
       x="1467.5073"
       y="-749.83496"
       id="tspan52" />
  </text>
  <text
     x="553.38837"
     y="-3341.4448"
     transform="scale(4.0128894,0.249197)"
     id="text54"
     style="font-size:44.71597672px;font-family:Arial;text-anchor:middle" />
  <text
     x="2021.0649"
     y="-826.02222"
     id="text56"
     style="font-size:123.07099152px;line-height:125%;font-family:'Gentium Book Basic';letter-spacing:0;word-spacing:0"
     sodipodi:linespacing="125%"
     transform="scale(1.0000172,0.99998281)">
    <tspan
       x="2021.0649"
       y="-826.02222"
       id="tspan58" />
  </text>
  <text
     x="691.33429"
     y="-3647.1731"
     transform="scale(4.0128894,0.249197)"
     id="text60"
     style="font-size:44.71597672px;font-family:Arial;text-anchor:middle" />
  <text
     x="275.61478"
     y="521.27325"
     id="text62"
     style="font-size:198.40115356px;line-height:125%;font-family:'Gentium Book Basic';letter-spacing:0;word-spacing:0"
     sodipodi:linespacing="125%"
     transform="scale(1.0000172,0.99998281)">
    <tspan
       x="275.61478"
       y="521.27325"
       id="tspan64" />
  </text>
  <path
     d="m 217.66058,78.547479 c -30.03426,83.162871 -59.24006,166.488131 -89.25994,249.670531 1.91594,0.58174 3.81338,0.36488 5.78175,0.38543 10.94267,-0.0524 21.9172,0.0431 32.85987,0 1.4904,-0.0103 1.3023,-2.13275 1.92725,-3.08349 13.1865,-37.17666 26.60119,-74.16831 39.82983,-111.32442 0.79351,-2.3044 1.63945,-4.75063 2.69815,-6.93787 6.85792,0.11615 13.63568,-0.10586 20.49361,0 -14.38192,40.28072 -28.70523,80.75672 -43.29374,120.96548 1.52432,0.61259 3.02706,0.35255 4.62539,0.38544 11.4936,-0.1069 22.90807,0.15829 34.40167,0 12.98504,-36.598 26.42645,-73.17132 39.44952,-109.75183 2.78243,-7.48262 2.88111,-16.28907 -1.5418,-23.19097 -3.86272,-6.1084 -11.18524,-9.38307 -18.18091,-9.66778 -9.56737,-0.2847 -19.01039,0.16856 -28.58805,0 13.16389,-37.31028 26.73481,-74.3636 39.79797,-111.714993 -40.93376,4.276806 -32.97396,3.368203 -40.98618,4.271667 m 85.44655,106.668346 c -0.29603,0.61258 -0.47693,2.09574 -0.7709,2.69806 -29.78141,83.53185 -59.78072,166.95065 -89.68136,250.44139 37.74532,5.47526 10.52741,1.71546 37.87072,5.42798 13.04876,-36.66172 26.27946,-73.15076 39.44952,-109.78267 14.32846,-0.26415 28.5531,-0.12128 42.88156,-0.38544 9.14493,-0.3176 18.258,-5.80211 21.26451,-14.67846 12.11752,-34.0726 24.20626,-67.82351 35.94347,-102.0431 1.92621,-5.16999 3.0764,-10.8097 1.54179,-16.2202 -2.07629,-6.85873 -8.31543,-12.09039 -15.06441,-13.90759 -5.86295,-1.81824 -11.73001,-1.05045 -17.76256,-1.15631 -18.39367,-0.0534 -37.28072,-0.20557 -55.66926,-0.38544 m 33.6945,21.52073 c 0.86855,-0.009 1.77615,0.22099 2.63443,0.0966 5.31303,0.0956 10.52226,-0.11614 15.8353,0 -12.37551,35.2649 -24.92576,70.59146 -37.0957,105.9283 -6.87849,0.48617 -13.98926,0.0422 -20.87905,0 12.56155,-35.03877 24.92576,-70.08781 37.48526,-105.12659 0.28472,-0.32273 0.81201,-0.69173 1.18821,-0.80273 0.28164,-0.0832 0.5458,-0.0935 0.83566,-0.0966"
     inkscape:connector-curvature="0"
     id="path66"
     style="fill:#000000;fill-opacity:1" />
</svg>
