<?xml version="1.0" encoding="UTF-8" standalone="no"?>
<!-- Created with Inkscape (http://www.inkscape.org/) -->

<svg
   xmlns:dc="http://purl.org/dc/elements/1.1/"
   xmlns:cc="http://creativecommons.org/ns#"
   xmlns:rdf="http://www.w3.org/1999/02/22-rdf-syntax-ns#"
   xmlns:svg="http://www.w3.org/2000/svg"
   xmlns="http://www.w3.org/2000/svg"
   xmlns:sodipodi="http://sodipodi.sourceforge.net/DTD/sodipodi-0.dtd"
   xmlns:inkscape="http://www.inkscape.org/namespaces/inkscape"
   id="svg3007"
   version="1.1"
   inkscape:version="0.48.5 r10040"
   width="512"
   height="512"
   sodipodi:docname="htop.svg">
  <metadata
     id="metadata3013">
    <rdf:RDF>
      <cc:Work
         rdf:about="">
        <dc:format>image/svg+xml</dc:format>
        <dc:type
           rdf:resource="http://purl.org/dc/dcmitype/StillImage" />
        <dc:title />
      </cc:Work>
    </rdf:RDF>
  </metadata>
  <defs
     id="defs3011">
    <filter
       inkscape:collect="always"
       style="color-interpolation-filters:sRGB"
       id="filter4171"
       x="-0.10709201"
       width="1.214184"
       y="-0.13644609"
       height="1.2728922">
      <feGaussianBlur
         inkscape:collect="always"
         stdDeviation="10.89355"
         id="feGaussianBlur4173" />
    </filter>
  </defs>
  <sodipodi:namedview
     pagecolor="#ffffff"
     bordercolor="#666666"
     borderopacity="1"
     objecttolerance="10"
     gridtolerance="10"
     guidetolerance="10"
     inkscape:pageopacity="0"
     inkscape:pageshadow="2"
     inkscape:window-width="1920"
     inkscape:window-height="1007"
     id="namedview3009"
     showgrid="false"
     inkscape:zoom="1.5575646"
     inkscape:cx="354.61777"
     inkscape:cy="262.25784"
     inkscape:window-x="0"
     inkscape:window-y="31"
     inkscape:window-maximized="1"
     inkscape:current-layer="svg3007" />
  <path
     style="fill:#000000;fill-opacity:1;fill-rule:evenodd;stroke:none"
     d="m 412.39159,162.66623 -56.72413,32.41379 -48.62069,-8.10344 -40.51724,32.41379 -40.51724,-8.10345 -24.31034,8.10345 -16.2069,8.10345 -24.31034,0 -8.10345,8.10344 -40.51724,-8.10344 -16.206916,8.10344 -16.2069,8.10345 -8.10343,-8.10345 -32.4138,75.6376 0,143.15556 437.586216,0 0,-283.62074 -32.41379,0 -32.41381,-8.10345 z"
     id="path4294"
     inkscape:connector-curvature="0" />
  <path
     style="fill:none;stroke:#000000;stroke-width:8;stroke-miterlimit:4;stroke-opacity:1;stroke-dasharray:none"
     d="m 22.142027,35.422983 0,421.379247 0,16.207 16.206896,0 437.586217,0 16.20689,0 0,-16.207 0,-421.379247 -16.20689,0 -437.586217,0 -16.206896,0 z m 16.206896,32.413794 437.586217,0 0,388.965453 -437.586217,0 0,-388.965453 z"
     id="rect4151"
     inkscape:connector-curvature="0" />
  <circle
     style="fill:#000000;fill-opacity:1;stroke:none"
     id="path4155"
     cx="467.18939"
     cy="52.914597"
     r="8.1034479"
     sodipodi:cx="467.18939"
     sodipodi:cy="52.914597"
     sodipodi:rx="8.1034479"
     sodipodi:ry="8.1034479"
     transform="translate(-2.5681118,-1.2840559)" />
</svg>
