<?xml version="1.0" encoding="UTF-8" standalone="no"?>
<!-- Created with Inkscape (http://www.inkscape.org/) -->

<svg
   xmlns:dc="http://purl.org/dc/elements/1.1/"
   xmlns:cc="http://creativecommons.org/ns#"
   xmlns:rdf="http://www.w3.org/1999/02/22-rdf-syntax-ns#"
   xmlns:svg="http://www.w3.org/2000/svg"
   xmlns="http://www.w3.org/2000/svg"
   xmlns:sodipodi="http://sodipodi.sourceforge.net/DTD/sodipodi-0.dtd"
   xmlns:inkscape="http://www.inkscape.org/namespaces/inkscape"
   id="svg2"
   version="1.1"
   inkscape:version="0.48.5 r10040"
   width="512"
   height="512"
   sodipodi:docname="hardinfo.svg">
  <metadata
     id="metadata8">
    <rdf:RDF>
      <cc:Work
         rdf:about="">
        <dc:format>image/svg+xml</dc:format>
        <dc:type
           rdf:resource="http://purl.org/dc/dcmitype/StillImage" />
        <dc:title />
      </cc:Work>
    </rdf:RDF>
  </metadata>
  <defs
     id="defs6" />
  <sodipodi:namedview
     pagecolor="#ffffff"
     bordercolor="#666666"
     borderopacity="1"
     objecttolerance="10"
     gridtolerance="10"
     guidetolerance="10"
     inkscape:pageopacity="0"
     inkscape:pageshadow="2"
     inkscape:window-width="1920"
     inkscape:window-height="1007"
     id="namedview4"
     showgrid="false"
     inkscape:zoom="1.7753906"
     inkscape:cx="241.72654"
     inkscape:cy="242.33444"
     inkscape:window-x="0"
     inkscape:window-y="31"
     inkscape:window-maximized="1"
     inkscape:current-layer="svg2" />
  <path
     inkscape:connector-curvature="0"
     id="path2988"
     d="m 67.426332,492.40818 c -14.45606,-3.36261 -28.46756,-13.8318 -35.34632,-26.41024 -7.19776,-13.16174 -6.74117,0.18297 -6.74117,-197.0217 0,-197.204665 -0.4566,-183.859945 6.74117,-197.021695 6.99306,-12.78745 20.93272,-23.0858 35.80968,-26.45548 5.635699,-1.27651 29.148028,-1.46536 182.443358,-1.46536 153.29534,0 176.80766,0.18885 182.44337,1.46536 14.87696,3.36968 28.81662,13.66803 35.80968,26.45548 7.19776,13.16175 6.74117,-0.18297 6.74117,197.021695 0,197.20467 0.4566,183.85996 -6.74117,197.0217 -6.99306,12.78745 -20.93272,23.0858 -35.80968,26.45548 -9.42951,2.13582 -356.158209,2.09288 -365.350088,-0.0452 z M 239.17034,436.62527 c 3.36185,-1.2282 12.42637,-9.35756 14.28506,-12.81133 1.7144,-3.18564 1.84717,-7.92026 0.3038,-10.83252 -2.04512,-3.85895 -14.41522,-15.24193 -16.5637,-15.24193 -1.2833,0 -6.23405,4.01649 -13.05674,10.59279 -13.09048,12.61773 -13.07305,12.47043 -2.57993,21.80557 8.11008,7.21508 11.84942,8.59251 17.61155,6.48742 z m 42.47646,-40.81552 c 3.36185,-1.2282 12.42637,-9.35756 14.28506,-12.81133 0.7858,-1.46013 1.4287,-4.47595 1.4287,-6.70183 0,-3.73085 -0.6063,-4.64575 -7.76046,-11.70984 -4.73626,-4.67665 -8.57243,-7.66278 -9.84409,-7.66278 -2.45514,0 -23.86056,20.05847 -23.86056,22.3591 0,1.57795 13.22256,14.54388 16.68718,16.36331 2.54671,1.3374 5.69524,1.39414 9.06417,0.16337 z m 42.70138,-40.88288 c 4.21426,-1.51768 14.36435,-11.54516 15.42594,-15.2396 1.57061,-5.46584 -0.4479,-9.62499 -8.5,-17.51419 l -7.36252,-7.21359 -2.90925,1.46039 c -3.76553,1.89024 -22.63044,20.3722 -22.63044,22.17107 0,0.75636 3.29951,4.51427 7.33224,8.3509 9.2372,8.78803 12.5155,10.19209 18.64403,7.98502 z m 43.08046,-41.11528 c 1.78991,-0.72879 5.83768,-3.94234 8.99504,-7.14121 6.21431,-6.29605 7.83176,-10.43478 5.94324,-15.20772 -1.1482,-2.90192 -12.3889,-14.70861 -15.55627,-16.33957 -1.55512,-0.80077 -3.7697,0.86976 -13.90599,10.48972 -6.63096,6.2932 -12.05629,11.9137 -12.05629,12.49 0,0.5763 3.29951,4.18689 7.33224,8.02352 9.49345,9.03183 12.74868,10.33155 19.24803,7.68526 z m -263.093,-19.74675 c 6.03038,-5.71011 11.24393,-11.22849 11.58566,-12.26307 0.4715,-1.42734 -1.04067,-3.49037 -6.26924,-8.55327 -12.21612,-11.8291 -16.86949,-12.27526 -27.332899,-2.62067 -11.126889,10.2668 -11.048489,14.93995 0.441,26.28761 4.19406,4.14229 8.297319,7.53143 9.118359,7.53143 0.821,0 6.42672,-4.67191 12.45711,-10.38203 z m 304.96547,-20.76901 c 4.0672,-1.46472 14.26074,-11.43371 15.56035,-15.21758 1.88008,-5.47393 0.2803,-8.89584 -7.96687,-17.0412 -4.19406,-4.14229 -8.12265,-7.53144 -8.73018,-7.53144 -0.6075,0 -6.49264,5.19087 -13.07802,11.53527 -13.6843,13.18356 -13.42877,11.85866 -3.99703,20.72444 8.65249,8.13328 12.32324,9.65114 18.21175,7.53051 z M 147.33123,252.75238 c 6.31135,-5.98343 11.47517,-11.59261 11.47517,-12.46485 0,-0.87224 -3.52706,-4.88321 -7.83792,-8.91328 -11.80943,-11.04022 -16.67276,-11.11556 -27.35735,-0.42376 -6.61811,6.62258 -8.25414,10.65936 -6.3107,15.57113 1.36034,3.43806 14.98767,17.10973 17.05425,17.10973 0.8258,0 6.66521,-4.89554 12.97655,-10.87897 z m 42.47646,-40.81553 c 6.31134,-5.98343 11.47516,-11.59261 11.47516,-12.46485 0,-0.87224 -3.54984,-4.90532 -7.88853,-8.9624 -11.65664,-10.90005 -16.08032,-11.05337 -26.77805,-0.92811 -7.47857,7.07838 -8.85106,11.11803 -5.8209,17.13273 2.18325,4.33365 14.08377,16.10161 16.28298,16.10161 0.6898,0 6.418,-4.89554 12.72934,-10.87898 z m 42.55817,-40.85343 c 6.2664,-6.00428 11.39345,-11.61346 11.39345,-12.46484 0,-1.98197 -14.91457,-15.95702 -18.03928,-16.90294 -4.57652,-1.3854 -9.31712,0.37645 -15.06302,5.59819 -6.64077,6.03497 -8.36281,8.98971 -8.36281,14.3492 0,3.76345 0.5931,4.63803 8.27014,12.19573 4.54859,4.47785 8.75119,8.14154 9.33911,8.14154 0.5879,0 6.19602,-4.91259 12.46241,-10.91688 z m 42.47646,-40.81551 c 7.51843,-7.20393 11.39345,-11.63329 11.39345,-13.02328 0,-3.08533 -14.2975,-15.65818 -18.71074,-16.45374 -5.34164,-0.962905 -9.89492,1.10347 -16.01342,7.26725 -9.73304,9.80507 -9.35426,14.51731 2.05329,25.54346 4.31502,4.17075 8.30415,7.58318 8.86473,7.58318 0.5606,0 6.1463,-4.91259 12.41269,-10.91687 z"
     style="fill:none;fill-opacity:1;stroke:#000000;stroke-opacity:1;stroke-width:8;stroke-miterlimit:4;stroke-dasharray:none" />
  <path
     inkscape:connector-curvature="0"
     id="path2986"
     d="m 182.92793,430.19253 c -2.53057,-0.68163 -6.2301,-2.20677 -8.22117,-3.3892 -4.88497,-2.90103 -88.083499,-84.40085 -90.201139,-88.35947 -2.682799,-5.0151 -3.182379,-13.59908 -1.177189,-20.227 1.553149,-5.13372 2.683209,-6.60255 10.789429,-14.02393 4.98001,-4.55928 14.230569,-13.31866 20.556779,-19.46528 6.3262,-6.14663 15.57872,-15.05664 20.56113,-19.80006 4.98241,-4.7434 14.5202,-13.87208 21.19507,-20.28594 6.67487,-6.41387 16.23208,-15.59736 21.23823,-20.40776 5.00616,-4.8104 14.61842,-14.04872 21.36058,-20.52958 6.74216,-6.48085 16.3532,-15.71916 21.35785,-20.52956 5.00465,-4.8104 14.56354,-13.75495 21.24195,-19.87678 6.67841,-6.12183 12.14257,-11.61511 12.14257,-12.2073 0,-0.59219 4.11081,-4.76692 9.13513,-9.27717 12.15037,-10.9072 32.43565,-30.39675 39.68852,-38.1317 10.27499,-10.957922 20.99178,-14.448321 33.57191,-10.934184 5.75826,1.608516 6.9209,2.615197 50.60956,43.820604 49.81353,46.98215 49.37825,46.46443 49.3983,58.754 0.014,8.855 -2.81232,14.40428 -11.75694,23.08021 -3.99507,3.87504 -7.75446,7.04553 -8.3542,7.04553 -1.01112,0 -11.9539,10.70389 -32.77795,32.06234 -4.69379,4.81425 -9.0415,8.75318 -9.66157,8.75318 -0.6201,0 -6.44102,5.35704 -12.93544,11.90453 -6.49442,6.54749 -15.62986,15.56635 -20.30099,20.04191 -4.67112,4.47556 -14.18176,13.60374 -21.13476,20.28485 -6.95299,6.68112 -16.51019,15.86461 -21.23823,20.40776 -4.72803,4.54316 -14.28523,13.72665 -21.23823,20.40776 -6.95299,6.68112 -16.51038,15.86442 -21.23865,20.40736 -28.2619,27.15411 -35.74733,34.39915 -41.24494,39.92029 -9.51454,9.55527 -20.87869,13.37933 -31.36561,10.55459 z"
     style="fill:#000000;fill-opacity:1" />
</svg>
