<?xml version="1.0" encoding="utf-8"?>
<!-- Generator: Adobe Illustrator 16.0.0, SVG Export Plug-In . SVG Version: 6.00 Build 0)  -->
<!DOCTYPE svg PUBLIC "-//W3C//DTD SVG 1.1//EN" "http://www.w3.org/Graphics/SVG/1.1/DTD/svg11.dtd">
<svg version="1.1" id="Layer_1" xmlns="http://www.w3.org/2000/svg" xmlns:xlink="http://www.w3.org/1999/xlink" x="0px" y="0px"
	 width="24px" height="24px" viewBox="0 0 24 24" enable-background="new 0 0 24 24" xml:space="preserve">
<g>
	<path d="M0.142,3.646c0-0.194,0-0.387,0-0.579C0.157,2.998,0.173,2.93,0.186,2.859C0.46,1.34,1.771,0.348,3.203,0.351
		c4.031,0.011,8.063,0.004,12.093,0.004c0.063,0,0.123,0,0.198,0c0,0.079,0,0.141,0,0.202c0,3.774,0.004,7.551-0.002,11.325
		c-0.003,0.544-0.04,1.088-0.084,1.629c-0.068,0.801-0.253,1.581-0.508,2.344c-0.701,2.099-1.894,3.868-3.576,5.307
		c-1.386,1.187-2.963,2.008-4.728,2.468c-0.722,0.187-1.452,0.322-2.199,0.346c-0.544,0.017-1.093,0.052-1.63-0.007
		c-1.208-0.127-2.193-1.013-2.507-2.188c-0.05-0.188-0.079-0.384-0.119-0.575c0-0.144,0-0.288,0-0.434
		c0.023-0.112,0.046-0.224,0.066-0.337c0.27-1.465,1.587-2.513,3.125-2.464c0.457,0.014,0.926-0.016,1.376-0.1
		c1.394-0.266,2.543-0.961,3.437-2.064c0.831-1.028,1.277-2.208,1.287-3.532c0.016-1.895,0.005-3.789,0.005-5.683
		c0-0.204,0-0.205-0.204-0.205c-1.938,0-3.876,0.002-5.813-0.002c-0.254-0.001-0.512-0.013-0.76-0.06
		c-1.209-0.23-2.002-0.946-2.388-2.107C0.212,4.034,0.186,3.836,0.142,3.646z"/>
	<path d="M21.029,0c0.194,0.037,0.389,0.062,0.578,0.111c0.88,0.232,1.453,0.813,1.814,1.625c0.248,0.557,0.376,1.148,0.406,1.758
		c0.02,0.375,0.027,0.75,0.027,1.126c0.002,5.159,0.005,10.318-0.003,15.478c-0.003,0.827-0.146,1.638-0.551,2.379
		c-0.519,0.956-1.32,1.456-2.419,1.476c-0.684,0.012-1.305-0.16-1.835-0.602c-0.496-0.413-0.794-0.958-0.985-1.564
		c-0.175-0.554-0.259-1.125-0.26-1.703c-0.004-5.414-0.008-10.829,0.003-16.243c0.002-0.877,0.17-1.73,0.636-2.498
		c0.467-0.77,1.144-1.216,2.047-1.304c0.048-0.004,0.092-0.023,0.138-0.034c0.136,0,0.27,0,0.406,0L21.029,0z"/>
	<path d="M0.142,11.863c0.023-0.092,0.051-0.182,0.066-0.272c0.256-1.469,1.404-2.604,2.867-2.833
		c1.858-0.291,3.64,0.998,3.936,2.851c0.298,1.875-0.979,3.64-2.846,3.949c-1.881,0.312-3.652-0.987-3.956-2.812
		c-0.017-0.101-0.045-0.202-0.067-0.304C0.142,12.25,0.142,12.057,0.142,11.863L0.142,11.863z"/>
</g>
</svg>
