<?xml version="1.0" encoding="UTF-8" standalone="no"?>
<!-- Created with Inkscape (http://www.inkscape.org/) -->

<svg
   xmlns:dc="http://purl.org/dc/elements/1.1/"
   xmlns:cc="http://creativecommons.org/ns#"
   xmlns:rdf="http://www.w3.org/1999/02/22-rdf-syntax-ns#"
   xmlns:svg="http://www.w3.org/2000/svg"
   xmlns="http://www.w3.org/2000/svg"
   xmlns:xlink="http://www.w3.org/1999/xlink"
   xmlns:sodipodi="http://sodipodi.sourceforge.net/DTD/sodipodi-0.dtd"
   xmlns:inkscape="http://www.inkscape.org/namespaces/inkscape"
   id="svg2"
   version="1.1"
   inkscape:version="0.48.5 r10040"
   width="512"
   height="512"
   sodipodi:docname="inkscape.svg"
   viewBox="0 0 512 512">
  <metadata
     id="metadata8">
    <rdf:RDF>
      <cc:Work
         rdf:about="">
        <dc:format>image/svg+xml</dc:format>
        <dc:type
           rdf:resource="http://purl.org/dc/dcmitype/StillImage" />
        <dc:title />
      </cc:Work>
    </rdf:RDF>
  </metadata>
  <defs
     id="defs6">
    <linearGradient
       inkscape:collect="always"
       id="linearGradient5733">
      <stop
         style="stop-color:#3a3a3a;stop-opacity:1"
         offset="0"
         id="stop5735" />
      <stop
         style="stop-color:#414141;stop-opacity:1"
         offset="1"
         id="stop5737" />
    </linearGradient>
    <linearGradient
       inkscape:collect="always"
       xlink:href="#linearGradient5733"
       id="linearGradient5739"
       x1="64.901855"
       y1="53.311081"
       x2="78.785446"
       y2="78.151665"
       gradientUnits="userSpaceOnUse"
       gradientTransform="matrix(4.6047343,0,0,4.6045625,-48.260875,-58.241093)" />
  </defs>
  <sodipodi:namedview
     pagecolor="#ffffff"
     bordercolor="#666666"
     borderopacity="1"
     objecttolerance="10"
     gridtolerance="10"
     guidetolerance="10"
     inkscape:pageopacity="0"
     inkscape:pageshadow="2"
     inkscape:window-width="1920"
     inkscape:window-height="1007"
     id="namedview4"
     showgrid="false"
     inkscape:zoom="1.5585938"
     inkscape:cx="131.84963"
     inkscape:cy="256"
     inkscape:window-x="0"
     inkscape:window-y="31"
     inkscape:window-maximized="1"
     inkscape:current-layer="svg2" />
  <path
     style="fill:#000000;fill-opacity:1;stroke:none;stroke-width:0;stroke-linejoin:miter;stroke-miterlimit:4;stroke-dasharray:none;stroke-opacity:1"
     d="m 244.40464,476.31899 c -18.41073,-9.44748 -23.45974,-35.37224 -47.56542,-36.68642 -16.40925,-1.23374 -30.1393,-17.91566 -10.93308,-27.69848 28.04108,-16.14223 8.25915,-38.09837 -20.93037,-38.09837 -23.6451,0 -46.81717,-3.26665 -68.670224,-11.59411 C 74.744939,339.865 118.33909,334.84425 132.48861,328.44036 158.58666,314.76677 122.7945,290.6167 109.39602,287.02659 87.020909,281.89448 63.178282,284.65066 41.469724,276.6756 24.015891,262.52339 37.486058,235.83799 51.585729,223.85095 108.77081,162.93025 166.38008,102.24287 227.31964,45.052786 c 16.6363,-18.267145 48.76071,-14.128689 63.18114,4.86712 61.39622,61.513734 122.01587,123.874674 180.47484,188.191894 11.64994,16.16045 11.23076,42.5369 -9.27159,51.79447 -25.30342,14.2136 -56.07948,16.97347 -82.90698,24.16188 -24.91551,6.67609 -27.65221,19.56308 -14.12688,42.98964 6.23855,10.80549 29.6623,36.13213 3.51306,45.20428 -21.6531,11.03604 -48.36525,10.03503 -68.10784,24.95007 -9.11864,14.59271 22.50219,34.02318 -5.18275,41.83091 -15.15826,7.88745 -33.73483,12.53358 -50.488,7.27594 z M 203.24636,192.43477 c 0.88168,-0.53871 -1.26026,3.93483 -0.9046,2.96475 z M 92.162164,419.11918 c -8.879518,-21.44333 55.354426,-24.7749 38.702036,-5.26039 -10.95573,5.59073 -27.70977,15.22922 -38.702036,5.26039 z M 439.0642,364.32425 c -27.60605,-8.02194 9.92715,-26.7339 23.20301,-21.02315 24.14094,1.59149 18.29519,23.62811 -7.3746,23.62811 -5.34304,-0.33853 -10.67524,-1.1319 -15.82841,-2.60496 z"
     id="path5167"
     inkscape:connector-curvature="0"
     sodipodi:nodetypes="ccccccccccccccccccccccccccccc" />
</svg>
