<?xml version="1.0" encoding="UTF-8" standalone="no"?>
<!-- Created with Inkscape (http://www.inkscape.org/) -->

<svg
   xmlns:dc="http://purl.org/dc/elements/1.1/"
   xmlns:cc="http://creativecommons.org/ns#"
   xmlns:rdf="http://www.w3.org/1999/02/22-rdf-syntax-ns#"
   xmlns:svg="http://www.w3.org/2000/svg"
   xmlns="http://www.w3.org/2000/svg"
   xmlns:sodipodi="http://sodipodi.sourceforge.net/DTD/sodipodi-0.dtd"
   xmlns:inkscape="http://www.inkscape.org/namespaces/inkscape"
   id="svg2"
   version="1.1"
   inkscape:version="0.48.5 r10040"
   width="512"
   height="512"
   sodipodi:docname="input-mouse.svg"
   viewBox="0 0 512 512">
  <metadata
     id="metadata8">
    <rdf:RDF>
      <cc:Work
         rdf:about="">
        <dc:format>image/svg+xml</dc:format>
        <dc:type
           rdf:resource="http://purl.org/dc/dcmitype/StillImage" />
        <dc:title />
      </cc:Work>
    </rdf:RDF>
  </metadata>
  <defs
     id="defs6">
    <clipPath
       id="clipPath-717834183">
      <g
         id="g17"
         transform="translate(0,-1004.3622)">
        <path
           id="path19"
           transform="matrix(15.333333,0,0,11.5,414.99999,878.8622)"
           d="m -24,13 c 0,1.105 -0.672,2 -1.5,2 -0.828,0 -1.5,-0.895 -1.5,-2 0,-1.105 0.672,-2 1.5,-2 0.828,0 1.5,0.895 1.5,2 z"
           inkscape:connector-curvature="0"
           style="fill:#1890d0" />
      </g>
    </clipPath>
    <clipPath
       id="clipPath-699552035">
      <g
         id="g12"
         transform="translate(0,-1004.3622)">
        <path
           id="path14"
           transform="matrix(15.333333,0,0,11.5,414.99999,878.8622)"
           d="m -24,13 c 0,1.105 -0.672,2 -1.5,2 -0.828,0 -1.5,-0.895 -1.5,-2 0,-1.105 0.672,-2 1.5,-2 0.828,0 1.5,0.895 1.5,2 z"
           inkscape:connector-curvature="0"
           style="fill:#1890d0" />
      </g>
    </clipPath>
    <linearGradient
       gradientUnits="userSpaceOnUse"
       y2="1"
       x2="0"
       y1="47"
       id="linearGradient3764">
      <stop
         id="stop7"
         stop-opacity="1"
         stop-color="#3fc58b" />
      <stop
         id="stop9"
         stop-opacity="1"
         stop-color="#4eca95"
         offset="1" />
    </linearGradient>
    <clipPath
       clipPathUnits="userSpaceOnUse"
       id="clipPath4153">
      <path
         style="opacity:1;fill:none;fill-opacity:1;stroke:#000000;stroke-width:11.60000038;stroke-miterlimit:4;stroke-dasharray:none;stroke-dashoffset:0;stroke-opacity:1"
         id="path4155"
         sodipodi:type="arc"
         sodipodi:cx="256.54236"
         sodipodi:cy="255.45761"
         sodipodi:rx="240.27118"
         sodipodi:ry="240.27118"
         sodipodi:start="0"
         sodipodi:end="6.2831338"
         sodipodi:open="true"
         d="M 496.81354,255.45761 A 240.27118,240.27118 0 0 1 256.54545,495.72879 240.27118,240.27118 0 0 1 16.271179,255.4638 240.27118,240.27118 0 0 1 256.53308,15.186432 240.27118,240.27118 0 0 1 496.81354,255.44524" />
    </clipPath>
    <clipPath
       clipPathUnits="userSpaceOnUse"
       id="clipPath4164">
      <circle
         style="opacity:1;fill:none;fill-opacity:1;stroke:#000000;stroke-width:0.98726904;stroke-miterlimit:4;stroke-dasharray:none;stroke-dashoffset:0;stroke-opacity:1"
         id="circle4166"
         cx="255.17685"
         cy="255.43602"
         r="240.42513" />
    </clipPath>
    <clipPath
       clipPathUnits="userSpaceOnUse"
       id="clipPath3357">
      <circle
         style="opacity:1;fill:#808080;fill-opacity:1;stroke:none;stroke-width:0.89999998;stroke-miterlimit:4;stroke-dasharray:none;stroke-dashoffset:0;stroke-opacity:1"
         id="circle3359"
         cx="255.45761"
         cy="254.37288"
         r="233.76271" />
    </clipPath>
  </defs>
  <sodipodi:namedview
     pagecolor="#ffffff"
     bordercolor="#666666"
     borderopacity="1"
     objecttolerance="10"
     gridtolerance="10"
     guidetolerance="10"
     inkscape:pageopacity="0"
     inkscape:pageshadow="2"
     inkscape:window-width="1920"
     inkscape:window-height="1007"
     id="namedview4"
     showgrid="false"
     inkscape:zoom="1.2578029"
     inkscape:cx="365.89466"
     inkscape:cy="341.90197"
     inkscape:window-x="0"
     inkscape:window-y="31"
     inkscape:window-maximized="1"
     inkscape:current-layer="svg2"
     inkscape:document-units="px" />
  <path
     inkscape:connector-curvature="0"
     style="fill:none;stroke:#000000;stroke-width:8.54297528;stroke-miterlimit:4;stroke-opacity:1;stroke-dasharray:none"
     d="M 223.25688,499.02576 C 182.96741,494.48872 140.72839,476.73587 104.91111,449.2857 96.66931,442.9692 73.495181,420.48114 68.055931,413.52157 60.342837,403.65259 58.645594,401.3544 53.522257,393.84169 46.389382,383.38245 39.977069,372.33201 35.8426,363.37397 28.600042,347.68156 27.651734,345.37837 24.290763,335.31613 19.26616,320.27339 15.33592,303.53439 14.000481,291.48919 12.511562,278.05973 9.4007702,236.61876 13.980487,221.96596 16.21358,201.4296 26.392274,168.54507 37.080922,147.3349 c 5.372697,-10.66153 17.313568,-29.76384 25.054083,-40.08021 8.72786,-11.632316 32.855629,-35.760112 44.488015,-44.488 10.31637,-7.740524 29.41868,-19.681357 40.08019,-25.054102 21.2101,-10.688591 53.24568,-25.112274 73.78197,-27.345415 13.62002,-1.4810551 56.94283,-2.317666 70.37224,-0.828718 11.04807,1.224897 33.27989,11.360892 35.4033,13.123146 1.53758,1.276016 1.80217,44.970051 0.30506,50.359153 -1.16682,4.200071 -6.21713,9.20925 -10.53269,10.446944 -1.7954,0.514923 -13.02828,0.936216 -24.96192,0.936216 -23.71321,0 -25.30553,0.284321 -31.35899,5.59939 -5.76259,5.0596 -6.8699,8.49076 -7.41099,22.964096 l -0.48053,12.85357 -7.61693,1.49722 c -10.11624,1.98851 -13.87577,3.27361 -22.37474,7.6483 -14.03305,7.22329 -24.77549,18.2356 -31.94493,32.7476 -7.88276,15.95576 -7.57418,12.38014 -7.51934,87.11864 0.0476,65.18005 0.08,66.29997 2.17178,74.70262 9.7789,39.28829 47.41787,63.26781 86.60269,55.17397 13.93175,-2.87768 24.78492,-8.74689 35.7512,-19.33351 11.34104,-10.94853 18.85581,-24.83341 21.4727,-39.67477 0.61669,-3.4978 1.04657,-29.75511 1.12893,-68.96408 0.11577,-55.06993 -0.0676,-64.25834 -1.40799,-70.55359 -4.86332,-22.84204 -19.08336,-41.16067 -40.08296,-51.63597 -6.77183,-3.37803 -20.47211,-7.29826 -25.50576,-7.29826 l -2.76847,0 0.33143,-12.78531 c 0.35971,-13.87491 0.93983,-15.560736 6.88371,-20.003866 2.44903,-1.83068 4.2749,-1.99517 27.07647,-2.43912 21.45223,-0.41768 24.85899,-0.6937 27.78275,-2.25096 4.66413,-2.48418 8.39386,-6.146258 10.79852,-10.60261 1.92766,-3.572331 2.07343,-5.328566 2.35164,-28.32545 0.28325,-23.419499 0.37818,-24.516994 2.12055,-24.516994 1.8154,0 12.33048,3.692859 15.77171,5.538946 0.99306,0.532776 5.23321,2.529725 9.42252,4.437662 9.29913,4.23507 20.18468,10.515429 30.94378,17.85277 7.51281,5.123414 9.81093,6.820638 19.6799,14.533732 6.68795,5.226909 29.4164,28.474814 34.91258,35.71041 29.44791,38.76745 46.32303,79.42583 50.70505,122.1668 1.6603,16.1932 1.44522,49.83718 -0.42397,66.35223 -1.08789,9.61174 -6.93436,33.96366 -10.27067,42.77999 -7.35263,19.42928 -10.01293,25.37838 -17.00232,38.02164 -12.94974,23.42508 -22.61372,36.56401 -39.90472,54.25332 -17.84133,18.25241 -33.50583,30.02949 -57.81854,43.46989 -12.64325,6.98939 -18.59235,9.64967 -38.02162,17.00228 -8.77347,3.32014 -33.1305,9.17584 -42.78001,10.28478 -13.56785,1.55924 -56.18934,1.74232 -69.02843,0.29649 z"
     id="path3040"
     sodipodi:nodetypes="csssssscsssssscssssscsssscsscsssscssssssscsssssssssssscc"
     clip-path="url(#clipPath4153)"
     transform="matrix(0.9364419,0,0,0.9364419,15.762986,16.778789)" />
  <path
     style="fill:#000000;fill-opacity:1;fill-rule:nonzero;stroke:none"
     inkscape:connector-curvature="0"
     id="path61"
     d="m 254.90098,134.42411 0,69.34297 -78.77629,0 0,-20.80289 c 0,-20.80289 39.38814,-48.54008 78.77629,-48.54008" />
  <path
     style="fill:#000000;fill-opacity:1;fill-rule:nonzero;stroke:none;stroke-width:0.91983097999999996"
     inkscape:connector-curvature="0"
     id="path69"
     d="m 254.90098,186.98394 c 5.42574,0 9.84706,5.24986 9.84706,11.71846 l 0,31.24915 c 0,6.4686 -4.42132,11.71846 -9.84706,11.71846 -5.42573,0 -9.84705,-5.24986 -9.84705,-11.71846 l 0,-31.24915 c 0,-6.4686 4.42132,-11.71846 9.84705,-11.71846 m 0,0" />
</svg>
