<?xml version="1.0" encoding="UTF-8" standalone="no"?>
<svg
   xmlns:dc="http://purl.org/dc/elements/1.1/"
   xmlns:cc="http://creativecommons.org/ns#"
   xmlns:rdf="http://www.w3.org/1999/02/22-rdf-syntax-ns#"
   xmlns:svg="http://www.w3.org/2000/svg"
   xmlns="http://www.w3.org/2000/svg"
   xmlns:sodipodi="http://sodipodi.sourceforge.net/DTD/sodipodi-0.dtd"
   xmlns:inkscape="http://www.inkscape.org/namespaces/inkscape"
   height="512"
   width="512"
   version="1.1"
   id="svg2"
   inkscape:version="0.48.5 r10040"
   sodipodi:docname="applications-java.svg">
  <metadata
     id="metadata37">
    <rdf:RDF>
      <cc:Work
         rdf:about="">
        <dc:format>image/svg+xml</dc:format>
        <dc:type
           rdf:resource="http://purl.org/dc/dcmitype/StillImage" />
        <dc:title />
      </cc:Work>
    </rdf:RDF>
  </metadata>
  <sodipodi:namedview
     pagecolor="#ffffff"
     bordercolor="#666666"
     borderopacity="1"
     objecttolerance="10"
     gridtolerance="10"
     guidetolerance="10"
     inkscape:pageopacity="0"
     inkscape:pageshadow="2"
     inkscape:window-width="1920"
     inkscape:window-height="1038"
     id="namedview35"
     showgrid="false"
     inkscape:zoom="0.46875"
     inkscape:cx="-497.52913"
     inkscape:cy="650.09642"
     inkscape:window-x="1920"
     inkscape:window-y="0"
     inkscape:window-maximized="1"
     inkscape:current-layer="svg2" />
  <defs
     id="defs4">
    <linearGradient
       id="linearGradient12443"
       y2="3"
       gradientUnits="userSpaceOnUse"
       x2="27.5"
       y1="0.5"
       x1="27.5"
       gradientTransform="matrix(2.7037875,0,0,2.7037875,-2.2807832,-0.11117452)">
      <stop
         stop-color="#fff"
         offset="0"
         id="stop7" />
      <stop
         stop-color="#fff"
         stop-opacity="0"
         offset="1"
         id="stop9" />
    </linearGradient>
  </defs>
  <circle
     style="opacity:1;fill:none;fill-opacity:1;stroke:#000000;stroke-width:4;stroke-opacity:1;stroke-miterlimit:4;stroke-dasharray:none"
     id="path4164"
     cx="256"
     cy="256"
     r="224.57808" />
  <path
     style="fill:#000000;fill-opacity:1"
     d="m 295.27397,63.39602 c 14.52949,57.53631 -51.14271,74.97179 -74.97112,111.00414 -16.2723,24.41007 7.55425,50.56197 40.68157,80.20152 -12.7856,-29.05898 -56.37408,-54.63101 0,-99.38171 70.32193,-55.21186 34.28955,-91.82395 34.28955,-91.82395 z m 43.5846,71.48625 c 0,0 -119.13846,29.63896 -62.18707,95.31088 l 0,0.002 c 16.85395,19.17841 -4.64856,36.61486 -4.64856,36.61486 0,0 43.00697,-22.08479 23.24691,-49.40096 C 277.25258,191.25628 263.305,178.4708 338.85857,134.88232 Z M 357.5704,256.8589 c -4.15942,-0.007 -8.56791,0.71345 -13.08116,2.30262 -4.06801,1.16222 -5.81224,4.64855 -5.81224,4.64855 0,0 2.32492,-1.16102 7.55572,-2.32325 20.92229,-4.06834 51.1436,28.47711 -13.94774,62.18501 -0.58144,1.16245 -1.16162,1.74347 -1.16162,1.74347 77.641,-20.18707 60.31659,-68.49517 26.44704,-68.5564 z m -142.99519,3.41885 c -8.44494,0.19059 -28.16904,1.93438 -50.83494,12.83149 -35.45397,17.43518 88.34177,24.99151 152.85145,8.13756 6.39269,-4.06867 15.6912,-8.13756 15.6912,-8.13756 0,0 -26.15319,4.6492 -52.30606,6.97388 -31.9651,2.32488 -66.25285,2.90629 -83.68845,0.58184 -40.67863,-5.2301 22.65136,-20.33905 22.663,-20.34182 0,0 -1.56123,-0.10892 -4.3762,-0.0454 z m -10.73522,39.5674 c -58.68937,19.75989 33.12971,41.84095 115.07292,17.4326 -8.71727,-2.90601 -13.94774,-8.71733 -13.94774,-8.71733 -40.10071,8.13626 -63.34699,7.55685 -92.98763,4.65062 -22.65504,-2.32333 -8.15155,-13.35525 -8.13755,-13.36589 z m 8.7194,37.77442 c -53.47124,15.10995 32.54587,45.91386 100.54334,16.85489 -11.04194,-4.06846 -19.17814,-9.29919 -19.17814,-9.29919 -30.22122,5.81201 -44.75093,6.39199 -72.06603,2.90509 -22.66596,-2.32467 -9.29917,-10.46079 -9.29917,-10.46079 z m -34.86934,25.48556 c -22.72443,-0.66757 -75.0401,22.0262 -30.79848,29.1458 138.89074,22.66432 253.37728,-9.87348 217.36384,-26.14787 0.0407,0.0336 9.83068,8.14382 -11.04883,14.52339 -38.93848,11.62338 -163.31059,15.11007 -198.17746,0 -12.20503,-5.23024 11.04331,-12.7855 18.59835,-13.94773 7.55536,-1.74334 11.62242,-1.74347 11.62242,-1.74347 -1.67077,-1.16236 -4.31349,-1.73476 -7.55984,-1.83012 z m 208.64033,20.42847 c 0,0 -4.64937,11.62249 -51.72421,20.33976 -53.46797,9.88025 -119.72241,8.71844 -158.65545,2.32531 0,0 8.13534,6.97438 49.39683,9.29917 l 0.002,0 c 62.76687,4.06819 158.6541,-2.32522 160.98071,-31.96424 z"
     id="path29-7-3"
     inkscape:connector-curvature="0" />
</svg>
