<?xml version="1.0" encoding="UTF-8" standalone="no"?>
<svg
   xmlns:dc="http://purl.org/dc/elements/1.1/"
   xmlns:cc="http://creativecommons.org/ns#"
   xmlns:rdf="http://www.w3.org/1999/02/22-rdf-syntax-ns#"
   xmlns:svg="http://www.w3.org/2000/svg"
   xmlns="http://www.w3.org/2000/svg"
   xmlns:xlink="http://www.w3.org/1999/xlink"
   xmlns:sodipodi="http://sodipodi.sourceforge.net/DTD/sodipodi-0.dtd"
   xmlns:inkscape="http://www.inkscape.org/namespaces/inkscape"
   viewBox="0 0 512 512"
   id="svg2"
   version="1.1"
   inkscape:version="0.48.5 r10040"
   sodipodi:docname="atomix.svg"
   width="512"
   height="512">
  <metadata
     id="metadata83">
    <rdf:RDF>
      <cc:Work
         rdf:about="">
        <dc:format>image/svg+xml</dc:format>
        <dc:type
           rdf:resource="http://purl.org/dc/dcmitype/StillImage" />
        <dc:title />
      </cc:Work>
    </rdf:RDF>
  </metadata>
  <sodipodi:namedview
     pagecolor="#ffffff"
     bordercolor="#666666"
     borderopacity="1"
     objecttolerance="10"
     gridtolerance="10"
     guidetolerance="10"
     inkscape:pageopacity="0"
     inkscape:pageshadow="2"
     inkscape:window-width="1920"
     inkscape:window-height="1007"
     id="namedview81"
     showgrid="false"
     inkscape:zoom="1.1035156"
     inkscape:cx="273.3429"
     inkscape:cy="255.50289"
     inkscape:window-x="0"
     inkscape:window-y="31"
     inkscape:window-maximized="1"
     inkscape:current-layer="svg2" />
  <defs
     id="defs4">
    <linearGradient
       id="linearGradient4276">
      <stop
         id="stop4278"
         style="stop-color:#bfbfef;stop-opacity:1" />
      <stop
         id="stop4280"
         style="stop-color:#8e44ad;stop-opacity:1"
         offset="1" />
    </linearGradient>
    <linearGradient
       id="linearGradient4237">
      <stop
         style="stop-color:#dedede;stop-opacity:1"
         id="stop7" />
      <stop
         offset="1"
         style="stop-color:#d3d3d3;stop-opacity:1"
         id="stop9" />
    </linearGradient>
    <linearGradient
       id="linearGradient4213">
      <stop
         style="stop-color:#bfbfef;stop-opacity:1"
         id="stop12" />
      <stop
         offset="1"
         style="stop-color:#a6a6ea;stop-opacity:1"
         id="stop14" />
    </linearGradient>
    <linearGradient
       id="linearGradient4241">
      <stop
         style="stop-color:#e99797;stop-opacity:1"
         id="stop17" />
      <stop
         offset="1"
         style="stop-color:#e17373;stop-opacity:1"
         id="stop19" />
    </linearGradient>
    <linearGradient
       id="linearGradient3844"
       gradientUnits="userSpaceOnUse"
       gradientTransform="matrix(0,1,-1,0,48,0)"
       x1="1"
       x2="47">
      <stop
         style="stop-color:#3a3a3a;stop-opacity:1"
         id="stop22" />
      <stop
         offset="1"
         style="stop-color:#303030;stop-opacity:1"
         id="stop24" />
    </linearGradient>
    <radialGradient
       xlink:href="#linearGradient4241"
       id="radialGradient3030"
       gradientUnits="userSpaceOnUse"
       gradientTransform="matrix(-6.4877596,0,-4.8822465e-7,-10.814315,400.41629,526.89404)"
       cx="23"
       cy="25.5"
       r="13.323" />
    <radialGradient
       xlink:href="#linearGradient4241"
       id="radialGradient3032"
       gradientUnits="userSpaceOnUse"
       gradientTransform="matrix(-0.33775116,0.58500217,-0.9750039,-0.56291871,56.630874,24.899378)"
       cx="23"
       cy="25.5"
       r="13.323" />
    <radialGradient
       xlink:href="#linearGradient4241"
       id="radialGradient3034"
       gradientUnits="userSpaceOnUse"
       gradientTransform="matrix(0.33775116,0.58077477,0.9750039,-0.5588509,-8.630874,24.892878)"
       cx="23"
       cy="25.5"
       r="13.323" />
    <radialGradient
       xlink:href="#linearGradient4276"
       id="radialGradient4219"
       cx="27"
       cy="22.75"
       r="2.5"
       gradientUnits="userSpaceOnUse" />
    <radialGradient
       xlink:href="#linearGradient4276"
       id="radialGradient4227"
       cx="24.75"
       cy="26"
       r="2.5"
       gradientUnits="userSpaceOnUse" />
    <radialGradient
       xlink:href="#linearGradient4276"
       id="radialGradient4235"
       cx="23"
       cy="22.5"
       r="2.5"
       gradientUnits="userSpaceOnUse" />
    <radialGradient
       xlink:href="#linearGradient4237"
       id="radialGradient4243"
       cx="26.75"
       cy="25.25"
       r="2.5"
       gradientUnits="userSpaceOnUse" />
    <radialGradient
       xlink:href="#linearGradient4237"
       id="radialGradient4251"
       cx="22.799999"
       cy="25"
       r="2.5"
       gradientUnits="userSpaceOnUse" />
    <radialGradient
       xlink:href="#linearGradient4237"
       id="radialGradient4259"
       cx="24.75"
       cy="22"
       r="2.5"
       gradientUnits="userSpaceOnUse" />
  </defs>
  <g
     transform="matrix(9.5748755,0,0,9.5744681,26.202965,26.21277)"
     id="g11" />
  <g
     transform="matrix(9.5748755,0,0,9.5744681,26.202965,26.21277)"
     style="fill:none;fill-opacity:1;stroke:#000000;stroke-opacity:1"
     id="g19">
    <path
       inkscape:connector-curvature="0"
       id="path21"
       style="fill:none;fill-opacity:1;stroke:#000000;stroke-opacity:1"
       d="M 24,1 C 36.703,1 47,11.297 47,24 47,36.703 36.703,47 24,47 11.297,47 1,36.703 1,24 1,11.297 11.297,1 24,1 Z" />
  </g>
  <g
     transform="matrix(9.5748755,0,0,9.5744681,26.202965,26.21277)"
     id="g39" />
  <path
     inkscape:connector-curvature="0"
     style="opacity:0.1;fill:#ffffff;fill-opacity:1"
     d="M 255.99998,35.78711 C 134.37032,35.78711 35.777315,134.37554 35.777315,256 c 0,1.67182 0.0274,3.33708 0.0644,5 C 38.500835,141.68602 136.04217,45.78711 255.99993,45.78711 c 119.95774,0 217.49908,95.89891 220.15819,215.21289 0.0371,-1.66292 0.0645,-3.32818 0.0645,-5 -4e-5,-121.62446 -98.59307,-220.21289 -220.22269,-220.21289 z"
     id="path21-62" />
  <g
     id="g59"
     transform="matrix(9.6043484,0,0,9.6055739,20.693464,20.595258)"
     style="fill:#000000;fill-opacity:1">
    <path
       inkscape:connector-curvature="0"
       id="path61"
       transform="matrix(0.1041195,0,0,0.10410622,-2.1545932,-2.1440945)"
       d="m 201.57031,121.46484 c -7.57955,0.11613 -15.21304,1.66663 -22.40429,5.79102 -11.50601,6.59903 -17.83627,17.46335 -22.04297,28.50976 -4.18188,10.98121 -5.84635,23.83324 -5.21485,38.04493 -0.0446,0.023 -0.0903,0.0453 -0.13476,0.0684 -12.8122,6.62784 -23.27097,14.59099 -30.80078,23.80273 -7.52981,9.21175 -13.83985,20.16276 -13.83985,33.44727 0,13.2845 6.31004,24.23552 13.83985,33.44726 7.52981,9.21175 17.98858,17.17489 30.80078,23.80274 15.88775,8.21885 35.42103,13.77372 57.19336,16.8125 13.29675,16.76257 27.59848,30.46077 42.375,39.85937 12.1495,7.72288 24.26934,12.76607 36.00586,14.66797 11.73651,1.91151 24.3768,1.90176 35.88281,-4.69727 11.50601,-6.59902 17.83431,-17.46335 22.04101,-28.50976 4.18381,-10.98627 5.84876,-23.84496 5.21485,-38.06445 0.0445,-0.023 0.0903,-0.0453 0.13476,-0.0684 12.8122,-6.62785 23.27293,-14.59099 30.80274,-23.80274 7.52981,-9.21174 13.83984,-20.16276 13.83984,-33.44726 0,-13.28451 -6.31003,-24.23552 -13.83984,-33.44727 -7.52981,-9.21174 -17.99054,-17.17489 -30.80274,-23.80273 -15.8916,-8.22085 -35.43029,-13.77421 -57.20898,-16.8125 -13.29213,-16.75317 -27.58696,-30.4451 -42.35742,-39.83985 -12.1495,-7.72288 -24.2713,-12.76606 -36.00781,-14.66797 -4.4012,-0.71681 -8.92883,-1.16342 -13.47657,-1.09375 z m 1.44922,11.03907 c 1.74012,0.0392 3.56666,0.20404 5.48633,0.51562 10.22863,1.66177 20.6699,4.85108 32.41602,12.32422 11.61615,7.38872 23.2138,17.50642 34.2832,29.81445 -7.80819,-0.5727 -15.82107,-0.87304 -24.00781,-0.87304 -32.85725,0 -63.10735,4.57076 -87.17579,14.06054 -0.47168,-13.31686 1.91908,-23.61971 5.49219,-32.97461 3.66886,-9.62478 9.68987,-14.91785 15.41406,-18.19336 4.65091,-2.66914 10.55127,-4.84354 18.0918,-4.67382 z m 48.17774,54.26757 c 12.27703,0 24.15739,0.74765 35.46093,2.17579 7.1228,9.23684 13.93346,19.35822 20.26368,30.24414 16.38444,28.17593 26.82103,56.58115 30.27343,81.55078 -23.4674,9.51503 -53.35175,14.74414 -85.99804,14.74414 -12.28713,0 -24.17549,-0.74925 -35.48633,-2.17969 -7.11366,-9.2281 -13.91553,-19.33784 -20.23828,-30.21094 -16.3904,-28.18618 -26.82682,-56.60192 -30.27539,-81.57812 23.46769,-9.51552 53.35281,-14.7461 86,-14.7461 z m 53.125,5.06055 c 16.72961,3.39257 31.75402,8.4235 44.29296,14.91016 12.38961,6.40692 20.38961,13.84083 26.95899,21.87109 6.56937,8.03026 8.16406,15.90699 8.16406,22.51563 0,6.60863 -1.59469,14.48536 -8.16406,22.51562 -6.46558,7.90338 -14.32669,15.22691 -26.38477,21.56445 -3.76794,-25.47728 -14.92462,-53.85911 -31.45312,-82.21484 -4.29615,-7.38861 -8.78174,-14.44804 -13.41406,-21.16211 z m -151.11719,15.2168 c 3.76514,25.48228 14.92042,53.87143 31.45312,82.23437 4.29145,7.38053 8.77348,14.43115 13.40039,21.13868 -16.72058,-3.39254 -31.73837,-8.4221 -44.27734,-14.90626 -12.38961,-6.40691 -20.39921,-13.84083 -26.95898,-21.87109 -6.56938,-8.03026 -8.16407,-15.90699 -8.16407,-22.51562 0,-6.60864 1.59469,-14.48537 8.16407,-22.51563 6.46537,-7.90313 14.32538,-15.22704 26.38281,-21.56445 z m 185.16797,106.86523 c 0.47595,13.33015 -1.91467,23.64065 -5.49024,33.00196 -3.66886,9.62478 -9.68987,14.91785 -15.41406,18.19336 -5.72419,3.2851 -13.34184,5.81996 -23.58008,4.1582 -10.22863,-1.65216 -20.66794,-4.85108 -32.41406,-12.32422 -11.62621,-7.39512 -23.23444,-17.52322 -34.3125,-29.8457 7.81742,0.57414 15.83816,0.875 24.03516,0.875 32.85629,0 63.10768,-4.56937 87.17578,-14.0586 z"
       style="color:#000000;display:inline;visibility:visible;fill:#000000;fill-opacity:1;stroke:none" />
    <path
       inkscape:connector-curvature="0"
       id="path63"
       style="color:#000000;display:inline;visibility:visible;fill:#000000;fill-opacity:1;stroke:none"
       d="m 17.07,20 c -2.02,3.49 -3.27,6.984 -3.409,9.985 -0.069,1.501 0.104,2.858 0.542,4.02 0.438,1.158 1.097,2.297 2.295,2.989 1.198,0.692 2.514,0.693 3.736,0.493 1.222,-0.2 2.484,-0.728 3.749,-1.538 2.53,-1.621 4.928,-4.455 6.943,-7.945 2.02,-3.49 3.27,-6.984 3.409,-9.985 0.069,-1.501 -0.104,-2.858 -0.542,-4.02 -0.438,-1.158 -1.097,-2.297 -2.295,-2.989 -1.198,-0.692 -2.514,-0.693 -3.736,-0.493 -1.222,0.2 -2.484,0.728 -3.749,1.538 -2.53,1.621 -4.928,4.455 -6.943,7.945 m 1.126,0.65 c 1.989,-3.445 4.427,-6.178 6.872,-7.744 1.223,-0.783 2.31,-1.119 3.375,-1.293 1.066,-0.174 1.859,0.092 2.455,0.436 0.596,0.344 1.223,0.898 1.605,1.908 0.382,1.01 0.635,2.119 0.568,3.569 -0.134,2.901 -1.282,6.379 -3.271,9.824 -1.989,3.445 -4.427,6.177 -6.872,7.744 -1.223,0.783 -2.31,1.119 -3.375,1.293 -1.066,0.174 -1.859,-0.092 -2.455,-0.436 -0.596,-0.344 -1.223,-0.898 -1.605,-1.908 -0.382,-1.01 -0.635,-2.119 -0.568,-3.569 0.134,-2.901 1.282,-6.379 3.271,-9.824" />
  </g>
  <g
     id="g67"
     transform="matrix(9.6043484,0,0,9.6043484,13.009993,20.624674)"
     style="fill:#000000;fill-opacity:1">
    <circle
       id="circle69"
       style="opacity:1;fill:#000000;fill-opacity:1;fill-rule:nonzero;stroke:none"
       r="2.5"
       cy="22.5"
       cx="23"
       d="m 25.5,22.5 c 0,1.380712 -1.119288,2.5 -2.5,2.5 -1.380712,0 -2.5,-1.119288 -2.5,-2.5 0,-1.380712 1.119288,-2.5 2.5,-2.5 1.380712,0 2.5,1.119288 2.5,2.5 z" />
    <circle
       id="circle71"
       style="opacity:1;fill:#000000;fill-opacity:1;fill-rule:nonzero;stroke:none"
       cx="24.75"
       cy="22"
       r="2.5"
       d="m 27.25,22 c 0,1.380712 -1.119288,2.5 -2.5,2.5 -1.380712,0 -2.5,-1.119288 -2.5,-2.5 0,-1.380712 1.119288,-2.5 2.5,-2.5 1.380712,0 2.5,1.119288 2.5,2.5 z" />
    <circle
       r="2.5"
       id="circle73"
       style="opacity:1;fill:#000000;fill-opacity:1;fill-rule:nonzero;stroke:none"
       cx="27"
       cy="22.75"
       d="m 29.5,22.75 c 0,1.380712 -1.119288,2.5 -2.5,2.5 -1.380712,0 -2.5,-1.119288 -2.5,-2.5 0,-1.380712 1.119288,-2.5 2.5,-2.5 1.380712,0 2.5,1.119288 2.5,2.5 z" />
    <circle
       id="circle75"
       style="opacity:1;fill:#000000;fill-opacity:1;fill-rule:nonzero;stroke:none"
       r="2.5"
       cy="25"
       cx="22.799999"
       d="m 25.299999,25 c 0,1.380712 -1.119288,2.5 -2.5,2.5 -1.380712,0 -2.5,-1.119288 -2.5,-2.5 0,-1.380712 1.119288,-2.5 2.5,-2.5 1.380712,0 2.5,1.119288 2.5,2.5 z" />
    <circle
       id="circle77"
       style="opacity:1;fill:#000000;fill-opacity:1;fill-rule:nonzero;stroke:none"
       cx="26.75"
       cy="25.25"
       r="2.5"
       d="m 29.25,25.25 c 0,1.380712 -1.119288,2.5 -2.5,2.5 -1.380712,0 -2.5,-1.119288 -2.5,-2.5 0,-1.380712 1.119288,-2.5 2.5,-2.5 1.380712,0 2.5,1.119288 2.5,2.5 z" />
    <circle
       id="circle79"
       style="opacity:1;fill:#000000;fill-opacity:1;fill-rule:nonzero;stroke:none"
       r="2.5"
       cy="26"
       cx="24.75"
       d="m 27.25,26 c 0,1.380712 -1.119288,2.5 -2.5,2.5 -1.380712,0 -2.5,-1.119288 -2.5,-2.5 0,-1.380712 1.119288,-2.5 2.5,-2.5 1.380712,0 2.5,1.119288 2.5,2.5 z" />
  </g>
</svg>
