<?xml version="1.0" encoding="UTF-8" standalone="no"?>
<!-- Generator: flash2svg, http://dissentgraphics.com/tools/flash2svg -->

<svg
   xmlns:dc="http://purl.org/dc/elements/1.1/"
   xmlns:cc="http://creativecommons.org/ns#"
   xmlns:rdf="http://www.w3.org/1999/02/22-rdf-syntax-ns#"
   xmlns:svg="http://www.w3.org/2000/svg"
   xmlns="http://www.w3.org/2000/svg"
   xmlns:sodipodi="http://sodipodi.sourceforge.net/DTD/sodipodi-0.dtd"
   xmlns:inkscape="http://www.inkscape.org/namespaces/inkscape"
   id="Font-Book"
   image-rendering="optimizeSpeed"
   version="1.1"
   style="background-color:#FFFFFF"
   x="0px"
   y="0px"
   width="1024px"
   height="1024px"
   viewBox="0 0 1024 1024"
   enable-background="new 0 0 1024 1024"
   inkscape:version="0.48.5 r10040"
   sodipodi:docname="kfontview.svg">
  <sodipodi:namedview
     pagecolor="#ffffff"
     bordercolor="#666666"
     borderopacity="1"
     objecttolerance="10"
     gridtolerance="10"
     guidetolerance="10"
     inkscape:pageopacity="0"
     inkscape:pageshadow="2"
     inkscape:window-width="1920"
     inkscape:window-height="1007"
     id="namedview25"
     showgrid="false"
     inkscape:zoom="0.65186406"
     inkscape:cx="239.79032"
     inkscape:cy="533.08798"
     inkscape:window-x="0"
     inkscape:window-y="31"
     inkscape:window-maximized="1"
     inkscape:current-layer="Font-Book" />
  <metadata
     id="metadata27">
    <rdf:RDF>
      <cc:Work
         rdf:about="">
        <dc:format>image/svg+xml</dc:format>
        <dc:type
           rdf:resource="http://purl.org/dc/dcmitype/StillImage" />
      </cc:Work>
    </rdf:RDF>
  </metadata>
  <defs
     id="defs3"
     transform="matrix(1 0 0 1 0 0) " />
  <g
     id="circle"
     transform="matrix(1.0286354,0,0,1.0286354,-22.609401,-19.54414)"
     style="fill:none;stroke:#000000;stroke-opacity:1;stroke-width:7.77729407;stroke-miterlimit:4;stroke-dasharray:none">
    <g
       id="shape2"
       style="fill:none;stroke:#000000;stroke-opacity:1;stroke-width:7.77729407;stroke-miterlimit:4;stroke-dasharray:none">
      <path
         d="m 982.9,511.35 q 0,-39.867 -5.75,-77.35 C 962.2,336.5 918.05,251.1 844.75,177.8 752.65,85.7 641.5,39.65 511.25,39.65 381,39.65 269.8,85.7 177.7,177.8 85.6,269.9 39.55,381.1 39.55,511.35 c 0,130.25 46.05,241.4 138.15,333.5 73.35,73.35 158.85,117.5 256.5,132.45 24.9,3.8 50.6,5.7 77.05,5.7 130.25,0 241.4,-46.05 333.5,-138.15 92.1,-92.1 138.15,-203.25 138.15,-333.5 z"
         id="path1"
         inkscape:connector-curvature="0"
         style="fill:none;fill-opacity:1;stroke:#000000;stroke-opacity:1;stroke-width:7.77729407;stroke-miterlimit:4;stroke-dasharray:none" />
    </g>
  </g>
  <path
     d="m 271.48928,186.07071 c -21.70421,0 -32.55631,10.85211 -32.55631,32.55631 l 0,561.17205 c 0,21.7042 10.85219,32.49303 32.55631,32.55631 l 460.38482,1.3423 c 21.24123,0.0619 27.87476,-2.7189 28.33764,-23.54877 l -1.69975,-119.06933 -55.69684,111.39901 0,-0.20572 -410.63125,0 c -5.91465,0 -10.95497,-2.10871 -15.17237,-6.32611 -4.16597,-4.11454 -2.53931,-10.3908 -6.22325,-15.01808 l -1.15055,-1.44516 c -3.68394,-4.62728 2.05728,-10.95497 6.22325,-15.17237 4.2174,-4.16598 9.25772,-6.22325 15.17237,-6.22325 l 50.55743,0 0,-552.01719 z"
     id="path10"
     inkscape:connector-curvature="0"
     style="fill:#000000;fill-opacity:1"
     sodipodi:nodetypes="sssssccccscsscsccs" />
  <g
     id="T"
     style="fill:#000000;fill-opacity:1"
     transform="matrix(1.0286354,0,0,1.0286354,-22.609401,-19.54414)">
    <g
       id="shape6"
       style="fill:#000000;fill-opacity:1">
      <path
         d="m 636.7,368.65 -184.9,0 0,53.8 59.55,0 0,190.15 65.95,0 0,-190.15 59.4,0 0,-53.8 z"
         id="path3"
         style="fill:#000000;fill-opacity:1"
         inkscape:connector-curvature="0" />
    </g>
  </g>
  <rect
     style="fill:none;stroke:#000000;stroke-width:14.3756876;stroke-linecap:butt;stroke-linejoin:miter;stroke-miterlimit:4;stroke-opacity:1;stroke-dasharray:none;stroke-dashoffset:0"
     id="rect3760"
     width="401.35376"
     height="536.37317"
     x="348.69806"
     y="195.00424" />
</svg>
