<?xml version="1.0" encoding="UTF-8" standalone="no"?>
<!-- Created with Inkscape (http://www.inkscape.org/) -->

<svg
   xmlns:dc="http://purl.org/dc/elements/1.1/"
   xmlns:cc="http://creativecommons.org/ns#"
   xmlns:rdf="http://www.w3.org/1999/02/22-rdf-syntax-ns#"
   xmlns:svg="http://www.w3.org/2000/svg"
   xmlns="http://www.w3.org/2000/svg"
   xmlns:sodipodi="http://sodipodi.sourceforge.net/DTD/sodipodi-0.dtd"
   xmlns:inkscape="http://www.inkscape.org/namespaces/inkscape"
   id="svg2"
   version="1.1"
   inkscape:version="0.48.5 r10040"
   width="512"
   height="512"
   sodipodi:docname="kget.svg">
  <metadata
     id="metadata8">
    <rdf:RDF>
      <cc:Work
         rdf:about="">
        <dc:format>image/svg+xml</dc:format>
        <dc:type
           rdf:resource="http://purl.org/dc/dcmitype/StillImage" />
        <dc:title />
      </cc:Work>
    </rdf:RDF>
  </metadata>
  <defs
     id="defs6" />
  <sodipodi:namedview
     pagecolor="#ffffff"
     bordercolor="#666666"
     borderopacity="1"
     objecttolerance="10"
     gridtolerance="10"
     guidetolerance="10"
     inkscape:pageopacity="0"
     inkscape:pageshadow="2"
     inkscape:window-width="1916"
     inkscape:window-height="1005"
     id="namedview4"
     showgrid="false"
     inkscape:zoom="1.3037281"
     inkscape:cx="100.135"
     inkscape:cy="204.04174"
     inkscape:window-x="0"
     inkscape:window-y="31"
     inkscape:window-maximized="0"
     inkscape:current-layer="svg2" />
  <ellipse
     cy="256"
     cx="255.99959"
     style="fill:none;fill-opacity:1;stroke:#000000;stroke-width:10.22725391000000172;stroke-opacity:1"
     id="path2983"
     rx="224.99959"
     ry="224.99948" />
  <path
     style="fill:#000000;fill-opacity:1;stroke:none;stroke-width:10.22725390999999995"
     d="m 255.99959,61.68237 -102.27254,102.27255 61.36353,0 0,184.09057 -61.36353,0 102.27254,102.27253 102.27254,-102.27253 -61.36352,0 0,-184.09057 61.36352,0 z"
     id="path2985"
     inkscape:connector-curvature="0"
     sodipodi:nodetypes="ccccccccccc" />
  <path
     style="opacity:0.29999999999999999;fill:#000000;fill-opacity:1;stroke:none;stroke-width:10.22725390999999995"
     d="m 256.00003,61.68148 -102.27375,102.27376 9.82516,0 92.44859,-92.44861 92.44669,92.44861 9.82515,0 L 256.00003,61.68148 Z m -102.27375,286.36307 9.82516,9.82515 51.53986,0 0,-9.82515 -61.36502,0 z m 143.18249,0 0,9.82515 51.53795,0 9.82515,-9.82515 -61.3631,0 z"
     id="path2985-8"
     inkscape:connector-curvature="0" />
  <path
     style="fill:#000000;fill-opacity:1;stroke:none"
     d="m 399.18115,218.40942 c 0,25.4178 -20.5203,46.02265 -143.18156,46.02265 -122.66126,0 -143.18155,-20.60485 -143.18155,-46.02265 0,-25.41779 20.68171,-46.02264 143.18155,-46.02264 122.49984,0 143.18156,20.60485 143.18156,46.02264 z"
     id="path3757"
     inkscape:connector-curvature="0"
     sodipodi:nodetypes="szszs" />
  <path
     style="opacity:0.3;fill:#ffffff;fill-opacity:1;stroke:none;stroke-width:10.22725391"
     d="M 256.00003,31.000891 A 224.99958,224.99948 0 0 0 31.000076,256.00085 224.99958,224.99948 0 0 0 31.203487,261.75203 224.99958,224.99948 0 0 1 256.00003,40.826051 224.99958,224.99948 0 0 1 480.79659,260.07292 224.99958,224.99948 0 0 0 481,256.00085 224.99958,224.99948 0 0 0 256.00003,31.000891 Z"
     id="path2983-7"
     inkscape:connector-curvature="0" />
</svg>
