<?xml version="1.0" encoding="UTF-8" standalone="no"?>
<!-- Created with Inkscape (http://www.inkscape.org/) -->

<svg
   xmlns:dc="http://purl.org/dc/elements/1.1/"
   xmlns:cc="http://creativecommons.org/ns#"
   xmlns:rdf="http://www.w3.org/1999/02/22-rdf-syntax-ns#"
   xmlns:svg="http://www.w3.org/2000/svg"
   xmlns="http://www.w3.org/2000/svg"
   xmlns:sodipodi="http://sodipodi.sourceforge.net/DTD/sodipodi-0.dtd"
   xmlns:inkscape="http://www.inkscape.org/namespaces/inkscape"
   width="512"
   height="512"
   viewBox="0 0 511.99999 512.00001"
   id="svg2"
   version="1.1"
   inkscape:version="0.48.5 r10040"
   sodipodi:docname="kodi.svg">
  <defs
     id="defs4" />
  <sodipodi:namedview
     id="base"
     pagecolor="#ffffff"
     bordercolor="#666666"
     borderopacity="1.0"
     inkscape:pageopacity="0.0"
     inkscape:pageshadow="2"
     inkscape:zoom="1.4"
     inkscape:cx="83.331251"
     inkscape:cy="237.85523"
     inkscape:document-units="px"
     inkscape:current-layer="layer1"
     showgrid="false"
     units="px"
     inkscape:window-width="1920"
     inkscape:window-height="1007"
     inkscape:window-x="0"
     inkscape:window-y="31"
     inkscape:window-maximized="1" />
  <metadata
     id="metadata7">
    <rdf:RDF>
      <cc:Work
         rdf:about="">
        <dc:format>image/svg+xml</dc:format>
        <dc:type
           rdf:resource="http://purl.org/dc/dcmitype/StillImage" />
        <dc:title />
      </cc:Work>
    </rdf:RDF>
  </metadata>
  <g
     inkscape:label="Capa 1"
     inkscape:groupmode="layer"
     id="layer1"
     transform="translate(0,-540.36216)">
    <path
       style="opacity:1;fill:#000000;fill-opacity:1;fill-rule:nonzero;stroke:none;stroke-width:2;stroke-miterlimit:4;stroke-dasharray:none;stroke-opacity:0"
       d="m 257.14258,62.847656 c -6.39049,0 -63.31691,54.243894 -69.55274,66.275394 -2.65279,5.11838 -3.94197,143.43064 -1.42578,152.96679 2.15566,8.16992 7.9935,3.09945 74.8418,-64.99414 69.12192,-70.40957 72.87872,-74.72151 71.1582,-81.64453 -2.11722,-8.5191 -68.33602,-72.603514 -75.02148,-72.603514 z m 115.1875,118.087894 c -8.86498,0.20701 -17.96453,11.24535 -39.90625,33.41211 -44.89207,45.3525 -45.04748,38.06933 1.8164,85.13476 41.90429,42.08448 34.5744,42.1484 77.13477,-0.67969 46.07069,-46.36052 46.11508,-39.26489 -0.54688,-86.28515 -21.0027,-21.16396 -29.63306,-31.78904 -38.49804,-31.58203 z m -239.29102,5.0664 c -6.18057,0.34466 -67.306925,64.67474 -66.587888,70.26758 0.62458,4.85826 63.774758,70.76808 66.818358,69.73828 1.64964,-0.55817 2.30169,-17.66502 2.6582,-69.75195 0.43752,-63.91755 0.24353,-69.10008 -2.63671,-70.22266 -0.07,-0.0273 -0.15385,-0.0367 -0.25196,-0.0312 z m 124.99219,109.36133 c -8.51707,0 -74.80664,67.99613 -74.80664,76.73242 0,5.49326 3.28167,9.52276 31.09375,38.16602 38.1065,39.24536 40.65457,41.10583 49.66211,36.28711 12.00748,-6.42357 68.85937,-67.81144 68.85937,-74.35352 0,-8.82725 -66.21391,-76.83203 -74.80859,-76.83203 z"
       id="rect4151"
       inkscape:connector-curvature="0"
       sodipodi:nodetypes="sssssssssssscsssccssssss"
       transform="translate(0,540.36216)" />
  </g>
</svg>
