<?xml version="1.0" encoding="UTF-8" standalone="no"?>
<!-- Created with Inkscape (http://www.inkscape.org/) -->

<svg
   xmlns:dc="http://purl.org/dc/elements/1.1/"
   xmlns:cc="http://creativecommons.org/ns#"
   xmlns:rdf="http://www.w3.org/1999/02/22-rdf-syntax-ns#"
   xmlns:svg="http://www.w3.org/2000/svg"
   xmlns="http://www.w3.org/2000/svg"
   xmlns:sodipodi="http://sodipodi.sourceforge.net/DTD/sodipodi-0.dtd"
   xmlns:inkscape="http://www.inkscape.org/namespaces/inkscape"
   id="svg3017"
   version="1.1"
   inkscape:version="0.48.5 r10040"
   width="512"
   height="512"
   sodipodi:docname="libreoffice3-impress.svg"
   viewBox="0 0 512 512">
  <metadata
     id="metadata3023">
    <rdf:RDF>
      <cc:Work
         rdf:about="">
        <dc:format>image/svg+xml</dc:format>
        <dc:type
           rdf:resource="http://purl.org/dc/dcmitype/StillImage" />
        <dc:title />
      </cc:Work>
    </rdf:RDF>
  </metadata>
  <defs
     id="defs3021" />
  <sodipodi:namedview
     pagecolor="#ffffff"
     bordercolor="#666666"
     borderopacity="1"
     objecttolerance="10"
     gridtolerance="10"
     guidetolerance="10"
     inkscape:pageopacity="0"
     inkscape:pageshadow="2"
     inkscape:window-width="1920"
     inkscape:window-height="1007"
     id="namedview3019"
     showgrid="false"
     inkscape:zoom="1.5585938"
     inkscape:cx="131.84963"
     inkscape:cy="256"
     inkscape:window-x="0"
     inkscape:window-y="31"
     inkscape:window-maximized="1"
     inkscape:current-layer="svg3017"
     inkscape:document-units="px" />
  <path
     inkscape:connector-curvature="0"
     id="path2986"
     d="m 116.01094,480.6215 c -1.79573,-0.23076 -5.2855,-1.08954 -7.75508,-1.90843 -16.332352,-5.41572 -27.988312,-19.22532 -30.545596,-36.18944 -0.592554,-3.93089 -0.690312,-30.202 -0.691609,-185.8008 0,-126.91231 0.153257,-182.510575 0.514783,-185.520353 2.079837,-17.315421 13.705705,-31.548832 30.497972,-37.3383 l 4.55908,-1.571842 76.69938,-0.0045 76.69933,-0.0045 84.26859,84.806575 84.26855,84.80658 0.32132,117.78546 c 0.22504,82.50627 0.16851,119.00124 -0.18881,121.84447 -2.52401,20.08351 -18.66621,36.35621 -38.80835,39.12203 -4.62085,0.6345 -274.89426,0.60803 -279.83956,-0.0273 z"
     style="fill:none;fill-opacity:1;stroke-width:16;stroke:#000000;stroke-opacity:1;stroke-miterlimit:4;stroke-dasharray:none"
     sodipodi:nodetypes="cssssscccccssscc" />
  <path
     style="fill:#000000;fill-opacity:1;fill-rule:evenodd;stroke:none;stroke-width:0.44721052000000000px;stroke-linecap:butt;stroke-linejoin:miter;stroke-opacity:1"
     d="M 271.45703 142.49023 C 271.00285 142.03603 142.97417 164.48256 142.07617 165.17383 C 141.60008 165.54033 141.50355 182.80223 141.59961 249.72852 L 141.7207 333.82422 L 205.4707 345.14062 C 240.53334 351.36478 269.75743 356.41982 270.41406 356.37305 L 271.60742 356.28711 L 271.72852 249.58398 C 271.79472 190.89733 271.67275 142.70596 271.45703 142.49023 z M 279.24805 172.91602 L 279.24805 176.73633 L 279.24805 180.55664 L 321.0332 180.79492 L 362.81641 181.03516 L 362.93359 229.98047 C 362.99849 256.90121 363.15717 279.2055 363.28516 279.54492 C 363.45447 279.99374 364.52979 280.12497 367.22656 280.02344 L 370.93359 279.88281 L 370.93359 226.40039 L 370.93359 172.91602 L 325.0918 172.91602 L 279.24805 172.91602 z M 279.24805 188.19727 L 279.11719 196.2793 C 279.02609 201.88732 279.15029 204.46463 279.52344 204.69531 C 279.81931 204.87818 280.84645 204.84572 281.80469 204.62305 C 282.76293 204.40034 284.24196 204.21134 285.0918 204.20508 L 286.63672 204.19531 L 286.76367 219.11719 L 286.88867 234.04102 L 301.93164 234.2793 L 316.97266 234.51758 L 316.8125 237.14453 C 316.7238 238.58906 316.11573 241.38037 315.46289 243.34766 C 312.41354 252.53667 305.16531 259.77113 296 262.77148 C 292.79153 263.8218 291.33887 264.02477 287.36719 263.97852 C 284.74081 263.94792 281.83916 263.861 280.91992 263.78516 L 279.24805 263.64648 L 279.24805 267.94531 L 279.24805 272.24219 L 305.75195 272.48047 L 332.25391 272.7207 L 332.25391 276.0625 L 332.25391 279.40625 L 305.75195 279.64453 L 279.24805 279.88281 L 279.24805 287.52344 L 279.24805 295.16406 L 305.75195 295.40234 L 332.25391 295.64062 L 332.25391 298.98438 L 332.25391 302.32617 L 305.75195 302.56641 L 279.24805 302.80469 L 279.11914 313.77734 C 279.04834 319.81241 279.09581 325.02382 279.22461 325.35938 C 279.41244 325.84886 286.9915 325.94574 317.55664 325.84766 L 355.65234 325.72656 L 355.65234 256.96094 L 355.65234 188.19727 L 317.45117 188.19727 L 279.24805 188.19727 z M 294.76758 196.55469 L 296.81641 196.55469 C 299.78821 196.55469 304.04253 197.75148 308.13867 199.74023 C 313.39899 202.29421 318.80129 207.80682 321.39453 213.26758 C 323.34369 217.37207 324.25244 220.52763 324.48633 224.01172 L 324.61328 225.92188 L 310.01562 226.04883 C 301.98694 226.11823 295.27259 226.02838 295.09375 225.84961 C 294.91491 225.67078 294.76758 219.00585 294.76758 211.03906 L 294.76758 196.55469 z M 207.92578 213.78906 C 212.98276 213.74676 214.87427 213.90577 216.57227 214.35742 C 222.47585 215.92775 226.42894 219.64664 228.46875 225.55273 C 229.43258 228.34344 229.58594 229.70422 229.58594 235.47266 C 229.58594 242.98298 229.12564 245.2449 226.59961 250.14453 C 222.85494 257.40775 215.13929 261.49805 205.18359 261.49805 C 202.60743 261.49805 201.10346 261.70019 200.87109 262.07617 C 200.6749 262.3936 200.34613 267.70083 200.14062 273.87109 C 199.93514 280.04134 199.66016 285.36799 199.5293 285.70898 C 199.28034 286.35776 197.78888 286.39405 192.09961 285.88867 L 188.99609 285.61328 L 188.87305 250.30273 C 188.80525 230.7599 188.93639 214.80778 189.16602 214.57812 C 189.39427 214.3499 195.03531 214.04213 201.70312 213.89453 C 204.202 213.83922 206.24012 213.80316 207.92578 213.78906 z M 200.45508 225.92188 L 200.51953 236.54492 C 200.59543 249.41587 200.64459 249.56192 204.88477 249.55469 C 206.74915 249.55169 208.39023 249.19252 210.04102 248.42383 C 214.63829 246.28312 216.72083 242.3048 216.375 236.33203 C 216.11401 231.82485 214.64334 228.92903 211.75195 227.23047 C 209.75255 226.05593 209.07353 225.92465 204.99219 225.92383 L 200.45508 225.92188 z "
     id="rect2993" />
  <path
     inkscape:connector-curvature="0"
     id="path2984"
     d="m 432.66923,139.10075 c -0.71436,-0.31578 -19.72249,-19.26944 -42.24029,-42.119243 -22.51778,-22.8498 -45.50045,-46.16805 -51.07257,-51.818325 -9.82441,-9.962185 -11.21539,-11.767455 -10.50117,-13.62871 0.25553,-0.665889 3.8033,-0.726708 33.83674,-0.580104 l 33.55128,0.163784 4.54202,1.238928 c 16.77279,4.575122 28.27804,16.07945 32.86584,32.863211 l 1.24155,4.542019 0.0152,34.81958 c 0.01,22.81668 -0.14936,34.8667 -0.46227,34.95629 -0.26264,0.0752 -1.06201,-0.12165 -1.77638,-0.43743 z"
     style="fill:#000000;fill-opacity:1;stroke-width:0.44721052000000000" />
</svg>
