<?xml version="1.0" encoding="UTF-8" standalone="no"?>
<!-- Created with Inkscape (http://www.inkscape.org/) -->

<svg
   xmlns:dc="http://purl.org/dc/elements/1.1/"
   xmlns:cc="http://creativecommons.org/ns#"
   xmlns:rdf="http://www.w3.org/1999/02/22-rdf-syntax-ns#"
   xmlns:svg="http://www.w3.org/2000/svg"
   xmlns="http://www.w3.org/2000/svg"
   xmlns:sodipodi="http://sodipodi.sourceforge.net/DTD/sodipodi-0.dtd"
   xmlns:inkscape="http://www.inkscape.org/namespaces/inkscape"
   id="svg3007"
   version="1.1"
   inkscape:version="0.48.5 r10040"
   width="512"
   height="512"
   sodipodi:docname="libreoffice3-math.svg"
   viewBox="0 0 512 512">
  <metadata
     id="metadata3013">
    <rdf:RDF>
      <cc:Work
         rdf:about="">
        <dc:format>image/svg+xml</dc:format>
        <dc:type
           rdf:resource="http://purl.org/dc/dcmitype/StillImage" />
        <dc:title />
      </cc:Work>
    </rdf:RDF>
  </metadata>
  <defs
     id="defs3011" />
  <sodipodi:namedview
     pagecolor="#ffffff"
     bordercolor="#666666"
     borderopacity="1"
     objecttolerance="10"
     gridtolerance="10"
     guidetolerance="10"
     inkscape:pageopacity="0"
     inkscape:pageshadow="2"
     inkscape:window-width="1920"
     inkscape:window-height="1007"
     id="namedview3009"
     showgrid="false"
     inkscape:zoom="2.2041845"
     inkscape:cx="302.42579"
     inkscape:cy="349.57331"
     inkscape:window-x="0"
     inkscape:window-y="31"
     inkscape:window-maximized="1"
     inkscape:current-layer="g5035" />
  <g
     id="g5035"
     transform="translate(0,-512)">
    <path
       style="fill:none;fill-opacity:1;stroke-width:16;stroke:#000000;stroke-opacity:1;stroke-miterlimit:4;stroke-dasharray:none"
       d="M 107.00601,991.931 C 93.170307,987.21952 82.870423,976.89283 78.235467,963.08555 l -1.224635,-3.64813 0,-190.51576 0,-190.51575 1.224635,-3.64813 c 3.977928,-11.85004 11.90146,-20.93315 23.057173,-26.43153 l 4.9992,-2.46398 79.32044,-0.12316 79.32043,-0.12315 69.92422,70.34996 c 38.45832,38.69249 76.18109,76.67039 83.8284,84.39533 l 13.90417,14.04537 0.33665,122.36129 0.33664,122.36128 -1.28399,3.80224 c -4.74235,14.04331 -15.01161,24.34619 -28.92052,29.01527 l -3.64813,1.22466 -144.41665,-0.012 -144.41663,-0.012 -3.57086,-1.21597 z M 431.15334,652.75886 c -0.70212,-0.21188 -1.66625,-0.67553 -2.14251,-1.03032 -0.47628,-0.3548 -16.28088,-16.28543 -35.12134,-35.4014 -18.84047,-19.11598 -41.38028,-41.93688 -50.08848,-50.71313 -10.30337,-10.38388 -16.08667,-16.56373 -16.55917,-17.69459 -0.90492,-2.16576 -0.25372,-4.54252 1.35523,-4.94634 0.58033,-0.14565 15.93145,-0.18835 34.1136,-0.0949 l 33.05846,0.16993 4.76114,1.29038 c 16.34444,4.42971 28.51204,16.59672 32.94889,32.94729 l 1.29198,4.76114 0.16681,34.91171 c 0.12595,26.36031 0.029,35.07774 -0.39571,35.58953 -0.61762,0.74418 -1.44977,0.79591 -3.3889,0.2107 z"
       id="path5021"
       inkscape:connector-curvature="0"
       sodipodi:nodetypes="cscccsscccsscccssccccccsssssscsscscc" />
    <path
       style="fill:#000000;stroke-width:0.47611397999999999;fill-opacity:1"
       d="M 282.63867 159.00781 C 281.55432 159.01121 279.60803 159.30365 275.88281 159.96094 C 270.05686 160.98888 170.4299 176.39433 148.9043 179.5957 C 145.89288 180.04357 142.94661 180.58664 142.35742 180.80273 L 141.28711 181.19531 L 141.28711 265.18359 C 141.28711 331.8154 141.4087 349.26476 141.88086 349.62305 C 142.20818 349.87144 159.93749 352.70632 181.2793 355.92383 C 239.73446 364.73658 267.53808 369.13245 274.62891 370.68359 C 278.14745 371.45328 281.77489 372.0438 282.69141 371.99414 L 284.35938 371.90234 L 284.48633 360.8457 L 284.61328 349.78711 L 329.95508 349.65625 L 375.29688 349.52539 L 377.77734 348.4043 C 380.82892 347.02442 382.12467 344.71056 382.69531 339.61914 C 382.90643 337.73552 383.02108 302.87785 382.95117 262.1582 C 382.82486 188.58854 382.81927 188.11122 381.84961 186.21875 C 380.63618 183.85054 379.66572 182.96284 376.95312 181.73242 C 374.85629 180.78131 374.03635 180.76419 329.70898 180.75391 L 284.5957 180.74414 L 284.5957 170.32812 C 284.5957 161.49568 284.4839 159.81681 283.85742 159.29688 C 283.62921 159.10748 283.28928 159.00577 282.63867 159.00781 z M 284.12109 188.36133 L 328.39844 188.36133 L 372.67773 188.36133 L 372.67773 264.30078 L 372.67773 340.24219 L 328.39844 340.24219 L 284.12109 340.24219 L 284.15625 305.60352 L 284.19336 270.9668 L 287.13281 282.15625 C 288.7496 288.31003 290.26491 293.64289 290.5 294.00781 C 290.8453 294.54383 292.15949 294.61962 297.3418 294.40234 C 301.01255 294.24843 303.98743 293.90852 304.29492 293.60742 C 304.59048 293.31802 307.83725 280.49859 311.51172 265.12109 L 318.19336 237.16211 L 325.79492 236.87109 C 329.97633 236.71015 341.44245 236.54913 351.27539 236.51367 C 364.47154 236.46607 369.30485 236.29866 369.72656 235.87695 C 370.11691 235.4866 370.29687 233.18031 370.29688 228.59375 C 370.29688 224.00719 370.11691 221.69893 369.72656 221.30859 C 368.98485 220.56687 303.85968 220.47294 303.40234 221.21289 C 303.24062 221.47457 301.62522 231.58525 299.8125 243.68164 C 297.99978 255.77804 296.45004 265.8784 296.36719 266.12695 C 296.28429 266.3755 295.29302 263.71001 294.16406 260.20312 C 293.03509 256.69624 291.89438 253.55975 291.62891 253.23242 C 291.32175 252.8537 289.86802 252.63672 287.63281 252.63672 L 284.12109 252.63672 L 284.12109 220.49805 L 284.12109 188.36133 z M 218.28711 244.60742 C 219.96131 244.60148 221.2652 244.70462 221.59766 244.91602 C 222.31917 245.37484 224.29433 252.42981 230.55273 276.91797 C 233.33008 287.78528 235.69257 296.94416 235.80273 297.27148 C 236.00683 297.878 234.63975 297.92021 227.67969 297.51758 L 224.80078 297.35156 L 221.33398 279.63672 C 219.42693 269.89343 217.76087 261.54615 217.63281 261.08789 C 217.50474 260.62963 216.99571 260.25391 216.50195 260.25391 C 215.39553 260.25391 215.59147 259.56093 210.9668 279.95898 C 208.94152 288.89193 207.27122 296.22794 207.25586 296.26172 C 207.24046 296.29552 204.77147 296.19015 201.76953 296.02539 L 196.3125 295.72461 L 191.94336 278.10938 C 188.17491 262.9141 187.45393 260.49219 186.69922 260.49219 C 185.99097 260.49219 185.70844 261.12836 185.21875 263.82617 C 183.42601 273.70283 179.77333 292.9809 179.55859 293.70117 C 179.34394 294.42115 178.67644 294.53516 174.64258 294.53516 L 169.97461 294.53516 L 171.11914 289.17773 C 174.79642 271.97389 180.51621 247.55718 180.97852 247.08594 C 181.29684 246.76147 183.62395 246.46312 186.64648 246.35938 L 191.77539 246.18359 L 192.21875 247.86328 C 192.46247 248.78662 194.06572 255.43355 195.78125 262.63477 C 200.3349 281.74949 199.96502 280.49023 201.00195 280.49023 C 201.78159 280.49023 202.12792 279.51632 203.46094 273.58594 C 204.31442 269.78894 206.17902 261.86065 207.60352 255.96875 L 210.19336 245.25781 L 212.75781 244.94727 C 214.56946 244.72824 216.61291 244.61337 218.28711 244.60742 z M 359.72852 245.9082 C 358.01232 245.88149 356.50467 245.95841 356.01367 246.11719 C 355.27398 246.35641 353.21464 248.65428 350.57422 252.1875 C 348.23735 255.31453 346.19369 257.87305 346.03125 257.87305 C 345.86881 257.87305 343.74494 255.30301 341.3125 252.16016 C 338.78846 248.89898 336.44706 246.33354 335.85742 246.18555 C 335.28917 246.04293 333.10965 245.99072 331.01562 246.06836 C 327.57034 246.19611 327.19503 246.30283 327.06641 247.20312 C 326.98771 247.75379 328.23314 250.51738 329.85547 253.39258 C 331.46755 256.2496 333.40672 259.68626 334.16406 261.02734 L 335.54102 263.46484 L 331.00781 269.12109 C 325.0954 276.49875 325.11072 276.63657 331.83398 276.81445 L 336.93555 276.95117 L 341.47266 272.85352 L 346.00977 268.75586 L 350.83008 273.13672 L 355.65234 277.51562 L 360.22266 277.18164 C 362.73612 276.99714 364.95958 276.74161 365.16406 276.61523 C 366.0677 276.05675 365.25468 274.63299 361.01367 269.34961 C 358.52597 266.25046 356.49023 263.60037 356.49023 263.46094 C 356.49023 263.32151 358.64416 259.73843 361.27734 255.49805 C 363.91053 251.25767 365.99673 247.4322 365.91406 246.99805 C 365.79155 246.35465 364.97316 246.16474 361.48438 245.9707 C 360.89585 245.93797 360.30058 245.91711 359.72852 245.9082 z "
       transform="translate(0,512)"
       id="path5033" />
    <path
       style="fill:#000000;fill-opacity:1;stroke-width:0.47611397999999999"
       d="m 430.52545,652.09743 c -0.78559,-0.35015 -2.38336,-1.68568 -3.5506,-2.96783 -1.16725,-1.28214 -23.87789,-24.36729 -50.46809,-51.30032 -26.59019,-26.93304 -48.6079,-49.57457 -48.92823,-50.31452 -0.43032,-0.99402 -0.44924,-1.72738 -0.0725,-2.80824 l 0.50996,-1.46288 31.50847,0 c 18.98333,0 33.07968,0.19702 35.46106,0.49562 20.59364,2.58222 36.77672,18.97393 39.1292,39.63364 0.31548,2.77058 0.44799,16.31833 0.35959,36.76315 l -0.14,32.37575 -1.19028,0.11114 c -0.65466,0.0611 -1.83304,-0.17535 -2.61863,-0.52551 z"
       id="path5019"
       inkscape:connector-curvature="0" />
  </g>
</svg>
