<?xml version="1.0" encoding="UTF-8" standalone="no"?>
<!-- Created with Inkscape (http://www.inkscape.org/) -->

<svg
   xmlns:dc="http://purl.org/dc/elements/1.1/"
   xmlns:cc="http://creativecommons.org/ns#"
   xmlns:rdf="http://www.w3.org/1999/02/22-rdf-syntax-ns#"
   xmlns:svg="http://www.w3.org/2000/svg"
   xmlns="http://www.w3.org/2000/svg"
   xmlns:sodipodi="http://sodipodi.sourceforge.net/DTD/sodipodi-0.dtd"
   xmlns:inkscape="http://www.inkscape.org/namespaces/inkscape"
   id="svg2997"
   version="1.1"
   inkscape:version="0.48.5 r10040"
   width="512"
   height="512"
   sodipodi:docname="libreoffice3-base.svg"
   viewBox="0 0 512 512">
  <metadata
     id="metadata3003">
    <rdf:RDF>
      <cc:Work
         rdf:about="">
        <dc:format>image/svg+xml</dc:format>
        <dc:type
           rdf:resource="http://purl.org/dc/dcmitype/StillImage" />
        <dc:title />
      </cc:Work>
    </rdf:RDF>
  </metadata>
  <defs
     id="defs3001" />
  <sodipodi:namedview
     pagecolor="#ffffff"
     bordercolor="#666666"
     borderopacity="1"
     objecttolerance="10"
     gridtolerance="10"
     guidetolerance="10"
     inkscape:pageopacity="0"
     inkscape:pageshadow="2"
     inkscape:window-width="1920"
     inkscape:window-height="1007"
     id="namedview2999"
     showgrid="true"
     inkscape:zoom="4.4083687"
     inkscape:cx="67.951358"
     inkscape:cy="70.337543"
     inkscape:window-x="0"
     inkscape:window-y="31"
     inkscape:window-maximized="1"
     inkscape:current-layer="g3415"
     showguides="true">
    <inkscape:grid
       type="xygrid"
       id="grid4144" />
  </sodipodi:namedview>
  <g
     id="g3415"
     transform="matrix(0.44567629,0,0,0.44567629,25.150996,28.293316)"
     style="fill:#d41a1a;fill-opacity:1">
    <path
       style="fill:none;stroke:#000000;stroke-width:8.97512407;stroke-miterlimit:4;stroke-opacity:1;stroke-dasharray:none"
       d="m 205.65514,10.14446 -8.01102,2.107927 -8.00662,2.107927 -9.61056,4.706683 -9.61057,4.702298 -8.76915,7.016198 -8.76477,7.016198 -7.0162,8.769151 -7.02058,8.769152 -4.69792,9.610569 -4.69791,9.606188 -2.37526,8.011 -2.37525,8.006616 -0.78006,30.435663 -0.77569,30.43128 0.39004,256.80337 c 0.0332,21.71002 0.0344,35.2378 0.0657,57.79051 l -0.45139,-1.73105 0,3.73818 0,3.73816 0.45577,-1.74855 c 0.007,5.44231 0.006,8.4786 0.0132,13.93159 l -0.298,-5.77599 0,14.41367 0,14.41367 0.31553,-6.13535 c 0.14506,110.80105 0.30754,233.94769 0.31553,283.34309 l 0.0175,116.24276 -0.28486,-181.30803 -0.28923,-184.37568 0.0876,197.00572 0.0789,186.488 -0.49083,-1.22708 -0.0876,2.05097 -0.0833,2.04658 0.6442,-0.64861 0.0175,-0.018 0.004,8.31776 0.48645,1.93264 c -0.0307,0.0673 -0.0833,0.12318 -0.0833,0.20149 0,0.17928 0.10443,0.315 0.24103,0.41196 l 0.97289,3.86087 c 0.0432,0.1712 0.12424,0.44099 0.17091,0.62231 -0.17699,0.0873 -0.31553,0.23293 -0.31553,0.44261 0,0.29365 0.23663,0.53465 0.53027,0.53465 0,-2.5e-4 0.0353,-0.0399 0.0394,-0.0438 0.6206,2.35267 1.34658,4.9183 2.12546,7.53331 -0.0103,-6e-4 -0.0157,-0.0135 -0.0263,-0.0135 -0.29365,0 -0.53465,0.241 -0.53465,0.53465 0,0.29364 0.241,0.53027 0.53465,0.53027 0.11921,0 0.21765,-0.0561 0.30677,-0.12274 0.28292,0.93577 0.59488,2.0271 0.84142,2.79596 l 0.87209,2.71708 c -0.23158,0.0583 -0.42071,0.23744 -0.42071,0.48643 0,0.29364 0.24102,0.53027 0.53465,0.53027 0.0731,0 0.12483,-0.0476 0.18844,-0.0745 l 0.88086,2.74776 0.0438,-3.70751 1.02109,6.90665 4.06247,7.21339 4.05809,7.21342 6.42458,7.98907 6.42457,7.98472 8.52812,6.82336 8.52813,6.82348 7.52456,3.874 7.52454,3.8696 341.47542,0 341.47542,0 7.52457,-3.8696 7.52454,-3.874 8.43172,-6.74459 8.42731,-6.74449 5.90307,-7.27036 c 3.24626,-3.99885 7.16953,-9.29994 8.71658,-11.78425 l 2.8135,-4.51824 0,-64.10552 c 0.002,34.65601 0.19004,62.99678 0.4207,62.99678 0.17637,0 1.4745,-2.91669 2.99754,-6.53851 0.0904,0.0705 0.19274,0.13148 0.31554,0.13148 0.29364,0 0.53465,-0.241 0.53465,-0.53464 0,-0.26701 -0.20777,-0.47012 -0.46453,-0.50835 0.36035,-0.86714 0.64002,-1.48274 1.0211,-2.42784 l 0.7976,-1.97208 c 0.0788,0.0458 0.15257,0.10074 0.24977,0.10074 0.29367,0 0.53465,-0.23663 0.53465,-0.53027 2e-5,-0.24754 -0.18691,-0.42672 -0.41631,-0.48643 l 2.81788,-6.98992 -0.55657,-54.79295 c -0.30592,-30.13541 -0.80431,-55.03633 -1.10437,-55.33637 l -0.42509,-0.42509 0.74938,-0.35936 -0.0482,-221.63472 L 924.71626,389.5572 736.22612,200.0236 547.73537,10.489839 376.69526,10.31893 z m 713.86417,825.21621 -2.17804,1.12627 0,-0.0877 z m -795.54745,68.06281 0.0175,0.11398 -0.0175,-0.004 z m 62.46213,106.07562 2.80472,1.1964 c -0.0725,0.091 -0.13575,0.195 -0.13575,0.3199 0,0.2936 0.24103,0.5347 0.53465,0.5347 0.28021,0 0.5009,-0.2245 0.52152,-0.4996 1.22966,0.4932 3.19789,1.1513 5.45607,1.8537 -0.046,0.079 -0.10523,0.1524 -0.10523,0.2498 0,0.2936 0.241,0.5303 0.53465,0.5303 0.27814,0 0.49358,-0.2186 0.51712,-0.4909 1.02705,0.3118 2.04402,0.639 3.02823,0.9116 l 6.74887,1.8713 3.0852,0.3023 c -0.004,0.03 -0.035,0.048 -0.035,0.079 0,0.2936 0.24101,0.5303 0.53465,0.5303 0.28516,0 0.51257,-0.2264 0.52588,-0.5084 l 4.62342,0.4514 5.51304,0.539 -1.05178,0.4208 2.04658,0.083 2.04657,0.083 -0.31991,-0.3199 0.4996,0.048 308.59438,-0.1665 298.69459,-0.1622 -0.60479,0.6003 1.42429,0 1.42428,0 -0.60039,-0.6003 8.25202,0 2.05973,-0.4996 c 0.0296,0 0.0478,0.035 0.079,0.035 0.12475,0 0.22873,-0.059 0.31992,-0.1315 l 5.42537,-1.3103 c 4.33606,-1.0485 10.10271,-2.8115 12.8141,-3.9135 l 1.20516,-0.4908 c 0.0157,0.2791 0.2384,0.5083 0.52149,0.5083 0.29365,0 0.53465,-0.241 0.53465,-0.5346 0,-0.1333 -0.0631,-0.248 -0.14472,-0.3418 l 2.8135,-1.1439 -340.09498,-0.013 z"
       id="path3421"
       inkscape:connector-curvature="0"
       sodipodi:nodetypes="cccccccccccccccccccccccccccccccccccccccscccscccssscccssccccccccccccccccccccccscsscccscccscccccccccccccccccccssccssccccssccccccccccccccccsccccsscccc" />
    <path
       style="opacity:1;fill:#000000;fill-opacity:1;stroke:#000000;stroke-width:0;stroke-miterlimit:4;stroke-dasharray:none;stroke-opacity:1"
       d="m 549.90027,312.50707 c -0.5512,0 -65.0587,11.28689 -143.35219,25.08477 -78.29347,13.79786 -143.43314,25.34189 -144.75455,25.6501 l -2.40154,0.55657 0,187.41267 0,187.41269 1.86689,0.72308 c 1.02774,0.39751 66.01412,12.08933 144.41711,25.98316 78.40288,13.89383 143.03218,25.16665 143.61948,25.04973 l 1.0693,-0.21473 0.2674,-238.83119 0.2717,-238.82683 z m 60.7968,68.34767 c -12.6267,6.6e-4 -27.6459,0.30884 -33.3718,0.68804 l -10.4082,0.69241 0,43.00872 0,43.00435 6.1397,0.67051 c 3.3769,0.36816 7.0994,0.81775 8.274,0.99918 1.1746,0.1813 11.7438,0.3954 23.4895,0.47331 l 21.3598,0.14023 17.0825,-1.07369 c 9.3966,-0.59122 21.1709,-1.58873 26.1629,-2.21311 4.9919,-0.62438 14.8425,-2.08459 21.89,-3.24734 7.0474,-1.16275 18.3578,-3.49868 25.1373,-5.18874 6.7795,-1.69006 15.4295,-4.24171 19.2212,-5.67082 3.7916,-1.42911 10.1822,-4.2011 14.1989,-6.16162 l 7.3011,-3.56288 4.7461,-4.18079 4.7461,-4.17642 1.5645,-3.02823 1.5645,-3.02823 0,-4.16327 0,-4.16327 -3.0983,-4.28158 -3.1028,-4.28158 -6.7751,-4.43497 -6.7752,-4.43937 -8.2038,-3.17284 c -4.5125,-1.74498 -13.1624,-4.59315 -19.2211,-6.32818 -6.0588,-1.73505 -16.0609,-4.11235 -22.2275,-5.28513 -6.1665,-1.1728 -16.9811,-2.87025 -24.0286,-3.76886 -7.0474,-0.89863 -19.5403,-2.1267 -27.7624,-2.73023 l -14.9483,-1.0956 z m 161.5216,59.78449 c -0.136,8.4e-4 -3.3098,3.06869 -7.0557,6.81461 l -6.8146,6.81024 -10.9165,5.46482 -10.9209,5.46921 -11.9201,3.70752 c -6.5558,2.03944 -16.727,4.66367 -22.5999,5.83295 -5.8728,1.16928 -15.9645,2.6283 -22.4247,3.24296 l -11.7448,1.11752 -35.769,1.08682 c -19.6742,0.59763 -42.2587,1.19638 -50.1871,1.32787 l -14.418,0.23665 -0.2805,32.02207 c -0.1557,17.61223 -0.042,32.65544 0.2542,33.42883 l 0.539,1.40674 16.8284,-0.62669 c 9.2556,-0.34377 31.4268,-1.10318 49.2667,-1.68721 17.84,-0.58401 37.3002,-1.54852 43.2454,-2.14299 5.9452,-0.59449 14.4133,-1.75446 18.818,-2.58123 4.4046,-0.82678 11.3509,-2.28412 15.4348,-3.23858 4.0837,-0.95446 12.0107,-3.19621 17.6171,-4.97838 l 10.1935,-3.23858 9.9611,-4.75049 9.9568,-4.75489 5.6883,-5.5481 5.684,-5.54811 0.6573,-17.61718 c 0.3619,-9.69026 0.771,-25.1862 0.9072,-34.43677 0.1362,-9.25064 0.136,-16.82041 0,-16.81961 z m -380.20695,28.68271 16.3945,0.34184 16.39012,0.34181 1.19638,1.19641 1.19639,1.20076 12.58622,45.78278 c 6.92289,25.18185 17.04598,61.7249 22.49478,81.20557 l 9.90418,35.41844 -0.64421,1.68721 -0.64859,1.68723 -12.58182,-0.07 -12.57745,-0.0657 -2.41908,-0.97289 -2.41907,-0.9685 -1.12629,-2.96689 c -0.62069,-1.6308 -2.49564,-8.0105 -4.16324,-14.17701 -1.66751,-6.16652 -3.57677,-13.26461 -4.24216,-15.77221 l -1.20954,-4.55768 -22.63063,0.28924 -22.63064,0.28485 -2.3884,10.67988 c -1.3142,5.87288 -2.89831,13.36542 -3.52343,16.65305 l -1.13941,5.97759 -15.13238,0.64859 c -8.32373,0.35598 -15.33373,0.44723 -15.57938,0.20149 -0.24565,-0.24565 0.0321,-2.26415 0.62229,-4.48756 0.59012,-2.22343 7.89273,-28.78975 16.22797,-59.03509 8.33524,-30.24536 17.54834,-63.6401 20.47013,-74.2113 2.92178,-10.57117 5.8205,-20.81732 6.44209,-22.7665 z m 14.94831,39.44585 -1.83622,6.24491 c -1.00963,3.43561 -4.39996,16.31619 -7.53331,28.62132 l -5.69712,22.37209 1.14819,1.38484 1.15256,1.38482 14.28221,0 14.28657,0 0.0263,-0.80197 c 0.0135,-0.44046 -3.18824,-13.53148 -7.11698,-29.09466 -3.92871,-15.5631 -7.49596,-28.705 -7.92773,-29.20419 z m 365.05704,10.89023 c -0.2466,5.9e-4 -3.6181,3.05965 -7.4939,6.80146 l -7.0469,6.80584 -7.989,4.0274 -7.9891,4.0318 -10.6492,3.59355 -10.6536,3.59355 -15.5093,3.17287 -15.5092,3.17284 -13.6073,1.59079 c -7.4844,0.87402 -22.3682,2.14456 -33.0739,2.82227 l -19.4621,1.23144 -26.8509,-0.46453 -26.8509,-0.46453 -0.6661,12.34517 c -0.366,6.78887 -0.7326,21.1311 -0.8107,31.87309 l -0.1403,19.53229 0.688,0.68803 c 0.3786,0.37842 2.7213,1.01929 5.2063,1.42429 2.4851,0.40498 10.2849,0.79147 17.3323,0.85894 7.0475,0.0675 23.6244,-0.35948 36.8384,-0.94661 13.214,-0.58713 32.6741,-1.79958 43.2454,-2.69516 l 19.2211,-1.63024 12.2794,-2.71269 c 6.7539,-1.4933 16.3634,-3.88257 21.3554,-5.30708 4.9919,-1.42453 13.5226,-4.30664 18.9582,-6.40705 l 9.8867,-3.82143 6.1309,-4.10192 c 3.3736,-2.25731 7.4909,-5.52318 9.146,-7.25722 l 3.0064,-3.15531 0.7274,-34.30093 c 0.4004,-18.86658 0.5271,-34.30148 0.2805,-34.30092 z m 0.1622,76.88016 c -0.1573,8.1e-4 -3.4252,3.32639 -7.2616,7.39308 l -6.9724,7.39748 -9.2906,4.75049 -9.2907,4.75051 -8.5413,2.75653 c -4.6983,1.51574 -12.6252,3.70076 -17.6171,4.86005 -4.992,1.15932 -14.124,2.8989 -20.2905,3.8609 -6.1665,0.962 -18.1775,2.45925 -26.6931,3.3306 l -15.483,1.58642 -41.9131,0.63106 -41.9087,0.63546 0,31.91252 0,31.91691 1.525,0.58286 c 0.8395,0.32216 6.7266,0.96016 13.0815,1.41551 6.3548,0.45533 17.5596,0.89727 24.9007,0.98166 l 13.3487,0.15347 21.3554,-1.59957 c 11.7458,-0.87974 28.7474,-2.57893 37.7849,-3.77325 9.0376,-1.19432 22.2534,-3.3994 29.3663,-4.8995 7.1129,-1.50012 17.4985,-4.18243 23.0777,-5.96442 l 10.1408,-3.24298 8.4712,-4.25091 8.4711,-4.25091 6.2142,-6.20984 6.2099,-6.21422 0.136,-5.15807 c 0.074,-2.83659 0.4311,-18.24829 0.7976,-34.25271 0.3663,-16.00444 0.5384,-29.09987 0.3812,-29.09904 z"
       id="rect4196-8"
       inkscape:connector-curvature="0"
       sodipodi:nodetypes="sscccccsccccsccccccccccsssscccccccccccccssscccccccccsscsccccccsssscccccccsccccccsccccccccccccccccccscsscccccccccccscccccccccccccccccccccsscccscccccccccccccsscccccccsscssscccccccsc" />
    <path
       style="fill:#d41a1a;fill-opacity:1;stroke-width:1.06779671"
       d="m 916.87265,738.31732 -0.38403,6.09798 0.004,-12.81356 0.004,-12.81356 0.38019,6.71558 c 0.20911,3.69356 0.20739,9.45966 -0.004,12.81356 z M 816.47629,287.93222 c -0.16688,0 -2.92981,-2.76292 -6.13983,-6.13983 l -5.8364,-6.13983 6.13983,5.83641 c 3.3769,3.21002 6.13983,5.97294 6.13983,6.13983 0,0.16688 -0.13654,0.30342 -0.30343,0.30342 z m 94.80343,-36.30508 c -0.29364,0 -0.53389,-0.24026 -0.53389,-0.5339 0,-0.29365 0.24025,-0.5339 0.53389,-0.5339 0.29365,0 0.5339,0.24025 0.5339,0.5339 0,0.29364 -0.24025,0.5339 -0.5339,0.5339 z m 8.54238,-1.0678 c -0.29365,0 -0.5339,-0.24026 -0.5339,-0.5339 0,-0.29364 0.24025,-0.5339 0.5339,-0.5339 0.29364,0 0.5339,0.24026 0.5339,0.5339 0,0.29364 -0.24026,0.5339 -0.5339,0.5339 z m -12.58309,-1.0678 c -0.16689,0 -2.92981,-2.76292 -6.13983,-6.13983 l -5.83641,-6.13983 6.13983,5.83641 c 3.37691,3.21002 6.13984,5.97294 6.13984,6.13983 0,0.16688 -0.13654,0.30342 -0.30343,0.30342 z m -70.70505,-71.54238 c -0.29365,0 -0.5339,-0.24025 -0.5339,-0.53389 0,-0.29365 0.24025,-0.5339 0.5339,-0.5339 0.29364,0 0.53389,0.24025 0.53389,0.5339 0,0.29364 -0.24025,0.53389 -0.53389,0.53389 z m -1.89729,-2.13559 c -0.16257,0 -3.64625,-3.48369 -7.74152,-7.74153 l -7.44594,-7.74152 7.74153,7.44594 c 4.25783,4.09526 7.74152,7.57895 7.74152,7.74152 0,0.16258 -0.13301,0.29559 -0.29559,0.29559 z M 631.64773,102.1356 c -0.22172,0 -1.06261,-0.84089 -1.86864,-1.86864 l -1.46549,-1.868648 1.86865,1.465492 c 1.02775,0.806016 1.86864,1.646906 1.86864,1.868646 0,0.22173 -0.18142,0.40315 -0.40316,0.40315 z m 289.42013,-2.491525 -0.71186,0.711865 0,-1.42373 0,-1.423729 0.71186,0.711864 0.71186,0.711865 -0.71186,0.711865 z M 759.06524,98.93221 c -0.29364,0 -4.11365,-3.603814 -8.48892,-8.008475 -4.37526,-4.404662 -7.71476,-8.008475 -7.42112,-8.008475 0.29364,0 4.11366,3.603813 8.48892,8.008475 4.37527,4.404661 7.71477,8.008475 7.42112,8.008475 z M 626.42387,96.796617 c -0.15842,0 -4.84338,-4.684958 -10.41102,-10.411018 l -10.12298,-10.411018 10.41102,10.12298 c 5.72606,5.567638 10.41102,10.252596 10.41102,10.411017 0,0.158421 -0.12962,0.288039 -0.28804,0.288039 z M 919.8221,91.457633 c -0.29365,0 -0.5339,-0.240254 -0.5339,-0.533898 0,-0.293644 0.24025,-0.533899 0.5339,-0.533899 0.29364,0 0.5339,0.240255 0.5339,0.533899 0,0.293644 -0.24026,0.533898 -0.5339,0.533898 z m -1.0678,-5.338983 c -0.29364,0 -0.5339,-0.240255 -0.5339,-0.533899 0,-0.293644 0.24026,-0.533898 0.5339,-0.533898 0.29364,0 0.5339,0.240254 0.5339,0.533898 0,0.293644 -0.24026,0.533899 -0.5339,0.533899 z m -1.0678,-4.271187 c -0.29364,0 -0.53389,-0.240254 -0.53389,-0.533898 0,-0.293644 0.24025,-0.533899 0.53389,-0.533899 0.29365,0 0.5339,0.240255 0.5339,0.533899 0,0.293644 -0.24025,0.533898 -0.5339,0.533898 z m -1.06779,-3.20339 c -0.29365,0 -0.5339,-0.240254 -0.5339,-0.533898 0,-0.293644 0.24025,-0.533899 0.5339,-0.533899 0.29364,0 0.5339,0.240255 0.5339,0.533899 0,0.293644 -0.24026,0.533898 -0.5339,0.533898 z m -1.0678,-3.20339 c -0.29364,0 -0.5339,-0.240254 -0.5339,-0.533898 0,-0.293645 0.24026,-0.533899 0.5339,-0.533899 0.29364,0 0.5339,0.240254 0.5339,0.533899 0,0.293644 -0.24026,0.533898 -0.5339,0.533898 z m -1.0678,-3.20339 c -0.29364,0 -0.53389,-0.240254 -0.53389,-0.533898 0,-0.293645 0.24025,-0.533899 0.53389,-0.533899 0.29365,0 0.5339,0.240254 0.5339,0.533899 0,0.293644 -0.24025,0.533898 -0.5339,0.533898 z m -2.13559,-5.338984 c -0.29364,0 -0.5339,-0.240254 -0.5339,-0.533898 0,-0.293644 0.24026,-0.533898 0.5339,-0.533898 0.29364,0 0.5339,0.240254 0.5339,0.533898 0,0.293644 -0.24026,0.533898 -0.5339,0.533898 z m -1.0678,-2.135593 c -0.29364,0 -0.53389,-0.240254 -0.53389,-0.533898 0,-0.293644 0.24025,-0.533899 0.53389,-0.533899 0.29365,0 0.5339,0.240255 0.5339,0.533899 0,0.293644 -0.24025,0.533898 -0.5339,0.533898 z m -1.06779,-2.135593 c -0.29365,0 -0.5339,-0.240255 -0.5339,-0.533899 0,-0.293644 0.24025,-0.533898 0.5339,-0.533898 0.29364,0 0.5339,0.240254 0.5339,0.533898 0,0.293644 -0.24026,0.533899 -0.5339,0.533899 z m -1.0678,-2.135594 c -0.29364,0 -0.5339,-0.240254 -0.5339,-0.533898 0,-0.293644 0.24026,-0.533898 0.5339,-0.533898 0.29364,0 0.5339,0.240254 0.5339,0.533898 0,0.293644 -0.24026,0.533898 -0.5339,0.533898 z m -3.20339,-5.338983 c -0.29364,0 -0.5339,-0.240254 -0.5339,-0.533898 0,-0.293644 0.24026,-0.533899 0.5339,-0.533899 0.29364,0 0.5339,0.240255 0.5339,0.533899 0,0.293644 -0.24026,0.533898 -0.5339,0.533898 z m -2.13559,-3.20339 c -0.29365,0 -0.5339,-0.240254 -0.5339,-0.533898 0,-0.293644 0.24025,-0.533899 0.5339,-0.533899 0.29364,0 0.5339,0.240255 0.5339,0.533899 0,0.293644 -0.24026,0.533898 -0.5339,0.533898 z m -2.1356,-3.20339 c -0.29364,0 -0.53389,-0.240254 -0.53389,-0.533898 0,-0.293645 0.24025,-0.533899 0.53389,-0.533899 0.29365,0 0.5339,0.240254 0.5339,0.533899 0,0.293644 -0.24025,0.533898 -0.5339,0.533898 z m -3.14036,-4.271187 c -0.25899,0 -0.81374,-0.554751 -1.23279,-1.23278 l -0.7619,-1.23278 1.23278,0.761899 c 0.67803,0.419046 1.23278,0.973797 1.23278,1.232781 0,0.258984 -0.21189,0.47088 -0.47087,0.47088 z M 884.64783,30.593222 c -0.25899,0 -0.81374,-0.554751 -1.23278,-1.232779 l -0.76191,-1.232781 1.23278,0.761899 c 0.67803,0.419046 1.23279,0.973797 1.23279,1.232781 0,0.258985 -0.2119,0.47088 -0.47088,0.47088 z m -5.40201,-4.271186 c -0.29364,0 -0.53389,-0.240255 -0.53389,-0.533899 0,-0.293644 0.24025,-0.533898 0.53389,-0.533898 0.29365,0 0.5339,0.240254 0.5339,0.533898 0,0.293644 -0.24025,0.533899 -0.5339,0.533899 z m -3.20339,-2.135594 c -0.29364,0 -0.53389,-0.240254 -0.53389,-0.533898 0,-0.293644 0.24025,-0.533898 0.53389,-0.533898 0.29365,0 0.5339,0.240254 0.5339,0.533898 0,0.293644 -0.24025,0.533898 -0.5339,0.533898 z m -3.20339,-2.135593 c -0.29364,0 -0.53389,-0.240254 -0.53389,-0.533898 0,-0.293645 0.24025,-0.533899 0.53389,-0.533899 0.29365,0 0.5339,0.240254 0.5339,0.533899 0,0.293644 -0.24025,0.533898 -0.5339,0.533898 z m -193.2712,-3.20339 c -0.29364,0 -0.53389,-0.240254 -0.53389,-0.533898 0,-0.293645 0.24025,-0.533899 0.53389,-0.533899 0.29365,0 0.5339,0.240254 0.5339,0.533899 0,0.293644 -0.24025,0.533898 -0.5339,0.533898 z m 187.93222,0 c -0.29364,0 -0.5339,-0.240254 -0.5339,-0.533898 0,-0.293645 0.24026,-0.533899 0.5339,-0.533899 0.29364,0 0.5339,0.240254 0.5339,0.533899 0,0.293644 -0.24026,0.533898 -0.5339,0.533898 z m -2.13559,-1.067797 c -0.29365,0 -0.5339,-0.240254 -0.5339,-0.533898 0,-0.293644 0.24025,-0.533898 0.5339,-0.533898 0.29364,0 0.53389,0.240254 0.53389,0.533898 0,0.293644 -0.24025,0.533898 -0.53389,0.533898 z m -2.1356,-1.067796 c -0.29364,0 -0.5339,-0.240255 -0.5339,-0.533899 0,-0.293644 0.24026,-0.533898 0.5339,-0.533898 0.29365,0 0.5339,0.240254 0.5339,0.533898 0,0.293644 -0.24025,0.533899 -0.5339,0.533899 z m -2.13559,-1.067797 c -0.29364,0 -0.5339,-0.240254 -0.5339,-0.533898 0,-0.293645 0.24026,-0.533899 0.5339,-0.533899 0.29364,0 0.5339,0.240254 0.5339,0.533899 0,0.293644 -0.24026,0.533898 -0.5339,0.533898 z m -5.33898,-2.135594 c -0.29365,0 -0.5339,-0.240254 -0.5339,-0.533898 0,-0.293644 0.24025,-0.533898 0.5339,-0.533898 0.29364,0 0.53389,0.240254 0.53389,0.533898 0,0.293644 -0.24025,0.533898 -0.53389,0.533898 z m -3.20339,-1.067796 c -0.29365,0 -0.5339,-0.240254 -0.5339,-0.533899 0,-0.293644 0.24025,-0.533898 0.5339,-0.533898 0.29364,0 0.53389,0.240254 0.53389,0.533898 0,0.293645 -0.24025,0.533899 -0.53389,0.533899 z m -3.20339,-1.067797 c -0.29365,0 -0.5339,-0.240254 -0.5339,-0.533898 0,-0.293644 0.24025,-0.533899 0.5339,-0.533899 0.29364,0 0.53389,0.240255 0.53389,0.533899 0,0.293644 -0.24025,0.533898 -0.53389,0.533898 z m -3.20339,-1.067797 c -0.29365,0 -0.5339,-0.240254 -0.5339,-0.5338979 0,-0.2936441 0.24025,-0.5338983 0.5339,-0.5338983 0.29364,0 0.53389,0.2402542 0.53389,0.5338983 0,0.2936439 -0.24025,0.5338979 -0.53389,0.5338979 z m -4.27119,-1.0677962 c -0.29364,0 -0.5339,-0.2402543 -0.5339,-0.5338984 0,-0.2936441 0.24026,-0.5338983 0.5339,-0.5338983 0.29364,0 0.5339,0.2402542 0.5339,0.5338983 0,0.2936441 -0.24026,0.5338984 -0.5339,0.5338984 z M 677.43225,8.1694921 c -0.29364,0 -0.5339,-0.2402543 -0.5339,-0.5338984 0,-0.293644 0.24026,-0.5338983 0.5339,-0.5338983 0.29365,0 0.5339,0.2402543 0.5339,0.5338983 0,0.2936441 -0.24025,0.5338984 -0.5339,0.5338984 z m 159.10171,0 c -0.29365,0 -0.5339,-0.2402543 -0.5339,-0.5338984 0,-0.293644 0.24025,-0.5338983 0.5339,-0.5338983 0.29364,0 0.53389,0.2402543 0.53389,0.5338983 0,0.2936441 -0.24025,0.5338984 -0.53389,0.5338984 z m -8.00848,-1.0677967 -1.42372,0 0.71185,-0.7118645 0.71187,-0.7118644 0.71187,0.7118644 0.71186,0.7118645 -1.42373,0 z"
       id="path3427"
       inkscape:connector-curvature="0" />
    <path
       style="fill:#000000;fill-opacity:1;stroke-width:1.06779671000000009"
       d="m 914.05683,251.48172 c -0.35283,-0.08 -1.68371,-0.34855 -2.95751,-0.59682 L 908.78333,250.43349 793.67709,133.6789 678.57086,16.924305 l -0.94051,-2.821533 -0.94052,-2.821535 0.67435,-2.6867971 0.67434,-2.686798 77.64603,0.3746211 77.64602,0.374621 10.67796,2.8971213 10.67797,2.8971207 9.61017,4.772191 9.61017,4.772189 8.80784,6.969834 8.80784,6.969833 6.96983,8.80784 6.96984,8.807838 4.77218,9.61017 4.7722,9.61017 2.89711,10.677967 2.89713,10.677967 0.37439,77.555825 0.37439,77.55582 -3.42563,1.19418 c -1.8841,0.65681 -3.71431,1.12875 -4.06713,1.04877 z"
       id="path3417"
       inkscape:connector-curvature="0" />
  </g>
</svg>
