<?xml version="1.0" encoding="UTF-8" standalone="no"?>
<!-- Created with Inkscape (http://www.inkscape.org/) -->

<svg
   xmlns:dc="http://purl.org/dc/elements/1.1/"
   xmlns:cc="http://creativecommons.org/ns#"
   xmlns:rdf="http://www.w3.org/1999/02/22-rdf-syntax-ns#"
   xmlns:svg="http://www.w3.org/2000/svg"
   xmlns="http://www.w3.org/2000/svg"
   xmlns:xlink="http://www.w3.org/1999/xlink"
   xmlns:sodipodi="http://sodipodi.sourceforge.net/DTD/sodipodi-0.dtd"
   xmlns:inkscape="http://www.inkscape.org/namespaces/inkscape"
   version="1.0"
   width="128"
   height="128"
   id="svg2408"
   inkscape:version="0.48.5 r10040"
   sodipodi:docname="lugaru.svg">
  <sodipodi:namedview
     pagecolor="#ffffff"
     bordercolor="#666666"
     borderopacity="1"
     objecttolerance="10"
     gridtolerance="10"
     guidetolerance="10"
     inkscape:pageopacity="0"
     inkscape:pageshadow="2"
     inkscape:window-width="1920"
     inkscape:window-height="1007"
     id="namedview66"
     showgrid="false"
     inkscape:zoom="4"
     inkscape:cx="55.464603"
     inkscape:cy="81.351496"
     inkscape:window-x="0"
     inkscape:window-y="31"
     inkscape:window-maximized="1"
     inkscape:current-layer="svg2408" />
  <defs
     id="defs2410">
    <linearGradient
       id="linearGradient3855">
      <stop
         id="stop3857"
         style="stop-color:#ffffff;stop-opacity:1"
         offset="0" />
      <stop
         id="stop3859"
         style="stop-color:#ffffff;stop-opacity:0"
         offset="1" />
    </linearGradient>
    <linearGradient
       x1="45.447727"
       y1="92.539597"
       x2="45.447727"
       y2="7.0165396"
       id="ButtonShadow"
       gradientUnits="userSpaceOnUse"
       gradientTransform="scale(1.0058652,0.994169)">
      <stop
         id="stop3750"
         style="stop-color:#000000;stop-opacity:1"
         offset="0" />
      <stop
         id="stop3752"
         style="stop-color:#000000;stop-opacity:0.58823532"
         offset="1" />
    </linearGradient>
    <linearGradient
       id="linearGradient3737">
      <stop
         id="stop3739"
         style="stop-color:#ffffff;stop-opacity:1"
         offset="0" />
      <stop
         id="stop3741"
         style="stop-color:#ffffff;stop-opacity:0"
         offset="1" />
    </linearGradient>
    <linearGradient
       id="linearGradient3700">
      <stop
         id="stop3702"
         style="stop-color:#734f70;stop-opacity:1"
         offset="0" />
      <stop
         id="stop3704"
         style="stop-color:#b190b0;stop-opacity:1"
         offset="1" />
    </linearGradient>
    <filter
       id="filter3174"
       style="color-interpolation-filters:sRGB">
      <feGaussianBlur
         id="feGaussianBlur3176"
         stdDeviation="1.71" />
    </filter>
    <filter
       x="-0.192"
       y="-0.192"
       width="1.3839999"
       height="1.3839999"
       id="filter3794"
       style="color-interpolation-filters:sRGB">
      <feGaussianBlur
         id="feGaussianBlur3796"
         stdDeviation="5.28" />
    </filter>
    <linearGradient
       x1="48"
       y1="20.220806"
       x2="48"
       y2="138.66119"
       id="linearGradient3613"
       xlink:href="#linearGradient3737"
       gradientUnits="userSpaceOnUse" />
    <clipPath
       id="clipPath3613">
      <rect
         width="84"
         height="84"
         rx="6"
         ry="6"
         x="6"
         y="6"
         id="rect3615"
         style="fill:#ffffff;fill-opacity:1;fill-rule:nonzero;stroke:none" />
    </clipPath>
    <linearGradient
       x1="48"
       y1="90"
       x2="48"
       y2="5.9877172"
       id="linearGradient3617"
       xlink:href="#linearGradient3700"
       gradientUnits="userSpaceOnUse" />
    <linearGradient
       x1="45.447727"
       y1="92.539597"
       x2="45.447727"
       y2="7.0165396"
       id="ButtonShadow-0"
       gradientUnits="userSpaceOnUse"
       gradientTransform="matrix(1.0058652,0,0,0.994169,100,0)">
      <stop
         id="stop3750-8"
         style="stop-color:#000000;stop-opacity:1"
         offset="0" />
      <stop
         id="stop3752-5"
         style="stop-color:#000000;stop-opacity:0.58823532"
         offset="1" />
    </linearGradient>
    <linearGradient
       x1="32.251034"
       y1="6.1317081"
       x2="32.251034"
       y2="90.238609"
       id="linearGradient3780"
       xlink:href="#ButtonShadow-0"
       gradientUnits="userSpaceOnUse"
       gradientTransform="matrix(1.0238095,0,0,1.0119048,-1.1428571,-98.071429)" />
    <linearGradient
       x1="32.251034"
       y1="6.1317081"
       x2="32.251034"
       y2="90.238609"
       id="linearGradient3772"
       xlink:href="#ButtonShadow-0"
       gradientUnits="userSpaceOnUse"
       gradientTransform="matrix(1.0238095,0,0,1.0119048,-1.1428571,-98.071429)" />
    <linearGradient
       x1="32.251034"
       y1="6.1317081"
       x2="32.251034"
       y2="90.238609"
       id="linearGradient3725"
       xlink:href="#ButtonShadow-0"
       gradientUnits="userSpaceOnUse"
       gradientTransform="matrix(1.0238095,0,0,1.0119048,-1.1428571,-98.071429)" />
    <linearGradient
       x1="32.251034"
       y1="6.1317081"
       x2="32.251034"
       y2="90.238609"
       id="linearGradient3721"
       xlink:href="#ButtonShadow-0"
       gradientUnits="userSpaceOnUse"
       gradientTransform="translate(0,-97)" />
    <linearGradient
       x1="32.251034"
       y1="6.1317081"
       x2="32.251034"
       y2="90.238609"
       id="linearGradient3026"
       xlink:href="#ButtonShadow-0"
       gradientUnits="userSpaceOnUse"
       gradientTransform="matrix(1.0238095,0,0,1.0119048,-1.1428571,-98.071429)" />
    <clipPath
       id="clipPath3976">
      <rect
         width="84"
         height="84"
         rx="6"
         ry="6"
         x="6"
         y="6"
         id="rect3978"
         style="opacity:0.5;fill:#ff00ff;fill-opacity:1;fill-rule:nonzero;stroke:none" />
    </clipPath>
    <linearGradient
       id="linearGradient3737-5">
      <stop
         id="stop3739-7"
         style="stop-color:#ffffff;stop-opacity:1"
         offset="0" />
      <stop
         id="stop3741-7"
         style="stop-color:#ffffff;stop-opacity:0"
         offset="1" />
    </linearGradient>
    <radialGradient
       cx="48"
       cy="90.171875"
       r="42"
       fx="48"
       fy="90.171875"
       id="radialGradient3619-7"
       xlink:href="#linearGradient3737-5"
       gradientUnits="userSpaceOnUse"
       gradientTransform="matrix(1.1573129,0,0,0.99590774,-7.551021,0.1971319)" />
    <linearGradient
       x1="36.357143"
       y1="6"
       x2="36.357143"
       y2="63.893143"
       id="linearGradient4004"
       xlink:href="#linearGradient3737-5"
       gradientUnits="userSpaceOnUse" />
    <radialGradient
       cx="48"
       cy="48"
       r="42"
       fx="48"
       fy="48"
       id="radialGradient4055"
       xlink:href="#linearGradient3855"
       gradientUnits="userSpaceOnUse" />
    <filter
       id="filter3174-7"
       style="color-interpolation-filters:sRGB">
      <feGaussianBlur
         stdDeviation="1.71"
         id="feGaussianBlur3176-5" />
    </filter>
    <filter
       id="filter3794-5"
       height="1.3839999"
       width="1.3839999"
       y="-0.192"
       x="-0.192"
       style="color-interpolation-filters:sRGB">
      <feGaussianBlur
         stdDeviation="5.28"
         id="feGaussianBlur3796-1" />
    </filter>
    <linearGradient
       gradientUnits="userSpaceOnUse"
       xlink:href="#linearGradient3855"
       id="linearGradient3464"
       y2="138.66119"
       x2="48"
       y1="20.220806"
       x1="48" />
    <clipPath
       id="clipPath3613-6">
      <rect
         style="fill:#ffffff;fill-opacity:1;fill-rule:nonzero;stroke:none"
         id="rect3615-3"
         y="6"
         x="6"
         ry="6"
         rx="6"
         height="84"
         width="84" />
    </clipPath>
    <linearGradient
       gradientUnits="userSpaceOnUse"
       xlink:href="#linearGradient3700"
       id="linearGradient3468"
       y2="5.9877172"
       x2="48"
       y1="90"
       x1="48" />
    <linearGradient
       gradientTransform="matrix(1.0238095,0,0,1.0119048,-1.1428571,-98.071429)"
       gradientUnits="userSpaceOnUse"
       xlink:href="#ButtonShadow-0"
       id="linearGradient3470"
       y2="90.238609"
       x2="32.251034"
       y1="6.1317081"
       x1="32.251034" />
    <linearGradient
       gradientTransform="matrix(1.0238095,0,0,1.0119048,-1.1428571,-98.071429)"
       gradientUnits="userSpaceOnUse"
       xlink:href="#ButtonShadow-0"
       id="linearGradient3472"
       y2="90.238609"
       x2="32.251034"
       y1="6.1317081"
       x1="32.251034" />
    <linearGradient
       gradientTransform="matrix(1.0238095,0,0,1.0119048,-1.1428571,-98.071429)"
       gradientUnits="userSpaceOnUse"
       xlink:href="#ButtonShadow-0"
       id="linearGradient3474"
       y2="90.238609"
       x2="32.251034"
       y1="6.1317081"
       x1="32.251034" />
    <linearGradient
       gradientTransform="translate(0,-97)"
       gradientUnits="userSpaceOnUse"
       xlink:href="#ButtonShadow-0"
       id="linearGradient3476"
       y2="90.238609"
       x2="32.251034"
       y1="6.1317081"
       x1="32.251034" />
    <linearGradient
       gradientTransform="matrix(1.0238095,0,0,1.0119048,-1.1428571,-98.071429)"
       gradientUnits="userSpaceOnUse"
       xlink:href="#ButtonShadow-0"
       id="linearGradient3478"
       y2="90.238609"
       x2="32.251034"
       y1="6.1317081"
       x1="32.251034" />
    <clipPath
       id="clipPath3976-6">
      <rect
         style="opacity:0.5;fill:#ff00ff;fill-opacity:1;fill-rule:nonzero;stroke:none"
         id="rect3978-6"
         y="6"
         x="6"
         ry="6"
         rx="6"
         height="84"
         width="84" />
    </clipPath>
    <radialGradient
       gradientTransform="matrix(1.1573129,0,0,0.99590774,-7.551021,0.1971319)"
       gradientUnits="userSpaceOnUse"
       xlink:href="#linearGradient3855"
       id="radialGradient3619-7-0"
       fy="90.171875"
       fx="48"
       r="42"
       cy="90.171875"
       cx="48" />
    <linearGradient
       gradientUnits="userSpaceOnUse"
       xlink:href="#linearGradient3855"
       id="linearGradient3483"
       y2="63.893143"
       x2="36.357143"
       y1="6"
       x1="36.357143" />
    <radialGradient
       gradientUnits="userSpaceOnUse"
       xlink:href="#linearGradient3855"
       id="radialGradient4055-7"
       fy="48"
       fx="48"
       r="42"
       cy="48"
       cx="48" />
    <linearGradient
       inkscape:collect="always"
       xlink:href="#ButtonShadow"
       id="linearGradient3527"
       gradientUnits="userSpaceOnUse"
       gradientTransform="scale(1.0058652,0.994169)"
       x1="45.447727"
       y1="92.539597"
       x2="45.447727"
       y2="7.0165396" />
  </defs>
  <metadata
     id="metadata2413">
    <rdf:RDF>
      <cc:Work
         rdf:about="">
        <dc:format>image/svg+xml</dc:format>
        <dc:type
           rdf:resource="http://purl.org/dc/dcmitype/StillImage" />
        <dc:title />
      </cc:Work>
    </rdf:RDF>
  </metadata>
  <rect
     style="opacity:1;fill:none;fill-opacity:1;stroke:#000000;stroke-width:4;stroke-miterlimit:4;stroke-dasharray:none;stroke-dashoffset:0;stroke-opacity:1"
     id="rect3529"
     width="110.05902"
     height="113.21485"
     x="8.7894745"
     y="7.4987984"
     ry="14.546331" />
  <g
     id="layer2"
     style="display:none"
     transform="translate(0,32)">
    <rect
       width="86"
       height="85"
       rx="6"
       ry="6"
       x="5"
       y="7"
       id="rect3745"
       style="opacity:0.9;fill:url(#linearGradient3527);fill-opacity:1;fill-rule:nonzero;stroke:none;filter:url(#filter3174)" />
  </g>
  <g
     id="layer5"
     style="display:none"
     transform="translate(0,32)">
    <rect
       width="66"
       height="66"
       rx="12"
       ry="12"
       x="15"
       y="15"
       clip-path="url(#clipPath3613)"
       id="rect3171"
       style="opacity:0.1;fill:url(#linearGradient3613);fill-opacity:1;fill-rule:nonzero;stroke:#ffffff;stroke-width:0.5;stroke-linecap:round;stroke-linejoin:miter;stroke-miterlimit:4;stroke-dasharray:none;stroke-dashoffset:0;stroke-opacity:1;filter:url(#filter3794)" />
  </g>
  <g
     id="layer4"
     transform="matrix(1.4264037,0,0,1.4264037,2.433547,-7.6058736)"
     style="fill:#000000;fill-opacity:1">
    <g
       clip-path="url(#clipPath3976)"
       id="g3969"
       style="fill:#000000;fill-opacity:1">
      <path
         d="m 52.104155,14.424701 c -0.592479,0.02588 -1.280131,0.355919 -1.856177,1.044099 -2.002863,2.348148 -1.756784,5.538268 -2.126868,8.391464 -1.046005,0.821228 -0.831654,4.062326 -2.358891,3.364319 -1.668307,-2.56208 -0.601884,-5.906573 -2.24288,-8.546145 0.227988,-3.523182 -5.250652,-5.051941 -3.596341,-1.740165 1.461491,2.925781 2.694673,5.715937 2.629583,8.430134 -0.03354,1.39585 0.249,1.572152 0.386703,2.900276 -1.461132,1.70992 -2.252965,2.624984 -2.706924,3.596341 -1.310621,2.804409 -0.985332,3.884269 -0.03861,4.331078 0.373574,0.929818 0.673557,1.57469 2.32022,1.701495 0.82345,0.02328 0.80469,0.389244 0.03861,0.541385 -0.121642,0.533939 -0.05927,0.908242 -0.07734,2.049528 -3.701723,0.938291 -5.69809,3.511697 -4.911133,7.115342 -0.128881,2.941057 -1.637296,5.12804 -1.856176,8.082102 -0.216542,2.92244 -2.273198,2.765524 -3.209639,5.413847 -2.105597,5.954832 -4.167759,6.89636 -4.176396,8.275453 -1.094055,0.03532 -1.432399,0.554822 -1.353462,1.16011 C 24.126318,72.474412 3.1970395,86.734001 -4.625234,90.5666 7.089788,86.585447 26.885549,72.953734 28.089874,72.120848 c 0.565205,0.287028 1.169415,0.08162 1.276121,-1.198781 2.716068,1.407622 3.937012,-1.106818 3.557671,-2.938945 0.952862,-0.921662 3.658771,-2.980953 4.292408,-3.635012 -0.293338,0.537526 -0.994935,1.849375 -1.624154,2.706923 -0.23821,0.324631 -0.439828,0.600082 -0.580056,0.812078 -0.510634,0.772003 -0.129189,0.515748 -0.115949,1.314791 -2.623915,1.446731 -2.311744,2.552632 -1.740165,3.016287 -2.171504,4.232506 -3.532031,8.213861 -1.662825,9.512903 -0.596958,4.019862 -0.537462,7.962508 2.010858,9.628915 3.082441,0.147458 6.956553,0.874242 9.628915,-0.03867 0.134102,-2.84095 -2.800364,-5.129565 -3.093628,-5.877892 -0.09726,-0.405165 -0.185023,-0.421592 0.309363,-1.005429 0.494399,-0.583837 0.496998,-0.627704 1.005429,-1.276121 1.00585,0.339466 3.416528,-3.493094 4.717781,-5.143155 0.351226,4.334603 0.584263,9.594027 4.48576,13.418608 2.728703,0 7.557607,-0.07734 10.28631,-0.07734 C 60.453582,89.083649 58.31075,88.292789 57.904767,87.743665 57.256145,82.120348 58.22356,76.287376 57.286042,73.319629 57.49824,73.167245 57.663304,72.95491 58.098119,73.010266 58.20058,71.589921 56.838308,70.99934 58.678174,71.502123 58.237469,70.192202 56.44804,68.037921 58.291471,68.94988 57.628593,66.663938 56.856288,64.733259 56.396624,62.182571 54.43274,59.3221 54.873112,57.107916 56.125932,54.371162 c 1.050831,-2.069697 1.983547,3.177739 2.010858,4.292408 0.204897,2.798961 2.54822,5.426957 3.828363,7.618057 0.436808,1.305378 -0.243481,2.815121 -0.07734,4.292407 -0.506835,0.703427 -0.758928,0.936736 -1.662824,1.778836 -0.02574,0.686782 0.954347,1.956243 1.624154,2.358891 0.737113,-0.640382 0.85644,-0.561933 1.817506,-1.546814 0.559278,0.504609 1.5851,1.341573 2.088198,0.116011 1.068948,0.223818 1.180937,-0.147756 1.237451,-1.546813 1.133208,0.855234 1.051413,-1.393994 0.696066,-2.474902 2.993802,-2.554908 7.741011,-9.646118 5.68454,-11.639772 -0.909006,2.633671 -5.82916,8.123988 -7.695397,10.131629 -0.896484,-1.018638 -0.688171,-0.574929 -1.469473,-1.740166 -1.678961,-4.740112 -1.435282,-9.154696 -3.36432,-10.054288 -1.61152,-2.169386 0.845068,-4.327872 -2.397561,-8.391464 0.781574,-3.821097 -0.980048,-4.88695 -1.701495,-5.259166 -0.287175,-2.335181 -2.862038,-2.366716 -3.751023,-2.28155 -0.08947,-0.771403 -0.382149,-1.181445 -0.193351,-3.248309 -0.721014,-0.339109 -0.326786,-1.68222 -0.348033,-2.397561 -0.02128,-0.715342 -0.456583,-0.777501 -1.972188,-0.773407 0.142864,-1.422865 0.0469,-2.785279 -0.348033,-4.021715 0.516067,-1.344618 0.671057,-2.507233 1.546814,-4.408419 0.954743,-2.072658 1.79715,-4.842177 1.314791,-7.502046 1.336979,-1.951218 0.414051,-3.305227 -0.889418,-3.248308 z M 39.768316,54.989887 c -0.09541,0.882913 0.348033,1.392133 0.348033,1.392133 -0.357883,0.596561 -0.210144,1.383358 0.07734,1.430802 0.16817,0.333791 0.07734,0.657396 0.07734,0.657396 0,0 -3.092031,2.778415 -2.590913,3.828364 l -4.756452,3.905704 c 0.23863,-3.293023 3.262675,-4.234469 4.60177,-6.496617 0.888503,-1.500943 -1.097866,-1.281583 2.24288,-4.717782 z"
         inkscape:connector-curvature="0"
         id="path3926"
         style="fill:#000000;stroke:none;fill-opacity:1" />
    </g>
  </g>
</svg>
