<?xml version="1.0" encoding="UTF-8" standalone="no"?>
<!-- Created with Inkscape (http://www.inkscape.org/) -->

<svg
   xmlns:dc="http://purl.org/dc/elements/1.1/"
   xmlns:cc="http://creativecommons.org/ns#"
   xmlns:rdf="http://www.w3.org/1999/02/22-rdf-syntax-ns#"
   xmlns:svg="http://www.w3.org/2000/svg"
   xmlns="http://www.w3.org/2000/svg"
   xmlns:sodipodi="http://sodipodi.sourceforge.net/DTD/sodipodi-0.dtd"
   xmlns:inkscape="http://www.inkscape.org/namespaces/inkscape"
   width="512"
   height="512"
   id="svg4230"
   version="1.1"
   inkscape:version="0.48.5 r10040"
   sodipodi:docname="maxima.svg"
   viewBox="0 0 512 512">
  <defs
     id="defs4232" />
  <sodipodi:namedview
     id="base"
     pagecolor="#ffffff"
     bordercolor="#666666"
     borderopacity="1.0"
     inkscape:pageopacity="0.0"
     inkscape:pageshadow="2"
     inkscape:zoom="1.6503906"
     inkscape:cx="138.75503"
     inkscape:cy="256"
     inkscape:document-units="px"
     inkscape:current-layer="layer1"
     showgrid="false"
     inkscape:showpageshadow="false"
     borderlayer="true"
     inkscape:window-width="1920"
     inkscape:window-height="1007"
     inkscape:window-x="0"
     inkscape:window-y="31"
     inkscape:window-maximized="1"
     showguides="true" />
  <metadata
     id="metadata4235">
    <rdf:RDF>
      <cc:Work
         rdf:about="">
        <dc:format>image/svg+xml</dc:format>
        <dc:type
           rdf:resource="http://purl.org/dc/dcmitype/StillImage" />
        <dc:title />
      </cc:Work>
    </rdf:RDF>
  </metadata>
  <g
     inkscape:label="Capa 1"
     inkscape:groupmode="layer"
     id="layer1"
     transform="translate(0,-540.3622)">
    <rect
       style="fill:none;fill-opacity:1;stroke:#000000;stroke-opacity:1;stroke-width:16;stroke-miterlimit:4;stroke-dasharray:none"
       id="rect4096"
       width="450"
       height="450"
       x="1.7776656"
       y="599.99194"
       ry="225" />
    <g
       style="font-style:normal;font-variant:normal;font-weight:bold;font-stretch:normal;font-size:29.76190567000000087px;line-height:125%;font-family:GFS Didot;-inkscape-font-specification:GFS Didot Bold;letter-spacing:0px;word-spacing:0px;fill:#000000;fill-opacity:1;stroke:none"
       id="text3799"
       transform="matrix(11.25,0,0,11.25,-43.222333,-10744.083)">
      <path
         d="m 29.327381,1018.9871 c 1.031726,0.1985 2.073392,0.2977 3.125001,0.2977 1.071404,0 2.182514,-0.099 3.333333,-0.2977 l 0.208333,1.1608 c -0.734152,0.1786 -1.279787,0.3571 -1.636904,0.5357 -0.357168,0.1786 -0.515898,0.5159 -0.476191,1.0119 l 0.892857,14.494 c 0.01982,0.4762 0.198388,0.8135 0.535714,1.0119 0.317435,0.1588 0.833307,0.3373 1.54762,0.5357 l -0.208334,1.1608 c -1.250025,-0.1786 -2.490104,-0.2679 -3.720238,-0.2679 -1.230181,0 -2.628989,0.089 -4.196429,0.2679 l -0.208333,-1.2203 c 1.428551,-0.2976 2.242043,-0.6151 2.440476,-0.9524 0.07934,-0.099 0.109106,-0.2777 0.08929,-0.5357 l -0.714286,-12.7678 -0.178571,-0.1488 c -0.218274,0.992 -0.426607,1.7262 -0.625,2.2023 l -3.541667,8.9286 c -0.337317,0.8334 -0.704381,1.9643 -1.10119,3.3929 l -0.178572,0.6547 -2.827381,0.7143 c -0.555567,-1.8849 -1.041678,-3.3432 -1.458333,-4.375 l -3.571429,-9.1666 -0.565476,-1.9643 -0.208334,0.1488 -0.863095,12.3809 c -0.01985,0.258 -5e-6,0.4465 0.05952,0.5655 0.07936,0.099 0.208328,0.1984 0.386905,0.2976 0.337295,0.1786 0.902771,0.3572 1.696428,0.5357 l 0.386905,0.089 -0.238095,1.2203 c -1.289689,-0.1786 -2.42064,-0.2679 -3.392857,-0.2679 -0.952385,0 -2.053574,0.089 -3.303572,0.2679 l -0.238095,-1.1608 c 0.734125,-0.1587 1.269839,-0.3273 1.607143,-0.5059 0.35714,-0.1786 0.545632,-0.496 0.565476,-0.9524 l 1.101191,-14.6726 c 0.01984,-0.4365 -0.138893,-0.744 -0.476191,-0.9226 -0.317464,-0.1587 -0.803574,-0.3075 -1.458333,-0.4465 l -0.327381,-0.089 0.208333,-1.1608 c 1.091267,0.1985 2.232139,0.2977 3.422619,0.2977 1.210311,0 2.371024,-0.099 3.482143,-0.2977 0.238086,0.9128 0.436499,1.5973 0.595238,2.0536 l 4.285715,11.5774 0.386904,1.3988 0.208334,0.059 c 0.03967,-0.6547 0.128954,-1.1309 0.267857,-1.4285 l 4.255952,-11.4286 0.625,-2.2322"
         style="font-family:Buenard;-inkscape-font-specification:Buenard Bold;fill:#000000;fill-opacity:1"
         id="path3811"
         inkscape:connector-curvature="0" />
    </g>
  </g>
</svg>
