<?xml version="1.0" encoding="UTF-8" standalone="no"?>
<!-- Created with Inkscape (http://www.inkscape.org/) -->

<svg
   xmlns:dc="http://purl.org/dc/elements/1.1/"
   xmlns:cc="http://creativecommons.org/ns#"
   xmlns:rdf="http://www.w3.org/1999/02/22-rdf-syntax-ns#"
   xmlns:svg="http://www.w3.org/2000/svg"
   xmlns="http://www.w3.org/2000/svg"
   xmlns:sodipodi="http://sodipodi.sourceforge.net/DTD/sodipodi-0.dtd"
   xmlns:inkscape="http://www.inkscape.org/namespaces/inkscape"
   width="512"
   height="512"
   id="svg2"
   version="1.1"
   inkscape:version="0.48.5 r10040"
   sodipodi:docname="mixxx.svg"
   inkscape:export-filename="/home/alecive/Scrivania/firefoxTest1.png"
   inkscape:export-xdpi="100"
   inkscape:export-ydpi="100"
   viewBox="0 0 512 512">
  <defs
     id="defs62" />
  <sodipodi:namedview
     id="base"
     pagecolor="#ffffff"
     bordercolor="#666666"
     borderopacity="1.0"
     inkscape:pageopacity="0.0"
     inkscape:pageshadow="2"
     inkscape:zoom="1.1020922"
     inkscape:cx="13.91965"
     inkscape:cy="342.38518"
     inkscape:document-units="px"
     inkscape:current-layer="svg2"
     showgrid="false"
     inkscape:window-width="1920"
     inkscape:window-height="1007"
     inkscape:window-x="0"
     inkscape:window-y="31"
     inkscape:window-maximized="1"
     inkscape:object-paths="false"
     inkscape:snap-intersection-paths="false"
     inkscape:object-nodes="true"
     inkscape:snap-smooth-nodes="true"
     inkscape:snap-nodes="true" />
  <metadata
     id="metadata7">
    <rdf:RDF>
      <cc:Work
         rdf:about="">
        <dc:format>image/svg+xml</dc:format>
        <dc:type
           rdf:resource="http://purl.org/dc/dcmitype/StillImage" />
        <dc:title />
      </cc:Work>
    </rdf:RDF>
  </metadata>
  <rect
     style="opacity:1;fill:none;fill-opacity:1;stroke:#000000;stroke-width:16;stroke-miterlimit:4;stroke-dasharray:none;stroke-dashoffset:0;stroke-opacity:1"
     id="rect3587"
     width="467.93365"
     height="475.73254"
     x="21.553558"
     y="16.770214"
     ry="50.994301" />
  <path
     id="path6077"
     d="m 76.25,337.3125 0,2 0,66.6875 0,2 2,0 11.09375,0 2,0 0,-2 0,-66.6875 0,-2 -2,0 -11.09375,0 -2,0 z m 44.4375,0 0,2 0,55.5625 0,2 2,0 11.09375,0 2,0 0,-2 0,-55.5625 0,-2 -2,0 -11.09375,0 -2,0 z m 44.4375,0 0,2 0,44.46875 0,2 2,0 11.09375,0 2,0 0,-2 0,-44.46875 0,-2 -2,0 -11.09375,0 -2,0 z m 44.4375,0 0,2 0,33.34375 0,2 2,0 11.09375,0 2,0 0,-2 0,-33.34375 0,-2 -2,0 -11.09375,0 -2,0 z m 44.4375,0 0,2 0,66.6875 0,2 2,0 11.125,0 2,0 0,-2 0,-66.6875 0,-2 -2,0 -11.125,0 -2,0 z m 44.4375,0 0,2 0,33.34375 0,2 2,0 11.125,0 2,0 0,-2 0,-33.34375 0,-2 -2,0 -11.125,0 -2,0 z m 44.4375,0 0,2 0,44.46875 0,2 2,0 11.125,0 2,0 0,-2 0,-44.46875 0,-2 -2,0 -11.125,0 -2,0 z m 33.34375,0 0,2 0,55.5625 0,2 2,0 11.09375,0 2,0 0,-2 0,-55.5625 0,-2 -2,0 -11.09375,0 -2,0 z m 44.4375,0 0,2 0,66.6875 0,2 2,0 11.09375,0 2,0 0,-2 0,-66.6875 0,-2 -2,0 -11.09375,0 -2,0 z"
     style="color:#000000;font-style:normal;font-variant:normal;font-weight:normal;font-stretch:normal;font-size:medium;line-height:normal;font-family:Sans;-inkscape-font-specification:Sans;text-indent:0;text-align:start;text-decoration:none;text-decoration-line:none;letter-spacing:normal;word-spacing:normal;text-transform:none;direction:ltr;block-progression:tb;writing-mode:lr-tb;baseline-shift:baseline;text-anchor:start;display:inline;overflow:visible;visibility:visible;fill:#000000;fill-opacity:1;fill-rule:nonzero;stroke:none;stroke-width:3.99999976000000013;marker:none;enable-background:accumulate"
     inkscape:connector-curvature="0" />
  <path
     style="color:#000000;font-style:normal;font-variant:normal;font-weight:normal;font-stretch:normal;font-size:medium;line-height:normal;font-family:Sans;-inkscape-font-specification:Sans;text-indent:0;text-align:start;text-decoration:none;text-decoration-line:none;letter-spacing:normal;word-spacing:normal;text-transform:none;direction:ltr;block-progression:tb;writing-mode:lr-tb;baseline-shift:baseline;text-anchor:start;display:inline;overflow:visible;visibility:visible;fill:#000000;fill-opacity:1;fill-rule:nonzero;stroke:#000000;stroke-width:8;marker:none;enable-background:accumulate;stroke-opacity:1;stroke-miterlimit:4;stroke-dasharray:none"
     d="m 455.99999,210.175 c 0,-14.52214 -11.87632,-26.39838 -26.39843,-26.39838 l -347.203185,0 c -14.522132,0 -26.398366,11.87624 -26.398366,26.39838 l 0,2.76906 c 0,14.52212 11.876234,26.39836 26.398366,26.39836 l 347.203185,0 c 14.52211,0 26.39843,-11.87624 26.39843,-26.39836 l 0,-2.76906 z"
     id="path5089"
     inkscape:connector-curvature="0" />
  <path
     style="color:#000000;font-style:normal;font-variant:normal;font-weight:normal;font-stretch:normal;font-size:medium;line-height:normal;font-family:Sans;-inkscape-font-specification:Sans;text-indent:0;text-align:start;text-decoration:none;text-decoration-line:none;letter-spacing:normal;word-spacing:normal;text-transform:none;direction:ltr;block-progression:tb;writing-mode:lr-tb;baseline-shift:baseline;text-anchor:start;display:inline;overflow:visible;visibility:visible;fill:none;fill-opacity:1;fill-rule:nonzero;stroke:#000000;stroke-width:9.722;marker:none;enable-background:accumulate;stroke-opacity:1;stroke-miterlimit:4;stroke-dasharray:none"
     d="m 156.00833,121.29694 c 0,-14.52214 11.86852,-26.390657 26.39066,-26.390657 l 147.20202,0 c 14.52214,0 26.39066,11.868517 26.39066,26.390657 l 0,169.41445 c 0,14.52214 -11.86852,26.39066 -26.39066,26.39066 l -147.20202,0 c -14.52214,0 -26.39066,-11.86852 -26.39066,-26.39066 l 0,-169.41445 z"
     id="path5959"
     inkscape:connector-curvature="0" />
  <rect
     transform="rotate(90)"
     style="color:#000000;display:inline;overflow:visible;visibility:visible;fill:#000000;fill-opacity:1;fill-rule:nonzero;stroke:none;stroke-width:1.14276171000000004;marker:none;enable-background:accumulate"
     id="rect3852-4"
     width="99.991646"
     height="22.220367"
     x="130.22493"
     y="-267.1102"
     rx="7.5395603"
     ry="7.5395603" />
</svg>
