<?xml version="1.0" encoding="UTF-8" standalone="no"?>
<!-- Created with Inkscape (http://www.inkscape.org/) -->

<svg
   xmlns:dc="http://purl.org/dc/elements/1.1/"
   xmlns:cc="http://creativecommons.org/ns#"
   xmlns:rdf="http://www.w3.org/1999/02/22-rdf-syntax-ns#"
   xmlns:svg="http://www.w3.org/2000/svg"
   xmlns="http://www.w3.org/2000/svg"
   xmlns:sodipodi="http://sodipodi.sourceforge.net/DTD/sodipodi-0.dtd"
   xmlns:inkscape="http://www.inkscape.org/namespaces/inkscape"
   id="svg2987"
   version="1.1"
   inkscape:version="0.48.5 r10040"
   width="512"
   height="512"
   sodipodi:docname="nano.svg">
  <defs
     id="defs9" />
  <metadata
     id="metadata2993">
    <rdf:RDF>
      <cc:Work
         rdf:about="">
        <dc:format>image/svg+xml</dc:format>
        <dc:type
           rdf:resource="http://purl.org/dc/dcmitype/StillImage" />
        <dc:title />
      </cc:Work>
    </rdf:RDF>
  </metadata>
  <sodipodi:namedview
     pagecolor="#ffffff"
     bordercolor="#666666"
     borderopacity="1"
     objecttolerance="10"
     gridtolerance="10"
     guidetolerance="10"
     inkscape:pageopacity="0"
     inkscape:pageshadow="2"
     inkscape:window-width="1920"
     inkscape:window-height="1007"
     id="namedview2989"
     showgrid="false"
     inkscape:zoom="1.6299361"
     inkscape:cx="255.55931"
     inkscape:cy="258.23729"
     inkscape:window-x="0"
     inkscape:window-y="31"
     inkscape:window-maximized="1"
     inkscape:current-layer="svg2987" />
  <path
     sodipodi:type="arc"
     style="fill:none;fill-opacity:1;fill-rule:nonzero;stroke:#000000;stroke-width:33.64549636999999649;stroke-linecap:round;stroke-linejoin:miter;stroke-miterlimit:4;stroke-opacity:1;stroke-dasharray:none"
     id="path2982"
     sodipodi:cx="-405.69492"
     sodipodi:cy="253.83051"
     sodipodi:rx="251.66101"
     sodipodi:ry="251.66101"
     d="m -154.03391,253.83051 a 251.66101,251.66101 0 1 1 -503.32202,0 251.66101,251.66101 0 1 1 503.32202,0 z"
     transform="matrix(0.90948277,0,0,0.90948277,624.53185,22.908241)" />
  <path
     style="fill:#000000;fill-opacity:1;stroke:#000000;stroke-width:1px;stroke-linecap:butt;stroke-linejoin:miter;stroke-opacity:1"
     d="m 144.96888,194.44913 -1.53406,-33.74937 12.2725,-11.50547 7.82225,-8.13084 39.73367,-1.84056 11.50547,19.94281 2.30109,5.36921 6.13625,-0.76703 0,-6.90328 11.35248,-7.36225 2.45408,-8.7454 44.79691,1.38055 18.8672,-0.46001 0.7665,-15.49413 16.10766,1.53406 0,16.10765 2.30109,11.50547 10.73844,12.2725 4.60218,17.64171 3.83516,187.92262 -46.02187,0.76703 1.53406,-183.32043 -12.27249,-20.70984 -16.87469,-0.76703 -8.43734,5.36922 -7.82278,5.98377 -12.12003,5.52169 -5.36922,14.5736 0.76756,27.45909 c 0,0 3.0676,1.68809 3.0676,24.69902 0,23.01093 2.30109,47.55593 2.30109,47.55593 l -47.55593,1.53406 4.60219,-108.91842 -11.50547,-11.50546 -7.36225,-13.49954 -11.81352,0.46001 -9.97141,14.57359 0.76703,13.80656 z"
     id="path2986"
     inkscape:connector-curvature="0"
     sodipodi:nodetypes="cccccccccccccccccccccccccccccsccccccccc" />
</svg>
