<?xml version="1.0" encoding="UTF-8" standalone="no"?>
<!-- Generator: flash2svg, http://dissentgraphics.com/tools/flash2svg -->

<svg
   xmlns:dc="http://purl.org/dc/elements/1.1/"
   xmlns:cc="http://creativecommons.org/ns#"
   xmlns:rdf="http://www.w3.org/1999/02/22-rdf-syntax-ns#"
   xmlns:svg="http://www.w3.org/2000/svg"
   xmlns="http://www.w3.org/2000/svg"
   xmlns:sodipodi="http://sodipodi.sourceforge.net/DTD/sodipodi-0.dtd"
   xmlns:inkscape="http://www.inkscape.org/namespaces/inkscape"
   id="Drive-Removable"
   image-rendering="optimizeSpeed"
   version="1.1"
   style="background-color:#ffffff"
   x="0px"
   y="0px"
   width="1024px"
   height="1024px"
   viewBox="0 0 1024 1024"
   enable-background="new 0 0 1024 1024"
   inkscape:version="0.48.5 r10040"
   sodipodi:docname="ntfs-config.svg">
  <metadata
     id="metadata26">
    <rdf:RDF>
      <cc:Work
         rdf:about="">
        <dc:format>image/svg+xml</dc:format>
        <dc:type
           rdf:resource="http://purl.org/dc/dcmitype/StillImage" />
        <dc:title />
      </cc:Work>
    </rdf:RDF>
  </metadata>
  <sodipodi:namedview
     pagecolor="#ffffff"
     bordercolor="#666666"
     borderopacity="1"
     objecttolerance="10"
     gridtolerance="10"
     guidetolerance="10"
     inkscape:pageopacity="0"
     inkscape:pageshadow="2"
     inkscape:window-width="1920"
     inkscape:window-height="1007"
     id="namedview24"
     showgrid="false"
     inkscape:zoom="0.4609375"
     inkscape:cx="396.03348"
     inkscape:cy="487.72408"
     inkscape:window-x="0"
     inkscape:window-y="31"
     inkscape:window-maximized="1"
     inkscape:current-layer="Drive-Removable" />
  <defs
     transform="matrix(1 0 0 1 0 0) "
     id="defs3" />
  <g
     id="Calque.__202"
     transform="matrix(0.98038434,0,0,1,2.8432893,0)"
     style="fill:none">
    <g
       id="shape"
       style="fill:none">
      <path
         id="path"
         d="M 919.15,109.8 Q 918.7,89.9 904.5,75.7 C 894.75,65.95 882.95,61.05 869.15,61.05 l -674.2,0 c -13.8,0 -25.6,4.9 -35.35,14.65 -9.45,9.45 -14.35,20.85 -14.65,34.1 l 0,843.25 c 0,13.8 4.9,25.6 14.65,35.35 9.75,9.75 21.55,14.65 35.35,14.65 l 674.2,0 c 13.8,0 25.6,-4.9 35.35,-14.65 9.75,-9.75 14.65,-21.55 14.65,-35.35 l 0,-843.25 z"
         inkscape:connector-curvature="0"
         style="fill:none;fill-opacity:0.09803922000000000" />
    </g>
  </g>
  <g
     id="Calque.__203"
     transform="translate(13.01695,17.355932)"
     style="fill:none;stroke:#000000;stroke-opacity:1;stroke-width:8;stroke-miterlimit:4;stroke-dasharray:none">
    <g
       id="shape2"
       style="fill:none;stroke:#000000;stroke-opacity:1;stroke-width:8;stroke-miterlimit:4;stroke-dasharray:none">
      <path
         id="path1"
         d="M 884.5,55.7 C 874.75,45.95 862.95,41.05 849.15,41.05 l -674.2,0 c -13.8,0 -25.6,4.9 -35.35,14.65 -9.45,9.45 -14.35,20.85 -14.65,34.1 l 0,-0.025 0,724.575 q 0.458,19.858 14.65,34.05 c 9.75,9.75 21.55,14.65 35.35,14.65 l 674.2,0 c 13.8,0 25.6,-4.9 35.35,-14.65 9.45,-9.45 14.35,-20.8 14.65,-34.05 l 0,-724.575 0,0.025 c -0.3,-13.25 -5.2,-24.65 -14.65,-34.1 z"
         inkscape:connector-curvature="0"
         style="fill:none;fill-opacity:1;stroke:#000000;stroke-opacity:1;stroke-width:8;stroke-miterlimit:4;stroke-dasharray:none" />
      <path
         id="path2"
         d="m 139.6,848.4 q -14.192,-14.192 -14.65,-34.05 l 0,118.7 c 0,13.8 4.9,25.6 14.65,35.35 9.75,9.75 21.55,14.65 35.35,14.65 l 674.2,0 c 13.8,0 25.6,-4.9 35.35,-14.65 9.75,-9.75 14.65,-21.55 14.65,-35.35 l 0,-118.7 c -0.3,13.25 -5.2,24.6 -14.65,34.05 -9.75,9.75 -21.55,14.65 -35.35,14.65 l -674.2,0 c -13.8,0 -25.6,-4.9 -35.35,-14.65 z"
         inkscape:connector-curvature="0"
         style="fill:none;fill-opacity:0.98823529000000021;stroke:#000000;stroke-opacity:1;stroke-width:8;stroke-miterlimit:4;stroke-dasharray:none" />
    </g>
  </g>
  <g
     id="Calque.__204"
     style="fill:#000000;fill-opacity:1">
    <g
       id="Symbole.__2026_1"
       overflow="visible"
       style="fill:#000000;fill-opacity:1">
      <g
         id="Calque.__208"
         style="fill:#000000;fill-opacity:1">
        <g
           id="shape17"
           style="fill:#000000;fill-opacity:1">
          <path
             id="path11"
             fill="#3B3A36"
             fill-opacity="1"
             d="M518,918 Q518,909.7 512.15,903.85 C508.25,899.95 503.55,898 498,898 L196,898 C190.45,898 185.75,899.95 181.85,903.85 177.95,907.75 176,912.45 176,918 L176,926.2 C176,931.75 177.95,936.45 181.85,940.35 185.75,944.25 190.45,946.2 196,946.2 L498,946.2 C503.55,946.2 508.25,944.25 512.15,940.35 516.05,936.45 518,931.75 518,926.2 L518,918z"
             style="fill:#000000;fill-opacity:1" />
        </g>
      </g>
    </g>
  </g>
  <g
     id="Calque.__206"
     style="fill:#000000;fill-opacity:1">
    <g
       id="shape10"
       style="fill:#000000;fill-opacity:1">
      <path
         id="path6"
         fill="#FFFFFF"
         fill-opacity="0.09803921568627451"
         d="M703.4,642 Q782.65,562.75 782.65,450.65 C782.65,375.9 756.25,312.15 703.4,259.3 650.55,206.45 586.8,180.05 512.05,180.05 437.3,180.05 373.55,206.45 320.7,259.3 267.85,312.15 241.45,375.9 241.45,450.65 241.45,525.4 267.85,589.15 320.7,642 373.55,694.85 437.3,721.25 512.05,721.25 586.8,721.25 650.55,694.85 703.4,642z"
         style="fill:#000000;fill-opacity:1" />
      <path
         id="path7"
         fill="#CCCC00"
         fill-opacity="1"
         d="M829.05,940.5 C835.25,940.5 840.55,938.3 844.9,933.9 849.3,929.55 851.5,924.25 851.5,918.05 851.5,911.85 849.3,906.55 844.9,902.15 840.55,897.8 835.25,895.6 829.05,895.6 822.85,895.6 817.55,897.8 813.15,902.15 808.8,906.55 806.6,911.85 806.6,918.05 806.6,924.25 808.8,929.55 813.15,933.9 817.55,938.3 822.85,940.5 829.05,940.5z M780.05,918.05 C780.05,911.85 777.85,906.55 773.45,902.15 769.1,897.8 763.8,895.6 757.6,895.6 751.4,895.6 746.1,897.8 741.7,902.15 737.35,906.55 735.15,911.85 735.15,918.05 735.15,924.25 737.35,929.55 741.7,933.9 746.1,938.3 751.4,940.5 757.6,940.5 763.8,940.5 769.1,938.3 773.45,933.9 777.85,929.55 780.05,924.25 780.05,918.05z"
         style="fill:#000000;fill-opacity:1" />
    </g>
  </g>
</svg>
