<?xml version="1.0" encoding="UTF-8" standalone="no"?>
<!-- Created with Inkscape (http://www.inkscape.org/) -->

<svg
   xmlns:dc="http://purl.org/dc/elements/1.1/"
   xmlns:cc="http://creativecommons.org/ns#"
   xmlns:rdf="http://www.w3.org/1999/02/22-rdf-syntax-ns#"
   xmlns:svg="http://www.w3.org/2000/svg"
   xmlns="http://www.w3.org/2000/svg"
   xmlns:sodipodi="http://sodipodi.sourceforge.net/DTD/sodipodi-0.dtd"
   xmlns:inkscape="http://www.inkscape.org/namespaces/inkscape"
   version="1.1"
   width="100%"
   height="100%"
   viewBox="0 0 512 512"
   id="svg2"
   inkscape:version="0.48.5 r10040"
   sodipodi:docname="nvclock.svg">
  <sodipodi:namedview
     pagecolor="#ffffff"
     bordercolor="#666666"
     borderopacity="1"
     objecttolerance="10"
     gridtolerance="10"
     guidetolerance="10"
     inkscape:pageopacity="0"
     inkscape:pageshadow="2"
     inkscape:window-width="1920"
     inkscape:window-height="1007"
     id="namedview44"
     showgrid="false"
     inkscape:zoom="1.2167209"
     inkscape:cx="-191.8643"
     inkscape:cy="306.59972"
     inkscape:window-x="0"
     inkscape:window-y="31"
     inkscape:window-maximized="1"
     inkscape:current-layer="svg2" />
  <metadata
     id="metadata86">
    <rdf:RDF>
      <cc:Work
         rdf:about="">
        <dc:format>image/svg+xml</dc:format>
        <dc:type
           rdf:resource="http://purl.org/dc/dcmitype/StillImage" />
        <dc:title />
      </cc:Work>
    </rdf:RDF>
  </metadata>
  <defs
     id="defs84" />
  <path
     d="m 256.03467,30.999875 c -82.278,0 -154.206,44.199 -193.446001,110.106005 -20.0241,33.633 -31.554,72.9 -31.554,114.894 0,124.26299 100.737001,225 225.000001,225 0.1323,0 0.2619,0 0.3942,0 l 0,-450.000005 c -0.1314,0 -0.2628,0 -0.3942,0 m 24.417,1.3221 c 0.8442,0.0909 1.6902,0.1809 2.5317,0.2817 -0.8388,-0.0999 -1.6902,-0.1908 -2.5317,-0.2817 m 17.775,2.6154 c 1.8,0.342 3.5847,0.7398 5.3721,1.125 -1.7901,-0.3852 -3.5667,-0.7821 -5.3721,-1.125 m 8.154,1.7442 c 0.7398,0.1692 1.485,0.3294 2.2221,0.5067 -0.7353,-0.1764 -1.4841,-0.3375 -2.2221,-0.5067 m 41.427,13.8375 c 0.6975,0.3123 1.3878,0.6372 2.0817,0.9567 -0.693,-0.3186 -1.3851,-0.6444 -2.0817,-0.9567 m 6.1596,2.8971 c 1.4463,0.7011 2.9025,1.4067 4.3317,2.1375 -1.4301,-0.7317 -2.8836,-1.4355 -4.3317,-2.1375 m 61.281,361.547995 c -2.5398,2.54431 -5.1318,5.03191 -7.7904,7.4529 2.6568,-2.41919 5.2524,-4.91039 7.7904,-7.4529 m -81.594,52.28101 c -1.7199,0.6327 -3.4353,1.2366 -5.175,1.8279 1.7334,-0.5895 3.4605,-1.1979 5.175,-1.8279 m -5.175,1.8279 c -1.3761,0.468 -2.7747,0.90899 -4.1625,1.35 1.3914,-0.4428 2.7828,-0.8811 4.1625,-1.35 m -5.5404,1.8 c -3.4254,1.0656 -6.885,2.0493 -10.3779,2.9529 3.4893,-0.9 6.957,-1.8891 10.3779,-2.9529 m -37.917,8.2692 c -1.8738,0.2412 -3.7368,0.4518 -5.625,0.6471 1.8819,-0.1944 3.7575,-0.4068 5.625,-0.6471 m -5.625,0.6471 c -1.5894,0.1638 -3.1824,0.3195 -4.7817,0.45 1.6011,-0.1314 3.1896,-0.2853 4.7817,-0.45"
     inkscape:connector-curvature="0"
     id="path10"
     style="fill:none;fill-opacity:1;fill-rule:evenodd;stroke:#000000;stroke-opacity:1;stroke-width:4;stroke-miterlimit:4;stroke-dasharray:none" />
  <path
     d="m 256.43067,30.999875 0,450.000005 c 124.083,-0.2133 224.604,-100.872 224.604,-225 0,-41.9877 -11.5326,-81.252 -31.554,-114.894 -39.1743,-65.808005 -110.934,-109.971005 -193.05,-110.106005"
     inkscape:connector-curvature="0"
     id="path12"
     style="fill:none;fill-opacity:1;fill-rule:evenodd;stroke:#000000;stroke-opacity:1;stroke-width:4;stroke-miterlimit:4;stroke-dasharray:none" />
  <text
     x="-1095.2361"
     y="536.00806"
     id="text16"
     style="font-size:198.73970032px;line-height:125%;font-family:'Gentium Book Basic';letter-spacing:0;word-spacing:0"
     sodipodi:linespacing="125%">
    <tspan
       x="-1095.2361"
       y="536.00806"
       id="tspan18" />
  </text>
  <text
     x="30.166414"
     y="1613.9227"
     transform="scale(4.0128205,0.24920128)"
     id="text20"
     style="font-size:72.21484375px;font-family:Arial;text-anchor:middle" />
  <text
     x="707.87378"
     y="232.49425"
     id="text34"
     style="font-size:123.28100586px;line-height:125%;font-family:'Gentium Book Basic';letter-spacing:0;word-spacing:0"
     sodipodi:linespacing="125%">
    <tspan
       x="707.87378"
       y="232.49425"
       id="tspan36" />
  </text>
  <text
     x="364.41144"
     y="599.87177"
     transform="scale(4.0128205,0.24920128)"
     id="text38"
     style="font-size:44.7922821px;font-family:Arial;text-anchor:middle" />
  <text
     x="1262.3855"
     y="156.17699"
     id="text40"
     style="font-size:123.28100586px;line-height:125%;font-family:'Gentium Book Basic';letter-spacing:0;word-spacing:0"
     sodipodi:linespacing="125%">
    <tspan
       x="1262.3855"
       y="156.17699"
       id="tspan42" />
  </text>
  <text
     x="502.59271"
     y="293.6217"
     transform="scale(4.0128205,0.24920128)"
     id="text44"
     style="font-size:44.7922821px;font-family:Arial;text-anchor:middle" />
  <text
     x="240.13478"
     y="-16.739828"
     id="text46"
     style="font-size:123.28100586px;line-height:125%;font-family:'Gentium Book Basic';letter-spacing:0;word-spacing:0"
     sodipodi:linespacing="125%">
    <tspan
       x="240.13478"
       y="-16.739828"
       id="tspan48" />
  </text>
  <text
     x="247.84695"
     y="-400.25134"
     transform="scale(4.0128205,0.24920128)"
     id="text50"
     style="font-size:44.7922821px;font-family:Arial;text-anchor:middle" />
  <text
     x="1287.637"
     y="-223.24385"
     id="text52"
     style="font-size:123.28100586px;line-height:125%;font-family:'Gentium Book Basic';letter-spacing:0;word-spacing:0"
     sodipodi:linespacing="125%">
    <tspan
       x="1287.637"
       y="-223.24385"
       id="tspan54" />
  </text>
  <text
     x="508.88882"
     y="-1228.9287"
     transform="scale(4.0128205,0.24920128)"
     id="text56"
     style="font-size:44.7922821px;font-family:Arial;text-anchor:middle" />
  <text
     x="1842.1487"
     y="-299.57068"
     id="text58"
     style="font-size:123.28100586px;line-height:125%;font-family:'Gentium Book Basic';letter-spacing:0;word-spacing:0"
     sodipodi:linespacing="125%">
    <tspan
       x="1842.1487"
       y="-299.57068"
       id="tspan60" />
  </text>
  <text
     x="647.07007"
     y="-1535.1882"
     transform="scale(4.0128205,0.24920128)"
     id="text62"
     style="font-size:44.7922821px;font-family:Arial;text-anchor:middle" />
  <text
     x="1470.9415"
     y="-750.22418"
     id="text64"
     style="font-size:123.28100586px;line-height:125%;font-family:'Gentium Book Basic';letter-spacing:0;word-spacing:0"
     sodipodi:linespacing="125%">
    <tspan
       x="1470.9415"
       y="-750.22418"
       id="tspan66" />
  </text>
  <text
     x="554.56445"
     y="-3343.574"
     transform="scale(4.0128205,0.24920128)"
     id="text68"
     style="font-size:44.7922821px;font-family:Arial;text-anchor:middle" />
  <text
     x="2025.4437"
     y="-826.54144"
     id="text70"
     style="font-size:123.28100586px;line-height:125%;font-family:'Gentium Book Basic';letter-spacing:0;word-spacing:0"
     sodipodi:linespacing="125%">
    <tspan
       x="2025.4437"
       y="-826.54144"
       id="tspan72" />
  </text>
  <text
     x="692.74573"
     y="-3649.824"
     transform="scale(4.0128205,0.24920128)"
     id="text74"
     style="font-size:44.7922821px;font-family:Arial;text-anchor:middle" />
  <text
     x="277.01508"
     y="523.05316"
     id="text76"
     style="font-size:198.73970032px;line-height:125%;font-family:'Gentium Book Basic';letter-spacing:0;word-spacing:0"
     sodipodi:linespacing="125%">
    <tspan
       x="277.01508"
       y="523.05316"
       id="tspan78" />
  </text>
  <path
     d="m 256.60023,138.69078 0,2.80275 c 0,-0.93203 0.0744,-1.83448 0.14882,-2.74265 -0.0429,-0.0143 -0.10685,-0.0458 -0.14882,-0.0601 m 9.77815,25.90971 c -1.21535,0.008 -2.43834,0.0181 -3.66705,0.0601 -2.04148,0.0696 -4.08106,0.26044 -6.1111,0.41785 -0.0162,0.002 -0.0134,-9.6e-4 -0.0296,0 -69.15299,5.56925 -128.96665,64.1542 -128.96665,64.1542 0,0 33.86102,98.01044 128.99526,106.9968 4.56664,0.44073 9.29354,0.83472 14.1311,0.83472 50.18528,0 138.70663,-25.70652 176.69356,-57.50506 -5.57403,-5.65033 -32.73057,-18.5451 -39.3511,-23.84915 -39.94732,34.48587 -81.24927,63.61998 -138.29643,63.61998 -4.57045,0 -8.95201,-0.29859 -13.17713,-0.83472 -69.81122,-8.78411 -93.6699,-85.77107 -93.6699,-85.77107 0,0 31.22521,-46.11471 93.6699,-50.88453 2.00906,-0.14024 4.04387,-0.2032 6.11111,-0.26807 0.88337,-0.0277 1.74957,-0.0572 2.62341,-0.0601 55.05909,-0.17171 91.07512,48.56259 91.07512,48.56259 0,0 -40.06466,55.72114 -83.02365,55.72114 -6.18266,0 -11.79484,-1.12472 -16.78408,-2.80275 -29.74465,-9.9947 -39.35109,-44.5979 -39.35109,-44.5979 0,0 17.26678,-20.65623 39.35109,-18.00611 22.00799,2.65966 26.56414,12.43018 39.7985,34.49541 l 29.36403,-24.95575 c 0,0 -21.43657,-28.11242 -57.6577,-28.11242 -3.93988,0 -7.80916,0.29001 -11.50483,0.6859 -42.07943,4.54946 -67.34045,32.55886 -67.34045,32.55886 0,0 14.58042,54.90073 67.34045,64.30683 4.94059,0.87384 10.18168,1.40138 15.80054,1.40138 61.30184,0 120.14246,-71.51787 120.14246,-71.51787 0,0 -49.60623,-65.12724 -126.16199,-64.63118"
     inkscape:connector-curvature="0"
     id="path80"
     style="fill:#000000;fill-rule:evenodd;fill-opacity:1" />
</svg>
