<?xml version="1.0" encoding="UTF-8" standalone="no"?>
<!-- Created with Inkscape (http://www.inkscape.org/) -->

<svg
   xmlns:dc="http://purl.org/dc/elements/1.1/"
   xmlns:cc="http://creativecommons.org/ns#"
   xmlns:rdf="http://www.w3.org/1999/02/22-rdf-syntax-ns#"
   xmlns:svg="http://www.w3.org/2000/svg"
   xmlns="http://www.w3.org/2000/svg"
   xmlns:xlink="http://www.w3.org/1999/xlink"
   xmlns:sodipodi="http://sodipodi.sourceforge.net/DTD/sodipodi-0.dtd"
   xmlns:inkscape="http://www.inkscape.org/namespaces/inkscape"
   version="1.0"
   width="128"
   height="128"
   id="svg2408"
   inkscape:version="0.48.5 r10040"
   sodipodi:docname="openttd.svg">
  <metadata
     id="metadata75">
    <rdf:RDF>
      <cc:Work
         rdf:about="">
        <dc:format>image/svg+xml</dc:format>
        <dc:type
           rdf:resource="http://purl.org/dc/dcmitype/StillImage" />
        <dc:title />
      </cc:Work>
    </rdf:RDF>
  </metadata>
  <sodipodi:namedview
     pagecolor="#ffffff"
     bordercolor="#666666"
     borderopacity="1"
     objecttolerance="10"
     gridtolerance="10"
     guidetolerance="10"
     inkscape:pageopacity="0"
     inkscape:pageshadow="2"
     inkscape:window-width="1920"
     inkscape:window-height="1007"
     id="namedview73"
     showgrid="false"
     inkscape:zoom="4.9166666"
     inkscape:cx="76.124281"
     inkscape:cy="46.714179"
     inkscape:window-x="0"
     inkscape:window-y="31"
     inkscape:window-maximized="1"
     inkscape:current-layer="svg2408" />
  <defs
     id="defs2410">
    <linearGradient
       id="linearGradient3865">
      <stop
         id="stop3867"
         style="stop-color:#bddb4e;stop-opacity:1"
         offset="0" />
      <stop
         id="stop3869"
         style="stop-color:#52b124;stop-opacity:1"
         offset="1" />
    </linearGradient>
    <linearGradient
       x1="45.447727"
       y1="92.539597"
       x2="45.447727"
       y2="7.0165396"
       id="ButtonShadow"
       gradientUnits="userSpaceOnUse"
       gradientTransform="scale(1.0058652,0.994169)">
      <stop
         id="stop3750"
         style="stop-color:#000000;stop-opacity:1"
         offset="0" />
      <stop
         id="stop3752"
         style="stop-color:#000000;stop-opacity:0.58823532"
         offset="1" />
    </linearGradient>
    <linearGradient
       id="linearGradient3737">
      <stop
         id="stop3739"
         style="stop-color:#ffffff;stop-opacity:1"
         offset="0" />
      <stop
         id="stop3741"
         style="stop-color:#ffffff;stop-opacity:0"
         offset="1" />
    </linearGradient>
    <linearGradient
       id="linearGradient3700">
      <stop
         id="stop3702"
         style="stop-color:#33632b;stop-opacity:1"
         offset="0" />
      <stop
         id="stop3704"
         style="stop-color:#45843a;stop-opacity:1"
         offset="1" />
    </linearGradient>
    <filter
       id="filter3174"
       style="color-interpolation-filters:sRGB">
      <feGaussianBlur
         id="feGaussianBlur3176"
         stdDeviation="1.71" />
    </filter>
    <linearGradient
       x1="36.357143"
       y1="6"
       x2="36.357143"
       y2="63.893143"
       id="linearGradient3188"
       xlink:href="#linearGradient3737"
       gradientUnits="userSpaceOnUse" />
    <filter
       x="-0.192"
       y="-0.192"
       width="1.3839999"
       height="1.3839999"
       id="filter3794"
       style="color-interpolation-filters:sRGB">
      <feGaussianBlur
         id="feGaussianBlur3796"
         stdDeviation="5.28" />
    </filter>
    <linearGradient
       x1="48"
       y1="20.220806"
       x2="48"
       y2="138.66119"
       id="linearGradient3613"
       xlink:href="#linearGradient3737"
       gradientUnits="userSpaceOnUse" />
    <radialGradient
       cx="48"
       cy="90.171875"
       r="42"
       fx="48"
       fy="90.171875"
       id="radialGradient3619"
       xlink:href="#linearGradient3737"
       gradientUnits="userSpaceOnUse"
       gradientTransform="matrix(1.1573129,0,0,0.99590774,-7.5510206,0.19713193)" />
    <clipPath
       id="clipPath3613">
      <rect
         width="84"
         height="84"
         rx="6"
         ry="6"
         x="6"
         y="6"
         id="rect3615"
         style="fill:#ffffff;fill-opacity:1;fill-rule:nonzero;stroke:none" />
    </clipPath>
    <linearGradient
       x1="48"
       y1="90"
       x2="48"
       y2="5.9877172"
       id="linearGradient3617"
       xlink:href="#linearGradient3700"
       gradientUnits="userSpaceOnUse" />
    <linearGradient
       x1="45.447727"
       y1="92.539597"
       x2="45.447727"
       y2="7.0165396"
       id="ButtonShadow-0"
       gradientUnits="userSpaceOnUse"
       gradientTransform="matrix(1.0058652,0,0,0.994169,100,0)">
      <stop
         id="stop3750-8"
         style="stop-color:#000000;stop-opacity:1"
         offset="0" />
      <stop
         id="stop3752-5"
         style="stop-color:#000000;stop-opacity:0.58823532"
         offset="1" />
    </linearGradient>
    <linearGradient
       x1="32.251034"
       y1="6.1317081"
       x2="32.251034"
       y2="90.238609"
       id="linearGradient3780"
       xlink:href="#ButtonShadow-0"
       gradientUnits="userSpaceOnUse"
       gradientTransform="matrix(1.0238095,0,0,1.0119048,-1.1428571,-98.071429)" />
    <linearGradient
       x1="32.251034"
       y1="6.1317081"
       x2="32.251034"
       y2="90.238609"
       id="linearGradient3772"
       xlink:href="#ButtonShadow-0"
       gradientUnits="userSpaceOnUse"
       gradientTransform="matrix(1.0238095,0,0,1.0119048,-1.1428571,-98.071429)" />
    <linearGradient
       x1="32.251034"
       y1="6.1317081"
       x2="32.251034"
       y2="90.238609"
       id="linearGradient3725"
       xlink:href="#ButtonShadow-0"
       gradientUnits="userSpaceOnUse"
       gradientTransform="matrix(1.0238095,0,0,1.0119048,-1.1428571,-98.071429)" />
    <linearGradient
       x1="32.251034"
       y1="6.1317081"
       x2="32.251034"
       y2="90.238609"
       id="linearGradient3721"
       xlink:href="#ButtonShadow-0"
       gradientUnits="userSpaceOnUse"
       gradientTransform="translate(0,-97)" />
    <linearGradient
       x1="32.251034"
       y1="6.1317081"
       x2="32.251034"
       y2="90.238609"
       id="linearGradient3026"
       xlink:href="#ButtonShadow-0"
       gradientUnits="userSpaceOnUse"
       gradientTransform="matrix(1.0238095,0,0,1.0119048,-1.1428571,-98.071429)" />
    <linearGradient
       id="linearGradient3269">
      <stop
         id="stop3271"
         style="stop-color:#ffffff;stop-opacity:1"
         offset="0" />
      <stop
         id="stop3273"
         style="stop-color:#ffffff;stop-opacity:0"
         offset="1" />
    </linearGradient>
    <linearGradient
       id="linearGradient3421">
      <stop
         id="stop3423"
         style="stop-color:#fe7600;stop-opacity:1"
         offset="0" />
      <stop
         id="stop3425"
         style="stop-color:#f2b26d;stop-opacity:1"
         offset="1" />
    </linearGradient>
    <linearGradient
       x1="312.62323"
       y1="468.58658"
       x2="315.21729"
       y2="471.18063"
       id="linearGradient3847"
       xlink:href="#linearGradient3269"
       gradientUnits="userSpaceOnUse"
       gradientTransform="matrix(0.31400775,0,0,0.31400775,29.107128,-121.42672)" />
    <linearGradient
       x1="312.62323"
       y1="468.58658"
       x2="315.21729"
       y2="471.18063"
       id="linearGradient3851"
       xlink:href="#linearGradient3269"
       gradientUnits="userSpaceOnUse"
       gradientTransform="matrix(0.31400775,0,0,0.31400775,28.283324,-108.67674)" />
    <linearGradient
       x1="136.3282"
       y1="151.16792"
       x2="117.66125"
       y2="78.463249"
       id="linearGradient3855"
       xlink:href="#linearGradient3421"
       gradientUnits="userSpaceOnUse"
       gradientTransform="matrix(0.31400775,0,0,0.31400775,106.55425,6.8488894)" />
    <linearGradient
       x1="48.742641"
       y1="30.801933"
       x2="86.437103"
       y2="30.801933"
       id="linearGradient3871"
       xlink:href="#linearGradient3865"
       gradientUnits="userSpaceOnUse"
       gradientTransform="translate(67.508309,-71.009057)" />
    <linearGradient
       x1="-19.139587"
       y1="-98.684196"
       x2="18.554882"
       y2="-98.684196"
       id="linearGradient3879"
       xlink:href="#linearGradient3865"
       gradientUnits="userSpaceOnUse"
       gradientTransform="translate(-71.009057,-67.508309)" />
    <linearGradient
       x1="136.3282"
       y1="151.16792"
       x2="117.66125"
       y2="78.463249"
       id="linearGradient3855-6"
       xlink:href="#linearGradient3421"
       gradientUnits="userSpaceOnUse"
       gradientTransform="matrix(0.31400775,0,0,0.31400775,199.05753,9.2733421)" />
    <linearGradient
       x1="48.742641"
       y1="30.801933"
       x2="86.437103"
       y2="30.801933"
       id="linearGradient3871-1"
       xlink:href="#linearGradient3865"
       gradientUnits="userSpaceOnUse"
       gradientTransform="translate(89.301131,-162.95621)" />
    <linearGradient
       x1="-19.139587"
       y1="-98.684196"
       x2="18.554882"
       y2="-98.684196"
       id="linearGradient3879-0"
       xlink:href="#linearGradient3865"
       gradientUnits="userSpaceOnUse"
       gradientTransform="translate(-162.95621,-89.301131)" />
  </defs>
  <g
     id="layer2"
     style="display:none"
     transform="translate(0,32)">
    <rect
       width="86"
       height="85"
       rx="6"
       ry="6"
       x="5"
       y="7"
       id="rect3745"
       style="opacity:0.9;fill:url(#ButtonShadow);fill-opacity:1;fill-rule:nonzero;stroke:none;filter:url(#filter3174)" />
  </g>
  <ellipse
     ry="32.612629"
     rx="32.753815"
     cy="82.784454"
     cx="-56.863102"
     style="fill:#ffffff;fill-opacity:1;fill-rule:nonzero;stroke:none"
     id="path3005" />
  <rect
     style="fill:none;fill-opacity:1;fill-rule:evenodd;stroke:#000000;stroke-opacity:1;stroke-width:2;stroke-miterlimit:4;stroke-dasharray:none"
     id="rect3829"
     width="112.48994"
     height="111.75471"
     x="8.0981579"
     y="8.523942"
     ry="17.977377" />
  <path
     inkscape:connector-curvature="0"
     style="fill:#000000;fill-opacity:1;fill-rule:evenodd;stroke:none"
     id="rect3418"
     d="M 64.60027,10.491534 14.962907,60.128892 64.60027,109.76625 114.25073,60.128892 64.60027,10.491534 z m -2.97457,17.00879 6.77468,0 0,8.700951 c 1.00574,0.304116 1.85212,0.614659 2.54216,0.930373 0.68997,0.315808 1.62159,0.834321 2.79111,1.559357 l 1.32349,-2.48973 3.82632,0 4.10151,15.894962 -6.44709,1.860745 c -1.68411,-4.373851 -4.39516,-7.583274 -8.1375,-9.618221 l 0,10.076856 c 4.60775,1.309856 7.95865,2.641504 10.06376,4.009776 2.10504,1.368326 3.71115,3.058282 4.82221,5.058084 1.11097,1.999839 1.66414,4.072484 1.66419,6.224324 -5e-5,2.315594 -0.6572,4.542808 -1.97869,6.682959 -1.32155,2.140171 -3.27148,3.93411 -5.84431,5.372577 -2.57291,1.438467 -5.47601,2.268935 -8.72716,2.502833 l 0,8.491289 -6.77468,0 0,-9.080961 c -2.68985,-0.631527 -5.50207,-2.012344 -8.42578,-4.140814 l -1.67729,4.140814 -3.82632,0 L 44.25,65.186976 50.95916,63.575203 c 1.21627,2.666449 2.38913,4.757831 3.51184,6.289845 1.12269,1.532042 2.38361,2.860872 3.78701,3.983567 1.02913,0.842042 2.15141,1.479049 3.36769,1.900058 l 0,-11.688628 c -5.02881,-1.684038 -8.48086,-3.151514 -10.35204,-4.402891 -1.87119,-1.251326 -3.34008,-2.841525 -4.41599,-4.782903 -1.07593,-1.941318 -1.62489,-3.908566 -1.62487,-5.896729 -2e-5,-2.26877 0.67306,-4.459906 2.01799,-6.565025 1.34489,-2.105035 3.20957,-3.779069 5.59533,-5.018772 2.38575,-1.239608 5.31788,-1.93002 8.77958,-2.070407 l 0,-7.822994 z m 0,15.580469 c -1.91798,0.25733 -3.28006,0.670447 -4.0753,1.231761 -1.14611,0.81868 -1.71662,1.802305 -1.71661,2.948365 -1e-5,0.959015 0.41452,1.876134 1.24487,2.76491 0.83032,0.888844 2.34838,1.715082 4.54704,2.463523 l 0,-9.408559 z m 6.77468,23.010347 0,10.535491 c 1.82438,-0.233887 3.27593,-0.750996 4.36359,-1.546255 1.08759,-0.795245 1.62484,-1.866925 1.62488,-3.223545 -4e-5,-1.192865 -0.40006,-2.22707 -1.21867,-3.092506 -1.12274,-1.146081 -2.71152,-2.041642 -4.7698,-2.673185 z" />
  <rect
     style="fill:#000000;fill-opacity:1;fill-rule:evenodd;stroke:#000000;stroke-width:2.67078114;stroke-linecap:round;stroke-linejoin:round;stroke-miterlimit:4;stroke-opacity:1;stroke-dasharray:none;stroke-dashoffset:0"
     id="rect3277"
     transform="matrix(0.70710678,0.70710678,-0.70710678,0.70710678,0,0)"
     y="36.218513"
     x="65.520264"
     height="12.815729"
     width="47.66605" />
  <rect
     style="fill:#000000;fill-opacity:1;fill-rule:evenodd;stroke:#000000;stroke-width:2.67078114;stroke-linecap:round;stroke-linejoin:round;stroke-miterlimit:4;stroke-opacity:1;stroke-dasharray:none;stroke-dashoffset:0"
     id="rect3279"
     transform="matrix(-0.70710678,0.70710678,-0.70710678,-0.70710678,0,0)"
     y="-140.11281"
     x="-25.558084"
     height="12.815734"
     width="47.666058" />
</svg>
