<?xml version="1.0" encoding="UTF-8" standalone="no"?>
<!-- Created with Inkscape (http://www.inkscape.org/) -->

<svg
   xmlns:dc="http://purl.org/dc/elements/1.1/"
   xmlns:cc="http://creativecommons.org/ns#"
   xmlns:rdf="http://www.w3.org/1999/02/22-rdf-syntax-ns#"
   xmlns:svg="http://www.w3.org/2000/svg"
   xmlns="http://www.w3.org/2000/svg"
   xmlns:sodipodi="http://sodipodi.sourceforge.net/DTD/sodipodi-0.dtd"
   xmlns:inkscape="http://www.inkscape.org/namespaces/inkscape"
   id="svg2"
   version="1.1"
   inkscape:version="0.48.5 r10040"
   width="512"
   height="512"
   sodipodi:docname="opera.svg"
   viewBox="0 0 512 512">
  <metadata
     id="metadata8">
    <rdf:RDF>
      <cc:Work
         rdf:about="">
        <dc:format>image/svg+xml</dc:format>
        <dc:type
           rdf:resource="http://purl.org/dc/dcmitype/StillImage" />
        <dc:title />
      </cc:Work>
    </rdf:RDF>
  </metadata>
  <defs
     id="defs6" />
  <sodipodi:namedview
     pagecolor="#ffffff"
     bordercolor="#666666"
     borderopacity="1"
     objecttolerance="10"
     gridtolerance="10"
     guidetolerance="10"
     inkscape:pageopacity="0"
     inkscape:pageshadow="2"
     inkscape:window-width="1920"
     inkscape:window-height="1007"
     id="namedview4"
     showgrid="false"
     inkscape:zoom="0.65186406"
     inkscape:cx="309.99301"
     inkscape:cy="152.51418"
     inkscape:window-x="0"
     inkscape:window-y="31"
     inkscape:window-maximized="1"
     inkscape:current-layer="svg2"
     inkscape:document-units="px" />
  <path
     inkscape:connector-curvature="0"
     id="path2986"
     d="M 238,486.38354 C 192.8036,482.24213 152.23387,466.7204 116.08977,439.74142 103.7773,430.55105 81.448954,408.2227 72.258581,395.91023 53.10176,370.24558 39.888637,342.86271 32.425323,313.35981 26.946052,291.69995 25.57414,280.21396 25.57414,256 c 0,-24.21396 1.371912,-35.69995 6.851183,-57.35981 C 42.903902,157.21778 65.567942,118.58177 96.818122,88.868021 131.61404,55.782866 174.51392,34.886725 223.14019,27.337705 c 15.82095,-2.456135 49.94764,-2.448187 65.82416,0.01533 50.86575,7.892705 94.08302,29.69745 130.07732,65.62893 30.21266,30.159925 50.30684,65.233595 60.53301,105.658225 5.47927,21.65986 6.85118,33.14585 6.85118,57.35981 0,24.21396 -1.37191,35.69995 -6.85118,57.35981 -16.24852,64.23129 -59.76831,118.33521 -119.47554,148.53232 -22.64204,11.45127 -45.3351,18.7525 -70.15873,22.57273 -10.09746,1.55395 -42.75526,2.76033 -51.94041,1.91868 z m 46.39286,-38.30973 C 322.08595,438.13141 355.43158,404.33619 375.24178,356 392.48999,313.915 397.65474,261.13832 389.38262,211.5 379.27176,150.82796 346.20903,98.220591 305.23869,77.615397 288.97521,69.436009 278.06432,66.760821 261,66.76872 250.80962,66.77342 246.69344,67.247902 238.72265,69.336592 202.83206,78.741466 173.13698,106.3236 152.4183,149.5 c -15.80126,32.92879 -23.38845,68.16317 -23.40923,108.71078 -0.0238,46.38386 10.00289,87.4122 29.95262,122.56388 21.17162,37.30469 49.89036,60.81756 83.53831,68.39525 10.70956,2.41185 30.56304,1.89239 41.89286,-1.0961 z"
     style="fill:#000000;fill-opacity:1" />
</svg>
