<?xml version="1.0" encoding="UTF-8" standalone="no"?>
<!-- Created with Inkscape (http://www.inkscape.org/) -->

<svg
   xmlns:dc="http://purl.org/dc/elements/1.1/"
   xmlns:cc="http://creativecommons.org/ns#"
   xmlns:rdf="http://www.w3.org/1999/02/22-rdf-syntax-ns#"
   xmlns:svg="http://www.w3.org/2000/svg"
   xmlns="http://www.w3.org/2000/svg"
   xmlns:sodipodi="http://sodipodi.sourceforge.net/DTD/sodipodi-0.dtd"
   xmlns:inkscape="http://www.inkscape.org/namespaces/inkscape"
   id="svg2"
   version="1.1"
   inkscape:version="0.48.5 r10040"
   width="512"
   height="512"
   sodipodi:docname="gparted.svg"
   viewBox="0 0 512 512">
  <metadata
     id="metadata8">
    <rdf:RDF>
      <cc:Work
         rdf:about="">
        <dc:format>image/svg+xml</dc:format>
        <dc:type
           rdf:resource="http://purl.org/dc/dcmitype/StillImage" />
        <dc:title />
      </cc:Work>
    </rdf:RDF>
  </metadata>
  <defs
     id="defs6">
    <clipPath
       clipPathUnits="userSpaceOnUse"
       id="clipPath6332">
      <rect
         style="opacity:1;fill:#002737;fill-opacity:1;stroke:none;stroke-width:0;stroke-linecap:butt;stroke-linejoin:miter;stroke-miterlimit:4;stroke-dasharray:none;stroke-dashoffset:0;stroke-opacity:1"
         id="rect6334"
         width="262.55066"
         height="36.242378"
         x="126.22997"
         y="674.26868"
         ry="9.1197138"
         rx="9.1197138" />
    </clipPath>
    <filter
       inkscape:collect="always"
       style="color-interpolation-filters:sRGB"
       id="filter4193"
       x="-0.066401109"
       width="1.1328022"
       y="-0.054724518"
       height="1.109449">
      <feGaussianBlur
         inkscape:collect="always"
         stdDeviation="10.233444"
         id="feGaussianBlur4195" />
    </filter>
  </defs>
  <sodipodi:namedview
     pagecolor="#ffffff"
     bordercolor="#666666"
     borderopacity="1"
     objecttolerance="10"
     gridtolerance="10"
     guidetolerance="10"
     inkscape:pageopacity="0"
     inkscape:pageshadow="2"
     inkscape:window-width="1920"
     inkscape:window-height="1007"
     id="namedview4"
     showgrid="false"
     inkscape:zoom="1.1035156"
     inkscape:cx="385.34733"
     inkscape:cy="247.45696"
     inkscape:window-x="0"
     inkscape:window-y="31"
     inkscape:window-maximized="1"
     inkscape:current-layer="g5275" />
  <g
     id="g5262"
     transform="translate(0,-256)">
    <g
       id="g5275">
      <rect
         style="opacity:1;fill:none;fill-opacity:1;stroke:#000000;stroke-width:0;stroke-linecap:butt;stroke-linejoin:miter;stroke-miterlimit:4;stroke-dasharray:none;stroke-dashoffset:0;stroke-opacity:1;image-rendering:optimizeSpeed"
         id="rect5752-11"
         width="334.28107"
         height="405.60675"
         x="88.859467"
         y="309.19662"
         ry="19.080246"
         rx="19.080246" />
      <rect
         style="fill:#000000;fill-opacity:1;stroke:#000000;stroke-width:0;stroke-linecap:butt;stroke-linejoin:miter;stroke-miterlimit:4;stroke-opacity:1;stroke-dasharray:none;stroke-dashoffset:0"
         id="rect6297-3"
         width="151.03758"
         height="20.849163"
         x="108.53477"
         y="684.22131"
         ry="5.2463002"
         rx="5.2463002" />
      <rect
         style="opacity:1;fill:none;fill-opacity:1;stroke:#000000;stroke-width:8;stroke-linecap:butt;stroke-linejoin:miter;stroke-miterlimit:4;stroke-dasharray:none;stroke-dashoffset:0;stroke-opacity:1;image-rendering:optimizeSpeed"
         id="rect5752-1-3"
         width="334.28107"
         height="355.50833"
         x="88.869896"
         y="308.11044"
         ry="16.723557"
         rx="19.080246" />
      <circle
         style="fill:#000000;fill-opacity:1;stroke:#000000;stroke-width:0;stroke-linecap:butt;stroke-linejoin:miter;stroke-miterlimit:4;stroke-opacity:1;stroke-dasharray:none;stroke-dashoffset:0"
         id="path6382-0"
         cx="348.1889"
         cy="688.61737"
         r="9.3491526"
         d="m 357.53806,688.61737 c 0,5.16339 -4.18576,9.34915 -9.34916,9.34915 -5.16339,0 -9.34915,-4.18576 -9.34915,-9.34915 0,-5.16339 4.18576,-9.34915 9.34915,-9.34915 5.1634,0 9.34916,4.18576 9.34916,9.34915 z"
         sodipodi:cx="348.1889"
         sodipodi:cy="688.61737"
         sodipodi:rx="9.3491526"
         sodipodi:ry="9.3491526"
         transform="translate(0,4)" />
      <circle
         style="fill:#000000;fill-opacity:1;stroke:#000000;stroke-width:0;stroke-linecap:butt;stroke-linejoin:miter;stroke-miterlimit:4;stroke-opacity:1;stroke-dasharray:none;stroke-dashoffset:0"
         id="path6382-7-3"
         cx="377.06168"
         cy="688.612"
         r="9.3491526"
         d="m 386.41083,688.612 c 0,5.16339 -4.18576,9.34915 -9.34915,9.34915 -5.1634,0 -9.34916,-4.18576 -9.34916,-9.34915 0,-5.16339 4.18576,-9.34915 9.34916,-9.34915 5.16339,0 9.34915,4.18576 9.34915,9.34915 z"
         sodipodi:cx="377.06168"
         sodipodi:cy="688.612"
         sodipodi:rx="9.3491526"
         sodipodi:ry="9.3491526"
         transform="translate(0,4)" />
      <circle
         style="color:#000000;clip-rule:nonzero;display:inline;overflow:visible;visibility:visible;opacity:1;isolation:auto;mix-blend-mode:normal;color-interpolation:sRGB;color-interpolation-filters:linearRGB;solid-color:#000000;solid-opacity:1;fill:#000000;fill-opacity:1;fill-rule:nonzero;stroke:#000000;stroke-width:0.90376197999999996;stroke-linecap:round;stroke-linejoin:round;stroke-miterlimit:4;stroke-dasharray:none;stroke-dashoffset:0;stroke-opacity:1;color-rendering:auto;image-rendering:auto;shape-rendering:auto;text-rendering:auto;enable-background:accumulate"
         id="path4157"
         cx="105.71203"
         cy="324.95261"
         r="7.3526402"
         d="m 113.06467,324.95261 c 0,4.06075 -3.29189,7.35264 -7.35264,7.35264 -4.06075,0 -7.352642,-3.29189 -7.352642,-7.35264 0,-4.06075 3.291892,-7.35264 7.352642,-7.35264 4.06075,0 7.35264,3.29189 7.35264,7.35264 z" />
      <circle
         style="color:#000000;clip-rule:nonzero;display:inline;overflow:visible;visibility:visible;opacity:1;isolation:auto;mix-blend-mode:normal;color-interpolation:sRGB;color-interpolation-filters:linearRGB;solid-color:#000000;solid-opacity:1;fill:#000000;fill-opacity:1;fill-rule:nonzero;stroke:#000000;stroke-width:0.90376197999999996;stroke-linecap:round;stroke-linejoin:round;stroke-miterlimit:4;stroke-dasharray:none;stroke-dashoffset:0;stroke-opacity:1;color-rendering:auto;image-rendering:auto;shape-rendering:auto;text-rendering:auto;enable-background:accumulate"
         id="path4157-6"
         cx="406.30884"
         cy="324.95261"
         r="7.3526402"
         d="m 413.66148,324.95261 c 0,4.06075 -3.29189,7.35264 -7.35264,7.35264 -4.06075,0 -7.35264,-3.29189 -7.35264,-7.35264 0,-4.06075 3.29189,-7.35264 7.35264,-7.35264 4.06075,0 7.35264,3.29189 7.35264,7.35264 z" />
      <circle
         style="color:#000000;clip-rule:nonzero;display:inline;overflow:visible;visibility:visible;opacity:1;isolation:auto;mix-blend-mode:normal;color-interpolation:sRGB;color-interpolation-filters:linearRGB;solid-color:#000000;solid-opacity:1;fill:#000000;fill-opacity:1;fill-rule:nonzero;stroke:#000000;stroke-width:0.90376197999999996;stroke-linecap:round;stroke-linejoin:round;stroke-miterlimit:4;stroke-dasharray:none;stroke-dashoffset:0;stroke-opacity:1;color-rendering:auto;image-rendering:auto;shape-rendering:auto;text-rendering:auto;enable-background:accumulate"
         id="path4157-7"
         cx="105.71203"
         cy="646.77667"
         r="7.3526402"
         d="m 113.06467,646.77667 c 0,4.06075 -3.29189,7.35264 -7.35264,7.35264 -4.06075,0 -7.352642,-3.29189 -7.352642,-7.35264 0,-4.06075 3.291892,-7.35264 7.352642,-7.35264 4.06075,0 7.35264,3.29189 7.35264,7.35264 z" />
      <circle
         style="color:#000000;clip-rule:nonzero;display:inline;overflow:visible;visibility:visible;opacity:1;isolation:auto;mix-blend-mode:normal;color-interpolation:sRGB;color-interpolation-filters:linearRGB;solid-color:#000000;solid-opacity:1;fill:#000000;fill-opacity:1;fill-rule:nonzero;stroke:#000000;stroke-width:0.90376197999999996;stroke-linecap:round;stroke-linejoin:round;stroke-miterlimit:4;stroke-dasharray:none;stroke-dashoffset:0;stroke-opacity:1;color-rendering:auto;image-rendering:auto;shape-rendering:auto;text-rendering:auto;enable-background:accumulate"
         id="path4157-5"
         cx="406.30884"
         cy="646.77667"
         r="7.3526402"
         d="m 413.66148,646.77667 c 0,4.06075 -3.29189,7.35264 -7.35264,7.35264 -4.06075,0 -7.35264,-3.29189 -7.35264,-7.35264 0,-4.06075 3.29189,-7.35264 7.35264,-7.35264 4.06075,0 7.35264,3.29189 7.35264,7.35264 z" />
      <g
         id="g4182"
         transform="matrix(0.90376198,0,0,0.90376198,24.636935,49.273854)"
         style="stroke:#000000;stroke-opacity:1">
        <path
           inkscape:connector-curvature="0"
           id="circle4250"
           d="m 260.96665,499.27468 0,140.25944 A 146.3577,146.3577 0 0 0 363.27887,597.79935 L 260.96665,499.27468 z"
           style="fill:#000000;fill-opacity:1;stroke:#000000;stroke-opacity:1" />
        <path
           inkscape:connector-curvature="0"
           id="path4231"
           d="m 263.17962,317.45918 0,170.75065 115.47345,111.19749 A 164.65241,164.65241 0 0 0 427.83203,482.11159 164.65241,164.65241 0 0 0 263.17962,317.45918 z"
           style="fill:#000000;fill-opacity:1;stroke:#000000;stroke-opacity:1" />
        <path
           inkscape:connector-curvature="0"
           id="path4236"
           d="m 254.32774,501.48765 -115.4139,111.13799 a 164.65241,164.65242 0 0 0 115.4139,47.41617 l 0,-158.55416 z"
           style="fill:#000000;fill-opacity:1;stroke:#000000;stroke-opacity:1" />
        <path
           inkscape:connector-curvature="0"
           id="circle4243"
           d="m 101.54552,499.27468 a 146.3577,146.3577 0 0 0 43.91446,98.44124 l 102.22885,-98.44124 -146.14331,0 z"
           style="fill:#000000;fill-opacity:1;stroke:#000000;stroke-opacity:1" />
      </g>
      <rect
         style="fill:none;stroke:#000000;stroke-width:6.25591469;stroke-linecap:butt;stroke-linejoin:miter;stroke-miterlimit:4;stroke-opacity:1;stroke-dasharray:none;stroke-dashoffset:0"
         id="rect3774"
         width="337.9693"
         height="56.623024"
         x="87.474472"
         y="669.74744"
         rx="27.369467"
         ry="9.0319519" />
    </g>
  </g>
</svg>
