<?xml version="1.0" encoding="UTF-8" standalone="no"?>
<!-- Generator: flash2svg, http://dissentgraphics.com/tools/flash2svg -->

<svg
   xmlns:dc="http://purl.org/dc/elements/1.1/"
   xmlns:cc="http://creativecommons.org/ns#"
   xmlns:rdf="http://www.w3.org/1999/02/22-rdf-syntax-ns#"
   xmlns:svg="http://www.w3.org/2000/svg"
   xmlns="http://www.w3.org/2000/svg"
   xmlns:sodipodi="http://sodipodi.sourceforge.net/DTD/sodipodi-0.dtd"
   xmlns:inkscape="http://www.inkscape.org/namespaces/inkscape"
   id="Imovie"
   version="1.1"
   style="image-rendering:optimizeSpeed"
   x="0px"
   y="0px"
   width="512"
   height="512"
   viewBox="0 0 512 512"
   enable-background="new 0 0 1024 1024"
   inkscape:version="0.48.5 r10040"
   sodipodi:docname="kdenlive.svg">
  <metadata
     id="metadata77">
    <rdf:RDF>
      <cc:Work
         rdf:about="">
        <dc:format>image/svg+xml</dc:format>
        <dc:type
           rdf:resource="http://purl.org/dc/dcmitype/StillImage" />
        <dc:title />
      </cc:Work>
    </rdf:RDF>
  </metadata>
  <sodipodi:namedview
     pagecolor="#ffffff"
     bordercolor="#666666"
     borderopacity="1"
     objecttolerance="10"
     gridtolerance="10"
     guidetolerance="10"
     inkscape:pageopacity="0"
     inkscape:pageshadow="2"
     inkscape:window-width="1916"
     inkscape:window-height="1005"
     id="namedview75"
     showgrid="false"
     inkscape:zoom="2"
     inkscape:cx="220.8677"
     inkscape:cy="347.13377"
     inkscape:window-x="0"
     inkscape:window-y="31"
     inkscape:window-maximized="0"
     inkscape:current-layer="Imovie"
     borderlayer="true" />
  <defs
     transform="matrix(1 0 0 1 0 0) "
     id="defs3">
    <filter
       inkscape:collect="always"
       style="color-interpolation-filters:sRGB"
       id="filter4183"
       x="-0.036032893"
       width="1.0720658"
       y="-0.035967167"
       height="1.0719343">
      <feGaussianBlur
         inkscape:collect="always"
         stdDeviation="3.7455129"
         id="feGaussianBlur4185" />
    </filter>
  </defs>
  <path
     style="opacity:1;fill:none;fill-opacity:1;stroke:#000000;stroke-width:8;stroke-miterlimit:4;stroke-dasharray:none;stroke-opacity:1"
     d="m 110.44492,74.680701 c -15.992993,0 -29.237273,0.158515 -29.431633,0.35115 -0.19438,0.192625 6.38281,7.041739 14.61719,15.219115 l 14.972653,14.803354 -0.13477,16.10765 -0.13476,16.04304 -40.158203,0.12948 -40.15821,0.12947 0,37.79473 c -0.0388,0.10518 -0.0882,0.20482 -0.12304,0.31192 l 0,255.85689 c 1.03859,3.19254 3.87024,5.55349 7.31445,5.88716 l 437.152353,0 c 4.35853,-0.42225 7.74414,-4.08851 7.74414,-8.58062 l 0,-250.46998 c 0,-0.3908 -0.0324,-0.77286 -0.082,-1.14958 L 481.7438,87.813053 c 0,-6.45078 -2.63837,-12.651213 -12.08789,-12.755905 l -23,-0.25482 c -13.04681,-0.144547 -20.65752,-0.03658 -21.05469,0.357036 -0.41028,0.406614 3.34717,4.432831 13.98242,14.979784 7.99924,7.932853 14.70797,14.701542 14.9082,14.915172 0.20026,0.21363 -6.91449,7.51075 -15.81054,16.34306 l -16.17578,16.05874 -20.12305,0 c -14.03927,0 -20.22741,-0.16545 -20.46679,-0.54929 -0.19765,-0.31696 6.49739,-7.33981 15.79101,-16.56683 L 413.8395,105.05432 399.66568,90.219579 c -7.79504,-7.756881 -14.78841,-14.426655 -15.54102,-14.820884 -1.11497,-0.584053 -4.88534,-0.717994 -20.36523,-0.717994 -13.51507,0 -19.10117,0.163437 -19.35157,0.564978 -0.20929,0.335603 5.52522,6.392728 14.14453,14.94055 7.973,7.906859 14.66109,14.654461 14.86133,14.868091 0.20025,0.21363 -6.91449,7.51075 -15.81054,16.34306 l -16.17579,16.05874 -20.12304,0 c -14.03927,0 -20.22742,-0.16545 -20.4668,-0.54929 -0.19765,-0.31696 6.4974,-7.33981 15.79102,-16.56683 l 16.13281,-15.28568 -14.17383,-14.834741 c -7.79504,-7.756881 -14.7884,-14.426655 -15.54102,-14.820884 -1.11497,-0.584053 -4.88534,-0.717994 -20.36523,-0.717994 -13.51507,0 -19.10116,0.163437 -19.35156,0.564978 -0.20929,0.335603 5.52521,6.392728 14.14453,14.94055 7.973,7.906859 14.66109,14.654461 14.86133,14.868091 0.20025,0.21363 -6.9145,7.51075 -15.81055,16.34306 l -16.17578,16.05874 -20.12305,0 c -14.03927,0 -20.22741,-0.16545 -20.46679,-0.54929 -0.19765,-0.31696 6.49739,-7.33981 15.79101,-16.56683 L 251.80768,105.05432 237.5094,90.219579 c -7.79504,-7.756881 -14.78841,-14.426655 -15.54102,-14.820884 -1.11497,-0.584053 -4.88534,-0.717994 -20.36523,-0.717994 -13.51507,0 -19.10117,0.163437 -19.35157,0.564978 -0.20929,0.335603 5.52521,6.392728 14.14453,14.94055 7.973,7.906859 14.66109,14.654461 14.86133,14.868091 0.20025,0.21363 -6.91448,7.51075 -15.81054,16.34306 l -16.17579,16.05874 -20.12304,0 c -14.03927,0 -20.22742,-0.16545 -20.4668,-0.54929 -0.19765,-0.31696 6.4974,-7.33981 15.79102,-16.56683 L 170.6051,105.05432 156.43127,90.219579 c -7.79504,-7.756881 -14.7884,-14.426655 -15.54101,-14.820884 -1.13937,-0.596829 -6.23351,-0.717994 -30.44532,-0.717994 z"
     id="rect4161"
     inkscape:connector-curvature="0"
     sodipodi:nodetypes="sccccccccccccssccsssscccscsccsscscccscscccscscccscsccsscscccscsccss" />
  <path
     style="opacity:1;fill:#000000;fill-opacity:1;stroke:none;stroke-width:14.39999961999999911;stroke-linecap:round;stroke-linejoin:round;stroke-opacity:1"
     d="m 134.49164,231.30785 c 2.25842,-10.40818 11.49348,-18.17724 22.53891,-18.15487 l 133.32519,0.20462 c 12.72762,0.0258 23.04436,10.3557 23.01858,23.08331 l -0.0416,42.32163 64.8419,-47.40263 -0.17018,93.40602 -64.72681,-45.07034 -0.0244,39.81239 c 0.0416,12.77059 -10.34383,23.09822 -23.07143,23.07244 l -133.3252,-0.20461 c -6.36583,-0.022 -11.79791,-2.2732 -16.29486,-6.75544 -4.50506,-4.51901 -6.74956,-9.97913 -6.73559,-16.38172 l 0.12117,-75.36664 z"
     id="path55"
     inkscape:connector-curvature="0"
     sodipodi:nodetypes="ccccccccccccccc" />
  <g
     id="g4169"
     transform="matrix(0.74579316,0,0,0.74579316,-147.23412,59.326)">
    <path
       inkscape:connector-curvature="0"
       style="fill:#000000;fill-opacity:1;fill-rule:evenodd;stroke:none"
       d="m 845.88421,464.27502 c -5.54034,5.2297 -18.3494,16.22928 -18.3494,16.22928 l 30.02063,30.24206 c 0,0 12.99398,-13.3527 18.86428,-18.89388 1.45891,-1.37712 1.27063,-4.46277 -0.18832,-5.83986 -4.55189,-4.29673 -12.10125,-11.27281 -12.10125,-11.27281 0,0 -7.10742,-6.75718 -11.4836,-10.88801 -1.5974,-1.50784 -5.16497,-1.08463 -6.76241,0.42323 z m -31.54223,27.0282 -80.24429,75.5924 0.69238,29.89998 31.32422,-0.17883 79.36797,-74.89787 z"
       id="path4161" />
  </g>
</svg>
