<?xml version="1.0" encoding="UTF-8" standalone="no"?>
<svg
   xmlns:dc="http://purl.org/dc/elements/1.1/"
   xmlns:cc="http://creativecommons.org/ns#"
   xmlns:rdf="http://www.w3.org/1999/02/22-rdf-syntax-ns#"
   xmlns:svg="http://www.w3.org/2000/svg"
   xmlns="http://www.w3.org/2000/svg"
   xmlns:sodipodi="http://sodipodi.sourceforge.net/DTD/sodipodi-0.dtd"
   xmlns:inkscape="http://www.inkscape.org/namespaces/inkscape"
   viewBox="0 0 48 48"
   id="svg2"
   version="1.1"
   inkscape:version="0.48.5 r10040"
   width="100%"
   height="100%"
   sodipodi:docname="preferences-management-service.svg">
  <metadata
     id="metadata61">
    <rdf:RDF>
      <cc:Work
         rdf:about="">
        <dc:format>image/svg+xml</dc:format>
        <dc:type
           rdf:resource="http://purl.org/dc/dcmitype/StillImage" />
      </cc:Work>
    </rdf:RDF>
  </metadata>
  <sodipodi:namedview
     pagecolor="#ffffff"
     bordercolor="#666666"
     borderopacity="1"
     objecttolerance="10"
     gridtolerance="10"
     guidetolerance="10"
     inkscape:pageopacity="0"
     inkscape:pageshadow="2"
     inkscape:window-width="1920"
     inkscape:window-height="1007"
     id="namedview59"
     showgrid="false"
     inkscape:zoom="13.906433"
     inkscape:cx="30.998831"
     inkscape:cy="31.789988"
     inkscape:window-x="0"
     inkscape:window-y="31"
     inkscape:window-maximized="1"
     inkscape:current-layer="svg2" />
  <defs
     id="defs4">
    <linearGradient
       id="linearGradient3764"
       x1="1"
       x2="47"
       gradientUnits="userSpaceOnUse"
       gradientTransform="matrix(0,-1,1,0,-1.5e-6,47.999998)">
      <stop
         stop-color="#8f3767"
         stop-opacity="1"
         id="stop7" />
      <stop
         offset="1"
         stop-color="#9d3c70"
         stop-opacity="1"
         id="stop9" />
    </linearGradient>
    <clipPath
       id="clipPath-070300476">
      <g
         transform="translate(0,-1004.3622)"
         id="g12">
        <path
           d="m -24 13 c 0 1.105 -0.672 2 -1.5 2 -0.828 0 -1.5 -0.895 -1.5 -2 0 -1.105 0.672 -2 1.5 -2 0.828 0 1.5 0.895 1.5 2 z"
           transform="matrix(15.333333,0,0,11.5,414.99999,878.8622)"
           fill="#1890d0"
           id="path14" />
      </g>
    </clipPath>
    <clipPath
       id="clipPath-080148575">
      <g
         transform="translate(0,-1004.3622)"
         id="g17">
        <path
           d="m -24 13 c 0 1.105 -0.672 2 -1.5 2 -0.828 0 -1.5 -0.895 -1.5 -2 0 -1.105 0.672 -2 1.5 -2 0.828 0 1.5 0.895 1.5 2 z"
           transform="matrix(15.333333,0,0,11.5,414.99999,878.8622)"
           fill="#1890d0"
           id="path19" />
      </g>
    </clipPath>
  </defs>
  <g
     id="g29"
     style="fill:none;fill-opacity:1;stroke:#000000;stroke-opacity:1">
    <path
       d="m 24 1 c 12.703 0 23 10.297 23 23 c 0 12.703 -10.297 23 -23 23 -12.703 0 -23 -10.297 -23 -23 0 -12.703 10.297 -23 23 -23 z"
       fill="url(#linearGradient3764)"
       fill-opacity="1"
       id="path31"
       style="fill:none;fill-opacity:1;stroke:#000000;stroke-opacity:1" />
  </g>
  <g
     id="g33" />
  <g
     id="g47"
     style="fill:#000000;fill-opacity:1">
    <g
       clip-path="url(#clipPath-080148575)"
       id="g49"
       style="fill:#000000;fill-opacity:1">
      <!-- color: #9d3c70 -->
      <g
         id="g51"
         style="fill:#000000;fill-opacity:1">
        <path
           d="m 24 9 c -8.285 0 -15 6.715 -15 15 c 0 8.285 6.715 15 15 15 c 8.285 0 15 -6.715 15 -15 c 0 -8.285 -6.715 -15 -15 -15 m 0 2.637 c 6.816 0 12.363 5.547 12.363 12.363 c 0 6.82 -5.547 12.363 -12.363 12.363 c -6.82 0 -12.363 -5.547 -12.363 -12.363 c 0 -6.816 5.543 -12.363 12.363 -12.363 m 0 1.992 c -5.738 0 -10.371 4.633 -10.371 10.371 c 0 5.738 4.633 10.371 10.371 10.371 c 5.738 0 10.371 -4.633 10.371 -10.371 c 0 -5.738 -4.633 -10.371 -10.371 -10.371 m 0 0"
           id="path53"
           stroke="none"
           fill-rule="nonzero"
           fill-opacity="1"
           fill="#f9f9f9"
           style="fill:#000000;fill-opacity:1" />
      </g>
    </g>
  </g>
</svg>
