<?xml version="1.0" encoding="UTF-8" standalone="no"?>
<!-- Created with Inkscape (http://www.inkscape.org/) -->

<svg
   xmlns:dc="http://purl.org/dc/elements/1.1/"
   xmlns:cc="http://creativecommons.org/ns#"
   xmlns:rdf="http://www.w3.org/1999/02/22-rdf-syntax-ns#"
   xmlns:svg="http://www.w3.org/2000/svg"
   xmlns="http://www.w3.org/2000/svg"
   xmlns:sodipodi="http://sodipodi.sourceforge.net/DTD/sodipodi-0.dtd"
   xmlns:inkscape="http://www.inkscape.org/namespaces/inkscape"
   width="128"
   height="128"
   id="svg859"
   version="1.1"
   inkscape:version="0.48.5 r10040"
   sodipodi:docname="preferences-system-windows-move.svg">
  <defs
     id="defs861" />
  <sodipodi:namedview
     id="base"
     pagecolor="#ffffff"
     bordercolor="#666666"
     borderopacity="1.0"
     inkscape:pageopacity="0.0"
     inkscape:pageshadow="2"
     inkscape:zoom="4.057971"
     inkscape:cx="45.863487"
     inkscape:cy="42.206444"
     inkscape:document-units="px"
     inkscape:current-layer="layer1"
     showgrid="false"
     width="0px"
     height="0px"
     fit-margin-top="0"
     fit-margin-left="0"
     fit-margin-right="0"
     fit-margin-bottom="0"
     inkscape:window-width="1920"
     inkscape:window-height="1007"
     inkscape:window-x="0"
     inkscape:window-y="31"
     inkscape:window-maximized="1"
     showguides="false">
    <sodipodi:guide
       position="2,41.000017"
       orientation="34,0"
       id="guide3353" />
    <sodipodi:guide
       position="2,7.0000174"
       orientation="0,43.999992"
       id="guide3355" />
    <sodipodi:guide
       position="45.999992,7.0000174"
       orientation="-34,0"
       id="guide3357" />
    <sodipodi:guide
       position="45.999992,41.000017"
       orientation="0,-43.999992"
       id="guide3359" />
    <sodipodi:guide
       position="2,41.000017"
       orientation="4,0"
       id="guide3361" />
    <sodipodi:guide
       position="2,37.000017"
       orientation="0,43.999981"
       id="guide3363" />
    <sodipodi:guide
       position="45.999981,37.000017"
       orientation="-4,0"
       id="guide3365" />
    <sodipodi:guide
       position="45.999981,41.000017"
       orientation="0,-43.999981"
       id="guide3367" />
  </sodipodi:namedview>
  <metadata
     id="metadata864">
    <rdf:RDF>
      <cc:Work
         rdf:about="">
        <dc:format>image/svg+xml</dc:format>
        <dc:type
           rdf:resource="http://purl.org/dc/dcmitype/StillImage" />
        <dc:title />
      </cc:Work>
    </rdf:RDF>
  </metadata>
  <g
     inkscape:label="Capa 1"
     inkscape:groupmode="layer"
     id="layer1"
     transform="translate(0,-924.3622)">
    <rect
       style="fill:none;fill-opacity:1;stroke:#000000;stroke-opacity:1;stroke-width:4;stroke-miterlimit:4;stroke-dasharray:none"
       id="rect907"
       width="119.07301"
       height="89.702232"
       x="4.3692675"
       y="944.85632" />
    <rect
       y="944.36346"
       x="4.3692675"
       height="10.611191"
       width="119.07298"
       id="rect920"
       style="fill:none;fill-opacity:1;stroke:#000000;stroke-opacity:1;stroke-width:2;stroke-miterlimit:4;stroke-dasharray:none" />
    <rect
       style="fill:#000000;fill-opacity:1;stroke:none"
       id="rect825"
       width="6.4795084"
       height="6.3516335"
       x="97.695999"
       y="959.80017" />
    <rect
       y="959.80017"
       x="109.58791"
       height="6.3516335"
       width="6.4795084"
       id="rect827"
       style="fill:#000000;fill-opacity:1;stroke:none" />
    <path
       sodipodi:type="arc"
       style="fill:none;stroke:none"
       id="path3303"
       sodipodi:cx="43.998596"
       sodipodi:cy="1013.3622"
       sodipodi:rx="2.0013857"
       sodipodi:ry="2.0000615"
       d="m 45.999982,1013.3622 c 0,1.1046 -0.896051,2 -2.001386,2 -1.105335,0 -2.001385,-0.8954 -2.001385,-2 0,-1.1046 0.89605,-2.0001 2.001385,-2.0001 1.105335,0 2.001386,0.8955 2.001386,2.0001 z"
       transform="matrix(2.7062054,0,0,2.6527978,-1.0431435,-1738.5756)" />
    <rect
       y="959.80017"
       x="85.804077"
       height="6.3516335"
       width="6.4795084"
       id="rect3309"
       style="fill:#000000;fill-opacity:1;stroke:none" />
    <g
       id="g3016"
       transform="matrix(0.11085336,0,0,0.11085336,35.049517,965.62241)"
       style="fill:#808080;fill-opacity:1" />
    <path
       style="fill:#000000;stroke:#000000;stroke-opacity:1;stroke-width:2;stroke-miterlimit:4;stroke-dasharray:none;fill-opacity:1"
       inkscape:connector-curvature="0"
       id="shape0"
       d="m 64.43144,966.5679 c -16.465789,0 -29.815817,12.72897 -29.815817,28.42861 0,15.69969 13.350028,28.42889 29.815817,28.42889 16.465623,0 29.815844,-12.7292 29.815844,-28.42889 0,-15.69964 -13.350221,-28.42861 -29.815844,-28.42861 z m 11.180969,35.5359 0,-3.5535 -7.453961,0 0,7.107 3.72698,0 -7.453988,7.1073 -7.453934,-7.1073 3.726981,0 0,-7.107 -7.453961,0 0,3.5535 -7.453961,-7.10729 7.453961,-7.10701 0,3.5535 7.453961,0 0,-7.10729 -3.726981,0 7.453934,-7.10701 7.453988,7.10701 -3.72698,0 0,7.10729 7.453961,0 0,-3.5535 7.453933,7.10701 z" />
  </g>
</svg>
