<?xml version="1.0" encoding="UTF-8" standalone="no"?>
<svg
   xmlns:dc="http://purl.org/dc/elements/1.1/"
   xmlns:cc="http://creativecommons.org/ns#"
   xmlns:rdf="http://www.w3.org/1999/02/22-rdf-syntax-ns#"
   xmlns:svg="http://www.w3.org/2000/svg"
   xmlns="http://www.w3.org/2000/svg"
   xmlns:sodipodi="http://sodipodi.sourceforge.net/DTD/sodipodi-0.dtd"
   xmlns:inkscape="http://www.inkscape.org/namespaces/inkscape"
   viewBox="0 0 48 48"
   id="svg2"
   version="1.1"
   inkscape:version="0.48.5 r10040"
   width="100%"
   height="100%"
   sodipodi:docname="preferences-web-browser-cookies.svg">
  <metadata
     id="metadata113">
    <rdf:RDF>
      <cc:Work
         rdf:about="">
        <dc:format>image/svg+xml</dc:format>
        <dc:type
           rdf:resource="http://purl.org/dc/dcmitype/StillImage" />
      </cc:Work>
    </rdf:RDF>
  </metadata>
  <sodipodi:namedview
     pagecolor="#ffffff"
     bordercolor="#666666"
     borderopacity="1"
     objecttolerance="10"
     gridtolerance="10"
     guidetolerance="10"
     inkscape:pageopacity="0"
     inkscape:pageshadow="2"
     inkscape:window-width="1920"
     inkscape:window-height="1007"
     id="namedview111"
     showgrid="false"
     inkscape:zoom="19.666667"
     inkscape:cx="31.24982"
     inkscape:cy="27.584937"
     inkscape:window-x="0"
     inkscape:window-y="31"
     inkscape:window-maximized="1"
     inkscape:current-layer="g77" />
  <defs
     id="defs4">
    <linearGradient
       id="linearGradient3764"
       x1="1"
       x2="47"
       gradientUnits="userSpaceOnUse"
       gradientTransform="matrix(0,-1,1,0,-1.5e-6,47.999998)">
      <stop
         stop-color="#e4e4e4"
         stop-opacity="1"
         id="stop7" />
      <stop
         offset="1"
         stop-color="#eee"
         stop-opacity="1"
         id="stop9" />
    </linearGradient>
    <clipPath
       id="clipPath-012105678">
      <g
         transform="translate(0,-1004.3622)"
         id="g12">
        <path
           d="m -24 13 c 0 1.105 -0.672 2 -1.5 2 -0.828 0 -1.5 -0.895 -1.5 -2 0 -1.105 0.672 -2 1.5 -2 0.828 0 1.5 0.895 1.5 2 z"
           transform="matrix(15.333333,0,0,11.5,414.99999,878.8622)"
           fill="#1890d0"
           id="path14" />
      </g>
    </clipPath>
    <clipPath
       id="clipPath-024200665">
      <g
         transform="translate(0,-1004.3622)"
         id="g17">
        <path
           d="m -24 13 c 0 1.105 -0.672 2 -1.5 2 -0.828 0 -1.5 -0.895 -1.5 -2 0 -1.105 0.672 -2 1.5 -2 0.828 0 1.5 0.895 1.5 2 z"
           transform="matrix(15.333333,0,0,11.5,414.99999,878.8622)"
           fill="#1890d0"
           id="path19" />
      </g>
    </clipPath>
  </defs>
  <g
     id="g29"
     style="fill:none;stroke:#000000;stroke-opacity:1">
    <path
       d="m 24 1 c 12.703 0 23 10.297 23 23 c 0 12.703 -10.297 23 -23 23 -12.703 0 -23 -10.297 -23 -23 0 -12.703 10.297 -23 23 -23 z"
       fill="url(#linearGradient3764)"
       fill-opacity="1"
       id="path31"
       style="fill:none;stroke:#000000;stroke-opacity:1" />
  </g>
  <g
     id="g33" />
  <g
     id="g73"
     style="fill:none;stroke:#000000;stroke-opacity:1">
    <g
       clip-path="url(#clipPath-024200665)"
       id="g75"
       style="fill:none;stroke:#000000;stroke-opacity:1">
      <!-- color: #eeeeee -->
      <g
         id="g77"
         style="fill:none;stroke:#000000;stroke-opacity:1">
        <path
           d="m 39 24 c 0 8.285 -6.715 15 -15 15 c -8.285 0 -15 -6.715 -15 -15 c 0 -8.285 6.715 -15 15 -15 c 8.285 0 15 6.715 15 15 m 0 0"
           fill="#d0a15b"
           stroke="none"
           fill-rule="nonzero"
           fill-opacity="0.886"
           id="path79"
           style="fill:none;stroke:#000000;stroke-opacity:1" />
        <path
           d="m 15.918 17.09 l 0 2 l 4 -1 m -4 -1"
           fill="#865b21"
           stroke="none"
           fill-rule="nonzero"
           fill-opacity="1"
           id="path81"
           style="fill:#000000;stroke:#000000;stroke-opacity:1;fill-opacity:1" />
        <path
           d="m 25.914 12.09 l 0 2 l 3 -1 m -3 -1"
           fill="#865b21"
           stroke="none"
           fill-rule="nonzero"
           fill-opacity="1"
           id="path83"
           style="fill:#000000;stroke:#000000;stroke-opacity:1;fill-opacity:1" />
        <path
           d="m 23.914,18.09 1,3 0.273829,-0.274377 L 26.91,19.09"
           id="path85"
           style="fill:#000000;stroke:#000000;stroke-opacity:1;fill-opacity:1"
           inkscape:connector-curvature="0"
           sodipodi:nodetypes="cccc" />
        <path
           d="m 32.914 17.09 l -1 4 l 3 -1 m -2 -3"
           fill="#865b21"
           stroke="none"
           fill-rule="nonzero"
           fill-opacity="1"
           id="path87"
           style="fill:#000000;stroke:#000000;stroke-opacity:1;fill-opacity:1" />
        <path
           d="m 16.914 22.09 l 0 4 l 2 -3 m -2 -1"
           fill="#865b21"
           stroke="none"
           fill-rule="nonzero"
           fill-opacity="1"
           id="path89"
           style="fill:#000000;stroke:#000000;stroke-opacity:1;fill-opacity:1" />
        <path
           d="m 21.914 28.09 l 0 1.996 l 3 -1 l -2 -3 m -1 2"
           fill="#865b21"
           stroke="none"
           fill-rule="nonzero"
           fill-opacity="1"
           id="path91"
           style="fill:#000000;stroke:#000000;stroke-opacity:1;fill-opacity:1" />
        <path
           d="m 19.918 13.09 l 0 1 l 1 0.996 m -1 -1.996"
           fill="#865b21"
           stroke="none"
           fill-rule="nonzero"
           fill-opacity="1"
           id="path93"
           style="fill:#000000;stroke:#000000;stroke-opacity:1;fill-opacity:1" />
        <path
           d="m 29.918 24.08 l -3 1 l 2 2 l 1 -2 l 0 -1 m 0.004 0"
           fill="#865b21"
           stroke="none"
           fill-rule="nonzero"
           fill-opacity="1"
           id="path95"
           style="fill:#000000;stroke:#000000;stroke-opacity:1;fill-opacity:1" />
        <path
           d="m 33.918 24.08 l -2 5 l 1 -1.988 l 3 -1 m -2 -2"
           fill="#865b21"
           stroke="none"
           fill-rule="nonzero"
           fill-opacity="1"
           id="path97"
           style="fill:#000000;stroke:#000000;stroke-opacity:1;fill-opacity:1" />
        <path
           d="m 28.918 31.09 l -2 1.996 l 3 2 l 2 -2 m -3 -1.996"
           fill="#865b21"
           stroke="none"
           fill-rule="nonzero"
           fill-opacity="1"
           id="path99"
           style="fill:#000000;stroke:#000000;stroke-opacity:1;fill-opacity:1" />
        <path
           d="m 20.918 33.08 l -2 0 l 3 2 l 1 -1 m -2 -1"
           fill="#865b21"
           stroke="none"
           fill-rule="nonzero"
           fill-opacity="1"
           id="path101"
           style="fill:#000000;stroke:#000000;stroke-opacity:1;fill-opacity:1" />
        <path
           d="m 14.914 29.08 l 4 -0.988 l 0 1.988 l -3 0 m -1 -1"
           fill="#865b21"
           stroke="none"
           fill-rule="nonzero"
           fill-opacity="1"
           id="path103"
           style="fill:#000000;stroke:#000000;stroke-opacity:1;fill-opacity:1" />
        <path
           d="m 11.918 22.09 l 0.996 4 l 0 -4 m -0.996 0"
           fill="#865b21"
           stroke="none"
           fill-rule="nonzero"
           fill-opacity="1"
           id="path105"
           style="fill:#000000;stroke:#000000;stroke-opacity:1;fill-opacity:1" />
      </g>
    </g>
  </g>
</svg>
