<?xml version="1.0" encoding="UTF-8" standalone="no"?>
<!-- Generator: Adobe Illustrator 9.0, SVG Export Plug-In  -->

<svg
   xmlns:dc="http://purl.org/dc/elements/1.1/"
   xmlns:cc="http://creativecommons.org/ns#"
   xmlns:rdf="http://www.w3.org/1999/02/22-rdf-syntax-ns#"
   xmlns:svg="http://www.w3.org/2000/svg"
   xmlns="http://www.w3.org/2000/svg"
   xmlns:sodipodi="http://sodipodi.sourceforge.net/DTD/sodipodi-0.dtd"
   xmlns:inkscape="http://www.inkscape.org/namespaces/inkscape"
   id="svg2"
   sodipodi:docname="cs-printer.svg"
   xml:space="preserve"
   height="48"
   sodipodi:version="0.32"
   width="48"
   version="1.0"
   viewBox="0 0 48 48"
   inkscape:version="0.48.5 r10040"><defs
     id="defs17" /><metadata
     id="metadata31"><rdf:RDF><cc:Work
         rdf:about=""><dc:format>image/svg+xml</dc:format><dc:type
           rdf:resource="http://purl.org/dc/dcmitype/StillImage" /></cc:Work></rdf:RDF></metadata><sodipodi:namedview
     id="base"
     bordercolor="#666666"
     pagecolor="#ffffff"
     borderopacity="1.0"
     showgrid="true"
     inkscape:zoom="4.9166667"
     inkscape:cx="-15.355932"
     inkscape:cy="24"
     inkscape:window-width="1920"
     inkscape:window-height="1007"
     inkscape:window-x="0"
     inkscape:window-y="31"
     inkscape:window-maximized="1"
     inkscape:current-layer="svg2" /><rect
     id="rect3981"
     style="fill:none"
     rx="0"
     ry="0"
     height="48"
     width="48"
     y="0"
     x="0" /><g
     id="g3095"
     style="fill:none;stroke:#000000;stroke-opacity:1"
     transform="translate(-0.40677985,1.0169492)"><path
       id="path13"
       sodipodi:nodetypes="ccccccccc"
       d="m 41,42 c 0,0.4 -0.6,1 -1,1 H 8 C 7.6,43 7,42.4 7,42 v -2 c 0,-0.4 0.5,-0.7 0.9,-0.7 h 31.9 c 0.4,0 1.2,0.3 1.2,0.7 v 2 z"
       style="fill:none;stroke:#000000;stroke-opacity:1"
       inkscape:connector-curvature="0" /><path
       id="path15"
       sodipodi:nodetypes="ccccccccc"
       d="m 44,39 c 0,0.4 -0.6,1 -1,1 H 5 C 4.6,40 4,39.4 4,39 V 25 c 0,-0.4 0.6,-1 1,-1 h 38 c 0.4,0 1,0.6 1,1 v 14 z"
       style="fill:#000000;stroke:none;stroke-opacity:1;fill-opacity:1"
       inkscape:connector-curvature="0" /><path
       id="path17"
       sodipodi:nodetypes="ccccccc"
       d="M 12,4 C 9,4 8,6 8,8 V 26 H 40 V 8 C 40,6 39,4 36,4 H 12 z"
       style="fill:none;stroke:#000000;stroke-opacity:1"
       inkscape:connector-curvature="0" /></g><path
     id="path21"
     sodipodi:nodetypes="cc"
     style="fill:none;stroke:#000000;stroke-width:4"
     d="M 16.6,19 H 31"
     inkscape:connector-curvature="0" /><path
     id="path23"
     sodipodi:nodetypes="cc"
     style="fill:#000000;stroke:#000000;stroke-width:4;stroke-opacity:1;fill-opacity:1"
     d="M 16.539,12 H 31"
     inkscape:connector-curvature="0" /></svg>