<?xml version="1.0" encoding="UTF-8" standalone="no"?>
<!-- Created with Inkscape (http://www.inkscape.org/) -->

<svg
   xmlns:dc="http://purl.org/dc/elements/1.1/"
   xmlns:cc="http://creativecommons.org/ns#"
   xmlns:rdf="http://www.w3.org/1999/02/22-rdf-syntax-ns#"
   xmlns:svg="http://www.w3.org/2000/svg"
   xmlns="http://www.w3.org/2000/svg"
   xmlns:sodipodi="http://sodipodi.sourceforge.net/DTD/sodipodi-0.dtd"
   xmlns:inkscape="http://www.inkscape.org/namespaces/inkscape"
   id="svg2"
   version="1.1"
   inkscape:version="0.48.5 r10040"
   width="512"
   height="512"
   sodipodi:docname="qgis.svg">
  <metadata
     id="metadata8">
    <rdf:RDF>
      <cc:Work
         rdf:about="">
        <dc:format>image/svg+xml</dc:format>
        <dc:type
           rdf:resource="http://purl.org/dc/dcmitype/StillImage" />
        <dc:title />
      </cc:Work>
    </rdf:RDF>
  </metadata>
  <defs
     id="defs6" />
  <sodipodi:namedview
     pagecolor="#ffffff"
     bordercolor="#666666"
     borderopacity="1"
     objecttolerance="10"
     gridtolerance="10"
     guidetolerance="10"
     inkscape:pageopacity="0"
     inkscape:pageshadow="2"
     inkscape:window-width="1920"
     inkscape:window-height="1007"
     id="namedview4"
     showgrid="false"
     inkscape:zoom="0.921875"
     inkscape:cx="113.8983"
     inkscape:cy="324.80059"
     inkscape:window-x="0"
     inkscape:window-y="31"
     inkscape:window-maximized="1"
     inkscape:current-layer="g3964" />
  <rect
     style="fill:none;fill-rule:evenodd;stroke:#000000;fill-opacity:1;stroke-opacity:1;stroke-width:4;stroke-miterlimit:4;stroke-dasharray:none"
     id="rect2982"
     width="457.7627"
     height="457.7627"
     x="30.372904"
     y="32.542385"
     ry="61.599998" />
  <g
     id="g3964"
     transform="matrix(30.145263,0,0,28.831052,1207.3342,-11405.571)"
     style="fill:#000000;fill-opacity:1">
    <path
       sodipodi:nodetypes="cccccc"
       inkscape:connector-curvature="0"
       id="path3918"
       d="m -28.669831,401.82025 -2.80519,0.86878 -3.475584,1.0764 2.562058,1.00037 0.472613,2.43424 z"
       style="fill:#000000;fill-opacity:1;stroke:none" />
    <path
       inkscape:connector-curvature="0"
       id="path3956"
       d="m -31.572139,397.94856 c -3.625587,0 -6.562205,2.70838 -6.562205,6.04704 0,2.32911 1.435871,4.33759 3.531091,5.34482 l -1.343689,0.81927 0.416647,0.39014 c 0,0 0.685339,-0.44946 1.083285,-0.52668 0.418542,-0.0813 1.281191,0.0781 1.281191,0.0781 0.613146,0.15681 -0.100838,-0.0678 1.083286,0.37062 0,0 2.44738,0.97249 3.74983,1.1704 0.411871,0.0626 0.85556,0.0948 1.260361,0 0.764623,-0.17899 2.083239,-1.0436 2.083239,-1.0436 l 0,-0.46817 c 0,0 -0.93377,0.25469 -1.416603,0.28286 -0.315874,0.0185 -0.639681,-0.0111 -0.947874,-0.0781 -0.663263,-0.14505 -1.809386,-0.64087 -1.926996,-0.69248 2.493886,-0.85584 4.281057,-3.05329 4.281057,-5.64717 0,-3.33866 -2.947035,-6.04704 -6.57262,-6.04704 z m 0.01039,1.73609 c 2.180137,0 3.947739,1.91522 3.947739,4.28169 0,2.36649 -1.767602,4.29146 -3.947739,4.29146 -2.180138,0 -3.947739,-1.92497 -3.947739,-4.29146 0,-2.36647 1.767601,-4.28169 3.947739,-4.28169 z"
       style="fill:#000000;fill-opacity:1;stroke:none" />
  </g>
</svg>
