<?xml version="1.0" encoding="UTF-8" standalone="no"?>
<!-- Created with Inkscape (http://www.inkscape.org/) -->

<svg
   xmlns:dc="http://purl.org/dc/elements/1.1/"
   xmlns:cc="http://creativecommons.org/ns#"
   xmlns:rdf="http://www.w3.org/1999/02/22-rdf-syntax-ns#"
   xmlns:svg="http://www.w3.org/2000/svg"
   xmlns="http://www.w3.org/2000/svg"
   xmlns:sodipodi="http://sodipodi.sourceforge.net/DTD/sodipodi-0.dtd"
   xmlns:inkscape="http://www.inkscape.org/namespaces/inkscape"
   id="svg2987"
   version="1.1"
   inkscape:version="0.48.5 r10040"
   width="1024"
   height="1024"
   sodipodi:docname="rapid-photo-downloader.svg">
  <metadata
     id="metadata2993">
    <rdf:RDF>
      <cc:Work
         rdf:about="">
        <dc:format>image/svg+xml</dc:format>
        <dc:type
           rdf:resource="http://purl.org/dc/dcmitype/StillImage" />
        <dc:title />
      </cc:Work>
    </rdf:RDF>
  </metadata>
  <defs
     id="defs2991" />
  <sodipodi:namedview
     pagecolor="#ffffff"
     bordercolor="#666666"
     borderopacity="1"
     objecttolerance="10"
     gridtolerance="10"
     guidetolerance="10"
     inkscape:pageopacity="0"
     inkscape:pageshadow="2"
     inkscape:window-width="1920"
     inkscape:window-height="1007"
     id="namedview2989"
     showgrid="false"
     inkscape:zoom="0.32593203"
     inkscape:cx="-266.2931"
     inkscape:cy="329.11746"
     inkscape:window-x="0"
     inkscape:window-y="31"
     inkscape:window-maximized="1"
     inkscape:current-layer="svg2987" />
  <path
     inkscape:connector-curvature="0"
     id="path2984"
     d="m 277.2284,853.10688 c -5.06433,-1.3665 -9.42086,-4.7908 -12.09665,-9.508 l -2.29264,-4.0418 0,-338.77029 0,-338.77026 1.63116,-2.99797 c 2.41954,-4.44696 5.78503,-7.74477 9.79229,-9.59537 l 3.56638,-1.64701 213.5937,-0.19632 213.5937,-0.19633 41.79561,41.79061 41.79561,41.79061 -0.005,302.79717 c -0.003,203.77436 -0.25451,303.69846 -0.76968,305.55326 -1.3192,4.7497 -5.23933,9.6587 -9.71902,12.1707 l -4.12221,2.3115 -246.58278,0.1402 c -199.87863,0.1137 -247.26436,-0.044 -250.18129,-0.8307 z m 433.56133,-54.2203 c 9.08759,-4.4739 15.11648,-11.7454 17.56164,-21.1811 1.16752,-4.5054 1.2201,-17.876 0.73358,-186.5598 -0.28824,-99.93861 -0.69295,-181.97985 -0.89938,-182.31385 -0.48673,-0.78755 -406.30531,-0.79752 -406.79203,-0.01 -0.20302,0.32851 -0.60623,81.52657 -0.89603,180.44015 -0.3966,135.3694 -0.31114,181.2087 0.34557,185.366 1.93347,12.2401 10.09871,21.9312 21.57705,25.6093 4.21224,1.3497 10.52728,1.3925 183.8812,1.2467 l 179.51913,-0.151 4.96927,-2.4464 z M 376.1003,359.83604 c 1.13736,-0.84991 2.7633,-2.47656 3.61321,-3.61477 1.53212,-2.05184 1.54695,-2.67748 1.73959,-73.40388 0.18203,-66.83049 0.11105,-71.49666 -1.12424,-73.90435 -0.72519,-1.41347 -2.27,-3.26846 -3.4329,-4.12221 -1.9949,-1.46456 -3.24404,-1.56406 -22.11,-1.76117 -23.03173,-0.24065 -23.89838,-0.0522 -26.92844,5.857 l -1.68636,3.28869 0,69.3615 c 0,42.86779 0.27944,70.33585 0.73159,71.91241 0.40237,1.403 1.49851,3.38308 2.43585,4.40019 3.42342,3.71473 4.76055,3.90988 25.4475,3.71406 18.11576,-0.17148 19.36777,-0.27295 21.3142,-1.72747 z m 84.99082,0.20395 c 2.11693,-1.11947 3.78649,-2.74804 4.8022,-4.68433 1.54451,-2.94437 1.55703,-3.53859 1.55703,-73.92746 0,-70.8248 -0.003,-70.96323 -1.5679,-73.07544 -0.86234,-1.16392 -2.68289,-2.87508 -4.04567,-3.80257 -2.41388,-1.64287 -2.98418,-1.68636 -22.11762,-1.68636 -19.13345,0 -19.70375,0.0435 -22.11763,1.68636 -1.36277,0.92749 -3.18333,2.63845 -4.04567,3.80213 -1.56094,2.10637 -1.5688,2.42536 -1.7704,71.81494 -0.13312,45.82112 0.0603,70.67521 0.56466,72.54819 0.42195,1.56695 1.49627,3.77592 2.38741,4.90881 2.97735,3.78509 4.69516,4.07068 24.67637,4.10248 17.79375,0.0283 18.54441,-0.0301 21.67722,-1.68675 z m 86.75353,-0.40411 c 5.38183,-3.83861 5.02516,1.38969 5.24958,-76.95118 l 0.20182,-70.45222 -1.7008,-3.31726 c -3.04651,-5.9419 -3.89119,-6.12642 -26.9429,-5.88556 -18.86596,0.19711 -20.1151,0.29661 -22.11,1.76117 -1.1629,0.85375 -2.70406,2.70874 -3.42481,4.12221 -1.22003,2.39264 -1.31053,7.42723 -1.31161,72.97291 -10e-4,69.45344 0.0196,70.44579 1.53588,73.57807 1.09024,2.25212 2.45193,3.63517 4.68432,4.75776 2.9943,1.50572 4.07631,1.57236 22.25932,1.3711 18.64472,-0.20638 19.17188,-0.25423 21.5592,-1.957 z m 83.13348,1.32078 c 2.87183,-1.08811 5.47181,-3.59371 6.68669,-6.44398 0.82297,-1.93078 1.02068,-15.49178 1.06349,-72.94481 0.0497,-66.62944 -0.0227,-70.70169 -1.29486,-72.87388 -0.7411,-1.26542 -2.29893,-3.01056 -3.46182,-3.87809 -2.00647,-1.49683 -3.13613,-1.5886 -22.13675,-1.79826 -19.82142,-0.21871 -20.04774,-0.20367 -22.54995,1.49898 -1.39016,0.94596 -3.23312,2.67202 -4.09546,3.8357 -1.56094,2.10637 -1.5688,2.42536 -1.7704,71.81494 -0.13312,45.82112 0.0603,70.67521 0.56466,72.54819 0.98569,3.66055 3.39601,6.70232 6.3197,7.97529 2.92779,1.27477 37.41696,1.50024 40.6747,0.26592 z m 87.18862,-0.88694 c 1.97029,-0.99868 3.94526,-2.75608 4.84313,-4.30958 1.47253,-2.54777 1.52204,-4.00278 1.72137,-50.59069 l 0.20523,-47.96747 -1.70422,-3.31726 c -3.05272,-5.94212 -3.89642,-6.1264 -26.9463,-5.88556 -18.98355,0.19834 -20.10267,0.28876 -22.11001,1.78625 -1.16289,0.86753 -2.72701,2.62346 -3.47582,3.90206 -1.27981,2.18531 -1.35712,5.23724 -1.28894,50.885 0.0816,54.62202 -0.17598,52.12133 5.71463,55.48492 2.81287,1.60618 3.67715,1.67453 21.32282,1.68636 17.59963,0.0118 18.53429,-0.0603 21.71811,-1.67403 z"
     style="fill:#000000;fill-opacity:1;stroke:#000000;stroke-width:8;stroke-miterlimit:4;stroke-opacity:1;stroke-dasharray:none" />
</svg>
