<?xml version="1.0" encoding="UTF-8" standalone="no"?>
<svg
   xmlns:dc="http://purl.org/dc/elements/1.1/"
   xmlns:cc="http://creativecommons.org/ns#"
   xmlns:rdf="http://www.w3.org/1999/02/22-rdf-syntax-ns#"
   xmlns:svg="http://www.w3.org/2000/svg"
   xmlns="http://www.w3.org/2000/svg"
   xmlns:sodipodi="http://sodipodi.sourceforge.net/DTD/sodipodi-0.dtd"
   xmlns:inkscape="http://www.inkscape.org/namespaces/inkscape"
   viewBox="0 0 128 128"
   id="svg2"
   version="1.1"
   inkscape:version="0.48.5 r10040"
   width="100%"
   height="100%"
   sodipodi:docname="rawtherapee.svg">
  <metadata
     id="metadata51">
    <rdf:RDF>
      <cc:Work
         rdf:about="">
        <dc:format>image/svg+xml</dc:format>
        <dc:type
           rdf:resource="http://purl.org/dc/dcmitype/StillImage" />
        <dc:title />
      </cc:Work>
    </rdf:RDF>
  </metadata>
  <sodipodi:namedview
     pagecolor="#ffffff"
     bordercolor="#666666"
     borderopacity="1"
     objecttolerance="10"
     gridtolerance="10"
     guidetolerance="10"
     inkscape:pageopacity="0"
     inkscape:pageshadow="2"
     inkscape:window-width="1920"
     inkscape:window-height="1007"
     id="namedview49"
     showgrid="false"
     inkscape:zoom="3.4766083"
     inkscape:cx="68.983356"
     inkscape:cy="63.79146"
     inkscape:window-x="0"
     inkscape:window-y="31"
     inkscape:window-maximized="1"
     inkscape:current-layer="svg2" />
  <defs
     id="defs4">
    <clipPath
       id="clipPath6">
      <g
         transform="translate(0,-1004.3622)"
         id="g8">
        <path
           d="m -24,13 c 0,1.105 -0.672,2 -1.5,2 -0.828,0 -1.5,-0.895 -1.5,-2 0,-1.105 0.672,-2 1.5,-2 0.828,0 1.5,0.895 1.5,2 z"
           transform="matrix(15.333333,0,0,11.5,414.99999,878.8622)"
           id="path10"
           inkscape:connector-curvature="0"
           style="fill:#1890d0" />
      </g>
    </clipPath>
    <clipPath
       id="clipPath12">
      <g
         transform="translate(0,-1004.3622)"
         id="g14">
        <path
           d="m -24,13 c 0,1.105 -0.672,2 -1.5,2 -0.828,0 -1.5,-0.895 -1.5,-2 0,-1.105 0.672,-2 1.5,-2 0.828,0 1.5,0.895 1.5,2 z"
           transform="matrix(15.333333,0,0,11.5,414.99999,878.8622)"
           id="path16"
           inkscape:connector-curvature="0"
           style="fill:#1890d0" />
      </g>
    </clipPath>
    <linearGradient
       id="linearGradient3165"
       gradientUnits="userSpaceOnUse"
       gradientTransform="matrix(0,-0.97498811,0.97498811,0,0.60028377,47.399713)"
       x1="1"
       x2="47">
      <stop
         stop-color="#e4e4e4"
         stop-opacity="1"
         id="stop19" />
      <stop
         offset="1"
         stop-color="#eee"
         stop-opacity="1"
         id="stop21" />
    </linearGradient>
  </defs>
  <path
     d="m 118.66111,43.64855 c 0.51537,1.254796 0.98144,2.507335 1.40045,3.809524 -0.41453,-1.286391 -0.88956,-2.566012 -1.40045,-3.809524 z m 1.40045,3.809524 -23.388854,7.616791 c -0.280093,-0.877906 -0.616204,-1.703904 -0.981445,-2.53893 l -0.06946,0 c 1.460964,3.340104 2.310204,7.034528 2.310204,10.932069 0,9.521553 -4.840001,17.89438 -12.185152,22.703678 L 98.631114,107.2595 c 14.399006,-9.205591 23.949046,-25.34645 23.949046,-43.796009 0,-5.603702 -0.89181,-10.959152 -2.52084,-16.009931 z"
     id="path35"
     inkscape:connector-curvature="0"
     style="fill:#000000;fill-opacity:1;fill-rule:nonzero;stroke:none" />
  <path
     d="m 10.460749,50.613666 c -3.2047717,48.687657 -1.6023861,24.342651 0,0 z m -0.138478,0.292411 c -1.5957918,5.221295 -2.4728176,10.802841 -2.4728176,16.594922 0,17.879193 8.2075546,33.711541 20.8134276,43.496781 L 42.882128,90.236559 C 36.296741,85.141585 32.028109,76.865178 32.028109,67.500999 c 0,-3.0247 0.411038,-5.972206 1.237508,-8.699818 z"
     id="path37"
     inkscape:connector-curvature="0"
     style="fill:#000000;fill-opacity:1;fill-rule:nonzero;stroke:none" />
  <path
     d="M 47.74016,91.562158 33.055329,112.35127 c 8.621578,6.48854 19.227164,10.32076 30.715791,10.32076 11.488627,0 22.094213,-3.83222 30.715791,-10.32076 L 79.80208,91.562158 c -4.487852,3.368417 -10.035808,5.343086 -16.02642,5.343086 -6.004232,0 -11.552188,-1.977011 -16.02642,-5.343086 z"
     id="path39"
     inkscape:connector-curvature="0"
     style="fill:#000000;fill-opacity:1;fill-rule:nonzero;stroke:none" />
  <path
     d="m 60.490291,7.9388408 c -24.256704,0 -44.792005,15.8630452 -51.883776,37.7947252 l 24.757159,8.01944 C 37.051869,42.290554 47.78677,34.076272 60.492662,34.076272 l 0,-26.1374312 z"
     id="path41"
     inkscape:connector-curvature="0"
     style="fill:#000000;fill-opacity:1;fill-rule:nonzero;stroke:none" />
  <path
     d="m 65.290606,5.9388408 0.07434,25.9733322 c 12.842366,0 23.708616,8.153265 27.430625,19.553196 L 117.828,43.496278 C 110.65738,21.699931 89.893751,5.9388408 65.367348,5.9388408 c -0.02399,0 -0.05037,0 -0.07434,0 z"
     id="path43"
     inkscape:connector-curvature="0"
     style="fill:#000000;fill-opacity:1;fill-rule:nonzero;stroke:none" />
</svg>
