<?xml version="1.0" encoding="UTF-8" standalone="no"?>
<svg
   xmlns:dc="http://purl.org/dc/elements/1.1/"
   xmlns:cc="http://creativecommons.org/ns#"
   xmlns:rdf="http://www.w3.org/1999/02/22-rdf-syntax-ns#"
   xmlns:svg="http://www.w3.org/2000/svg"
   xmlns="http://www.w3.org/2000/svg"
   xmlns:sodipodi="http://sodipodi.sourceforge.net/DTD/sodipodi-0.dtd"
   xmlns:inkscape="http://www.inkscape.org/namespaces/inkscape"
   viewBox="0 0 128 128"
   id="svg2"
   version="1.1"
   inkscape:version="0.48.5 r10040"
   sodipodi:docname="rekonq.svg"
   width="128"
   height="128">
  <defs
     id="defs53" />
  <sodipodi:namedview
     pagecolor="#ffffff"
     bordercolor="#666666"
     borderopacity="1"
     objecttolerance="10"
     gridtolerance="10"
     guidetolerance="10"
     inkscape:pageopacity="0"
     inkscape:pageshadow="2"
     inkscape:window-width="1920"
     inkscape:window-height="1007"
     id="namedview59"
     showgrid="false"
     inkscape:zoom="6.5042466"
     inkscape:cx="64.492967"
     inkscape:cy="63.621182"
     inkscape:window-x="0"
     inkscape:window-y="31"
     inkscape:window-maximized="1"
     inkscape:current-layer="svg2"
     showguides="false" />
  <metadata
     id="metadata61">
    <rdf:RDF>
      <cc:Work
         rdf:about="">
        <dc:format>image/svg+xml</dc:format>
        <dc:type
           rdf:resource="http://purl.org/dc/dcmitype/StillImage" />
        <dc:title />
      </cc:Work>
    </rdf:RDF>
  </metadata>
  <path
     inkscape:connector-curvature="0"
     id="path31"
     d="m 63.386267,20.633616 c 27.756423,0 50.255683,22.499243 50.255683,50.255665 0,27.756424 -22.49926,50.255669 -50.255683,50.255669 -27.756422,0 -50.255665,-22.499245 -50.255665,-50.255669 0,-27.756422 22.499243,-50.255665 50.255665,-50.255665 z"
     style="fill:none;fill-opacity:1;stroke:#000000;stroke-opacity:1" />
  <g
     transform="translate(0,80)"
     id="g33" />
  <path
     style="fill:#000000;fill-opacity:1"
     d="m 45.704548,120.5848 c -4.574185,-6.06066 -6.561451,-12.0611 -6.517657,-24.176384 0.03166,-8.74857 3.085751,-19.505614 3.547256,-21.002545 0.108375,-0.35152 1.384982,-1.644573 2.217984,-1.541927 0.750374,0.09246 1.246462,1.240302 1.511636,1.904635 0.14247,0.356924 1.251439,1.924775 1.268533,7.244816 0.03635,11.314153 1.27913,20.503045 3.783052,27.971125 1.243675,3.70934 2.273822,5.59742 4.086569,7.48994 1.542571,1.61046 3.971306,2.19992 9.080329,2.20385 2.842545,0.002 3.182721,0.0862 3.182721,0.78599 -6.925792,7.87276 -18.118711,2.61889 -22.160423,-0.8795 z"
     id="path4303"
     inkscape:connector-curvature="0"
     sodipodi:nodetypes="csssssssccc" />
  <path
     style="fill:#000000;fill-opacity:1"
     d="m 104.85479,98.97844 c -0.52924,-0.637683 4.68314,-7.908824 4.09413,-11.566061 -0.30564,-1.897642 -1.07191,-3.096923 -1.9788,-3.096923 -0.15987,0 -1.15793,0.824616 -2.21791,1.832478 -1.05996,1.007864 -3.42548,3.221305 -5.256711,4.918758 -1.831229,1.697453 -4.179907,3.910894 -5.219286,4.918757 -1.039387,1.007864 -1.814114,1.228255 -2.110314,1.228255 -0.693057,0 -2.638083,-1.475966 -2.571508,-2.01492 0.0636,-0.51489 0.09921,-0.696875 0.609163,-1.778931 2.315677,-4.913635 4.096878,-8.736439 5.230758,-11.226214 0.676425,-1.485273 1.746185,-3.751184 2.377259,-5.035358 l 1.147421,-2.334858 -0.108416,-1.959316 -1.380464,-1.514103 -8.82273,-1.069434 c -4.852508,-0.588189 -8.177178,-0.857764 -9.309141,-1.703804 -0.6178,-0.461751 -1.249624,-0.359443 -1.249624,-1.759017 0,-1.001242 0.798695,-1.566846 1.1243,-1.837074 0.303542,-0.251914 3.76739,-1.815202 8.397081,-3.085293 8.156672,-2.237673 22.417192,-6.729516 22.957632,-7.231304 0.70319,-0.652883 -3.81406,-9.622494 -6.53586,-12.977854 -2.72715,-3.361952 -3.84698,-4.648089 -4.677897,-5.372627 -1.903998,-1.660242 -3.956828,-4.036814 -3.594587,-3.932822 12.242924,1.892725 21.688754,13.612491 24.086444,27.157062 0.38495,7.295161 -0.44721,8.244158 -0.41879,14.296958 -0.87198,6.611725 -1.02388,6.62637 -1.5684,9.140173 -0.66997,2.57526 -0.79461,4.176112 -3.72283,7.859345 l -5.41591,6.812346 -1.63504,0.923785 c -0.70715,0.480171 -1.28506,0.691235 -1.77974,0.542918 z"
     id="path4299"
     inkscape:connector-curvature="0"
     sodipodi:nodetypes="csssssssssscccssssssssccccsccsc" />
  <path
     style="fill:#000000;fill-opacity:1"
     d="m 10.222974,80.926881 c -0.2326397,-0.303941 -0.2444107,-3.334898 -0.03183,-8.197929 0.370459,-8.474815 0.906278,-2.057959 -0.6771369,-1.755269 -1.4552528,0.278189 0.8690019,-8.579106 1.1256419,-13.44041 0.169626,-3.213065 0.691971,-6.723833 3.281455,-11.916813 4.985416,-9.997809 4.15222,-8.741519 4.985416,-9.997809 2.269473,-3.79711 4.743808,-7.554693 7.321686,-8.667929 5.72523,-2.665461 14.108906,-5.371997 20.305821,-3.570434 0.06775,0.212179 -0.873049,0.852094 -2.090683,1.422035 -3.432776,1.606797 -3.688573,1.865344 -3.176961,3.210996 0.545805,1.43558 1.0007,1.719154 2.769568,1.726508 1.138362,0.0048 1.474685,-0.166594 1.692379,-0.862108 4.628902,-10.348831 16.239723,-16.157209 27.213512,-15.570742 6.196925,0.912206 9.651702,6.41761 10.965791,11.368694 0.139557,0.556037 0.387786,0.506387 0.09736,0.370193 -0.335934,-0.157533 -1.222546,-0.5584 -2.607266,-1.043774 -4.35578,-1.526791 -10.045096,1.105704 -14.292758,7.04102 l -1.342615,1.876055 0.136091,5.865793 -0.499925,5.61138 -3.122685,7.943959 c -3.773994,9.600859 -6.864536,9.417765 -8.287516,11.17174 -0.144647,0.178294 -0.858021,0.870858 -1.726447,1.324715 L 50.716738,65.64427 47.84944,66.405571 C 35.391772,69.219355 34.378363,59.157852 33.824411,48.219783 c 0.399891,-0.399893 2.938833,0.462011 3.88601,1.319196 0.534367,0.483596 1.256114,0.370103 1.509165,0.333767 0.366735,-0.05266 0.116468,-0.31943 -0.04721,-1.512888 -0.461606,-3.365921 -0.650927,-3.89377 -1.625604,-4.532402 -0.924885,-0.606006 -0.914968,-0.470615 -1.62727,-0.646532 -1.408178,-0.557103 -0.913953,-0.125546 -1.642278,-0.81771 0.06992,-8.105589 -1.728624,-9.125725 -4.298904,-6.228952 -0.485153,0.191989 -3.784346,4.699672 -4.768189,6.514763 -1.785393,3.293885 -1.712328,3.013836 -1.059279,4.059805 0.335113,0.536746 1.057342,2.163275 1.9678,3.022496 1.406264,1.327122 2.314046,2.284396 2.105663,3.153618 -0.538238,2.245136 -1.114587,1.249261 -4.274507,1.104564 l -2.887314,-0.132215 -0.330309,1.270555 c -0.213133,0.819815 -0.04728,4.241292 0.467426,9.644622 1.361285,14.289659 1.442262,13.587679 0.415211,14.828233 -0.589864,0.71249 -1.114735,1.001905 -1.52882,0.843004 -0.346823,-0.133086 -1.283457,-1.798883 -2.081416,-3.701771 -0.797961,-1.902887 -1.620147,-3.403359 -1.82709,-3.334382 -0.206934,0.06898 -1.005354,1.682128 -1.774267,3.584771 -0.768904,1.902649 -1.538461,3.674779 -1.710123,3.938074 -0.404302,0.620126 -1.994509,0.61786 -2.470131,-0.0035 z"
     id="path4297"
     inkscape:connector-curvature="0"
     sodipodi:nodetypes="csssscccssccccssscccssscccsssscccssssscsssssssscc" />
  <g
     id="g3489"
     style="fill:#000000;fill-opacity:1"
     transform="matrix(1.0176394,0,0,1.0176394,2.7377457,0.66334482)">
    <path
       sodipodi:nodetypes="ccssscccccssccccccccsssscccc"
       inkscape:connector-curvature="0"
       id="path4297-2"
       d="m 24.919178,12.950929 c -0.44208,-4.1133106 -0.70883,-7.7261847 -0.59278,-8.0286187 0.11729,-0.305653 0.449496,-2.1207944 1.660616,-2.3722154 1.89474,-0.393345 2.965294,0.9960404 3.347384,1.5185764 0.24165,0.330478 1.76396,4.230098 3.38291,8.6658077 1.61895,4.435711 3.11141,8.271764 3.31656,8.524549 0.66321,2.814283 0.13166,0.999907 1.82158,5.609503 0.53635,1.410696 0.98336,1.689355 2.72156,1.696581 1.11863,0.0047 7.37115,1.780838 7.58507,1.09738 4.02913,-6.117599 3.6829,-5.157888 9.61136,-18.150975 l 1.97964,-3.9805317 c 1.40704,-2.829147 2.247655,-3.7071814 2.64534,-3.963793 0.395527,-0.2552188 1.823823,-1.2294207 2.739937,-0.995353 2.382235,1.2672353 1.513365,4.377798 1.332443,5.303227 -2.12797,8.9517627 -2.43332,9.4907687 -4.54395,23.8142747 l 0.13373,5.764117 -0.30376,5.857864 c -3.013868,7.147386 -5.701706,15.706521 -12.256751,19.698163 -1.320105,0.864464 -3.673324,1.186938 -5.175639,1.58582 -11.794621,3.889872 -13.524275,-8.080082 -13.870308,-17.627494 0.01731,-1.321039 4.213718,0.07835 5.144478,0.920678 0.5251,0.475214 -0.003,0.496271 0.24556,0.460565 0.36038,-0.05175 0.11445,-0.313893 -0.0464,-1.486664 -0.4536,-3.307577 -0.63964,-3.826277 -1.59742,-4.453839 -0.90886,-0.595502 -0.89911,-0.462457 -1.59907,-0.635325 -1.38376,-0.547447 -0.89811,-0.12337 -1.61381,-0.803536 -0.280663,-2.157301 -1.222646,-4.51674 -1.851402,-6.44022 -1.081729,-8.192729 -3.343403,-13.848646 -4.216878,-21.578541 z"
       style="fill:#000000;fill-opacity:1" />
    <path
       sodipodi:nodetypes="cccsscscccsssssccc"
       inkscape:connector-curvature="0"
       id="path4257-1-5"
       d="m 36.761508,44.694869 6.612094,-2.921348 -7.287324,0.100268 -0.38745,-0.53745 c -0.5192,-0.720222 -0.53386,-0.729843 -0.76947,-0.504932 -0.38158,0.364262 -0.44379,0.398718 -0.72215,0.399967 -0.62261,0.0026 -1.56808,-0.678694 -2.21501,-1.596553 l -0.38016,-0.539368 -0.39546,0 -0.39546,0 -0.0308,0.36332 c -0.0889,1.048404 -0.33656,2.264151 -0.27187,4.75357 0.0393,1.511818 0.0345,2.744692 0.0558,2.779654 0.0444,0.07261 1.88211,0.505914 2.74321,0.693877 0.9117,0.19901 4.133675,5.701311 4.609515,4.757435 0.13291,-0.263642 -0.575205,1.028993 -0.410265,0.945232 2.15135,-1.176807 -0.63268,-7.260061 -0.75524,-8.693672 z"
       style="fill:#000000;fill-opacity:1;stroke:none" />
  </g>
</svg>
