<?xml version="1.0" encoding="UTF-8" standalone="no"?>
<!-- Created with Inkscape (http://www.inkscape.org/) -->

<svg
   xmlns:dc="http://purl.org/dc/elements/1.1/"
   xmlns:cc="http://creativecommons.org/ns#"
   xmlns:rdf="http://www.w3.org/1999/02/22-rdf-syntax-ns#"
   xmlns:svg="http://www.w3.org/2000/svg"
   xmlns="http://www.w3.org/2000/svg"
   xmlns:sodipodi="http://sodipodi.sourceforge.net/DTD/sodipodi-0.dtd"
   xmlns:inkscape="http://www.inkscape.org/namespaces/inkscape"
   id="svg2"
   version="1.1"
   inkscape:version="0.48.5 r10040"
   width="512"
   height="512"
   sodipodi:docname="cinnamon-session-properties.svg"
   viewBox="0 0 512 512">
  <metadata
     id="metadata8">
    <rdf:RDF>
      <cc:Work
         rdf:about="">
        <dc:format>image/svg+xml</dc:format>
        <dc:type
           rdf:resource="http://purl.org/dc/dcmitype/StillImage" />
        <dc:title />
      </cc:Work>
    </rdf:RDF>
  </metadata>
  <defs
     id="defs6" />
  <sodipodi:namedview
     pagecolor="#ffffff"
     bordercolor="#666666"
     borderopacity="1"
     objecttolerance="10"
     gridtolerance="10"
     guidetolerance="10"
     inkscape:pageopacity="0"
     inkscape:pageshadow="2"
     inkscape:window-width="1920"
     inkscape:window-height="1007"
     id="namedview4"
     showgrid="false"
     inkscape:zoom="1.6503906"
     inkscape:cx="138.75503"
     inkscape:cy="256"
     inkscape:window-x="0"
     inkscape:window-y="31"
     inkscape:window-maximized="1"
     inkscape:current-layer="g4234"
     inkscape:document-units="px" />
  <ellipse
     style="fill:none;fill-opacity:1;fill-rule:nonzero;stroke:#000000;stroke-width:8;stroke-opacity:1;stroke-miterlimit:4;stroke-dasharray:none"
     id="path2998"
     cx="256"
     cy="256"
     rx="225"
     ry="224.86916" />
  <g
     id="g4234"
     style="fill:#000000;fill-opacity:1">
    <path
       inkscape:connector-curvature="0"
       id="path3023"
       d="m 357.00768,94.922497 c -3.19804,-0.0635 -6.79032,0.38572 -10.80717,1.31729 -8.76566,2.03291 -25.80456,9.021213 -25.80456,10.583143 0,2.01876 8.28066,12.5738 13.10122,16.70002 7.62862,6.52974 19.63,12.56972 29.03058,14.61207 16.5181,3.5887 17.25377,3.08006 16.27526,-11.27672 -1.48438,-21.77854 -7.93719,-31.660833 -21.79533,-31.935803 z M 176.83812,277.73919 c -1.16797,-0.003 -2.31208,0.059 -3.41779,0.18997 -8.29467,0.98238 -19.31726,6.32704 -23.63596,11.45954 -4.95342,5.8868 -13.02976,20.33508 -16.2681,29.10585 -6.5248,17.67183 -9.06627,45.15953 -4.5899,49.63589 3.71449,3.71451 9.044,1.48777 10.31788,-4.31211 1.20956,-5.50717 8.52515,-13.39475 16.5441,-17.8363 6.34065,-3.51199 8.13021,-3.87481 19.04964,-3.87481 h 12.05097 l 6.3893,-18.28257 c 3.51403,-10.05537 7.40059,-21.79169 8.63677,-26.08056 l 2.24746,-7.79801 -4.60424,-4.22071 c -5.21769,-4.78167 -14.54437,-7.96653 -22.72013,-7.98618 z m 83.92308,46.20375 c -1.33603,0.0886 -2.77373,1.02224 -5.72977,3.08981 -7.33542,5.13056 -38.0562,34.00991 -38.6011,36.28733 -0.23548,0.98416 0.79269,4.31188 2.2851,7.39475 5.40231,11.1597 1.98311,29.05168 -7.08649,37.0813 -5.29291,4.686 -5.71425,7.22844 -1.66677,10.06339 3.41882,2.39463 5.06853,2.00486 17.87572,-4.22251 16.82767,-8.18226 32.42011,-20.86516 44.04411,-35.82852 7.56228,-9.73488 9.62557,-14.92929 9.59024,-24.14496 -0.0457,-12.00577 -6.73866,-23.16533 -17.11044,-28.52875 -1.58247,-0.81835 -2.56146,-1.26072 -3.6006,-1.19184 z"
       style="fill:#000000;fill-opacity:1;stroke-width:0.91762310000000002" />
    <path
       sodipodi:nodetypes="scsssss"
       inkscape:connector-curvature="0"
       id="path3017"
       d="M 300.8015,227.60113 C 277.56828,223.6287 260.60994,205.2455 260.60735,183.304 c -9.1e-4,-17.79712 12.21707,-34.79703 29.88568,-41.57834 12.51403,-4.80289 27.41564,-4.34605 39.27598,1.20409 17.5604,8.2175 27.28452,22.65294 27.28452,40.50364 0,20.86614 -16.48533,40.30827 -37.04775,43.69252 -10.79817,1.77723 -12.60529,1.60353 -19.20428,0.47522 z"
       style="fill:none;fill-opacity:1;stroke-width:0.91762310000000002" />
    <ellipse
       ry="25.041489"
       rx="55.842518"
       cy="352.59348"
       cx="-221.06329"
       transform="rotate(-57.922173)"
       id="path3005"
       style="fill:#000000;fill-opacity:1;fill-rule:nonzero;stroke:none;stroke-width:0.91762310000000002" />
    <path
       sodipodi:nodetypes="ssssssssssscssssssssscs"
       inkscape:connector-curvature="0"
       id="path3007"
       d="m 197.12731,353.45841 c -4.88137,-3.56934 -1.92061,-1.50791 13.21883,-23.73894 15.66508,-23.0029 21.21839,-27.17715 12.2856,-27.17715 -4.09529,0 -6.02259,7.65708 -25.09142,35.44505 -9.06611,13.21156 -6.15511,12.78156 -17.36692,5.05667 -5.65419,-3.89573 -6.90457,-2.02136 1.79339,-30.01822 10.60956,-34.1499 34.01697,-92.13777 44.59926,-110.48705 20.07216,-34.80433 48.36853,-66.94299 75.09347,-85.29015 8.87418,-6.09234 17.25762,-11.07699 18.62972,-11.07699 1.3721,0 5.56376,3.26682 9.31479,7.25961 10.18073,10.83694 23.48699,18.21246 37.18644,20.61198 l 12.22707,2.14164 -0.36708,14.03286 c -0.51609,19.73067 -15.06389,54.6063 -30.25233,79.04824 -7.09112,11.41129 -22.76636,33.50964 -36.99796,47.80892 -26.75028,26.87749 -72.60083,72.43825 -94.82337,85.84834 -1.22446,0.73889 -16.59233,-7.3756 -19.44949,-9.46481 z M 322.29117,225.33665 c 14.56918,-4.04473 29.48903,-22.14675 31.12433,-33.04127 4.85231,-32.32626 -13.3894,-52.12629 -43.8095,-52.12629 -41.93336,0 -62.96873,45.35922 -33.80183,72.88813 8.0072,7.55743 21.9436,13.29319 30.21759,13.95603 2.33729,0.10982 10.07178,0.0439 16.26941,-1.6766 z"
       style="fill:#000000;fill-opacity:1;fill-rule:nonzero;stroke:none;stroke-width:0.91762310000000002" />
    <path
       inkscape:connector-curvature="0"
       id="path3021"
       d="m 171.36303,378.48666 c 0,-1.64157 8.27894,-15.59829 18.39766,-31.01493 31.82028,-48.48071 30.20375,-46.27025 34.17191,-46.72669 4.31918,-0.49682 5.89477,2.39282 3.80522,6.97886 -0.78528,1.72351 -8.36024,12.70449 -16.83326,24.40219 -8.473,11.69769 -17.5205,24.50063 -20.10555,28.45095 -11.77364,17.99182 -19.43598,25.05239 -19.43598,17.90962 z"
       style="fill:#000000;fill-opacity:1;stroke-width:0.91762310000000002" />
  </g>
</svg>
