<?xml version="1.0" encoding="UTF-8" standalone="no"?>
<svg
   xmlns:dc="http://purl.org/dc/elements/1.1/"
   xmlns:cc="http://creativecommons.org/ns#"
   xmlns:rdf="http://www.w3.org/1999/02/22-rdf-syntax-ns#"
   xmlns:svg="http://www.w3.org/2000/svg"
   xmlns="http://www.w3.org/2000/svg"
   xmlns:sodipodi="http://sodipodi.sourceforge.net/DTD/sodipodi-0.dtd"
   xmlns:inkscape="http://www.inkscape.org/namespaces/inkscape"
   version="1.1"
   id="svg2"
   viewBox="0 0 512 512.00002"
   height="512"
   width="512"
   inkscape:version="0.48.5 r10040"
   sodipodi:docname="gnome-software.svg">
  <sodipodi:namedview
     pagecolor="#ffffff"
     bordercolor="#666666"
     borderopacity="1"
     objecttolerance="10"
     gridtolerance="10"
     guidetolerance="10"
     inkscape:pageopacity="0"
     inkscape:pageshadow="2"
     inkscape:window-width="1920"
     inkscape:window-height="1007"
     id="namedview9"
     showgrid="false"
     inkscape:zoom="0.70710678"
     inkscape:cx="194.40016"
     inkscape:cy="452.92596"
     inkscape:window-x="0"
     inkscape:window-y="31"
     inkscape:window-maximized="1"
     inkscape:current-layer="svg2" />
  <defs
     id="defs4">
    <filter
       inkscape:collect="always"
       style="color-interpolation-filters:sRGB"
       id="filter4150"
       x="-0.028016655"
       width="1.0560333"
       y="-0.053953127"
       height="1.1079063">
      <feGaussianBlur
         inkscape:collect="always"
         stdDeviation="2.0989821"
         id="feGaussianBlur4152" />
    </filter>
    <filter
       inkscape:collect="always"
       style="color-interpolation-filters:sRGB"
       id="filter4272"
       x="-0.036"
       width="1.072"
       y="-0.036"
       height="1.072">
      <feGaussianBlur
         inkscape:collect="always"
         stdDeviation="3.4445007"
         id="feGaussianBlur4274" />
    </filter>
  </defs>
  <metadata
     id="metadata7">
    <rdf:RDF>
      <cc:Work
         rdf:about="">
        <dc:format>image/svg+xml</dc:format>
        <dc:type
           rdf:resource="http://purl.org/dc/dcmitype/StillImage" />
        <dc:title />
      </cc:Work>
    </rdf:RDF>
  </metadata>
  <rect
     style="fill:#000000;fill-opacity:1;stroke:none"
     id="rect4241"
     width="127.11908"
     height="33.651684"
     x="183.05472"
     y="40.540874" />
  <path
     style="opacity:1;fill:#000000;fill-opacity:1;stroke:#000000;stroke-width:8.25021674000000083;stroke-miterlimit:4;stroke-dasharray:none;stroke-opacity:1;"
     d="m 181.64983,66.480469 -15.55273,14.822266 0,78.546875 179.8058,0 0,-77.50586 -14.75773,-15.863281 -1.41055,0 0,14.373047 0.0482,0 0,67.427734 -147.56573,0 0,-67.238281 -0.5268,0 0,-14.5625 -0.0405,0 z"
     id="rect4161-5"
     inkscape:connector-curvature="0"
     transform="matrix(0.97187011,0,0,0.96747793,-2.218747,1.6995751)" />
  <path
     style="opacity:1;fill:none;fill-opacity:1;stroke:#000000;stroke-width:24.00000094;stroke-miterlimit:4;stroke-dasharray:none;stroke-opacity:1"
     d="M 171.51367 65.529297 L 151.69141 81.40625 L 151.69141 118.4082 L 26.621094 118.4082 C 23.960466 119.22411 21.86247 121.29406 21 123.93359 L 21 430.66797 C 22.038588 433.8465 24.87025 436.19709 28.314453 436.5293 L 465.4668 436.5293 C 469.82533 436.1089 473.21094 432.45873 473.21094 427.98633 L 473.21094 126.61523 C 473.21094 122.74214 470.67133 119.48494 467.16016 118.4082 L 342.62305 118.4082 L 342.62305 82.373047 L 322.17383 65.529297 L 322.22266 118.4082 L 171.39844 118.4082 L 171.51367 65.529297 z "
     id="rect4161" />
  <path
     style="font-style:normal;font-variant:normal;font-weight:bold;font-stretch:normal;font-size:medium;line-height:125%;font-family:Droid Sans;-inkscape-font-specification:'Droid Sans, Bold';text-align:start;letter-spacing:0px;word-spacing:0px;writing-mode:lr-tb;text-anchor:start;fill:#000000;fill-opacity:1;stroke:none;stroke-width:5.10818671999999996px;stroke-linecap:butt;stroke-linejoin:miter;stroke-opacity:1"
     d="m 388.24477,272.66167 -25.4668,0.12996 0.70508,83.51551 -21.0918,-18.49893 -15.26562,13.70092 34.19531,29.99059 -35.35351,0 0,17.91673 100.43164,0 0,-17.91673 -35.13282,0 33.97657,-30.49136 -15.44336,-13.54324 -20.85156,18.71207 -0.70313,-83.51552 z"
     id="path3344"
     inkscape:connector-curvature="0" />
</svg>
