<?xml version="1.0" encoding="UTF-8" standalone="no"?>
<!-- Created with Inkscape (http://www.inkscape.org/) -->

<svg
   xmlns:dc="http://purl.org/dc/elements/1.1/"
   xmlns:cc="http://creativecommons.org/ns#"
   xmlns:rdf="http://www.w3.org/1999/02/22-rdf-syntax-ns#"
   xmlns:svg="http://www.w3.org/2000/svg"
   xmlns="http://www.w3.org/2000/svg"
   xmlns:sodipodi="http://sodipodi.sourceforge.net/DTD/sodipodi-0.dtd"
   xmlns:inkscape="http://www.inkscape.org/namespaces/inkscape"
   id="svg2"
   version="1.1"
   inkscape:version="0.48.5 r10040"
   width="512"
   height="512"
   sodipodi:docname="steam.svg"
   viewBox="0 0 512 512">
  <metadata
     id="metadata8">
    <rdf:RDF>
      <cc:Work
         rdf:about="">
        <dc:format>image/svg+xml</dc:format>
        <dc:type
           rdf:resource="http://purl.org/dc/dcmitype/StillImage" />
        <dc:title />
      </cc:Work>
    </rdf:RDF>
  </metadata>
  <defs
     id="defs6" />
  <sodipodi:namedview
     pagecolor="#ffffff"
     bordercolor="#666666"
     borderopacity="1"
     objecttolerance="10"
     gridtolerance="10"
     guidetolerance="10"
     inkscape:pageopacity="0"
     inkscape:pageshadow="2"
     inkscape:window-width="1920"
     inkscape:window-height="1007"
     id="namedview4"
     showgrid="false"
     inkscape:zoom="2"
     inkscape:cx="299.07857"
     inkscape:cy="263.9538"
     inkscape:window-x="0"
     inkscape:window-y="31"
     inkscape:window-maximized="1"
     inkscape:current-layer="svg2"
     inkscape:document-units="px" />
  <path
     style="fill:#000000;fill-opacity:1"
     d="m 241.33604,416.12585 c -21.6325,-5.94654 -39.23272,-19.79216 -49.04293,-39.5936 -4.49722,-9.07742 -10.25417,-32.3351 -8.6983,-33.91686 0.35206,-0.35792 8.67352,7.50209 13.34288,10.68028 4.66937,3.17819 8.83414,6.19213 8.83414,6.19213 0.58507,0.45435 7.63439,5.50408 17.07692,12.4763 20.06315,14.81433 25.74323,16.4008 37.73646,16.49638 16.39338,0.13066 30.03295,-7.02383 38.78096,-20.3421 7.78169,-11.84712 10.13111,-27.03766 6.17856,-39.94855 -4.25109,-13.88613 -10.38306,-20.53226 -31.20139,-33.81763 -7.84723,-5.00778 -15.94142,-9.68168 -17.94826,-10.79784 -1.77743,-0.98857 -13.32989,-6.49427 -17.70833,-9.51148 -2.58507,-1.78138 -6.03982,-4.01943 -5.66078,-4.21777 2.32798,-1.21814 7.07145,-1.28177 14.18639,-3.48788 l 4.33921,-1.34545 11.31188,-17.67021 c 6.13681,-9.58625 12.46694,-19.79427 14.0811,-22.86975 3.29956,-6.28671 7.31775,-13.09869 8.00516,-13.88658 0.43965,-0.0441 1.1109,5.61727 1.46543,9.46372 1.57059,17.03972 10.83823,39.08632 22.75393,54.12876 16.20637,20.45901 43.25094,35.97006 67.85066,38.91485 3.22297,0.38582 6.29139,0.27663 6.29139,0.75343 0,1.04907 -8.37903,6.81389 -11.13221,8.41028 -1.02481,0.59422 -9.81472,6.15819 -19.3193,12.83394 l -17.28107,12.13771 -1.70015,8.8067 c -5.36365,27.78361 -24.11044,49.60796 -50.36296,58.63081 -11.30716,3.8862 -30.92302,4.57468 -42.17939,1.48041 z"
     id="path3009"
     inkscape:connector-curvature="0"
     sodipodi:nodetypes="sssssssssssssscsscsssssscsss" />
  <path
     style="fill:#000000;fill-opacity:1"
     d="M 75.068578,303.04776 C 40.453326,297.01248 15.803246,268.51227 11.951674,234.05178 7.7717586,196.65352 29.873458,163.50503 66.136976,152.02999 76.029752,148.89957 95.5861,148.631 105.84669,151.4846 c 13.48593,3.75061 26.30725,11.6438 36.07122,21.89099 5.70544,5.98781 9.60925,13.03195 13.99425,19.8555 4.81166,7.48749 9.3143,30.69053 8.18432,31.83932 -0.29079,0.29564 -7.29016,-7.90611 -11.47623,-11.16582 -3.9074,-3.0427 -7.78708,-6.41521 -8.48176,-6.82199 -0.59946,-0.35102 -8.24959,-6.15623 -17.4516,-12.52044 -19.5055,-13.49021 -26.791751,-15.66269 -38.402775,-15.69558 -12.646032,-0.0359 -23.0602,3.94571 -31.625785,12.09115 -17.147294,16.30622 -20.178413,41.50576 -7.355003,61.14657 3.809656,5.835 10.056049,11.85398 15.070642,14.52196 6.943665,3.69434 52.045081,30.74137 52.122781,31.95401 0.0856,1.33542 -7.03866,3.71523 -15.62653,4.71382 -9.328523,1.08471 -20.384022,0.69825 -25.801642,-0.24633 z"
     id="path3007"
     inkscape:connector-curvature="0"
     sodipodi:nodetypes="sssssscssssssssss" />
  <path
     style="fill:#000000;fill-opacity:1"
     d="M 389.16016 108.26367 C 373.05542 108.14636 363.1227 109.87502 350.01758 115.07812 C 314.0794 129.34665 288.32095 164.18533 286.00391 201.66016 C 285.73344 206.03445 285.54954 208.4443 284.92383 210.59961 C 284.92958 210.59276 284.94387 210.57058 284.94922 210.56445 C 285.38886 210.52035 286.06149 216.18285 286.41602 220.0293 C 287.98661 237.06902 297.25422 259.11576 309.16992 274.1582 C 325.37629 294.61721 352.41981 310.12747 377.01953 313.07227 C 380.03226 313.43292 382.90887 313.3617 383.27148 313.74023 C 385.27532 313.02386 388.32922 312.71667 394.80469 312.38281 C 419.25825 311.12208 442.18122 300.79841 460.13477 282.96094 C 490.83286 252.46134 499.05021 206.18585 480.7168 167.04297 C 467.64516 139.13427 443.39631 119.0231 413.16016 111.01367 C 404.77169 108.7916 400.90402 108.34917 389.16016 108.26367 z M 88.283203 178.86719 C 75.637173 178.83129 65.223793 182.81159 56.658203 190.95703 C 39.510913 207.26325 36.479324 232.46271 49.302734 252.10352 C 53.112394 257.93852 59.358457 263.95897 64.373047 266.62695 C 71.316717 270.32129 116.41839 297.36744 116.49609 298.58008 C 116.49884 298.62298 116.47483 298.66987 116.46289 298.71484 L 116.86914 298.57031 L 129.51562 306.8125 C 136.47101 311.34587 151.437 321.23005 162.77344 328.77734 L 183.38477 342.5 L 183.4375 342.96094 C 183.47835 342.81091 183.52738 342.6847 183.5957 342.61523 C 183.94776 342.25731 192.26814 350.11673 196.9375 353.29492 C 201.60687 356.4731 205.77148 359.48828 205.77148 359.48828 C 206.35655 359.94263 213.40708 364.99262 222.84961 371.96484 C 242.91276 386.77916 248.59271 388.36537 260.58594 388.46094 C 276.97932 388.5916 290.61722 381.43742 299.36523 368.11914 C 307.14693 356.27202 309.49747 341.08081 305.54492 328.16992 C 301.29384 314.28379 295.16208 307.63693 274.34375 294.35156 C 266.49651 289.34378 258.40137 284.67086 256.39453 283.55469 C 254.6171 282.56612 243.06594 277.06018 238.6875 274.04297 C 236.15549 272.29816 232.79658 270.11901 233.01562 269.84375 C 229.68247 268.61295 219.6907 262.30321 198.16016 247.90234 L 164.16016 225.16016 L 164.14062 224.98438 C 164.1257 225.01295 164.11336 225.05236 164.0957 225.07031 C 163.80491 225.36595 156.80716 217.16401 152.62109 213.9043 C 148.71369 210.8616 144.83335 207.48881 144.13867 207.08203 C 143.53921 206.73101 135.88951 200.92671 126.6875 194.5625 C 107.18199 181.07229 99.894223 178.90008 88.283203 178.86719 z M 160.98633 206.56641 C 161.64039 208.97225 162.22258 211.40848 162.71094 213.69922 C 162.26799 211.29189 161.70042 208.91149 160.98633 206.56641 z M 272.25195 232.37305 C 271.11086 234.21227 270.33418 235.4642 269.10156 237.45117 C 270.22791 235.64928 271.28459 233.94878 272.25195 232.37305 z M 184.51562 351.82031 C 185.49161 358.0861 187.19469 364.1159 189.56641 369.8125 C 187.58707 364.18156 185.68647 357.28284 184.51562 351.82031 z "
     id="path2992" />
</svg>
