<?xml version="1.0" encoding="UTF-8" standalone="no"?>
<!-- Created with Inkscape (http://www.inkscape.org/) -->

<svg
   xmlns:dc="http://purl.org/dc/elements/1.1/"
   xmlns:cc="http://creativecommons.org/ns#"
   xmlns:rdf="http://www.w3.org/1999/02/22-rdf-syntax-ns#"
   xmlns:svg="http://www.w3.org/2000/svg"
   xmlns="http://www.w3.org/2000/svg"
   xmlns:sodipodi="http://sodipodi.sourceforge.net/DTD/sodipodi-0.dtd"
   xmlns:inkscape="http://www.inkscape.org/namespaces/inkscape"
   width="512"
   height="512"
   viewBox="0 0 512.00001 512.00001"
   id="svg2"
   version="1.1"
   inkscape:version="0.48.5 r10040"
   sodipodi:docname="steam_icon_201700.svg">
  <defs
     id="defs4" />
  <sodipodi:namedview
     id="base"
     pagecolor="#ffffff"
     bordercolor="#666666"
     borderopacity="1.0"
     inkscape:pageopacity="0.0"
     inkscape:pageshadow="2"
     inkscape:zoom="1.2167208"
     inkscape:cx="238.75889"
     inkscape:cy="201.41843"
     inkscape:document-units="px"
     inkscape:current-layer="layer1"
     showgrid="false"
     units="px"
     inkscape:window-width="1920"
     inkscape:window-height="1007"
     inkscape:window-x="0"
     inkscape:window-y="31"
     inkscape:window-maximized="1" />
  <metadata
     id="metadata7">
    <rdf:RDF>
      <cc:Work
         rdf:about="">
        <dc:format>image/svg+xml</dc:format>
        <dc:type
           rdf:resource="http://purl.org/dc/dcmitype/StillImage" />
        <dc:title />
      </cc:Work>
    </rdf:RDF>
  </metadata>
  <g
     inkscape:label="Capa 1"
     inkscape:groupmode="layer"
     id="layer1"
     transform="translate(0,-540.36216)">
    <path
       style="fill:#000000;stroke:#000000;stroke-opacity:1;fill-opacity:1"
       d="m 243.34509,917.98443 c -4.59791,-0.83659 -56.53177,-22.45138 -59.26307,-24.66517 -1.30624,-1.05876 -9.14373,-4.65071 -17.41665,-7.98212 -8.2729,-3.33139 -16.00121,-6.80863 -17.17405,-7.72718 -1.57273,-1.23175 -2.52836,-0.96249 -3.64116,1.02597 -0.82982,1.48283 -2.98143,2.69604 -4.78134,2.69604 -2.63379,0 -3.1254,-0.76983 -2.51862,-3.94404 0.78625,-4.11298 0.40498,-4.36447 -20.57226,-13.57063 -3.8368,-1.68384 -5.14539,-3.26764 -5.14408,-6.22598 0.002,-3.7632 -0.42667,-3.95464 -8.31248,-3.7151 -4.572841,0.13886 -9.026751,0.40141 -9.897581,0.58333 -0.87083,0.18192 -17.79244,0.2464 -37.60357,0.14329 l -36.02023,-0.18751 0.633934,-13.85415 c 0.34865,-7.61978 0.704646,-36.11974 0.791111,-63.33326 l 0.157225,-49.4791 16.097206,0 c 8.853454,0 15.656124,-0.44107 15.117044,-0.98016 -1.54014,-1.54013 2.71385,-5.00646 6.92466,-5.64252 2.46485,-0.37233 5.07646,0.72182 7.36404,3.08522 1.94957,2.01417 5.68877,3.81221 8.30933,3.99563 2.62058,0.18342 4.7661,0.86787 4.76783,1.52099 0.005,1.76894 5.99587,1.43623 7.12814,-0.39583 0.5382,-0.87083 4.79863,-1.58333 9.46763,-1.58333 8.081701,0 8.537511,-0.22056 9.498521,-4.596 0.70851,-3.22573 2.51624,-5.19761 6.06329,-6.61383 5.41732,-2.16294 16.13247,-6.86118 30.783,-13.49733 5.00727,-2.2681 11.77601,-5.19548 15.04164,-6.50524 l 5.93749,-2.38139 0,-10.11974 0,-10.11974 87.8749,0 87.87488,0 0,11.87499 c 0,7.27285 0.64728,11.87498 1.6702,11.87498 0.91862,0 4.71949,1.38912 8.44642,3.08694 3.72692,1.6978 8.31906,2.68344 10.20478,2.19032 2.44851,-0.64029 3.42857,-0.18083 3.42857,1.60735 0,3.30991 4.95982,5.84476 9.24402,4.72443 2.27093,-0.59388 3.42906,-0.16693 3.44171,1.26878 0.0238,2.69885 16.73867,10.6746 19.19257,9.15801 0.98974,-0.61168 4.37511,-0.0331 7.52308,1.28585 5.8206,2.43866 17.48833,2.33581 64.4827,-0.56836 l 16.00916,-0.98936 0.99913,14.0555 c 2.0328,28.59648 6.07491,111.65737 5.46351,112.26877 -0.34783,0.34783 -10.39521,1.12237 -22.32753,1.7212 -18.33374,0.92009 -21.70292,1.48076 -21.74546,3.61876 -0.0443,2.23026 -0.29412,2.20911 -2.10814,-0.17853 -1.86327,-2.45248 -4.06605,-2.57001 -23.30377,-1.24339 -11.68531,0.80582 -21.42415,1.49027 -21.64185,1.52101 -0.21771,0.0307 -0.39583,1.73982 -0.39583,3.79797 0,3.03621 -1.71738,4.49678 -9.10415,7.74279 -15.75105,6.92154 -58.87482,24.93173 -59.6968,24.93173 -0.43247,0 -5.61353,2.21332 -11.51347,4.91848 -5.89992,2.70516 -15.71463,6.92101 -21.81046,9.36853 -6.09582,2.44754 -15.3583,6.41924 -20.5833,8.82602 -5.22499,2.40679 -9.85624,4.45569 -10.29166,4.55315 -0.43541,0.0974 -3.28542,1.002 -6.33332,2.01011 -5.24281,1.73407 -9.78139,1.9084 -16.73685,0.64285 z m 13.54593,-15.67333 c 0.0334,-4.91761 2.59613,-4.46848 4.5173,0.79166 l 1.59027,4.35417 0.32291,-4.35417 c 0.1776,-2.39478 0.42894,-5.24477 0.55855,-6.33332 0.12951,-1.08854 -0.64171,-2.8904 -1.71398,-4.00414 -1.07228,-1.11376 -1.59119,-2.95897 -1.15314,-4.1005 0.98022,-2.55443 -3.34022,-6.40453 -5.61165,-5.0007 -0.93381,0.57712 -1.64213,6.66251 -1.62843,13.99045 0.0168,8.95812 0.49892,12.23455 1.55908,10.59404 0.84417,-1.30624 1.54576,-3.97811 1.55909,-5.93749 z m -17.39241,-10.89403 c 0,-9.83829 -0.36022,-11.53291 -2.08369,-9.80237 -1.46185,1.46786 -1.87971,5.2759 -1.40013,12.75997 0.91199,14.23269 3.48382,12.04935 3.48382,-2.9576 z m 12.56075,0.60239 -0.10593,-13.0625 -2.11331,6.7673 c -1.16231,3.72202 -1.73334,9.60014 -1.26893,13.0625 1.46836,10.9475 3.59829,6.8153 3.48815,-6.7673 z m -19.95498,7.63659 c 2.17158,0.83331 2.64425,-0.0158 2.64425,-4.74722 0,-3.16907 -1.03241,-8.23277 -2.29421,-11.25273 -1.26181,-3.01992 -1.61806,-5.4908 -0.79166,-5.4908 0.82639,0 1.50253,-1.473 1.50253,-3.27336 0,-2.55283 -0.69704,-3.05213 -3.16665,-2.2683 -1.81657,0.57655 -3.16667,0.28452 -3.16667,-0.68497 0,-0.92952 0.69014,-1.69002 1.53365,-1.69002 0.84349,0 1.14822,-1.00439 0.67715,-2.23196 -0.51493,-1.3419 0.45199,-2.64726 2.42469,-3.27337 1.80464,-0.57277 3.28117,-1.90814 3.28117,-2.96755 0,-1.69025 3.76669,-2.13944 10.68748,-1.27447 3.16958,0.39612 2.28436,3.10377 -1.3967,4.27209 -2.55685,0.8115 -2.86329,1.38823 -1.26309,2.37721 1.16202,0.71818 2.69853,0.94374 3.4145,0.50125 0.71595,-0.44248 3.47211,-0.32781 6.1248,0.25482 3.25669,0.7153 4.54581,1.78181 3.96938,3.28398 -0.56227,1.46522 0.25539,2.22465 2.39524,2.22465 1.9306,0 2.95444,0.8031 2.52321,1.97918 -0.39913,1.08853 -1.45891,1.82381 -2.35507,1.63394 -0.89617,-0.18987 -2.49748,0.70075 -3.55845,1.97916 -1.35148,1.62844 -1.39696,2.32439 -0.15184,2.32439 0.97745,0 1.77719,-0.83125 1.77719,-1.84724 0,-1.01596 0.53437,-1.31283 1.18751,-0.65971 0.65312,0.65313 1.18749,1.95939 1.18749,2.90278 0,0.94339 0.89112,2.01231 1.98024,2.37536 1.25711,0.41902 1.62889,-0.25552 1.01809,-1.84723 -1.47852,-3.85301 3.53635,-3.09374 6.37983,0.96593 2.03318,2.90276 2.08746,3.87798 0.33046,5.93749 -2.23194,2.61621 -4.52092,8.00592 -3.4001,8.00592 0.36711,0 2.48224,-0.82686 4.70031,-1.83748 5.01631,-2.28558 5.23261,-7.02019 0.7244,-15.85702 -2.68309,-5.25928 -2.90754,-6.74198 -1.18751,-7.84447 1.40063,-0.89775 3.01371,-0.28707 4.74972,1.79812 2.79393,3.35589 6.07953,4.20666 6.07953,1.57422 0,-0.87083 1.06874,-1.58334 2.37501,-1.58334 1.30624,0 2.37499,-0.7125 2.37499,-1.58333 0,-4.19157 5.21543,-0.68996 10.99617,7.38274 7.56386,10.5628 8.34657,9.28422 1.69917,-2.7756 -5.22104,-9.47205 -6.01081,-14.10712 -2.40369,-14.10712 2.81893,0 2.80268,0.11891 0.77853,-5.70122 l -1.59647,-4.59043 -19.38268,1.17723 c -22.24135,1.35086 -22.01203,1.34965 -49.55254,0.26263 l -20.66986,-0.81584 -2.84389,12.06308 c -1.56412,6.6347 -2.59392,12.31145 -2.28842,12.61502 0.30551,0.30357 5.00518,3.06605 10.44376,6.13883 l 9.88829,5.58688 0.94207,-3.75355 c 1.07443,-4.28079 5.40629,-6.75802 5.40629,-3.0916 0,1.30624 -1.12848,2.80803 -2.50775,3.3373 -2.01909,0.77482 -2.09622,1.22319 -0.39583,2.30107 1.56518,0.99216 1.29212,1.35976 -1.05474,1.41993 -2.76702,0.0709 -2.5672,0.58006 1.58333,4.03411 2.61249,2.1741 3.50313,3.49724 1.97916,2.9403 -1.86958,-0.68322 -2.77082,-0.2279 -2.77082,1.39987 0,2.76542 3.50298,4.47885 4.87658,2.38531 0.50504,-0.76975 2.10815,-0.94293 3.56249,-0.38486 z m 14.00732,-0.31937 c 0.28154,-1.41822 0.26785,-6.40572 -0.0304,-11.08332 -0.38257,-5.99874 -1.19902,-8.50473 -2.77084,-8.50473 -2.7609,0 -2.92873,2.57599 -0.2493,3.82639 1.58333,0.73888 1.58333,1.10833 0,1.84721 -2.92394,1.36452 -2.66735,16.49304 0.27975,16.49304 1.24239,0 2.48926,-1.16037 2.77083,-2.57859 z m -24.02972,-3.95694 c 0,-2.35061 -6.34094,-7.1767 -14.37095,-10.93777 -6.80925,-3.18928 -8.22254,-3.40599 -9.45956,-1.45056 -2.20787,3.49008 -2.1574,3.54073 8.73433,8.76414 10.09879,4.84318 15.09618,6.04291 15.09618,3.62419 z m -29.22267,-16.58002 c -3.86866,-3.86864 -4.26188,-3.02482 -2.56162,5.49693 0.0648,0.32435 1.16653,-0.28078 2.44852,-1.34472 1.99843,-1.65855 2.01454,-2.25073 0.11305,-4.15221 z m -7.19452,-1.03025 c -4.9e-4,-3.09207 -2.45711,-4.49366 -18.60414,-10.61411 -10.23197,-3.87837 -20.38483,-7.97085 -22.5619,-9.09439 -4.86476,-2.51059 -9.5,-2.66164 -9.5,-0.30957 0,0.96399 0.94175,1.39133 2.0928,0.94965 1.15104,-0.44171 2.93832,0.55082 3.97174,2.20559 1.03342,1.65478 2.58814,3.00868 3.45493,3.00868 0.86678,0 8.16386,3.07861 16.21573,6.84135 26.43181,12.35195 24.9316,11.92996 24.93084,7.0128 z M 142.9154,860.6552 c 0,-0.92222 0.7125,-1.23642 1.58335,-0.69821 0.87083,0.5382 1.58332,1.29275 1.58332,1.67677 0,0.38404 -0.71249,0.69823 -1.58332,0.69823 -0.87085,0 -1.58335,-0.75456 -1.58335,-1.67679 z m 55.39237,9.36701 c 0.0377,-4.04443 -4.43458,-4.85945 -6.41008,-1.16816 -1.39558,2.60762 -1.17121,3.648 1.15331,5.34772 3.15693,2.30841 5.21152,0.67486 5.25677,-4.17956 z m -9.45862,-0.96106 c 0.01,-0.65312 1.04409,-4.57187 2.29926,-8.70833 l 2.28214,-7.52082 -18.13258,0 c -9.97291,0 -18.13258,0.53808 -18.13258,1.19574 0,1.43474 26.85949,16.04492 29.68747,16.14845 1.08854,0.0399 1.98687,-0.46192 1.99629,-1.11504 z m 144.06602,-1.25059 c 0,-0.47011 -1.32608,-3.49822 -2.94687,-6.72916 -1.62079,-3.23092 -2.63016,-6.76503 -2.24307,-7.85357 0.464,-1.30474 -0.94279,-1.97916 -4.12841,-1.97916 -3.64482,0 -4.60829,0.5836 -3.92088,2.37499 0.50127,1.30625 1.79569,2.37501 2.8765,2.37501 1.08083,0 3.25032,2.84999 4.82107,6.33332 2.41524,5.35604 5.54166,8.44688 5.54166,5.47857 z m -17.94883,-9.83273 c -3.08706,-6.36151 -3.63613,-6.72916 -10.04936,-6.72916 l -6.78386,0 2.4931,5.2281 c 2.72866,5.72207 7.07736,8.40118 13.46813,8.29741 l 4.13749,-0.0671 -3.2655,-6.72916 z m -114.37511,3.29324 c 0.90292,-2.35298 -1.29044,-5.18199 -4.06899,-5.24816 -2.12568,-0.0507 -2.95737,5.32141 -1.01469,6.55409 2.98048,1.89116 3.95269,1.6414 5.08368,-1.30593 z m 163.51691,-4.3697 c 0.11448,-4.04109 -0.41285,-5.21313 -2.0612,-4.58059 -1.21831,0.4675 -2.21513,1.57352 -2.21513,2.45781 0,0.92674 -1.00607,0.77285 -2.375,-0.36326 -1.94514,-1.61432 -2.37499,-1.50613 -2.37499,0.5978 0,1.52655 1.30504,2.56887 3.21634,2.56887 1.76902,0 3.62648,1.06874 4.12773,2.37499 1.30523,3.40136 1.50975,3.02987 1.68225,-3.05562 z m -13.00481,1.24546 c 1.31733,0.50551 2.39514,0.27699 2.39514,-0.50783 0,-0.78481 -1.42499,-1.87922 -3.16665,-2.43201 -1.74166,-0.55279 -3.16667,-1.66954 -3.16667,-2.48169 0,-0.81214 -1.79955,-1.47663 -3.99898,-1.47663 -3.95411,0 -3.97076,0.0546 -1.48475,4.86204 2.03876,3.94247 2.941,4.50787 4.7705,2.98952 1.24092,-1.02987 3.33406,-1.45891 4.65141,-0.9534 z m 19.81179,-0.26221 c 0,-0.70439 -1.04609,-2.66378 -2.32464,-4.35417 -2.37322,-3.13768 -3.19523,-1.38037 -1.46428,3.13038 0.99272,2.58699 3.78892,3.49013 3.78892,1.22379 z m 1.76147,-5.50783 c -1.29307,-1.29305 -1.76147,-1.11586 -1.76147,0.66631 0,3.14745 2.12912,5.27655 2.91598,2.91599 0.33382,-1.00147 -0.18572,-2.61349 -1.15451,-3.5823 z m -80.17877,-15.32885 c 10.63411,-2.46548 10.7778,-3.06089 9.56397,-39.63253 -1.21769,-36.68824 -2.42863,-45.61346 -6.60423,-48.67661 -2.08614,-1.53037 -7.78721,-2.0639 -20.00955,-1.87257 -9.4007,0.14709 -17.53506,-0.17532 -18.07637,-0.71662 -0.54129,-0.54127 -5.14038,-0.98414 -10.22025,-0.98414 l -9.2361,0 -0.01,7.52082 c -0.0161,12.85264 -1.98632,33.64579 -3.18787,33.64579 -0.62957,0 -1.61976,-7.30311 -2.20042,-16.22915 -1.68242,-25.86344 -1.25903,-24.93746 -11.40269,-24.93746 -5.51787,0 -8.85702,0.71404 -9.25536,1.97915 -0.34272,1.08856 -1.53182,12.66665 -2.64244,25.72915 l -2.01928,23.74997 -1.95058,-23.74997 c -1.07282,-13.0625 -1.99886,-24.64059 -2.05787,-25.72915 -0.0736,-1.35664 -3.16309,-1.97915 -9.82247,-1.97915 l -9.71522,0 1.06713,7.52082 c 2.57555,18.15188 10.44662,79.95658 10.44662,82.0283 0,1.76943 2.46404,2.28409 10.93557,2.28409 l 10.93555,0 1.14246,-15.43747 c 0.62835,-8.49063 1.63015,-18.64373 2.22621,-22.56248 0.95213,-6.25963 1.22453,-5.20199 2.24277,8.70832 0.63744,8.70833 1.56428,18.86145 2.05964,22.56247 l 0.90066,6.72916 10.57064,0 10.57064,0 3.51481,-28.89578 c 1.93315,-15.8927 3.58601,-31.03331 3.67303,-33.6458 0.40462,-12.14618 2.69404,9.78729 3.75985,36.02079 l 1.14182,28.10413 13.68395,-0.0378 c 7.52617,-0.0207 16.51488,-0.69411 19.97488,-1.49631 z m -14.00358,-20.23673 c -0.47631,-3.26563 -1.33212,-16.80311 -1.90178,-30.08329 -0.92608,-21.58861 -0.76526,-24.14581 1.51852,-24.14581 2.14417,0 2.57813,2.22421 2.70299,13.85415 0.0819,7.61979 0.61618,20.44634 1.18751,28.50345 0.57131,8.05711 0.80126,15.36024 0.51099,16.22915 -1.15879,3.46864 -3.19953,1.25552 -4.01823,-4.35765 z M 77.967119,834.1761 c 3.2543,-2.63521 3.47448,-4.05856 3.31605,-21.43809 -0.10418,-11.42249 -0.90238,-19.78874 -2.06592,-21.65186 -1.04292,-1.67001 -5.12811,-4.71097 -9.07817,-6.75767 -6.64821,-3.44477 -8.09376,-3.61222 -19.45272,-2.25338 -6.748955,0.80737 -12.270823,2.06222 -12.270823,2.78854 0,1.69049 4.955162,5.25912 15.508173,11.16871 l 8.38317,4.69451 -0.46651,10.6151 c -0.60127,13.68089 -3.39078,13.15135 -4.42486,-0.83999 l -0.79166,-10.71157 -9.49999,0 -9.499988,0 -0.455414,14.6582 c -0.429115,13.81197 -0.227604,14.88602 3.490533,18.60416 3.648043,3.64803 5.073674,3.94592 18.884139,3.94592 11.97212,0 15.63033,-0.56045 18.42399,-2.82258 z m 30.115001,-18.55238 c 0,-17.94442 0.38118,-21.37498 2.375,-21.37498 1.99382,0 2.37499,3.43056 2.37499,21.37498 l 0,21.37496 9.49999,0 9.49998,0 0.034,-7.52082 c 0.0636,-14.07472 0.0827,-77.17259 0.0242,-80.74989 -0.0538,-3.29215 -0.77917,-3.5625 -9.5582,-3.5625 l -9.5,0 0,14.13558 0,14.13558 9.10417,-0.61014 9.10414,-0.61012 -8.5239,1.369 c -4.68815,0.75295 -9.11954,2.32587 -9.84752,3.49536 -0.99009,1.5906 -2.03391,1.69839 -4.14273,0.42779 -1.64577,-0.99161 -6.44368,-1.32111 -11.527461,-0.79167 l -8.70833,0.9069 -0.43078,29.68747 -0.43076,29.68746 10.32659,0 10.326601,0 0,-21.37496 z m 72.19201,18.04093 c 2.79578,-3.09037 3.01623,-6.21073 3.01623,-42.69411 0,-47.81101 1.4258,-44.76934 -21.35423,-45.5553 -15.06344,-0.51972 -15.87084,-0.37693 -19.73831,3.49054 -3.35144,3.35144 -4.0324,5.51515 -4.0324,12.81269 0,7.98605 0.32226,8.7998 3.56249,8.99591 l 3.5625,0.21562 -3.65912,0.69883 -3.6591,0.69884 0.49245,29.31191 c 0.61127,36.38537 -0.0673,35.3591 23.38075,35.3591 13.65994,0 15.75549,-0.37911 18.42874,-3.33403 z m -21.52541,-42.58257 c 0,-25.68516 0.34723,-30.0833 2.37499,-30.0833 1.30626,0 2.37501,1.37767 2.37501,3.06149 0,2.12437 1.33283,3.26342 4.35415,3.72111 l 4.35416,0.6596 -4.35416,0.23723 -4.35415,0.23723 0,26.12496 c 0,22.16664 -0.35984,26.12498 -2.37501,26.12498 -2.02776,0 -2.37499,-4.39815 -2.37499,-30.0833 z m -8.31248,-21.63192 c 1.08854,-0.43923 2.86978,-0.43923 3.95832,0 1.08853,0.43923 0.19791,0.7986 -1.97916,0.7986 -2.17708,0 -3.06771,-0.35937 -1.97916,-0.7986 z m 196.91028,65.25219 c 3.44614,-1.40809 6.15195,-7.74302 6.15195,-14.40313 l 0,-5.46717 -10.10698,0 c -9.12659,0 -10.19665,0.34292 -11.03146,3.53518 -2.23698,8.55425 -3.96644,-1.51151 -5.02808,-29.26432 -0.75626,-19.76998 -0.59889,-29.68747 0.47107,-29.68747 2.46933,0 3.04768,2.89665 3.31941,16.62498 0.13791,6.96666 0.68967,18.18852 1.22618,24.93747 l 0.97546,12.27082 10.26965,0 10.26965,0 -0.92169,-8.31248 c -0.50692,-4.57188 -1.3947,-18.50177 -1.97286,-30.9553 -1.37702,-29.66098 -1.33781,-29.60713 -21.55141,-29.60713 -11.5551,0 -15.80567,0.62355 -19.13671,2.80732 -4.11282,2.69633 -4.28204,3.35377 -4.27952,16.62498 0.001,7.5997 0.74509,25.57389 1.65255,39.94263 1.60012,25.33677 1.77695,26.23852 5.86127,29.88871 3.92571,3.50844 5.1292,3.70762 17.74327,2.93659 7.44254,-0.45494 14.68225,-1.29719 16.08825,-1.87168 z m 40.98525,-24.6203 c 0.78089,-22.64607 1.34994,-23.04309 3.97147,-2.77083 l 0.97256,7.52083 12.34541,0 12.34542,0 1.75758,-18.60414 c 0.96668,-10.23228 2.26259,-26.08539 2.87981,-35.22913 1.53596,-22.75447 3.15311,-14.29931 4.61626,24.13621 l 1.13051,29.69706 8.88628,0.003 8.8863,0.003 -0.35384,-10.69082 -0.35386,-10.69082 3.05495,10.08999 c 1.68023,5.5495 3.26446,10.26144 3.52051,10.47101 0.25606,0.20957 5.36881,0.86415 11.36166,1.45463 l 10.89611,1.07362 -0.98133,-15.50295 c -0.53973,-8.52662 -1.44951,-26.44926 -2.02174,-39.82811 l -1.0404,-24.32516 -7.72168,0.74195 c -4.24693,0.40807 -8.15062,1.17088 -8.67486,1.69512 -0.52424,0.52424 -0.8272,8.26495 -0.67323,17.20158 0.15405,8.9366 -0.0955,15.87297 -0.55434,15.41411 -0.45885,-0.45888 -2.5471,-7.91838 -4.64056,-16.57666 l -3.80626,-15.74239 -18.79723,0.57134 c -10.33844,0.31424 -19.10876,0.86331 -19.48958,1.22016 -0.38081,0.35685 -1.0933,11.85599 -1.58333,25.55364 l -0.89094,24.9048 -2.07227,-15.83332 c -1.13973,-8.70832 -2.78585,-20.11331 -3.65803,-25.34442 l -1.58576,-9.51109 -9.00863,0.80278 -9.00861,0.80278 -0.96133,20.5833 c -0.52873,11.32082 -1.14671,20.93956 -1.37328,21.37498 -0.22658,0.43541 -1.67059,-8.68493 -3.2089,-20.26744 -1.53833,-11.5825 -3.05785,-21.30934 -3.37671,-21.61521 -0.31887,-0.30586 -4.57042,-0.0918 -9.44789,0.47578 l -8.86811,1.03192 5.70145,33.89214 c 4.96367,29.50637 6.11124,34.05075 8.86811,35.11784 2.67709,1.0362 2.73828,1.24291 0.39583,1.33697 -3.25823,0.13094 -3.30488,0.63188 -1.0415,11.1857 l 1.72935,8.0636 10.54147,-0.46485 10.54149,-0.46484 0.79167,-22.95831 z m -17.71352,3.6684 c 1.14295,-0.45739 2.50859,-0.40114 3.03473,0.12492 0.52612,0.52613 -0.40904,0.90035 -2.07813,0.8316 -1.8445,-0.076 -2.21967,-0.45117 -0.9566,-0.95662 z m 46.23092,16.51907 c 0.01,-1.08853 0.45905,-4.65104 0.99882,-7.91665 l 0.9814,-5.93749 -12.47798,-9.8e-4 -12.47798,-9.8e-4 0.54864,7.91763 0.54865,7.91765 10.9305,0 c 7.67957,0 10.93569,-0.58865 10.94795,-1.97918 z m 30.06586,-5.75283 c 0,-6.7216 -1.99702,-8.03652 -12.27082,-8.0797 -5.04641,-0.0212 -5.14582,0.11606 -5.14582,7.10338 l 0,7.12499 8.70833,0 8.70831,0 0,-6.14867 z m 21.154,5.1418 c 7.08377,-0.97095 7.34597,-1.197 7.34597,-6.33333 l 0,-5.32645 -11.20913,0 -11.20912,0 1.10366,5.14583 c 1.81128,8.44502 1.37252,8.24042 13.96862,6.51395 z M 56.530269,779.37669 c 0.81938,-0.20411 1.30209,-4.42263 1.07271,-9.3745 -0.33855,-7.30879 0.0516,-9.00341 2.07274,-9.00341 1.96938,0 2.48979,1.86347 2.48979,8.91548 l 0,8.9155 5.93749,-0.98141 c 3.26561,-0.53977 7.54061,-0.98925 9.49998,-0.99883 3.38859,-0.0166 3.56132,-0.61645 3.53826,-12.28825 -0.0127,-6.74895 -0.5477,-13.05477 -1.18749,-14.01295 -2.57486,-3.85618 -8.73346,-5.38285 -21.71445,-5.38285 -12.3649,0 -13.996233,0.36185 -17.520744,3.88635 -3.507808,3.50782 -3.886351,5.17856 -3.886351,17.15277 0,7.29651 0.36917,13.63557 0.820372,14.08677 0.730185,0.73018 15.062153,0.0358 18.877693,-0.91467 z m 45.614361,-5.14419 5.93749,-0.98141 0,-14.04281 0,-14.04281 -10.291651,0 -10.29166,0 0,15.04165 0,15.04164 4.35416,-0.0174 c 2.39479,-0.01 7.02603,-0.45905 10.291661,-0.99882 z m 61.74992,-47.49337 c 3.97437,-0.75327 4.35417,-1.44005 4.35417,-7.87412 0,-4.6674 -0.76865,-7.34384 -2.27504,-7.9219 -1.25125,-0.48016 -1.88751,-1.88279 -1.41393,-3.11696 0.47361,-1.23418 0.0724,-2.24398 -0.89163,-2.24398 -0.96401,0 -1.75273,0.71252 -1.75273,1.58335 0,0.87083 -0.53439,1.46826 -1.18751,1.32765 -0.65312,-0.1406 -3.32499,0.68613 -5.93749,1.83724 -2.61249,1.1511 -5.64062,1.94743 -6.72916,1.76961 -1.08854,-0.17784 -1.97916,0.38812 -1.97916,1.25767 0,0.86955 -2.48752,2.04765 -5.5278,2.61801 -3.31028,0.621 -5.11159,1.71047 -4.49026,2.71582 0.6466,1.04625 0.0526,1.3008 -1.57677,0.67558 -1.7975,-0.68976 -3.39419,0.33919 -5.1105,3.29341 -1.37292,2.36317 -2.11698,3.04978 -1.65346,1.52582 0.46352,-1.52397 0.15264,-2.77084 -0.69088,-2.77084 -0.84349,0 -1.53364,0.29799 -1.53364,0.66217 0,0.36419 -0.40857,1.72687 -0.90793,3.02819 -0.55779,1.45359 0.20544,2.67679 1.97917,3.17191 3.18696,0.88961 30.44034,-0.23384 37.32455,-1.53863 z m 52.9758,-3.13883 c 2.43098,-1.80495 5.30009,-4.99429 6.37579,-7.08744 1.84388,-3.58786 1.95715,-3.42054 1.97916,2.92348 0.0204,5.90945 0.4573,6.73178 3.58584,6.75076 1.95937,0.0111 5.16562,0.45125 7.12499,0.97635 3.48023,0.93266 3.56248,0.658 3.56248,-11.89662 l 0,-12.85131 -6.72915,-0.0161 c -6.35039,-0.0158 -6.87943,-0.37384 -9.39885,-6.37186 -3.65491,-8.70122 -9.72789,-11.02868 -28.77667,-11.02868 -12.14732,0 -15.10189,0.46584 -15.88418,2.50449 -1.28675,3.35322 -1.23283,34.52826 0.0656,37.91185 0.89369,2.32888 3.14073,2.59711 17.35086,2.07109 13.42772,-0.49706 17.10847,-1.18657 20.74417,-3.88601 z m -21.70501,-17.22645 c 0,-8.51494 0.10007,-8.70833 4.5046,-8.70833 4.718,0 9.74538,4.17077 9.74538,8.08485 0,4.62751 -4.83431,9.3318 -9.58975,9.3318 -4.59321,0 -4.66023,-0.12524 -4.66023,-8.70832 z m 63.33326,14.14966 c 0,-7.19785 0.0195,-7.22342 5.14582,-6.72916 4.65431,0.44877 5.28074,1.13891 6.5583,7.22531 l 1.41245,6.72916 7.42782,0 c 4.08528,0 7.81072,-0.38293 8.27876,-0.85096 1.10807,-1.10806 -1.85577,-15.25501 -3.66967,-17.51595 -2.4459,-3.04873 3.0439,-11.71639 7.42077,-11.71639 3.79796,0 3.84237,0.17384 3.84237,15.04166 l 0,15.04164 8.70832,0 8.70833,0 0,-15.04164 0,-15.04166 6.33333,0 c 6.33332,0 6.33332,0 6.33332,-6.33332 l 0,-6.33333 -21.37498,0 c -13.67874,0 -21.37496,0.59016 -21.37496,1.63903 0,1.12983 -0.95149,1.12983 -3.06259,0 -1.6844,-0.90147 -10.9469,-1.63903 -20.5833,-1.63903 l -17.52073,0 0,20.31941 c 0,11.17569 0.475,20.79444 1.05555,21.37498 0.58055,0.58056 4.4993,1.05556 8.70832,1.05556 l 7.65277,0 0,-7.22531 z m 0,-21.27466 c 0,-2.84522 0.79783,-3.29036 5.14582,-2.87114 3.29801,0.31799 5.14583,1.34899 5.14583,2.87114 0,1.52216 -1.84782,2.55316 -5.14583,2.87116 -4.34799,0.41922 -5.14582,-0.026 -5.14582,-2.87116 z m -136.1665,25.33331 c 0,-0.87084 -0.31419,-1.58334 -0.69821,-1.58334 -0.38402,0 -1.13857,0.7125 -1.67678,1.58334 -0.53822,0.87083 -0.22402,1.58333 0.69822,1.58333 0.92222,0 1.67677,-0.7125 1.67677,-1.58333 z m 245.8122,-0.0206 c 3.97766,-0.25301 3.41878,-4.14927 -0.79167,-5.51927 -1.95938,-0.63754 -3.91875,-1.28208 -4.35416,-1.43228 -1.35075,-0.46594 -13.3291,-5.89466 -15.83332,-7.17583 -1.30625,-0.66829 -3.79999,-0.70173 -5.54166,-0.0743 -1.74166,0.62741 -5.83854,0.84552 -9.10415,0.48468 l -5.93749,-0.6561 0,8.12441 0,8.1244 19.3958,-0.84974 c 10.6677,-0.46735 20.6427,-0.92903 22.16665,-1.02596 z m 10.68749,-0.58645 c 0,-0.33386 -1.42501,-0.97965 -3.16667,-1.43511 -1.74166,-0.45546 -3.16666,-0.1823 -3.16666,0.607 0,0.78932 1.425,1.43511 3.16666,1.43511 1.74166,0 3.16667,-0.27315 3.16667,-0.607 z m -142.6597,-29.52504 c 1.82958,-3.51016 3.32652,-7.07266 3.32652,-7.91667 0,-0.84403 -3.57448,-1.53458 -7.94333,-1.53458 l -7.94331,0 4.01166,7.91665 c 2.20643,4.35417 4.28399,7.91667 4.61681,7.91667 0.33281,0 2.10207,-2.87195 3.93165,-6.38207 z m 83.01459,204.95703 c -0.51808,-1.35009 -0.18275,-3.21395 0.74518,-4.14187 2.31688,-2.31688 6.80435,-0.34457 5.70921,2.5093 -1.31516,3.42729 -5.37193,4.4534 -6.45439,1.63257 z m 76.22093,-3.90472 c -1.50449,-2.43434 0.55632,-4.005 2.5885,-1.9728 1.13712,1.13712 1.16443,2.02274 0.083,2.69109 -0.88654,0.54791 -2.08871,0.22467 -2.67152,-0.71829 z m -16.57582,-11.62607 c 0,-0.34225 1.06874,-1.03238 2.37499,-1.53364 1.30624,-0.50125 2.37499,-0.22123 2.37499,0.62226 0,0.8435 -1.06875,1.53364 -2.37499,1.53364 -1.30625,0 -2.37499,-0.28003 -2.37499,-0.62226 z M 96.998799,868.66529 c 0,-0.87085 1.95937,-1.57244 4.354151,-1.5591 3.39299,0.0188 3.82988,0.36307 1.97918,1.5591 -3.09785,2.00197 -6.333331,2.00197 -6.333331,0 z m 308.041531,-3.03144 c -0.5098,-0.82487 -0.25201,-1.91686 0.57285,-2.42664 0.82487,-0.5098 1.91686,-0.25202 2.42666,0.57285 0.5098,0.82486 0.25201,1.91685 -0.57287,2.42664 -0.82486,0.5098 -1.91685,0.25202 -2.42664,-0.57285 z m 6.51364,0.39254 c -2.10124,-2.10124 -0.98945,-5.27777 1.8472,-5.27777 3.73537,0 5.01139,1.33085 3.94374,4.11314 -0.89518,2.33277 -3.99865,2.95692 -5.79094,1.16463 z m 22.69441,-8.44442 c 0,-0.87083 0.75455,-1.58333 1.67678,-1.58333 0.92222,0 1.23642,0.7125 0.69821,1.58333 -0.5382,0.87083 -1.29275,1.58332 -1.67677,1.58332 -0.38402,0 -0.69822,-0.71249 -0.69822,-1.58332 z M 397.0401,707.16549 c -0.53821,-0.87083 -0.22401,-1.58335 0.69821,-1.58335 0.92223,0 1.67678,0.71252 1.67678,1.58335 0,0.87083 -0.3142,1.58332 -0.69822,1.58332 -0.38402,0 -1.13857,-0.71249 -1.67677,-1.58332 z m -26.12498,-1.58335 c 0,-0.87083 0.7125,-1.58332 1.58334,-1.58332 0.87083,0 1.58333,0.71249 1.58333,1.58332 0,0.87085 -0.7125,1.58335 -1.58333,1.58335 -0.87084,0 -1.58334,-0.7125 -1.58334,-1.58335 z"
       id="path4193"
       inkscape:connector-curvature="0" />
  </g>
</svg>
