<?xml version="1.0" encoding="UTF-8" standalone="no"?>
<!-- Created with Inkscape (http://www.inkscape.org/) -->

<svg
   xmlns:dc="http://purl.org/dc/elements/1.1/"
   xmlns:cc="http://creativecommons.org/ns#"
   xmlns:rdf="http://www.w3.org/1999/02/22-rdf-syntax-ns#"
   xmlns:svg="http://www.w3.org/2000/svg"
   xmlns="http://www.w3.org/2000/svg"
   xmlns:sodipodi="http://sodipodi.sourceforge.net/DTD/sodipodi-0.dtd"
   xmlns:inkscape="http://www.inkscape.org/namespaces/inkscape"
   width="512"
   height="512"
   viewBox="0 0 511.99999 511.99999"
   id="svg2"
   version="1.1"
   inkscape:version="0.48.5 r10040"
   sodipodi:docname="steam_icon_222880.svg">
  <defs
     id="defs4" />
  <sodipodi:namedview
     id="base"
     pagecolor="#ffffff"
     bordercolor="#666666"
     borderopacity="1.0"
     inkscape:pageopacity="0.0"
     inkscape:pageshadow="2"
     inkscape:zoom="1.7207031"
     inkscape:cx="214.32679"
     inkscape:cy="338.16027"
     inkscape:document-units="px"
     inkscape:current-layer="layer1"
     showgrid="false"
     units="px"
     inkscape:window-width="1920"
     inkscape:window-height="1007"
     inkscape:window-x="0"
     inkscape:window-y="31"
     inkscape:window-maximized="1" />
  <metadata
     id="metadata7">
    <rdf:RDF>
      <cc:Work
         rdf:about="">
        <dc:format>image/svg+xml</dc:format>
        <dc:type
           rdf:resource="http://purl.org/dc/dcmitype/StillImage" />
        <dc:title />
      </cc:Work>
    </rdf:RDF>
  </metadata>
  <g
     inkscape:label="Capa 1"
     inkscape:groupmode="layer"
     id="layer1"
     transform="translate(0,-540.3622)">
    <path
       style="fill:#000000;stroke:#000000;stroke-opacity:1;fill-opacity:1"
       d="m 251.6537,1019.534 c -5.5165,-4.0712 -6.73278,-4.727 -12.87049,-9.3278 l -7.57406,-5.6774 -1.63339,-1.0425 -2.58273,-1.855 -4.86694,-3.60263 -4.46899,-3.22335 -4.87526,-3.63023 -4.87525,-3.4774 -4.15979,-3.12711 -8.53169,-6.36585 -33.62345,-24.69695 -35.19598,-25.90862 c -4.21671,-3.10402 -9.00483,-6.68752 -10.75909,-7.80476 -3.53547,-2.25166 -4.54628,-4.70044 -5.70191,-13.81323 -0.36836,-2.90484 -1.25267,-9.66926 -1.96512,-15.03204 -0.71245,-5.36278 -1.64535,-12.85848 -2.07312,-16.65712 -0.42776,-3.79864 -0.98516,-7.45508 -1.23865,-8.12543 -0.2535,-0.67035 -0.79232,-4.50961 -1.1974,-8.53169 -0.40508,-4.02209 -1.28667,-11.33497 -1.95907,-16.25086 -0.67242,-4.91588 -1.590531,-12.36304 -2.040251,-16.54923 -0.44973,-4.1862 -1.18664,-8.93957 -1.63759,-10.56306 -0.45094,-1.62348 -0.82076,-4.41437 -0.82181,-6.20196 -8.6e-4,-1.78759 -0.53738,-6.90661 -1.19183,-11.3756 -0.65447,-4.46898 -1.56318,-11.23339 -2.01938,-15.03203 -0.45619,-3.79864 -1.22554,-9.64895 -1.70966,-13.00069 -0.48412,-3.35173 -1.19078,-9.20204 -1.57036,-13.00068 -0.37958,-3.79864 -1.08581,-9.64894 -1.56941,-13.00068 -0.48359,-3.35174 -1.2641,-9.20204 -1.73446,-13.00068 -0.93005,-7.51126 -2.59808,-20.48238 -4.4408,-34.53307 -0.6447,-4.91588 -1.56402,-12.22876 -2.04292,-16.25085 -0.81616,-6.85459 -1.95447,-15.50862 -4.06135,-30.87662 -0.84992,-6.19948 -1.58491,-12.37267 -3.19251,-26.8139 -0.39799,-3.57519 -1.14471,-9.14275 -1.65938,-12.37236 -0.51466,-3.22961 -0.73429,-6.19798 -0.48807,-6.59638 0.24622,-0.3984 2.36712,-0.97899 4.7131,-1.29019 2.34598,-0.31121 5.7364,-0.89103 7.53426,-1.2885 7.02688,-1.55349 12.41028,-2.59097 17.082061,-3.29202 2.68138,-0.40236 8.16605,-1.31073 12.18813,-2.01857 4.02209,-0.70786 8.40982,-1.45326 9.75052,-1.65643 1.34069,-0.20318 5.17996,-0.88416 8.53169,-1.51329 3.35175,-0.62913 9.5677,-1.73372 13.81323,-2.45466 4.24554,-0.72093 9.54738,-1.64373 11.78187,-2.05067 4.24581,-0.77323 13.33968,-2.32812 26.40763,-4.51527 4.24554,-0.71056 9.36456,-1.61374 11.3756,-2.00706 7.75473,-1.51667 13.59323,-2.5242 18.28221,-3.15488 2.68139,-0.36066 6.8863,-1.05368 9.34425,-1.54004 19.35265,-3.82944 36.46071,-4.98691 49.52292,-3.35055 6.90333,0.8648 8.73158,1.15773 21.98083,3.52184 3.79863,0.67781 8.18636,1.44724 9.75051,1.70986 1.56414,0.26261 5.76905,0.99284 9.34423,1.62272 11.67084,2.05619 21.85247,3.77782 26.40765,4.46532 2.45794,0.37098 7.75977,1.27416 11.78186,2.00708 4.02209,0.73291 9.82669,1.68922 12.89912,2.1251 3.07244,0.43588 6.24779,1.14656 7.05633,1.57929 0.80856,0.43272 2.72923,0.78676 4.26818,0.78676 4.14916,0 8.68435,2.12735 8.68435,4.07362 0,1.92441 0.91912,2.02098 4.01212,0.42153 1.89398,-0.97942 3.59367,-1.04757 9.50702,-0.38119 3.96038,0.44629 8.48045,1.16376 10.04459,1.59438 1.56415,0.43062 4.09152,0.78498 5.61639,0.78747 1.52486,0.003 4.63284,0.52763 6.90661,1.16697 2.27377,0.63934 6.69363,1.57803 9.82192,2.08598 9.56342,1.55283 10.00375,1.68205 10.55865,3.09844 0.95139,2.42848 0.43093,17.22382 -0.81615,23.20144 -0.66521,3.18852 -1.20393,7.07706 -1.19716,8.64121 0.007,1.56414 -0.52907,6.31752 -1.19074,10.56306 -0.66168,4.24553 -1.60753,11.00995 -2.10189,15.03203 -0.49436,4.02208 -1.23937,9.54122 -1.65557,12.26473 -0.4162,2.72351 -1.1122,8.93946 -1.54667,13.81323 -0.43447,4.87376 -1.36561,12.33499 -2.06918,16.58053 -0.70359,4.24553 -1.81694,12.65535 -2.47413,18.68848 -0.65718,6.03313 -1.50058,13.16319 -1.87423,15.84458 -0.64162,4.60453 -1.64594,12.52649 -3.34788,26.40763 -0.41094,3.35175 -1.32436,11.2131 -2.0298,17.46967 -1.23956,10.99362 -2.27679,18.95727 -4.81531,36.9707 -0.66127,4.69243 -1.59891,11.63967 -2.08363,15.43831 -0.48473,3.79863 -1.25485,9.53664 -1.71139,12.75112 -0.45652,3.21447 -1.17543,8.88196 -1.59757,12.59441 -0.42212,3.71245 -1.32956,11.13763 -2.01653,16.50041 -0.68697,5.36278 -1.56764,12.67567 -1.95706,16.25086 -1.80759,16.59545 -3.64672,26.40763 -4.94962,26.40763 -0.32067,0 -10.22595,7.01525 -22.01174,15.58943 -11.78577,8.57419 -28.9244,20.98893 -38.08582,27.5883 -9.16141,6.59937 -17.04005,12.32685 -17.50808,12.72772 -1.47099,1.25994 -27.46857,19.99904 -30.02566,21.64254 -1.3407,0.86163 -2.84988,1.95672 -3.35374,2.43333 -0.50387,0.4767 -1.73702,1.41518 -2.74033,2.08547 -1.00331,0.6704 -2.2519,1.5845 -2.77464,2.0314 -0.52274,0.4469 -1.52358,1.1781 -2.22408,1.6251 -2.53289,1.6158 -6.0806,4.1112 -11.81829,8.3125 -3.21623,2.355 -6.0654,4.2819 -6.3315,4.2819 -0.2661,0 -0.92544,0.3724 -1.4652,0.8275 -4.03714,3.4046 -5.09145,4.0477 -6.63565,4.0477 -0.96204,0 -2.86394,-0.8227 -4.22643,-1.8282 z m 7.29336,-12.9262 c 0.97613,-0.5177 4.35396,-2.8029 7.50627,-5.0784 3.15231,-2.27544 6.30264,-4.50285 7.00073,-4.9497 0.69809,-0.44694 4.15206,-2.985 7.67548,-5.64022 3.52343,-2.65513 8.23444,-6.15791 10.46893,-7.78378 2.2345,-1.62591 7.53634,-5.50231 11.78188,-8.61422 4.24553,-3.1119 13.20381,-9.64544 19.90729,-14.51896 6.70348,-4.87353 13.83354,-10.18861 15.84459,-11.81131 2.01103,-1.62269 9.32392,-7.10885 16.25084,-12.19145 6.92693,-5.0826 13.10278,-9.74081 13.7241,-10.35158 0.62133,-0.61075 2.07222,-1.72516 3.2242,-2.47645 1.15198,-0.75129 6.09684,-4.36671 10.9886,-8.03428 9.57218,-7.1767 11.0118,-9.26877 11.06703,-16.0829 0.0145,-1.78759 0.56845,-5.80953 1.23104,-8.93766 0.66259,-3.12812 1.20471,-7.33317 1.20471,-9.34454 0,-2.01138 0.54212,-6.21642 1.20471,-9.34454 0.66258,-3.12813 1.21105,-7.29048 1.21881,-9.24967 0.008,-1.9592 0.35413,-4.88435 0.76972,-6.50034 0.72955,-2.83676 2.11832,-12.69612 3.33244,-23.65801 0.61746,-5.57487 2.00341,-16.36659 3.23493,-25.18882 1.73301,-12.41481 2.6353,-19.46913 3.22176,-25.18882 0.34367,-3.35175 1.06049,-9.20205 1.59292,-13.00069 0.53244,-3.79863 1.30158,-9.2833 1.70921,-12.18813 0.40763,-2.90484 1.15821,-8.02386 1.66798,-11.3756 0.50976,-3.35174 1.21042,-8.8364 1.55702,-12.18815 0.73162,-7.07516 2.12272,-17.15324 3.25929,-23.61264 0.43722,-2.48484 0.79495,-5.543 0.79495,-6.7959 0,-2.11167 1.25128,-11.51231 3.361,-25.25062 0.4804,-3.12829 1.18881,-8.43013 1.57424,-11.78187 0.38544,-3.35174 1.28439,-10.66462 1.99767,-16.25085 0.71329,-5.58624 1.61588,-12.89912 2.00575,-16.25086 0.38989,-3.35174 1.09769,-7.3714 1.57291,-8.9326 0.47521,-1.56119 0.86402,-4.88471 0.86402,-7.3856 0,-4.16263 -0.18891,-4.63637 -2.23449,-5.60348 -2.24853,-1.06306 -6.65631,-2.2239 -11.17246,-2.9424 -4.68638,-0.74558 -16.30144,-2.84277 -22.34493,-4.03456 -3.35173,-0.66097 -7.92229,-1.53697 -10.15678,-1.94668 -2.23449,-0.4097 -7.17069,-1.33651 -10.96932,-2.05958 -3.79864,-0.72307 -9.64894,-1.83131 -13.00069,-2.46276 -3.35173,-0.63144 -7.191,-1.36508 -8.53169,-1.63031 -7.81552,-1.54613 -15.1992,-2.91227 -19.26902,-3.56519 -2.55379,-0.40971 -4.99843,-0.96443 -5.43253,-1.23273 -0.4341,-0.26828 -3.28084,-0.84979 -6.32608,-1.29223 -3.04523,-0.44243 -8.0963,-1.3153 -11.22459,-1.93969 -15.81348,-3.1563 -19.82987,-3.93454 -23.56374,-4.5658 -2.23449,-0.37778 -6.98787,-1.26871 -10.56305,-1.97984 -11.09568,-2.20702 -16.18798,-3.08805 -17.87594,-3.09275 -1.6322,-0.004 -6.62275,0.8119 -18.68848,3.05741 -3.57519,0.66535 -8.87703,1.58826 -11.78187,2.05087 -2.90484,0.46263 -5.88603,1.02933 -6.62485,1.25932 -0.73884,0.23001 -3.29835,0.77287 -5.6878,1.20636 -2.38946,0.43349 -7.0868,1.33836 -10.43854,2.01082 -3.35174,0.67245 -8.35128,1.54519 -11.11008,1.93942 -2.7588,0.39422 -5.4378,0.97745 -5.95332,1.29606 -0.51552,0.3186 -3.19451,0.90183 -5.95331,1.29605 -2.75881,0.39423 -7.75834,1.27034 -11.11009,1.9469 -3.35173,0.67658 -8.42151,1.59934 -11.26617,2.0506 -2.84466,0.45124 -5.53213,1.04296 -5.97216,1.3149 -0.44002,0.27195 -2.86594,0.78393 -5.39094,1.13772 -2.52499,0.3538 -7.51605,1.25237 -11.09124,1.99684 -3.57519,0.74446 -8.32856,1.6325 -10.56305,1.97342 -4.70668,0.71812 -12.98617,2.25693 -18.369,3.41403 -4.19438,0.90163 -11.972901,2.19779 -18.414061,3.06839 -6.58923,0.89061 -6.99197,1.63256 -5.82628,10.73337 0.53768,4.19771 1.24877,10.55735 1.58021,14.13253 0.75233,8.11517 2.24604,21.08668 3.22806,28.03273 1.29227,9.1404 2.70096,20.49334 3.32711,26.8139 0.68027,6.86678 2.0647,18.11384 3.20057,26.00137 0.92887,6.45001 2.48403,18.87063 3.25559,26.00137 1.789031,16.53413 2.570491,22.70447 3.268711,25.80988 0.42849,1.90573 0.77908,5.07295 0.77908,7.03827 0,1.96532 0.5484,6.43921 1.21867,9.94199 0.67027,3.50277 1.22767,8.01408 1.23868,10.02513 0.011,2.01104 0.40092,5.30183 0.86649,7.31288 0.46557,2.01104 1.17492,6.94724 1.57635,10.96932 1.22841,12.30819 2.33677,21.70363 3.16319,26.81391 0.78104,4.82964 2.03712,14.21138 3.37243,25.18882 0.38052,3.12829 1.2696,10.44118 1.97571,16.25086 0.70613,5.80968 1.63303,13.67102 2.05979,17.46966 0.42676,3.79864 1.15854,7.82072 1.62618,8.93797 0.70617,1.68717 23.37496,18.66752 28.56074,22.44448 l 3.34686,2.43762 31.03036,23.08488 6.45042,5.01579 2.17645,1.45759 1.675,1.0638 c 2.17811,1.3833 46.22107,34.28131 57.13916,41.79133 5.51361,3.7925 5.55108,3.8044 7.97572,2.5186 z m -2.28792,-8.80933 c -0.2762,-0.44686 -0.99791,-0.81249 -1.60382,-0.81249 -1.55119,0 -18.41462,-12.17165 -21.14737,-14.32841 l -4.23889,-3.34547 c -5.43594,-4.2902 -9.16806,-7.38351 -9.16806,-8.82684 0,-0.74883 1.27975,-4.0508 2.8439,-7.33771 1.56414,-3.2869 4.15301,-8.80993 5.75305,-12.2734 6.23095,-13.48763 29.2491,-59.38954 32.29125,-64.39401 13.50771,-22.22067 30.52781,-46.72165 37.48418,-53.95972 2.53774,-2.64049 7.58215,-8.43092 11.20982,-12.86763 5.17463,-6.32868 8.5332,-9.46438 15.5879,-14.55356 10.5777,-7.63064 20.36166,-16.80828 21.1139,-19.80547 0.31984,-1.27434 0.0501,-3.09216 -0.67435,-4.54434 -1.07274,-2.15035 -1.07002,-2.47311 0.0244,-2.89307 0.6775,-0.25999 1.64603,-0.0585 2.15227,0.44773 1.45173,1.45174 3.07509,1.08614 4.77542,-1.07548 2.31078,-2.93769 7.19559,-10.28249 7.19559,-10.8193 0,-0.25507 0.59824,-1.12482 1.32941,-1.93276 1.23309,-1.36254 1.22714,-1.50824 -0.082,-2.01061 -0.77628,-0.29788 -1.64875,-0.20912 -1.93882,0.19726 -0.93727,1.31305 -10.12751,5.39179 -14.37204,6.37846 -6.53169,1.51835 -9.02138,0.36726 -17.70186,-8.18439 -7.58361,-7.47106 -9.04692,-8.28809 -15.58098,-8.69946 -2.23654,-0.1408 -2.45573,0.0811 -2.65696,2.69044 -0.36544,4.73804 -0.97103,6.50034 -2.23377,6.50034 -0.66181,0 -1.20332,-0.36565 -1.20332,-0.81254 0,-0.4469 -0.64333,-0.81255 -1.42963,-0.81255 -1.32734,0 -2.34946,1.16431 -4.63658,5.28153 -3.15416,5.67808 -6.43869,10.18694 -7.23001,9.92505 -0.57355,-0.18981 -1.13372,-3.86332 -1.47887,-9.69816 -0.53683,-9.07548 -2.73129,-17.95402 -5.98062,-24.19689 -0.5815,-1.11725 -1.86536,-3.80103 -2.85303,-5.96395 -1.76336,-3.8617 -6.06281,-7.82153 -10.51804,-9.68723 -1.11725,-0.46787 -3.49394,-1.50403 -5.28154,-2.30259 -1.78759,-0.79855 -4.26147,-1.69728 -5.49751,-1.99717 -2.44672,-0.59363 -5.7372,-4.15111 -4.97711,-5.38096 0.2599,-0.42054 1.5082,-0.53715 2.77399,-0.25913 4.42619,0.97215 13.86856,-4.80419 16.65205,-10.18686 1.7483,-3.38084 3.6718,-3.2187 3.10697,0.26191 -0.98838,6.09074 6.89051,13.5804 18.19488,17.29602 7.64781,2.51375 10.85407,2.4131 20.12438,-0.63172 8.10151,-2.66094 7.21603,-3.70509 -4.75252,-5.60422 -6.14506,-0.97508 -11.09206,-2.75638 -11.09206,-3.994 0,-0.95787 6.9213,-0.97313 12.59441,-0.0278 3.85633,0.64262 6.09407,0.0506 6.09407,-1.61226 0,-0.35167 -2.19709,-3.32346 -4.88243,-6.60399 -6.16383,-7.53001 -5.92834,-7.20599 -7.00837,-9.64306 -1.53161,-3.45601 -5.30041,-7.39043 -10.01955,-10.45983 l -4.49729,-2.92506 -14.60219,0.11105 c -14.11287,0.10732 -26.21713,1.1982 -32.11901,2.89467 -5.86951,1.68716 -13.24115,5.84383 -16.9614,9.56407 -3.05172,3.05174 -4.07543,4.79712 -4.94873,8.43743 -1.27272,5.30529 -0.95164,6.3698 3.90462,12.94543 4.92231,6.66507 5.41341,8.75559 4.31861,18.38343 -1.64854,14.49766 -1.34189,17.6587 3.19958,32.98089 1.12432,3.79327 2.27223,1.05111 -12.92547,30.87662 -11.71748,22.99557 -17.99963,34.82761 -24.26333,45.69848 -2.37963,4.12992 -4.32661,7.68785 -4.32661,7.90651 0,0.21865 -1.22764,2.32427 -2.72809,4.67917 -1.50045,2.3549 -4.11621,6.84114 -5.81277,9.96943 -1.69658,3.12829 -3.68616,6.60191 -4.42128,7.71916 -0.73512,1.11724 -1.73151,2.94546 -2.2142,4.06271 -0.48268,1.11724 -2.53117,4.26857 -4.5522,7.00294 -2.93326,3.96859 -4.7283,5.48493 -8.8975,7.51602 -2.8726,1.39944 -5.76075,2.54444 -6.41813,2.54444 -0.65737,0 -1.54259,0.30615 -1.96714,0.68032 -0.42456,0.37418 -3.8799,1.77679 -7.67853,3.11692 -17.47834,6.16619 -17.82421,6.15637 -14.95928,-0.42427 3.63496,-8.34937 9.79386,-17.56011 20.9999,-31.4057 16.44742,-20.32156 37.89276,-49.02634 50.08167,-67.03477 2.87358,-4.24553 5.42158,-7.90197 5.66224,-8.12542 1.14344,-1.06168 7.28159,-10.64319 7.28159,-11.36641 0,-0.45195 0.32733,-0.82174 0.72739,-0.82174 0.40005,0 1.67671,-1.81555 2.837,-4.03456 3.76575,-7.20186 0.15074,-3.68803 -8.40934,8.17398 -4.48565,6.21592 -8.15573,11.54461 -8.15573,11.84153 0,0.29692 -0.56754,1.11899 -1.2612,1.82683 -0.69365,0.70784 -5.31004,6.95447 -10.25863,13.88139 -4.9486,6.92693 -9.77431,13.58802 -10.7238,14.80242 -0.94951,1.21442 -2.7543,3.5911 -4.01065,5.28153 -19.21955,25.86014 -49.02429,59.54523 -52.68591,59.54523 -1.15672,0 -2.49398,-7.01649 -4.02639,-21.12611 -0.36401,-3.35174 -1.21518,-10.11615 -1.89146,-15.03204 -0.6763,-4.91588 -1.6081,-12.41159 -2.07068,-16.65712 -0.4626,-4.24554 -1.05405,-8.63327 -1.31436,-9.75051 -0.26031,-1.11725 -0.80822,-5.13934 -1.21759,-8.93797 -0.40936,-3.79864 -1.28999,-11.11153 -1.95693,-16.25085 -0.66695,-5.13934 -1.57442,-12.63504 -2.0166,-16.65713 -0.44218,-4.02209 -1.0138,-7.8604 -1.27027,-8.52959 -0.25646,-0.66919 -0.80813,-4.69129 -1.22591,-8.93797 -0.4178,-4.24669 -1.32,-12.109 -2.00492,-17.47178 -0.68491,-5.36278 -1.59988,-12.85848 -2.03326,-16.65712 -0.43339,-3.79864 -0.99539,-7.45507 -1.24888,-8.12542 -0.25349,-0.67035 -0.79232,-4.50962 -1.1974,-8.5317 -0.40508,-4.02209 -1.28889,-11.33497 -1.96403,-16.25085 -0.67513,-4.91589 -1.602621,-12.72725 -2.061061,-17.35858 -0.45845,-4.63132 -1.03321,-8.74365 -1.27724,-9.13849 -0.24403,-0.39484 -0.7949,-4.46693 -1.22417,-9.04907 -0.42926,-4.58214 -1.34626,-12.71889 -2.03777,-18.08168 -1.74623,-13.54217 -2.37606,-29.40144 -1.22283,-30.791 0.50029,-0.60282 2.45775,-1.31726 4.34991,-1.58766 1.89217,-0.2704 6.182641,-1.06767 9.534371,-1.77171 3.35174,-0.70404 8.39426,-1.61426 11.20562,-2.02273 2.81135,-0.40846 5.49034,-0.97677 5.95331,-1.2629 0.46298,-0.28614 3.09898,-0.84853 5.85778,-1.24977 2.75881,-0.40123 7.94117,-1.29605 11.51636,-1.98849 3.57518,-0.69243 8.51138,-1.56605 10.96932,-1.94136 2.45794,-0.37533 5.4983,-1.08698 6.75637,-1.58145 1.25806,-0.49447 3.48877,-0.89904 4.95715,-0.89904 1.46836,0 3.72982,-0.33363 5.02549,-0.7414 1.29565,-0.40777 6.01219,-1.35435 10.48117,-2.10349 4.46898,-0.74914 9.77082,-1.72482 11.78186,-2.16817 2.01105,-0.44336 5.48467,-1.10121 7.71916,-1.4619 2.2345,-0.36069 7.17069,-1.28177 10.96933,-2.04685 3.79864,-0.76507 8.84491,-1.69114 11.21394,-2.05796 2.36903,-0.3668 6.02546,-1.04369 8.12542,-1.50418 6.67551,-1.46384 18.25192,-3.2786 24.13167,-3.78296 6.40856,-0.54972 13.9732,0.40272 38.59578,4.85949 3.79863,0.68757 9.64894,1.81517 13.00067,2.50578 3.35175,0.69061 7.92229,1.54817 10.15679,1.90569 5.20516,0.83282 13.81683,2.48995 17.46967,3.36163 3.84143,0.91669 11.59578,2.3485 17.18531,3.1732 2.52499,0.37255 4.96962,0.91142 5.43252,1.19751 0.4629,0.28608 3.3332,0.88215 6.37843,1.32459 3.04524,0.44244 8.27913,1.3733 11.63087,2.06859 3.35173,0.69528 8.47075,1.60239 11.37559,2.0158 2.90485,0.4134 5.82999,0.99278 6.50034,1.28748 0.67035,0.29472 3.04704,0.80153 5.28153,1.12624 5.52688,0.80316 17.32838,3.06136 20.31357,3.88697 4.03699,1.11652 4.58756,3.24767 4.02838,15.59292 -0.27328,6.03313 -0.86297,13.1632 -1.31044,15.84459 -0.44746,2.68139 -1.10286,7.25194 -1.45642,10.15678 -0.35357,2.90484 -1.07072,8.20668 -1.59367,11.78187 -0.99068,6.77277 -1.56252,11.34576 -3.70866,29.65781 -0.70708,6.03312 -1.82396,13.94267 -2.48198,17.57675 -0.65801,3.63408 -1.19636,7.92516 -1.19636,9.53571 0,1.61056 -0.34525,4.48753 -0.76721,6.39326 -1.36925,6.18398 -3.30052,18.78247 -3.64511,23.77853 -0.49132,7.1235 -2.61098,24.7726 -4.09862,34.1268 -1.52947,9.61721 -1.59861,10.17082 -3.29789,26.40763 -0.72494,6.92693 -1.64854,13.87417 -2.05242,15.43831 -0.84627,3.27737 -2.35201,14.53397 -3.20634,23.97001 -0.77548,8.56517 -2.86627,23.31569 -6.23935,44.01879 -0.50924,3.12555 -6.67064,9.25299 -16.10138,16.01265 -7.9959,5.73119 -11.45161,8.27533 -32.13806,23.66045 -9.01334,6.70347 -17.40975,12.91943 -18.65869,13.81323 -7.83172,5.60467 -48.0218,35.25488 -50.36482,37.15654 -1.56414,1.26954 -3.28552,2.66122 -3.82528,3.09255 -0.53976,0.43141 -1.29872,0.78435 -1.68658,0.78435 -0.38786,0 -1.56396,0.91403 -2.61356,2.03134 -2.00695,2.13632 -3.6286,2.57854 -4.46898,1.21877 z m -31.28289,-231.6728 c 0,-0.89517 -0.57032,-3.52451 -1.26739,-5.84297 -0.69706,-2.31847 -1.59837,-5.49514 -2.0029,-7.05929 -0.40455,-1.56414 -0.95579,-3.6666 -1.225,-4.67212 -0.26922,-1.00552 -0.86576,-1.82822 -1.32568,-1.82822 -1.48509,0 0.8195,14.82457 2.57796,16.58303 0.44296,0.44296 0.80538,1.58542 0.80538,2.5388 0,0.9534 0.23383,1.96725 0.51961,2.25304 0.85704,0.85705 1.91802,-0.23393 1.91802,-1.97227 z m 127.06279,-5.58938 c 3.05903,-1.78759 5.88697,-3.25016 6.28431,-3.25016 0.39734,0 0.72244,-0.36565 0.72244,-0.81255 0,-0.44689 0.35074,-0.81254 0.77942,-0.81254 0.42869,0 2.43973,-1.00286 4.46899,-2.22858 4.10597,-2.4801 4.4765,-3.81495 2.42314,-8.72934 -1.45915,-3.49223 -1.00168,-4.46032 1.39917,-2.96097 1.13293,0.70752 1.95226,0.78329 2.504,0.23156 0.45104,-0.45104 1.14487,-5.81292 1.54183,-11.91529 l 0.72177,-11.09521 -2.60084,-3.79287 c -1.43046,-2.08608 -3.85178,-5.6211 -5.38071,-7.85559 -3.33281,-4.87083 -7.48186,-12.91348 -7.48186,-14.50311 0,-0.62837 -0.54846,-1.59767 -1.21881,-2.15401 -0.67035,-0.55635 -1.21882,-1.58307 -1.21882,-2.28161 0,-1.96758 -3.31822,-5.03128 -5.44926,-5.03128 -1.0537,0 -3.11128,-0.49949 -4.57239,-1.10999 -3.08577,-1.28932 -4.60412,-5.11366 -4.60412,-11.5967 0,-3.23016 -0.46225,-4.54724 -2.43664,-6.9425 -3.69595,-4.48383 -8.76755,-6.61866 -14.70356,-6.18929 -6.4963,0.46989 -8.38536,2.28731 -8.48985,8.16785 -0.0752,4.23576 -2.30482,9.42595 -6.14786,14.31158 -1.82298,2.31754 -1.90965,3.59211 -0.4409,6.48386 0.60248,1.18619 1.77886,3.6193 2.61416,5.40689 2.7789,5.94696 13.54963,20.49905 15.81924,21.37304 0.82262,0.31678 9.7227,-7.93927 9.7227,-9.01915 0,-0.44759 -1.64539,-2.81244 -3.65644,-5.25523 -2.01104,-2.4428 -3.65644,-4.76509 -3.65644,-5.16064 0,-1.18583 1.90188,-0.78256 4.03301,0.85513 1.77773,1.36612 2.2443,1.41272 4.17065,0.41656 1.19294,-0.61689 2.40161,-2.0485 2.68594,-3.18134 0.28433,-1.13285 1.07662,-2.05972 1.76064,-2.05972 1.03918,0 1.15844,0.83504 0.7253,5.07839 -0.78824,7.72206 -2.41907,10.79642 -10.02126,18.89162 -6.86837,7.31377 -13.02454,12.43685 -20.02853,16.66746 -4.34644,2.62537 -6.88949,4.67557 -6.88949,5.55429 0,1.48258 7.8612,9.48914 11.55015,11.7637 2.87099,1.77023 9.03876,1.74264 12.29449,-0.055 6.07073,-3.35193 22.47029,-18.28053 22.47029,-20.45482 0,-0.42649 -0.37587,-1.76407 -0.83528,-2.97238 -1.07477,-2.82688 -0.51418,-3.32281 1.93905,-1.7154 1.8081,1.18472 2.06595,1.17719 3.19163,-0.0931 0.67355,-0.76005 1.35379,-2.0829 1.51165,-2.93966 0.15786,-0.85677 0.74408,-1.70994 1.3027,-1.89594 0.73193,-0.2437 1.01568,0.93373 1.01568,4.21467 0,5.11491 -2.71199,10.52056 -5.92106,11.80207 -3.48497,1.39171 -24.95556,20.17422 -24.95556,21.83118 0,0.44043 1.86777,2.48006 4.15059,4.53252 3.89858,3.50515 4.42972,3.73174 8.74773,3.73174 3.89466,0 5.44704,-0.49666 10.15901,-3.25017 z m 7.81929,-45.50238 c 0,-0.4469 0.36564,-0.81255 0.81254,-0.81255 0.44691,0 0.81254,0.36565 0.81254,0.81255 0,0.44689 -0.36563,0.81254 -0.81254,0.81254 -0.4469,0 -0.81254,-0.36565 -0.81254,-0.81254 z m -52.79306,-39.28274 c 2.1474,-4.04789 1.79659,-5.82404 -1.42136,-7.19634 -3.27813,-1.39797 -5.10119,-3.12662 -5.10119,-4.83704 0,-1.80833 2.08927,-1.96358 3.77252,-0.28035 1.50323,1.50324 4.2613,1.59046 4.81321,0.15221 0.55284,-1.44069 -3.96326,-10.935 -6.74816,-14.18687 -1.71552,-2.00315 -3.5319,-2.9509 -7.71428,-4.02514 l -5.47043,-1.40507 -5.38946,2.82582 c -7.78176,4.08018 -12.26875,8.33154 -15.14219,14.34706 -2.23055,4.66961 -2.68372,5.13836 -4.99141,5.16293 -2.46362,0.0262 -4.60882,1.34687 -6.90346,4.24992 -1.85972,2.35281 0.1752,3.84848 5.23602,3.84848 3.95322,0 4.50769,-0.2354 6.40086,-2.71746 1.13999,-1.49461 2.0727,-3.08383 2.0727,-3.53161 0,-2.27751 4.37282,-9.18924 5.81373,-9.18924 0.96435,0 0.86076,3.05589 -0.11476,3.38559 -0.44077,0.14896 -1.0298,1.94098 -1.30896,3.98224 -0.7801,5.70418 0.40553,6.44539 10.30995,6.44539 7.09862,0 8.45427,0.23403 11.12634,1.92084 1.67356,1.05647 3.53928,2.51904 4.14606,3.25017 2.05131,2.47167 4.58199,1.62936 6.61427,-2.20153 z m -56.08765,186.77754 c 0,-0.33598 2.19333,-4.46484 6.26848,-11.80019 0.62068,-1.11724 2.03639,-3.49393 3.14601,-5.28152 1.10963,-1.78759 2.57521,-4.3471 3.25684,-5.6878 3.46958,-6.82426 9.9265,-15.84021 11.8552,-16.55368 2.21416,-0.81907 6.35009,-0.15039 6.35009,1.02665 0,0.52011 -1.00552,1.84978 -2.2345,2.95482 -4.0663,3.65624 -10.85052,12.42643 -23.08189,29.83874 -3.53728,5.0356 -5.56023,7.03772 -5.56023,5.50298 z m -13.00069,-34.88994 c 0,-0.6331 0.27424,-1.27298 0.60941,-1.42195 0.33518,-0.14896 1.82964,-2.64753 3.32102,-5.55237 3.02515,-5.8922 5.60864,-9.42027 6.35304,-8.67586 0.44867,0.44866 -0.73634,3.18798 -3.23303,7.47358 -4.39056,7.53648 -5.59502,9.32771 -6.27214,9.32771 -0.42806,0 -0.7783,-0.518 -0.7783,-1.15111 z"
       id="path4714"
       inkscape:connector-curvature="0"
       sodipodi:nodetypes="csccccccccccssssscsssscssssssssssssssssssssssssssssssscssssscsssscssssssssssssssssssscccccsssscccccsssssssssssscsssssssssssssssssssssssscsssscsssssscsssssssssssssssssscssssssssccccssccssssssssssssscsssccssssssssssssssscsssssssssssscsssssssssssssssssssssssssssssssssssssssssssscssssssssssssssssssssssssssssscsssssssssssssssssssssssccsccssssssssscsssssssscsssssssssscssssssssssssssssssssssssssssccsssssssssssscsssssssssssssssssssssssscscsss" />
  </g>
</svg>
