<?xml version="1.0" encoding="UTF-8" standalone="no"?>
<!-- Created with Inkscape (http://www.inkscape.org/) -->

<svg
   xmlns:dc="http://purl.org/dc/elements/1.1/"
   xmlns:cc="http://creativecommons.org/ns#"
   xmlns:rdf="http://www.w3.org/1999/02/22-rdf-syntax-ns#"
   xmlns:svg="http://www.w3.org/2000/svg"
   xmlns="http://www.w3.org/2000/svg"
   xmlns:sodipodi="http://sodipodi.sourceforge.net/DTD/sodipodi-0.dtd"
   xmlns:inkscape="http://www.inkscape.org/namespaces/inkscape"
   id="svg2"
   version="1.1"
   inkscape:version="0.48.5 r10040"
   width="512"
   height="512"
   viewBox="0 0 512 512"
   sodipodi:docname="steam_icon_440.svg">
  <metadata
     id="metadata8">
    <rdf:RDF>
      <cc:Work
         rdf:about="">
        <dc:format>image/svg+xml</dc:format>
        <dc:type
           rdf:resource="http://purl.org/dc/dcmitype/StillImage" />
        <dc:title />
      </cc:Work>
    </rdf:RDF>
  </metadata>
  <defs
     id="defs6" />
  <sodipodi:namedview
     pagecolor="#ffffff"
     bordercolor="#666666"
     borderopacity="1"
     objecttolerance="10"
     gridtolerance="10"
     guidetolerance="10"
     inkscape:pageopacity="0"
     inkscape:pageshadow="2"
     inkscape:window-width="1920"
     inkscape:window-height="1007"
     id="namedview4"
     showgrid="false"
     inkscape:zoom="1.1960049"
     inkscape:cx="-95.169062"
     inkscape:cy="312.24136"
     inkscape:window-x="0"
     inkscape:window-y="31"
     inkscape:window-maximized="1"
     inkscape:current-layer="svg2" />
  <path
     style="opacity:1;fill:none;fill-opacity:1;stroke:#000000;stroke-width:4;stroke-miterlimit:4;stroke-dasharray:none;stroke-opacity:1"
     d="M 256,31 C 380.65,31 481,131.35 481,256 481,380.65 380.65,481 256,481 131.35,481 31,380.65 31,256 31,131.35 131.35,31 256,31 Z"
     id="rect4134" />
  <path
     style="opacity:1;fill:#000000;fill-opacity:1;stroke:none;stroke-width:0.50000000000000000;stroke-miterlimit:4;stroke-dasharray:none;stroke-opacity:1"
     d="m 263.03382,60.863042 c -3.14972,0.0054 -7.0922,0.08627 -12.00679,0.225677 -30.56287,0.866954 -51.54854,5.996642 -78.62616,19.21754 -32.06681,15.656924 -57.56292,38.143751 -76.712156,67.662151 -6.149652,9.47965 -18.253173,33.70542 -18.254443,36.53823 -4.05e-4,0.92182 0.981458,1.99503 2.181145,2.38322 4.559042,1.47522 116.646264,27.09083 119.027894,27.20184 1.88688,0.088 3.6345,-1.22081 7.11973,-5.33649 8.4137,-9.93567 20.94352,-17.62016 34.31438,-21.04436 5.64565,-1.44578 6.4061,-1.94102 7.28956,-4.74115 1.43516,-4.54875 27.42746,-117.963158 27.42746,-119.676742 0,-1.785014 -2.31148,-2.446461 -11.76062,-2.429916 z m 61.01861,12.474475 c -0.50517,0.04207 -0.98907,0.175446 -1.32815,0.389098 -1.15879,0.730135 -28.29127,116.648425 -28.3587,121.157265 -0.0201,1.33767 2.08164,3.96782 5.82784,7.28975 9.89041,8.77022 16.96402,20.26865 20.54246,33.39625 0.88798,3.25761 2.23689,6.31004 2.99596,6.78198 2.25329,1.40095 116.4077,27.44401 119.60037,27.28548 l 2.93109,-0.1459 0.63355,-7.96873 c 0.85452,-10.73826 -0.65624,-32.79428 -3.15053,-45.99136 -5.5049,-29.12586 -20.21498,-60.78403 -39.02971,-83.99843 -12.20002,-15.0529 -30.83309,-31.52315 -47.36308,-41.868861 -5.94078,-3.718187 -27.37896,-14.604656 -31.84127,-16.168958 -0.4274,-0.149813 -0.95465,-0.199649 -1.45983,-0.157584 z M 67.247963,233.96097 l 0,0.002 c -0.569742,-0.009 -0.849043,0.0641 -0.973213,0.19065 -1.548943,1.57917 -1.921084,22.47287 -0.625911,35.18027 6.754915,66.27475 45.263131,122.98247 103.662561,152.66448 15.39804,7.82618 19.75688,9.36626 20.95081,7.39674 0.76589,-1.2634 27.86446,-118.48696 27.86446,-120.53666 0,-0.86415 -2.6273,-3.92869 -5.83929,-6.81116 -10.00233,-8.97616 -17.66813,-21.60526 -20.4871,-33.75228 -0.66119,-2.84907 -1.77543,-5.66508 -2.47693,-6.25864 -0.70149,-0.59355 -10.00568,-3.09929 -20.67603,-5.56992 C 89.475314,238.13468 71.236161,234.02353 67.247963,233.96097 Z M 313.97299,290.1856 c -1.84133,-0.004 -3.79014,1.63214 -9.95159,7.88505 -9.26515,9.4027 -19.30088,15.42897 -30.4406,18.28177 -3.60168,0.92236 -6.9418,2.18733 -7.42125,2.80929 -0.86105,1.11697 -27.23132,115.34517 -27.74041,120.16313 -0.2328,2.20324 0.18703,2.55936 3.64477,3.09526 6.49384,1.00648 19.89628,0.94732 31.12378,-0.13812 29.19588,-2.82261 58.63486,-12.58245 83.04759,-27.53452 22.90902,-14.03108 44.87629,-35.50367 60.06639,-58.70901 9.16422,-13.9998 19.5442,-35.8089 17.85944,-37.52653 -0.66599,-0.67897 -90.70008,-21.96954 -119.39237,-28.23294 -0.27057,-0.0589 -0.53271,-0.0927 -0.79575,-0.0934 z"
     id="rect4163-6"
     inkscape:connector-curvature="0" />
</svg>
