<?xml version="1.0" encoding="UTF-8" standalone="no"?>
<!-- Created with Inkscape (http://www.inkscape.org/) -->

<svg
   xmlns:dc="http://purl.org/dc/elements/1.1/"
   xmlns:cc="http://creativecommons.org/ns#"
   xmlns:rdf="http://www.w3.org/1999/02/22-rdf-syntax-ns#"
   xmlns:svg="http://www.w3.org/2000/svg"
   xmlns="http://www.w3.org/2000/svg"
   xmlns:sodipodi="http://sodipodi.sourceforge.net/DTD/sodipodi-0.dtd"
   xmlns:inkscape="http://www.inkscape.org/namespaces/inkscape"
   width="512"
   height="512"
   id="svg2"
   version="1.1"
   inkscape:version="0.48.5 r10040"
   viewBox="0 0 144.49777 144.49779"
   sodipodi:docname="sublime-text.svg">
  <defs
     id="defs4" />
  <sodipodi:namedview
     id="base"
     pagecolor="#ffffff"
     bordercolor="#666666"
     borderopacity="1.0"
     inkscape:pageopacity="0"
     inkscape:pageshadow="2"
     inkscape:zoom="0.66291261"
     inkscape:cx="-368.62515"
     inkscape:cy="399.84756"
     inkscape:document-units="px"
     inkscape:current-layer="layer1"
     showgrid="false"
     inkscape:showpageshadow="false"
     borderlayer="true"
     units="px"
     fit-margin-top="0"
     fit-margin-left="0"
     fit-margin-right="0"
     fit-margin-bottom="0"
     showguides="false"
     inkscape:window-width="1920"
     inkscape:window-height="1007"
     inkscape:window-x="0"
     inkscape:window-y="31"
     inkscape:window-maximized="1">
    <sodipodi:guide
       position="-6.6748425e-06,47.999999"
       orientation="47.999977,0"
       id="guide4120" />
    <sodipodi:guide
       position="-6.6748425e-06,2.2810037e-05"
       orientation="0,48.000004"
       id="guide4122" />
    <sodipodi:guide
       position="47.999997,2.2810037e-05"
       orientation="-47.999977,0"
       id="guide4124" />
    <sodipodi:guide
       position="47.999997,47.999999"
       orientation="0,-48.000004"
       id="guide4126" />
    <sodipodi:guide
       position="3.9999733,44.000154"
       orientation="39.999962,0"
       id="guide4138" />
    <sodipodi:guide
       position="3.9999733,4.0001921"
       orientation="0,40.000003"
       id="guide4140" />
    <sodipodi:guide
       position="43.999976,4.0001921"
       orientation="-39.999962,0"
       id="guide4142" />
    <sodipodi:guide
       position="43.999976,44.000154"
       orientation="0,-40.000003"
       id="guide4144" />
    <sodipodi:guide
       position="6.9999922,47.999999"
       orientation="39.999962,0"
       id="guide4148" />
    <sodipodi:guide
       position="6.9999922,8.0000369"
       orientation="0,34.000006"
       id="guide4150" />
    <sodipodi:guide
       position="40.999998,8.0000369"
       orientation="-39.999962,0"
       id="guide4152" />
    <sodipodi:guide
       position="40.999998,47.999999"
       orientation="0,-34.000006"
       id="guide4154" />
    <sodipodi:guide
       position="14.999993,32.999986"
       orientation="17.999951,0"
       id="guide4158" />
    <sodipodi:guide
       position="14.999993,15.000036"
       orientation="0,17.999998"
       id="guide4160" />
    <sodipodi:guide
       position="32.999991,15.000036"
       orientation="-17.999951,0"
       id="guide4162" />
    <sodipodi:guide
       position="32.999991,32.999986"
       orientation="0,-17.999998"
       id="guide4164" />
    <sodipodi:guide
       position="1.9999969,44.000046"
       orientation="39.999962,0"
       id="guide3279" />
    <sodipodi:guide
       position="1.9999969,4.0000839"
       orientation="0,44.000003"
       id="guide3281" />
    <sodipodi:guide
       position="46,4.0000839"
       orientation="-39.999962,0"
       id="guide3283" />
    <sodipodi:guide
       position="46,44.000046"
       orientation="0,-44.000003"
       id="guide3285" />
  </sodipodi:namedview>
  <metadata
     id="metadata7">
    <rdf:RDF>
      <cc:Work
         rdf:about="">
        <dc:format>image/svg+xml</dc:format>
        <dc:type
           rdf:resource="http://purl.org/dc/dcmitype/StillImage" />
        <dc:title />
      </cc:Work>
    </rdf:RDF>
  </metadata>
  <g
     inkscape:label="Capa 1"
     inkscape:groupmode="layer"
     id="layer1"
     transform="translate(38.119153,-266.89382)">
    <path
       style="fill:none;fill-opacity:1;stroke:#000000;stroke-opacity:1;stroke-width:9.03111188;stroke-miterlimit:4;stroke-dasharray:none"
       d="m -22.013683,275.6427 112.286831,0 c 4.07555,0 7.356588,3.28104 7.356588,7.35659 l 0,112.28683 c 0,4.07555 -3.281038,8.48548 -7.356588,8.48548 l -112.286831,0 c -4.07555,0 -7.356589,-4.40993 -7.356589,-8.48548 l 0,-112.28683 c 0,-4.07555 3.281039,-7.35659 7.356589,-7.35659 z"
       id="rect4118"
       inkscape:connector-curvature="0"
       sodipodi:nodetypes="sssssssss" />
    <rect
       ry="6.4399314"
       y="289.03818"
       x="-14.846013"
       height="101.29977"
       width="99.171135"
       id="rect4120"
       style="fill:none;stroke:#000000;stroke-width:4.51555594;stroke-miterlimit:4;stroke-opacity:1;stroke-dasharray:none"
       rx="6.3046064" />
    <path
       inkscape:connector-curvature="0"
       id="path4127"
       style="font-size:7.12482548px;font-style:normal;font-variant:normal;font-weight:bold;font-stretch:normal;line-height:125%;letter-spacing:0px;word-spacing:0px;fill:#000000;fill-opacity:1;stroke:#000000;stroke-width:1.12888896;stroke-miterlimit:4;stroke-opacity:1;stroke-dasharray:none;font-family:Code Bold;-inkscape-font-specification:'Code Bold, Bold'"
       d="m 53.166261,321.36507 -8.015422,0.32062 q -0.801601,-3.52682 -4.168018,-5.37044 -3.286324,-1.84351 -7.294041,-1.7633 -6.973422,0.16089 -10.179595,4.24812 -1.603083,2.08411 -1.362622,5.21014 0.0799,1.68319 0.961899,2.8855 0.881698,1.20231 1.923713,1.92361 1.041973,0.7211 2.965697,1.20242 1.923713,0.48039 3.206174,0.6412 1.362622,0.16088 3.687097,0.40049 3.446645,0.40052 6.011569,1.04172 2.645094,0.6412 5.610807,1.9238 3.045856,1.20231 4.969562,3.52671 2.00386,2.24441 2.805403,5.45054 0.400701,2.00389 0.400701,3.68713 0,7.69484 -6.33218,12.42397 -6.332192,4.64902 -14.507923,4.64902 -4.488649,0 -8.816976,-1.60321 -4.328336,-1.68324 -7.614664,-5.20994 -3.286324,-3.60704 -3.767256,-8.33605 l -0.07991,-1.52311 8.175731,-0.15974 0.07991,1.20231 0,-0.32062 q 0.400697,3.68713 4.087867,5.85133 3.687102,2.08399 8.015422,2.08399 4.889415,0 8.736825,-2.48478 3.847408,-2.56492 3.847408,-6.65273 0,-0.80201 -0.240407,-1.92384 -0.32058,-1.52289 -1.442769,-2.56488 -1.122186,-1.04173 -3.126027,-1.60314 -1.923694,-0.5613 -3.526788,-0.80098 -1.603071,-0.32062 -4.248177,-0.56133 -3.126014,-0.32062 -5.450486,-0.72111 -2.244324,-0.40048 -5.04972,-1.36257 -2.725245,-1.04173 -4.568796,-2.48483 -1.843543,-1.52293 -3.206165,-4.00771 -1.362627,-2.56481 -1.603083,-5.93143 l 0,0.0799 q -0.480905,-6.01153 3.045856,-10.66048 2.725241,-3.5269 7.294041,-5.4505 4.648946,-2.00393 9.698667,-2.00393 7.133731,0 12.584228,3.76722 5.450486,3.76731 6.492486,10.98126 z" />
  </g>
</svg>
