<?xml version="1.0" encoding="UTF-8" standalone="no"?>
<!-- Created with Inkscape (http://www.inkscape.org/) -->

<svg
   xmlns:dc="http://purl.org/dc/elements/1.1/"
   xmlns:cc="http://creativecommons.org/ns#"
   xmlns:rdf="http://www.w3.org/1999/02/22-rdf-syntax-ns#"
   xmlns:svg="http://www.w3.org/2000/svg"
   xmlns="http://www.w3.org/2000/svg"
   xmlns:sodipodi="http://sodipodi.sourceforge.net/DTD/sodipodi-0.dtd"
   xmlns:inkscape="http://www.inkscape.org/namespaces/inkscape"
   width="512"
   height="512"
   viewBox="0 0 512.00001 512.00001"
   id="svg4140"
   version="1.1"
   inkscape:version="0.48.5 r10040"
   sodipodi:docname="synapse.svg">
  <defs
     id="defs4142">
    <linearGradient
       id="linearGradient4168"
       y2="-24"
       gradientUnits="userSpaceOnUse"
       x2="-1008.4"
       gradientTransform="matrix(0,-11.249,-11.249,0,51.740916,-10749.805)"
       y1="-24"
       x1="-1028.4">
      <stop
         id="stop4164"
         offset="0" />
      <stop
         id="stop4166"
         stop-opacity="0"
         offset="1" />
    </linearGradient>
  </defs>
  <sodipodi:namedview
     id="base"
     pagecolor="#ffffff"
     bordercolor="#666666"
     borderopacity="1.0"
     inkscape:pageopacity="0.0"
     inkscape:pageshadow="2"
     inkscape:zoom="2.5111111"
     inkscape:cx="178.96247"
     inkscape:cy="240.09082"
     inkscape:document-units="px"
     inkscape:current-layer="layer1"
     showgrid="false"
     units="px"
     inkscape:window-width="1916"
     inkscape:window-height="1005"
     inkscape:window-x="0"
     inkscape:window-y="31"
     inkscape:window-maximized="0" />
  <metadata
     id="metadata4145">
    <rdf:RDF>
      <cc:Work
         rdf:about="">
        <dc:format>image/svg+xml</dc:format>
        <dc:type
           rdf:resource="http://purl.org/dc/dcmitype/StillImage" />
        <dc:title />
      </cc:Work>
    </rdf:RDF>
  </metadata>
  <g
     inkscape:label="Capa 1"
     inkscape:groupmode="layer"
     id="layer1"
     transform="translate(0,-540.36212)">
    <rect
       style="fill:none;fill-opacity:1;stroke:#000000;stroke-opacity:1;stroke-width:8.00000016;stroke-miterlimit:4;stroke-dasharray:none"
       x="-1021.3621"
       y="-481"
       width="450"
       height="450"
       ry="225"
       rx="225"
       transform="matrix(0,-1,-1,0,0,0)"
       id="rect4203-4" />
    <path
       style="opacity:1;fill:#000000;fill-opacity:1"
       inkscape:connector-curvature="0"
       d="m 241.50026,650.53402 0,32.91232 c -47.62826,5.80449 -86.2562,39.99132 -97.98891,84.76234 l 30.10007,0 c 12.35141,-32.34087 45.10399,-57.55776 80.80832,-57.29903 l 2.59244,0 c 13.00385,0.11249 25.75347,3.25096 37.30619,8.92046 20.83315,9.22418 36.2949,27.42056 43.80923,48.42244 l 30.3633,0 c -11.73271,-44.77102 -50.36065,-78.9691 -97.98891,-84.76234 l 0,-32.91232 -29.00105,0 z m 14.49996,83.2426 c -35.3331,0 -63.93481,28.03026 -63.93481,62.87966 0,0 -0.43871,5.88548 1.40612,12.56738 l 98.2094,0 c -2.67726,7.28935 -7.42862,13.83852 -13.88577,18.19188 -14.84868,11.55273 -37.35005,7.33323 -50.00518,-5.58062 l -30.40717,0 c 9.88787,22.19427 32.38475,37.70102 58.61741,37.70102 35.33311,0 63.93482,-28.12025 63.93482,-62.87966 0,0 -0.003,-6.45918 -1.27339,-12.56738 l -98.23076,0 c 5.5345,-13.75753 18.75545,-24.86704 34.07659,-25.00203 l 2.2849,0 c 10.28159,0.22498 20.25945,5.00918 27.20008,12.47851 l 30.62765,0 c -9.88787,-21.3731 -31.55077,-37.75536 -57.73845,-37.75536 z m -112.49,90.73893 c 11.73271,44.77102 50.36065,78.96911 97.98892,84.76234 l 0,32.91233 29.00105,0 0,-32.91233 c 47.62826,-5.84948 86.2562,-39.99132 97.98891,-84.76234 l -29.92459,0 c -11.73271,33.97198 -48.0366,58.5263 -84.6746,57.25516 -35.72682,0.17999 -68.05532,-24.91428 -80.19299,-57.25516 l -30.18782,0 z"
       id="rect4451"
       sodipodi:nodetypes="ccccccccccccccccccccscccccccccccccccccccc" />
  </g>
</svg>
