<?xml version="1.0" encoding="UTF-8" standalone="no"?>
<!-- Created with Inkscape (http://www.inkscape.org/) -->

<svg
   xmlns:dc="http://purl.org/dc/elements/1.1/"
   xmlns:cc="http://creativecommons.org/ns#"
   xmlns:rdf="http://www.w3.org/1999/02/22-rdf-syntax-ns#"
   xmlns:svg="http://www.w3.org/2000/svg"
   xmlns="http://www.w3.org/2000/svg"
   xmlns:sodipodi="http://sodipodi.sourceforge.net/DTD/sodipodi-0.dtd"
   xmlns:inkscape="http://www.inkscape.org/namespaces/inkscape"
   width="512"
   height="512"
   id="svg2"
   version="1.1"
   inkscape:version="0.48.5 r10040"
   viewBox="0 0 144.49777 144.49779"
   sodipodi:docname="synergy.svg">
  <defs
     id="defs4">
    <inkscape:perspective
       sodipodi:type="inkscape:persp3d"
       inkscape:vp_x="0 : 24 : 1"
       inkscape:vp_y="0 : 999.99999 : 0"
       inkscape:vp_z="48 : 24 : 1"
       inkscape:persp3d-origin="24 : 16 : 1"
       id="perspective3173" />
    <filter
       inkscape:collect="always"
       style="color-interpolation-filters:sRGB"
       id="filter4363"
       x="-0.026399999"
       width="1.0528"
       y="-0.026400001"
       height="1.0528">
      <feGaussianBlur
         inkscape:collect="always"
         stdDeviation="3.1195347"
         id="feGaussianBlur4365" />
    </filter>
  </defs>
  <sodipodi:namedview
     id="base"
     pagecolor="#ffffff"
     bordercolor="#666666"
     borderopacity="1.0"
     inkscape:pageopacity="0"
     inkscape:pageshadow="2"
     inkscape:zoom="1.566131"
     inkscape:cx="116.24119"
     inkscape:cy="251.62972"
     inkscape:document-units="px"
     inkscape:current-layer="g3120"
     showgrid="false"
     inkscape:showpageshadow="false"
     borderlayer="true"
     units="px"
     fit-margin-top="0"
     fit-margin-left="0"
     fit-margin-right="0"
     fit-margin-bottom="0"
     showguides="false"
     inkscape:window-width="1916"
     inkscape:window-height="1036"
     inkscape:window-x="1920"
     inkscape:window-y="0"
     inkscape:window-maximized="0" />
  <metadata
     id="metadata7">
    <rdf:RDF>
      <cc:Work
         rdf:about="">
        <dc:format>image/svg+xml</dc:format>
        <dc:type
           rdf:resource="http://purl.org/dc/dcmitype/StillImage" />
        <dc:title />
      </cc:Work>
    </rdf:RDF>
  </metadata>
  <g
     inkscape:label="Capa 1"
     inkscape:groupmode="layer"
     id="layer1"
     transform="translate(38.119153,-266.89382)">
    <g
       id="g3120"
       transform="matrix(0.28222225,0,0,0.28222225,-38.076192,397.93651)">
      <text
         transform="scale(0.99761149,1.0023942)"
         xml:space="preserve"
         style="font-style:normal;font-variant:normal;font-weight:normal;font-stretch:normal;font-size:447.89343262px;line-height:125%;font-family:'DejaVu Sans';-inkscape-font-specification:'DejaVu Sans';letter-spacing:0px;word-spacing:0px;fill:#000000;fill-opacity:1;stroke:none"
         x="-7345.4038"
         y="2712.2629"
         id="text3160"
         sodipodi:linespacing="125%"><tspan
           sodipodi:role="line"
           id="tspan3162"
           x="-7345.4038"
           y="2712.2629" /></text>
      <path
         inkscape:connector-curvature="0"
         id="path3070"
         d="m 431.5372,-247.85961 -48.51367,39.44922 -7.54492,0 c -0.69648,65.80136 -53.91249,119.0329 -119.7168,119.7168 l 0,105.36914 c 124.0109,-0.68728 224.38097,-101.07882 225.08594,-225.08594 l -0.59375,0 -48.7168,-39.44922 z"
         style="fill:#000000;fill-opacity:1;stroke:none" />
      <path
         inkscape:connector-curvature="0"
         id="path3230"
         d="M 30.847745,-208.41039 C 31.552402,-84.41278 131.93567,15.97294 255.93369,16.67555 l 0,-0.25195 39.71289,-49.03907 -39.55469,-48.64453 -0.1582,0.19532 0,-7.62891 c -65.79153,-0.69852 -119.01961,-53.92495 -119.7168,-119.7168 l -105.369145,0 z"
         style="fill:none;fill-opacity:1;stroke:#000000;stroke-opacity:1;stroke-width:3.99999994;stroke-miterlimit:4;stroke-dasharray:none" />
      <path
         inkscape:connector-curvature="0"
         id="path3234"
         d="M 255.93369,-433.32445 C 132.10178,-432.62283 31.828081,-332.53176 30.857511,-208.7639 l -0.169922,0.13867 0.164062,0.13281 c -5.65e-4,0.0848 -0.0034,0.16904 -0.0039,0.25391 l 0.318359,0 48.691407,39.43164 48.492183,-39.43164 7.86719,0 c 0.68215,-65.80452 53.91586,-119.01797 119.7168,-119.7168 l 0,-105.36914 z"
         style="fill:#000000;fill-opacity:1;stroke:none" />
      <path
         style="fill:none;fill-opacity:1;stroke:#000000;stroke-opacity:1;stroke-width:3.99999994;stroke-miterlimit:4;stroke-dasharray:none"
         d="m 255.55493,-433.34008 -0.0195,0.0234 c -0.1377,-9.9e-4 -0.27434,-0.007 -0.41211,-0.008 l 0,0.51758 -39.38672,48.63672 39.38672,48.4375 0,7.77734 c 65.7849,0.68285 118.98746,53.85656 119.71485,119.63086 3.2e-4,-0.0287 0.002,-0.0572 0.002,-0.0859 l 7.54492,0 48.51367,-39.44922 48.7168,39.44922 0.58984,0 c -0.7804,-123.78983 -100.87625,-223.97808 -224.63086,-224.90625 l -0.0195,-0.0234 z m 224.65235,225.01563 c -1.8e-4,0.0287 -0.002,0.0572 -0.002,0.0859 l 0.004,0 c -1.6e-4,-0.0287 -0.002,-0.0572 -0.002,-0.0859 z"
         id="path3232"
         inkscape:connector-curvature="0" />
      <text
         transform="scale(0.9976115,1.0023942)"
         xml:space="preserve"
         style="font-style:normal;font-variant:normal;font-weight:normal;font-stretch:normal;font-size:447.89343262px;line-height:125%;font-family:'DejaVu Sans';-inkscape-font-specification:'DejaVu Sans';letter-spacing:0px;word-spacing:0px;fill:#000000;fill-opacity:1;stroke:none"
         x="-7380.127"
         y="3201.4065"
         id="text3160-6"
         sodipodi:linespacing="125%"><tspan
           sodipodi:role="line"
           id="tspan3162-7"
           x="-7380.127"
           y="3201.4065" /></text>
      <path
         style="fill:none;fill-opacity:1;fill-rule:nonzero;stroke:none"
         d="m 255.85005,-350.46468 c -77.91354,0.88065 -140.93594,63.87754 -141.79935,141.79473 0.87876,77.90432 63.89539,140.919005 141.79935,141.799332 77.91692,-0.865476 140.91683,-63.885312 141.79472,-141.799332 -0.86301,-77.92688 -63.86832,-140.93016 -141.79472,-141.79473 z"
         id="path4177"
         inkscape:connector-curvature="0" />
    </g>
  </g>
</svg>
