<?xml version="1.0" encoding="UTF-8" standalone="no"?>
<!-- Created with Inkscape (http://www.inkscape.org/) -->

<svg
   xmlns:dc="http://purl.org/dc/elements/1.1/"
   xmlns:cc="http://creativecommons.org/ns#"
   xmlns:rdf="http://www.w3.org/1999/02/22-rdf-syntax-ns#"
   xmlns:svg="http://www.w3.org/2000/svg"
   xmlns="http://www.w3.org/2000/svg"
   xmlns:sodipodi="http://sodipodi.sourceforge.net/DTD/sodipodi-0.dtd"
   xmlns:inkscape="http://www.inkscape.org/namespaces/inkscape"
   width="512"
   height="512"
   viewBox="0 0 512.00001 512.00001"
   id="svg4152"
   version="1.1"
   inkscape:version="0.48.5 r10040"
   sodipodi:docname="teamviewer.svg">
  <defs
     id="defs4154">
    <filter
       inkscape:collect="always"
       style="color-interpolation-filters:sRGB"
       id="filter4193"
       x="-0.12"
       width="1.24"
       y="-0.12"
       height="1.24">
      <feGaussianBlur
         inkscape:collect="always"
         stdDeviation="14.595718"
         id="feGaussianBlur4195" />
    </filter>
  </defs>
  <sodipodi:namedview
     id="base"
     pagecolor="#ffffff"
     bordercolor="#666666"
     borderopacity="1.0"
     inkscape:pageopacity="0.0"
     inkscape:pageshadow="2"
     inkscape:zoom="1.7753906"
     inkscape:cx="263.96536"
     inkscape:cy="247.72815"
     inkscape:document-units="px"
     inkscape:current-layer="g4795"
     showgrid="false"
     units="px"
     inkscape:window-width="1916"
     inkscape:window-height="1036"
     inkscape:window-x="1920"
     inkscape:window-y="0"
     inkscape:window-maximized="0" />
  <metadata
     id="metadata4157">
    <rdf:RDF>
      <cc:Work
         rdf:about="">
        <dc:format>image/svg+xml</dc:format>
        <dc:type
           rdf:resource="http://purl.org/dc/dcmitype/StillImage" />
        <dc:title />
      </cc:Work>
    </rdf:RDF>
  </metadata>
  <g
     inkscape:label="Capa 1"
     inkscape:groupmode="layer"
     id="layer1"
     transform="translate(0,-540.36216)">
    <g
       id="g4724"
       transform="translate(72.660066,54.635861)"
       style="fill:none;stroke:#000000;stroke-opacity:1">
      <g
         style="fill:none;fill-opacity:1;stroke:#000000;stroke-opacity:1"
         transform="matrix(9.7826087,0,0,9.7826087,-51.4427,506.94369)"
         id="g29">
        <path
           style="fill:none;fill-opacity:1;stroke:#000000;stroke-opacity:1"
           inkscape:connector-curvature="0"
           id="path31"
           d="M 24,1 C 36.703,1 47,11.297 47,24 47,36.703 36.703,47 24,47 11.297,47 1,36.703 1,24 1,11.297 11.297,1 24,1 Z" />
      </g>
    </g>
    <g
       id="g4795"
       transform="translate(103.07591,-243.32675)"
       style="fill:none;stroke:#000000;stroke-opacity:1;stroke-width:2.00000004000000020;stroke-miterlimit:4;stroke-dasharray:none;fill-opacity:1">
      <path
         d="m 152.94355,893.73171 c -80.705611,0 -145.9766388,65.27103 -145.9766388,145.97669 0,80.6666 65.2710278,145.9377 145.9766388,145.9377 80.66669,0 145.93772,-65.2711 145.93772,-145.9377 0,-80.70566 -65.27103,-145.97669 -145.93772,-145.97669 m 0,0"
         id="path55-6"
         inkscape:connector-curvature="0"
         style="opacity:0.29999999999999999;fill:none;fill-opacity:1;fill-rule:nonzero;stroke:#000000;filter:url(#filter4193);stroke-opacity:1;stroke-width:2.00000004000000020;stroke-miterlimit:4;stroke-dasharray:none" />
      <path
         d="m 152.94355,893.73171 c -80.705611,0 -145.9766388,65.27103 -145.9766388,145.97669 0,80.6666 65.2710278,145.9377 145.9766388,145.9377 80.66669,0 145.93772,-65.2711 145.93772,-145.9377 0,-80.70566 -65.27103,-145.97669 -145.93772,-145.97669 m 0,0"
         id="path55"
         inkscape:connector-curvature="0"
         style="fill:none;fill-opacity:1;fill-rule:nonzero;stroke:#000000;stroke-opacity:1;stroke-width:8.00000016;stroke-miterlimit:4;stroke-dasharray:none" />
      <path
         d="m 114.01644,991.04947 0,29.19533 77.85422,0 0,-29.19533 37.82741,24.32943 40.0268,24.3684 -40.0268,24.3294 -37.82741,24.3295 0,-29.1954 -77.85422,0 0,29.1954 -37.827411,-24.3295 -40.065718,-24.3294 40.065718,-24.3684 m 37.827411,-24.32943"
         id="path57"
         inkscape:connector-curvature="0"
         style="fill:#000000;fill-opacity:1;fill-rule:nonzero;stroke:#000000;stroke-opacity:1;stroke-width:2.00000004000000020;stroke-miterlimit:4;stroke-dasharray:none" />
    </g>
  </g>
</svg>
