<?xml version="1.0" encoding="UTF-8" standalone="no"?>
<!-- Generator: Adobe Illustrator 16.0.0, SVG Export Plug-In . SVG Version: 6.00 Build 0)  -->

<svg
   xmlns:dc="http://purl.org/dc/elements/1.1/"
   xmlns:cc="http://creativecommons.org/ns#"
   xmlns:rdf="http://www.w3.org/1999/02/22-rdf-syntax-ns#"
   xmlns:svg="http://www.w3.org/2000/svg"
   xmlns="http://www.w3.org/2000/svg"
   xmlns:xlink="http://www.w3.org/1999/xlink"
   xmlns:sodipodi="http://sodipodi.sourceforge.net/DTD/sodipodi-0.dtd"
   xmlns:inkscape="http://www.inkscape.org/namespaces/inkscape"
   version="1.0"
   id="Layer_1"
   x="0px"
   y="0px"
   width="512px"
   height="512px"
   viewBox="0 0 512 512"
   enable-background="new 0 0 512 512"
   xml:space="preserve"
   inkscape:version="0.48.5 r10040"
   sodipodi:docname="textwrangler.svg"><metadata
     id="metadata13"><rdf:RDF><cc:Work
         rdf:about=""><dc:format>image/svg+xml</dc:format><dc:type
           rdf:resource="http://purl.org/dc/dcmitype/StillImage" /><dc:title /></cc:Work></rdf:RDF></metadata><defs
     id="defs11"><clipPath
       id="clipPath4157"
       clipPathUnits="userSpaceOnUse"><path
         style="fill:#f9f8f2;fill-opacity:1;stroke-width:1.00658333"
         inkscape:connector-curvature="0"
         id="path4159"
         d="m 27.642964,3.2951379 13.085584,13.0855841 -11.072418,0 c -0.977824,0 -2.013166,-1.035372 -2.013166,-2.013167 l 0,-11.0724171 z" /></clipPath><filter
       height="1.12"
       y="-0.059999999"
       width="1.12"
       x="-0.059999999"
       id="filter4201"
       style="color-interpolation-filters:sRGB"
       inkscape:collect="always"><feGaussianBlur
         id="feGaussianBlur4203"
         stdDeviation="0.2826087"
         inkscape:collect="always" /></filter><linearGradient
       gradientTransform="translate(-14.368853,-6.1842189)"
       inkscape:collect="always"
       xlink:href="#linearGradient4212"
       id="linearGradient4218"
       x1="384.72128"
       y1="194.41582"
       x2="427.13629"
       y2="194.90317"
       gradientUnits="userSpaceOnUse" /><linearGradient
       inkscape:collect="always"
       id="linearGradient4212"><stop
         style="stop-color:#000000;stop-opacity:1;"
         offset="0"
         id="stop4214" /><stop
         style="stop-color:#000000;stop-opacity:0;"
         offset="1"
         id="stop4216" /></linearGradient></defs><sodipodi:namedview
     pagecolor="#ffffff"
     bordercolor="#666666"
     borderopacity="1"
     objecttolerance="10"
     gridtolerance="10"
     guidetolerance="10"
     inkscape:pageopacity="0"
     inkscape:pageshadow="2"
     inkscape:window-width="1920"
     inkscape:window-height="1007"
     id="namedview9"
     showgrid="false"
     inkscape:zoom="1.3037281"
     inkscape:cx="178.50047"
     inkscape:cy="245.33024"
     inkscape:window-x="0"
     inkscape:window-y="31"
     inkscape:window-maximized="1"
     inkscape:current-layer="Layer_1" /><path
     d="m 109.00073,35.437301 c -9.257703,0 -18.000613,9.4112 -18.000613,19.37657 l 0,406.907849 c 0,9.41147 9.257713,19.37655 18.000613,19.37655 l 288.01013,0 c 8.74319,0 18.00065,-9.96537 18.00065,-19.37655 l 0,-300.33676 L 298.0074,35.437301 Z"
     id="path4-8"
     inkscape:connector-curvature="0"
     style="fill:none;fill-opacity:1;stroke-width:9.338;image-rendering:optimizeSpeed;stroke:#000000;stroke-opacity:1;stroke-miterlimit:4;stroke-dasharray:none" /><path
     d="m 298.0074,35.437301 117.00411,125.947659 -99.00349,0 c -8.74317,0 -18.00062,-9.96536 -18.00062,-19.37656 l 0,-106.571099 z"
     id="path8-2"
     inkscape:connector-curvature="0"
     style="fill:#000000;fill-opacity:1;stroke-width:9.33796500999999957;image-rendering:optimizeSpeed" /><path
     id="path4161"
     d="m 292.90157,222.21562 c -5.54034,5.2297 -18.3494,16.22928 -18.3494,16.22928 l 30.02063,30.24207 c 0,0 12.99398,-13.3527 18.86428,-18.89389 1.45891,-1.37712 1.27063,-4.46277 -0.18832,-5.83986 -4.55189,-4.29673 -12.10125,-11.27281 -12.10125,-11.27281 0,0 -7.10742,-6.75718 -11.4836,-10.88801 -1.5974,-1.50784 -5.16497,-1.08463 -6.76241,0.42323 z m -31.54223,27.0282 -80.24429,75.59242 0.69238,29.89998 31.32422,-0.17883 79.36797,-74.89787 z"
     style="fill:#000000;fill-opacity:1;fill-rule:evenodd;stroke:none;stroke-width:2.69071721999999980px;stroke-linecap:butt;stroke-linejoin:miter;stroke-opacity:1;image-rendering:optimizeSpeed"
     inkscape:connector-curvature="0" /></svg>