<?xml version="1.0" encoding="UTF-8" standalone="no"?>
<svg
   xmlns:dc="http://purl.org/dc/elements/1.1/"
   xmlns:cc="http://creativecommons.org/ns#"
   xmlns:rdf="http://www.w3.org/1999/02/22-rdf-syntax-ns#"
   xmlns:svg="http://www.w3.org/2000/svg"
   xmlns="http://www.w3.org/2000/svg"
   xmlns:xlink="http://www.w3.org/1999/xlink"
   xmlns:sodipodi="http://sodipodi.sourceforge.net/DTD/sodipodi-0.dtd"
   xmlns:inkscape="http://www.inkscape.org/namespaces/inkscape"
   viewBox="0 0 512 512"
   id="svg2"
   version="1.1"
   inkscape:version="0.48.5 r10040"
   width="512"
   height="512"
   sodipodi:docname="tomahawk.svg">
  <metadata
     id="metadata65">
    <rdf:RDF>
      <cc:Work
         rdf:about="">
        <dc:format>image/svg+xml</dc:format>
        <dc:type
           rdf:resource="http://purl.org/dc/dcmitype/StillImage" />
        <dc:title />
      </cc:Work>
    </rdf:RDF>
  </metadata>
  <sodipodi:namedview
     pagecolor="#ffffff"
     bordercolor="#666666"
     borderopacity="1"
     objecttolerance="10"
     gridtolerance="10"
     guidetolerance="10"
     inkscape:pageopacity="0"
     inkscape:pageshadow="2"
     inkscape:window-width="1920"
     inkscape:window-height="1007"
     id="namedview63"
     showgrid="false"
     inkscape:zoom="1.2291667"
     inkscape:cx="498.1551"
     inkscape:cy="319.70412"
     inkscape:window-x="0"
     inkscape:window-y="31"
     inkscape:window-maximized="1"
     inkscape:current-layer="svg2" />
  <defs
     id="defs4">
    <linearGradient
       id="linearGradient3764"
       x1="1"
       x2="47"
       gradientUnits="userSpaceOnUse"
       gradientTransform="rotate(-90,23.999998,24)">
      <stop
         stop-color="#d8d8d8"
         stop-opacity="1"
         id="stop7" />
      <stop
         offset="1"
         stop-color="#e2e2e2"
         stop-opacity="1"
         id="stop9" />
    </linearGradient>
    <clipPath
       id="clipPath-360917236">
      <g
         transform="translate(0,-1004.3622)"
         id="g12">
        <path
           d="m -24,13 c 0,1.105 -0.672,2 -1.5,2 -0.828,0 -1.5,-0.895 -1.5,-2 0,-1.105 0.672,-2 1.5,-2 0.828,0 1.5,0.895 1.5,2 z"
           transform="matrix(15.333333,0,0,11.5,414.99999,878.8622)"
           id="path14"
           inkscape:connector-curvature="0"
           style="fill:#1890d0" />
      </g>
    </clipPath>
    <clipPath
       id="clipPath-368322014">
      <g
         transform="translate(0,-1004.3622)"
         id="g17">
        <path
           d="m -24,13 c 0,1.105 -0.672,2 -1.5,2 -0.828,0 -1.5,-0.895 -1.5,-2 0,-1.105 0.672,-2 1.5,-2 0.828,0 1.5,0.895 1.5,2 z"
           transform="matrix(15.333333,0,0,11.5,414.99999,878.8622)"
           id="path19"
           inkscape:connector-curvature="0"
           style="fill:#1890d0" />
      </g>
    </clipPath>
    <linearGradient
       inkscape:collect="always"
       xlink:href="#linearGradient3764"
       id="linearGradient3042"
       gradientUnits="userSpaceOnUse"
       gradientTransform="rotate(-90,23.999998,24)"
       x1="1"
       x2="47" />
  </defs>
  <g
     id="g33"
     transform="matrix(4.7809042,0,0,4.7809203,-52.03716,329.05278)" />
  <path
     style="fill:#000000;fill-opacity:1;stroke:none;stroke-width:4.78091240000000006"
     d="M 255.99998,31 C 131.71488,31 30.999997,131.71555 30.999997,255.99998 30.999997,380.28446 131.71488,481 255.99998,481 380.28506,481 481,380.28446 481,255.99998 481,131.71555 380.28506,31 255.99998,31 Z m 0,48.484417 c 97.50763,0 176.51515,79.006773 176.51515,176.515563 0,61.42168 -31.21186,115.35343 -78.78788,146.97157 l 0,-253.79015 -62.12121,0 0,83.33378 -45.83333,-29.92449 -81.06061,-52.27316 0,104.92334 0,104.92681 81.06061,-52.2732 45.83333,-29.92449 0,151.13732 c -11.49212,2.34935 -23.41757,3.40832 -35.60606,3.40832 -97.50764,0 -176.515148,-79.00681 -176.515148,-176.5156 0,-97.50884 79.007508,-176.515613 176.515148,-176.515613 z"
     id="path893"
     inkscape:connector-curvature="0" />
</svg>
