<?xml version="1.0" encoding="UTF-8" standalone="no"?>
<svg
   xmlns:osb="http://www.openswatchbook.org/uri/2009/osb"
   xmlns:dc="http://purl.org/dc/elements/1.1/"
   xmlns:cc="http://creativecommons.org/ns#"
   xmlns:rdf="http://www.w3.org/1999/02/22-rdf-syntax-ns#"
   xmlns:svg="http://www.w3.org/2000/svg"
   xmlns="http://www.w3.org/2000/svg"
   xmlns:xlink="http://www.w3.org/1999/xlink"
   xmlns:sodipodi="http://sodipodi.sourceforge.net/DTD/sodipodi-0.dtd"
   xmlns:inkscape="http://www.inkscape.org/namespaces/inkscape"
   version="1.1"
   width="512"
   height="512"
   viewBox="0 0 512 512"
   style="overflow:visible"
   xml:space="preserve"
   id="svg2"
   sodipodi:version="0.32"
   inkscape:version="0.48.5 r10040"
   sodipodi:docname="ubuntu-start-here.svg"
   inkscape:output_extension="org.inkscape.output.svg.inkscape"><metadata
     id="metadata51"><rdf:RDF><cc:Work
         rdf:about=""><dc:format>image/svg+xml</dc:format><dc:type
           rdf:resource="http://purl.org/dc/dcmitype/StillImage" /><dc:title /></cc:Work></rdf:RDF></metadata><defs
     id="defs49"><linearGradient
       y2="47.500599"
       x2="37.674301"
       y1="25.6035"
       x1="37.674301"
       gradientUnits="userSpaceOnUse"
       id="linearGradient4211"><stop
         id="stop4213"
         style="stop-color:#367bf0;stop-opacity:1"
         offset="0" /><stop
         id="stop4215"
         style="stop-color:#cf4343;stop-opacity:0"
         offset="1" /></linearGradient><linearGradient
       id="linearGradient4161"
       osb:paint="solid"><stop
         style="stop-color:#ba3d3d;stop-opacity:1;"
         offset="0"
         id="stop4163" /></linearGradient><linearGradient
       id="linearGradient4155"
       osb:paint="solid"><stop
         style="stop-color:#ba174e;stop-opacity:1;"
         offset="0"
         id="stop4157" /></linearGradient><inkscape:perspective
       sodipodi:type="inkscape:persp3d"
       inkscape:vp_x="0 : 64 : 1"
       inkscape:vp_y="0 : 1000 : 0"
       inkscape:vp_z="128 : 64 : 1"
       inkscape:persp3d-origin="64 : 42.666667 : 1"
       id="perspective53" /><linearGradient
       inkscape:collect="always"
       xlink:href="#XMLID_4_"
       id="linearGradient4181"
       x1="104.04292"
       y1="253.63103"
       x2="601.60852"
       y2="255.99998"
       gradientUnits="userSpaceOnUse" /><linearGradient
       id="linearGradient4206"
       gradientUnits="userSpaceOnUse"
       x1="37.674301"
       y1="25.6035"
       x2="37.674301"
       y2="47.500599"><stop
         offset="0"
         style="stop-color:#ba174e;stop-opacity:0.99607843"
         id="stop40-9" /><stop
         offset="1"
         style="stop-color:#ffc831;stop-opacity:1"
         id="stop42-1" /></linearGradient></defs><sodipodi:namedview
     inkscape:window-height="1007"
     inkscape:window-width="1920"
     inkscape:pageshadow="2"
     inkscape:pageopacity="0.0"
     guidetolerance="10.0"
     gridtolerance="10.0"
     objecttolerance="10.0"
     borderopacity="1.0"
     bordercolor="#666666"
     pagecolor="#ffffff"
     id="base"
     showgrid="false"
     inkscape:zoom="0.63318676"
     inkscape:cx="558.41416"
     inkscape:cy="393.25918"
     inkscape:window-x="0"
     inkscape:window-y="31"
     inkscape:current-layer="svg2"
     inkscape:window-maximized="1" /><path
     style="fill:url(#linearGradient4181);fill-opacity:1;stroke-width:3.66606522;stroke:none"
     d="M 392.47626,31 A 46.143673,45.546558 0 0 0 346.33368,76.546875 46.143673,45.546558 0 0 0 392.47626,122.09375 46.143673,45.546558 0 0 0 438.62079,76.546875 46.143673,45.546558 0 0 0 392.47626,31 Z m -97.42773,35.650391 c -28.44236,0.0036 -57.18087,7.06045 -83.11133,19.71875 -0.92214,0.45182 -1.60813,1.269573 -1.88477,2.246093 -0.28033,0.97651 -0.12598,2.02094 0.41993,2.88086 l 37.33593,58.515626 c 0.94796,1.48664 2.84688,2.07591 4.48829,1.39453 13.84679,-5.78259 28.23384,-8.71484 42.75195,-8.71484 53.40273,0 99.98444,39.11205 108.35742,90.98047 0.28033,1.7417 1.80047,3.01953 3.58203,3.01953 l 70.37695,0.10547 c 1.02541,0 2.0036,-0.42519 2.69336,-1.17579 0.68976,-0.75061 1.02169,-1.74486 0.92579,-2.75781 -3.79184,-38.48502 -20.37561,-75.60853 -46.69336,-104.52148 -1.18771,-1.31174 -3.16869,-1.57354 -4.66993,-0.61524 -10.61193,6.77004 -22.66614,10.35547 -34.8457,10.35547 -35.53172,0 -64.43576,-28.38451 -64.43945,-63.26953 0.004,-0.0182 0.0703,-1.334278 0.0703,-1.392578 0,-1.738052 -1.26509,-3.234418 -3.00977,-3.533203 -11.10989,-1.902024 -21.99022,-3.236328 -32.34765,-3.236328 z M 182.85517,104.72656 c -0.75592,0.0258 -1.49344,0.28229 -2.09375,0.74414 -30.49687,23.20323 -53.42092,55.85148 -64.55664,91.93164 -0.43524,1.41012 0.0441,2.93921 1.2207,3.85743 15.3259,11.9915 24.47461,30.45197 24.47461,49.38476 0,18.9328 -9.15284,37.39913 -24.48242,49.39063 -1.16927,0.91457 -1.65595,2.43975 -1.2207,3.85351 11.04718,35.77773 33.71334,68.24035 63.83398,91.39258 0.80779,0.62308 1.84089,0.87803 2.85156,0.70313 1.00697,-0.17127 1.89572,-0.75844 2.44531,-1.60743 l 37.65626,-58.3789 c 0.9627,-1.49028 0.68225,-3.45147 -0.66407,-4.6211 -23.63987,-20.54696 -37.19531,-49.97379 -37.19531,-80.73047 0,-30.98624 13.70089,-60.5434 37.58789,-81.09765 1.34632,-1.16235 1.64088,-3.11962 0.68555,-4.61719 l -37.34766,-58.53516 c -0.5459,-0.85263 -1.43053,-1.44424 -2.4375,-1.61914 -0.25174,-0.0437 -0.50584,-0.0594 -0.75781,-0.0508 z M 78.224308,204.88672 a 47.224419,46.617813 0 0 0 -47.224609,46.61719 47.224419,46.617813 0 0 0 47.224609,46.61718 47.224419,46.617813 0 0 0 47.224612,-46.61718 47.224419,46.617813 0 0 0 -47.224612,-46.61719 z m 399.066412,60.16016 -70.36914,0.22656 c -1.77419,0.004 -3.2902,1.28264 -3.57422,3.00976 -8.48732,51.48219 -55.04365,90.30664 -108.29883,90.30664 -14.68778,0 -29.23657,-3.00303 -43.23828,-8.92773 -1.63771,-0.68867 -3.53339,-0.10852 -4.4961,1.36719 l -37.63476,58.35351 c -0.54959,0.85627 -0.70655,1.90266 -0.4336,2.88281 0.27295,0.97652 0.9546,1.79623 1.87305,2.24805 26.13333,12.92429 55.15905,19.75196 83.92969,19.75195 10.67096,0 21.78294,-0.99554 33.02929,-2.96679 1.57871,-0.27328 2.78845,-1.54479 2.97657,-3.11524 3.74756,-31.97368 31.14351,-56.08789 63.7207,-56.08789 10.09922,0 20.37545,2.5438 29.71484,7.35352 1.42009,0.73239 3.1504,0.46328 4.27539,-0.66992 29.45302,-29.67085 47.98082,-68.65453 52.15626,-109.78125 0.10327,-1.00931 -0.23235,-2.01528 -0.92579,-2.76953 -0.69345,-0.75425 -1.67965,-1.18529 -2.70507,-1.18164 z M 394.26923,388.24609 A 47.224419,46.377327 0 0 0 347.04462,434.62305 47.224419,46.377327 0 0 0 394.26923,481 47.224419,46.377327 0 0 0 441.49384,434.62305 47.224419,46.377327 0 0 0 394.26923,388.24609 Z"
     id="path10"
     inkscape:connector-curvature="0" /><linearGradient
     id="XMLID_3_"
     gradientUnits="userSpaceOnUse"
     x1="75.503899"
     y1="11.96"
     x2="85.596901"
     y2="36.3307"><stop
       offset="0"
       style="stop-color:#F99D77"
       id="stop33" /><stop
       offset="1"
       style="stop-color:#F7804E"
       id="stop35" /></linearGradient><linearGradient
     id="XMLID_4_"
     gradientUnits="userSpaceOnUse"
     x1="37.674301"
     y1="25.6035"
     x2="37.674301"
     y2="47.500599"><stop
       offset="0"
       style="stop-color:#ba174e;stop-opacity:0.99607843"
       id="stop40" /><stop
       offset="1"
       style="stop-color:#ffc831;stop-opacity:1"
       id="stop42" /></linearGradient><path
     style="overflow:visible;fill:#000000;fill-opacity:1;stroke:none;stroke-width:3.66606522000000012"
     d="M 392.47626,31 A 46.143673,45.546558 0 0 0 346.33368,76.54688 46.143673,45.546558 0 0 0 392.47626,122.09375 46.143673,45.546558 0 0 0 438.62079,76.54688 46.143673,45.546558 0 0 0 392.47626,31 Z m -97.42773,35.65039 c -28.44236,0.004 -57.18087,7.06045 -83.11133,19.71875 -0.92214,0.45182 -1.60813,1.26958 -1.88477,2.2461 -0.28033,0.97651 -0.12598,2.02094 0.41993,2.88086 l 37.33593,58.51562 c 0.94796,1.48664 2.84688,2.07591 4.48829,1.39453 13.84679,-5.78259 28.23384,-8.71484 42.75195,-8.71484 53.40273,0 99.98444,39.11205 108.35742,90.98047 0.28033,1.7417 1.80047,3.01953 3.58203,3.01953 l 70.37695,0.10547 c 1.02541,0 2.0036,-0.42519 2.69336,-1.17579 0.68976,-0.75061 1.02169,-1.74486 0.92579,-2.75781 -3.79184,-38.48502 -20.37561,-75.60853 -46.69336,-104.52148 -1.18771,-1.31174 -3.16869,-1.57354 -4.66993,-0.61524 -10.61193,6.77004 -22.66614,10.35547 -34.8457,10.35547 -35.53172,0 -64.43576,-28.38451 -64.43945,-63.26953 0.004,-0.0182 0.0703,-1.33428 0.0703,-1.39258 0,-1.73805 -1.26509,-3.23441 -3.00977,-3.5332 -11.10989,-1.90202 -21.99022,-3.23633 -32.34765,-3.23633 z m -112.19336,38.07617 c -0.75592,0.0258 -1.49344,0.28229 -2.09375,0.74414 -30.49687,23.20323 -53.42092,55.85148 -64.55664,91.93164 -0.43524,1.41012 0.0441,2.93921 1.2207,3.85743 15.3259,11.9915 24.47461,30.45197 24.47461,49.38476 0,18.9328 -9.15284,37.39913 -24.48242,49.39063 -1.16927,0.91457 -1.65595,2.43975 -1.2207,3.85351 11.04718,35.77773 33.71334,68.24035 63.83398,91.39258 0.80779,0.62308 1.84089,0.87803 2.85156,0.70313 1.00697,-0.17127 1.89572,-0.75844 2.44531,-1.60743 l 37.65626,-58.3789 c 0.9627,-1.49028 0.68225,-3.45147 -0.66407,-4.6211 -23.63987,-20.54696 -37.19531,-49.97379 -37.19531,-80.73047 0,-30.98624 13.70089,-60.5434 37.58789,-81.09765 1.34632,-1.16235 1.64088,-3.11962 0.68555,-4.61719 l -37.34766,-58.53516 c -0.5459,-0.85263 -1.43053,-1.44424 -2.4375,-1.61914 -0.25174,-0.0437 -0.50584,-0.0594 -0.75781,-0.0508 z M 78.224308,204.88672 a 47.224419,46.617813 0 0 0 -47.224609,46.61719 47.224419,46.617813 0 0 0 47.224609,46.61718 47.224419,46.617813 0 0 0 47.224612,-46.61718 47.224419,46.617813 0 0 0 -47.224612,-46.61719 z m 399.066412,60.16016 -70.36914,0.22656 c -1.77419,0.004 -3.2902,1.28264 -3.57422,3.00976 -8.48732,51.48219 -55.04365,90.30664 -108.29883,90.30664 -14.68778,0 -29.23657,-3.00303 -43.23828,-8.92773 -1.63771,-0.68867 -3.53339,-0.10852 -4.4961,1.36719 l -37.63476,58.35351 c -0.54959,0.85627 -0.70655,1.90266 -0.4336,2.88281 0.27295,0.97652 0.9546,1.79623 1.87305,2.24805 26.13333,12.92429 55.15905,19.75196 83.92969,19.75195 10.67096,0 21.78294,-0.99554 33.02929,-2.96679 1.57871,-0.27328 2.78845,-1.54479 2.97657,-3.11524 3.74756,-31.97368 31.14351,-56.08789 63.7207,-56.08789 10.09922,0 20.37545,2.5438 29.71484,7.35352 1.42009,0.73239 3.1504,0.46328 4.27539,-0.66992 29.45302,-29.67085 47.98082,-68.65453 52.15626,-109.78125 0.10327,-1.00931 -0.23235,-2.01528 -0.92579,-2.76953 -0.69345,-0.75425 -1.67965,-1.18529 -2.70507,-1.18164 z M 394.26923,388.24609 A 47.224419,46.377327 0 0 0 347.04462,434.62305 47.224419,46.377327 0 0 0 394.26923,481 47.224419,46.377327 0 0 0 441.49384,434.62305 47.224419,46.377327 0 0 0 394.26923,388.24609 Z"
     id="path10-1"
     inkscape:connector-curvature="0" /></svg>