<?xml version="1.0" encoding="UTF-8" standalone="no"?>
<!-- Created with Inkscape (http://www.inkscape.org/) -->

<svg
   xmlns:dc="http://purl.org/dc/elements/1.1/"
   xmlns:cc="http://creativecommons.org/ns#"
   xmlns:rdf="http://www.w3.org/1999/02/22-rdf-syntax-ns#"
   xmlns:svg="http://www.w3.org/2000/svg"
   xmlns="http://www.w3.org/2000/svg"
   xmlns:sodipodi="http://sodipodi.sourceforge.net/DTD/sodipodi-0.dtd"
   xmlns:inkscape="http://www.inkscape.org/namespaces/inkscape"
   id="svg2"
   version="1.1"
   inkscape:version="0.48.5 r10040"
   width="512"
   height="512"
   sodipodi:docname="uget.svg">
  <metadata
     id="metadata8">
    <rdf:RDF>
      <cc:Work
         rdf:about="">
        <dc:format>image/svg+xml</dc:format>
        <dc:type
           rdf:resource="http://purl.org/dc/dcmitype/StillImage" />
        <dc:title />
      </cc:Work>
    </rdf:RDF>
  </metadata>
  <defs
     id="defs6">
    <clipPath
       clipPathUnits="userSpaceOnUse"
       id="clipPath4137">
      <rect
         style="opacity:1;fill:none;fill-opacity:1;stroke:#000000;stroke-width:0.2;stroke-miterlimit:4;stroke-dasharray:none;stroke-dashoffset:0;stroke-opacity:1"
         id="rect4139"
         width="449.48022"
         height="444.87802"
         x="33.749367"
         y="33.372604"
         ry="63.543999" />
    </clipPath>
    <clipPath
       clipPathUnits="userSpaceOnUse"
       id="clipPath4141">
      <rect
         style="opacity:1;fill:none;fill-opacity:1;stroke:#000000;stroke-width:0.2;stroke-miterlimit:4;stroke-dasharray:none;stroke-dashoffset:0;stroke-opacity:1"
         id="rect4143"
         width="449.48022"
         height="444.87802"
         x="33.749367"
         y="33.372604"
         ry="63.543999" />
    </clipPath>
    <clipPath
       clipPathUnits="userSpaceOnUse"
       id="clipPath4145">
      <rect
         style="opacity:1;fill:none;fill-opacity:1;stroke:#000000;stroke-width:0.2;stroke-miterlimit:4;stroke-dasharray:none;stroke-dashoffset:0;stroke-opacity:1"
         id="rect4147"
         width="449.48022"
         height="444.87802"
         x="33.749367"
         y="33.372604"
         ry="63.543999" />
    </clipPath>
  </defs>
  <sodipodi:namedview
     pagecolor="#ffffff"
     bordercolor="#666666"
     borderopacity="1"
     objecttolerance="10"
     gridtolerance="10"
     guidetolerance="10"
     inkscape:pageopacity="0"
     inkscape:pageshadow="2"
     inkscape:window-width="1920"
     inkscape:window-height="1007"
     id="namedview4"
     showgrid="false"
     inkscape:zoom="0.4609375"
     inkscape:cx="-223.23223"
     inkscape:cy="133.71161"
     inkscape:window-x="0"
     inkscape:window-y="31"
     inkscape:window-maximized="1"
     inkscape:current-layer="svg2" />
  <path
     inkscape:connector-curvature="0"
     id="path2984"
     d="m 74.93628,476.30921 c -9.26908,-2.50247 -15.75336,-6.42092 -23.74641,-14.34995 -7.64537,-7.58415 -12.11675,-15.1165 -14.6709,-24.71417 -2.07168,-7.78467 -2.07168,-354.705511 0,-362.490191 4.97016,-18.67622 20.78005,-34.48611 39.45627,-39.45627 7.78503,-2.07177 356.60346,-2.07177 364.38849,0 19.54392,5.20108 36.32324,22.78369 39.87704,41.78611 0.7695,4.11457 0.98735,54.422251 0.78502,181.288141 l -0.28004,175.59321 -2.24204,4.27119 c -10.93885,20.839 -18.34434,30.01414 -27.82354,34.4724 -12.03814,5.6618 -1.35121,5.36787 -193.45984,5.32086 -165.3172,-0.0404 -176.44735,-0.14555 -182.28405,-1.72133 z m 255.84337,-97.87305 c 25.97664,-1.35124 35.50042,-4.03078 48.11734,-13.5379 4.30308,-3.24248 9.44079,-8.19653 11.74143,-11.32175 6.32148,-8.58711 7.8249,-13.71704 8.91221,-30.40992 1.27679,-19.60179 3.12494,-93.40578 2.39649,-95.70094 -0.56449,-1.77856 -1.83172,-1.83854 -38.84402,-1.83854 -32.78432,0 -38.42896,0.20298 -39.43745,1.41813 -1.67496,2.01821 -0.94519,31.89815 0.83135,34.03874 1.0394,1.2524 3.93565,1.56011 16.70608,1.77487 l 15.44869,0.25979 -35.59949,42.71186 c -19.57972,23.49153 -35.96567,42.71186 -36.41323,42.71186 -0.76643,0 -68.23228,-84.48981 -68.23228,-85.44965 0,-0.24675 7.38916,-0.44865 16.42034,-0.44865 11.50584,0 16.76123,-0.34089 17.55932,-1.13898 0.85765,-0.85765 1.13899,-13.75217 1.13899,-52.20339 l 0,-51.06441 35.59322,0 35.59322,0 0.0145,23.49153 c 0.009,13.13143 0.41116,24.11941 0.91389,24.91525 0.7691,1.21752 6.19749,1.46277 37.47908,1.69329 24.64971,0.18166 37.19815,-0.0614 38.47594,-0.74525 1.84423,-0.98701 1.89621,-1.99944 1.89621,-36.93301 0,-28.40293 -0.25943,-36.13349 -1.23992,-36.94722 -1.4461,-1.20016 -117.71784,0.1378 -154.42109,1.77695 -26.10719,1.16593 -29.56535,1.71379 -38.5028,6.09984 -13.76293,6.75413 -24.09635,19.51303 -27.4077,33.84089 -1.99143,8.61673 -3.3565,42.90884 -3.36787,84.60434 l -0.01,35.83051 -8.54238,0 -8.54237,0 0,-42.52203 c 0,-31.80716 -0.287,-42.80904 -1.13898,-43.66102 -1.61356,-1.61356 -41.6678,-1.61356 -43.28136,0 -1.3737,1.37371 -1.55153,69.3668 -0.24316,92.97859 0.76561,13.81655 1.03255,15.30114 3.79033,21.07953 3.28866,6.89078 8.26192,11.63524 15.59792,14.8803 5.34672,2.36511 19.7084,4.07618 27.64813,3.29404 3.13221,-0.30856 7.99398,-0.11824 10.80396,0.42293 4.8918,0.9421 5.63843,1.52351 17.55932,13.67373 16.09498,16.40459 20.61441,19.18931 33.44655,20.60859 20.24417,2.2391 79.65583,3.24673 107.13932,1.8171 z"
     style="fill:#000000;fill-opacity:1"
     clip-path="url(#clipPath4145)"
     transform="translate(2.1694981,-4.7457627e-6)" />
</svg>
