<?xml version="1.0" encoding="UTF-8" standalone="no"?>
<!-- Created with Inkscape (http://www.inkscape.org/) -->

<svg
   xmlns:dc="http://purl.org/dc/elements/1.1/"
   xmlns:cc="http://creativecommons.org/ns#"
   xmlns:rdf="http://www.w3.org/1999/02/22-rdf-syntax-ns#"
   xmlns:svg="http://www.w3.org/2000/svg"
   xmlns="http://www.w3.org/2000/svg"
   xmlns:sodipodi="http://sodipodi.sourceforge.net/DTD/sodipodi-0.dtd"
   xmlns:inkscape="http://www.inkscape.org/namespaces/inkscape"
   id="svg2"
   version="1.1"
   inkscape:version="0.48.5 r10040"
   width="512"
   height="512"
   sodipodi:docname="unsettings.svg">
  <metadata
     id="metadata8">
    <rdf:RDF>
      <cc:Work
         rdf:about="">
        <dc:format>image/svg+xml</dc:format>
        <dc:type
           rdf:resource="http://purl.org/dc/dcmitype/StillImage" />
        <dc:title />
      </cc:Work>
    </rdf:RDF>
  </metadata>
  <defs
     id="defs6" />
  <sodipodi:namedview
     pagecolor="#ffffff"
     bordercolor="#666666"
     borderopacity="1"
     objecttolerance="10"
     gridtolerance="10"
     guidetolerance="10"
     inkscape:pageopacity="0"
     inkscape:pageshadow="2"
     inkscape:window-width="1920"
     inkscape:window-height="1007"
     id="namedview4"
     showgrid="false"
     inkscape:zoom="1.3037281"
     inkscape:cx="136.6084"
     inkscape:cy="276.26871"
     inkscape:window-x="0"
     inkscape:window-y="31"
     inkscape:window-maximized="1"
     inkscape:current-layer="svg2" />
  <ellipse
     sodipodi:ry="134.50847"
     sodipodi:rx="137.76271"
     sodipodi:cy="273.35593"
     sodipodi:cx="278.77966"
     d="m 416.54237,273.35593 c 0,74.28697 -61.67846,134.50847 -137.76271,134.50847 -76.08424,0 -137.76271,-60.2215 -137.76271,-134.50847 0,-74.28698 61.67847,-134.50847 137.76271,-134.50847 76.08425,0 137.76271,60.22149 137.76271,134.50847 z"
     ry="134.50847"
     rx="137.76271"
     cy="273.35593"
     cx="278.77966"
     style="fill:none;fill-opacity:1;fill-rule:nonzero;stroke:#000000;stroke-width:0;stroke-linecap:round;stroke-linejoin:miter;stroke-miterlimit:4;stroke-opacity:1;stroke-dasharray:none"
     id="path3012"
     transform="matrix(0.67745713,0,0,0.67745713,65.913847,53.25476)" />
  <path
     inkscape:connector-curvature="0"
     id="path2986"
     d="m 234.7669,381.35242 c -2.50897,-1.1199 -5.17766,-3.98573 -6.36849,-6.83893 -0.61373,-1.47049 -1.22622,-7.12298 -1.75062,-16.156 -0.44362,-7.64179 -1.02779,-14.50354 -1.29814,-15.24835 -0.35861,-0.98792 -2.11174,-1.91995 -6.48193,-3.44601 -3.29471,-1.15051 -8.25628,-3.2311 -11.0257,-4.62354 -2.76943,-1.39243 -5.63867,-2.5317 -6.37611,-2.5317 -0.82709,0 -5.35115,3.6789 -11.80823,9.60229 -5.75708,5.28127 -11.39811,10.0796 -12.53561,10.66296 -2.34145,1.20081 -7.60948,1.39624 -10.32987,0.38322 -2.16305,-0.80547 -25.04509,-23.35453 -26.51221,-26.12639 -1.45515,-2.74923 -1.29952,-7.89196 0.3331,-11.00754 0.74319,-1.41825 5.58306,-7.16597 10.75528,-12.77273 5.56769,-6.03545 9.40404,-10.72076 9.40404,-11.4851 0,-0.71005 -1.13927,-3.55689 -2.5317,-6.32632 -1.39244,-2.76942 -3.46853,-7.71811 -4.61355,-10.99709 -1.14501,-3.27898 -2.55031,-6.20461 -3.1229,-6.5014 -0.57258,-0.29678 -7.29342,-0.88429 -14.93521,-1.30556 -8.88739,-0.48993 -14.86907,-1.115 -16.5996,-1.73462 -3.29786,-1.1808 -7.09731,-5.22447 -7.63411,-8.12482 -0.21772,-1.17635 -0.30686,-9.89157 -0.19808,-19.36713 l 0.19778,-17.22829 1.98024,-2.48203 c 3.49947,-4.38625 5.14445,-4.82685 21.85909,-5.85493 9.46049,-0.5819 15.21152,-1.19807 15.68923,-1.68095 0.41478,-0.41927 1.83244,-3.67038 3.15036,-7.22471 1.31792,-3.55432 3.37772,-8.4181 4.57733,-10.80839 1.19962,-2.39029 2.18112,-4.87135 2.18112,-5.51346 0,-0.64211 -3.95703,-5.50791 -8.7934,-10.81289 -4.83637,-5.30497 -9.46249,-10.53032 -10.28027,-11.6119 -2.30006,-3.04198 -3.07785,-6.8089 -2.16787,-10.49922 0.68709,-2.78643 1.94567,-4.29696 12.45697,-14.95079 6.43096,-6.51817 12.77159,-12.40703 14.0903,-13.08636 3.06017,-1.57645 7.92603,-1.59828 10.96449,-0.0492 1.27943,0.65229 6.8925,5.37792 12.47349,10.5014 5.58099,5.12348 10.5254,9.53016 10.9876,9.79262 0.48708,0.2766 3.49337,-0.77955 7.15147,-2.51241 3.47113,-1.64428 8.6648,-3.78286 11.54151,-4.7524 3.90052,-1.3146 5.41396,-2.15459 5.95249,-3.30375 0.39717,-0.84753 1.07832,-7.79333 1.51366,-15.43512 0.83726,-14.6965 1.34033,-17.01964 4.37081,-20.183528 3.37097,-3.519371 5.30965,-3.808088 24.15146,-3.596737 l 17.16164,0.192505 2.68479,1.777881 c 4.61919,3.058849 5.17833,4.960619 6.26619,21.312679 0.52658,7.91525 1.1012,15.00785 1.27694,15.76132 0.24733,1.06042 1.66186,1.8387 6.26043,3.44452 3.26751,1.141 8.50019,3.35989 11.6282,4.93087 3.12801,1.57098 5.93793,2.85633 6.24425,2.85633 0.30633,0 5.32858,-4.37976 11.16056,-9.73278 5.83198,-5.35303 11.68254,-10.29677 13.00125,-10.98608 3.11725,-1.62945 7.75713,-1.6146 11.16624,0.0357 1.61866,0.78358 7.11763,5.78821 14.02394,12.76325 11.85508,11.97303 12.78935,13.34285 12.79856,18.76518 0.007,3.83509 -1.7008,6.35091 -11.89275,17.52451 -5.54169,6.07544 -10.0758,11.30387 -10.0758,11.61872 0,0.31485 1.44642,3.58747 3.21428,7.2725 1.76786,3.68502 3.87622,8.84581 4.68524,11.46843 1.00507,3.25809 1.88032,4.94227 2.76343,5.31738 0.71087,0.30194 7.85598,0.9589 15.87802,1.45992 15.91988,0.99427 18.48423,1.64931 21.15341,5.40347 2.52329,3.54898 2.81676,6.2088 2.59825,23.54848 l -0.20903,16.58677 -1.94767,2.76944 c -3.47782,4.94521 -4.35616,5.19857 -22.01767,6.35106 -8.6298,0.56314 -15.84192,1.17525 -16.02693,1.36027 -0.18502,0.18502 -1.25637,2.94324 -2.38077,6.12937 -1.12441,3.18614 -3.33549,8.36403 -4.91351,11.50644 -1.57804,3.14241 -2.78022,6.1011 -2.67154,6.57488 0.10868,0.47377 4.41432,5.45855 9.56809,11.07728 5.15376,5.61874 10.0248,11.50628 10.82452,13.08341 1.6987,3.35003 1.85625,6.89728 0.45528,10.25027 -1.23634,2.95899 -22.22192,24.28986 -25.6329,26.05467 -2.85206,1.47562 -8.04733,1.63417 -11.03259,0.33669 -1.14373,-0.4971 -6.87785,-5.29409 -12.74248,-10.65999 -5.86463,-5.36589 -11.1294,-9.75751 -11.69948,-9.75914 -0.57009,-0.002 -3.87365,1.32283 -7.34125,2.94325 -3.4676,1.62042 -8.6058,3.70433 -11.4182,4.63092 -3.88721,1.28069 -5.18871,2.00768 -5.42719,3.03151 -0.17254,0.74074 -0.74455,7.8229 -1.27113,15.73816 -1.1582,17.4093 -1.8236,19.29656 -7.8859,22.36639 -1.75787,0.89015 -4.66683,1.04349 -19.3872,1.02199 -13.02809,-0.019 -17.79935,-0.23969 -19.25774,-0.89065 z m 25.52648,-77.29868 c 15.6232,-1.63737 28.67627,-7.86827 39.78915,-18.99337 8.46989,-8.47922 13.93509,-17.99338 17.22589,-29.98792 2.06303,-7.51948 2.05087,-24.12363 -0.0233,-31.73489 -6.29435,-23.09797 -22.82905,-40.10421 -45.68258,-46.98534 -5.32509,-1.60336 -6.77102,-1.7554 -17.12536,-1.80063 -9.91759,-0.0433 -11.98513,0.13512 -16.80224,1.45017 -24.05214,6.56608 -42.44749,25.89236 -47.47404,49.87652 -4.51607,21.54838 2.08716,43.54262 17.81917,59.35263 8.23715,8.278 18.92493,14.35189 30.50386,17.33541 3.30177,0.85077 7.98735,1.50648 14.66077,2.05166 0.53315,0.0436 3.73204,-0.21035 7.10864,-0.56424 z m -16.02565,-27.09331 c -16.47831,-4.46904 -28.01064,-18.49301 -29.03172,-35.30423 -0.71394,-11.7542 3.06868,-21.69915 11.41566,-30.01315 15.20115,-15.14108 39.47426,-15.28299 54.48282,-0.31851 12.36187,12.32554 15.328,29.85551 7.65526,45.24286 -6.53519,13.10604 -18.57446,20.8403 -33.34092,21.41886 -5.02709,0.19697 -7.51346,-0.0312 -11.1811,-1.02583 z m 18.43554,-16.29608 c 4.55133,-1.70287 9.9801,-6.74883 12.26331,-11.39855 1.61116,-3.28109 2.31337,-7.61844 2.31714,-11.08881 0.003,-2.73369 -0.62372,-5.7207 -2.72596,-9.59803 -4.24358,-7.82678 -10.54002,-11.79278 -19.43429,-12.24127 -7.14486,-0.36029 -11.4214,1.15311 -16.57931,5.86715 -6.53959,5.97682 -9.14165,14.28579 -7.04127,22.48439 1.818,7.09632 5.66959,11.91474 12.14827,15.19773 6.04401,3.06274 12.26548,3.31659 19.05211,0.77739 z"
     style="fill:#000000;stroke:#000000;stroke-opacity:1;fill-opacity:1"
     sodipodi:nodetypes="csssssssssssssssssssscsssssssssssssssssssscssssssssssssssssssscsscsscsssssscsssssscccssssssssscccssssssssssssssss" />
  <text
     xml:space="preserve"
     style="font-size:649.25488281px;font-style:normal;font-variant:normal;font-weight:normal;font-stretch:normal;line-height:125%;letter-spacing:0px;word-spacing:0px;fill:#000000;fill-opacity:1;stroke:none;font-family:Helvetica Neue;-inkscape-font-specification:Helvetica Neue"
     x="-8.1494589"
     y="512.53741"
     id="text3351"
     sodipodi:linespacing="125%"
     transform="scale(1.1095615,0.90125694)"><tspan
       sodipodi:role="line"
       id="tspan3353"
       x="-8.1494589"
       y="512.53741">U</tspan></text>
</svg>
