<?xml version="1.0" encoding="UTF-8" standalone="no"?>
<!-- Created using Karbon, part of Calligra: http://www.calligra.org/karbon -->

<svg
   xmlns:dc="http://purl.org/dc/elements/1.1/"
   xmlns:cc="http://creativecommons.org/ns#"
   xmlns:rdf="http://www.w3.org/1999/02/22-rdf-syntax-ns#"
   xmlns:svg="http://www.w3.org/2000/svg"
   xmlns="http://www.w3.org/2000/svg"
   xmlns:sodipodi="http://sodipodi.sourceforge.net/DTD/sodipodi-0.dtd"
   xmlns:inkscape="http://www.inkscape.org/namespaces/inkscape"
   width="512"
   height="512"
   id="svg2"
   version="1.1"
   inkscape:version="0.48.5 r10040"
   sodipodi:docname="unetbootin.svg"
   viewBox="0 0 512 512">
  <metadata
     id="metadata24">
    <rdf:RDF>
      <cc:Work
         rdf:about="">
        <dc:format>image/svg+xml</dc:format>
        <dc:type
           rdf:resource="http://purl.org/dc/dcmitype/StillImage" />
        <dc:title />
      </cc:Work>
    </rdf:RDF>
  </metadata>
  <sodipodi:namedview
     pagecolor="#ffffff"
     bordercolor="#666666"
     borderopacity="1"
     objecttolerance="10"
     gridtolerance="10"
     guidetolerance="10"
     inkscape:pageopacity="0"
     inkscape:pageshadow="2"
     inkscape:window-width="1920"
     inkscape:window-height="1007"
     id="namedview22"
     showgrid="false"
     inkscape:zoom="1.4757047"
     inkscape:cx="147.7426"
     inkscape:cy="238.11913"
     inkscape:window-x="0"
     inkscape:window-y="31"
     inkscape:window-maximized="1"
     inkscape:current-layer="svg2"
     inkscape:document-units="px" />
  <defs
     id="defs4" />
  <rect
     style="fill:none;fill-opacity:1;fill-rule:evenodd;stroke:#000000;stroke-width:4;stroke-linecap:square;stroke-linejoin:miter;stroke-miterlimit:2;stroke-dasharray:none;stroke-opacity:1"
     y="362.16519"
     x="130.24532"
     height="114.01598"
     width="59.785816"
     stroke-miterlimit="2.00000000000"
     id="shape0" />
  <rect
     style="fill:none;fill-opacity:1;fill-rule:evenodd;stroke:#000000;stroke-width:4;stroke-linecap:square;stroke-linejoin:miter;stroke-miterlimit:2;stroke-dasharray:none;stroke-opacity:1"
     y="362.16519"
     x="190.0303"
     height="114.01598"
     width="59.785816"
     stroke-miterlimit="2.00000000000"
     id="shape1" />
  <rect
     style="fill:none;stroke:#000000;stroke-width:8;stroke-linecap:square;stroke-linejoin:miter;stroke-miterlimit:2;stroke-opacity:1;stroke-dasharray:none"
     y="25.000006"
     x="85.472466"
     ry="42.452766"
     rx="42.477009"
     height="338.27039"
     width="207.30075"
     stroke-miterlimit="2.00000000000"
     id="shape2" />
  <path
     style="fill:#000000;fill-opacity:1;fill-rule:evenodd;stroke:#003bc3;stroke-width:0;stroke-linecap:square;stroke-linejoin:miter;stroke-miterlimit:2"
     d="m 144.18661,428.76746 0,18.96971 31.49218,0 0,-18.96971 -31.49218,0 z m 62.11899,0 0,18.96971 31.70754,0 0,-18.96971 -31.70754,0 z"
     id="shape3"
     inkscape:connector-curvature="0" />
  <rect
     style="fill:#000000;stroke:#000000;stroke-width:0;stroke-linecap:butt;stroke-linejoin:miter;stroke-miterlimit:2;stroke-opacity:1;fill-opacity:1"
     y="219.66866"
     x="-155.61441"
     height="32.403614"
     width="32.306454"
     stroke-miterlimit="2.00000000000"
     transform="rotate(-90)"
     id="rect1933" />
  <path
     style="fill:#000000;stroke:#2c3e50;stroke-width:0;stroke-linecap:butt;stroke-linejoin:miter;stroke-miterlimit:2;fill-opacity:1"
     inkscape:connector-curvature="0"
     d="m 189.93787,277.64692 c 12.15876,-0.002 22.01693,9.84205 22.01693,21.98668 0,12.14452 -9.85817,21.9889 -22.01693,21.98645 -12.15901,0.002 -22.01704,-9.84193 -22.01704,-21.98645 0,-12.14463 9.85803,-21.98914 22.01704,-21.98668 z"
     stroke-miterlimit="2.00000000000"
     id="path2830" />
  <path
     style="fill:#000000;stroke:#2c3e50;stroke-width:0;stroke-linecap:butt;stroke-linejoin:miter;stroke-miterlimit:2;fill-opacity:1"
     inkscape:connector-curvature="0"
     d="m 148.66208,151.71482 c 10.76777,-0.002 19.49778,8.7159 19.49778,19.47098 0,10.75498 -8.73001,19.47307 -19.49778,19.47085 -10.76777,0.002 -19.49789,-8.71587 -19.49789,-19.47085 0,-10.75508 8.73012,-19.47316 19.49789,-19.47098 z"
     stroke-miterlimit="2.00000000000"
     id="path4602" />
  <path
     style="fill:#000000;fill-rule:evenodd;stroke:#2c3e50;stroke-width:0;stroke-linecap:butt;stroke-linejoin:miter;stroke-miterlimit:2;fill-opacity:1"
     inkscape:connector-curvature="0"
     d="m 172.59232,103.8003 c 0,0 17.36157,-39.204497 17.78856,-38.614793 0.42689,0.589548 17.21921,38.614793 17.21921,38.614793 z"
     stroke-miterlimit="2.00000000000"
     id="path4608" />
  <path
     style="fill:none;stroke:#000000;stroke-width:6.01454687000000021;stroke-linecap:butt;stroke-linejoin:miter;stroke-miterlimit:2.01260184999999980;stroke-dasharray:none;stroke-opacity:1"
     inkscape:connector-curvature="0"
     d="m 189.86809,266.96439 c -2.96488,-27.70103 -43.17082,-41.41274 -43.28039,-57.49506 -0.0741,-10.87341 0.42925,-15.63407 0.33498,-29.47036"
     stroke-miterlimit="2.01260191180"
     id="path2766" />
  <path
     style="fill:none;stroke:#000000;stroke-width:6.01454687000000021;stroke-linecap:butt;stroke-linejoin:miter;stroke-miterlimit:2.01260184999999980;stroke-dasharray:none;stroke-opacity:1"
     inkscape:connector-curvature="0"
     d="m 189.87681,237.48784 c 0,-27.26901 29.9658,-33.6914 44.82,-53.86266 2.26857,-3.41763 0.7936,-34.24328 0.7936,-36.21367"
     stroke-miterlimit="2.01260191180"
     id="path3653" />
  <path
     style="fill:#000000;stroke:#000000;stroke-width:6.01454687000000021;stroke-linecap:butt;stroke-linejoin:miter;stroke-miterlimit:2.01260184999999980;stroke-dasharray:none;fill-opacity:1;stroke-opacity:1"
     inkscape:connector-curvature="0"
     d="m 189.79339,300.02112 0,-204.586552"
     stroke-miterlimit="2.01260191180"
     id="path5436" />
  <path
     style="fill:none;stroke:#000000;stroke-width:8;stroke-linecap:square;stroke-linejoin:miter;stroke-miterlimit:2;stroke-dasharray:none"
     inkscape:connector-curvature="0"
     d="M 498.52754,391.78786 C 498.41743,332.70727 450.73825,284.8958 392.01458,284.97937 c -58.72334,0.0836 -106.26843,48.03054 -106.21304,107.11102 0.0553,59.08027 47.69013,106.93628 106.41324,106.90959 58.72368,-0.0289 106.31276,-47.93053 106.31276,-107.01125"
     stroke-miterlimit="2.00000000000"
     id="shape01" />
  <path
     style="fill:#000000;fill-opacity:1;fill-rule:evenodd;stroke-width:8.04320335"
     d="m 382.2755,339.16176 0,42.48828 -42.42774,0 0,18.92969 42.42774,0 0,42.65821 19.25586,0 0,-42.65821 42.3125,0 0,-18.92969 -42.3125,0 0,-42.48828 -19.25586,0 z"
     id="rect3339"
     inkscape:connector-curvature="0" />
</svg>
