<?xml version="1.0" encoding="UTF-8" standalone="no"?>
<!-- Created with Inkscape (http://www.inkscape.org/) -->

<svg
   xmlns:dc="http://purl.org/dc/elements/1.1/"
   xmlns:cc="http://creativecommons.org/ns#"
   xmlns:rdf="http://www.w3.org/1999/02/22-rdf-syntax-ns#"
   xmlns:svg="http://www.w3.org/2000/svg"
   xmlns="http://www.w3.org/2000/svg"
   xmlns:sodipodi="http://sodipodi.sourceforge.net/DTD/sodipodi-0.dtd"
   xmlns:inkscape="http://www.inkscape.org/namespaces/inkscape"
   id="svg2"
   version="1.1"
   inkscape:version="0.48.5 r10040"
   width="512"
   height="512"
   sodipodi:docname="uTorrent.svg">
  <metadata
     id="metadata8">
    <rdf:RDF>
      <cc:Work
         rdf:about="">
        <dc:format>image/svg+xml</dc:format>
        <dc:type
           rdf:resource="http://purl.org/dc/dcmitype/StillImage" />
        <dc:title />
      </cc:Work>
    </rdf:RDF>
  </metadata>
  <defs
     id="defs6" />
  <sodipodi:namedview
     pagecolor="#ffffff"
     bordercolor="#666666"
     borderopacity="1"
     objecttolerance="10"
     gridtolerance="10"
     guidetolerance="10"
     inkscape:pageopacity="0"
     inkscape:pageshadow="2"
     inkscape:window-width="1920"
     inkscape:window-height="1007"
     id="namedview4"
     showgrid="false"
     inkscape:zoom="0.8876953"
     inkscape:cx="-418.59959"
     inkscape:cy="438.38474"
     inkscape:window-x="0"
     inkscape:window-y="31"
     inkscape:window-maximized="1"
     inkscape:current-layer="svg2" />
  <circle
     style="fill:none;fill-opacity:1;fill-rule:evenodd;stroke:#000000;stroke-width:16;stroke-linecap:round;stroke-linejoin:miter;stroke-miterlimit:4;stroke-dasharray:none;stroke-opacity:1"
     id="path3766"
     cx="256"
     cy="256"
     r="213.64229" />
  <path
     style="fill:#000000;fill-opacity:1;fill-rule:evenodd;stroke:none;stroke-width:17.41516876000000025;stroke-linecap:round;stroke-linejoin:miter;stroke-miterlimit:4;stroke-dasharray:none;stroke-opacity:1"
     d="m 221.87743,365.37561 c -11.98115,-1.75583 -20.41553,-5.6382 -23.08495,-10.62605 -8.36523,-15.63053 -65.55974,-171.8041 -64.33364,-175.66731 1.32801,-4.18403 18.66853,-9.43974 39.15483,-11.86738 8.91979,-1.05698 10.613,-0.73355 13.74188,2.62492 1.96271,2.10675 9.5219,17.87096 16.79814,35.0316 21.21285,50.02943 27.23207,58.29936 46.5476,63.9532 15.18838,4.44571 27.96436,0.77785 38.30208,-10.99613 9.9079,-11.2845 8.82176,-17.11128 -13.16751,-70.64009 -6.54497,-15.93265 -11.90251,-30.29539 -11.90556,-31.91724 -0.0121,-5.17314 20.74601,-11.21544 35.35685,-10.29289 l 8.99549,0.56796 23.53687,46.7927 c 24.89029,49.48335 25.35019,50.09644 39.49982,52.65269 6.31669,1.14111 6.83044,1.66712 5.98005,6.1226 -0.51166,2.68084 -1.46196,9.18601 -2.11178,14.45599 -0.93828,7.60911 -2.15346,10.21828 -5.90262,12.6737 -6.6571,4.35989 -26.31123,3.68619 -37.55454,-1.28724 -4.68523,-2.07248 -9.26911,-3.76819 -10.18636,-3.76819 -0.91732,0 -7.14145,5.55018 -13.83143,12.33376 -15.72171,15.94158 -26.87041,21.34725 -47.39207,22.97921 -8.45492,0.67234 -15.91962,1.56055 -16.58818,1.97374 -0.66857,0.41323 3.19378,11.73881 8.5831,25.16795 5.38928,13.42914 9.79869,25.55135 9.79869,26.93828 0,1.38692 -1.83314,3.0129 -4.0737,3.61334 -5.4491,1.4603 -23.38068,1.05415 -36.16306,-0.81912 l 0,0 z"
     id="path2996"
     inkscape:connector-curvature="0" />
</svg>
