<?xml version="1.0" encoding="UTF-8" standalone="no"?>
<!-- Created with Inkscape (http://www.inkscape.org/) -->

<svg
   xmlns:osb="http://www.openswatchbook.org/uri/2009/osb"
   xmlns:dc="http://purl.org/dc/elements/1.1/"
   xmlns:cc="http://creativecommons.org/ns#"
   xmlns:rdf="http://www.w3.org/1999/02/22-rdf-syntax-ns#"
   xmlns:svg="http://www.w3.org/2000/svg"
   xmlns="http://www.w3.org/2000/svg"
   xmlns:sodipodi="http://sodipodi.sourceforge.net/DTD/sodipodi-0.dtd"
   xmlns:inkscape="http://www.inkscape.org/namespaces/inkscape"
   width="512"
   height="512"
   id="svg2"
   version="1.1"
   inkscape:version="0.48.5 r10040"
   sodipodi:docname="tor.svg">
  <defs
     id="defs4">
    <linearGradient
       id="linearGradient4162"
       osb:paint="solid">
      <stop
         style="stop-color:#8e44ad;stop-opacity:1;"
         offset="0"
         id="stop4164" />
    </linearGradient>
    <linearGradient
       id="linearGradient4700"
       osb:paint="solid">
      <stop
         style="stop-color:#000000;stop-opacity:1;"
         offset="0"
         id="stop4702" />
    </linearGradient>
    <linearGradient
       id="linearGradient4152"
       osb:paint="solid">
      <stop
         style="stop-color:#000000;stop-opacity:1;"
         offset="0"
         id="stop4154" />
    </linearGradient>
    <clipPath
       clipPathUnits="userSpaceOnUse"
       id="clipPath4953">
      <path
         inkscape:connector-curvature="0"
         id="path4955"
         d="m 255.99121,616.36237 c -99.41125,0 -180,80.58875 -180,180 2e-5,99.41124 80.58876,179.99997 180,179.99997 0.50007,-0.016 1.00008,-0.033 1.5,-0.053 l 0,-359.87302 c -0.4999,-0.0269 -0.9999,-0.0516 -1.5,-0.0743 z m 1.51758,359.94527 c -65.01172,-12.6302 -32.50586,-6.3151 0,0 z"
         style="opacity:1;fill:#ffae00;fill-opacity:1;stroke:none;stroke-opacity:0.47572817"
         sodipodi:nodetypes="csccccccc" />
    </clipPath>
    <clipPath
       clipPathUnits="userSpaceOnUse"
       id="clipPath4953-8">
      <path
         inkscape:connector-curvature="0"
         id="path4955-5"
         d="m 255.99121,616.36237 c -99.41125,0 -180,80.58875 -180,180 2e-5,99.41124 80.58876,179.99997 180,179.99997 0.50007,-0.016 1.00008,-0.033 1.5,-0.053 l 0,-359.87302 c -0.4999,-0.0269 -0.9999,-0.0516 -1.5,-0.0743 z m 1.51758,359.94527 c -65.01172,-12.6302 -32.50586,-6.3151 0,0 z"
         style="opacity:1;fill:#ffae00;fill-opacity:1;stroke:none;stroke-opacity:0.47572817"
         sodipodi:nodetypes="csccccccc" />
    </clipPath>
    <clipPath
       clipPathUnits="userSpaceOnUse"
       id="clipPath4953-1">
      <path
         inkscape:connector-curvature="0"
         id="path4955-51"
         d="m 255.99121,616.36237 c -99.41125,0 -180,80.58875 -180,180 2e-5,99.41124 80.58876,179.99997 180,179.99997 0.50007,-0.016 1.00008,-0.033 1.5,-0.053 l 0,-359.87302 c -0.4999,-0.0269 -0.9999,-0.0516 -1.5,-0.0743 z m 1.51758,359.94527 c -65.01172,-12.6302 -32.50586,-6.3151 0,0 z"
         style="opacity:1;fill:#ffae00;fill-opacity:1;stroke:none;stroke-opacity:0.47572817"
         sodipodi:nodetypes="csccccccc" />
    </clipPath>
  </defs>
  <sodipodi:namedview
     id="base"
     pagecolor="#ffffff"
     bordercolor="#666666"
     borderopacity="1.0"
     inkscape:pageopacity="0.0"
     inkscape:pageshadow="2"
     inkscape:zoom="1.4765625"
     inkscape:cx="176.8236"
     inkscape:cy="219.26588"
     inkscape:document-units="px"
     inkscape:current-layer="layer1"
     showgrid="false"
     inkscape:snap-page="true"
     inkscape:snap-global="true"
     inkscape:snap-center="true"
     inkscape:snap-object-midpoints="false"
     showguides="true"
     inkscape:guide-bbox="true"
     inkscape:snap-bbox="true"
     inkscape:object-paths="true"
     inkscape:object-nodes="true"
     inkscape:window-width="1920"
     inkscape:window-height="1007"
     inkscape:window-x="0"
     inkscape:window-y="31"
     inkscape:window-maximized="1"
     inkscape:snap-midpoints="false"
     inkscape:snap-grids="true"
     inkscape:snap-to-guides="false">
    <inkscape:grid
       type="xygrid"
       id="grid3002"
       empspacing="5"
       visible="true"
       enabled="true"
       snapvisiblegridlinesonly="true" />
  </sodipodi:namedview>
  <metadata
     id="metadata7">
    <rdf:RDF>
      <cc:Work
         rdf:about="">
        <dc:format>image/svg+xml</dc:format>
        <dc:type
           rdf:resource="http://purl.org/dc/dcmitype/StillImage" />
        <dc:title />
      </cc:Work>
    </rdf:RDF>
  </metadata>
  <g
     inkscape:label="Layer 1"
     inkscape:groupmode="layer"
     id="layer1"
     transform="translate(0,-540.36218)">
    <g
       id="g4205"
       style="fill:none;fill-opacity:1;stroke:#000000;stroke-opacity:1;stroke-width:8;stroke-miterlimit:4;stroke-dasharray:none">
      <path
         sodipodi:nodetypes="ccccccsc"
         inkscape:connector-curvature="0"
         id="path4150-5"
         d="m 283.43081,690.04104 -21.51099,21.7816 0,0 c 5.19937,3.43245 46.2516,155.55842 46.2516,155.55842 l -50.12757,153.81834 c 85.02856,-0.7085 152.08462,-69.71916 152.10656,-154.75068 -0.1163,-71.88001 -50.22438,-132.00506 -119.66021,-150.59045 -7.82535,-2.09456 -8.26307,-16.74331 -7.05939,-25.81723 z"
         style="fill:none;stroke:#000000;stroke-width:8;stroke-miterlimit:4;stroke-opacity:1;stroke-dasharray:none" />
      <path
         inkscape:connector-curvature="0"
         id="path4150"
         d="m 245.18567,685.7264 c -5.8774,-0.28638 -4.48775,22.57495 -34.9037,32.7136 0,0 0.85606,-0.0588 0.95135,-0.0656 -63.33384,19.44227 -109.38374,78.37715 -109.38374,148.08437 0,85.14398 68.69704,154.23303 153.68651,154.88823 0.0493,0 0.0985,0.011 0.14792,0.015 0.0904,0 0.18025,-0.01 0.27061,-0.011 0.26658,10e-4 0.53148,0.011 0.79838,0.011 0.43034,-0.013 0.86064,-0.029 1.29085,-0.045 l 0,-0.1176 c 27.89277,-3.6434 50.12848,-71.52422 50.12848,-154.74036 0,-73.96211 -17.56667,-135.80497 -41.05714,-151.20395 6.8e-4,0 0.003,0 0.004,0 -9.50496,-6.28159 4.26423,-16.60808 14.5911,-23.49268 10.3269,-6.8846 -25.81723,0.86058 -34.42298,-5.16343 -0.80679,-0.56476 -1.493,-0.84273 -2.10101,-0.87235 z"
         style="opacity:1;fill:none;fill-opacity:1;stroke:#000000;stroke-opacity:1;stroke-width:8;stroke-miterlimit:4;stroke-dasharray:none" />
    </g>
    <path
       style="opacity:1;fill:none;fill-opacity:1;stroke:#000000;stroke-width:16;stroke-miterlimit:4;stroke-dasharray:none;stroke-opacity:1"
       d="m 255.68402,718.21766 c -0.0997,0.0136 -0.19947,0.0282 -0.29919,0.0436 l 0,0.0252 c -72.07558,17.90738 -136.28969,72.68505 -136.32374,148.17222 0.023,75.49503 60.83244,136.89302 136.32374,137.64322 l 0,0.017 c 0.0997,0.012 0.19944,0.022 0.29919,0.032 0.0902,-0.01 0.18042,-0.018 0.27061,-0.029 0.26609,0.01 0.53222,0.02 0.79838,0.029 0.29473,-0.01 0.58944,-0.02 0.8841,-0.032 l 0,-0.1715 c 24.97492,-3.0882 44.68781,-63.71738 44.70282,-137.48849 -0.0306,-73.7379 -19.73914,-144.86526 -44.70282,-147.95204 l 0,-0.24541 c -0.67647,-0.0423 -1.31905,-0.0265 -1.95309,-0.0436 z"
       id="path4150-9-8"
       inkscape:connector-curvature="0"
       sodipodi:nodetypes="cccccccccccccccc" />
    <path
       style="opacity:1;fill:none;fill-opacity:1;stroke:#000000;stroke-width:8;stroke-miterlimit:4;stroke-dasharray:none;stroke-opacity:1"
       d="m 255.68402,738.06646 c -0.0997,0.0134 -0.19947,0.0281 -0.29919,0.0436 l 0,0.0252 c -65.48232,11.24513 -119.07876,62.34144 -119.11226,128.32343 0.0224,65.98985 53.12665,119.68231 119.11226,120.43169 l 0,0.0169 c 0.0997,0.0119 0.19944,0.0224 0.29919,0.0319 0.0902,-0.009 0.18042,-0.0182 0.27061,-0.0286 0.26609,0.0105 0.53222,0.0199 0.79838,0.0286 0.29475,-0.009 0.58944,-0.0201 0.8841,-0.0319 l 0,-0.17313 c 21.75324,-3.07561 38.85829,-56.00316 38.8704,-120.27538 -0.0273,-64.23971 -17.12815,-125.02923 -38.8704,-128.10325 l 0,-0.2454 c -0.29465,-0.0155 -0.58934,-0.0302 -0.8841,-0.0436 -0.26617,0.0132 -0.53231,0.026 -0.79838,0.0404 -0.0902,-0.0144 -0.18039,-0.0278 -0.27061,-0.0404 z"
       id="path4150-9-4-3"
       inkscape:connector-curvature="0"
       sodipodi:nodetypes="cccccccccccccccccc" />
    <path
       style="opacity:1;fill:none;fill-opacity:1;stroke:#000000;stroke-width:8;stroke-miterlimit:4;stroke-dasharray:none;stroke-opacity:1"
       d="m 255.68402,757.91525 c -0.0997,0.0133 -0.19949,0.0278 -0.29919,0.0436 l 0,0.0252 c -52.29578,4.58286 -101.86804,51.99769 -101.90076,108.47464 0.0218,56.48481 45.42089,102.47186 101.90076,103.2202 l 0,0.0167 c 0.0997,0.0119 0.19944,0.0225 0.29919,0.0319 0.0902,-0.008 0.18042,-0.0181 0.27061,-0.0286 0.26609,0.0105 0.53222,0.0201 0.79838,0.0286 0.29475,-0.009 0.58945,-0.0201 0.8841,-0.0319 l 0,-0.17143 c 18.53257,-3.05624 33.03201,-48.28648 33.03967,-103.06544 -0.0231,-54.74591 -14.51828,-105.20009 -33.03967,-108.25445 l 0,-0.2454 c -0.29465,-0.0158 -0.58934,-0.0303 -0.8841,-0.0436 -0.26619,0.0118 -0.53231,0.0258 -0.79838,0.0403 -0.0902,-0.0145 -0.18039,-0.028 -0.27061,-0.0403 z"
       id="path4150-9-4-3-5"
       inkscape:connector-curvature="0"
       sodipodi:nodetypes="cccccccccccccccccc" />
    <path
       style="opacity:1;fill:none;fill-opacity:1;stroke:#000000;stroke-width:8;stroke-miterlimit:4;stroke-dasharray:none;stroke-opacity:1"
       d="m 255.68402,780.40137 a 29.159963,86.05745 0 0 0 -0.29919,0.0436 l 0,0.0252 a 86.05745,86.05745 0 0 0 -84.68928,85.98853 86.05745,86.05745 0 0 0 84.68928,86.0087 l 0,0.0168 a 29.159963,86.05745 0 0 0 0.29919,0.0319 29.159963,86.05745 0 0 0 0.27061,-0.0286 86.05745,86.05745 0 0 0 0.79838,0.0286 86.05745,86.05745 0 0 0 0.8841,-0.0319 l 0,-0.17145 a 29.159963,86.05745 0 0 0 27.20728,-85.85406 29.159963,86.05745 0 0 0 -27.20728,-85.76835 l 0,-0.2454 a 86.05745,86.05745 0 0 0 -0.8841,-0.0436 86.05745,86.05745 0 0 0 -0.79838,0.0403 29.159963,86.05745 0 0 0 -0.27061,-0.0403 z"
       id="path4150-9-4-3-9-1"
       inkscape:connector-curvature="0" />
    <path
       style="opacity:1;fill:none;fill-opacity:1;stroke:#000000;stroke-width:16;stroke-miterlimit:4;stroke-dasharray:none;stroke-opacity:1"
       d="m 255.68402,797.61285 a 23.327971,68.84596 0 0 0 -0.29919,0.0436 l 0,0.0252 a 68.84596,68.84596 0 0 0 -67.47778,68.77705 68.84596,68.84596 0 0 0 67.47778,68.79723 l 0,0.0167 a 23.327971,68.84596 0 0 0 0.29919,0.0319 23.327971,68.84596 0 0 0 0.27061,-0.0286 68.84596,68.84596 0 0 0 0.79838,0.0286 68.84596,68.84596 0 0 0 0.8841,-0.0319 l 0,-0.24875 a 23.327971,68.84596 0 0 0 21.37486,-68.5652 23.327971,68.84596 0 0 0 -21.37486,-68.55686 l 0,-0.2454 a 68.84596,68.84596 0 0 0 -0.8841,-0.0436 68.84596,68.84596 0 0 0 -0.79838,0.0404 23.327971,68.84596 0 0 0 -0.27061,-0.0404 z"
       id="path4150-9-4-3-9-1-1-5"
       inkscape:connector-curvature="0" />
    <path
       style="opacity:1;fill:none;fill-opacity:1;stroke:#000000;stroke-width:8;stroke-miterlimit:4;stroke-dasharray:none;stroke-opacity:1"
       d="m 255.68402,832.03583 a 11.663985,34.422981 0 0 0 -0.29919,0.0436 l 0,0.0252 a 34.422981,34.422981 0 0 0 -33.0548,34.35407 34.422981,34.422981 0 0 0 33.0548,34.37424 l 0,0.0167 a 11.663985,34.422981 0 0 0 0.29919,0.0319 11.663985,34.422981 0 0 0 0.27061,-0.0286 34.422981,34.422981 0 0 0 0.79838,0.0286 34.422981,34.422981 0 0 0 0.8841,-0.0319 l 0,-0.45884 a 11.663985,34.422981 0 0 0 9.71172,-33.93219 11.663985,34.422981 0 0 0 -9.71172,-33.90026 l 0,-0.47902 a 34.422981,34.422981 0 0 0 -0.8841,-0.0436 34.422981,34.422981 0 0 0 -0.79838,0.0403 11.663985,34.422981 0 0 0 -0.27061,-0.0403 z"
       id="path4150-9-4-3-9-1-1-5-1-5-3-2"
       inkscape:connector-curvature="0" />
    <path
       style="opacity:1;fill:none;fill-opacity:1;stroke:none;stroke-width:1.72114908999999994;stroke-miterlimit:4;stroke-dasharray:none;stroke-opacity:1"
       d="m 255.68402,849.24733 a 5.8319927,17.211491 0 0 0 -0.29919,0.0436 l 0,0.0252 a 17.211491,17.211491 0 0 0 -15.84332,17.14257 17.211491,17.211491 0 0 0 15.84332,17.14928 l 0,0.0302 a 5.8319927,17.211491 0 0 0 0.29919,0.0319 5.8319927,17.211491 0 0 0 0.27061,-0.0286 17.211491,17.211491 0 0 0 0.79838,0.0286 17.211491,17.211491 0 0 0 0.8841,-0.0319 l 0,-0.97992 a 5.8319927,17.211491 0 0 0 3.8793,-16.19965 5.8319927,17.211491 0 0 0 -3.8793,-16.19628 l 0,-0.9715 a 17.211491,17.211491 0 0 0 -0.8841,-0.0436 17.211491,17.211491 0 0 0 -0.79838,0.0403 5.8319927,17.211491 0 0 0 -0.27061,-0.0403 z"
       id="path4150-9-4-3-9-1-1-5-1-5-3-2-5-1"
       inkscape:connector-curvature="0" />
    <path
       style="fill:#000000;fill-opacity:1;fill-rule:evenodd;stroke:none;stroke-width:1px;stroke-linecap:butt;stroke-linejoin:miter;stroke-opacity:1"
       d="m 381.10723,571.36224 c 0,0 -65.93266,6.59327 -118.67879,118.6788 46.15285,13.18652 118.67879,-118.6788 118.67879,-118.6788 z m -118.67879,118.6788 c 13.18654,-26.37307 -6.59326,-72.52593 -6.59326,-72.52593 0,0 -32.96634,39.55959 6.59326,72.52593 z"
       id="path4181"
       inkscape:connector-curvature="0" />
    <path
       style="opacity:0.29999999999999999;fill:none;fill-opacity:1;stroke:none"
       d="m 101.93839,861.43809 c -0.0531,1.66742 -0.0879,3.33919 -0.0879,5.01953 0,85.1439 68.69609,154.23348 153.68555,154.88868 0.0493,0 0.099,0.012 0.14843,0.016 0.0904,0 0.18113,-0.011 0.27149,-0.012 0.26657,10e-4 0.53192,0.012 0.79883,0.012 0.43034,-0.013 0.85884,-0.029 1.28906,-0.045 l 0,-0.041 c 84.32959,-1.5076 152.0856,-70.29992 152.10742,-154.82812 -0.003,-1.64139 -0.0393,-3.27358 -0.0937,-4.90235 -2.68058,82.17863 -69.38653,148.25327 -152.01367,149.73047 l 0,0.041 c -0.43022,0.016 -0.85872,0.032 -1.28906,0.045 -0.26691,0 -0.53226,-0.011 -0.79883,-0.012 -0.0904,10e-4 -0.18109,0.012 -0.27149,0.012 -0.0494,-0 -0.0991,-0.016 -0.14843,-0.016 -83.32513,-0.6424 -150.97951,-67.06787 -153.5977,-149.90821 z"
       id="path4150-5-7"
       inkscape:connector-curvature="0"
       sodipodi:nodetypes="csccccccccccccccc" />
  </g>
</svg>
