<?xml version="1.0" encoding="UTF-8" standalone="no"?>
<!-- Generator: flash2svg, http://dissentgraphics.com/tools/flash2svg -->

<svg
   xmlns:dc="http://purl.org/dc/elements/1.1/"
   xmlns:cc="http://creativecommons.org/ns#"
   xmlns:rdf="http://www.w3.org/1999/02/22-rdf-syntax-ns#"
   xmlns:svg="http://www.w3.org/2000/svg"
   xmlns="http://www.w3.org/2000/svg"
   xmlns:sodipodi="http://sodipodi.sourceforge.net/DTD/sodipodi-0.dtd"
   xmlns:inkscape="http://www.inkscape.org/namespaces/inkscape"
   id="VirtualBox"
   version="1.1"
   style="image-rendering:optimizeSpeed"
   x="0px"
   y="0px"
   width="512"
   height="512"
   viewBox="0 0 512 512"
   enable-background="new 0 0 1024 1024"
   inkscape:version="0.48.5 r10040"
   sodipodi:docname="vbox.svg">
  <metadata
     id="metadata20">
    <rdf:RDF>
      <cc:Work
         rdf:about="">
        <dc:format>image/svg+xml</dc:format>
        <dc:type
           rdf:resource="http://purl.org/dc/dcmitype/StillImage" />
        <dc:title />
      </cc:Work>
    </rdf:RDF>
  </metadata>
  <sodipodi:namedview
     pagecolor="#ffffff"
     bordercolor="#666666"
     borderopacity="1"
     objecttolerance="10"
     gridtolerance="10"
     guidetolerance="10"
     inkscape:pageopacity="0"
     inkscape:pageshadow="2"
     inkscape:window-width="1920"
     inkscape:window-height="1007"
     id="namedview18"
     showgrid="false"
     inkscape:zoom="1.4765625"
     inkscape:cx="313.28507"
     inkscape:cy="236.12665"
     inkscape:window-x="0"
     inkscape:window-y="31"
     inkscape:window-maximized="1"
     inkscape:current-layer="VirtualBox" />
  <defs
     transform="matrix(1 0 0 1 0 0) "
     id="defs3" />
  <g
     id="ico-shadow"
     transform="matrix(0.46611989,0,0,0.46611989,12.369711,19.00877)"
     style="fill:none;fill-opacity:1;stroke:#000000;stroke-opacity:1">
    <g
       id="shape2"
       style="fill:none;fill-opacity:1;stroke:#000000;stroke-width:34.32593154999999996;stroke-miterlimit:4;stroke-opacity:1;stroke-dasharray:none">
      <path
         id="path1"
         d="M 727.2,91.75 C 718.5,87.4 709.35,83.1 699.95,79.05 691.35,75.3 682.8,71.85 674.05,68.65 631.95,52.9 589.8,43.3 547.6,40 478.2,34.4 408.65,45.4 338.7,73 c -23.45,9.3 -45.65,19.9 -66.6,31.9 -41.3,23.7 -77.6,52.65 -108.5,86.7 Q 112,248.2 79.05,324.15 C 58.8,370.8 46.2,417.6 41.2,463.8 c -0.45,4.45 -0.85,8.6 -1.2,12.75 -3.7,45.6 -0.2,90.75 10.25,136 5.7,24.55 13.25,48.75 22.75,72.85 27.7,69.95 67.25,128.4 118.55,175.1 31.45,28.65 67.2,52.85 107.3,72.8 0.15,0.05 0.25,0.1 0.35,0.15 3.1,1.55 6.1,3 8.65,4.15 4.9,2.35 9.25,4.35 13.6,6.25 1.1,0.45 1.9,0.85 2.75,1.2 9.45,4.1 18.9,7.85 27.9,11.2 2.35,0.85 4.5,1.65 6.6,2.4 19.05,6.7 38.2,12.15 56.9,16.3 7.9,1.7 15.8,3.25 23.5,4.55 0.95,0.2 1.95,0.3 2.7,0.45 11.65,1.85 23.2,3.25 34.75,4.2 69.8,5.45 139.2,-5.55 208.85,-33.05 24.35,-9.6 47.3,-20.65 68.8,-33.15 35.1,-20.35 66.45,-44.5 94.1,-72.5 4.15,-4.2 8.2,-8.5 12.25,-12.9 8.4,-9.25 16.5,-18.95 24.25,-29.1 20.05,-26.15 37.55,-55.1 52.6,-86.7 2.6,-5.5 5.15,-11.1 7.65,-16.85 0.25,-0.6 0.55,-1.25 0.8,-1.85 0.15,-0.3 0.25,-0.6 0.4,-0.9 2.8,-6.6 5.45,-13.25 8.1,-20 C 966,646.5 974.5,615.5 979.7,584.1 c 0.7,-4.4 1.4,-9.15 2.1,-13.9 0.9,-7.35 1.75,-14.85 2.35,-22.6 0.1,-1.45 0.25,-3.15 0.4,-4.95 1.3,-19.3 1.3,-38.7 0.1,-58.4 -0.45,-6.4 -1,-12.9 -1.7,-19.6 -0.2,-1.85 -0.45,-3.85 -0.7,-5.85 -2,-16.4 -4.95,-32.85 -8.95,-49.7 -5.45,-23.15 -12.85,-46.75 -22.2,-70.4 -27.55,-69.75 -67,-128.05 -118.6,-175.1 -18.75,-17.1 -39.35,-32.8 -61.55,-46.95 -13.85,-8.9 -28.3,-17.1 -43.75,-24.9 z"
         inkscape:connector-curvature="0"
         style="fill:none;fill-opacity:1;stroke:#000000;stroke-width:34.32593154999999996;stroke-miterlimit:4;stroke-opacity:1;stroke-dasharray:none" />
    </g>
  </g>
  <path
     id="path4"
     d="m 447.60101,254.23839 q 0.7592,-8.43677 0.7592,-17.15321 c 0,-50.10789 -19.23321,-92.87439 -57.69962,-128.29949 -38.46643,-35.425121 -84.90451,-53.137677 -139.31426,-53.137677 -54.40974,0 -100.84783,17.712556 -139.31425,53.137677 -38.466431,35.4251 -57.699637,78.1916 -57.699637,128.29949 0,5.89641 0.253069,11.69961 0.784506,17.15321 l 73.617641,0 32.39279,101.14802 54.15668,-235.85666 44.54007,177.77812 37.45415,-177.77812 44.03393,134.70864 106.2888,0 z"
     inkscape:connector-curvature="0"
     style="fill:#000000;fill-opacity:1;stroke:none" />
  <path
     id="path5"
     d="M 446.45837,274.59319 330.01989,271.8842 296.59348,162.23375 260.09712,340.01188 216.69604,162.23375 163.92427,398.09042 125.58735,275.27044 l -71.057832,1.3545 c 3.896226,42.92964 28.486248,100.21041 61.554922,131.46375 37.48275,35.42511 82.73331,53.13767 135.75168,53.13767 53.01837,0 98.26893,-17.71256 135.75168,-53.13767 33.11798,-31.29995 54.97439,-90.65908 58.87057,-133.4955 z"
     inkscape:connector-curvature="0"
     style="fill:#000000;fill-opacity:1;stroke:none"
     sodipodi:nodetypes="ccccccccsssc" />
</svg>
