<?xml version="1.0" encoding="UTF-8" standalone="no"?>
<svg
   xmlns:dc="http://purl.org/dc/elements/1.1/"
   xmlns:cc="http://creativecommons.org/ns#"
   xmlns:rdf="http://www.w3.org/1999/02/22-rdf-syntax-ns#"
   xmlns:svg="http://www.w3.org/2000/svg"
   xmlns="http://www.w3.org/2000/svg"
   xmlns:sodipodi="http://sodipodi.sourceforge.net/DTD/sodipodi-0.dtd"
   xmlns:inkscape="http://www.inkscape.org/namespaces/inkscape"
   height="512"
   width="512"
   id="svg29"
   version="1.1"
   viewBox="0 0 512 512"
   inkscape:version="0.48.5 r10040"
   sodipodi:docname="vivaldi.svg">
  <sodipodi:namedview
     pagecolor="#ffffff"
     bordercolor="#666666"
     borderopacity="1"
     objecttolerance="10"
     gridtolerance="10"
     guidetolerance="10"
     inkscape:pageopacity="0"
     inkscape:pageshadow="2"
     inkscape:window-width="1920"
     inkscape:window-height="1007"
     id="namedview37"
     showgrid="false"
     inkscape:zoom="1.84375"
     inkscape:cx="347.70954"
     inkscape:cy="350.14388"
     inkscape:window-x="0"
     inkscape:window-y="31"
     inkscape:window-maximized="1"
     inkscape:current-layer="svg29" />
  <metadata
     id="metadata33">
    <rdf:RDF>
      <cc:Work
         rdf:about="">
        <dc:format>image/svg+xml</dc:format>
        <dc:type
           rdf:resource="http://purl.org/dc/dcmitype/StillImage" />
        <dc:title />
      </cc:Work>
    </rdf:RDF>
  </metadata>
  <defs
     id="defs7">
    <linearGradient
       gradientUnits="userSpaceOnUse"
       y2="47"
       x2="0"
       y1="1"
       id="linearGradient3481">
      <stop
         id="stop2"
         style="stop-color:#fc5858;stop-opacity:1" />
      <stop
         id="stop4"
         style="stop-color:#fc4444;stop-opacity:1"
         offset="1" />
    </linearGradient>
    <linearGradient
       gradientUnits="userSpaceOnUse"
       y2="47"
       x2="0"
       y1="1"
       id="linearGradient3481-4">
      <stop
         id="stop2-0"
         style="stop-color:#fc5858;stop-opacity:1" />
      <stop
         id="stop4-0"
         style="stop-color:#fc4444;stop-opacity:1"
         offset="1" />
    </linearGradient>
    <linearGradient
       gradientUnits="userSpaceOnUse"
       y2="47"
       x2="0"
       y1="1"
       id="linearGradient4218">
      <stop
         id="stop4214"
         style="stop-color:#fc5858;stop-opacity:1" />
      <stop
         id="stop4216"
         style="stop-color:#fc4444;stop-opacity:1"
         offset="1" />
    </linearGradient>
    <linearGradient
       gradientUnits="userSpaceOnUse"
       y2="47"
       x2="0"
       y1="1"
       id="linearGradient3481-6">
      <stop
         id="stop2-03"
         style="stop-color:#fc5858;stop-opacity:1" />
      <stop
         id="stop4-6"
         style="stop-color:#fc4444;stop-opacity:1"
         offset="1" />
    </linearGradient>
    <linearGradient
       gradientUnits="userSpaceOnUse"
       y2="47"
       x2="0"
       y1="1"
       id="linearGradient4218-4">
      <stop
         id="stop4214-9"
         style="stop-color:#fc5858;stop-opacity:1" />
      <stop
         id="stop4216-2"
         style="stop-color:#fc4444;stop-opacity:1"
         offset="1" />
    </linearGradient>
    <linearGradient
       gradientUnits="userSpaceOnUse"
       y2="47"
       x2="0"
       y1="1"
       id="linearGradient3481-2">
      <stop
         id="stop2-9"
         style="stop-color:#fc5858;stop-opacity:1" />
      <stop
         id="stop4-2"
         style="stop-color:#fc4444;stop-opacity:1"
         offset="1" />
    </linearGradient>
    <linearGradient
       gradientUnits="userSpaceOnUse"
       y2="47"
       x2="0"
       y1="1"
       id="linearGradient4218-2">
      <stop
         id="stop4214-2"
         style="stop-color:#fc5858;stop-opacity:1" />
      <stop
         id="stop4216-7"
         style="stop-color:#fc4444;stop-opacity:1"
         offset="1" />
    </linearGradient>
    <linearGradient
       gradientUnits="userSpaceOnUse"
       y2="47"
       x2="0"
       y1="1"
       id="linearGradient3481-0">
      <stop
         id="stop2-02"
         style="stop-color:#fc5858;stop-opacity:1" />
      <stop
         id="stop4-1"
         style="stop-color:#fc4444;stop-opacity:1"
         offset="1" />
    </linearGradient>
    <linearGradient
       gradientUnits="userSpaceOnUse"
       y2="47"
       x2="0"
       y1="1"
       id="linearGradient4218-5">
      <stop
         id="stop4214-6"
         style="stop-color:#fc5858;stop-opacity:1" />
      <stop
         id="stop4216-73"
         style="stop-color:#fc4444;stop-opacity:1"
         offset="1" />
    </linearGradient>
  </defs>
  <path
     d="m 251.22214,30.990425 c 121.62964,0 220.22213,98.592495 220.22213,220.222135 0,121.62965 -98.59249,220.22214 -220.22213,220.22214 C 129.59249,471.4347 31,372.84221 31,251.21256 31,129.58292 129.59249,30.990425 251.22214,30.990425 Z"
     id="path17"
     style="fill:none;fill-opacity:0.99607842999999996;stroke-width:8;stroke:#000000;stroke-opacity:1;stroke-miterlimit:4;stroke-dasharray:none" />
  <path
     id="path27"
     style="fill:#000000;fill-rule:evenodd;stroke:none;stroke-width:9.57487582999999987;fill-opacity:1"
     d="M 131.36385,189.32057 231.48832,366.2164 c 0,0 5.41938,9.46955 19.06358,9.46955 13.63462,0 19.06357,-9.46955 19.06357,-9.46955 0,0 69.5902,-106.58752 97.9797,-163.44313 2.85332,-5.70662 5.92685,-11.48027 7.21946,-17.74224 0.88089,-4.25125 1.30218,-8.80889 0.28725,-13.03141 -1.23516,-5.15128 -3.61931,-10.41746 -7.50671,-14.00804 -4.49061,-4.14592 -10.72386,-6.69284 -16.79433,-7.32478 -6.53006,-0.68939 -13.491,0.88089 -19.34125,3.93527 -4.10762,2.16393 -7.75565,5.62046 -10.05362,9.67063 -2.27882,4.01187 -2.86288,8.87591 -3.1214,13.48142 -0.17235,3.16929 0.45001,6.35772 1.10111,9.45998 0.22022,1.06281 0.58406,2.0969 0.94791,3.11183 0.92876,2.5948 2.19265,5.05554 3.14056,7.64075 0.78514,2.12563 1.87667,4.21295 2.12562,6.47262 0.40214,3.63845 0.3064,7.52585 -1.03409,10.92493 -6.53964,16.54539 -17.78054,32.45883 -32.64075,42.17733 -6.15664,4.02145 -14.03676,5.02681 -21.38069,5.34278 -8.37802,0.35427 -18.02949,-0.3064 -24.82766,-4.0023 -6.79816,-3.6959 -9.99617,-10.11107 -14.25699,-15.76982 -19.55189,-25.94791 -51.51283,-82.78437 -51.51283,-82.78437 0,0 -13.89314,-24.55956 -38.89314,-9.67063 -24.99043,14.89851 -9.7185,38.6825 -9.7185,38.6825 z" />
</svg>
