<?xml version="1.0" encoding="UTF-8" standalone="no"?>
<!-- Created with Inkscape (http://www.inkscape.org/) -->

<svg
   xmlns:dc="http://purl.org/dc/elements/1.1/"
   xmlns:cc="http://creativecommons.org/ns#"
   xmlns:rdf="http://www.w3.org/1999/02/22-rdf-syntax-ns#"
   xmlns:svg="http://www.w3.org/2000/svg"
   xmlns="http://www.w3.org/2000/svg"
   xmlns:sodipodi="http://sodipodi.sourceforge.net/DTD/sodipodi-0.dtd"
   xmlns:inkscape="http://www.inkscape.org/namespaces/inkscape"
   width="512"
   height="512"
   viewBox="0 0 512.00001 512.00001"
   id="svg2"
   version="1.1"
   inkscape:version="0.48.5 r10040"
   sodipodi:docname="whatsapp.svg">
  <defs
     id="defs4" />
  <sodipodi:namedview
     id="base"
     pagecolor="#ffffff"
     bordercolor="#666666"
     borderopacity="1.0"
     inkscape:pageopacity="0.0"
     inkscape:pageshadow="2"
     inkscape:zoom="2.8284271"
     inkscape:cx="300.58647"
     inkscape:cy="260.24845"
     inkscape:document-units="px"
     inkscape:current-layer="layer1"
     showgrid="false"
     units="px"
     inkscape:window-width="1920"
     inkscape:window-height="1007"
     inkscape:window-x="0"
     inkscape:window-y="31"
     inkscape:window-maximized="1" />
  <metadata
     id="metadata7">
    <rdf:RDF>
      <cc:Work
         rdf:about="">
        <dc:format>image/svg+xml</dc:format>
        <dc:type
           rdf:resource="http://purl.org/dc/dcmitype/StillImage" />
        <dc:title />
      </cc:Work>
    </rdf:RDF>
  </metadata>
  <g
     inkscape:label="Capa 1"
     inkscape:groupmode="layer"
     id="layer1"
     transform="translate(0,-540.36214)">
    <path
       inkscape:connector-curvature="0"
       id="path4149"
       d="m 228.54481,996.34949 c -26.53741,-3.61837 -56.89056,-14.23876 -77.03044,-26.95252 -2.43873,-1.53949 -5.89015,-2.78313 -7.66982,-2.76361 -1.77967,0.0195 -19.00488,4.20031 -38.27824,9.29069 -19.273364,5.09039 -35.479609,8.81813 -36.013859,8.28386 -0.534268,-0.53426 3.505144,-17.2002 8.976477,-37.03544 l 9.947855,-36.06408 -6.401584,-10.74963 C 42.155339,833.32477 43.451305,750.52318 85.422557,686.4892 116.31578,639.35653 162.0562,608.41057 217.41162,597.1912 c 11.32456,-2.29525 16.71375,-2.66494 38.84895,-2.66494 28.5569,0 40.82503,1.73578 62.56512,8.85216 12.02169,3.93516 34.46555,14.23847 43.74105,20.08021 17.89496,11.27029 40.04165,30.8078 51.9532,45.83241 42.78602,53.968 55.63809,124.78153 34.40884,189.58869 -2.21713,6.76831 -6.8797,18.13448 -10.36125,25.25815 C 400.209,962.62387 315.01793,1008.14 228.54481,996.34949 Z"
       style="fill:none;stroke:#000000;stroke-width:44.09600085999999663;stroke-linecap:butt;stroke-linejoin:miter;stroke-miterlimit:100;stroke-dasharray:none;stroke-opacity:1;fill-opacity:1"
       sodipodi:nodetypes="sssssscssssssssss" />
    <path
       inkscape:connector-curvature="0"
       id="path4149-2"
       d="m 325.95069,887.39596 c 7.59127,-2.3447 19.96762,-10.5213 24.07282,-15.90405 4.1852,-5.48761 6.37415,-13.13291 6.40688,-22.37723 l 0.0267,-7.55875 -20.31413,-10.16777 c -21.95954,-10.9914 -25.99931,-12.59254 -29.53367,-11.70547 -1.36913,0.34363 -4.24285,3.17418 -7.08036,6.97403 -8.8511,11.85295 -15.21162,18.20617 -18.22705,18.20617 -3.8184,0 -20.76682,-8.1399 -30.7152,-14.75175 -4.60312,-3.0593 -12.13178,-9.14008 -16.73037,-13.51285 -11.87227,-11.28924 -26.21191,-30.84336 -26.21191,-35.74363 0,-1.07525 2.77216,-5.21697 6.16035,-9.20383 7.04027,-8.28423 9.90197,-13.33164 9.90197,-17.46489 0,-4.66771 -16.61457,-43.70627 -19.96698,-46.91559 -2.74576,-2.62857 -3.14947,-2.71661 -12.45812,-2.71661 -11.54632,0 -13.92101,1.13115 -21.36533,10.17706 -16.3644,19.88505 -17.58662,44.08335 -3.58589,70.99455 4.39225,8.44245 17.7755,27.67252 26.69056,38.351 8.40124,10.06301 26.04072,27.02217 35.03998,33.68852 17.29567,12.81208 38.17715,22.30653 64.14688,29.16647 11.23926,2.96887 25.02062,3.15863 33.74283,0.46462 z"
       style="fill:#000000;fill-opacity:1;stroke:none;stroke-opacity:1"
       sodipodi:nodetypes="ssscsssssssssssssssss" />
  </g>
</svg>
