<?xml version="1.0" encoding="UTF-8" standalone="no"?>
<!-- Created with Inkscape (http://www.inkscape.org/) -->

<svg
   xmlns:dc="http://purl.org/dc/elements/1.1/"
   xmlns:cc="http://creativecommons.org/ns#"
   xmlns:rdf="http://www.w3.org/1999/02/22-rdf-syntax-ns#"
   xmlns:svg="http://www.w3.org/2000/svg"
   xmlns="http://www.w3.org/2000/svg"
   xmlns:sodipodi="http://sodipodi.sourceforge.net/DTD/sodipodi-0.dtd"
   xmlns:inkscape="http://www.inkscape.org/namespaces/inkscape"
   id="svg2"
   version="1.1"
   inkscape:version="0.48.5 r10040"
   width="512"
   height="512"
   sodipodi:docname="winamp.svg">
  <metadata
     id="metadata8">
    <rdf:RDF>
      <cc:Work
         rdf:about="">
        <dc:format>image/svg+xml</dc:format>
        <dc:type
           rdf:resource="http://purl.org/dc/dcmitype/StillImage" />
        <dc:title />
      </cc:Work>
    </rdf:RDF>
  </metadata>
  <defs
     id="defs6" />
  <sodipodi:namedview
     pagecolor="#ffffff"
     bordercolor="#666666"
     borderopacity="1"
     objecttolerance="10"
     gridtolerance="10"
     guidetolerance="10"
     inkscape:pageopacity="0"
     inkscape:pageshadow="2"
     inkscape:window-width="1920"
     inkscape:window-height="1007"
     id="namedview4"
     showgrid="false"
     inkscape:zoom="1.84375"
     inkscape:cx="157.66169"
     inkscape:cy="298.87465"
     inkscape:window-x="0"
     inkscape:window-y="31"
     inkscape:window-maximized="1"
     inkscape:current-layer="svg2"
     showguides="true"
     inkscape:guide-bbox="true" />
  <rect
     style="opacity:1;fill:none;fill-opacity:1;stroke:#000000;stroke-width:32;stroke-miterlimit:4;stroke-dasharray:none;stroke-dashoffset:0;stroke-opacity:1"
     id="rect3333"
     width="459.93219"
     height="459.93219"
     x="26.033909"
     y="26.033897"
     ry="48.349998" />
  <rect
     style="opacity:1;fill:none;fill-opacity:1;stroke:#000000;stroke-width:16.00000001;stroke-miterlimit:4;stroke-dasharray:none;stroke-dashoffset:0;stroke-opacity:1"
     id="rect3335"
     width="283.58624"
     height="283.58624"
     x="220.65421"
     y="-142.1093"
     transform="matrix(0.70840604,0.70580513,-0.70580513,0.70840604,0,0)" />
  <path
     style="opacity:1;fill:#000000;fill-opacity:1;stroke:none;stroke-width:60;stroke-miterlimit:4;stroke-dasharray:none;stroke-dashoffset:0;stroke-opacity:1"
     d="m 112.66755,395.95993 c 12.10842,-13.85281 101.68289,-105.0874 106.24083,-108.20983 6.20199,-4.2487 20.05053,-20.4714 18.66381,-21.86348 -36.13533,-1.45319 -62.13317,-1.33925 -98.30395,-1.23399 81.73016,-54.02828 167.80908,-108.92946 235.55394,-151.20265 13.53137,-8.54142 24.85037,-15.272119 25.15334,-14.957105 0.30298,0.315013 -26.35143,28.003355 -59.23201,61.529655 -32.88056,33.52631 -59.39016,61.59231 -58.91019,62.36891 34.3582,0.19818 55.77349,0.26909 89.14277,0.74569 -116.65076,81.86981 -116.5428,81.9127 -264.01369,180.43984 -0.524,0 2.04332,-3.42766 5.70515,-7.61704 z"
     id="path3430"
     inkscape:connector-curvature="0"
     sodipodi:nodetypes="ssccccscccs" />
</svg>
