<?xml version="1.0" encoding="UTF-8" standalone="no"?>
<!-- Created with Inkscape (http://www.inkscape.org/) -->

<svg
   xmlns:dc="http://purl.org/dc/elements/1.1/"
   xmlns:cc="http://creativecommons.org/ns#"
   xmlns:rdf="http://www.w3.org/1999/02/22-rdf-syntax-ns#"
   xmlns:svg="http://www.w3.org/2000/svg"
   xmlns="http://www.w3.org/2000/svg"
   xmlns:sodipodi="http://sodipodi.sourceforge.net/DTD/sodipodi-0.dtd"
   xmlns:inkscape="http://www.inkscape.org/namespaces/inkscape"
   width="512"
   height="512"
   id="svg2"
   version="1.1"
   inkscape:version="0.48.5 r10040"
   sodipodi:docname="wine-winecfg.svg"
   viewBox="0 0 512 512">
  <defs
     id="defs4">
    <linearGradient
       gradientTransform="rotate(-90,23.999998,24)"
       gradientUnits="userSpaceOnUse"
       x2="47"
       x1="1"
       id="linearGradient3764">
      <stop
         id="stop7"
         stop-opacity="1"
         stop-color="#e4e4e4" />
      <stop
         id="stop9"
         stop-opacity="1"
         stop-color="#eee"
         offset="1" />
    </linearGradient>
    <clipPath
       id="clipPath-417599645">
      <g
         id="g17"
         transform="translate(0,-1004.3622)">
        <path
           style="fill:#1890d0"
           inkscape:connector-curvature="0"
           id="path19"
           transform="matrix(15.333333,0,0,11.5,414.99999,878.8622)"
           d="m -24,13 c 0,1.105 -0.672,2 -1.5,2 -0.828,0 -1.5,-0.895 -1.5,-2 0,-1.105 0.672,-2 1.5,-2 0.828,0 1.5,0.895 1.5,2 z" />
      </g>
    </clipPath>
    <clipPath
       id="clipPath16"
       clipPathUnits="userSpaceOnUse">
      <path
         inkscape:connector-curvature="0"
         id="path18"
         d="m 0,0 656.967,0 0,490.475 L 0,490.475 0,0 Z" />
    </clipPath>
    <linearGradient
       id="linearGradient24"
       spreadMethod="pad"
       gradientTransform="matrix(-6.31e-5,1444.0616,-1444.0616,-6.31e-5,328.48291,-628.00391)"
       gradientUnits="userSpaceOnUse"
       y2="0"
       x2="1"
       y1="0"
       x1="0">
      <stop
         id="stop26"
         offset="0"
         style="stop-opacity:1;stop-color:#ffffff" />
      <stop
         id="stop28"
         offset="0.05086908"
         style="stop-opacity:1;stop-color:#ffffff" />
      <stop
         id="stop30"
         offset="0.460674"
         style="stop-opacity:1;stop-color:#f87d32" />
      <stop
         id="stop32"
         offset="1"
         style="stop-opacity:1;stop-color:#ff1200" />
    </linearGradient>
    <clipPath
       id="clipPath40"
       clipPathUnits="userSpaceOnUse">
      <path
         inkscape:connector-curvature="0"
         id="path42"
         d="m 0,490.475 656.967,0 L 656.967,0 0,0 0,490.475 Z" />
    </clipPath>
  </defs>
  <sodipodi:namedview
     id="base"
     pagecolor="#ffffff"
     bordercolor="#666666"
     borderopacity="1.0"
     inkscape:pageopacity="0.0"
     inkscape:pageshadow="2"
     inkscape:zoom="2.2041844"
     inkscape:cx="262.94314"
     inkscape:cy="273.84958"
     inkscape:document-units="px"
     inkscape:current-layer="layer1"
     showgrid="false"
     inkscape:window-width="1920"
     inkscape:window-height="1007"
     inkscape:window-x="0"
     inkscape:window-y="31"
     inkscape:window-maximized="1" />
  <metadata
     id="metadata7">
    <rdf:RDF>
      <cc:Work
         rdf:about="">
        <dc:format>image/svg+xml</dc:format>
        <dc:type
           rdf:resource="http://purl.org/dc/dcmitype/StillImage" />
        <dc:title />
      </cc:Work>
    </rdf:RDF>
  </metadata>
  <g
     inkscape:label="Capa 1"
     inkscape:groupmode="layer"
     id="layer1"
     transform="translate(0,-540.3622)">
    <path
       sodipodi:nodetypes="ssssssssssssssssssssscsssssssssssssssssssscssssssssssssssssssscsscsscsssssscssssssssssssssssscsssssssssssssssss"
       inkscape:connector-curvature="0"
       id="path2986"
       d="m 108.02614,858.49118 c -2.06963,-2.20457 -3.54871,-6.24016 -3.52963,-9.63047 0.01,-1.74734 1.82471,-7.71631 5.18729,-17.06063 2.84469,-7.90515 5.20996,-15.08291 5.25613,-15.95058 0.0613,-1.15092 -1.32039,-2.84226 -5.10845,-6.2535 -2.85585,-2.57176 -7.00641,-6.79598 -9.22346,-9.38714 -2.217065,-2.59116 -4.64488,-4.96949 -5.395169,-5.28512 -0.841489,-0.354 -7.031093,1.42393 -16.155465,4.64057 -8.135224,2.86793 -15.944076,5.29793 -17.353007,5.40006 -2.900145,0.21023 -8.344188,-1.84729 -10.675011,-4.03441 -1.853299,-1.73902 -15.407935,-34.29872 -15.70504,-37.72519 -0.294687,-3.39847 2.081796,-8.52404 5.086654,-10.9708 1.367845,-1.1138 8.771095,-4.84525 16.45167,-8.29212 8.267824,-3.71045 14.191824,-6.7988 14.521508,-7.57048 0.306251,-0.7169 0.37505,-4.07871 0.152874,-7.47074 -0.222182,-3.39204 -0.199963,-9.27692 0.04943,-13.07749 0.249331,-3.8006 0.08138,-7.35584 -0.373098,-7.90055 -0.454538,-0.5447 -7.039014,-4.01449 -14.632147,-7.71059 -8.83084,-4.29856 -14.64706,-7.48989 -16.140468,-8.85614 -2.845984,-2.60368 -4.967479,-8.31244 -4.262655,-11.47044 0.285874,-1.28086 3.954218,-10.11802 8.151881,-19.63812 l 7.63211,-17.30928 3.085257,-1.65833 c 5.45227,-2.93061 7.315919,-2.67137 24.765021,3.44476 9.876201,3.4617 15.993123,5.30113 16.68742,5.01808 0.602852,-0.24569 3.447458,-2.92138 6.321373,-5.9458 2.87391,-3.02438 7.06742,-7.05333 9.31889,-8.95312 2.25148,-1.89983 4.32021,-3.98465 4.59716,-4.63294 0.27695,-0.64828 -1.65027,-7.25454 -4.28271,-14.68054 -2.63246,-7.42602 -5.08533,-14.68165 -5.45085,-16.12365 -1.02805,-4.05567 -0.19463,-8.19171 2.3229,-11.52803 1.9009,-2.51913 3.8329,-3.50553 19.12241,-9.76282 9.35435,-3.82828 18.34535,-7.0599 19.98004,-7.18134 3.79339,-0.28181 8.75339,1.7788 11.17661,4.6433 1.02035,1.20617 4.69289,8.37969 8.16121,15.9412 3.46833,7.56146 6.59814,14.12679 6.95518,14.58959 0.37625,0.48776 3.89043,0.70817 8.35964,0.52436 4.24077,-0.17452 10.44729,-0.11066 13.79225,0.14178 4.53545,0.34224 6.43755,0.14205 7.48111,-0.78776 0.76964,-0.68569 4.45851,-7.40673 8.19747,-14.93567 7.1907,-14.47945 8.70456,-16.60959 13.15243,-18.50682 4.94764,-2.11038 7.04461,-1.57209 26.12332,6.70583 l 17.37741,7.53976 1.96471,2.94411 c 3.38028,5.06531 3.12889,7.22471 -2.81725,24.19961 -2.87824,8.21671 -5.35279,15.62347 -5.49897,16.45941 -0.20574,1.17644 0.89773,2.56767 4.88374,6.15717 2.83227,2.5505 7.19902,7.03037 9.70389,9.95531 2.50489,2.92492 4.80935,5.4253 5.121,5.55642 0.31165,0.13123 7.31043,-2.14119 15.5528,-5.04949 8.24239,-2.90836 16.32713,-5.3955 17.96613,-5.52702 3.87434,-0.31089 8.58858,1.69002 11.34523,4.81539 1.3089,1.48392 4.74499,8.89028 8.76312,18.88839 6.8973,17.16228 7.25701,18.94512 4.92761,24.42354 -1.64749,3.87477 -4.46966,5.68402 -19.65844,12.60276 -8.25864,3.76193 -15.12681,7.09998 -15.26262,7.41784 -0.1358,0.31789 -0.0758,4.24106 0.13359,8.7182 0.20915,4.4771 0.12843,10.58993 -0.17968,13.58403 -0.38274,3.71959 -0.21869,5.79461 0.51803,6.5513 0.59304,0.60911 7.57918,4.33059 15.52481,8.26994 15.76821,7.81776 18.0947,9.57666 19.1911,14.50938 1.03649,4.66309 0.18787,7.47411 -7.5134,24.88697 l -7.36685,16.65679 -3.17607,1.96242 c -5.67136,3.50423 -6.67427,3.38407 -25.14038,-3.0117 -9.02295,-3.12512 -16.62466,-5.59401 -16.89271,-5.48639 -0.26803,0.10769 -2.54771,2.43378 -5.06593,5.16929 -2.51822,2.73553 -7.00112,7.01682 -9.962,9.51403 -2.96089,2.49719 -5.46014,4.96977 -5.55392,5.49462 -0.0938,0.52487 2.13682,7.40045 4.95685,15.27909 2.82004,7.87863 5.23649,15.90765 5.36987,17.84224 0.28335,4.10931 -1.08633,7.7581 -3.95791,10.54369 -2.53415,2.45827 -33.0855,15.0121 -37.31707,15.33395 -3.53819,0.2692 -8.8923,-1.79446 -11.36991,-4.38213 -0.94924,-0.99143 -4.71416,-8.28882 -8.36649,-16.21645 -3.65233,-7.92763 -7.11459,-14.61487 -7.6939,-14.8605 -0.57925,-0.24568 -4.51165,-0.32242 -8.73855,-0.17047 -4.22689,0.15181 -10.35337,0.0566 -13.6144,-0.21159 -4.5073,-0.37077 -6.14501,-0.19374 -6.82924,0.73773 -0.49503,0.67402 -4.13168,7.57946 -8.08142,15.34544 -8.68731,17.08098 -10.1783,18.70158 -17.67024,19.20615 -2.17241,0.1464 -5.19817,-0.94396 -20.16557,-7.26612 -13.24672,-5.5954 -18.00588,-7.86039 -19.20888,-9.14182 z m 59.31128,-67.11625 c 16.60145,5.03383 32.56929,4.32992 48.67413,-2.14569 12.2746,-4.93552 21.93859,-12.202 30.46016,-22.90335 5.34223,-6.70878 12.49154,-23.47776 13.66416,-32.04996 3.55865,-26.01415 -5.92885,-50.26096 -26.21235,-66.98986 -4.72624,-3.89798 -6.13178,-4.67038 -16.6469,-9.14784 -10.07159,-4.28853 -12.25209,-4.99334 -17.72026,-5.72746 -27.30301,-3.66542 -54.35443,7.97322 -69.81331,30.03658 -13.88891,19.82264 -16.65723,44.8546 -7.47046,67.55013 4.81012,11.88321 13.06422,22.59 23.5579,30.55813 2.99231,2.27216 7.47665,4.93966 14.03113,8.34639 0.52363,0.2722 3.88773,1.38499 7.4758,2.47293 z m -4.61884,-34.21298 c -14.83764,-11.56493 -20.52198,-30.65975 -14.30985,-48.06963 4.34344,-12.1728 12.48134,-20.59435 24.55965,-25.41566 21.99644,-8.78037 46.75341,1.46557 55.56883,22.99778 7.26087,17.73509 2.71766,36.70314 -11.72553,48.95439 -12.30185,10.43493 -27.88668,13.09059 -43.15978,7.35448 -5.19958,-1.95282 -7.63085,-3.24732 -10.93332,-5.82136 z m 25.78532,-8.56211 c 5.36507,0.22863 14.79398,-2.5421 19.12245,-6.25929 3.05442,-2.62304 3.72341,-3.64253 6.21065,-9.46418 2.64587,-6.19305 1.0333,-6.78215 0.56682,-11.59653 -0.94163,-9.71834 -5.63709,-16.41743 -14.49279,-20.67713 -7.11385,-3.42183 -12.11762,-3.72429 -19.3986,-1.17259 -9.23136,3.23526 -15.46252,10.51041 -16.86179,19.68683 -1.21112,7.94266 0.62926,14.45596 5.80472,20.54348 4.82825,5.6791 11.04855,8.59825 19.04854,8.93941 z"
       style="fill:#000000;fill-opacity:1;stroke-width:0.92463863" />
    <g
       id="g33"
       transform="matrix(7.6318118,0,0,7.6318118,-168.79796,893.64102)" />
    <g
       transform="matrix(0.61807595,0,0,-0.58071954,478.49382,828.84575)"
       id="g44"
       style="fill:#000000;fill-opacity:1">
      <path
         inkscape:connector-curvature="0"
         id="path46"
         style="fill:#000000;fill-opacity:1;fill-rule:evenodd;stroke:none"
         d="m 0,0 c 9.067,-66.741 -61.878,-98.854 -130.405,-82.552 -37.209,8.852 -60.527,47.425 -47.855,89.73 C -117.202,28.167 -65.639,-14.318 0,0" />
    </g>
    <g
       transform="matrix(0.61807595,0,0,-0.58071954,489.21476,832.99301)"
       id="g48">
      <path
         inkscape:connector-curvature="0"
         id="path50"
         style="fill:#000000;fill-opacity:1;fill-rule:nonzero;stroke:none"
         d="m 0,0 c -2.583,36.064 -13.782,68.898 -27.839,100.917 -1.413,3.225 -7.124,2.153 -11.599,2.319 8.728,-32.798 28.519,-68.27 28.999,-105.556 0.763,-59.234 -43.368,-85.847 -98.935,-88.35 -55.568,2.503 -99.697,29.116 -98.934,88.35 0.48,37.286 20.27,72.758 28.999,105.556 -4.475,-0.166 -10.187,0.906 -11.6,-2.319 C -204.965,68.898 -216.165,36.064 -218.747,0 c -0.552,-7.699 -0.915,-17.338 0,-25.519 6.074,-54.317 61.671,-59.655 88.156,-92.798 15.767,-19.726 16.548,-160.154 9.279,-182.112 -5.589,-16.893 -28.436,-21.778 -47.558,-24.36 -6.972,-0.942 -18.38,1.242 -22.039,-6.961 19.547,-4.205 50.768,-5.571 81.535,-5.45 30.767,-0.121 61.988,1.245 81.535,5.45 -3.658,8.203 -15.067,6.019 -22.039,6.961 -19.122,2.582 -41.968,7.467 -47.558,24.36 -7.269,21.958 -6.487,162.386 9.28,182.112 C -61.672,-85.174 -6.074,-79.836 0,-25.519 0.914,-17.338 0.552,-7.699 0,0" />
    </g>
  </g>
</svg>
