<?xml version="1.0" encoding="UTF-8" standalone="no"?>
<!-- Generator: flash2svg, http://dissentgraphics.com/tools/flash2svg -->

<svg
   xmlns:dc="http://purl.org/dc/elements/1.1/"
   xmlns:cc="http://creativecommons.org/ns#"
   xmlns:rdf="http://www.w3.org/1999/02/22-rdf-syntax-ns#"
   xmlns:svg="http://www.w3.org/2000/svg"
   xmlns="http://www.w3.org/2000/svg"
   xmlns:xlink="http://www.w3.org/1999/xlink"
   xmlns:sodipodi="http://sodipodi.sourceforge.net/DTD/sodipodi-0.dtd"
   xmlns:inkscape="http://www.inkscape.org/namespaces/inkscape"
   id="Notes"
   version="1.1"
   style="image-rendering:optimizeSpeed"
   x="0px"
   y="0px"
   width="512"
   height="512"
   viewBox="0 0 512 512"
   enable-background="new 0 0 1024 1024"
   inkscape:version="0.48.5 r10040"
   sodipodi:docname="wine-notepad.svg">
  <sodipodi:namedview
     pagecolor="#ffffff"
     bordercolor="#666666"
     borderopacity="1"
     objecttolerance="10"
     gridtolerance="10"
     guidetolerance="10"
     inkscape:pageopacity="0"
     inkscape:pageshadow="2"
     inkscape:window-width="1920"
     inkscape:window-height="1007"
     id="namedview40"
     showgrid="false"
     inkscape:zoom="1.3037281"
     inkscape:cx="438.3564"
     inkscape:cy="182.29729"
     inkscape:window-x="0"
     inkscape:window-y="31"
     inkscape:window-maximized="1"
     inkscape:current-layer="Notes" />
  <metadata
     id="metadata42">
    <rdf:RDF>
      <cc:Work
         rdf:about="">
        <dc:format>image/svg+xml</dc:format>
        <dc:type
           rdf:resource="http://purl.org/dc/dcmitype/StillImage" />
        <dc:title />
      </cc:Work>
    </rdf:RDF>
  </metadata>
  <defs
     transform="matrix(1 0 0 1 0 0) "
     id="defs3">
    <clipPath
       clipPathUnits="userSpaceOnUse"
       id="clipPath4157">
      <path
         d="m 27.642964,3.2951379 13.085584,13.0855841 -11.072418,0 c -0.977824,0 -2.013166,-1.035372 -2.013166,-2.013167 l 0,-11.0724171 z"
         id="path4159"
         inkscape:connector-curvature="0"
         style="fill:#f9f8f2;fill-opacity:1;stroke-width:1.00658333" />
    </clipPath>
    <filter
       inkscape:collect="always"
       style="color-interpolation-filters:sRGB"
       id="filter4201"
       x="-0.059999999"
       width="1.12"
       y="-0.059999999"
       height="1.12">
      <feGaussianBlur
         inkscape:collect="always"
         stdDeviation="0.2826087"
         id="feGaussianBlur4203" />
    </filter>
    <linearGradient
       gradientUnits="userSpaceOnUse"
       y2="194.90317"
       x2="427.13629"
       y1="194.41582"
       x1="384.72128"
       id="linearGradient4218"
       xlink:href="#linearGradient4212"
       inkscape:collect="always"
       gradientTransform="translate(-14.368855,-6.1842151)" />
    <linearGradient
       id="linearGradient4212"
       inkscape:collect="always">
      <stop
         id="stop4214"
         offset="0"
         style="stop-color:#000000;stop-opacity:1;" />
      <stop
         id="stop4216"
         offset="1"
         style="stop-color:#000000;stop-opacity:0;" />
    </linearGradient>
  </defs>
  <path
     d="m 109.00073,35.437302 c -9.257707,0 -18.000615,9.411202 -18.000615,19.376571 l 0,406.907847 c 0,9.41148 9.257715,19.37656 18.000615,19.37656 l 288.01013,0 c 8.74319,0 18.00065,-9.96537 18.00065,-19.37656 l 0,-300.33675 L 298.0074,35.437302 Z"
     id="path4-8"
     inkscape:connector-curvature="0"
     style="fill:none;fill-opacity:1;stroke-width:9.33796500999999957;image-rendering:optimizeSpeed;stroke:#000000;stroke-opacity:1" />
  <path
     d="m 298.0074,35.437302 117.00411,125.947668 -99.00349,0 c -8.74317,0 -18.00062,-9.96536 -18.00062,-19.37656 l 0,-106.571108 z"
     id="path8-2"
     inkscape:connector-curvature="0"
     style="fill:#000000;fill-opacity:1;stroke-width:9.33796500999999957;image-rendering:optimizeSpeed" />
  <path
     id="path4161"
     d="m 292.90157,222.21563 c -5.54034,5.2297 -18.3494,16.22928 -18.3494,16.22928 l 30.02063,30.24207 c 0,0 12.99398,-13.3527 18.86428,-18.89389 1.45891,-1.37712 1.27063,-4.46277 -0.18832,-5.83986 -4.55189,-4.29673 -12.10125,-11.27281 -12.10125,-11.27281 0,0 -7.10742,-6.75718 -11.4836,-10.88801 -1.5974,-1.50784 -5.16497,-1.08463 -6.76241,0.42323 z m -31.54223,27.0282 -80.24429,75.59241 0.69238,29.89998 31.32422,-0.17883 79.36797,-74.89787 z"
     style="fill:#000000;fill-opacity:1;fill-rule:evenodd;stroke:none;stroke-width:2.69071721999999980px;stroke-linecap:butt;stroke-linejoin:miter;stroke-opacity:1;image-rendering:optimizeSpeed"
     inkscape:connector-curvature="0" />
  <g
     transform="matrix(0.45712478,0,0,-0.45712478,390.12333,342.79163)"
     id="g44"
     style="fill:#000000;fill-opacity:1">
    <path
       inkscape:connector-curvature="0"
       id="path46"
       style="fill:#000000;fill-opacity:1;fill-rule:evenodd;stroke:none"
       d="m 0,0 c 9.067,-66.741 -61.878,-98.854 -130.405,-82.552 -37.209,8.852 -60.527,47.425 -47.855,89.73 C -117.202,28.167 -65.639,-14.318 0,0" />
  </g>
  <g
     transform="matrix(0.45712478,0,0,-0.45712478,398.05247,346.05623)"
     id="g48">
    <path
       inkscape:connector-curvature="0"
       id="path50"
       style="fill:#000000;fill-opacity:1;fill-rule:nonzero;stroke:none"
       d="m 0,0 c -2.583,36.064 -13.782,68.898 -27.839,100.917 -1.413,3.225 -7.124,2.153 -11.599,2.319 8.728,-32.798 28.519,-68.27 28.999,-105.556 0.763,-59.234 -43.368,-85.847 -98.935,-88.35 -55.568,2.503 -99.697,29.116 -98.934,88.35 0.48,37.286 20.27,72.758 28.999,105.556 -4.475,-0.166 -10.187,0.906 -11.6,-2.319 C -204.965,68.898 -216.165,36.064 -218.747,0 c -0.552,-7.699 -0.915,-17.338 0,-25.519 6.074,-54.317 61.671,-59.655 88.156,-92.798 15.767,-19.726 16.548,-160.154 9.279,-182.112 -5.589,-16.893 -28.436,-21.778 -47.558,-24.36 -6.972,-0.942 -18.38,1.242 -22.039,-6.961 19.547,-4.205 50.768,-5.571 81.535,-5.45 30.767,-0.121 61.988,1.245 81.535,5.45 -3.658,8.203 -15.067,6.019 -22.039,6.961 -19.122,2.582 -41.968,7.467 -47.558,24.36 -7.269,21.958 -6.487,162.386 9.28,182.112 C -61.672,-85.174 -6.074,-79.836 0,-25.519 0.914,-17.338 0.552,-7.699 0,0" />
  </g>
</svg>
