<?xml version="1.0" encoding="UTF-8" standalone="no"?>
<svg
   xmlns:dc="http://purl.org/dc/elements/1.1/"
   xmlns:cc="http://creativecommons.org/ns#"
   xmlns:rdf="http://www.w3.org/1999/02/22-rdf-syntax-ns#"
   xmlns:svg="http://www.w3.org/2000/svg"
   xmlns="http://www.w3.org/2000/svg"
   xmlns:sodipodi="http://sodipodi.sourceforge.net/DTD/sodipodi-0.dtd"
   xmlns:inkscape="http://www.inkscape.org/namespaces/inkscape"
   viewBox="0 0 128 128"
   id="svg2"
   version="1.1"
   inkscape:version="0.48.5 r10040"
   width="100%"
   height="100%"
   sodipodi:docname="zaz.svg">
  <metadata
     id="metadata40">
    <rdf:RDF>
      <cc:Work
         rdf:about="">
        <dc:format>image/svg+xml</dc:format>
        <dc:type
           rdf:resource="http://purl.org/dc/dcmitype/StillImage" />
        <dc:title />
      </cc:Work>
    </rdf:RDF>
  </metadata>
  <sodipodi:namedview
     pagecolor="#ffffff"
     bordercolor="#666666"
     borderopacity="1"
     objecttolerance="10"
     gridtolerance="10"
     guidetolerance="10"
     inkscape:pageopacity="0"
     inkscape:pageshadow="2"
     inkscape:window-width="1920"
     inkscape:window-height="1007"
     id="namedview38"
     showgrid="false"
     inkscape:zoom="6.9532168"
     inkscape:cx="47.816688"
     inkscape:cy="77.423097"
     inkscape:window-x="0"
     inkscape:window-y="31"
     inkscape:window-maximized="1"
     inkscape:current-layer="svg2" />
  <defs
     id="defs4">
    <clipPath
       id="clipPath6">
      <g
         transform="translate(0,-1004.3622)"
         id="g8">
        <path
           d="m -24,13 c 0,1.105 -0.672,2 -1.5,2 -0.828,0 -1.5,-0.895 -1.5,-2 0,-1.105 0.672,-2 1.5,-2 0.828,0 1.5,0.895 1.5,2 z"
           transform="matrix(15.333333,0,0,11.5,414.99999,878.8622)"
           id="path10"
           inkscape:connector-curvature="0"
           style="fill:#1890d0" />
      </g>
    </clipPath>
    <clipPath
       id="clipPath12">
      <g
         transform="translate(0,-1004.3622)"
         id="g14">
        <path
           d="m -24,13 c 0,1.105 -0.672,2 -1.5,2 -0.828,0 -1.5,-0.895 -1.5,-2 0,-1.105 0.672,-2 1.5,-2 0.828,0 1.5,0.895 1.5,2 z"
           transform="matrix(15.333333,0,0,11.5,414.99999,878.8622)"
           id="path16"
           inkscape:connector-curvature="0"
           style="fill:#1890d0" />
      </g>
    </clipPath>
  </defs>
  <path
     d="m 84.182846,15.25846 c -1.154315,0.05435 -2.290513,0.191523 -3.478475,0.323519 C 58.322041,18.027782 39.586416,27.500414 42.852663,51.492574 45.966209,61.81412 62.962596,66.454675 68.250189,64.029577 70.160244,56.790519 80.20227,43.052614 94.94179,49.87498 c 12.89417,7.399523 23.98698,27.832976 21.99928,48.367365 6.80943,-9.679684 10.83918,-21.476476 10.83918,-34.212768 0,-17.301789 -7.384,-32.87987 -19.16785,-43.75528 -0.0543,-0.02588 -0.10611,-0.05694 -0.16305,-0.08023 -6.44708,-2.963433 -13.427327,-4.749257 -20.782853,-4.933016 -1.149139,-0.02847 -2.321571,-0.05435 -3.478474,0 z"
     id="path26"
     style="fill:#000000;fill-opacity:1;fill-rule:evenodd;stroke:none"
     inkscape:connector-curvature="0" />
  <path
     d="m 66.239836,4.5021059 c -21.908698,0 -41.024781,11.8123201 -51.359268,29.4402161 -1.814294,16.095711 5.103833,30.242545 16.662516,36.881152 14.729167,6.824954 32.786697,0.445162 34.696752,-6.793897 C 60.952244,66.457263 43.958444,61.816708 40.84231,51.492574 37.576064,27.500414 56.311689,18.027782 78.694019,15.581979 88.676517,14.492367 98.053388,16.283368 106.51664,20.191476 95.918164,10.447087 81.773918,4.5072822 66.237248,4.5072822 z M 89.289909,48.578316 c 0.499513,0.129408 1.024908,0.30799 1.537362,0.486572 -0.527983,-0.18117 -1.02232,-0.357164 -1.537362,-0.486572 z"
     id="path28"
     style="fill:#000000;fill-opacity:1;fill-rule:evenodd;stroke:none"
     inkscape:connector-curvature="0" />
  <path
     d="M 85.15922,50.016687 C 74.70309,49.964927 67.790139,60.157063 66.232072,66.032166 67.132748,65.729352 85.32745,60.773043 88.717928,70.077446 91.984174,94.07737 76.160219,112.03395 53.777889,114.4901 c -9.982498,1.08961 -19.356781,-0.70139 -27.822623,-4.6095 10.598478,9.74439 24.742723,15.6842 40.279394,15.6842 20.140991,0 37.919,-10.00579 48.69088,-25.31468 1.97476,-20.518871 -9.11288,-40.952323 -21.999279,-48.367376 -2.758969,-1.283723 -5.357473,-1.850528 -7.764453,-1.86088 z"
     id="path30"
     style="fill:#000000;fill-opacity:1;fill-rule:nonzero;stroke:none"
     inkscape:connector-curvature="0" />
  <path
     d="m 10.880568,37.942322 c -5.173714,8.823007 -8.1682047,19.118672 -8.1682047,30.087255 0,17.3432 7.4150527,32.957513 19.2506667,43.838083 8.465842,3.9107 17.837537,5.69911 27.822623,4.6095 22.38233,-2.4458 38.206286,-20.392026 34.940039,-44.412655 -0.170818,-0.5461 -0.403752,-1.061142 -0.647038,-1.537362 -0.05176,-0.09059 -0.03106,-0.163053 -0.08023,-0.243286 -0.232934,-0.393399 -0.53316,-0.706565 -0.810092,-1.050789 -0.10094,-0.121643 -0.163055,-0.292461 -0.243288,-0.403752 -0.323519,-0.344224 -0.706565,-0.678095 -1.050789,-0.970556 -0.100938,-0.06988 -0.170818,-0.170818 -0.243286,-0.243287 -0.263992,-0.170818 -0.579746,-0.253638 -0.810092,-0.403751 -0.263991,-0.152701 -0.51763,-0.354577 -0.810091,-0.486573 -0.191523,-0.09059 -0.434809,-0.163053 -0.647038,-0.243286 -0.375282,-0.152701 -0.706565,-0.282108 -1.13361,-0.403751 -0.131996,-0.04141 -0.271756,-0.121643 -0.403751,-0.163054 -0.737623,-0.201876 -1.558067,-0.302814 -2.344865,-0.403751 -0.375282,-0.05176 -0.810091,-0.05176 -1.213843,-0.08023 -0.859266,-0.06988 -1.697827,-0.170818 -2.588151,-0.163054 -1.102552,0.01035 -2.212869,0.121643 -3.315421,0.243287 -1.081848,0.11129 -2.122284,0.212228 -3.154957,0.403751 -1.951465,0.789386 -2.153341,1.395014 -2.831437,2.021346 0.0207,-0.01035 -0.06988,-0.01035 -0.08023,0 -0.02071,0.01035 -0.05176,0.06988 -0.08023,0.08023 C 60.33755,75.245342 42.259315,81.635487 27.540501,74.810533 15.981813,68.177102 9.068862,54.027681 10.877979,37.929381 z"
     id="path32"
     style="fill:#000000;fill-opacity:1;fill-rule:nonzero;stroke:none"
     inkscape:connector-curvature="0" />
</svg>
