<?xml version="1.0" encoding="UTF-8" standalone="no"?>
<svg
   xmlns:sketch="http://www.bohemiancoding.com/sketch/ns"
   xmlns:osb="http://www.openswatchbook.org/uri/2009/osb"
   xmlns:dc="http://purl.org/dc/elements/1.1/"
   xmlns:cc="http://creativecommons.org/ns#"
   xmlns:rdf="http://www.w3.org/1999/02/22-rdf-syntax-ns#"
   xmlns:svg="http://www.w3.org/2000/svg"
   xmlns="http://www.w3.org/2000/svg"
   xmlns:sodipodi="http://sodipodi.sourceforge.net/DTD/sodipodi-0.dtd"
   xmlns:inkscape="http://www.inkscape.org/namespaces/inkscape"
   viewBox="0 0 24 24"
   id="svg2"
   version="1.1"
   inkscape:version="0.48.5 r10040"
   sodipodi:docname="checkmark.svg"
   width="24"
   height="24">
  <metadata
     id="metadata12">
    <rdf:RDF>
      <cc:Work
         rdf:about="">
        <dc:format>image/svg+xml</dc:format>
        <dc:type
           rdf:resource="http://purl.org/dc/dcmitype/StillImage" />
        <dc:title />
      </cc:Work>
    </rdf:RDF>
  </metadata>
<sodipodi:namedview
     pagecolor="#ffffff"
     bordercolor="#666666"
     borderopacity="1"
     objecttolerance="10"
     gridtolerance="10"
     guidetolerance="10"
     inkscape:pageopacity="0"
     inkscape:pageshadow="2"
     inkscape:window-width="1920"
     inkscape:window-height="1007"
     id="namedview8"
     showgrid="false"
     inkscape:zoom="13.412932"
     inkscape:cx="-6.3987371"
     inkscape:cy="1.0928832"
     inkscape:current-layer="svg2"
     inkscape:window-x="0"
     inkscape:window-y="31"
     inkscape:window-maximized="1" />
  <path
     inkscape:connector-curvature="0"
     id="rect4153"
     d="M 12,1 C 18.094,1 23,5.906 23,12 23,18.094 18.094,23 12,23 5.906,23 1,18.094 1,12 1,5.906 5.906,1 12,1 Z"
     style="opacity:1;fill:none;fill-opacity:1;stroke:#000000;stroke-opacity:1" />
  <g
     transform="matrix(1.03125,0,0,1.03125,-335.60555,-549.5439)"
     id="layer1-18"
     inkscape:label="Capa 1"
     style="fill:#000000;fill-opacity:1">
    <g
       inkscape:label="Capa 1"
       id="layer1-95"
       transform="matrix(0.79999998,0,0,0.79999998,16.542864,119.92381)"
       style="fill:#000000;fill-opacity:1">
      <g
         transform="matrix(1.1699988,0,0,1.1699988,-38.953026,-96.85732)"
         id="layer1-9-9"
         inkscape:label="Capa 1"
         style="fill:#000000;fill-opacity:1">
        <g
           style="fill:#000000;fill-opacity:1"
           inkscape:label="Capa 1"
           id="layer1-3-1"
           transform="matrix(1.3120824,0,0,1.3120824,-382.5677,-272.0713)">
          <g
             id="g5548"
             sketch:type="MSShapeGroup"
             transform="matrix(0.14300539,0,0,0.14300539,554.04072,610.29161)"
             style="fill:#000000;fill-opacity:1">
            <g
               id="correct8"
               sketch:type="MSLayerGroup"
               transform="matrix(0.7214167,0,0,0.7214167,123.07951,19.201456)"
               style="fill:#000000;fill-opacity:1">
              <path
                 d="m 121.35661,2.1136578 -11.08,-11.08 c -1.52,-1.5209998 -3.368,-2.2809998 -5.54,-2.2809998 -2.173,0 -4.021,0.76 -5.540997,2.2809998 l -53.446,53.5280002 -23.953,-24.035 c -1.521,-1.521 -3.368,-2.281 -5.54,-2.281 -2.173,0 -4.02,0.76 -5.541,2.281 l -11.07999967,11.08 c -1.52100003,1.521 -2.28100003,3.368 -2.28100003,5.541 0,2.172 0.76,4.02 2.28100003,5.54 l 29.49299967,29.493 11.081,11.08 c 1.52,1.521 3.367,2.281 5.54,2.281 2.172,0 4.019,-0.761 5.54,-2.281 l 11.081,-11.08 58.985997,-58.986 c 1.52,-1.521 2.281,-3.3680002 2.281,-5.5410002 0.001,-2.172 -0.761,-4.019 -2.281,-5.54 l 0,0 z"
                 id="path4469"
                 sketch:type="MSShapeGroup"
                 inkscape:connector-curvature="0"
                 style="fill:#000000;fill-opacity:1" />
            </g>
          </g>
        </g>
      </g>
    </g>
  </g>
</svg>
