<?xml version="1.0" standalone="yes"?>

<svg version="1.1" viewBox="0.0 0.0 512.0 512.0" fill="none" stroke="none" stroke-linecap="square" stroke-miterlimit="10" xmlns="http://www.w3.org/2000/svg" xmlns:xlink="http://www.w3.org/1999/xlink"><clipPath id="p.0"><path d="m0 0l512.0 0l0 512.0l-512.0 0l0 -512.0z" clip-rule="nonzero"></path></clipPath><g clip-path="url(#p.0)"><path fill="#000000" fill-opacity="0.0" d="m0 0l512.0 0l0 512.0l-512.0 0z" fill-rule="nonzero"></path><path fill="#ff9900" d="m75.0 75.31233l181.24933 180.75066l180.31235 -180.50131l-180.4357 436.0z" fill-rule="nonzero"></path><path stroke="#ff9900" stroke-width="1.0" stroke-linejoin="round" stroke-linecap="butt" d="m75.0 75.31233l181.24933 180.75066l180.31235 -180.50131l-180.4357 436.0z" fill-rule="nonzero"></path><path fill="#ff9900" d="m0 256.0l0 0c0 -141.38489 114.615105 -256.0 256.0 -256.0l0 0c67.89542 0 133.01001 26.971352 181.01935 74.98067c48.009308 48.009308 74.98065 113.12392 74.98065 181.01933l0 0c0 141.38489 -114.61511 256.0 -256.0 256.0l0 0c-141.38489 0 -256.0 -114.61511 -256.0 -256.0zm33.3824 0l0 0c0 122.9483 99.6693 222.61761 222.6176 222.61761c122.9483 0 222.61761 -99.66931 222.61761 -222.61761l0 0c0 -122.9483 -99.66931 -222.6176 -222.61761 -222.6176l0 0c-122.9483 0 -222.6176 99.6693 -222.6176 222.6176z" fill-rule="nonzero"></path><path stroke="#ff9900" stroke-width="1.0" stroke-linejoin="round" stroke-linecap="butt" d="m0 256.0l0 0c0 -141.38489 114.615105 -256.0 256.0 -256.0l0 0c67.89542 0 133.01001 26.971352 181.01935 74.98067c48.009308 48.009308 74.98065 113.12392 74.98065 181.01933l0 0c0 141.38489 -114.61511 256.0 -256.0 256.0l0 0c-141.38489 0 -256.0 -114.61511 -256.0 -256.0zm33.3824 0l0 0c0 122.9483 99.6693 222.61761 222.6176 222.61761c122.9483 0 222.61761 -99.66931 222.61761 -222.61761l0 0c0 -122.9483 -99.66931 -222.6176 -222.61761 -222.6176l0 0c-122.9483 0 -222.6176 99.6693 -222.6176 222.6176z" fill-rule="nonzero"></path></g></svg>

