<?xml version="1.0" encoding="UTF-8" standalone="no"?>
<!-- Created using Karbon, part of Calligra: http://www.calligra.org/karbon -->

<svg
   xmlns:dc="http://purl.org/dc/elements/1.1/"
   xmlns:cc="http://creativecommons.org/ns#"
   xmlns:rdf="http://www.w3.org/1999/02/22-rdf-syntax-ns#"
   xmlns:svg="http://www.w3.org/2000/svg"
   xmlns="http://www.w3.org/2000/svg"
   xmlns:sodipodi="http://sodipodi.sourceforge.net/DTD/sodipodi-0.dtd"
   xmlns:inkscape="http://www.inkscape.org/namespaces/inkscape"
   width="512"
   height="512"
   id="svg2"
   version="1.1"
   inkscape:version="0.48.5 r10040"
   sodipodi:docname="mess.svg"
   viewBox="0 0 512.00001 512.00001">
  <metadata
     id="metadata23">
    <rdf:RDF>
      <cc:Work
         rdf:about="">
        <dc:format>image/svg+xml</dc:format>
        <dc:type
           rdf:resource="http://purl.org/dc/dcmitype/StillImage" />
        <dc:title />
      </cc:Work>
    </rdf:RDF>
  </metadata>
  <sodipodi:namedview
     pagecolor="#ffffff"
     bordercolor="#666666"
     borderopacity="1"
     objecttolerance="10"
     gridtolerance="10"
     guidetolerance="10"
     inkscape:pageopacity="0"
     inkscape:pageshadow="2"
     inkscape:window-width="1920"
     inkscape:window-height="1007"
     id="namedview21"
     inkscape:document-units="px"
     showgrid="false"
     units="px"
     inkscape:zoom="2.1185582"
     inkscape:cx="164.27845"
     inkscape:cy="279.35351"
     inkscape:window-x="0"
     inkscape:window-y="31"
     inkscape:window-maximized="1"
     inkscape:current-layer="g4176" />
  <defs
     id="defs4">
    <inkscape:perspective
       sodipodi:type="inkscape:persp3d"
       inkscape:vp_x="0 : 256 : 1"
       inkscape:vp_y="0 : 1000 : 0"
       inkscape:vp_z="506.18586 : -60.871313 : 1"
       inkscape:persp3d-origin="256 : 170.66667 : 1"
       id="perspective3341" />
    <filter
       inkscape:collect="always"
       style="color-interpolation-filters:sRGB"
       id="filter4470"
       x="-0.018390988"
       width="1.036782"
       y="-0.034531727"
       height="1.0690635">
      <feGaussianBlur
         inkscape:collect="always"
         stdDeviation="0.54869145"
         id="feGaussianBlur4472" />
    </filter>
    <filter
       inkscape:collect="always"
       style="color-interpolation-filters:sRGB"
       id="filter4470-7"
       x="-0.018390989"
       width="1.036782"
       y="-0.034531727"
       height="1.0690635">
      <feGaussianBlur
         inkscape:collect="always"
         stdDeviation="0.54869145"
         id="feGaussianBlur4472-5" />
    </filter>
  </defs>
  <g
     id="g4176"
     transform="matrix(0.99207941,0,0,0.99207941,2.0276716,-24.497208)">
    <g
       transform="matrix(0.99137848,0,0,0.98162456,1.510242,8.1441232)"
       style="fill:#000000;fill-opacity:1"
       id="g4257">
      <path
         style="fill:#000000;fill-opacity:1;fill-rule:evenodd;stroke:none;stroke-width:0.92566127px;stroke-linecap:butt;stroke-linejoin:miter;stroke-opacity:1"
         d="m 482.90087,233.23595 12.41989,180.01798 -0.10156,0.0351 c 0.27091,1.45415 0.41142,2.92844 0.41992,4.40625 1.7e-4,14.0903 -11.74304,25.51258 -26.22851,25.51172 -7.69301,-0.002 -14.99712,-3.2897 -19.97852,-8.99219 l -0.0156,0.0137 -108.36777,-90.66445 C 246.49613,235.80925 424.63139,236.75542 482.90087,233.23595 Z"
         id="rect3370-7"
         inkscape:connector-curvature="0"
         sodipodi:nodetypes="ccccccccc" />
      <rect
         style="fill:#000000;fill-opacity:1;fill-rule:evenodd;stroke:none;stroke-width:1.21803582px;stroke-linecap:butt;stroke-linejoin:miter;stroke-opacity:1"
         id="rect3357-3-6"
         width="449.67548"
         height="252.70496"
         x="-483.63382"
         y="116.25848"
         rx="124.75471"
         ry="126.35248"
         transform="scale(-1,1)" />
    </g>
    <g
       transform="translate(-2.7629195,0)"
       style="fill:#000000;fill-opacity:1"
       id="g4263">
      <g
         id="g5005"
         style="fill:#000000;fill-opacity:1">
        <rect
           ry="105.51476"
           rx="105.51476"
           y="137.09618"
           x="49.349682"
           height="211.02951"
           width="418.76016"
           id="rect3357-3"
           style="fill:#000000;fill-opacity:1;fill-rule:evenodd;stroke:none;stroke-width:1.21803582000000010px;stroke-linecap:butt;stroke-linejoin:miter;stroke-opacity:1" />
        <path
           sodipodi:nodetypes="ccccccccc"
           inkscape:connector-curvature="0"
           id="rect3370"
           d="m 50.445312,226.86523 -28.240234,186.38868 0.101563,0.0351 c -0.270912,1.45415 -0.411415,2.92844 -0.419922,4.40625 -1.69e-4,14.0903 11.743047,25.51258 26.228515,25.51172 7.693008,-0.002 14.997117,-3.2897 19.978516,-8.99219 l 0.01563,0.0137 102.99218,-118.625 C 289.91387,198.16674 124.29465,233.03466 50.445312,226.86523 Z"
           style="fill:#000000;fill-opacity:1;fill-rule:evenodd;stroke:none;stroke-width:0.92566126999999998px;stroke-linecap:butt;stroke-linejoin:miter;stroke-opacity:1" />
      </g>
    </g>
    <path
       id="rect3357-3-3"
       d="m 152.10156,137.0957 c -58.455176,0 -105.515622,47.06045 -105.515622,105.51563 0,0.66901 0.01311,1.33402 0.02539,2 C 47.67082,187.08698 94.314919,141.0957 152.10156,141.0957 l 207.73047,0 c 57.78664,0 104.43074,45.99128 105.49024,103.51563 0.0123,-0.66598 0.0254,-1.33099 0.0254,-2 0,-58.45518 -47.06045,-105.51563 -105.51563,-105.51563 l -207.73047,0 z"
       style="opacity:0.3;fill:#000000;fill-opacity:1;fill-rule:evenodd;stroke:none;stroke-width:1.21803582px;stroke-linecap:butt;stroke-linejoin:miter;stroke-opacity:1"
       inkscape:connector-curvature="0" />
  </g>
</svg>
