<?xml version="1.0" encoding="UTF-8" standalone="no"?>
<!-- Created with Inkscape (http://www.inkscape.org/) -->

<svg
   xmlns:dc="http://purl.org/dc/elements/1.1/"
   xmlns:cc="http://creativecommons.org/ns#"
   xmlns:rdf="http://www.w3.org/1999/02/22-rdf-syntax-ns#"
   xmlns:svg="http://www.w3.org/2000/svg"
   xmlns="http://www.w3.org/2000/svg"
   xmlns:sodipodi="http://sodipodi.sourceforge.net/DTD/sodipodi-0.dtd"
   xmlns:inkscape="http://www.inkscape.org/namespaces/inkscape"
   width="512"
   height="512"
   id="svg2"
   sodipodi:version="0.32"
   inkscape:version="0.48.5 r10040"
   version="1.0"
   sodipodi:docname="cdwriter_unmount.svg"
   inkscape:output_extension="org.inkscape.output.svg.inkscape"
   viewBox="0 0 512 512">
  <defs
     id="defs4" />
  <sodipodi:namedview
     id="base"
     pagecolor="#ffffff"
     bordercolor="#000000"
     borderopacity="1"
     inkscape:pageopacity="0.0"
     inkscape:pageshadow="2"
     inkscape:zoom="1.6914063"
     inkscape:cx="179.42317"
     inkscape:cy="295.41894"
     inkscape:document-units="px"
     inkscape:current-layer="layer1"
     width="128px"
     height="128px"
     showgrid="true"
     inkscape:window-width="1920"
     inkscape:window-height="1007"
     inkscape:window-x="0"
     inkscape:window-y="31"
     inkscape:snap-object-midpoints="true"
     inkscape:snap-bbox="true"
     inkscape:object-paths="false"
     inkscape:window-maximized="1" />
  <metadata
     id="metadata7">
    <rdf:RDF>
      <cc:Work
         rdf:about="">
        <dc:format>image/svg+xml</dc:format>
        <dc:type
           rdf:resource="http://purl.org/dc/dcmitype/StillImage" />
        <dc:title />
      </cc:Work>
    </rdf:RDF>
  </metadata>
  <g
     inkscape:label="Ebene 1"
     inkscape:groupmode="layer"
     id="layer1"
     transform="translate(0,384)">
    <path
       d="m 256,-351.60248 c -123.48956,0 -223.602484,100.11298 -223.602484,223.60249 0,123.489615 100.112924,223.602475 223.602484,223.602475 123.48956,0 223.60248,-100.11286 223.60248,-223.602475 0,-123.48951 -100.11292,-223.60249 -223.60248,-223.60249 z m 0,162.62005 c 33.68266,0 60.98248,27.29974 60.98248,60.98244 0,33.682685 -27.29982,60.982545 -60.98248,60.982545 -33.68266,0 -60.98249,-27.29986 -60.98249,-60.982545 0,-33.6827 27.29983,-60.98244 60.98249,-60.98244 z"
       id="path10"
       inkscape:connector-curvature="0"
       style="fill:none;fill-opacity:1;stroke:#000000;stroke-width:10;stroke-miterlimit:4;stroke-dasharray:none;stroke-opacity:1" />
    <path
       style="fill:none;stroke:#000000;stroke-width:10.20949745;stroke-miterlimit:4;stroke-opacity:1;stroke-dasharray:none"
       d="m 256,-225.46641 c -53.83025,0 -97.46644,43.63613 -97.46644,97.46641 0,53.830286 43.63619,97.466415 97.46644,97.466415 53.83025,0 97.46644,-43.636129 97.46644,-97.466415 0,-53.83029 -43.63619,-97.46641 -97.46644,-97.46641 z m 0,45.74231 c 28.56279,0 51.72413,23.1613 51.72413,51.7241 0,28.562795 -23.16134,51.724108 -51.72413,51.724108 -28.56281,0 -51.72414,-23.161302 -51.72414,-51.724108 0,-28.5628 23.16133,-51.7241 51.72414,-51.7241 z"
       id="path10-4"
       inkscape:connector-curvature="0" />
  </g>
</svg>
