<?xml version="1.0" encoding="UTF-8" standalone="no"?>
<!-- Created with Inkscape (http://www.inkscape.org/) -->

<svg
   xmlns:dc="http://purl.org/dc/elements/1.1/"
   xmlns:cc="http://creativecommons.org/ns#"
   xmlns:rdf="http://www.w3.org/1999/02/22-rdf-syntax-ns#"
   xmlns:svg="http://www.w3.org/2000/svg"
   xmlns="http://www.w3.org/2000/svg"
   xmlns:sodipodi="http://sodipodi.sourceforge.net/DTD/sodipodi-0.dtd"
   xmlns:inkscape="http://www.inkscape.org/namespaces/inkscape"
   width="512"
   height="512"
   viewBox="0 0 512 512.00002"
   id="svg2"
   version="1.1"
   inkscape:version="0.48.5 r10040"
   sodipodi:docname="network-vpn.svg">
  <defs
     id="defs4" />
  <sodipodi:namedview
     id="base"
     pagecolor="#9f9f9f"
     bordercolor="#666666"
     borderopacity="1.0"
     inkscape:pageopacity="0"
     inkscape:pageshadow="2"
     inkscape:zoom="1.1324757"
     inkscape:cx="35.397231"
     inkscape:cy="252.03828"
     inkscape:document-units="px"
     inkscape:current-layer="layer1"
     showgrid="false"
     units="px"
     inkscape:showpageshadow="false"
     borderlayer="true"
     inkscape:window-width="1920"
     inkscape:window-height="1007"
     inkscape:window-x="0"
     inkscape:window-y="31"
     inkscape:window-maximized="1"
     showguides="false">
    <inkscape:grid
       type="xygrid"
       id="grid4136" />
    <sodipodi:guide
       position="5,59.000069"
       orientation="54,0"
       id="guide4142" />
    <sodipodi:guide
       position="5,5.0000688"
       orientation="0,54"
       id="guide4144" />
    <sodipodi:guide
       position="59,5.0000688"
       orientation="-54,0"
       id="guide4146" />
    <sodipodi:guide
       position="59,59.000069"
       orientation="0,-54"
       id="guide4148" />
    <sodipodi:guide
       position="0,64.000069"
       orientation="64,0"
       id="guide4150" />
    <sodipodi:guide
       position="0,6.875e-05"
       orientation="0,64"
       id="guide4152" />
    <sodipodi:guide
       position="64,6.875e-05"
       orientation="-64,0"
       id="guide4154" />
    <sodipodi:guide
       position="64,64.000069"
       orientation="0,-64"
       id="guide4156" />
    <sodipodi:guide
       position="13,50.999947"
       orientation="38,0"
       id="guide4155" />
    <sodipodi:guide
       position="13,12.999947"
       orientation="0,38"
       id="guide4157" />
    <sodipodi:guide
       position="51,12.999947"
       orientation="-38,0"
       id="guide4159" />
    <sodipodi:guide
       position="51,50.999947"
       orientation="0,-38"
       id="guide4161" />
  </sodipodi:namedview>
  <metadata
     id="metadata7">
    <rdf:RDF>
      <cc:Work
         rdf:about="">
        <dc:format>image/svg+xml</dc:format>
        <dc:type
           rdf:resource="http://purl.org/dc/dcmitype/StillImage" />
        <dc:title />
      </cc:Work>
    </rdf:RDF>
  </metadata>
  <g
     inkscape:label="Capa 1"
     inkscape:groupmode="layer"
     id="layer1"
     transform="translate(0,-610.5196)">
    <path
       style="fill:#000000;fill-opacity:1"
       d="m 50.857862,663.26956 -6.6745,3.17881 c -12.46336,5.93364 -18.73383,14.74413 -20.61115,28.96031 -0.67933,5.14399 -0.93907,60.31174 -0.74206,157.82762 0.2902,143.64622 0.3841,150.1345 2.22818,155.0538 4.15884,11.0946 11.32114,18.051 23.05994,22.3921 5.38348,1.9909 8.323229,2.1768 39.192672,2.4869 18.354896,0.1845 34.497996,0.5844 35.873476,0.8886 1.37546,0.3041 9.26238,7.1777 17.52659,15.2763 13.01714,12.7562 15.63409,14.8611 19.57628,15.7396 6.75157,1.5042 187.18468,1.5737 194.17642,0.074 5.04754,-1.0825 6.40475,-2.1366 20.39655,-15.8479 8.24426,-8.079 16.11504,-14.9423 17.49051,-15.2503 1.37547,-0.3082 18.44272,-0.71 37.92715,-0.8945 29.59289,-0.2803 36.12833,-0.6086 39.69006,-1.9935 10.36539,-4.0302 16.97662,-11.0105 20.64925,-21.7985 1.62959,-4.7867 1.78871,-16.62138 2.07977,-155.61337 0.20541,-98.08209 -0.0501,-153.18495 -0.73203,-158.34106 -1.88731,-14.27071 -8.0981,-23.04582 -20.45069,-28.89813 l -6.83697,-3.24099 -206.90972,0 -206.909728,0 z m 44.154436,66.74507 162.755292,0 162.75529,0 0,113.46663 0,113.46662 -32.32163,0.27276 -32.32161,0.27075 -16.52383,16.41552 -16.52381,16.41351 -65.06441,0 -65.06441,0 -16.52382,-16.41351 -16.52382,-16.41552 -32.32162,-0.27075 -32.321622,-0.27276 0,-113.46662 0,-113.46663 z"
       id="path4185"
       inkscape:connector-curvature="0" />
    <g
       id="g4166"
       transform="matrix(0.90865244,0,0,0.87170752,202.22623,-199.67853)"
       style="fill:#000000;fill-opacity:1;stroke:none">
      <path
         inkscape:connector-curvature="0"
         id="rect4122"
         d="m 63.577518,1115.8855 c -32.859777,0 -59.3136143,26.4533 -59.3136143,59.3136 l 0,116.4304 13.1808043,0 0,-116.4304 c 0,-25.5581 20.575089,-46.1328 46.13281,-46.1328 25.557724,0 46.132812,20.5747 46.132812,46.1328 l 0,116.4304 13.1808,0 0,-116.4304 c 0,-32.8603 -26.453831,-59.3136 -59.313612,-59.3136 z"
         style="fill:#000000;fill-opacity:1;stroke:none" />
      <rect
         ry="5.4993863"
         rx="5.4993863"
         transform="scale(1,-1)"
         y="-1291.6292"
         x="-11.113716"
         height="87.872025"
         width="149.38248"
         id="rect4118"
         style="fill:#000000;fill-opacity:1;stroke:none" />
      <path
         inkscape:connector-curvature="0"
         id="path4135"
         d="m 63.577522,1221.3319 a 10.984003,10.984003 0 0 0 -10.984004,10.984 10.984003,10.984003 0 0 0 6.590403,10.0573 l 0,31.6819 8.787203,0 0,-31.6819 a 10.984003,10.984003 0 0 0 6.590398,-10.0573 10.984003,10.984003 0 0 0 -10.984,-10.984 z"
         style="fill:#000000;fill-opacity:1;stroke:none" />
      <path
         id="rect4118-3"
         d="m -11.113713,1282.2245 0,3.9054 c 0,3.0467 2.4529691,5.4996 5.4996291,5.4996 l 138.3831939,0 c 3.04666,0 5.49963,-2.4529 5.49963,-5.4996 l 0,-3.9054 c 0,3.0467 -2.45297,5.4989 -5.49963,5.4989 l -138.3831939,0 c -3.04666,0 -5.4996291,-2.4522 -5.4996291,-5.4989 z"
         style="opacity:0.3;fill:#000000;fill-opacity:1;stroke:none"
         inkscape:connector-curvature="0" />
      <path
         id="rect4118-7"
         d="m -5.6140839,1203.7576 c -3.04666,0 -5.4996291,2.4521 -5.4996291,5.4988 l 0,3.9054 c 0,-3.0466 2.4529691,-5.4988 5.4996291,-5.4988 l 138.3831939,0 c 3.04666,0 5.49963,2.4522 5.49963,5.4988 l 0,-3.9054 c 0,-3.0467 -2.45297,-5.4988 -5.49963,-5.4988 l -138.3831939,0 z"
         style="opacity:0.3;fill:#000000;fill-opacity:1;stroke:none"
         inkscape:connector-curvature="0" />
    </g>
  </g>
</svg>
