<?xml version="1.0" encoding="UTF-8" standalone="no"?>
<svg
   xmlns:osb="http://www.openswatchbook.org/uri/2009/osb"
   xmlns:dc="http://purl.org/dc/elements/1.1/"
   xmlns:cc="http://creativecommons.org/ns#"
   xmlns:rdf="http://www.w3.org/1999/02/22-rdf-syntax-ns#"
   xmlns:svg="http://www.w3.org/2000/svg"
   xmlns="http://www.w3.org/2000/svg"
   xmlns:xlink="http://www.w3.org/1999/xlink"
   xmlns:sodipodi="http://sodipodi.sourceforge.net/DTD/sodipodi-0.dtd"
   xmlns:inkscape="http://www.inkscape.org/namespaces/inkscape"
   version="1.1"
   width="24"
   height="24"
   viewBox="0 0 24 24"
   id="svg2"
   inkscape:version="0.48.5 r10040"
   sodipodi:docname="network-wired-disconnected.svg">
  <metadata
     id="metadata10">
    <rdf:RDF>
      <cc:Work
         rdf:about="">
        <dc:format>image/svg+xml</dc:format>
        <dc:type
           rdf:resource="http://purl.org/dc/dcmitype/StillImage" />
        <dc:title />
      </cc:Work>
    </rdf:RDF>
  </metadata>
<sodipodi:namedview
     pagecolor="#ffffff"
     bordercolor="#666666"
     borderopacity="1"
     objecttolerance="10"
     gridtolerance="10"
     guidetolerance="10"
     inkscape:pageopacity="0"
     inkscape:pageshadow="2"
     inkscape:window-width="1920"
     inkscape:window-height="1007"
     id="namedview6"
     showgrid="false"
     inkscape:zoom="55.571432"
     inkscape:cx="12"
     inkscape:cy="12.230983"
     inkscape:current-layer="svg2"
     inkscape:window-x="0"
     inkscape:window-y="31"
     inkscape:window-maximized="1" />
  <g
     style="fill:#000000;fill-opacity:1"
     transform="matrix(0.65607521,0,0,0.75,-218.09736,-397.02165)"
     id="layer1"
     inkscape:label="Capa 1">
    <g
       style="fill:#000000;fill-opacity:1"
       inkscape:label="Capa 1"
       id="layer1-9"
       transform="matrix(0,-1.082475,-1.082475,0,1464.6747,557.15411)">
      <g
         transform="matrix(1.1827033e-4,0.03271224,-0.03271224,1.1827033e-4,18.268695,1034.3501)"
         id="g3"
         style="fill:#000000;fill-opacity:1">
        <path
           inkscape:connector-curvature="0"
           id="path5"
           d="M 345.441,248.292 151.154,442.573 c -12.359,12.365 -32.397,12.365 -44.75,0 -12.354,-12.354 -12.354,-32.391 0,-44.744 L 278.318,225.92 106.409,54.017 c -12.354,-12.359 -12.354,-32.394 0,-44.748 12.354,-12.359 32.391,-12.359 44.75,0 l 194.287,194.284 c 6.177,6.18 9.262,14.271 9.262,22.366 0,8.099 -3.091,16.196 -9.267,22.373 z"
           style="fill:#000000;fill-opacity:1" />
      </g>
    </g>
  </g>
  <g
     style="fill:#000000;fill-opacity:1"
     inkscape:label="Capa 1"
     id="g4290"
     transform="matrix(-0.65607521,0,0,-0.75,242.09736,421.02165)">
    <g
       style="fill:#000000;fill-opacity:1"
       transform="matrix(0,-1.082475,-1.082475,0,1464.6747,557.15411)"
       id="g4292"
       inkscape:label="Capa 1">
      <g
         style="fill:#000000;fill-opacity:1"
         id="g4294"
         transform="matrix(1.1827033e-4,0.03271224,-0.03271224,1.1827033e-4,18.268695,1034.3501)">
        <path
           style="fill:#000000;fill-opacity:1"
           d="M 345.441,248.292 151.154,442.573 c -12.359,12.365 -32.397,12.365 -44.75,0 -12.354,-12.354 -12.354,-32.391 0,-44.744 L 278.318,225.92 106.409,54.017 c -12.354,-12.359 -12.354,-32.394 0,-44.748 12.354,-12.359 32.391,-12.359 44.75,0 l 194.287,194.284 c 6.177,6.18 9.262,14.271 9.262,22.366 0,8.099 -3.091,16.196 -9.267,22.373 z"
           id="path4296"
           inkscape:connector-curvature="0" />
      </g>
    </g>
  </g>
  <circle
     style="opacity:1;fill:#000000;fill-opacity:1;stroke:none;stroke-width:2;stroke-miterlimit:4;stroke-dasharray:none;stroke-opacity:1"
     id="path4298"
     cx="7"
     cy="12"
     r="1.5" />
  <circle
     style="opacity:1;fill:#000000;fill-opacity:1;stroke:none;stroke-width:2;stroke-miterlimit:4;stroke-dasharray:none;stroke-opacity:1"
     id="circle4302"
     cx="17"
     cy="12"
     r="1.5" />
  <path
     id="rect4217"
     d="m 12.101209,4.7690172 0.0068,0 c 0.594752,0 1.07356,0.4787931 1.07356,1.0735283 l 0,7.5452195 c 0,0.594789 -0.478808,1.073582 -1.07356,1.073582 l -0.0068,0 c -0.594752,0 -1.073559,-0.478793 -1.073559,-1.073582 l 0,-7.5452195 c 0,-0.5947352 0.478807,-1.0735283 1.073559,-1.0735283 z"
     style="opacity:1;fill:#000000;fill-opacity:1"
     inkscape:connector-curvature="0" />
  <rect
     rx="9.4764843"
     ry="8.7475233"
     y="16.61516"
     x="11.02765"
     height="2.1538563"
     width="2.1538563"
     id="rect4681"
     style="opacity:1;fill:#000000;fill-opacity:1" />
</svg>
