<?xml version="1.0" encoding="UTF-8" standalone="no"?>
<!-- Created with Inkscape (http://www.inkscape.org/) -->

<svg
   xmlns:dc="http://purl.org/dc/elements/1.1/"
   xmlns:cc="http://creativecommons.org/ns#"
   xmlns:rdf="http://www.w3.org/1999/02/22-rdf-syntax-ns#"
   xmlns:svg="http://www.w3.org/2000/svg"
   xmlns="http://www.w3.org/2000/svg"
   xmlns:sodipodi="http://sodipodi.sourceforge.net/DTD/sodipodi-0.dtd"
   xmlns:inkscape="http://www.inkscape.org/namespaces/inkscape"
   version="1.1"
   width="48"
   height="48"
   id="svg2383"
   inkscape:version="0.48.5 r10040"
   sodipodi:docname="airplane-mode.svg">
  <sodipodi:namedview
     pagecolor="#ffffff"
     bordercolor="#666666"
     borderopacity="1"
     objecttolerance="10"
     gridtolerance="10"
     guidetolerance="10"
     inkscape:pageopacity="0"
     inkscape:pageshadow="2"
     inkscape:window-width="1920"
     inkscape:window-height="1007"
     id="namedview15"
     showgrid="false"
     inkscape:zoom="8"
     inkscape:cx="16.41623"
     inkscape:cy="16.782311"
     inkscape:window-x="0"
     inkscape:window-y="31"
     inkscape:window-maximized="1"
     inkscape:current-layer="svg2383" />
  <defs
     id="defs11" />
  <metadata
     id="metadata2388">
    <rdf:RDF>
      <cc:Work
         rdf:about="">
        <dc:format>image/svg+xml</dc:format>
        <dc:type
           rdf:resource="http://purl.org/dc/dcmitype/StillImage" />
        <dc:title />
      </cc:Work>
    </rdf:RDF>
  </metadata>
  <g
     id="g4138"
     transform="matrix(0.2042483,0,0,0.2042483,-2.1459337,-1.9978488)"
     style="fill:#000000;fill-opacity:1">
    <path
       style="fill-opacity:1;fill:#000000"
       d="M 84.113374,205.2104 69.726748,185.48363 49.942402,170.87961 30.158056,156.27559 35.329028,151.25021 40.5,146.22483 l 19.5,1.46578 19.5,1.46578 2.467026,-3.32819 c 1.356864,-1.83051 7.762688,-8.74347 14.235164,-15.36214 L 107.97033,118.43212 75.019972,93.466062 C 56.897276,79.734728 42.053952,68.143089 42.034808,67.706864 42.015663,67.270639 45.7125,63.096593 50.25,58.431207 l 8.25,-8.482521 44.21114,14.755649 44.21114,14.75565 18.28886,-18.100793 C 188.56,38.250429 198.6067,31.477928 212.5,29.481675 217.31788,28.78942 222.82151,31.261492 224.78558,35 c 3.22209,6.1331 -1.02675,20.627261 -9.48974,32.372616 -2.03197,2.820061 -11.69795,13.246007 -21.47996,23.168768 l -17.78548,18.041386 14.72397,44.19731 14.72397,44.1973 -8.46709,8.51131 c -4.6569,4.68122 -8.70203,8.50891 -8.98917,8.50597 -0.28715,-0.003 -11.77208,-14.83995 -25.52208,-32.97114 -13.75,-18.1312 -25.28721,-32.86629 -25.63824,-32.74467 -0.35103,0.12163 -5.58642,4.86052 -11.6342,10.53087 -6.04778,5.67035 -12.84808,11.67178 -15.11176,13.33651 -2.26369,1.66474 -4.11571,3.32536 -4.1156,3.69028 1.1e-4,0.36492 0.68452,9.41347 1.52092,20.1079 l 1.52073,19.4444 -4.73333,4.8056 c -2.60334,2.64307 -4.975253,4.79146 -5.270928,4.77418 -0.295676,-0.0173 -7.011574,-8.90846 -14.924218,-19.75819 z"
       id="path4142"
       inkscape:connector-curvature="0" />
    <path
       style="fill-opacity:1;fill:#000000"
       d="M 84.694124,205.33219 70.117594,185.45884 50.558797,171.01785 C 39.801459,163.0753 31,156.31576 31,155.99664 c 0,-0.31913 2.015776,-2.55856 4.479502,-4.97652 l 4.479501,-4.3963 16.770499,1.19988 c 24.056165,1.72115 23.491077,1.76577 25.734223,-2.03158 1.042218,-1.76433 7.23731,-8.69767 13.766873,-15.40743 L 108.10253,118.18515 74.973158,92.994636 41.843786,67.804126 49.671893,59.652063 C 53.977352,55.168428 58.175,51.377929 59,51.228731 59.825,51.079533 79.859069,57.421954 103.52015,65.323 l 43.02016,14.365538 18.4401,-17.91256 C 189.89544,37.573735 201.65423,30 214.31501,30 c 6.42036,0 9.24777,1.808665 10.77002,6.889462 2.16755,7.234636 -2.07698,19.11354 -11.29497,31.610538 -2.43413,3.3 -12.04518,13.517341 -21.35788,22.705202 L 175.5,107.9104 l 14.89462,44.7414 14.89463,44.7414 -8.39463,7.76825 c -4.61704,4.27254 -8.6867,7.78407 -9.04368,7.8034 -0.35698,0.0193 -7.75404,-9.30235 -16.43791,-20.71485 -8.68387,-11.4125 -20.03533,-26.29572 -25.22546,-33.07382 l -9.4366,-12.32383 -11.62548,11.32685 c -6.39402,6.22976 -13.3797,12.68804 -15.52374,14.35172 l -3.89824,3.02487 1.50369,19.97211 1.5037,19.9721 -4.72013,4.85277 -4.720117,4.85277 -14.576529,-19.87335 z"
       id="path4140"
       inkscape:connector-curvature="0" />
  </g>
</svg>
