<?xml version="1.0" encoding="UTF-8" standalone="no"?>
<!-- Created with Inkscape (http://www.inkscape.org/) -->

<svg
   xmlns:dc="http://purl.org/dc/elements/1.1/"
   xmlns:cc="http://creativecommons.org/ns#"
   xmlns:rdf="http://www.w3.org/1999/02/22-rdf-syntax-ns#"
   xmlns:svg="http://www.w3.org/2000/svg"
   xmlns="http://www.w3.org/2000/svg"
   xmlns:sodipodi="http://sodipodi.sourceforge.net/DTD/sodipodi-0.dtd"
   xmlns:inkscape="http://www.inkscape.org/namespaces/inkscape"
   version="1.1"
   width="48"
   height="48"
   id="svg2"
   inkscape:version="0.48.5 r10040"
   sodipodi:docname="bluetooth-paired.svg">
  <sodipodi:namedview
     pagecolor="#ffffff"
     bordercolor="#666666"
     borderopacity="1"
     objecttolerance="10"
     gridtolerance="10"
     guidetolerance="10"
     inkscape:pageopacity="0"
     inkscape:pageshadow="2"
     inkscape:window-width="1920"
     inkscape:window-height="1007"
     id="namedview11"
     showgrid="false"
     inkscape:zoom="4.9166667"
     inkscape:cx="-15.355932"
     inkscape:cy="24"
     inkscape:window-x="0"
     inkscape:window-y="31"
     inkscape:window-maximized="1"
     inkscape:current-layer="g2996" />
  <defs
     id="defs4" />
  <metadata
     id="metadata7">
    <rdf:RDF>
      <cc:Work
         rdf:about="">
        <dc:format>image/svg+xml</dc:format>
        <dc:type
           rdf:resource="http://purl.org/dc/dcmitype/StillImage" />
        <dc:title />
      </cc:Work>
    </rdf:RDF>
  </metadata>
  <g
     transform="translate(0,-1004.3622)"
     id="layer1"
     style="fill:none;fill-opacity:1">
    <g
       transform="matrix(0.29257695,0,0,0.29257695,-43.330238,808.73399)"
       id="g3782"
       style="stroke:#ffffff;stroke-width:27.34323310999999990;stroke-miterlimit:4;stroke-opacity:1;stroke-dasharray:none;fill:none;fill-opacity:1" />
    <g
       transform="matrix(0.29257695,0,0,0.29257695,-43.330238,808.73399)"
       id="g2996"
       style="fill:none;fill-opacity:1;stroke:#000000;stroke-opacity:1">
      <path
         d="m 217.03686,817.55797 c -16.61637,-3.79406 -27.03511,-14.67427 -32.1634,-33.58801 -3.02224,-11.14636 -4.41266,-31.16997 -3.16343,-45.55692 3.55811,-40.97749 19.09413,-56.88322 53.87282,-55.15483 25.53138,1.26882 37.90287,12.80107 43.87774,40.90123 2.50986,11.80399 2.49926,41.93537 -0.0189,53.78468 -4.49187,21.13651 -13.21405,32.86662 -28.38383,38.17225 -7.67336,2.68376 -25.30815,3.43101 -34.02096,1.4416 z m 27.98748,-26.29118 c 8.66875,-8.65605 15.76137,-16.43346 15.76137,-17.28313 0,-0.84966 -4.725,-6.21872 -10.5,-11.93123 -5.775,-5.71251 -10.5,-10.88064 -10.5,-11.48474 0,-0.60409 4.725,-5.80727 10.5,-11.56262 5.775,-5.75535 10.5,-10.92758 10.5,-11.49385 0,-1.84992 -31.72803,-32.79227 -32.88911,-32.07468 -0.7559,0.46717 -1.11089,7.21862 -1.11089,21.12755 0,11.24254 -0.34806,20.44098 -0.77346,20.44098 -0.4254,0 -4.35235,-3.6 -8.72654,-8 -4.37419,-4.4 -8.60963,-8 -9.41209,-8 -1.73849,0 -6.08791,3.88751 -6.08791,5.44137 0,0.60101 4.95,6.02739 11,12.05863 6.05,6.03124 11,11.64152 11,12.4673 0,0.82577 -5.02293,6.53863 -11.16207,12.69523 -11.16207,11.19383 -11.16207,11.19383 -9.44173,13.81939 3.08171,4.70329 4.27103,4.30497 12.96241,-4.34127 4.50074,-4.47736 8.73627,-8.14065 9.41228,-8.14065 0.93185,0 1.22911,4.91762 1.22911,20.33333 0,18.67744 0.26286,21.66667 1.90529,21.66667 0.31458,0 7.66458,-7.08223 16.33334,-15.73828 z m -8.23863,-17.26172 c 0,-10.63992 0.59729,-11.02389 7,-4.5 4.41642,4.5 4.41642,4.5 0,9 -6.40271,6.52389 -7,6.13992 -7,-4.5 z m 0,-46.5 c 0,-11.55414 0.31793,-11.71777 7.3884,-3.80247 3.74952,4.19753 3.74952,4.19753 -0.4468,8.75 -6.24893,6.77929 -6.9416,6.28559 -6.9416,-4.94753 z"
         id="path2998"
         style="fill:#000000;fill-opacity:1;stroke:none;stroke-opacity:1" />
      <path
         d="m 23.410634,8.0005627 c -0.220388,0.1955045 -0.127328,0.5650942 -0.186272,0.8309148 -0.194047,3.5449195 -0.10781,7.0991745 -0.280898,10.6444965 -0.01825,0.206814 -0.03001,0.417536 -0.109631,0.613572 -0.689237,-0.420628 -1.227539,-1.051313 -1.827465,-1.58765 -1.071943,-1.00229 -2.074234,-2.103364 -3.25887,-2.967965 -0.343785,-0.305125 -0.74904,0.06022 -1.036429,0.26162 -0.33073,0.303798 -0.779808,0.592463 -0.898952,1.049291 0.03549,0.339617 0.378121,0.547597 0.561256,0.815077 1.794965,2.017542 3.819722,3.848017 5.532494,5.926978 0.119548,0.196121 0.415542,0.442691 0.216102,0.680085 -0.770349,1.123691 -1.779833,2.075104 -2.70711,3.073576 -1.084016,1.15962 -2.272749,2.232167 -3.269777,3.466906 -0.215015,0.234523 -0.271478,0.584913 -0.05966,0.840344 0.266908,0.398219 0.542665,0.998426 1.104343,0.988348 0.685755,-0.128711 1.154992,-0.721439 1.668862,-1.145602 1.185769,-1.096975 2.296554,-2.291063 3.587494,-3.263826 0.143297,-0.159223 0.382905,-0.0639 0.409958,0.141419 0.21208,0.878033 0.139552,1.817143 0.190752,2.721838 0.07506,2.807779 0.03204,5.619189 0.168358,8.424879 0.03558,0.313482 0.06264,0.664272 0.270127,0.913665 0.344392,-0.146824 0.591176,-0.505026 0.885937,-0.744316 2.707567,-2.630294 5.42498,-5.255316 7.936551,-8.07621 0.183191,-0.275075 0.517435,-0.501437 0.558868,-0.84208 -0.288371,-0.565041 -0.792086,-0.999813 -1.198798,-1.484104 -1.577078,-1.741708 -3.330755,-3.328331 -4.826626,-5.1356 -0.205377,-0.249355 0.150949,-0.472403 0.259005,-0.667372 1.81251,-2.115113 3.909555,-3.978979 5.70286,-6.106462 0.203472,-0.255015 -0.183547,-0.48708 -0.300488,-0.686524 -2.090727,-2.305782 -4.333014,-4.470335 -6.595538,-6.606192 -0.781543,-0.7012742 -1.528937,-1.4564397 -2.383635,-2.0648055 -0.03459,-0.016676 -0.07493,-0.02517 -0.112818,-0.014301 z m 2.923729,6.4544493 c 0.431269,0.04707 0.684201,0.485909 0.99947,0.737288 0.549594,0.58833 1.162591,1.149363 1.563559,1.854343 0.239126,0.504758 -0.266234,0.952516 -0.549788,1.309322 -0.542351,0.55489 -1.035718,1.209383 -1.712923,1.608051 -0.230616,0.154917 -0.507253,-0.0025 -0.559322,-0.254237 -0.24656,-0.814103 -0.126946,-1.685789 -0.167794,-2.526481 0.03008,-0.783865 -0.05559,-1.595371 0.105823,-2.361231 0.04445,-0.15235 0.131854,-0.365827 0.320975,-0.367055 z m 0.02542,13.746292 c 0.47128,0.01572 0.791591,0.461529 1.133209,0.73582 0.500073,0.528178 1.106639,0.98287 1.455245,1.628587 0.189126,0.389455 -0.101109,0.755731 -0.360699,1.023305 -0.597517,0.620418 -1.174912,1.275483 -1.875,1.776483 -0.228578,0.171869 -0.576899,0.08129 -0.651483,-0.211335 -0.21123,-0.623895 -0.09051,-1.312157 -0.130297,-1.962394 0.02919,-0.848908 -0.06329,-1.716067 0.07627,-2.553495 0.06216,-0.171723 0.125264,-0.437904 0.352754,-0.436971 z"
         transform="matrix(3.4179042,0,0,3.4179042,148.0986,668.63849)"
         id="path3777"
         style="fill:none;fill-opacity:1;stroke:none" />
    </g>
  </g>
</svg>
