<?xml version="1.0" encoding="UTF-8" standalone="no"?>
<!-- Created with Inkscape (http://www.inkscape.org/) -->

<svg
   xmlns:dc="http://purl.org/dc/elements/1.1/"
   xmlns:cc="http://creativecommons.org/ns#"
   xmlns:rdf="http://www.w3.org/1999/02/22-rdf-syntax-ns#"
   xmlns:svg="http://www.w3.org/2000/svg"
   xmlns="http://www.w3.org/2000/svg"
   xmlns:sodipodi="http://sodipodi.sourceforge.net/DTD/sodipodi-0.dtd"
   xmlns:inkscape="http://www.inkscape.org/namespaces/inkscape"
   version="1.1"
   width="48"
   height="48"
   id="svg2"
   inkscape:version="0.48.5 r10040"
   sodipodi:docname="blueman-tray.svg">
  <sodipodi:namedview
     pagecolor="#ffffff"
     bordercolor="#666666"
     borderopacity="1"
     objecttolerance="10"
     gridtolerance="10"
     guidetolerance="10"
     inkscape:pageopacity="0"
     inkscape:pageshadow="2"
     inkscape:window-width="1920"
     inkscape:window-height="1007"
     id="namedview10"
     showgrid="false"
     inkscape:zoom="4.9166667"
     inkscape:cx="-15.355932"
     inkscape:cy="24"
     inkscape:window-x="0"
     inkscape:window-y="31"
     inkscape:window-maximized="1"
     inkscape:current-layer="g2996" />
  <defs
     id="defs4" />
  <metadata
     id="metadata7">
    <rdf:RDF>
      <cc:Work
         rdf:about="">
        <dc:format>image/svg+xml</dc:format>
        <dc:type
           rdf:resource="http://purl.org/dc/dcmitype/StillImage" />
        <dc:title />
      </cc:Work>
    </rdf:RDF>
  </metadata>
  <g
     transform="translate(0,-1004.3622)"
     id="layer1"
     style="fill:none">
    <g
       transform="matrix(0.29257695,0,0,0.29257695,-145.43193,820.12382)"
       id="g2996"
       style="fill:none;stroke:#000000;stroke-opacity:1">
      <path
         d="m 566.01067,780.71412 c -16.61637,-3.79406 -27.03511,-14.67427 -32.1634,-33.58801 -3.02224,-11.14636 -4.41266,-31.16997 -3.16343,-45.55692 3.55811,-40.97749 19.09413,-56.88322 53.87282,-55.15483 25.53138,1.26882 37.90287,12.80107 43.87774,40.90123 2.50986,11.80399 2.49926,41.93537 -0.0189,53.78468 -4.49187,21.13651 -13.21405,32.86662 -28.38383,38.17225 -7.67336,2.68376 -25.30815,3.43101 -34.02096,1.4416 z m 27.98748,-26.29118 c 8.66875,-8.65605 15.76137,-16.43346 15.76137,-17.28313 0,-0.84966 -4.725,-6.21872 -10.5,-11.93123 -5.775,-5.71251 -10.5,-10.88064 -10.5,-11.48474 0,-0.60409 4.725,-5.80727 10.5,-11.56262 5.775,-5.75535 10.5,-10.92758 10.5,-11.49385 0,-1.84992 -31.72803,-32.79227 -32.88911,-32.07468 -0.7559,0.46717 -1.11089,7.21862 -1.11089,21.12755 0,11.24254 -0.34806,20.44098 -0.77346,20.44098 -0.4254,0 -4.35235,-3.6 -8.72654,-8 -4.37419,-4.4 -8.60963,-8 -9.41209,-8 -1.73849,0 -6.08791,3.88751 -6.08791,5.44137 0,0.60101 4.95,6.02739 11,12.05863 6.05,6.03124 11,11.64152 11,12.4673 0,0.82577 -5.02293,6.53863 -11.16207,12.69523 -11.16207,11.19383 -11.16207,11.19383 -9.44173,13.81939 3.08171,4.70329 4.27103,4.30497 12.96241,-4.34127 4.50074,-4.47736 8.73627,-8.14065 9.41228,-8.14065 0.93185,0 1.22911,4.91762 1.22911,20.33333 0,18.67744 0.26286,21.66667 1.90529,21.66667 0.31458,0 7.66458,-7.08223 16.33334,-15.73828 z m -8.23863,-17.26172 c 0,-10.63992 0.59729,-11.02389 7,-4.5 4.41642,4.5 4.41642,4.5 0,9 -6.40271,6.52389 -7,6.13992 -7,-4.5 z m 0,-46.5 c 0,-11.55414 0.31793,-11.71777 7.3884,-3.80247 3.74952,4.19753 3.74952,4.19753 -0.4468,8.75 -6.24893,6.77929 -6.9416,6.28559 -6.9416,-4.94753 z"
         id="path2998"
         style="fill:#000000;fill-opacity:1;stroke:#000000;stroke-opacity:1"
         inkscape:connector-curvature="0" />
    </g>
  </g>
</svg>
