<?xml version="1.0" encoding="UTF-8" standalone="no"?>
<!-- Created with Inkscape (http://www.inkscape.org/) -->

<svg
   xmlns:dc="http://purl.org/dc/elements/1.1/"
   xmlns:cc="http://creativecommons.org/ns#"
   xmlns:rdf="http://www.w3.org/1999/02/22-rdf-syntax-ns#"
   xmlns:svg="http://www.w3.org/2000/svg"
   xmlns="http://www.w3.org/2000/svg"
   xmlns:sodipodi="http://sodipodi.sourceforge.net/DTD/sodipodi-0.dtd"
   xmlns:inkscape="http://www.inkscape.org/namespaces/inkscape"
   width="48px"
   height="48px"
   id="svg3465"
   sodipodi:version="0.32"
   inkscape:version="0.48.5 r10040"
   sodipodi:docname="channel-secure.svg"
   inkscape:output_extension="org.inkscape.output.svg.inkscape"
   sodipodi:modified="true"
   version="1.1">
  <defs
     id="defs3467" />
  <sodipodi:namedview
     id="base"
     pagecolor="#ffffff"
     bordercolor="#666666"
     borderopacity="1.0"
     inkscape:pageopacity="0.0"
     inkscape:pageshadow="2"
     inkscape:zoom="5.5831974"
     inkscape:cx="6.5343851"
     inkscape:cy="33.138444"
     inkscape:current-layer="layer1"
     showgrid="true"
     inkscape:grid-bbox="true"
     inkscape:document-units="px"
     inkscape:grid-points="true"
     inkscape:window-width="1920"
     inkscape:window-height="1007"
     inkscape:window-x="0"
     inkscape:window-y="31"
     inkscape:window-maximized="1" />
  <metadata
     id="metadata3470">
    <rdf:RDF>
      <cc:Work
         rdf:about="">
        <dc:format>image/svg+xml</dc:format>
        <dc:type
           rdf:resource="http://purl.org/dc/dcmitype/StillImage" />
        <dc:title />
      </cc:Work>
    </rdf:RDF>
  </metadata>
  <g
     id="layer1"
     inkscape:label="Layer 1"
     inkscape:groupmode="layer">
    <path
       style="opacity:1;color:#000000;fill:#000000;fill-opacity:1;fill-rule:nonzero;stroke:none;stroke-width:0.99999970000000005;stroke-linecap:butt;stroke-linejoin:miter;marker:none;marker-start:none;marker-mid:none;marker-end:none;stroke-miterlimit:10;stroke-dasharray:none;stroke-dashoffset:0;stroke-opacity:1;visibility:visible;display:block;overflow:visible"
       d="M 24.000000,4.0000000 C 17.000000,4.0000000 12.000000,8.1739046 12.000000,15.000000 L 12.000000,21.000000 L 10.000000,21.000000 C 8.0000000,21.000000 7.0000000,22.000000 7.0000000,24.000000 L 7.0000000,41.000000 C 7.0000000,41.980326 8.0000000,44.000000 10.000000,44.000000 L 39.384016,44.000000 C 41.000000,43.990546 42.000000,41.980324 42.000000,41.000000 L 42.000000,24.000000 C 42.000000,22.000000 41.000000,20.990546 39.000000,20.990546 L 37.000000,21.000000 L 37.000000,15.000000 C 37.000000,8.0000000 32.000000,4.0000000 25.000000,4.0000000 L 24.000000,4.0000000 z M 24.000000,9.0000000 L 25.000000,9.0000000 C 32.000000,9.0000000 32.000000,15.000000 32.000000,17.000000 L 32.000000,21.000000 L 17.000000,21.000000 L 17.000000,17.000000 C 17.000000,15.000000 17.000000,9.0000000 24.000000,9.0000000 z "
       id="path2086"
       inkscape:r_cx="true"
       inkscape:r_cy="true"
       sodipodi:nodetypes="cccccccccccccsccsccccc" />
  </g>
</svg>
