<?xml version="1.0" encoding="UTF-8" standalone="no"?>
<!-- Created with Inkscape (http://www.inkscape.org/) -->

<svg
   xmlns:dc="http://purl.org/dc/elements/1.1/"
   xmlns:cc="http://creativecommons.org/ns#"
   xmlns:rdf="http://www.w3.org/1999/02/22-rdf-syntax-ns#"
   xmlns:svg="http://www.w3.org/2000/svg"
   xmlns="http://www.w3.org/2000/svg"
   xmlns:sodipodi="http://sodipodi.sourceforge.net/DTD/sodipodi-0.dtd"
   xmlns:inkscape="http://www.inkscape.org/namespaces/inkscape"
   version="1.1"
   width="48"
   height="48"
   id="svg3465"
   inkscape:version="0.48.5 r10040"
   sodipodi:docname="changes-allow.svg">
  <sodipodi:namedview
     pagecolor="#ffffff"
     bordercolor="#666666"
     borderopacity="1"
     objecttolerance="10"
     gridtolerance="10"
     guidetolerance="10"
     inkscape:pageopacity="0"
     inkscape:pageshadow="2"
     inkscape:window-width="1920"
     inkscape:window-height="1007"
     id="namedview10"
     showgrid="false"
     inkscape:zoom="4.9166667"
     inkscape:cx="24"
     inkscape:cy="24"
     inkscape:window-x="0"
     inkscape:window-y="31"
     inkscape:window-maximized="1"
     inkscape:current-layer="layer1" />
  <defs
     id="defs3467" />
  <metadata
     id="metadata3470">
    <rdf:RDF>
      <cc:Work
         rdf:about="">
        <dc:format>image/svg+xml</dc:format>
        <dc:type
           rdf:resource="http://purl.org/dc/dcmitype/StillImage" />
        <dc:title />
      </cc:Work>
    </rdf:RDF>
  </metadata>
  <g
     id="layer1">
    <path
       d="m 14.0875,24.831457 -1.666,0 c -1.666,0 -2.499,0.833 -2.499,2.499 l 0,14.161 c 0,0.816612 0.833,2.499 2.499,2.499 l 24.476885,0 c 1.346115,-0.0079 2.179115,-1.68239 2.179115,-2.499 l 0,-14.161 c 0,-1.666 -0.833,-2.506875 -2.499,-2.506875 l -1.666,0.0079 -20.825,0 z m 16.66,0 -12.495,0 12.495,0 z"
       id="path2086"
       style="color:#000000;fill:#000000;fill-opacity:1;fill-rule:nonzero;stroke:none;stroke-width:0.99999970000000005;marker:none;visibility:visible;display:block;overflow:visible" />
    <path
       d="m 24.117884,3.9910684 c -5.831,0 -9.996,3.4768625 -9.996,9.1629996 l 0,4.998 20.825,0 0,-4.998 c 0,-5.8309996 -4.165,-9.1629996 -9.996,-9.1629996 l -0.833,0 z m 0,4.165 0.833,0 c 5.831,0 5.831,4.9979996 5.831,6.6639996 l 0,3.332 -12.495,0 0,-3.332 c 0,-1.666 0,-6.6639996 5.831,-6.6639996 z"
       id="path2161"
       style="color:#000000;fill:#000000;fill-opacity:1;fill-rule:nonzero;stroke:none;stroke-width:0.99999970000000005;marker:none;visibility:visible;display:block;overflow:visible" />
  </g>
</svg>
