<?xml version="1.0" encoding="UTF-8" standalone="no"?>
<!-- Generator: Adobe Illustrator 9.0, SVG Export Plug-In  -->

<svg
   xmlns:dc="http://purl.org/dc/elements/1.1/"
   xmlns:cc="http://creativecommons.org/ns#"
   xmlns:rdf="http://www.w3.org/1999/02/22-rdf-syntax-ns#"
   xmlns:svg="http://www.w3.org/2000/svg"
   xmlns="http://www.w3.org/2000/svg"
   xmlns:sodipodi="http://sodipodi.sourceforge.net/DTD/sodipodi-0.dtd"
   xmlns:inkscape="http://www.inkscape.org/namespaces/inkscape"
   width="48"
   height="48"
   viewBox="0 0 48 48"
   xml:space="preserve"
   id="svg2"
   sodipodi:version="0.32"
   inkscape:version="0.48.5 r10040"
   sodipodi:docname="dialog-information.svg"
   inkscape:output_extension="org.inkscape.output.svg.inkscape"
   version="1.0"><metadata
     id="metadata35"><rdf:RDF><cc:Work
         rdf:about=""><dc:format>image/svg+xml</dc:format><dc:type
           rdf:resource="http://purl.org/dc/dcmitype/StillImage" /><dc:title /></cc:Work></rdf:RDF></metadata><defs
     id="defs33" /><sodipodi:namedview
     inkscape:window-height="1007"
     inkscape:window-width="1920"
     inkscape:pageshadow="2"
     inkscape:pageopacity="0.0"
     guidetolerance="10.0"
     gridtolerance="10.0"
     objecttolerance="10.0"
     borderopacity="1.0"
     bordercolor="#666666"
     pagecolor="#ffffff"
     id="base"
     width="48px"
     height="48px"
     inkscape:zoom="6.7833333"
     inkscape:cx="-16.971057"
     inkscape:cy="24.103194"
     inkscape:window-x="0"
     inkscape:window-y="31"
     inkscape:current-layer="svg2"
     showgrid="false"
     inkscape:window-maximized="1" /><g
     id="Layer_x0020_4"
     style="fill-rule:nonzero;stroke:#000000;stroke-width:0.81389493;stroke-miterlimit:4;fill:#000000;fill-opacity:1"
     transform="matrix(1.2287002,0,0,1.2286195,-5.5002387,-5.4868675)"><g
       style="stroke:none;fill:#000000;fill-opacity:1"
       id="g5"><flowRoot
         xml:space="preserve"
         id="flowRoot3789"
         style="fill:black;stroke:none;stroke-opacity:1;stroke-width:1px;stroke-linejoin:miter;stroke-linecap:butt;fill-opacity:1;font-family:Sans;font-style:normal;font-weight:normal;font-size:4px;line-height:125%;letter-spacing:0px;word-spacing:0px"><flowRegion
           id="flowRegion3791"><rect
             id="rect3793"
             width="5.6019654"
             height="17.395578"
             x="16.805897"
             y="16.452087" /></flowRegion><flowPara
           id="flowPara3795" /></flowRoot><path
         sodipodi:type="arc"
         style="fill:none;fill-opacity:1;stroke:#000000;stroke-width:2.56516971;stroke-miterlimit:4;stroke-opacity:1;stroke-dasharray:none"
         id="path2988-8"
         sodipodi:cx="24.692875"
         sodipodi:cy="26.771498"
         sodipodi:rx="8.6240788"
         sodipodi:ry="8.2555285"
         d="m 33.316954,26.771498 a 8.6240788,8.2555285 0 1 1 -17.248158,0 8.6240788,8.2555285 0 1 1 17.248158,0 z"
         transform="matrix(1.5602928,0,0,1.7072624,-14.560604,-21.78996)" /><path
         inkscape:connector-curvature="0"
         id="path3830"
         style="font-size:17.90568733px;font-style:normal;font-variant:normal;font-weight:bold;font-stretch:normal;line-height:125%;letter-spacing:0px;word-spacing:0px;fill:#000000;font-family:Ubuntu;-inkscape-font-specification:Ubuntu Bold"
         d="m 25.559122,30.095412 -2.667859,0 0,-9.4187 2.667859,0 0,9.4187 m 0.250672,-12.140454 c -4e-6,0.48945 -0.161149,0.877418 -0.483438,1.163908 -0.310358,0.274573 -0.680397,0.411854 -1.110116,0.411844 -0.429724,10e-6 -0.805731,-0.137271 -1.128022,-0.411844 -0.310355,-0.28649 -0.465532,-0.674458 -0.465531,-1.163908 -10e-7,-0.489426 0.155176,-0.871426 0.465531,-1.146003 0.322291,-0.286486 0.698298,-0.429737 1.128022,-0.42975 0.429719,1.3e-5 0.799758,0.143264 1.110116,0.42975 0.322289,0.274577 0.483434,0.656577 0.483438,1.146003" /></g></g></svg>