<?xml version="1.0" encoding="UTF-8" standalone="no"?>
<!-- Created with Inkscape (http://www.inkscape.org/) -->

<svg
   xmlns:dc="http://purl.org/dc/elements/1.1/"
   xmlns:cc="http://creativecommons.org/ns#"
   xmlns:rdf="http://www.w3.org/1999/02/22-rdf-syntax-ns#"
   xmlns:svg="http://www.w3.org/2000/svg"
   xmlns="http://www.w3.org/2000/svg"
   xmlns:sodipodi="http://sodipodi.sourceforge.net/DTD/sodipodi-0.dtd"
   xmlns:inkscape="http://www.inkscape.org/namespaces/inkscape"
   version="1.1"
   width="48"
   height="48"
   viewBox="0 0 48 48"
   id="svg1358"
   xml:space="preserve"
   inkscape:version="0.48.5 r10040"
   sodipodi:docname="folder-drag-accept.svg"><sodipodi:namedview
     pagecolor="#ffffff"
     bordercolor="#666666"
     borderopacity="1"
     objecttolerance="10"
     gridtolerance="10"
     guidetolerance="10"
     inkscape:pageopacity="0"
     inkscape:pageshadow="2"
     inkscape:window-width="1920"
     inkscape:window-height="1007"
     id="namedview8"
     showgrid="false"
     inkscape:zoom="4.9166667"
     inkscape:cx="-45.864407"
     inkscape:cy="24"
     inkscape:window-x="0"
     inkscape:window-y="31"
     inkscape:window-maximized="1"
     inkscape:current-layer="svg1358" /><defs
     id="defs9" /><metadata
     id="metadata1375"><rdf:RDF><cc:Work
         rdf:about=""><dc:format>image/svg+xml</dc:format><dc:type
           rdf:resource="http://purl.org/dc/dcmitype/StillImage" /><dc:title /><dc:description>A folder</dc:description><cc:license
           rdf:resource="http://creativecommons.org/licenses/LGPL/2.1/" /><dc:contributor><cc:Agent><dc:title /></cc:Agent></dc:contributor><dc:subject><rdf:Bag><rdf:li>folder</rdf:li><rdf:li>directory</rdf:li></rdf:Bag></dc:subject></cc:Work><cc:License
         rdf:about="http://creativecommons.org/licenses/LGPL/2.1/"><cc:permits
           rdf:resource="http://web.resource.org/cc/Reproduction" /><cc:permits
           rdf:resource="http://web.resource.org/cc/Distribution" /><cc:requires
           rdf:resource="http://web.resource.org/cc/Notice" /><cc:permits
           rdf:resource="http://web.resource.org/cc/DerivativeWorks" /><cc:requires
           rdf:resource="http://web.resource.org/cc/ShareAlike" /><cc:requires
           rdf:resource="http://web.resource.org/cc/SourceCode" /></cc:License></rdf:RDF></metadata><rect
     width="51"
     height="51"
     x="-1.75"
     y="0.15254237"
     id="rect4762"
     style="fill:none" /><path
     d="m 6.9788137,8.9261333 c -2,0 -2.9999999,0.9999999 -2.9999999,2.9999997 v 25 c 0,2 1.9999999,4 3.9999999,4 H 39.978814 c 1.999999,0 4,-2 4,-4 V 18.926132 c 0,-1.999999 -2.000001,-3.999999 -4,-3.999999 H 21.978813 v -3 c 0,-1.9999998 -1,-2.9999997 -2.999999,-2.9999997 H 6.9788137 z"
     id="path1365"
     style="stroke:#000000;fill:none;stroke-opacity:1;stroke-width:2;stroke-miterlimit:4;stroke-dasharray:none"
     inkscape:connector-curvature="0" /><path
     style="fill:#000000;fill-opacity:1;fill-rule:nonzero;stroke:none"
     d="m 29.913274,17.849369 c -2.644813,0.145613 -3.601413,3.211358 -5.229729,4.863022 -1.401241,1.869892 -2.713186,3.749451 -4.186732,5.55774 -1.997191,-1.516902 -3.532252,-4.015414 -6.025799,-4.772727 -2.824629,-0.600885 -5.1491721,3.118018 -3.270884,5.334766 2.580768,2.72082 5.019244,5.716129 8.154177,7.804054 1.817561,0.867956 3.735449,-0.300702 4.652948,-1.925676 3.087861,-4.0464 6.521463,-7.945449 9.112407,-12.318795 1.035196,-2.285393 -0.846371,-4.596566 -3.206388,-4.542384 z"
     id="path2996"
     inkscape:connector-curvature="0" /></svg>