<?xml version="1.0" encoding="UTF-8" standalone="no"?>
<svg
   xmlns:osb="http://www.openswatchbook.org/uri/2009/osb"
   xmlns:dc="http://purl.org/dc/elements/1.1/"
   xmlns:cc="http://creativecommons.org/ns#"
   xmlns:rdf="http://www.w3.org/1999/02/22-rdf-syntax-ns#"
   xmlns:svg="http://www.w3.org/2000/svg"
   xmlns="http://www.w3.org/2000/svg"
   xmlns:sodipodi="http://sodipodi.sourceforge.net/DTD/sodipodi-0.dtd"
   xmlns:inkscape="http://www.inkscape.org/namespaces/inkscape"
   height="16"
   version="1.1"
   width="16"
   enable-background="new"
   id="svg2"
   inkscape:version="0.48.5 r10040"
   sodipodi:docname="media-playlist-shuffle-rtl-symbolic.svg">
  <sodipodi:namedview
     pagecolor="#ffffff"
     bordercolor="#666666"
     borderopacity="1"
     objecttolerance="10"
     gridtolerance="10"
     guidetolerance="10"
     inkscape:pageopacity="0"
     inkscape:pageshadow="2"
     inkscape:window-width="1920"
     inkscape:window-height="1007"
     id="namedview15"
     showgrid="false"
     inkscape:zoom="14.75"
     inkscape:cx="8"
     inkscape:cy="8"
     inkscape:window-x="0"
     inkscape:window-y="31"
     inkscape:window-maximized="1"
     inkscape:current-layer="svg2" />
  <metadata
     id="metadata90">
    <rdf:RDF>
      <cc:Work
         rdf:about="">
        <dc:format>image/svg+xml</dc:format>
        <dc:type
           rdf:resource="http://purl.org/dc/dcmitype/StillImage" />
      </cc:Work>
    </rdf:RDF>
  </metadata>
  <defs
     id="defs7386">
    <linearGradient
       id="linearGradient5606"
       osb:paint="solid">
      <stop
         id="stop5608" />
    </linearGradient>
  </defs>
  <g
     inkscape:groupmode="layer"
     id="layer9"
     inkscape:label="status"
     transform="translate(-481.0002,203)">
    <path
       inkscape:connector-curvature="0"
       d="m 496.0002,-200 0,0.9375 0,1.0625 -4,0 c -0.5713,0 -1,0.4287 -1,1 l 0,4 c 0,1.6447 -1.3553,3 -3,3 l -5,0 0,-2 5,0 c 0.5713,0 1,-0.4287 1,-1 l 0,-4 c 0,-1.6447 1.3553,-3 3,-3 z"
       id="path5064"
       sodipodi:nodetypes="cccssssccssssc"
       fill="#555555"
       color="#555555"
       style="fill:#000000;fill-opacity:1" />
    <path
       inkscape:connector-curvature="0"
       d="m 488.0002,-200 c 0.22957,0 0.44085,0.0438 0.65625,0.0937 -0.4813,0.5511 -0.86125,1.1776 -1.0312,1.9062 l -4.625,0 0,-2 5,0 z m 8,10 -4,0 c -0.22957,0 -0.44085,-0.0438 -0.65625,-0.0937 0.4813,-0.55115 0.86125,-1.1777 1.0312,-1.9063 l 3.62505,0 z"
       id="path5066"
       sodipodi:nodetypes="ccccccccscccc"
       fill="#555555"
       color="#555555"
       style="fill:#000000;fill-opacity:1" />
    <path
       inkscape:connector-curvature="0"
       d="m 485.0002,-202 0,6 -4,-3 z"
       id="path5068"
       fill="#555555"
       style="fill:#000000;fill-opacity:1" />
    <path
       inkscape:connector-curvature="0"
       d="m 485.0002,-194 0,6 -4,-3 z"
       id="path5070"
       fill="#555555"
       style="fill:#000000;fill-opacity:1" />
  </g>
</svg>
