<?xml version="1.0" encoding="UTF-8" standalone="no"?>
<!-- Created with Inkscape (http://www.inkscape.org/) -->

<svg
   xmlns:dc="http://purl.org/dc/elements/1.1/"
   xmlns:cc="http://creativecommons.org/ns#"
   xmlns:rdf="http://www.w3.org/1999/02/22-rdf-syntax-ns#"
   xmlns:svg="http://www.w3.org/2000/svg"
   xmlns="http://www.w3.org/2000/svg"
   xmlns:sodipodi="http://sodipodi.sourceforge.net/DTD/sodipodi-0.dtd"
   xmlns:inkscape="http://www.inkscape.org/namespaces/inkscape"
   version="1.0"
   width="48"
   height="48"
   viewBox="0 0 48 48"
   id="svg2"
   xml:space="preserve"
   inkscape:version="0.48.5 r10040"
   sodipodi:docname="network-no-route.svg"><sodipodi:namedview
     pagecolor="#ffffff"
     bordercolor="#666666"
     borderopacity="1"
     objecttolerance="10"
     gridtolerance="10"
     guidetolerance="10"
     inkscape:pageopacity="0"
     inkscape:pageshadow="2"
     inkscape:window-width="1920"
     inkscape:window-height="1007"
     id="namedview15"
     showgrid="false"
     inkscape:zoom="16.208334"
     inkscape:cx="25.999999"
     inkscape:cy="24"
     inkscape:window-x="0"
     inkscape:window-y="31"
     inkscape:window-maximized="1"
     inkscape:current-layer="svg2" /><metadata
     id="metadata33"><rdf:RDF><cc:Work
         rdf:about=""><dc:format>image/svg+xml</dc:format><dc:type
           rdf:resource="http://purl.org/dc/dcmitype/StillImage" /><dc:title /></cc:Work></rdf:RDF></metadata><defs
     id="defs31" /><g
     transform="matrix(1.0471204,0,0,1.0474308,76.307247,-29.548808)"
     id="Layer_x0020_3"
     style="fill:#000000;fill-opacity:1;fill-rule:nonzero;stroke:#000000;stroke-width:0.85454547;stroke-miterlimit:4"><g
       id="g5"
       style="fill:#000000;fill-opacity:1;stroke:none"><g
         id="g21"
         style="fill:none"><path
           d="m -35.508846,42.241258 c 0,0 -0.4,-10.6 -6.3,-10.6 -5.9,0 -5.9,0 -5.9,0 l 0,25.3 c 0,0 -0.2,0 5.9,0 6,0 6.3,-10.6 6.3,-10.6 l 5.4,0 0,-4 -5.4,0 0,-0.1 z"
           id="path23"
           style="fill:#000000;fill-opacity:1"
           inkscape:connector-curvature="0" /><path
           d="m -50.408846,44.629938 c 0,0 0,0 -5.3,0 -5.3,0 -6.3,10.6 -6.3,10.6 l -6.3,0 0,4 6.2,0 c 0,0 1,10.6 6.3,10.6 5.3,0 5.3,0 5.3,0 l 0,-25.2 0.1,0 z"
           id="path25"
           style="fill:#000000;fill-opacity:1"
           inkscape:connector-curvature="0" /></g></g></g></svg>