<?xml version="1.0" encoding="UTF-8" standalone="no"?>
<!-- Created with Inkscape (http://www.inkscape.org/) -->

<svg
   xmlns:dc="http://purl.org/dc/elements/1.1/"
   xmlns:cc="http://creativecommons.org/ns#"
   xmlns:rdf="http://www.w3.org/1999/02/22-rdf-syntax-ns#"
   xmlns:svg="http://www.w3.org/2000/svg"
   xmlns="http://www.w3.org/2000/svg"
   xmlns:sodipodi="http://sodipodi.sourceforge.net/DTD/sodipodi-0.dtd"
   xmlns:inkscape="http://www.inkscape.org/namespaces/inkscape"
   version="1.0"
   width="48"
   height="48"
   id="svg2"
   inkscape:version="0.48.5 r10040"
   sodipodi:docname="gnome-netstatus-idle.svg">
  <sodipodi:namedview
     pagecolor="#ffffff"
     bordercolor="#666666"
     borderopacity="1"
     objecttolerance="10"
     gridtolerance="10"
     guidetolerance="10"
     inkscape:pageopacity="0"
     inkscape:pageshadow="2"
     inkscape:window-width="1920"
     inkscape:window-height="1007"
     id="namedview15"
     showgrid="false"
     inkscape:zoom="9.8333333"
     inkscape:cx="17.644068"
     inkscape:cy="32.645686"
     inkscape:window-x="0"
     inkscape:window-y="31"
     inkscape:window-maximized="1"
     inkscape:current-layer="g2985" />
  <metadata
     id="metadata7">
    <rdf:RDF>
      <cc:Work
         rdf:about="">
        <dc:format>image/svg+xml</dc:format>
        <dc:type
           rdf:resource="http://purl.org/dc/dcmitype/StillImage" />
        <dc:title />
      </cc:Work>
    </rdf:RDF>
  </metadata>
  <defs
     id="defs5" />
  <g
     transform="matrix(0.83333333,0,0,0.83333333,4,4.0000002)"
     id="g2985">
    <path
       d="m 19.0625,16.690466 c -2.5761,0 -4.65625,2.0489 -4.65625,4.625 l 0,21.90625 c 0,2.5761 2.08015,4.65625 4.65625,4.65625 l 24.28125,0 c 2.5761,0 4.656248,-2.080149 4.65625,-4.65625 l 0,-21.90625 c 0,-2.5761 -2.08015,-4.625 -4.65625,-4.625 l -24.28125,0 z m 1.625,3.59375 21,0 c 1.495799,0 2.71875,1.1917 2.71875,2.6875 l 0,18.59375 c -2e-6,1.495799 -1.22295,2.71875 -2.71875,2.71875 l -21,0 C 19.191699,44.284214 18,43.061266 18,41.565466 l 0,-18.59375 c 0,-1.495801 1.1917,-2.6875 2.6875,-2.6875 z"
       id="rect5081"
       style="color:#000000;fill:#000000;fill-opacity:1;fill-rule:nonzero;stroke:none;stroke-width:2;marker:none;visibility:visible;display:inline;overflow:visible;enable-background:accumulate"
       inkscape:connector-curvature="0" />
    <path
       d="M 4.65625,0 C 2.0801499,0 0,2.0801499 0,4.65625 L 0,26.5625 c 0,2.5761 2.0801499,4.625 4.65625,4.625 l 9.75,0 0,-3.59375 -8.09375,0 c -1.4958003,0 -2.71875,-1.1917 -2.71875,-2.6875 l 0,-18.59375 c 0,-1.4958003 1.22295,-2.71875 2.71875,-2.71875 l 21,0 C 28.8083,3.59375 30,4.8167 30,6.3125 l 0,10.5 3.59375,0 0,-12.15625 C 33.59375,2.0801499 31.5136,0 28.9375,0 L 4.65625,0 z"
       id="rect2161"
       style="color:#000000;fill:#000000;fill-opacity:1;fill-rule:nonzero;stroke:none;stroke-width:2;marker:none;visibility:visible;display:inline;overflow:visible;enable-background:accumulate" />
    <path
       d="m 7.1875,7.1875 0,16.8125 7.21875,0 0,-2.5625 c 0,-2.5761 2.08015,-4.625 4.65625,-4.625 l 7.34375,0 0,-9.625 -19.21875,0 z"
       id="rect5077"
       style="color:#000000;fill:#000000;fill-opacity:1;fill-rule:nonzero;stroke:none;stroke-width:2;marker:none;visibility:visible;display:inline;overflow:visible;enable-background:accumulate" />
    <rect
       width="19.200001"
       height="16.799999"
       x="21.722034"
       y="24.244068"
       id="rect5085"
       style="color:#000000;fill:#000000;fill-opacity:1;fill-rule:nonzero;stroke:none;stroke-width:2;marker:none;visibility:visible;display:inline;overflow:visible;enable-background:accumulate" />
  </g>
</svg>
