<?xml version="1.0" encoding="UTF-8" standalone="no"?>
<!-- Created with Inkscape (http://www.inkscape.org/) -->

<svg
   xmlns:dc="http://purl.org/dc/elements/1.1/"
   xmlns:cc="http://creativecommons.org/ns#"
   xmlns:rdf="http://www.w3.org/1999/02/22-rdf-syntax-ns#"
   xmlns:svg="http://www.w3.org/2000/svg"
   xmlns="http://www.w3.org/2000/svg"
   xmlns:sodipodi="http://sodipodi.sourceforge.net/DTD/sodipodi-0.dtd"
   xmlns:inkscape="http://www.inkscape.org/namespaces/inkscape"
   id="svg2"
   sodipodi:version="0.32"
   inkscape:version="0.48.5 r10040"
   width="48"
   height="48"
   version="1.0"
   sodipodi:docname="gnome-netstatus-error.svg"
   inkscape:output_extension="org.inkscape.output.svg.inkscape">
  <metadata
     id="metadata7">
    <rdf:RDF>
      <cc:Work
         rdf:about="">
        <dc:format>image/svg+xml</dc:format>
        <dc:type
           rdf:resource="http://purl.org/dc/dcmitype/StillImage" />
      </cc:Work>
    </rdf:RDF>
  </metadata>
  <defs
     id="defs5">
    <linearGradient
       id="linearGradient4447">
      <stop
         id="stop4449"
         offset="0"
         style="stop-color:#c00;stop-opacity:1;" />
      <stop
         id="stop4451"
         offset="1"
         style="stop-color:#ad0000;stop-opacity:1;" />
    </linearGradient>
  </defs>
  <sodipodi:namedview
     inkscape:window-height="1007"
     inkscape:window-width="1920"
     inkscape:pageshadow="2"
     inkscape:pageopacity="0.48627451"
     guidetolerance="10000"
     gridtolerance="10.0"
     objecttolerance="10000"
     borderopacity="1.0"
     bordercolor="#666666"
     pagecolor="#aa2727"
     id="base"
     showgrid="true"
     inkscape:zoom="11.313709"
     inkscape:cx="18.295101"
     inkscape:cy="18.086986"
     inkscape:window-x="0"
     inkscape:window-y="31"
     inkscape:current-layer="g2991"
     inkscape:window-maximized="1" />
  <g
     id="g2991"
     transform="matrix(0.83333333,0,0,0.83333333,5.7677669,5.5026021)">
    <path
       id="rect2161"
       d="m 8.9259199,2.4 c -2.5761001,0 -4.65625,2.0801499 -4.65625,4.65625 l 0,21.90625 c 0,2.5761 2.0801499,4.625 4.65625,4.625 l 4.7500001,0 c -0.534891,-1.137823 -0.990873,-2.330985 -1.25,-3.59375 l -1.84375,0 c -1.4958004,0 -2.7187501,-1.1917 -2.7187501,-2.6875 l 0,-18.59375 c 0,-1.4958003 1.22295,-2.71875 2.7187501,-2.71875 l 21,0 c 1.4958,0 2.6875,1.22295 2.6875,2.71875 l 0,2.9375 c 1.28635,0.508127 2.492113,1.165577 3.59375,1.96875 l 0,-6.5625 C 37.86342,4.4801499 35.78327,2.4 33.20717,2.4 l -24.2812501,0 z"
       style="color:#000000;fill:#000000;fill-opacity:1;fill-rule:nonzero;stroke:none;stroke-width:2;marker:none;visibility:visible;display:inline;overflow:visible;enable-background:accumulate"
       inkscape:connector-curvature="0" />
    <path
       id="rect5077"
       d="m 11.9875,9.5875 0,16.8125 0.6875,0 c 0.185736,-8.782229 7.357984,-15.875 16.1875,-15.875 0.79954,0 1.57489,0.04406 2.34375,0.15625 l 0,-1.09375 -19.21875,0 z"
       style="color:#000000;fill:#000000;fill-opacity:1;fill-rule:nonzero;stroke:none;stroke-width:2;marker:none;visibility:visible;display:inline;overflow:visible;enable-background:accumulate"
       inkscape:connector-curvature="0" />
    <g
       transform="matrix(1.2,0,0,1.2,2.4168314,0.09843168)"
       id="layer1"
       inkscape:label="Layer 1">
      <g
         transform="matrix(1.566667,0,0,1.566667,-8.925566,-23.94764)"
         id="g7435" />
    </g>
    <path
       id="path4445"
       d="m 29.180698,11.05533 c -8.945783,0 -16.21875,7.276543 -16.21875,16.21875 0,8.942207 7.272967,16.1875 16.21875,16.1875 8.94578,1e-6 16.21875,-7.245293 16.21875,-16.1875 0,-8.942207 -7.272969,-16.21875 -16.21875,-16.21875 z m -9.09375,13.21875 18.25,0 0,5.65625 -18.25,0 0,-5.65625 z"
       style="color:#000000;fill:none;stroke:#000000;stroke-width:1.20000005;stroke-linecap:round;stroke-linejoin:round;stroke-miterlimit:4;stroke-opacity:1;stroke-dasharray:none;marker:none;visibility:visible;display:inline;overflow:visible"
       inkscape:connector-curvature="0" />
  </g>
</svg>
