<?xml version="1.0" encoding="UTF-8" standalone="no"?>
<!-- Created with Inkscape (http://www.inkscape.org/) -->

<svg
   xmlns:dc="http://purl.org/dc/elements/1.1/"
   xmlns:cc="http://creativecommons.org/ns#"
   xmlns:rdf="http://www.w3.org/1999/02/22-rdf-syntax-ns#"
   xmlns:svg="http://www.w3.org/2000/svg"
   xmlns="http://www.w3.org/2000/svg"
   xmlns:xlink="http://www.w3.org/1999/xlink"
   xmlns:sodipodi="http://sodipodi.sourceforge.net/DTD/sodipodi-0.dtd"
   xmlns:inkscape="http://www.inkscape.org/namespaces/inkscape"
   version="1.1"
   width="48"
   height="48"
   id="svg4641"
   inkscape:version="0.48.5 r10040"
   sodipodi:docname="gnome-netstatus-0-24.svg">
  <sodipodi:namedview
     pagecolor="#ffffff"
     bordercolor="#666666"
     borderopacity="1"
     objecttolerance="10"
     gridtolerance="10"
     guidetolerance="10"
     inkscape:pageopacity="0"
     inkscape:pageshadow="2"
     inkscape:window-width="1920"
     inkscape:window-height="1007"
     id="namedview19"
     showgrid="false"
     inkscape:zoom="13.906434"
     inkscape:cx="28.345684"
     inkscape:cy="25.63151"
     inkscape:window-x="0"
     inkscape:window-y="31"
     inkscape:window-maximized="1"
     inkscape:current-layer="layer1" />
  <metadata
     id="metadata19">
    <rdf:RDF>
      <cc:Work
         rdf:about="">
        <dc:format>image/svg+xml</dc:format>
        <dc:type
           rdf:resource="http://purl.org/dc/dcmitype/StillImage" />
        <dc:title />
      </cc:Work>
    </rdf:RDF>
  </metadata>
  <defs
     id="defs4643">
    <radialGradient
       cx="-0.1875"
       cy="-0.43750006"
       r="24.1875"
       fx="-0.1875"
       fy="-0.43750006"
       id="radialGradient4437"
       xlink:href="#linearGradient2867-449-88-871-390-598-476-591-434-148-7"
       gradientUnits="userSpaceOnUse"
       gradientTransform="matrix(0,1.6796578,-2.8677383,0,-1.4421357,7.2524358)" />
    <linearGradient
       id="linearGradient2867-449-88-871-390-598-476-591-434-148-7">
      <stop
         id="stop4627-7"
         style="stop-color:#51cfee;stop-opacity:1"
         offset="0" />
      <stop
         id="stop4629-6"
         style="stop-color:#49a3d2;stop-opacity:1"
         offset="0.26238" />
      <stop
         id="stop4631-4"
         style="stop-color:#3470b4;stop-opacity:1"
         offset="0.704952" />
      <stop
         id="stop4633-3"
         style="stop-color:#1b5699;stop-opacity:1"
         offset="1" />
    </linearGradient>
  </defs>
  <g
     transform="matrix(0.9973486,0,0,1,0.0636336,0)"
     id="layer1"
     style="fill:#000000;fill-opacity:1;stroke:#ffffff;stroke-opacity:1">
    <path
       d="m 19.863298,25.292679 c -1.219524,0 -2.361005,0.417573 -3.341147,1.121786 l 3.341147,4.079217 3.341146,-4.079217 c -0.980142,-0.704213 -2.121623,-1.121786 -3.341146,-1.121786 z m 0,-7.34259 c -2.886376,0 -5.538189,1.19537 -7.663755,3.186889 l 2.652035,3.237879 c 1.415736,-1.149522 3.100492,-1.835649 4.928191,-1.835649 1.871909,0 3.596776,0.71115 5.032601,1.912133 l 2.714681,-3.314363 c -2.125566,-1.991519 -4.777378,-3.186889 -7.663753,-3.186889 l 0,0 z m 0,-6.934668 c -4.457004,0 -8.541441,1.941343 -11.7148951,5.175507 l 2.3805671,2.906441 c 2.56018,-2.507002 5.797076,-4.002731 9.334328,-4.002731 3.537251,0 6.774147,1.495729 9.334327,4.002731 l 2.380566,-2.906441 C 28.404738,12.956764 24.3203,11.015421 19.863298,11.015421 l 0,0 z m 0,-6.9346679 c -6.026043,0 -11.5333524,2.7074033 -15.7451526,7.1896199 l 2.3805666,2.906441 c 3.601419,-3.746322 8.262427,-6.0168446 13.364586,-6.0168446 5.102158,0 9.763166,2.2705226 13.364584,6.0168446 l 2.380567,-2.906441 C 31.396649,6.7881564 25.88934,4.0807531 19.863298,4.0807531 l 0,0 z"
       id="path4112-19-69-3"
       style="fill:#000000;fill-opacity:1;stroke:none;stroke-width:1.49425256;marker:none;visibility:visible;display:inline;overflow:visible;enable-background:accumulate"
       inkscape:connector-curvature="0" />
    <path
       d="m 34.036148,27.122159 -9.024176,15.868543 18.048353,0 -9.024177,-15.868543 z"
       id="path9-3"
       style="fill:none;stroke:#000000;stroke-width:1.00132835;stroke-linecap:round;stroke-linejoin:round;stroke-miterlimit:4;stroke-opacity:1;stroke-dasharray:none"
       inkscape:connector-curvature="0" />
    <path
       d="m 32.974479,38.188536 -0.530834,-5.818464 3.185004,0 -0.530833,5.818464 -2.123337,0 z"
       id="path15-6"
       style="fill:#000000;fill-opacity:1;stroke:none"
       inkscape:connector-curvature="0" />
    <path
       d="m 35.595473,40.337416 a 1.5759135,1.5951195 0 0 1 -3.151827,0 1.5759135,1.5951195 0 1 1 3.151827,0 z"
       id="path6965-2"
       style="fill:#000000;fill-opacity:1;fill-rule:evenodd;stroke:none"
       inkscape:connector-curvature="0" />
  </g>
</svg>
