<?xml version="1.0" encoding="UTF-8" standalone="no"?>
<!-- Created with Inkscape (http://www.inkscape.org/) -->

<svg
   xmlns:dc="http://purl.org/dc/elements/1.1/"
   xmlns:cc="http://creativecommons.org/ns#"
   xmlns:rdf="http://www.w3.org/1999/02/22-rdf-syntax-ns#"
   xmlns:svg="http://www.w3.org/2000/svg"
   xmlns="http://www.w3.org/2000/svg"
   xmlns:sodipodi="http://sodipodi.sourceforge.net/DTD/sodipodi-0.dtd"
   xmlns:inkscape="http://www.inkscape.org/namespaces/inkscape"
   id="svg2"
   sodipodi:version="0.32"
   inkscape:version="0.48.5 r10040"
   width="48"
   height="48"
   version="1.0"
   sodipodi:docname="gnome-netstatus-rx.svg"
   inkscape:output_extension="org.inkscape.output.svg.inkscape">
  <metadata
     id="metadata7">
    <rdf:RDF>
      <cc:Work
         rdf:about="">
        <dc:format>image/svg+xml</dc:format>
        <dc:type
           rdf:resource="http://purl.org/dc/dcmitype/StillImage" />
      </cc:Work>
    </rdf:RDF>
  </metadata>
  <defs
     id="defs5" />
  <sodipodi:namedview
     inkscape:window-height="1007"
     inkscape:window-width="1920"
     inkscape:pageshadow="2"
     inkscape:pageopacity="0.48627451"
     guidetolerance="10000"
     gridtolerance="10.0"
     objecttolerance="10000"
     borderopacity="1.0"
     bordercolor="#666666"
     pagecolor="#aa2727"
     id="base"
     showgrid="true"
     inkscape:zoom="11.313708"
     inkscape:cx="17.622169"
     inkscape:cy="23.041456"
     inkscape:window-x="0"
     inkscape:window-y="31"
     inkscape:current-layer="g2985"
     inkscape:window-maximized="1" />
  <g
     id="g2985"
     transform="matrix(0.83333333,0,0,0.83333333,-28.08497,5.5026021)">
    <path
       id="rect5081"
       d="m 58.625125,15.645774 c -2.5761,0 -4.65625,2.0489 -4.65625,4.625 l 0,21.90625 c 0,2.5761 2.08015,4.65625 4.65625,4.65625 l 24.28125,0 c 2.5761,0 4.656248,-2.080149 4.65625,-4.65625 l 0,-21.90625 c 0,-2.5761 -2.08015,-4.625 -4.65625,-4.625 l -24.28125,0 z m 1.625,3.59375 21,0 c 1.495799,0 2.71875,1.1917 2.71875,2.6875 l 0,18.59375 c -2e-6,1.495799 -1.22295,2.71875 -2.71875,2.71875 l -21,0 c -1.495801,-2e-6 -2.6875,-1.22295 -2.6875,-2.71875 l 0,-18.59375 c 0,-1.495801 1.1917,-2.6875 2.6875,-2.6875 z"
       style="color:#000000;fill:#000000;fill-opacity:1;fill-rule:nonzero;stroke:none;stroke-width:2;marker:none;visibility:visible;display:inline;overflow:visible;enable-background:accumulate"
       inkscape:connector-curvature="0" />
    <path
       id="rect2161"
       d="m 44.218875,-1.1667262 c -2.5761,0 -4.65625,2.08014991 -4.65625,4.65625 l 0,21.9062502 c 0,2.5761 2.08015,4.625 4.65625,4.625 l 9.75,0 0,-3.59375 -8.09375,0 c -1.4958,0 -2.71875,-1.1917 -2.71875,-2.6875 l 0,-18.5937502 c 0,-1.4958003 1.22295,-2.71875 2.71875,-2.71875 l 21,0 c 1.4958,0 2.6875,1.22295 2.6875,2.71875 l 0,10.5000002 3.59375,0 0,-12.1562502 c 0,-2.57610009 -2.08015,-4.65625 -4.65625,-4.65625 l -24.28125,0 z"
       style="color:#000000;fill:#000000;fill-opacity:1;fill-rule:nonzero;stroke:none;stroke-width:2;marker:none;visibility:visible;display:inline;overflow:visible;enable-background:accumulate"
       inkscape:connector-curvature="0" />
    <path
       id="rect5077"
       d="m 46.750125,6.0207738 0,16.8125002 7.21875,0 0,-2.5625 c 0,-0.08608 0.02666,-0.165152 0.03125,-0.25 l -4.03125,0 0,-11.1875002 12.78125,0 0,6.8125002 3.21875,0 0,-9.6250002 -19.21875,0 z"
       style="color:#000000;fill:#000000;fill-opacity:1;fill-rule:nonzero;stroke:none;stroke-width:2;marker:none;visibility:visible;display:inline;overflow:visible;enable-background:accumulate"
       inkscape:connector-curvature="0" />
    <rect
       y="23.257538"
       x="61.268696"
       height="16.799999"
       width="19.200001"
       id="rect5085"
       style="color:#000000;fill:#000000;fill-opacity:1;fill-rule:nonzero;stroke:none;stroke-width:2;marker:none;visibility:visible;display:inline;overflow:visible;enable-background:accumulate" />
  </g>
</svg>
