<?xml version="1.0" encoding="UTF-8" standalone="no"?>
<!-- Created with Inkscape (http://www.inkscape.org/) -->

<svg
   xmlns:dc="http://purl.org/dc/elements/1.1/"
   xmlns:cc="http://creativecommons.org/ns#"
   xmlns:rdf="http://www.w3.org/1999/02/22-rdf-syntax-ns#"
   xmlns:svg="http://www.w3.org/2000/svg"
   xmlns="http://www.w3.org/2000/svg"
   xmlns:sodipodi="http://sodipodi.sourceforge.net/DTD/sodipodi-0.dtd"
   xmlns:inkscape="http://www.inkscape.org/namespaces/inkscape"
   version="1.0"
   width="48"
   height="48"
   id="svg2"
   inkscape:version="0.48.5 r10040"
   sodipodi:docname="network-vpn-acquiring.svg">
  <sodipodi:namedview
     pagecolor="#ffffff"
     bordercolor="#666666"
     borderopacity="1"
     objecttolerance="10"
     gridtolerance="10"
     guidetolerance="10"
     inkscape:pageopacity="0"
     inkscape:pageshadow="2"
     inkscape:window-width="1920"
     inkscape:window-height="1007"
     id="namedview17"
     showgrid="false"
     inkscape:zoom="16.208333"
     inkscape:cx="24"
     inkscape:cy="28.935733"
     inkscape:window-x="0"
     inkscape:window-y="31"
     inkscape:window-maximized="1"
     inkscape:current-layer="svg2" />
  <metadata
     id="metadata7">
    <rdf:RDF>
      <cc:Work
         rdf:about="">
        <dc:format>image/svg+xml</dc:format>
        <dc:type
           rdf:resource="http://purl.org/dc/dcmitype/StillImage" />
        <dc:title />
      </cc:Work>
    </rdf:RDF>
  </metadata>
  <defs
     id="defs5" />
  <g
     transform="matrix(0.71933157,0,0,0.69291482,11.218509,3.0745503)"
     id="g2985">
    <path
       d="M 4.65625,0 C 2.0801499,0 0,2.0801499 0,4.65625 L 0,26.5625 c 0,2.5761 2.0801499,4.625 4.65625,4.625 l 9.75,0 0,-3.59375 -8.09375,0 c -1.4958003,0 -2.71875,-1.1917 -2.71875,-2.6875 l 0,-18.59375 c 0,-1.4958003 1.22295,-2.71875 2.71875,-2.71875 l 21,0 C 28.8083,3.59375 30,4.8167 30,6.3125 l 0,10.5 3.59375,0 0,-12.15625 C 33.59375,2.0801499 31.5136,0 28.9375,0 L 4.65625,0 z"
       id="rect2161"
       style="color:#000000;fill:#000000;fill-opacity:1;fill-rule:nonzero;stroke:none;stroke-width:2;marker:none;visibility:visible;display:inline;overflow:visible;enable-background:accumulate"
       inkscape:connector-curvature="0" />
  </g>
  <path
     d="m 32.704939,15.12287 c -3.452791,0 -5.91907,1.983196 -5.91907,5.226558 l 0,2.850849 -0.986512,0 c -0.986512,0 -1.479768,0.475141 -1.479768,1.425425 l 0,8.077407 c 0,0.465794 0.493256,1.425425 1.479768,1.425425 l 14.49384,0 c 0.797093,-0.0045 1.29035,-0.959632 1.29035,-1.425425 l 0,-8.077407 c 0,-0.950284 -0.493257,-1.429916 -1.479768,-1.429916 l -0.986513,0.0045 0,-2.85085 c 0,-3.325992 -2.466279,-5.226559 -5.919071,-5.226559 l -0.493256,0 z m 0,2.375708 0.493256,0 c 3.452792,0 3.452792,2.85085 3.452792,3.801133 l 0,1.900566 -7.398839,0 0,-1.900566 c 0,-0.950283 0,-3.801133 3.452791,-3.801133 z"
     id="path2086"
     style="color:#000000;fill:#000000;fill-opacity:1;fill-rule:nonzero;stroke:none;stroke-width:0.9999997;marker:none;visibility:visible;display:block;overflow:visible"
     inkscape:connector-curvature="0" />
  <ellipse
     style="fill:#000000;fill-opacity:1;stroke:none"
     id="path4188"
     cx="13.261209"
     cy="24"
     rx="3.8352826"
     ry="3.9131782"
     sodipodi:cx="13.261209"
     sodipodi:cy="24"
     sodipodi:rx="3.8352826"
     sodipodi:ry="3.9131782"
     transform="translate(-1.1105399,18.570694)" />
  <ellipse
     cy="24"
     cx="34.738789"
     id="circle4190"
     style="fill:#000000;fill-opacity:1;stroke:none"
     rx="3.8352826"
     ry="3.9131782"
     sodipodi:cx="34.738789"
     sodipodi:cy="24"
     sodipodi:rx="3.8352826"
     sodipodi:ry="3.9131782"
     transform="translate(1.789203,18.447301)" />
  <ellipse
     style="fill:#000000;fill-opacity:1;stroke:none"
     id="circle4192"
     cx="24"
     cy="24"
     rx="3.8352826"
     ry="3.9131782"
     sodipodi:cx="24"
     sodipodi:cy="24"
     sodipodi:rx="3.8352826"
     sodipodi:ry="3.9131782"
     transform="translate(0.4935733,18.447301)" />
</svg>
