<?xml version="1.0" encoding="UTF-8" standalone="no"?>
<!-- Created with Inkscape (http://www.inkscape.org/) -->

<svg
   xmlns:dc="http://purl.org/dc/elements/1.1/"
   xmlns:cc="http://creativecommons.org/ns#"
   xmlns:rdf="http://www.w3.org/1999/02/22-rdf-syntax-ns#"
   xmlns:svg="http://www.w3.org/2000/svg"
   xmlns="http://www.w3.org/2000/svg"
   xmlns:xlink="http://www.w3.org/1999/xlink"
   xmlns:sodipodi="http://sodipodi.sourceforge.net/DTD/sodipodi-0.dtd"
   xmlns:inkscape="http://www.inkscape.org/namespaces/inkscape"
   version="1.1"
   width="48"
   height="48"
   id="svg4641"
   sodipodi:version="0.32"
   inkscape:version="0.48.5 r10040"
   sodipodi:docname="network-wireless.svg"
   inkscape:output_extension="org.inkscape.output.svg.inkscape">
  <metadata
     id="metadata19">
    <rdf:RDF>
      <cc:Work
         rdf:about="">
        <dc:format>image/svg+xml</dc:format>
        <dc:type
           rdf:resource="http://purl.org/dc/dcmitype/StillImage" />
        <dc:title />
      </cc:Work>
    </rdf:RDF>
  </metadata>
  <sodipodi:namedview
     inkscape:window-height="1007"
     inkscape:window-width="1920"
     inkscape:pageshadow="2"
     inkscape:pageopacity="0.0"
     guidetolerance="10.0"
     gridtolerance="10.0"
     objecttolerance="10.0"
     borderopacity="1.0"
     bordercolor="#666666"
     pagecolor="#ffffff"
     id="base"
     showgrid="false"
     inkscape:zoom="5.1875"
     inkscape:cx="-42.658723"
     inkscape:cy="24.794957"
     inkscape:window-x="0"
     inkscape:window-y="31"
     inkscape:current-layer="svg4641"
     inkscape:window-maximized="1" />
  <defs
     id="defs4643">
    <radialGradient
       cx="-0.1875"
       cy="-0.43750006"
       r="24.1875"
       fx="-0.1875"
       fy="-0.43750006"
       id="radialGradient4437"
       xlink:href="#linearGradient2867-449-88-871-390-598-476-591-434-148-7"
       gradientUnits="userSpaceOnUse"
       gradientTransform="matrix(0,1.6796578,-2.8677383,0,-1.4421357,7.2524358)" />
    <linearGradient
       id="linearGradient2867-449-88-871-390-598-476-591-434-148-7">
      <stop
         id="stop4627-7"
         style="stop-color:#51cfee;stop-opacity:1"
         offset="0" />
      <stop
         id="stop4629-6"
         style="stop-color:#49a3d2;stop-opacity:1"
         offset="0.26238" />
      <stop
         id="stop4631-4"
         style="stop-color:#3470b4;stop-opacity:1"
         offset="0.704952" />
      <stop
         id="stop4633-3"
         style="stop-color:#1b5699;stop-opacity:1"
         offset="1" />
    </linearGradient>
  </defs>
  <g
     id="layer1"
     transform="matrix(0.9973486,0,0,1,6.36336e-2,0)"
     style="stroke:#ffffff;stroke-opacity:1;fill:#000000;fill-opacity:1">
    <path
       d="m 28.526813,35.054528 c -0.198728,0.17325 -4.585006,4.882608 -4.585006,4.882608 0,0 -4.34451,-4.749154 -4.507514,-4.882608 0.291302,-0.221211 1.480236,-1.091133 4.516985,-1.078727 2.988097,0.01221 4.347943,0.864302 4.575535,1.078727 z"
       id="path2538"
       style="opacity:0.98000003999999996;fill:#000000;fill-opacity:1;fill-rule:evenodd;stroke:none;stroke-width:0.99484693999999996;stroke-opacity:1;overflow:visible"
       inkscape:connector-curvature="0" />
    <path
       d="m 24,33.567589 c -1.786579,0 -3.458828,0.512094 -4.894718,1.375714 L 24,39.945896 28.894719,34.943303 C 27.458829,34.079683 25.78658,33.567589 24,33.567589 z m 0,-9.004668 c -4.228487,0 -8.113345,1.465955 -11.227259,3.908276 l 3.885182,3.970809 c 2.074027,-1.409728 4.542164,-2.251168 7.219709,-2.251168 2.742313,0 5.269212,0.872127 7.372669,2.344967 L 35.22726,28.471197 C 32.113345,26.028876 28.228487,24.562921 24,24.562921 l 0,0 z m 0,-8.504408 c -6.529428,0 -12.513054,2.380787 -17.1621058,6.34704 l 3.4874878,3.564348 C 14.075998,22.895411 18.817991,21.061106 24,21.061106 c 5.18201,0 9.924003,1.834305 13.674619,4.908795 l 3.487487,-3.564348 C 36.513055,18.4393 30.529428,16.058513 24,16.058513 l 0,0 z m 0,-8.5044086 c -8.828041,0 -16.8961492,3.3202546 -23.06635948,8.8170706 L 4.4211271,19.935523 C 9.6971399,15.341178 16.525431,12.556697 24,12.556697 c 7.47457,0 14.30286,2.784481 19.578873,7.378826 L 47.06636,16.371175 C 40.896149,10.874359 32.828042,7.5541044 24,7.5541044 l 0,0 z"
       id="path4112-19-69-3"
       style="fill:#000000;fill-opacity:1;stroke:none;stroke-width:1.99224018999999997;stroke-linecap:butt;stroke-linejoin:round;stroke-miterlimit:4;stroke-opacity:1;stroke-dasharray:none;stroke-dashoffset:0.06000000000000000;marker:none;visibility:visible;display:inline;overflow:visible;enable-background:accumulate"
       inkscape:connector-curvature="0" />
  </g>
</svg>
