<?xml version="1.0" encoding="UTF-8" standalone="no"?>
<!-- Generator: Adobe Illustrator 9.0, SVG Export Plug-In  -->

<svg
   xmlns:dc="http://purl.org/dc/elements/1.1/"
   xmlns:cc="http://creativecommons.org/ns#"
   xmlns:rdf="http://www.w3.org/1999/02/22-rdf-syntax-ns#"
   xmlns:svg="http://www.w3.org/2000/svg"
   xmlns="http://www.w3.org/2000/svg"
   xmlns:sodipodi="http://sodipodi.sourceforge.net/DTD/sodipodi-0.dtd"
   xmlns:inkscape="http://www.inkscape.org/namespaces/inkscape"
   id="svg2"
   xml:space="preserve"
   height="48"
   width="48"
   version="1.0"
   viewBox="0 0 48 48"
   inkscape:version="0.48.5 r10040"
   sodipodi:docname="printer-printing.svg"><defs
     id="defs19" /><sodipodi:namedview
     pagecolor="#ffffff"
     bordercolor="#666666"
     borderopacity="1"
     objecttolerance="10"
     gridtolerance="10"
     guidetolerance="10"
     inkscape:pageopacity="0"
     inkscape:pageshadow="2"
     inkscape:window-width="1920"
     inkscape:window-height="1007"
     id="namedview17"
     showgrid="false"
     inkscape:zoom="16.208333"
     inkscape:cx="0.12339341"
     inkscape:cy="24"
     inkscape:window-x="0"
     inkscape:window-y="31"
     inkscape:window-maximized="1"
     inkscape:current-layer="svg2" /><metadata
     id="metadata31"><rdf:RDF><cc:Work
         rdf:about=""><dc:format>image/svg+xml</dc:format><dc:type
           rdf:resource="http://purl.org/dc/dcmitype/StillImage" /></cc:Work></rdf:RDF></metadata><g
     id="g2403"
     transform="translate(0 -10)"
     style="fill:none;stroke:#000000;stroke-opacity:1"><path
       id="path2405"
       d="m41 42c0 0.4-0.6 1-1 1h-32c-0.4 0-1-0.6-1-1v-2c0-0.4 0.5-0.7 0.9-0.7h31.9c0.4 0 1.2 0.3 1.2 0.7v2z"
       style="fill:#000000;stroke:#000000;stroke-opacity:1;fill-opacity:1" /><path
       id="path2407"
       d="m44 39c0 0.4-0.6 1-1 1h-38c-0.4 0-1-0.6-1-1v-14c0-0.4 0.6-1 1-1h38c0.4 0 1 0.6 1 1v14z"
       style="fill:#000000;stroke:#000000;stroke-opacity:1;fill-opacity:1" /><path
       id="path2409"
       d="m12 14c-3 0-4 2-4 4v18h32v-18c0-2-1-4-4-4h-24z"
       style="fill:none;stroke:#000000;stroke-opacity:1" /><path
       id="path3187"
       d="m12 54c-3 0-4-2-4-4v-18h32v18c0 2-1 4-4 4h-24z"
       style="fill:none;stroke:#000000;stroke-opacity:1" /></g><path
     id="path2411"
     style="fill:none;fill-opacity:1;stroke:#000000;stroke-opacity:1"
     d="m36 15h-24v-6s0-1 1-1h22c1 0 1 1 1 1v6z" /><path
     id="path3189"
     style="fill:none;stroke:#000000;stroke-opacity:1"
     d="M 36,32 H 12 v 9 c 0,0 0,1 1,1 h 22 c 1,0 1,-1 1,-1 v -9 z"
     inkscape:connector-curvature="0" /><path
     id="path2413"
     style="fill:#000000;fill-opacity:1;stroke:#000000;stroke-width:4;stroke-opacity:1"
     d="M 16.6,37.652956 H 31"
     inkscape:connector-curvature="0" /></svg>