<?xml version="1.0" encoding="utf-8"?>
<!-- Generator: Adobe Illustrator 16.0.0, SVG Export Plug-In . SVG Version: 6.00 Build 0)  -->
<!DOCTYPE svg PUBLIC "-//W3C//DTD SVG 1.1//EN" "http://www.w3.org/Graphics/SVG/1.1/DTD/svg11.dtd">
<svg version="1.1" id="Layer_1" xmlns="http://www.w3.org/2000/svg" xmlns:xlink="http://www.w3.org/1999/xlink" x="0px" y="0px"
	 width="512px" height="512px" viewBox="0 0 512 512" enable-background="new 0 0 512 512" xml:space="preserve">
<g>
	<path d="M160,128h192c17.688,0,32-14.313,32-32V32c0-17.688-14.313-32-32-32H160c-17.672,0-32,14.313-32,32v64
		C128,113.688,142.328,128,160,128z" style="fill:#000"/>
	<path d="M352,352H160c-17.672,0-32,14.313-32,32v96c0,17.688,14.328,32,32,32h192c17.688,0,32-14.313,32-32v-96
		C384,366.313,369.688,352,352,352z M336,480H176c-8.844,0-16-7.156-16-16s7.156-16,16-16h160c8.844,0,16,7.156,16,16
		S344.844,480,336,480z M336,416H176c-8.844,0-16-7.156-16-16s7.156-16,16-16h160c8.844,0,16,7.156,16,16S344.844,416,336,416z"
		style="fill:#000"/>
	<path d="M480,96h-64v32c0,17.688-14.313,32-32,32H128c-17.672,0-32-14.313-32-32V96H32c-17.672,0-32,14.313-32,32v224
		c0,17.688,14.328,32,32,32h64v-32c0-17.688,14.328-32,32-32h256c17.688,0,32,14.313,32,32v32h64c17.688,0,32-14.313,32-32V128
		C512,110.313,497.688,96,480,96z M352,256c-17.688,0-32-14.313-32-32c0-17.656,14.313-32,32-32s32,14.344,32,32
		C384,241.688,369.688,256,352,256z M448,256c-17.688,0-32-14.313-32-32c0-17.656,14.313-32,32-32s32,14.344,32,32
		C480,241.688,465.688,256,448,256z"
		style="fill:#000"/>
</g>
</svg>
