<?xml version="1.0" encoding="UTF-8" standalone="no"?>
<!-- Created with Inkscape (http://www.inkscape.org/) -->

<svg
   xmlns:dc="http://purl.org/dc/elements/1.1/"
   xmlns:cc="http://creativecommons.org/ns#"
   xmlns:rdf="http://www.w3.org/1999/02/22-rdf-syntax-ns#"
   xmlns:svg="http://www.w3.org/2000/svg"
   xmlns="http://www.w3.org/2000/svg"
   xmlns:sodipodi="http://sodipodi.sourceforge.net/DTD/sodipodi-0.dtd"
   xmlns:inkscape="http://www.inkscape.org/namespaces/inkscape"
   version="1.0"
   width="48"
   height="48"
   viewBox="0 0 48 48"
   id="svg2"
   xml:space="preserve"
   inkscape:version="0.48.5 r10040"
   sodipodi:docname="printer-error.svg"><sodipodi:namedview
     pagecolor="#ffffff"
     bordercolor="#666666"
     borderopacity="1"
     objecttolerance="10"
     gridtolerance="10"
     guidetolerance="10"
     inkscape:pageopacity="0"
     inkscape:pageshadow="2"
     inkscape:window-width="1920"
     inkscape:window-height="1007"
     id="namedview21"
     showgrid="false"
     inkscape:zoom="8.1041667"
     inkscape:cx="-8.6204121"
     inkscape:cy="23.868407"
     inkscape:window-x="0"
     inkscape:window-y="31"
     inkscape:window-maximized="1"
     inkscape:current-layer="svg2" /><defs
     id="defs16" /><metadata
     id="metadata31"><rdf:RDF><cc:Work
         rdf:about=""><dc:format>image/svg+xml</dc:format><dc:type
           rdf:resource="http://purl.org/dc/dcmitype/StillImage" /><dc:title /></cc:Work></rdf:RDF></metadata><rect
     width="31.441372"
     height="32.600197"
     rx="0"
     ry="0"
     x="0.011961864"
     y="-0.012180307"
     id="rect3981"
     style="fill:none" /><g
     id="g3095"
     transform="matrix(0.65502858,0,0,0.67917075,2.0119619,1.9878197)"><path
       d="m 41,42 c 0,0.4 -0.6,1 -1,1 H 8 C 7.6,43 7,42.4 7,42 v -2 c 0,-0.4 0.5,-0.7 0.9,-0.7 h 31.9 c 0.4,0 1.2,0.3 1.2,0.7 v 2 z"
       id="path13"
       inkscape:connector-curvature="0" /><path
       d="m 44,39 c 0,0.4 -0.6,1 -1,1 H 5 C 4.6,40 4,39.4 4,39 V 25 c 0,-0.4 0.6,-1 1,-1 h 38 c 0.4,0 1,0.6 1,1 v 14 z"
       id="path15"
       style="fill:none;stroke:#000000;stroke-width:2;stroke-miterlimit:4;stroke-opacity:1;stroke-dasharray:none"
       inkscape:connector-curvature="0" /><path
       d="M 12,2 C 9,2 8,4 8,6 V 24 H 40 V 6 C 40,4 39,2 36,2 H 12 z"
       id="path17"
       style="fill:none;stroke:#000000;stroke-width:2;stroke-miterlimit:4;stroke-opacity:1;stroke-dasharray:none"
       inkscape:connector-curvature="0" /></g><path
     d="M 25.592991,18.287918 H 9.8723048 V 8.1003565 c 0,0 0,-0.6791708 0.6550282,-0.6791708 h 14.410629 c 0.655029,0 0.655029,0.6791708 0.655029,0.6791708 V 18.287918 z"
     id="path19"
     style="fill:#000000;fill-opacity:1;stroke:#000000;stroke-width:1.33398092;stroke-miterlimit:4;stroke-opacity:1;stroke-dasharray:none"
     inkscape:connector-curvature="0" /><path
     inkscape:connector-curvature="0"
     d="m 36.066638,29.425383 c -4.255994,0 -7.716139,3.293095 -7.716139,7.340009 0,4.046915 3.460145,7.325868 7.716139,7.325868 4.255993,1e-6 7.716139,-3.278953 7.716139,-7.325868 0,-4.046914 -3.460146,-7.340009 -7.716139,-7.340009 z m -2.690985,3.9175 2.616648,2.489098 2.616649,-2.489098 0.906906,0.862699 -2.616648,2.489098 2.616648,2.474955 -0.906906,0.876841 -2.616649,-2.489098 -2.616648,2.489098 -0.906906,-0.876841 2.616648,-2.474955 -2.616648,-2.489098 0.906906,-0.862699 z"
     id="path4445"
     style="color:#000000;fill:#000000;fill-opacity:1;fill-rule:nonzero;stroke:none;stroke-width:1;marker:none;visibility:visible;display:inline;overflow:visible" /></svg>