<?xml version="1.0" encoding="UTF-8" standalone="no"?>
<!-- Created with Inkscape (http://www.inkscape.org/) -->

<svg
   xmlns:dc="http://purl.org/dc/elements/1.1/"
   xmlns:cc="http://creativecommons.org/ns#"
   xmlns:rdf="http://www.w3.org/1999/02/22-rdf-syntax-ns#"
   xmlns:svg="http://www.w3.org/2000/svg"
   xmlns="http://www.w3.org/2000/svg"
   xmlns:sodipodi="http://sodipodi.sourceforge.net/DTD/sodipodi-0.dtd"
   xmlns:inkscape="http://www.inkscape.org/namespaces/inkscape"
   version="1.0"
   width="48"
   height="48"
   viewBox="0 0 48 48"
   id="svg2"
   xml:space="preserve"
   inkscape:version="0.48.5 r10040"
   sodipodi:docname="printer-warning.svg"><sodipodi:namedview
     pagecolor="#ffffff"
     bordercolor="#666666"
     borderopacity="1"
     objecttolerance="10"
     gridtolerance="10"
     guidetolerance="10"
     inkscape:pageopacity="0"
     inkscape:pageshadow="2"
     inkscape:window-width="1920"
     inkscape:window-height="1007"
     id="namedview21"
     showgrid="false"
     inkscape:zoom="16.208333"
     inkscape:cx="12.061948"
     inkscape:cy="26.467866"
     inkscape:window-x="0"
     inkscape:window-y="31"
     inkscape:window-maximized="1"
     inkscape:current-layer="svg2" /><defs
     id="defs16" /><metadata
     id="metadata31"><rdf:RDF><cc:Work
         rdf:about=""><dc:format>image/svg+xml</dc:format><dc:type
           rdf:resource="http://purl.org/dc/dcmitype/StillImage" /><dc:title /></cc:Work></rdf:RDF></metadata><rect
     width="48"
     height="48"
     rx="0"
     ry="0"
     x="0"
     y="0"
     id="rect3981"
     style="fill:none" /><g
     id="g3095"
     transform="matrix(0.80506642,0,0,0.75205285,1.1698014,1.2587636)"
     style="fill:none;stroke:#000000;stroke-width:1.28516817;stroke-miterlimit:4;stroke-opacity:1;stroke-dasharray:none"><path
       d="m 41,46.581737 c 0,1.078776 -0.6,2.69694 -1,2.69694 H 8 c -0.4,0 -1,-1.618164 -1,-2.69694 V 41.187858 C 7,40.109082 7.5,39.3 7.9,39.3 h 31.9 c 0.4,0 1.2,0.809082 1.2,1.887858 v 5.393879 z"
       id="path13"
       inkscape:connector-curvature="0"
       style="fill:none;stroke:#000000;stroke-width:2.11054969;stroke-miterlimit:4;stroke-opacity:1;stroke-dasharray:none" /><path
       d="m 44,39 c 0,0.4 -0.6,1 -1,1 H 5 C 4.6,40 4,39.4 4,39 V 25 c 0,-0.4 0.6,-1 1,-1 h 38 c 0.4,0 1,0.6 1,1 v 14 z"
       id="path15"
       inkscape:connector-curvature="0"
       style="fill:#000000;fill-opacity:1;stroke:#000000;stroke-width:1.28516817;stroke-miterlimit:4;stroke-opacity:1;stroke-dasharray:none" /><path
       d="M 12,4 C 9,4 8,6 8,8 V 26 H 40 V 8 C 40,6 39,4 36,4 H 12 z"
       id="path17"
       inkscape:connector-curvature="0"
       style="fill:none;stroke:#000000;stroke-width:1.28516817;stroke-miterlimit:4;stroke-opacity:1;stroke-dasharray:none" /></g><path
     d="M 30.152193,19.308032 H 10.830599 V 8.0272392 c 0,0 0,-0.7520528 0.805066,-0.7520528 h 17.711461 c 0.805067,0 0.805067,0.7520528 0.805067,0.7520528 V 19.308032 z"
     id="path19"
     style="fill:#000000;fill-opacity:1;stroke:#000000;stroke-opacity:1"
     inkscape:connector-curvature="0" /><path
     d="M 10.457409,33.681119 H 31.389136"
     id="path1315"
     style="fill:#000000;fill-opacity:1;stroke:#000000;stroke-width:4;stroke-miterlimit:4;stroke-opacity:1;stroke-dasharray:none"
     inkscape:connector-curvature="0" /><path
     d="m 39.278781,35.012285 -4.643617,8.557097 9.287232,0 -4.643615,-8.557097 z"
     id="path9"
     style="fill:none;stroke:#000000;stroke-width:0.52746737;stroke-linecap:round;stroke-linejoin:round;stroke-miterlimit:4;stroke-opacity:1;stroke-dasharray:none"
     inkscape:connector-curvature="0" /><path
     d="m 38.732471,40.979819 -0.273153,-3.137602 1.638924,0 -0.273155,3.137602 -1.092616,0 z"
     id="path15-3"
     style="fill:#000000;fill-opacity:1;stroke:none"
     inkscape:connector-curvature="0" /><path
     d="m 40.08117,42.138601 a 0.81092586,0.86016684 0 0 1 -1.621851,0 0.81092586,0.86016684 0 1 1 1.621851,0 z"
     id="path6965"
     style="fill:#000000;fill-opacity:1;fill-rule:evenodd;stroke:none"
     inkscape:connector-curvature="0" /></svg>