<?xml version="1.0" encoding="UTF-8" standalone="no"?>
<!-- Created with Inkscape (http://www.inkscape.org/) -->

<svg
   xmlns:dc="http://purl.org/dc/elements/1.1/"
   xmlns:cc="http://creativecommons.org/ns#"
   xmlns:rdf="http://www.w3.org/1999/02/22-rdf-syntax-ns#"
   xmlns:svg="http://www.w3.org/2000/svg"
   xmlns="http://www.w3.org/2000/svg"
   xmlns:xlink="http://www.w3.org/1999/xlink"
   xmlns:sodipodi="http://sodipodi.sourceforge.net/DTD/sodipodi-0.dtd"
   xmlns:inkscape="http://www.inkscape.org/namespaces/inkscape"
   width="48"
   height="48"
   id="svg3349"
   sodipodi:version="0.32"
   inkscape:version="0.48.5 r10040"
   version="1.0"
   sodipodi:docname="rotation-locked.svg"
   inkscape:output_extension="org.inkscape.output.svg.inkscape">
  <defs
     id="defs3351">
    <linearGradient
       id="linearGradient3533">
      <stop
         id="stop3535"
         style="stop-color:#c1b0e6;stop-opacity:1;"
         offset="0" />
      <stop
         id="stop3545"
         style="stop-color:#9c83d5;stop-opacity:1;"
         offset="1" />
    </linearGradient>
    <linearGradient
       id="linearGradient3266">
      <stop
         style="stop-color:#7653c6;stop-opacity:1;"
         offset="0"
         id="stop3268" />
      <stop
         style="stop-color:#683fc5;stop-opacity:0;"
         offset="1"
         id="stop3270" />
    </linearGradient>
    <linearGradient
       id="linearGradient3276">
      <stop
         style="stop-color:#9c83d5;stop-opacity:1;"
         offset="0"
         id="stop3278" />
      <stop
         style="stop-color:#9c83d5;stop-opacity:0;"
         offset="1"
         id="stop3280" />
    </linearGradient>
    <linearGradient
       id="linearGradient4873"
       inkscape:collect="always">
      <stop
         id="stop4875"
         offset="0"
         style="stop-color:#ffffff;stop-opacity:1;" />
      <stop
         id="stop4877"
         offset="1"
         style="stop-color:#ffffff;stop-opacity:0;" />
    </linearGradient>
    <linearGradient
       id="linearGradient3319">
      <stop
         style="stop-color:#ffffff;stop-opacity:0;"
         offset="0"
         id="stop3321" />
      <stop
         id="stop3323"
         offset="0.63129705"
         style="stop-color:#ffffff;stop-opacity:0.27472529" />
      <stop
         style="stop-color:#ffffff;stop-opacity:0;"
         offset="1"
         id="stop3325" />
    </linearGradient>
    <linearGradient
       inkscape:collect="always"
       xlink:href="#linearGradient3533"
       id="linearGradient3402"
       gradientUnits="userSpaceOnUse"
       gradientTransform="matrix(0.3446423,-0.3446422,0.3381098,0.3381098,0.1178032,10.322607)"
       x1="20.137201"
       y1="4.4757133"
       x2="16.597107"
       y2="17.94278" />
    <linearGradient
       inkscape:collect="always"
       xlink:href="#linearGradient3276"
       id="linearGradient3404"
       gradientUnits="userSpaceOnUse"
       gradientTransform="matrix(0.5097808,3.0679686e-2,-3.0098127e-2,0.5001183,5.2256066,-3.4926097)"
       x1="31.226292"
       y1="34.600941"
       x2="34.96563"
       y2="26.842505" />
    <linearGradient
       inkscape:collect="always"
       xlink:href="#linearGradient3266"
       id="linearGradient3406"
       gradientUnits="userSpaceOnUse"
       gradientTransform="matrix(0.5097808,3.0679686e-2,-3.0098127e-2,0.5001183,5.2256066,-3.4926097)"
       x1="33.686768"
       y1="35.773647"
       x2="37.039948"
       y2="29.856804" />
    <linearGradient
       inkscape:collect="always"
       xlink:href="#linearGradient4873"
       id="linearGradient3408"
       gradientUnits="userSpaceOnUse"
       gradientTransform="matrix(0.3446423,-0.3446422,0.3381098,0.3381098,0.1178032,10.322607)"
       x1="32.325527"
       y1="5.0201149"
       x2="22.245434"
       y2="43.366352" />
    <linearGradient
       inkscape:collect="always"
       xlink:href="#linearGradient3319"
       id="linearGradient3410"
       gradientUnits="userSpaceOnUse"
       gradientTransform="matrix(0.4865175,2.9279582e-2,-2.8724737e-2,0.4772959,5.2842788,-2.0361756)"
       x1="28.116938"
       y1="41.67448"
       x2="39.686337"
       y2="28.50532" />
    <linearGradient
       inkscape:collect="always"
       xlink:href="#linearGradient4873"
       id="linearGradient2420"
       gradientUnits="userSpaceOnUse"
       gradientTransform="matrix(0.6892164,-0.6892162,0.6761527,0.6761527,-7.5101133,28.644755)"
       x1="32.325527"
       y1="5.0201149"
       x2="22.245434"
       y2="43.366352" />
    <linearGradient
       inkscape:collect="always"
       xlink:href="#linearGradient4873"
       id="linearGradient2433"
       gradientUnits="userSpaceOnUse"
       gradientTransform="matrix(0.6892164,-0.6892162,0.6761527,0.6761527,-7.5101133,28.644755)"
       x1="32.325527"
       y1="5.0201149"
       x2="22.245434"
       y2="43.366352" />
  </defs>
  <sodipodi:namedview
     id="base"
     pagecolor="#ffffff"
     bordercolor="#666666"
     borderopacity="1.0"
     inkscape:pageopacity="0.0"
     inkscape:pageshadow="2"
     inkscape:zoom="16.441313"
     inkscape:cx="2.108382"
     inkscape:cy="30.958599"
     inkscape:current-layer="layer1"
     showgrid="false"
     inkscape:grid-bbox="true"
     inkscape:document-units="px"
     inkscape:window-width="1920"
     inkscape:window-height="1007"
     inkscape:window-x="0"
     inkscape:window-y="31"
     inkscape:window-maximized="1">
    <inkscape:grid
       type="xygrid"
       id="grid3412"
       visible="true"
       enabled="true"
       empspacing="5"
       snapvisiblegridlinesonly="true" />
  </sodipodi:namedview>
  <metadata
     id="metadata3354">
    <rdf:RDF>
      <cc:Work
         rdf:about="">
        <dc:format>image/svg+xml</dc:format>
        <dc:type
           rdf:resource="http://purl.org/dc/dcmitype/StillImage" />
        <dc:title />
      </cc:Work>
    </rdf:RDF>
  </metadata>
  <g
     id="layer1"
     inkscape:label="Layer 1"
     inkscape:groupmode="layer">
    <path
       inkscape:connector-curvature="0"
       d="m 18.076785,14.779571 -0.377878,0.0071 -0.385586,0.0288 -0.385581,0.04319 -0.377878,0.05762 -0.370159,0.07922 -0.370162,0.09363 -0.370163,0.108031 -0.354736,0.12964 -0.354739,0.136838 -0.339319,0.158447 -0.331603,0.172845 -0.323888,0.187255 -0.316181,0.201658 -0.300756,0.216063 -0.285335,0.230469 -0.27762,0.237665 -0.262198,0.252076 -0.246773,0.266477 -0.231356,0.273678 -0.223636,0.288087 -0.200505,0.295285 -0.185083,0.302485 -0.169658,0.30969 -0.146522,0.316892 -0.131099,0.324094 -0.115674,0.331293 -0.100253,0.338502 -0.07711,0.338497 -0.06171,0.338497 -0.03857,0.345701 -0.01541,0.345697 -0.0077,0.345701 0.01542,0.345702 0.03857,0.345701 0.05399,0.338497 0.07711,0.345702 0.09254,0.331291 0.107967,0.331298 0.1311,0.331292 0.14652,0.316894 0.161945,0.309689 0.185082,0.309689 0.192796,0.295286 0.215927,0.288082 0.231352,0.273682 0.246773,0.266478 0.254488,0.259274 0.27762,0.244869 0.285333,0.230466 0.300758,0.216061 0.308465,0.208863 0.316181,0.187255 0.331603,0.172851 0.339319,0.165647 0.354733,0.144042 0.354742,0.129635 0.362448,0.115236 0.370164,0.09363 0.370164,0.07922 0.38558,0.06482 0.377878,0.05042 0.377872,0.0288 0.385587,0.0073 0.385582,0 0.385587,-0.02162 0.377872,-0.0432 0.385586,-0.05762 0.377877,-0.07202 0.370159,-0.08643 0.362449,-0.108032 0.362455,-0.122434 0.347026,-0.136838 0.347026,-0.151243 0.339312,-0.172849 0.323894,-0.187256 0.31618,-0.194459 0.300758,-0.208858 0.293042,-0.230465 0.277621,-0.23767 0.262201,-0.252076 0.254484,-0.259273 0.239064,-0.273678 0.215927,-0.28088 0.208215,-0.295287 0.192796,-0.302489 0.169658,-0.30969 0.154231,-0.316889 0.138812,-0.324093 0.115675,-0.324097 0.100253,-0.338496 c 1.501504,-6.90738 8.39379,-4.819573 7.580657,-0.10083 l -0.05399,0.338517 -0.05399,0.331297 -0.0617,0.331294 -0.07711,0.331297 -0.08482,0.331293 -0.09254,0.324096 -0.100253,0.331294 -0.107962,0.324093 -0.123388,0.316894 -0.131099,0.316894 -0.131098,0.316886 -0.146514,0.309618 -0.154234,0.309689 -0.161944,0.302491 -0.16966,0.302483 -0.185081,0.295287 -0.185082,0.295285 -0.192791,0.288086 -0.208218,0.288081 -0.208214,0.280882 -0.215928,0.273678 -0.231351,0.266478 -0.231349,0.266477 -0.239065,0.259273 -0.246774,0.259275 -0.254489,0.244874 -0.262196,0.244869 -0.269911,0.237671 -0.269906,0.230465 -0.285334,0.223263 -0.285334,0.216062 -0.293045,0.216062 -0.293048,0.208862 -0.308464,0.194454 -0.308473,0.194459 -0.31618,0.18005 -0.316179,0.180056 -0.323889,0.172851 -0.331603,0.165646 -0.331603,0.151241 -0.339318,0.151243 -0.339312,0.144043 -0.347026,0.12964 -0.347033,0.129635 -0.347025,0.115234 -0.36245,0.108031 -0.354735,0.108032 -0.362454,0.09363 -0.362449,0.08642 -0.36245,0.07202 -0.370163,0.07202 -0.370159,0.06482 -0.370162,0.05042 -0.370164,0.04319 -0.377872,0.03603 -0.370164,0.0288 -0.370164,0.02162 -0.377872,0.0144 -0.377872,0.0072 -0.377872,-0.0072 -0.370163,-0.0144 -0.377873,-0.02162 -0.370163,-0.0288 -0.377872,-0.03603 -0.370163,-0.05042 -0.370166,-0.05042 -0.370156,-0.06481 -0.370164,-0.07202 -0.362449,-0.07922 -0.362467,-0.0864 -0.362448,-0.09363 -0.354736,-0.108031 -0.35474,-0.108031 -0.35474,-0.122435 L 12.200494,34.361955 11.853468,34.225116 11.514155,34.081073 11.182537,33.929857 10.843221,33.771411 10.519326,33.612963 10.195437,33.440112 9.8792567,33.260062 9.5630773,33.072808 9.2546111,32.878348 8.9538534,32.683895 8.6530967,32.475032 8.3600486,32.258971 8.0747191,32.042907 7.7970927,31.812442 7.5271917,31.581971 7.2572794,31.3443 6.9950839,31.09943 6.7405952,30.854561 6.4938214,30.595282 6.2547563,30.336008 6.0234071,30.069535 5.7997692,29.803062 5.5838417,29.52218 5.3756238,29.241297 5.1751174,28.960417 4.9746134,28.67233 4.7895319,28.377044 4.6121649,28.074559 4.4425054,27.779274 4.2805611,27.469584 4.1263251,27.159895 3.9875181,26.850206 3.8487056,26.533311 3.7253151,26.216425 3.6019316,25.89233 3.4939647,25.575436 3.3937121,25.244139 3.301175,24.920046 3.2163451,24.588752 3.146939,24.257455 3.0852534,23.918958 3.0235678,23.587661 2.9773143,23.256368 2.9387376,22.917867 2.9155845,22.579369 2.90017,22.240872 2.884755,21.902375 l 0.00773,-0.338496 0.00781,-0.338504 0.015414,-0.338496 0.030838,-0.338497 0.038577,-0.331298 0.046254,-0.338495 0.053983,-0.331294 0.061685,-0.331297 0.077118,-0.331297 0.084821,-0.331294 0.092543,-0.331298 0.1002526,-0.324092 0.1079607,-0.324093 0.1156753,-0.316894 0.1311049,-0.324093 0.1388063,-0.30969 0.1465215,-0.316893 0.1542359,-0.302485 0.1619443,-0.30969 0.1696587,-0.30249 0.1773679,-0.295285 0.1850814,-0.295286 0.1927958,-0.288081 0.2082142,-0.280882 0.2082189,-0.280881 0.2159274,-0.280883 0.223637,-0.266473 0.2313484,-0.266479 0.2467737,-0.259277 0.246781,-0.252071 0.2544877,-0.252072 0.2544868,-0.244871 0.2699114,-0.23767 0.2776208,-0.230466 0.27762,-0.223267 0.2853286,-0.22326 0.2930427,-0.208863 0.2930481,-0.208858 0.3084663,-0.19446 0.3084717,-0.194452 0.3161803,-0.187255 0.3161797,-0.180055 0.32389,-0.172851 0.331603,-0.1584416 0.331604,-0.1584476 0.331603,-0.1512416 0.339316,-0.1440433 0.347026,-0.1296397 0.347027,-0.1296339 0.35474,-0.1152346 0.354736,-0.1152363 0.354739,-0.1008268 0.36245,-0.093627 0.362449,-0.086423 0.370165,-0.079221 0.362448,-0.072026 0.370164,-0.064823 0.370164,-0.050415 0.370158,-0.043195 0.377877,-0.043195 0.370159,-0.028797 0.377877,-0.021619 0.377871,-0.0073 0.370165,-0.0073 0,-5.4233028 9.568522,8.7794692 -9.568522,8.493424 0,-5.137251 z"
       style="fill:#000000;fill-opacity:1;fill-rule:evenodd;stroke:#000000;stroke-width:1.19445872;stroke-linecap:round;stroke-linejoin:round;stroke-miterlimit:4;stroke-opacity:1;stroke-dasharray:none"
       id="path3850"
       sodipodi:nodetypes="ccccccccccccccccccccccccccccccccccccccccccccccccccccccccccccccccccccccccccccccccccccccccccccccccccccccccccccccccccccccccccccccccccccccccccccccccccccccccccccccccccccccccccccccccccccccccccccccccccccccccccccccccccccccccccccccccccccccccccccccccccccccccccccccccccccccccccccccccccccccccccc" />
    <path
       id="path4445"
       d="m 37.051827,29.936759 c -4.60887,0 -8.355906,3.54216 -8.355906,7.89515 0,4.35299 3.747036,7.879937 8.355906,7.879937 4.60887,10e-7 8.355907,-3.526947 8.355907,-7.879937 0,-4.35299 -3.747037,-7.89515 -8.355907,-7.89515 z m -4.685104,6.434776 9.402408,0 0,2.753414 -9.402408,0 0,-2.753414 z"
       style="color:#000000;fill:#000000;fill-opacity:1;fill-rule:nonzero;stroke:none;stroke-width:0.60095346000000005;stroke-linecap:round;stroke-linejoin:round;stroke-miterlimit:4;stroke-opacity:1;stroke-dasharray:none;marker:none;visibility:visible;display:inline;overflow:visible"
       inkscape:connector-curvature="0" />
  </g>
</svg>
