<?xml version="1.0" encoding="UTF-8" standalone="no"?>
<!-- Created with Inkscape (http://www.inkscape.org/) -->

<svg
   xmlns:osb="http://www.openswatchbook.org/uri/2009/osb"
   xmlns:dc="http://purl.org/dc/elements/1.1/"
   xmlns:cc="http://creativecommons.org/ns#"
   xmlns:rdf="http://www.w3.org/1999/02/22-rdf-syntax-ns#"
   xmlns:svg="http://www.w3.org/2000/svg"
   xmlns="http://www.w3.org/2000/svg"
   xmlns:sodipodi="http://sodipodi.sourceforge.net/DTD/sodipodi-0.dtd"
   xmlns:inkscape="http://www.inkscape.org/namespaces/inkscape"
   sodipodi:docname="user-not-tracked-symbolic.svg"
   inkscape:export-filename="/home/sam/source-symbolic.png"
   inkscape:export-xdpi="270"
   inkscape:export-ydpi="270"
   height="16"
   id="svg7384"
   style="enable-background:new"
   version="1.1"
   inkscape:version="0.48.5 r10040"
   width="16.000017">
  <sodipodi:namedview
     inkscape:bbox-nodes="true"
     inkscape:bbox-paths="true"
     bordercolor="#666666"
     borderlayer="false"
     borderopacity="1"
     inkscape:current-layer="svg7384"
     inkscape:cx="8.00002"
     inkscape:cy="8.5"
     gridtolerance="10"
     inkscape:guide-bbox="true"
     guidetolerance="10"
     id="namedview88"
     inkscape:object-nodes="true"
     inkscape:object-paths="true"
     objecttolerance="10"
     pagecolor="#f7f7f7"
     inkscape:pageopacity="1"
     inkscape:pageshadow="2"
     showborder="false"
     showgrid="false"
     showguides="true"
     inkscape:showpageshadow="false"
     inkscape:snap-bbox="true"
     inkscape:snap-bbox-edge-midpoints="false"
     inkscape:snap-bbox-midpoints="false"
     inkscape:snap-center="false"
     inkscape:snap-global="true"
     inkscape:snap-grids="true"
     inkscape:snap-intersection-paths="true"
     inkscape:snap-midpoints="true"
     inkscape:snap-nodes="true"
     inkscape:snap-object-midpoints="true"
     inkscape:snap-others="true"
     inkscape:snap-page="false"
     inkscape:snap-smooth-nodes="true"
     inkscape:snap-to-guides="true"
     inkscape:window-height="1007"
     inkscape:window-maximized="1"
     inkscape:window-width="1920"
     inkscape:window-x="0"
     inkscape:window-y="31"
     inkscape:zoom="59.846154">
    <inkscape:grid
       color="#000000"
       dotted="false"
       empcolor="#0800ff"
       empopacity="0.4627451"
       empspacing="4"
       enabled="true"
       id="grid4866"
       opacity="0.16470588"
       originx="-43.999983px"
       originy="-468px"
       snapvisiblegridlinesonly="true"
       spacingx="0.25px"
       spacingy="0.25px"
       type="xygrid"
       visible="true" />
  </sodipodi:namedview>
  <metadata
     id="metadata90">
    <rdf:RDF>
      <cc:Work
         rdf:about="">
        <dc:format>image/svg+xml</dc:format>
        <dc:type
           rdf:resource="http://purl.org/dc/dcmitype/StillImage" />
        <dc:title>Paper Symbolic Icon Theme</dc:title>
      </cc:Work>
    </rdf:RDF>
  </metadata>
  <title
     id="title8473">Paper Symbolic Icon Theme</title>
  <defs
     id="defs7386">
    <linearGradient
       id="linearGradient5606"
       osb:paint="solid">
      <stop
         id="stop5608"
         offset="0"
         style="stop-color:#000000;stop-opacity:1;" />
    </linearGradient>
    <filter
       inkscape:collect="always"
       color-interpolation-filters="sRGB"
       id="filter7554">
      <feBlend
         inkscape:collect="always"
         id="feBlend7556"
         in2="BackgroundImage"
         mode="darken" />
    </filter>
  </defs>
  <g
     inkscape:groupmode="layer"
     id="layer9"
     inkscape:label="status"
     style="display:inline"
     transform="translate(-285.00018,251)">
    <path
       inkscape:connector-curvature="0"
       d="m 289.0002,-243 c -1.65685,0 -3,1.34315 -3,3 0,1.65685 1.34315,3 3,3 1.55869,0 2.82243,-1.19843 2.96875,-2.71875 0.29974,-0.17924 0.65661,-0.28125 1.03125,-0.28125 0.37464,0 0.73151,0.10201 1.03125,0.28125 0.14632,1.52032 1.41006,2.71875 2.96875,2.71875 1.65685,0 3,-1.34315 3,-3 0,-1.65685 -1.34315,-3 -3,-3 -1.39107,0 -2.53544,0.96568 -2.875,2.25 -0.35167,-0.1447 -0.72114,-0.25 -1.125,-0.25 -0.40386,0 -0.77333,0.1053 -1.125,0.25 -0.33956,-1.28432 -1.48393,-2.25 -2.875,-2.25 z m 0,1.25 c 0.9665,0 1.75,0.7835 1.75,1.75 0,0.9665 -0.7835,1.75 -1.75,1.75 -0.9665,0 -1.75,-0.7835 -1.75,-1.75 0,-0.9665 0.7835,-1.75 1.75,-1.75 z m 8,0 c 0.9665,0 1.75,0.7835 1.75,1.75 0,0.9665 -0.7835,1.75 -1.75,1.75 -0.9665,0 -1.75,-0.7835 -1.75,-1.75 0,-0.9665 0.7835,-1.75 1.75,-1.75 z"
       id="path5072"
       style="fill:#000000;fill-opacity:1;stroke:none" />
    <path
       inkscape:connector-curvature="0"
       d="m 289.0002,-250 -0.75,3 9.5,0 -0.75,-3 -4,0.5 z m -1,4 -3,2 16,0 -3,-2 z"
       id="path5868"
       sodipodi:nodetypes="ccccccccccc"
       style="fill:#000000;fill-opacity:1;stroke:none" />
  </g>
</svg>
