<?xml version="1.0" encoding="UTF-8" standalone="no"?>
<!-- Created with Inkscape (http://www.inkscape.org/) -->

<svg
   xmlns:dc="http://purl.org/dc/elements/1.1/"
   xmlns:cc="http://creativecommons.org/ns#"
   xmlns:rdf="http://www.w3.org/1999/02/22-rdf-syntax-ns#"
   xmlns:svg="http://www.w3.org/2000/svg"
   xmlns="http://www.w3.org/2000/svg"
   xmlns:sodipodi="http://sodipodi.sourceforge.net/DTD/sodipodi-0.dtd"
   xmlns:inkscape="http://www.inkscape.org/namespaces/inkscape"
   id="svg2383"
   height="48px"
   width="48px"
   version="1.1"
   inkscape:version="0.48.5 r10040"
   sodipodi:docname="weather-showers-scattered.svg">
  <defs
     id="defs22" />
  <sodipodi:namedview
     pagecolor="#ffffff"
     bordercolor="#666666"
     borderopacity="1"
     objecttolerance="10"
     gridtolerance="10"
     guidetolerance="10"
     inkscape:pageopacity="0"
     inkscape:pageshadow="2"
     inkscape:window-width="1920"
     inkscape:window-height="1007"
     id="namedview20"
     showgrid="false"
     inkscape:zoom="11.439087"
     inkscape:cx="-8.6524164"
     inkscape:cy="25.249439"
     inkscape:window-x="0"
     inkscape:window-y="31"
     inkscape:window-maximized="1"
     inkscape:current-layer="layer1" />
  <metadata
     id="metadata2388">
    <rdf:RDF>
      <cc:Work
         rdf:about="">
        <dc:format>image/svg+xml</dc:format>
        <dc:type
           rdf:resource="http://purl.org/dc/dcmitype/StillImage" />
        <dc:title>Weather Showers Scattered</dc:title>
        <dc:date>December 2008</dc:date>
        <dc:creator>
          <cc:Agent>
            <dc:title>Luca Ferretti &lt;elle.uca@libero.it&gt;</dc:title>
          </cc:Agent>
        </dc:creator>
        <dc:subject>
          <rdf:Bag>
            <rdf:li>weather</rdf:li>
            <rdf:li>showers</rdf:li>
            <rdf:li>scattered</rdf:li>
          </rdf:Bag>
        </dc:subject>
        <dc:description>Two raindrops</dc:description>
        <cc:license
           rdf:resource="" />
      </cc:Work>
    </rdf:RDF>
  </metadata>
  <g
     id="layer1">
    <g
       id="g3240"
       transform="translate(-1.0075 -.091287)"
       style="fill:none;stroke:#000000;stroke-opacity:1">
      <path
         id="path3208"
         d="m22.977 19.5a10.477 11.5 0 1 1 -20.954 0 10.477 11.5 0 1 1 20.954 0z"
         transform="matrix(.033675 -.99943 .99943 .033675 -3.4034 36.449)"
         style="fill:none;stroke:#000000;stroke-opacity:1" />
      <path
         id="path3210"
         d="m28.062 28.12c1.798-1.588 7.734 2.145 10.002 2.911 2.267 0.766 9.305 1.099 9.821 3.446 0.516 2.346-6.054 5.585-7.853 7.179-1.8 1.593-5.524 7.487-7.785 6.719-2.26-0.769-1.787-7.667-2.239-10.017s-3.744-8.65-1.946-10.238z"
         transform="matrix(.75760 .65272 -.65272 .75760 13.095 -35.621)"
         style="fill:#000000;stroke:#000000;stroke-opacity:1;fill-opacity:1" />
    </g>
    <g
       id="g3236"
       transform="translate(-.0048279 1)"
       style="fill:none;stroke:#000000;stroke-opacity:1">
      <path
         id="path3212"
         d="m22.977 19.5a10.477 11.5 0 1 1 -20.954 0 10.477 11.5 0 1 1 20.954 0z"
         transform="matrix(.029292 -.86792 .86936 .029244 16.684 44.179)"
         style="fill:none;stroke:#000000;stroke-opacity:1" />
      <path
         id="path3214"
         transform="matrix(0.659 .56683 -.56777 .65790 31.035 -18.407)"
         d="m28.062 28.12c1.798-1.588 7.734 2.145 10.002 2.911 2.267 0.766 9.305 1.099 9.821 3.446 0.516 2.346-6.054 5.585-7.853 7.179-1.8 1.593-5.524 7.487-7.785 6.719-2.26-0.769-1.787-7.667-2.239-10.017s-3.744-8.65-1.946-10.238z"
         style="fill:#000000;fill-opacity:1;stroke:#000000;stroke-opacity:1" />
    </g>
    <path
       id="path3250"
       style="fill:#000000;fill-opacity:1;stroke:#000000;stroke-width:3;stroke-linecap:round;stroke-linejoin:round;stroke-opacity:1"
       d="m 8.9754826,26.073552 c 0,0 0,5 5.0000004,5"
       inkscape:connector-curvature="0" />
    <path
       id="path3252"
       style="fill:#000000;fill-opacity:1;stroke:#000000;stroke-width:3;stroke-linecap:round;stroke-linejoin:round;stroke-opacity:1"
       d="m 28.062902,35.772909 c 0,0 0,6 7,6"
       inkscape:connector-curvature="0" />
  </g>
</svg>
