<?xml version="1.0" encoding="UTF-8" standalone="no"?>
<!-- Created with Inkscape (http://www.inkscape.org/) -->

<svg
   xmlns:dc="http://purl.org/dc/elements/1.1/"
   xmlns:cc="http://creativecommons.org/ns#"
   xmlns:rdf="http://www.w3.org/1999/02/22-rdf-syntax-ns#"
   xmlns:svg="http://www.w3.org/2000/svg"
   xmlns="http://www.w3.org/2000/svg"
   xmlns:sodipodi="http://sodipodi.sourceforge.net/DTD/sodipodi-0.dtd"
   xmlns:inkscape="http://www.inkscape.org/namespaces/inkscape"
   id="svg2383"
   height="48px"
   width="48px"
   version="1.1"
   inkscape:version="0.48.5 r10040"
   sodipodi:docname="stock_weather-few-clouds.svg">
  <defs
     id="defs14" />
  <sodipodi:namedview
     pagecolor="#ffffff"
     bordercolor="#666666"
     borderopacity="1"
     objecttolerance="10"
     gridtolerance="10"
     guidetolerance="10"
     inkscape:pageopacity="0"
     inkscape:pageshadow="2"
     inkscape:window-width="1920"
     inkscape:window-height="1007"
     id="namedview12"
     showgrid="false"
     inkscape:zoom="4.9166667"
     inkscape:cx="-15.355932"
     inkscape:cy="24"
     inkscape:window-x="0"
     inkscape:window-y="31"
     inkscape:window-maximized="1"
     inkscape:current-layer="layer1" />
  <metadata
     id="metadata2388">
    <rdf:RDF>
      <cc:Work
         rdf:about="">
        <dc:format>image/svg+xml</dc:format>
        <dc:type
           rdf:resource="http://purl.org/dc/dcmitype/StillImage" />
        <dc:title>Weather Few Clouds Night</dc:title>
        <dc:date>December 2008</dc:date>
        <dc:creator>
          <cc:Agent>
            <dc:title>Luca Ferretti &lt;elle.uca@libero.it&gt;</dc:title>
          </cc:Agent>
        </dc:creator>
        <dc:subject>
          <rdf:Bag>
            <rdf:li>weather</rdf:li>
            <rdf:li>day</rdf:li>
            <rdf:li>cloud</rdf:li>
            <rdf:li>few</rdf:li>
            <rdf:li />
          </rdf:Bag>
        </dc:subject>
        <dc:description>A sun with a cloud over it</dc:description>
        <cc:license
           rdf:resource="" />
      </cc:Work>
    </rdf:RDF>
  </metadata>
  <g
     id="layer1">
    <path
       id="path3175"
       d="m 27.006564,21.864406 a 5.0456545,4.9496515 0 0 1 -10.091309,0 5.0456545,4.9496515 0 1 1 10.091309,0 z"
       inkscape:connector-curvature="0" />
    <path
       id="path3181"
       d="m 22,2 c 1.882,0 3.236,7.269 4.975,7.99 1.739,0.72 7.836,-3.4632 9.167,-2.1321 C 37.473,9.189 33.29,15.286 34.01,17.025 34.731,18.764 42,20.118 42,22 c 0,1.882 -7.269,3.236 -7.99,4.975 -0.72,1.739 3.463,7.836 2.132,9.167 C 34.811,37.473 28.714,33.29 26.975,34.01 25.236,34.731 23.882,42 22,42 20.118,42 18.764,34.731 17.025,34.01 15.286,33.29 9.189,37.473 7.8579,36.142 6.5268,34.811 10.71,28.714 9.99,26.975 9.269,25.236 2,23.882 2,22 2,20.118 9.269,18.764 9.99,17.025 10.71,15.286 6.5268,9.189 7.8579,7.8579 9.189,6.5268 15.286,10.71 17.025,9.99 18.764,9.269 20.118,2 22,2 z"
       style="fill:none;stroke:#000000;stroke-width:4;stroke-miterlimit:4;stroke-opacity:1;stroke-dasharray:none"
       inkscape:connector-curvature="0" />
    <path
       id="path3247"
       style="fill-rule:evenodd;fill:#000000;fill-opacity:1;stroke:none"
       d="m 19.016949,45.220339 h 26.000003 v -20 c -4,-9 -26.000003,-6 -25.000003,4 -11.1310003,-4.02 -16.0000003,16 -1,16 z"
       inkscape:connector-curvature="0" />
  </g>
</svg>
