<?xml version="1.0" encoding="UTF-8" standalone="no"?>
<!-- Created with Inkscape (http://www.inkscape.org/) -->

<svg
   xmlns:dc="http://purl.org/dc/elements/1.1/"
   xmlns:cc="http://creativecommons.org/ns#"
   xmlns:rdf="http://www.w3.org/1999/02/22-rdf-syntax-ns#"
   xmlns:svg="http://www.w3.org/2000/svg"
   xmlns="http://www.w3.org/2000/svg"
   xmlns:sodipodi="http://sodipodi.sourceforge.net/DTD/sodipodi-0.dtd"
   xmlns:inkscape="http://www.inkscape.org/namespaces/inkscape"
   id="svg2383"
   height="48px"
   width="48px"
   version="1.1"
   inkscape:version="0.48.5 r10040"
   sodipodi:docname="sunny.svg">
  <defs
     id="defs12" />
  <sodipodi:namedview
     pagecolor="#ffffff"
     bordercolor="#666666"
     borderopacity="1"
     objecttolerance="10"
     gridtolerance="10"
     guidetolerance="10"
     inkscape:pageopacity="0"
     inkscape:pageshadow="2"
     inkscape:window-width="1920"
     inkscape:window-height="1007"
     id="namedview10"
     showgrid="false"
     inkscape:zoom="4.9166667"
     inkscape:cx="-15.355932"
     inkscape:cy="24"
     inkscape:window-x="0"
     inkscape:window-y="31"
     inkscape:window-maximized="1"
     inkscape:current-layer="svg2383" />
  <metadata
     id="metadata2388">
    <rdf:RDF>
      <cc:Work
         rdf:about="">
        <dc:format>image/svg+xml</dc:format>
        <dc:type
           rdf:resource="http://purl.org/dc/dcmitype/StillImage" />
        <dc:title>Weather Sun</dc:title>
        <dc:date>December 2008</dc:date>
        <dc:creator>
          <cc:Agent>
            <dc:title>Luca Ferretti &lt;elle.uca@libero.it&gt;</dc:title>
          </cc:Agent>
        </dc:creator>
        <dc:subject>
          <rdf:Bag>
            <rdf:li>weather</rdf:li>
            <rdf:li>sun</rdf:li>
            <rdf:li>clean</rdf:li>
            <rdf:li>day</rdf:li>
          </rdf:Bag>
        </dc:subject>
        <dc:description>A sun</dc:description>
        <cc:license
           rdf:resource="" />
      </cc:Work>
    </rdf:RDF>
  </metadata>
  <g
     id="layer1">
    <path
       id="path3181"
       d="m24 4c1.882 0 3.236 7.269 4.975 7.99 1.739 0.72 7.836-3.4632 9.167-2.1321s-2.852 7.4281-2.132 9.1671c0.721 1.739 7.99 3.093 7.99 4.975s-7.269 3.236-7.99 4.975c-0.72 1.739 3.463 7.836 2.132 9.167s-7.428-2.852-9.167-2.132c-1.739 0.721-3.093 7.99-4.975 7.99s-3.236-7.269-4.975-7.99c-1.739-0.72-7.836 3.463-9.1671 2.132s2.8521-7.428 2.1321-9.167c-0.721-1.739-7.99-3.093-7.99-4.975s7.269-3.236 7.99-4.975c0.72-1.739-3.4632-7.836-2.1321-9.1671s7.4281 2.8521 9.1671 2.1321c1.739-0.721 3.093-7.99 4.975-7.99z"
       style="fill:none;fill-opacity:1;stroke:#000000;stroke-opacity:1;stroke-width:4;stroke-miterlimit:4;stroke-dasharray:none" />
    <path
       id="path3187"
       style="fill:none;fill-opacity:1;stroke:#000000;stroke-opacity:1"
       d="m 35,23.59322 a 11,11 0 0 1 -22,0 11,11 0 1 1 22,0 z"
       inkscape:connector-curvature="0" />
  </g>
</svg>
