<?xml version="1.0" encoding="UTF-8" standalone="no"?>
<!-- Created with Inkscape (http://www.inkscape.org/) -->

<svg
   xmlns:dc="http://purl.org/dc/elements/1.1/"
   xmlns:cc="http://creativecommons.org/ns#"
   xmlns:rdf="http://www.w3.org/1999/02/22-rdf-syntax-ns#"
   xmlns:svg="http://www.w3.org/2000/svg"
   xmlns="http://www.w3.org/2000/svg"
   xmlns:sodipodi="http://sodipodi.sourceforge.net/DTD/sodipodi-0.dtd"
   xmlns:inkscape="http://www.inkscape.org/namespaces/inkscape"
   version="1.1"
   width="48"
   height="48"
   id="svg2383"
   inkscape:version="0.48.5 r10040"
   sodipodi:docname="weather-severe-alert.svg">
  <sodipodi:namedview
     pagecolor="#ffffff"
     bordercolor="#666666"
     borderopacity="1"
     objecttolerance="10"
     gridtolerance="10"
     guidetolerance="10"
     inkscape:pageopacity="0"
     inkscape:pageshadow="2"
     inkscape:window-width="1920"
     inkscape:window-height="1007"
     id="namedview15"
     showgrid="false"
     inkscape:zoom="16.208333"
     inkscape:cx="12.061948"
     inkscape:cy="21.532134"
     inkscape:window-x="0"
     inkscape:window-y="31"
     inkscape:window-maximized="1"
     inkscape:current-layer="svg2383" />
  <defs
     id="defs11" />
  <metadata
     id="metadata2388">
    <rdf:RDF>
      <cc:Work
         rdf:about="">
        <dc:format>image/svg+xml</dc:format>
        <dc:type
           rdf:resource="http://purl.org/dc/dcmitype/StillImage" />
        <dc:title />
      </cc:Work>
    </rdf:RDF>
  </metadata>
  <path
     d="m 9.6525835,29.81748 c 4.8050005,0 7.8050005,0 12.8050005,-1 3,1 9,1 12.285,1 9.409,0 11.5,-16.545 -1.045,-13 3.136,-8.2729997 -7.318,-12.9999997 -13.591,-4.727 -3.136,-3.5459997 -10.9910005,-3.6339997 -9.946,4.639 -10.45400046,-3.546 -9.91740046,13.088 -0.5080005,13.088 z"
     id="path3247"
     style="fill-rule:evenodd"
     inkscape:connector-curvature="0" />
  <path
     d="m 38.745752,33.861009 -6.399232,11.283475 12.798466,0 -6.399234,-11.283475 z"
     id="path9"
     style="fill:none;stroke:#000000;stroke-width:0.71103269;stroke-linecap:round;stroke-linejoin:round;stroke-miterlimit:4;stroke-opacity:1;stroke-dasharray:none"
     inkscape:connector-curvature="0" />
  <path
     d="m 39.992901,43.729859 -0.376425,-4.137273 2.258552,0 -0.376425,4.137273 -1.505702,0 z"
     id="path15"
     style="fill:#000000;fill-opacity:1;stroke:none"
     inkscape:connector-curvature="0" />
  <path
     d="m 41.851503,45.25784 a 1.1175132,1.1342244 0 0 1 -2.235027,0 1.1175132,1.1342244 0 1 1 2.235027,0 z"
     id="path6965"
     style="fill:#000000;fill-opacity:1;fill-rule:evenodd;stroke:none"
     inkscape:connector-curvature="0" />
</svg>
