<?xml version="1.0" encoding="UTF-8" standalone="no"?>
<!-- Created with Inkscape (http://www.inkscape.org/) -->

<svg
   xmlns:dc="http://purl.org/dc/elements/1.1/"
   xmlns:cc="http://creativecommons.org/ns#"
   xmlns:rdf="http://www.w3.org/1999/02/22-rdf-syntax-ns#"
   xmlns:svg="http://www.w3.org/2000/svg"
   xmlns="http://www.w3.org/2000/svg"
   xmlns:sodipodi="http://sodipodi.sourceforge.net/DTD/sodipodi-0.dtd"
   xmlns:inkscape="http://www.inkscape.org/namespaces/inkscape"
   id="svg2"
   version="1.1"
   inkscape:version="0.48.5 r10040"
   width="512"
   height="512"
   sodipodi:docname="document-open-recent.svg"
   viewBox="0 0 512 512">
  <metadata
     id="metadata8">
    <rdf:RDF>
      <cc:Work
         rdf:about="">
        <dc:format>image/svg+xml</dc:format>
        <dc:type
           rdf:resource="http://purl.org/dc/dcmitype/StillImage" />
        <dc:title />
      </cc:Work>
    </rdf:RDF>
  </metadata>
  <defs
     id="defs6">
    <filter
       inkscape:collect="always"
       style="color-interpolation-filters:sRGB"
       id="filter4166"
       x="-0.028206533"
       width="1.0564131"
       y="-0.049744379"
       height="1.0994889">
      <feGaussianBlur
         inkscape:collect="always"
         stdDeviation="5.8998423"
         id="feGaussianBlur4168" />
    </filter>
  </defs>
  <sodipodi:namedview
     pagecolor="#ffffff"
     bordercolor="#666666"
     borderopacity="1"
     objecttolerance="10"
     gridtolerance="10"
     guidetolerance="10"
     inkscape:pageopacity="0"
     inkscape:pageshadow="2"
     inkscape:window-width="1920"
     inkscape:window-height="1007"
     id="namedview4"
     showgrid="false"
     showguides="true"
     inkscape:guide-bbox="true"
     inkscape:zoom="1.3011867"
     inkscape:cx="43.150616"
     inkscape:cy="266.88606"
     inkscape:window-x="0"
     inkscape:window-y="31"
     inkscape:window-maximized="1"
     inkscape:current-layer="svg2"
     inkscape:document-units="px" />
  <g
     id="g4155"
     transform="translate(100.7571,268.90545)"
     style="fill:none;stroke:#000000;stroke-opacity:1;stroke-width:8;stroke-miterlimit:4;stroke-dasharray:none">
    <path
       sodipodi:nodetypes="sscccssssccssccccccss"
       inkscape:connector-curvature="0"
       id="rect2982-2"
       d="m -45.690244,-174.62874 c -7.824275,0 -14.123816,6.29785 -14.123816,14.12212 l 0,37.32867 0,120.132425 0,121.545505 0,7.30708 c 0,5.98757 4.819796,10.80737 10.807375,10.80737 l 408.499315,0 c 5.98757,0 10.80907,-4.8198 10.80907,-10.80737 l 0,-128.852575 -0.002,0 0,-120.132425 c 0,-11.78329 -9.48585,-21.26915 -21.26914,-21.26915 l -218.96832,0 c -5.81617,0 -8.11397,-0.68519 -11.8386,-4.18889 l -21.967718,-21.7689 c -0.0748,-0.0762 -0.15164,-0.15024 -0.22814,-0.22473 l -0.0443,-0.0426 -0.002,0.002 c -2.53734,-2.44894 -5.98807,-3.95828 -9.80972,-3.95828 z"
       style="fill:none;fill-opacity:1;fill-rule:evenodd;stroke:#000000;stroke-width:16;stroke-linecap:butt;stroke-linejoin:miter;stroke-miterlimit:4;stroke-dasharray:none;stroke-opacity:1" />
  </g>
  <g
     id="g4160"
     transform="translate(86.155051,2.805265)"
     style="fill:#000000;fill-opacity:1">
    <path
       id="path29"
       style="fill:#000000;fill-opacity:1;stroke:none"
       d="m 169.82763,211.40616 c -25.65009,0 -48.01969,13.91852 -59.96894,34.63552 l 17.93627,0 c 9.99481,-12.09769 25.15032,-19.79172 42.05742,-19.79172 30.0587,0 54.42728,24.36857 54.42728,54.42728 0,30.05867 -24.36858,54.42725 -54.42728,54.42725 -30.0587,0 -54.42727,-24.36858 -54.42727,-54.42725 0,-1.67242 0.16328,-3.31513 0.31172,-4.94795 l -14.99224,0 c -0.1138,1.63282 -0.15338,3.28544 -0.15338,4.94795 0,38.25741 31.01365,69.27106 69.27107,69.27106 38.25742,0 69.27106,-31.01365 69.27106,-69.27106 0,-38.25743 -31.01364,-69.27108 -69.27106,-69.27108 z"
       inkscape:connector-curvature="0" />
    <path
       id="path31"
       style="fill:#000000;fill-opacity:1;stroke:none"
       d="m 100.55657,211.39527 0,49.47934 49.47933,0 z"
       inkscape:connector-curvature="0" />
    <path
       id="path33"
       style="color:#000000;fill:#000000;fill-opacity:1"
       d="m 168.90237,235.83806 a 9.8958676,9.8958676 0 0 0 -1.23698,0.30678 9.8958676,9.8958676 0 0 0 -7.73363,9.89586 l 0,36.491 a 9.8958676,9.8958676 0 0 0 0,0.93023 9.8958676,9.8958676 0 0 0 1.237,7.42189 9.8958676,9.8958676 0 0 0 0.31172,0.30678 9.8958676,9.8958676 0 0 0 0.31171,0.61354 9.8958676,9.8958676 0 0 0 0.31172,0.30678 9.8958676,9.8958676 0 0 0 0.31173,0.30676 9.8958676,9.8958676 0 0 0 0.31173,0.30678 9.8958676,9.8958676 0 0 0 0.31171,0.30676 9.8958676,9.8958676 0 0 0 0.61849,0.30678 9.8958676,9.8958676 0 0 0 0.31171,0.30677 9.8958676,9.8958676 0 0 0 0.31173,0.30677 9.8958676,9.8958676 0 0 0 0.6185,0.30678 9.8958676,9.8958676 0 0 0 1.23697,0.61353 l 24.42794,14.22532 a 9.9948263,9.9948263 0 1 0 9.89588,-17.31777 l -20.717,-12.06306 0,-33.70532 a 9.8958676,9.8958676 0 0 0 -10.82113,-10.2076 z"
       inkscape:connector-curvature="0" />
  </g>
</svg>
