<?xml version="1.0" encoding="UTF-8" standalone="no"?>
<!-- Created with Inkscape (http://www.inkscape.org/) -->

<svg
   xmlns:dc="http://purl.org/dc/elements/1.1/"
   xmlns:cc="http://creativecommons.org/ns#"
   xmlns:rdf="http://www.w3.org/1999/02/22-rdf-syntax-ns#"
   xmlns:svg="http://www.w3.org/2000/svg"
   xmlns="http://www.w3.org/2000/svg"
   xmlns:sodipodi="http://sodipodi.sourceforge.net/DTD/sodipodi-0.dtd"
   xmlns:inkscape="http://www.inkscape.org/namespaces/inkscape"
   id="svg2"
   version="1.1"
   inkscape:version="0.48.5 r10040"
   width="512"
   height="512"
   sodipodi:docname="folder-music.svg"
   viewBox="0 0 512 512">
  <metadata
     id="metadata8">
    <rdf:RDF>
      <cc:Work
         rdf:about="">
        <dc:format>image/svg+xml</dc:format>
        <dc:type
           rdf:resource="http://purl.org/dc/dcmitype/StillImage" />
        <dc:title />
      </cc:Work>
    </rdf:RDF>
  </metadata>
  <defs
     id="defs6">
    <filter
       inkscape:collect="always"
       style="color-interpolation-filters:sRGB"
       id="filter4166"
       x="-0.028206533"
       width="1.0564131"
       y="-0.049744379"
       height="1.0994889">
      <feGaussianBlur
         inkscape:collect="always"
         stdDeviation="5.8998423"
         id="feGaussianBlur4168" />
    </filter>
  </defs>
  <sodipodi:namedview
     pagecolor="#ffffff"
     bordercolor="#666666"
     borderopacity="1"
     objecttolerance="10"
     gridtolerance="10"
     guidetolerance="10"
     inkscape:pageopacity="0"
     inkscape:pageshadow="2"
     inkscape:window-width="1920"
     inkscape:window-height="1007"
     id="namedview4"
     showgrid="false"
     showguides="true"
     inkscape:guide-bbox="true"
     inkscape:zoom="0.921875"
     inkscape:cx="263.1767"
     inkscape:cy="204.83311"
     inkscape:window-x="0"
     inkscape:window-y="31"
     inkscape:window-maximized="1"
     inkscape:current-layer="svg2"
     inkscape:document-units="px" />
  <path
     style="fill:none;fill-opacity:1;fill-rule:evenodd;stroke:#000000;stroke-width:16;stroke-linecap:butt;stroke-linejoin:miter;stroke-miterlimit:4;stroke-dasharray:none;stroke-opacity:1"
     d="m 55.06685,94.27672 c -7.824275,0 -14.123816,6.29784 -14.123816,14.12211 l 0,37.32867 0,120.13243 0,121.5455 0,7.30708 c 0,5.98757 4.819796,10.80737 10.807375,10.80737 l 408.499311,0 c 5.98757,0 10.80907,-4.8198 10.80907,-10.80737 l 0,-128.85257 -0.002,0 0,-120.13243 c 0,-11.78329 -9.48585,-21.26915 -21.26914,-21.26915 l -218.96831,0 c -5.81617,0 -8.11397,-0.68519 -11.8386,-4.18889 L 197.01302,98.50058 c -0.0748,-0.0762 -0.15164,-0.15024 -0.22814,-0.22473 l -0.0443,-0.0426 -0.002,0.002 c -2.53734,-2.44894 -5.98807,-3.95828 -9.80972,-3.95828 z"
     id="rect2982-2"
     inkscape:connector-curvature="0"
     sodipodi:nodetypes="sscccssssccssccccccss" />
  <path
     style="fill:#000000;stroke-width:4.75928067999999982;fill-opacity:1"
     inkscape:connector-curvature="0"
     d="m 256,217.53141 c -23.27137,0 -36.09355,13.43927 -41.95815,26.36894 -4.05981,8.95066 -5.15241,17.58416 -5.52474,22.22101 -16.64165,4.10363 -28.96755,18.95904 -28.96755,36.73875 0,20.9444 17.11402,37.92386 38.22522,37.92386 l 0,-71.10725 c 0,0 0.0411,-11.00384 4.92747,-21.77659 C 227.5885,237.12786 236.268,227.01238 256,227.01238 c 19.73201,0 28.41151,10.11548 33.29775,20.88775 4.88625,10.77275 4.92747,21.77659 4.92747,21.77659 l 0,71.10725 c 21.11121,0 38.22522,-16.97946 38.22522,-37.92386 0,-17.77971 -12.3259,-32.63512 -28.96755,-36.73875 -0.37236,-4.63685 -1.46502,-13.27035 -5.52474,-22.22101 C 292.09355,230.97068 279.27137,217.53141 256,217.53141 Z"
     id="path3767-6" />
</svg>
