<?xml version="1.0" encoding="UTF-8" standalone="no"?>
<!-- Created with Inkscape (http://www.inkscape.org/) -->

<svg
   xmlns:dc="http://purl.org/dc/elements/1.1/"
   xmlns:cc="http://creativecommons.org/ns#"
   xmlns:rdf="http://www.w3.org/1999/02/22-rdf-syntax-ns#"
   xmlns:svg="http://www.w3.org/2000/svg"
   xmlns="http://www.w3.org/2000/svg"
   xmlns:sodipodi="http://sodipodi.sourceforge.net/DTD/sodipodi-0.dtd"
   xmlns:inkscape="http://www.inkscape.org/namespaces/inkscape"
   id="svg2"
   version="1.1"
   inkscape:version="0.48.5 r10040"
   width="512"
   height="512"
   viewBox="0 0 512 512"
   sodipodi:docname="user-trash-full.svg">
  <metadata
     id="metadata8">
    <rdf:RDF>
      <cc:Work
         rdf:about="">
        <dc:format>image/svg+xml</dc:format>
        <dc:type
           rdf:resource="http://purl.org/dc/dcmitype/StillImage" />
        <dc:title />
      </cc:Work>
    </rdf:RDF>
  </metadata>
  <defs
     id="defs6" />
  <sodipodi:namedview
     pagecolor="#ffffff"
     bordercolor="#666666"
     borderopacity="1"
     objecttolerance="10"
     gridtolerance="10"
     guidetolerance="10"
     inkscape:pageopacity="0"
     inkscape:pageshadow="2"
     inkscape:window-width="1920"
     inkscape:window-height="1007"
     id="namedview4"
     showgrid="false"
     inkscape:zoom="1.4142136"
     inkscape:cx="207.79379"
     inkscape:cy="274.14352"
     inkscape:window-x="0"
     inkscape:window-y="31"
     inkscape:window-maximized="1"
     inkscape:current-layer="svg2" />
  <path
     inkscape:connector-curvature="0"
     id="path3348"
     d="m 236.83498,480.5103 c -49.22934,-3.37491 -89.30865,-16.81931 -106.62587,-35.7671 -6.16601,-6.74658 -7.83487,-10.35967 -9.66213,-20.91849 C 115.50411,394.68463 57.46944,113.24685 64.659031,123.13305 246.88079,241.45321 447.46761,156.55656 447.42883,103.33902 c 1.80936,6.79012 1.65516,11.98 -0.63493,21.36921 -2.47721,10.15641 -55.9057,299.75001 -55.9057,303.02065 0,1.32759 -1.35327,5.12192 -3.00727,8.43186 -8.39357,16.79703 -36.53718,31.68245 -74.54624,39.4282 -21.15552,4.31122 -54.29844,6.44337 -76.49971,4.92136 z"
     style="fill:#000000;stroke:#000000;stroke-width:16;stroke-miterlimit:4;stroke-opacity:1;stroke-dasharray:none;fill-opacity:1"
     sodipodi:nodetypes="sssccsssss" />
  <path
     inkscape:connector-curvature="0"
     id="path3340"
     d="M 228.98604,170.88645 C 160.48657,167.8998 97.187624,151.30799 69.853043,129.17478 62.91628,123.558 57.3865,115.54612 57.405766,111.14045 57.438354,103.68421 67.921803,92.542291 82.628815,84.333021 145.57024,49.199953 275.81966,39.844153 371.2997,63.597813 c 32.98087,8.20503 57.90094,19.384798 71.6669,32.151598 9.30725,8.631689 11.0622,14.108749 7.01735,21.900669 -9.50369,18.30778 -51.82334,36.94796 -105.07176,46.28004 -21.43315,3.75629 -41.83799,5.88895 -67.11851,7.01503 -22.12833,0.98568 -24.9318,0.98231 -48.80764,-0.0586 z"
     style="fill:none;stroke:#000000;stroke-width:15.899436;stroke-miterlimit:4;stroke-opacity:1;stroke-dasharray:none" />
  <path
     style="fill:#000000;fill-opacity:1;stroke:none"
     d="m 143.64853,153.39848 c -24.08669,-7.65668 -24.51536,-8.76649 -24.80342,-19.2843 -0.12814,-4.67895 -0.30289,-9.2888 -0.38832,-10.2441 -0.19872,-2.22219 48.67922,-36.900598 52.16644,-37.011564 1.43941,-0.04584 4.48962,0.628657 6.77826,1.498787 l 4.16114,1.582073 -4.04296,5.019333 c -16.48089,20.460941 -25.82289,33.659461 -25.82289,36.482941 0,1.82208 2.45555,8.70123 5.45678,15.287 3.00124,6.58577 5.26759,12.16332 5.03633,12.39457 -0.23124,0.23125 -8.87622,-2.65239 -18.54136,-5.72474 z"
     id="path3370"
     inkscape:connector-curvature="0"
     sodipodi:nodetypes="ssscscssscs" />
  <path
     style="fill:#000000;fill-opacity:1;stroke:none"
     d="m 374.14438,148.17274 c 0,-3.10589 -3.16641,-7.91904 -11.49567,-17.4743 -12.91771,-14.81899 -13.11238,-13.97791 3.77355,-16.30032 7.38702,-1.01597 8.33718,-0.76547 12.65723,3.33701 8.39595,7.973 21.22259,23.80435 19.21755,24.98579 -1.8165,1.45735 -25.08341,11.33459 -27.25851,11.33459 -0.88007,0 3.10585,-3.52515 3.10585,-5.88277 z"
     id="path3374"
     inkscape:connector-curvature="0"
     sodipodi:nodetypes="sssscss" />
  <path
     style="fill:#000000;fill-opacity:1;stroke:none"
     d="m 215.79867,166.05699 c -17.54981,-2.01918 -48.9583,-7.84785 -53.5161,-8.8542 -4.23143,-0.93431 -5.28751,-4.34832 -9.47892,-14.75898 -2.7795,-6.90379 -5.05366,-13.20208 -5.05366,-13.9962 0,-1.42161 20.95466,-28.33087 37.98066,-48.773453 4.78715,-5.747771 9.83072,-10.465557 11.20795,-10.483963 3.56104,-0.04759 66.37909,7.547344 70.80294,8.560341 2.45901,0.563077 4.72368,3.166846 6.8414,7.865778 1.74108,3.863243 4.16068,7.398865 5.37687,7.856942 1.2162,0.45807 11.02915,-0.981411 21.80656,-3.198851 10.7774,-2.217441 21.01867,-4.031713 22.75836,-4.031713 3.94149,0 54.27428,51.824819 54.27428,55.883159 0,3.29742 -0.24493,6.30271 -4.50339,7.71147 -4.03674,1.33541 -10.7816,3.97842 -20.02578,6.2174 -32.80169,7.94469 -48.95478,10.92727 -92.85247,11.42115 -22.19494,0.2497 -42.57234,-1.06839 -45.6187,-1.41888 z"
     id="path3361"
     inkscape:connector-curvature="0"
     sodipodi:nodetypes="ssssssssssssssss" />
</svg>
