<?xml version="1.0" encoding="UTF-8" standalone="no"?>
<!-- Created with Inkscape (http://www.inkscape.org/) -->

<svg
   xmlns:dc="http://purl.org/dc/elements/1.1/"
   xmlns:cc="http://creativecommons.org/ns#"
   xmlns:rdf="http://www.w3.org/1999/02/22-rdf-syntax-ns#"
   xmlns:svg="http://www.w3.org/2000/svg"
   xmlns="http://www.w3.org/2000/svg"
   xmlns:sodipodi="http://sodipodi.sourceforge.net/DTD/sodipodi-0.dtd"
   xmlns:inkscape="http://www.inkscape.org/namespaces/inkscape"
   id="svg2"
   version="1.1"
   inkscape:version="0.48.5 r10040"
   width="512"
   height="512"
   viewBox="0 0 512 512"
   sodipodi:docname="user-trash.svg">
  <metadata
     id="metadata8">
    <rdf:RDF>
      <cc:Work
         rdf:about="">
        <dc:format>image/svg+xml</dc:format>
        <dc:type
           rdf:resource="http://purl.org/dc/dcmitype/StillImage" />
        <dc:title />
      </cc:Work>
    </rdf:RDF>
  </metadata>
  <defs
     id="defs6" />
  <sodipodi:namedview
     pagecolor="#ffffff"
     bordercolor="#666666"
     borderopacity="1"
     objecttolerance="10"
     gridtolerance="10"
     guidetolerance="10"
     inkscape:pageopacity="0"
     inkscape:pageshadow="2"
     inkscape:window-width="1920"
     inkscape:window-height="1007"
     id="namedview4"
     showgrid="false"
     inkscape:zoom="0.84583003"
     inkscape:cx="6.2895784"
     inkscape:cy="276.02918"
     inkscape:window-x="0"
     inkscape:window-y="31"
     inkscape:window-maximized="1"
     inkscape:current-layer="svg2" />
  <path
     inkscape:connector-curvature="0"
     id="path3348"
     d="m 236.83498,480.5103 c -49.22934,-3.37491 -89.30865,-16.81931 -106.62587,-35.7671 -6.16601,-6.74658 -7.83487,-10.35967 -9.66213,-20.91849 -5.04287,-29.14008 -61.263772,-322.97063 -55.33199,-318.48236 62.42436,57.32741 292.3464,65.7435 382.21384,-2.00333 4.58916,-5.440988 1.65516,11.98 -0.63493,21.36921 -2.47721,10.15641 -55.9057,299.75001 -55.9057,303.02065 0,1.32759 -1.35327,5.12192 -3.00727,8.43186 -8.39357,16.79703 -36.53718,31.68245 -74.54624,39.4282 -21.15552,4.31122 -54.29844,6.44337 -76.49971,4.92136 z"
     style="fill:#000000;fill-opacity:1;stroke:#000000;stroke-width:16;stroke-miterlimit:4;stroke-opacity:1;stroke-dasharray:none"
     sodipodi:nodetypes="sssccsssss" />
  <path
     inkscape:connector-curvature="0"
     id="path3340"
     d="M 58.973238,96.460668 C 87.75581,7.4793941 478.01011,14.746377 446.06148,98.241215 363.45966,200.1595 104.83985,167.62941 58.973238,96.460668 z"
     style="fill:none;stroke:#000000;stroke-width:16;stroke-miterlimit:4;stroke-opacity:1;stroke-dasharray:none"
     sodipodi:nodetypes="ccc" />
</svg>
