<?xml version="1.0" encoding="UTF-8" standalone="no"?>
<svg
   xmlns:osb="http://www.openswatchbook.org/uri/2009/osb"
   xmlns:dc="http://purl.org/dc/elements/1.1/"
   xmlns:cc="http://creativecommons.org/ns#"
   xmlns:rdf="http://www.w3.org/1999/02/22-rdf-syntax-ns#"
   xmlns:svg="http://www.w3.org/2000/svg"
   xmlns="http://www.w3.org/2000/svg"
   xmlns:sodipodi="http://sodipodi.sourceforge.net/DTD/sodipodi-0.dtd"
   xmlns:inkscape="http://www.inkscape.org/namespaces/inkscape"
   height="16"
   version="1.1"
   width="16"
   enable-background="new"
   id="svg2"
   inkscape:version="0.48.5 r10040"
   sodipodi:docname="drive-harddisk-ieee1394-symbolic.svg">
  <sodipodi:namedview
     pagecolor="#ffffff"
     bordercolor="#666666"
     borderopacity="1"
     objecttolerance="10"
     gridtolerance="10"
     guidetolerance="10"
     inkscape:pageopacity="0"
     inkscape:pageshadow="2"
     inkscape:window-width="640"
     inkscape:window-height="480"
     id="namedview17"
     showgrid="false"
     inkscape:zoom="14.75"
     inkscape:cx="8"
     inkscape:cy="8"
     inkscape:window-x="0"
     inkscape:window-y="31"
     inkscape:window-maximized="0"
     inkscape:current-layer="layer10" />
  <metadata
     id="metadata90">
    <rdf:RDF>
      <cc:Work
         rdf:about="">
        <dc:format>image/svg+xml</dc:format>
        <dc:type
           rdf:resource="http://purl.org/dc/dcmitype/StillImage" />
      </cc:Work>
    </rdf:RDF>
  </metadata>
  <defs
     id="defs7386">
    <linearGradient
       id="linearGradient5606"
       osb:paint="solid">
      <stop
         id="stop5608" />
    </linearGradient>
    <filter
       inkscape:collect="always"
       color-interpolation-filters="sRGB"
       id="filter7554">
      <feBlend
         inkscape:collect="always"
         id="feBlend7556"
         in2="BackgroundImage"
         mode="darken" />
    </filter>
  </defs>
  <g
     inkscape:groupmode="layer"
     id="layer10"
     inkscape:label="devices"
     transform="translate(-281.00021,52.031197)"
     filter="url(#filter7554)">
    <path
       inkscape:connector-curvature="0"
       d="m 289.5002,-47 c -1.38071,0 -2.5,1.11929 -2.5,2.5 0,1.38071 1.11929,2.5 2.5,2.5 1.38071,0 2.5,-1.11929 2.5,-2.5 0,-1.38071 -1.11929,-2.5 -2.5,-2.5 z m 0,1 c 0.82843,0 1.5,0.67157 1.5,1.5 0,0.82843 -0.67157,1.5 -1.5,1.5 -0.82843,0 -1.5,-0.67157 -1.5,-1.5 0,-0.82843 0.67157,-1.5 1.5,-1.5 z"
       id="path5705"
       fill="#555555"
       style="fill:#000000;fill-opacity:1" />
    <rect
       height="1"
       id="rect5701"
       width="3"
       x="288"
       y="-41"
       fill="#555555"
       style="fill:#000000;fill-opacity:1" />
    <rect
       height="1"
       id="rect5703"
       width="3"
       x="288"
       y="-39"
       fill="#555555"
       style="fill:#000000;fill-opacity:1" />
    <rect
       height="1"
       id="rect5738"
       transform="matrix(0.70710678,-0.70710678,0.70710678,0.70710678,0,0)"
       width="3"
       x="234.67"
       y="166.74"
       fill="#555555"
       style="fill:#000000;fill-opacity:1" />
    <rect
       height="1"
       id="rect5740"
       transform="matrix(0.70710678,-0.70710678,0.70710678,0.70710678,0,0)"
       width="3"
       x="234.67"
       y="168.74"
       fill="#555555"
       style="fill:#000000;fill-opacity:1" />
    <rect
       height="3"
       id="rect5764"
       transform="matrix(0.70710678,0.70710678,-0.70710678,0.70710678,0,0)"
       width="3"
       x="171.74"
       y="-242.67"
       fill="#555555"
       style="fill:#000000;fill-opacity:1" />
  </g>
</svg>
