<?xml version="1.0" encoding="UTF-8" standalone="no"?>
<svg
   xmlns:dc="http://purl.org/dc/elements/1.1/"
   xmlns:cc="http://creativecommons.org/ns#"
   xmlns:rdf="http://www.w3.org/1999/02/22-rdf-syntax-ns#"
   xmlns:svg="http://www.w3.org/2000/svg"
   xmlns="http://www.w3.org/2000/svg"
   xmlns:sodipodi="http://sodipodi.sourceforge.net/DTD/sodipodi-0.dtd"
   xmlns:inkscape="http://www.inkscape.org/namespaces/inkscape"
   width="16"
   viewBox="0 0 16 16"
   height="16"
   id="svg2"
   version="1.1"
   inkscape:version="0.48.5 r10040"
   sodipodi:docname="audio-speakers-symbolic.svg">
  <metadata
     id="metadata34">
    <rdf:RDF>
      <cc:Work
         rdf:about="">
        <dc:format>image/svg+xml</dc:format>
        <dc:type
           rdf:resource="http://purl.org/dc/dcmitype/StillImage" />
      </cc:Work>
    </rdf:RDF>
  </metadata>
  <sodipodi:namedview
     pagecolor="#ffffff"
     bordercolor="#666666"
     borderopacity="1"
     objecttolerance="10"
     gridtolerance="10"
     guidetolerance="10"
     inkscape:pageopacity="0"
     inkscape:pageshadow="2"
     inkscape:window-width="640"
     inkscape:window-height="480"
     id="namedview32"
     showgrid="false"
     inkscape:zoom="14.75"
     inkscape:cx="8"
     inkscape:cy="8"
     inkscape:window-x="0"
     inkscape:window-y="31"
     inkscape:window-maximized="0"
     inkscape:current-layer="svg2" />
  <defs
     id="defs4">
    <clipPath
       id="clipPath6">
      <rect
         x="26.999"
         y="221.5"
         width="1.876"
         height="4.874"
         fill="#bebebe"
         color="#bebebe"
         id="rect8" />
    </clipPath>
    <clipPath
       id="clipPath10">
      <rect
         x="26.966"
         y="221.33"
         width="2.898"
         height="5.216"
         fill="#bebebe"
         color="#bebebe"
         id="rect12" />
    </clipPath>
    <clipPath
       id="clipPath14">
      <rect
         x="26.85"
         y="220.75"
         width="3.825"
         height="6.375"
         fill="#bebebe"
         color="#bebebe"
         id="rect16" />
    </clipPath>
  </defs>
  <path
     d="M 5,3 2,6 2,10 5,13 5,9 6,8 5,7 z"
     fill="#bebebe"
     id="path18"
     style="fill:#000000;fill-opacity:1" />
  <path
     d="M 1.300003,6 C 0.216589,6 0,6.2364797 0,7.4732107 l 0,1.285715 C 0,9.9956727 0.24312,10 1.300003,10 L 3,10 3,6 z"
     fill="#bebebe"
     id="path20"
     style="fill:#000000;fill-opacity:1" />
  <path
     d="m 12.797678,17 -1.150402,1 c 2.879528,4 2.879528,8 -1.150401,12 l 1.150401,1 C 16,25.438893 16,22.605996 12.797678,17 z"
     color="#000000"
     fill="#bebebe"
     id="path22" />
  <path
     d="m 10,19 -1,1 c 2.355767,2.436771 2.355767,5.563228 0,8 l 1,1 c 2.982636,-3.085196 2.982636,-6.914804 0,-10 z"
     color="#000000"
     fill="#bebebe"
     id="path24" />
  <path
     d="M 8,5 7,6 c 1.074549,1.1114985 1.074549,2.888502 0,4 l 1,1 C 9.701419,9.2400757 9.701419,6.759924 8,5 z"
     color="#000000"
     fill="#bebebe"
     id="path26"
     style="fill:#000000;fill-opacity:1" />
  <path
     d="m 9.1904329,4.7194021 c 1.7657041,1.7657042 1.7964861,4.78751 0.030782,6.5532139 l 1.4019691,1.401969 c 2.5301,-2.530101 2.499318,-6.827051 -0.03078,-9.3571516 z"
     fill="#bebebe"
     color="#000000"
     id="path28"
     style="fill:#000000;fill-opacity:1" />
  <path
     d="m 11.372266,2.7576045 c 2.93737,2.93737 2.93737,7.7294295 0,10.6668005 l 1.416684,1.416684 c 3.701647,-3.701646 3.701647,-9.7985226 0,-13.5001689 z"
     fill="#bebebe"
     color="#000000"
     id="path30"
     style="fill:#000000;fill-opacity:1" />
</svg>
