<?xml version="1.0" encoding="UTF-8" standalone="no"?>
<!-- Created with Inkscape (http://www.inkscape.org/) -->

<svg
   xmlns:dc="http://purl.org/dc/elements/1.1/"
   xmlns:cc="http://creativecommons.org/ns#"
   xmlns:rdf="http://www.w3.org/1999/02/22-rdf-syntax-ns#"
   xmlns:svg="http://www.w3.org/2000/svg"
   xmlns="http://www.w3.org/2000/svg"
   xmlns:sodipodi="http://sodipodi.sourceforge.net/DTD/sodipodi-0.dtd"
   xmlns:inkscape="http://www.inkscape.org/namespaces/inkscape"
   id="svg7384"
   height="16.001"
   width="16"
   version="1.1"
   inkscape:version="0.48.5 r10040"
   sodipodi:docname="audio-input-microphone-symbolic.svg">
  <sodipodi:namedview
     pagecolor="#ffffff"
     bordercolor="#666666"
     borderopacity="1"
     objecttolerance="10"
     gridtolerance="10"
     guidetolerance="10"
     inkscape:pageopacity="0"
     inkscape:pageshadow="2"
     inkscape:window-width="640"
     inkscape:window-height="480"
     id="namedview16"
     showgrid="false"
     inkscape:zoom="14.749079"
     inkscape:cx="8"
     inkscape:cy="8.0004997"
     inkscape:window-x="0"
     inkscape:window-y="31"
     inkscape:window-maximized="0"
     inkscape:current-layer="svg7384" />
  <metadata
     id="metadata90">
    <rdf:RDF>
      <cc:Work
         rdf:about="">
        <dc:format>image/svg+xml</dc:format>
        <dc:type
           rdf:resource="http://purl.org/dc/dcmitype/StillImage" />
        <dc:title>Gnome Symbolic Icon Theme</dc:title>
      </cc:Work>
    </rdf:RDF>
  </metadata>
  <title
     id="title9167">Gnome Symbolic Icon Theme</title>
  <defs
     id="defs7386">
    <clipPath
       id="clipPath6810-7"
       clipPathUnits="userSpaceOnUse">
      <rect
         id="rect6812-2"
         style="stroke-linejoin:round;color:#bebebe;stroke:#fff;stroke-linecap:round;stroke-width:2;fill:none"
         height="11"
         width="14"
         y="281"
         x="21" />
    </clipPath>
  </defs>
  <g
     id="layer10"
     transform="translate(-40,-448)"
     style="fill:#000000;fill-opacity:1">
    <rect
       id="rect6796"
       style="color:#bebebe;fill:#000000;fill-opacity:1"
       rx="2.5"
       ry="2.5"
       height="10.013"
       width="5"
       y="448.99"
       x="45" />
    <path
       id="rect6806"
       style="block-progression:tb;text-indent:0;color:#bebebe;text-transform:none;fill:#000000;fill-opacity:1"
       d="m27.969 273.62c-2.5025 0-4.5312 2.0288-4.5312 4.5312v5.8125c0 2.5025 2.0288 4.5312 4.5312 4.5312 2.5025 0 4.5312-2.0288 4.5312-4.5312v-5.8125c0-2.5025-2.0288-4.5312-4.5312-4.5312zm0 1c1.9641 0 3.5312 1.5671 3.5312 3.5312v5.8125c0 1.9642-1.5671 3.5312-3.5312 3.5312s-3.5312-1.5671-3.5312-3.5312v-5.8125c0-1.9642 1.5671-3.5312 3.5312-3.5312z"
       clip-path="url(#clipPath6810-7)"
       transform="matrix(.99397 0 0 1 19.707 172.51)" />
    <path
       id="path6814"
       style="color:#bebebe;fill:#000000;fill-opacity:1"
       d="m24 361a1 1 0 1 1 -2 0 1 1 0 1 1 2 0z"
       transform="matrix(.5 0 0 .5 32 273)" />
    <path
       id="path6816"
       style="color:#bebebe;fill:#000000;fill-opacity:1"
       d="m24 361a1 1 0 1 1 -2 0 1 1 0 1 1 2 0z"
       transform="matrix(.5 0 0 .5 40 273)" />
    <path
       id="path6818"
       style="block-progression:tb;text-indent:0;color:#bebebe;text-transform:none;fill:#000000;fill-opacity:1"
       d="m43.906 462a1.0011 1.0011 0 1 0 0.094 2h7a1.0001 1.0001 0 1 0 0 -2h-7a1.0001 1.0001 0 0 0 -0.09375 0z" />
    <rect
       id="rect6822"
       style="color:#bebebe;fill:#000000;fill-opacity:1"
       height="1"
       width="8.9998"
       y="463"
       x="43" />
    <rect
       id="rect6824"
       style="color:#bebebe;fill:#000000;fill-opacity:1"
       height="4"
       width="3"
       y="460"
       x="46" />
  </g>
</svg>
