<?xml version="1.0" encoding="UTF-8" standalone="no"?>
<!-- Created with Inkscape (http://www.inkscape.org/) -->

<svg
   xmlns:dc="http://purl.org/dc/elements/1.1/"
   xmlns:cc="http://creativecommons.org/ns#"
   xmlns:rdf="http://www.w3.org/1999/02/22-rdf-syntax-ns#"
   xmlns:svg="http://www.w3.org/2000/svg"
   xmlns="http://www.w3.org/2000/svg"
   xmlns:sodipodi="http://sodipodi.sourceforge.net/DTD/sodipodi-0.dtd"
   xmlns:inkscape="http://www.inkscape.org/namespaces/inkscape"
   id="svg7384"
   height="16.014"
   width="16.014"
   version="1.1"
   inkscape:version="0.48.5 r10040"
   sodipodi:docname="audio-card-symbolic.svg">
  <defs
     id="defs14" />
  <sodipodi:namedview
     pagecolor="#ffffff"
     bordercolor="#666666"
     borderopacity="1"
     objecttolerance="10"
     gridtolerance="10"
     guidetolerance="10"
     inkscape:pageopacity="0"
     inkscape:pageshadow="2"
     inkscape:window-width="640"
     inkscape:window-height="480"
     id="namedview12"
     showgrid="false"
     inkscape:zoom="14.737105"
     inkscape:cx="8.007"
     inkscape:cy="8.007"
     inkscape:window-x="0"
     inkscape:window-y="31"
     inkscape:window-maximized="0"
     inkscape:current-layer="svg7384" />
  <metadata
     id="metadata90">
    <rdf:RDF>
      <cc:Work
         rdf:about="">
        <dc:format>image/svg+xml</dc:format>
        <dc:type
           rdf:resource="http://purl.org/dc/dcmitype/StillImage" />
        <dc:title>Gnome Symbolic Icon Theme</dc:title>
      </cc:Work>
    </rdf:RDF>
  </metadata>
  <title
     id="title9167">Gnome Symbolic Icon Theme</title>
  <g
     id="layer10"
     transform="translate(-301,-447)"
     style="fill:#000000;fill-opacity:1">
    <path
       id="path4781"
       style="block-progression:tb;text-indent:0;color:#000000;text-transform:none;fill:#000000;fill-opacity:1"
       d="m313.91 448a1.0001 1.0001 0 0 0 -0.91 1v13a1.0001 1.0001 0 1 0 2 0v-12h1a1.0001 1.0001 0 1 0 0 -2h-2a1.0001 1.0001 0 0 0 -0.0937 0z" />
    <path
       id="rect5551"
       style="block-progression:tb;text-indent:0;color:#000000;enable-background:new;text-transform:none;fill:#000000;fill-opacity:1"
       d="m314 453v0.5 2 0.5h0.5 2 0.5v-0.5-2-0.5h-0.5-2-0.5zm1 1h1v1h-1v-1z" />
    <path
       id="rect5551-4"
       style="block-progression:tb;text-indent:0;color:#000000;enable-background:new;text-transform:none;fill:#000000;fill-opacity:1"
       d="m314 457v0.5 2 0.5h0.5 2 0.5v-0.5-2-0.5h-0.5-2-0.5zm1 1h1v1h-1v-1z" />
    <path
       id="path5571"
       style="block-progression:tb;text-indent:0;color:#000000;text-transform:none;fill:#000000;fill-opacity:1"
       d="m301 451v1 10 1h1 8 1v-1-1h1v-2h-1-1-1v1 1h-6v-8h2 1v-2h-1-3-1z" />
    <path
       id="rect3818-0"
       style="fill:#000000;fill-opacity:1"
       d="m307 448 5.0002 4h-3.0002v4.5312h-2z" />
    <path
       id="path3822-1"
       style="fill:#000000;fill-opacity:1"
       d="m9.625 223.69a6.0625 5.9375 0 1 1 -12.125 0 6.0625 5.9375 0 1 1 12.125 0z"
       transform="matrix(.41157 0 0 .42024 305.03 362.5)" />
  </g>
</svg>
