<?xml version="1.0" encoding="UTF-8" standalone="no"?>
<!-- Created with Inkscape (http://www.inkscape.org/) -->

<svg
   xmlns:dc="http://purl.org/dc/elements/1.1/"
   xmlns:cc="http://creativecommons.org/ns#"
   xmlns:rdf="http://www.w3.org/1999/02/22-rdf-syntax-ns#"
   xmlns:svg="http://www.w3.org/2000/svg"
   xmlns="http://www.w3.org/2000/svg"
   xmlns:sodipodi="http://sodipodi.sourceforge.net/DTD/sodipodi-0.dtd"
   xmlns:inkscape="http://www.inkscape.org/namespaces/inkscape"
   id="svg7384"
   height="16"
   width="16"
   version="1.1"
   inkscape:version="0.48.5 r10040"
   sodipodi:docname="drive-multidisk-symbolic.svg">
  <defs
     id="defs13" />
  <sodipodi:namedview
     pagecolor="#ffffff"
     bordercolor="#666666"
     borderopacity="1"
     objecttolerance="10"
     gridtolerance="10"
     guidetolerance="10"
     inkscape:pageopacity="0"
     inkscape:pageshadow="2"
     inkscape:window-width="640"
     inkscape:window-height="480"
     id="namedview11"
     showgrid="false"
     inkscape:zoom="14.75"
     inkscape:cx="8"
     inkscape:cy="8"
     inkscape:window-x="0"
     inkscape:window-y="31"
     inkscape:window-maximized="0"
     inkscape:current-layer="svg7384" />
  <metadata
     id="metadata90">
    <rdf:RDF>
      <cc:Work
         rdf:about="">
        <dc:format>image/svg+xml</dc:format>
        <dc:type
           rdf:resource="http://purl.org/dc/dcmitype/StillImage" />
        <dc:title>Gnome Symbolic Icon Theme</dc:title>
      </cc:Work>
    </rdf:RDF>
  </metadata>
  <title
     id="title9167">Gnome Symbolic Icon Theme</title>
  <g
     id="layer10"
     transform="translate(359,-487)"
     style="fill:#000000;fill-opacity:1">
    <path
       id="rect3878"
       style="block-progression:tb;text-indent:0;color:#000000;enable-background:new;text-transform:none;fill:#000000;fill-opacity:1"
       d="m-355.34 487c-1.4182 0-2.5938 1.1756-2.5938 2.5938v11.375 1h1 12 1v-1-11.375c0-1.4182-1.1755-2.5938-2.5938-2.5938h-8.82zm0 2h8.8125c0.34449 0 0.59375 0.24859 0.59375 0.59375v10.375h-10v-10.375c0-0.34 0.25-0.59 0.6-0.59z" />
    <path
       id="path3881"
       style="block-progression:tb;text-indent:0;color:#000000;enable-background:new;text-transform:none;fill:#000000;fill-opacity:1"
       d="m-354 491.03v1h0.5 5 0.5v-1h-0.5-5-0.5z" />
    <path
       id="path3883"
       style="block-progression:tb;text-indent:0;color:#000000;enable-background:new;text-transform:none;fill:#000000;fill-opacity:1"
       d="m-354 493v1h0.5 5 0.5v-1h-0.5-5-0.5z" />
    <path
       id="path3885"
       style="block-progression:tb;text-indent:0;color:#000000;enable-background:new;text-transform:none;fill:#000000;fill-opacity:1"
       d="m-354 495v1h0.5 5 0.5v-1h-0.5-5-0.5z" />
    <path
       id="path3887"
       style="block-progression:tb;text-indent:0;color:#000000;enable-background:new;text-transform:none;fill:#000000;fill-opacity:1"
       d="m-354 497v1h0.5 5 0.5v-1h-0.5-5-0.5z" />
  </g>
</svg>
