<?xml version="1.0" encoding="UTF-8" standalone="no"?>
<!-- Created with Inkscape (http://www.inkscape.org/) -->

<svg
   xmlns:osb="http://www.openswatchbook.org/uri/2009/osb"
   xmlns:dc="http://purl.org/dc/elements/1.1/"
   xmlns:cc="http://creativecommons.org/ns#"
   xmlns:rdf="http://www.w3.org/1999/02/22-rdf-syntax-ns#"
   xmlns:svg="http://www.w3.org/2000/svg"
   xmlns="http://www.w3.org/2000/svg"
   xmlns:sodipodi="http://sodipodi.sourceforge.net/DTD/sodipodi-0.dtd"
   xmlns:inkscape="http://www.inkscape.org/namespaces/inkscape"
   sodipodi:docname="goa-panel-symbolic.svg"
   inkscape:export-filename="/home/sam/source-symbolic.png"
   inkscape:export-xdpi="270"
   inkscape:export-ydpi="270"
   height="16"
   id="svg7384"
   style="enable-background:new"
   version="1.1"
   inkscape:version="0.48.5 r10040"
   width="16">
  <sodipodi:namedview
     inkscape:bbox-nodes="true"
     inkscape:bbox-paths="true"
     bordercolor="#666666"
     borderlayer="false"
     borderopacity="1"
     inkscape:current-layer="g6058"
     inkscape:cx="93.465722"
     inkscape:cy="-17.426012"
     gridtolerance="10"
     inkscape:guide-bbox="true"
     guidetolerance="10"
     id="namedview88"
     inkscape:object-nodes="true"
     inkscape:object-paths="true"
     objecttolerance="10"
     pagecolor="#f7f7f7"
     inkscape:pageopacity="1"
     inkscape:pageshadow="2"
     showborder="false"
     showgrid="false"
     showguides="true"
     inkscape:showpageshadow="false"
     inkscape:snap-bbox="true"
     inkscape:snap-bbox-edge-midpoints="false"
     inkscape:snap-bbox-midpoints="false"
     inkscape:snap-center="false"
     inkscape:snap-global="true"
     inkscape:snap-grids="true"
     inkscape:snap-intersection-paths="true"
     inkscape:snap-midpoints="true"
     inkscape:snap-nodes="true"
     inkscape:snap-object-midpoints="true"
     inkscape:snap-others="true"
     inkscape:snap-page="false"
     inkscape:snap-smooth-nodes="true"
     inkscape:snap-to-guides="true"
     inkscape:window-height="1007"
     inkscape:window-maximized="1"
     inkscape:window-width="1920"
     inkscape:window-x="0"
     inkscape:window-y="31"
     inkscape:zoom="5.6568542">
    <inkscape:grid
       color="#000000"
       dotted="false"
       empcolor="#0800ff"
       empopacity="0.4627451"
       empspacing="4"
       enabled="true"
       id="grid4866"
       opacity="0.16470588"
       originx="-463.96855px"
       originy="-136px"
       snapvisiblegridlinesonly="true"
       spacingx="0.25px"
       spacingy="0.25px"
       type="xygrid"
       visible="true" />
  </sodipodi:namedview>
  <metadata
     id="metadata90">
    <rdf:RDF>
      <cc:Work
         rdf:about="">
        <dc:format>image/svg+xml</dc:format>
        <dc:type
           rdf:resource="http://purl.org/dc/dcmitype/StillImage" />
        <dc:title>Paper Symbolic Icon Theme</dc:title>
      </cc:Work>
    </rdf:RDF>
  </metadata>
  <title
     id="title8473">Paper Symbolic Icon Theme</title>
  <defs
     id="defs7386">
    <linearGradient
       id="linearGradient5606"
       osb:paint="solid">
      <stop
         id="stop5608"
         offset="0"
         style="stop-color:#000000;stop-opacity:1;" />
    </linearGradient>
    <filter
       inkscape:collect="always"
       color-interpolation-filters="sRGB"
       id="filter7554">
      <feBlend
         inkscape:collect="always"
         id="feBlend7556"
         in2="BackgroundImage"
         mode="darken" />
    </filter>
  </defs>
  <g
     inkscape:groupmode="layer"
     id="layer9"
     inkscape:label="status"
     style="display:inline"
     transform="translate(-704.96875,-81.000002)" />
  <g
     inkscape:groupmode="layer"
     id="layer10"
     inkscape:label="devices"
     style="display:inline;filter:url(#filter7554)"
     transform="translate(-704.96875,-81.000002)" />
  <g
     inkscape:groupmode="layer"
     id="layer1"
     inkscape:label="places"
     style="display:inline"
     transform="translate(-463.96855,-698)" />
  <g
     inkscape:groupmode="layer"
     id="layer14"
     inkscape:label="mimetypes"
     style="display:inline"
     transform="translate(-704.96875,-81.000002)" />
  <g
     inkscape:groupmode="layer"
     id="layer15"
     inkscape:label="emblems"
     style="display:inline"
     transform="translate(-704.96875,-81.000002)" />
  <g
     inkscape:groupmode="layer"
     id="g71291"
     inkscape:label="emotes"
     style="display:inline"
     transform="translate(-704.96875,-81.000002)" />
  <g
     inkscape:groupmode="layer"
     id="layer2"
     inkscape:label="categories"
     style="display:inline"
     transform="translate(-463.96855,-548)" />
  <g
     inkscape:groupmode="layer"
     id="g6058"
     inkscape:label="apps"
     style="display:inline"
     transform="translate(-463.96855,-548)">
    <g
       id="g7914"
       inkscape:label="web-browser"
       style="display:inline"
       transform="translate(362.96855,271)" />
    <path
       inkscape:connector-curvature="0"
       d="m 468,549 0,4 -3,0 c -0.54534,0 -0.96875,0.42341 -0.96875,0.96875 0,0.54535 0.42341,1 0.96875,1 l 3,0 0,2.0625 -3,0 c -0.54534,0 -0.96875,0.42341 -0.96875,0.96875 0,0.54535 0.42341,1 0.96875,1 l 3,0 0,4 1,-0.0937 c 3.67508,-0.34454 5.76682,-4.02303 5.9375,-6.875 0.23648,-0.0665 0.53042,0.0111 0.6875,0.1875 l 0,0.0312 c 0.16445,0.15757 0.37436,0.41118 0.625,0.65625 0.25064,0.24507 0.60354,0.47879 1.0625,0.53125 0.4719,0.04 0.88833,-0.15809 1.15625,-0.46875 0.26137,-0.30307 0.3995,-0.70745 0.375,-1.125 -2.3e-4,-0.011 3.9e-4,-0.0204 0,-0.0312 -0.0363,-1.00877 -0.73453,-1.69168 -1.21875,-2.21875 -0.32738,-0.35889 -0.51919,-0.79134 -0.40625,-1.125 0.0978,-0.28616 0.46274,-0.49156 0.8125,-0.46875 l 0.0312,0 0.0312,0 c 0.57283,-0.0201 0.70488,0.003 1.3125,0 l 0,-1 c -0.56205,0.003 -0.73654,-0.0187 -1.3125,0 -0.0137,4.5e-4 -0.0172,-5e-4 -0.0312,0 -0.74361,-0.0366 -1.51171,0.36762 -1.78125,1.15625 -0.28648,0.84634 0.1721,1.62849 0.625,2.125 0.50634,0.55116 0.92597,1.0521 0.9375,1.59375 l 0.0312,0 c 0.0101,0.12705 -0.0578,0.32333 -0.15625,0.4375 -0.0985,0.11417 -0.19795,0.16596 -0.3125,0.15625 -0.16676,-0.0191 -0.2944,-0.11077 -0.46875,-0.28125 -0.16979,-0.16602 -0.35398,-0.39175 -0.59375,-0.625 -0.007,-0.007 -0.0247,0.007 -0.0312,0 -0.36526,-0.39563 -0.90243,-0.60685 -1.40625,-0.5625 -0.44674,-3.11853 -2.91199,-5.469 -5.90625,-5.90625 l -1,-0.0937 z m 1,2.09375 c 2.04247,0.42745 3.70504,2.1191 3.96875,4.3125 0.31355,2.60795 -1.39127,5.02493 -3.96875,5.53125 l 0,-9.84375 z"
       id="path7920"
       style="font-size:medium;font-style:normal;font-variant:normal;font-weight:normal;font-stretch:normal;text-indent:0;text-align:start;text-decoration:none;line-height:normal;letter-spacing:normal;word-spacing:normal;text-transform:none;direction:ltr;block-progression:tb;writing-mode:lr-tb;text-anchor:start;baseline-shift:baseline;color:#000000;fill:#000000;fill-opacity:1;stroke:none;stroke-width:2;marker:none;visibility:visible;display:inline;overflow:visible;enable-background:accumulate;font-family:Sans;-inkscape-font-specification:Sans" />
  </g>
  <g
     inkscape:groupmode="layer"
     id="layer12"
     inkscape:label="actions"
     style="display:inline"
     transform="translate(-704.96875,-81.000002)" />
</svg>
